%TF.GenerationSoftware,Altium Limited,Altium Designer,21.6.4 (81)*%
G04 Layer_Color=8421504*
%FSLAX26Y26*%
%MOIN*%
%TF.SameCoordinates,5FA90F47-3B47-4036-B415-51D33840892C*%
%TF.FilePolarity,Positive*%
%TF.FileFunction,Paste,Top*%
%TF.Part,CustomerPanel*%
G01*
G75*
%TA.AperFunction,SMDPad,CuDef*%
G04:AMPARAMS|DCode=11|XSize=11.811mil|YSize=29.528mil|CornerRadius=1.949mil|HoleSize=0mil|Usage=FLASHONLY|Rotation=315.000|XOffset=0mil|YOffset=0mil|HoleType=Round|Shape=RoundedRectangle|*
%AMROUNDEDRECTD11*
21,1,0.011811,0.025630,0,0,315.0*
21,1,0.007913,0.029528,0,0,315.0*
1,1,0.003898,-0.006264,-0.011859*
1,1,0.003898,-0.011859,-0.006264*
1,1,0.003898,0.006264,0.011859*
1,1,0.003898,0.011859,0.006264*
%
%ADD11ROUNDEDRECTD11*%
G04:AMPARAMS|DCode=12|XSize=11.811mil|YSize=29.528mil|CornerRadius=1.949mil|HoleSize=0mil|Usage=FLASHONLY|Rotation=45.000|XOffset=0mil|YOffset=0mil|HoleType=Round|Shape=RoundedRectangle|*
%AMROUNDEDRECTD12*
21,1,0.011811,0.025630,0,0,45.0*
21,1,0.007913,0.029528,0,0,45.0*
1,1,0.003898,0.011859,-0.006264*
1,1,0.003898,0.006264,-0.011859*
1,1,0.003898,-0.011859,0.006264*
1,1,0.003898,-0.006264,0.011859*
%
%ADD12ROUNDEDRECTD12*%
%TA.AperFunction,NonConductor*%
%ADD21P,0.052281X4X360.0*%
G04:AMPARAMS|DCode=22|XSize=36.97mil|YSize=36.968mil|CornerRadius=0mil|HoleSize=0mil|Usage=FLASHONLY|Rotation=315.000|XOffset=0mil|YOffset=0mil|HoleType=Round|Shape=Rectangle|*
%AMROTATEDRECTD22*
4,1,4,-0.026141,0.000001,-0.000001,0.026141,0.026141,-0.000001,0.000001,-0.026141,-0.026141,0.000001,0.0*
%
%ADD22ROTATEDRECTD22*%

D11*
X1326338Y1447052D02*
D03*
X1308242Y1465148D02*
D03*
X1409854Y1566760D02*
D03*
X1427950Y1548664D02*
D03*
X1373664Y1602950D02*
D03*
X1391758Y1584856D02*
D03*
X1272052Y1501338D02*
D03*
X1290146Y1483242D02*
D03*
X1840146D02*
D03*
X1858242Y1465148D02*
D03*
X1876338Y1447052D02*
D03*
X1941758Y1584856D02*
D03*
X1959854Y1566760D02*
D03*
X1977950Y1548664D02*
D03*
X1923664Y1602950D02*
D03*
X1822052Y1501338D02*
D03*
X2390146Y1483242D02*
D03*
X2408242Y1465148D02*
D03*
X2426338Y1447052D02*
D03*
X2509854Y1566760D02*
D03*
X2527950Y1548664D02*
D03*
X2473664Y1602950D02*
D03*
X2491758Y1584856D02*
D03*
X2372052Y1501338D02*
D03*
X2940146Y1483242D02*
D03*
X2958242Y1465148D02*
D03*
X2976338Y1447052D02*
D03*
X3041758Y1584856D02*
D03*
X3059854Y1566760D02*
D03*
X3077950Y1548664D02*
D03*
X3023664Y1602950D02*
D03*
X2922052Y1501338D02*
D03*
X3490146Y1483242D02*
D03*
X3508242Y1465148D02*
D03*
X3526338Y1447052D02*
D03*
X3609854Y1566760D02*
D03*
X3627950Y1548664D02*
D03*
X3573664Y1602950D02*
D03*
X3591758Y1584856D02*
D03*
X3472052Y1501338D02*
D03*
X3526338Y2847052D02*
D03*
X3508242Y2865148D02*
D03*
X3609854Y2966760D02*
D03*
X3627950Y2948664D02*
D03*
X3573664Y3002950D02*
D03*
X3591758Y2984856D02*
D03*
X3472052Y2901338D02*
D03*
X3490146Y2883242D02*
D03*
X3023664Y3002950D02*
D03*
X3041758Y2984856D02*
D03*
X3059854Y2966760D02*
D03*
X3077950Y2948664D02*
D03*
X2922052Y2901338D02*
D03*
X2940146Y2883242D02*
D03*
X2958242Y2865148D02*
D03*
X2976338Y2847052D02*
D03*
X2527950Y2948664D02*
D03*
X2509854Y2966760D02*
D03*
X2473664Y3002950D02*
D03*
X2491758Y2984856D02*
D03*
X2426338Y2847052D02*
D03*
X2408242Y2865148D02*
D03*
X2372052Y2901338D02*
D03*
X2390146Y2883242D02*
D03*
X1923664Y3002950D02*
D03*
X1941758Y2984856D02*
D03*
X1959854Y2966760D02*
D03*
X1977950Y2948664D02*
D03*
X1822052Y2901338D02*
D03*
X1840146Y2883242D02*
D03*
X1858242Y2865148D02*
D03*
X1876338Y2847052D02*
D03*
X1427950Y2948664D02*
D03*
X1409854Y2966760D02*
D03*
X1373664Y3002950D02*
D03*
X1391758Y2984856D02*
D03*
X1326338Y2847052D02*
D03*
X1308242Y2865148D02*
D03*
X1272052Y2901338D02*
D03*
X1290146Y2883242D02*
D03*
D12*
X1409854Y1483242D02*
D03*
X1427948Y1501338D02*
D03*
X1326338Y1602948D02*
D03*
X1308242Y1584854D02*
D03*
X1391758Y1465148D02*
D03*
X1373662Y1447052D02*
D03*
X1272052Y1548662D02*
D03*
X1290148Y1566758D02*
D03*
X1822052Y1548662D02*
D03*
X1840148Y1566758D02*
D03*
X1858242Y1584854D02*
D03*
X1941758Y1465148D02*
D03*
X1959854Y1483242D02*
D03*
X1923662Y1447052D02*
D03*
X1977948Y1501338D02*
D03*
X1876338Y1602948D02*
D03*
X2372052Y1548662D02*
D03*
X2390148Y1566758D02*
D03*
X2491758Y1465148D02*
D03*
X2473662Y1447052D02*
D03*
X2509854Y1483242D02*
D03*
X2527948Y1501338D02*
D03*
X2426338Y1602948D02*
D03*
X2408242Y1584854D02*
D03*
X2958242D02*
D03*
X2940148Y1566758D02*
D03*
X2922052Y1548662D02*
D03*
X3041758Y1465148D02*
D03*
X3059854Y1483242D02*
D03*
X3023662Y1447052D02*
D03*
X3077948Y1501338D02*
D03*
X2976338Y1602948D02*
D03*
X3472052Y1548662D02*
D03*
X3490148Y1566758D02*
D03*
X3591758Y1465148D02*
D03*
X3573662Y1447052D02*
D03*
X3609854Y1483242D02*
D03*
X3627948Y1501338D02*
D03*
X3526338Y1602948D02*
D03*
X3508242Y1584854D02*
D03*
X3609854Y2883242D02*
D03*
X3627948Y2901338D02*
D03*
X3526338Y3002948D02*
D03*
X3508242Y2984854D02*
D03*
X3591758Y2865148D02*
D03*
X3573662Y2847052D02*
D03*
X3472052Y2948662D02*
D03*
X3490148Y2966758D02*
D03*
X3077948Y2901338D02*
D03*
X3059854Y2883242D02*
D03*
X3041758Y2865148D02*
D03*
X3023662Y2847052D02*
D03*
X2922052Y2948662D02*
D03*
X2940148Y2966758D02*
D03*
X2958242Y2984854D02*
D03*
X2976338Y3002948D02*
D03*
X2527948Y2901338D02*
D03*
X2509854Y2883242D02*
D03*
X2408242Y2984854D02*
D03*
X2491758Y2865148D02*
D03*
X2473662Y2847052D02*
D03*
X2372052Y2948662D02*
D03*
X2390148Y2966758D02*
D03*
X2426338Y3002948D02*
D03*
X1977948Y2901338D02*
D03*
X1959854Y2883242D02*
D03*
X1941758Y2865148D02*
D03*
X1923662Y2847052D02*
D03*
X1822052Y2948662D02*
D03*
X1840148Y2966758D02*
D03*
X1858242Y2984854D02*
D03*
X1876338Y3002948D02*
D03*
X1427948Y2901338D02*
D03*
X1409854Y2883242D02*
D03*
X1308242Y2984854D02*
D03*
X1391758Y2865148D02*
D03*
X1373662Y2847052D02*
D03*
X1272052Y2948662D02*
D03*
X1290148Y2966758D02*
D03*
X1326338Y3002948D02*
D03*
D21*
X1318310Y1524984D02*
D03*
X1350018Y1556692D02*
D03*
X1868310Y1524984D02*
D03*
X1900018Y1556692D02*
D03*
X2418310Y1524984D02*
D03*
X2450018Y1556692D02*
D03*
X2968310Y1524984D02*
D03*
X3000018Y1556692D02*
D03*
X3518310Y1524984D02*
D03*
X3550018Y1556692D02*
D03*
Y2956692D02*
D03*
X3518310Y2924984D02*
D03*
X3000018Y2956692D02*
D03*
X2968310Y2924984D02*
D03*
X2450018Y2956692D02*
D03*
X2418310Y2924984D02*
D03*
X1900018Y2956692D02*
D03*
X1868310Y2924984D02*
D03*
X1350018Y2956692D02*
D03*
X1318310Y2924984D02*
D03*
D22*
X1350019Y1493274D02*
D03*
X1381727Y1524982D02*
D03*
X1900019Y1493274D02*
D03*
X1931727Y1524982D02*
D03*
X2450019Y1493274D02*
D03*
X2481727Y1524982D02*
D03*
X3000019Y1493274D02*
D03*
X3031727Y1524982D02*
D03*
X3550019Y1493274D02*
D03*
X3581727Y1524982D02*
D03*
X3550019Y2893274D02*
D03*
X3581727Y2924982D02*
D03*
X3031727D02*
D03*
X3000019Y2893274D02*
D03*
X2481727Y2924982D02*
D03*
X2450019Y2893274D02*
D03*
X1931727Y2924982D02*
D03*
X1900019Y2893274D02*
D03*
X1381727Y2924982D02*
D03*
X1350019Y2893274D02*
D03*
%TF.MD5,542d71e6c7dffaca09a0417dd9093573*%
M02*
