%TF.GenerationSoftware,Altium Limited,Altium Designer,21.6.4 (81)*%
G04 Layer_Color=8388736*
%FSLAX26Y26*%
%MOIN*%
%TF.SameCoordinates,5FA90F47-3B47-4036-B415-51D33840892C*%
%TF.FilePolarity,Positive*%
%TF.FileFunction,Other,Route_Tool_Path*%
%TF.Part,CustomerPanel*%
G01*
G75*
%TA.AperFunction,NonConductor*%
%ADD26C,0.078740*%
%ADD27C,0.078740*%
D26*
X1110629Y1125000D02*
G03*
X1150000Y1085629I39371J0D01*
G01*
X1110629Y1125000D02*
G03*
X1150000Y1085629I39371J0D01*
G01*
X1110629Y1125000D02*
Y1925000D01*
X1150000Y1964371D02*
G03*
X1110629Y1925000I0J-39371D01*
G01*
X1150000Y1964371D02*
G03*
X1110629Y1925000I0J-39371D01*
G01*
X1589371D02*
G03*
X1550000Y1964371I-39371J0D01*
G01*
X1589371Y1925000D02*
G03*
X1550000Y1964371I-39371J0D01*
G01*
X1589371Y1925000D02*
Y1125000D01*
X1550000Y1085629D02*
G03*
X1589371Y1125000I0J39371D01*
G01*
X1550000Y1085629D02*
G03*
X1589371Y1125000I0J39371D01*
G01*
X1660629D02*
G03*
X1700000Y1085629I39371J0D01*
G01*
X1660629Y1125000D02*
G03*
X1700000Y1085629I39371J0D01*
G01*
X1660629Y1125000D02*
Y1925000D01*
X1700000Y1964371D02*
G03*
X1660629Y1925000I0J-39371D01*
G01*
X1700000Y1964371D02*
G03*
X1660629Y1925000I0J-39371D01*
G01*
X2139371D02*
G03*
X2100000Y1964371I-39371J0D01*
G01*
X2139371Y1925000D02*
G03*
X2100000Y1964371I-39371J0D01*
G01*
X2139371Y1925000D02*
Y1125000D01*
X2100000Y1085629D02*
G03*
X2139371Y1125000I0J39371D01*
G01*
X2100000Y1085629D02*
G03*
X2139371Y1125000I0J39371D01*
G01*
X2210629D02*
G03*
X2250000Y1085629I39371J0D01*
G01*
X2210629Y1125000D02*
G03*
X2250000Y1085629I39371J0D01*
G01*
X2210629Y1125000D02*
Y1925000D01*
X2250000Y1964371D02*
G03*
X2210629Y1925000I0J-39371D01*
G01*
X2250000Y1964371D02*
G03*
X2210629Y1925000I0J-39371D01*
G01*
X2689371D02*
G03*
X2650000Y1964371I-39371J0D01*
G01*
X2689371Y1925000D02*
G03*
X2650000Y1964371I-39371J0D01*
G01*
X2689371Y1925000D02*
Y1125000D01*
X2650000Y1085629D02*
G03*
X2689371Y1125000I0J39371D01*
G01*
X2650000Y1085629D02*
G03*
X2689371Y1125000I0J39371D01*
G01*
X2760629D02*
G03*
X2800000Y1085629I39371J0D01*
G01*
X2760629Y1125000D02*
G03*
X2800000Y1085629I39371J0D01*
G01*
X2760629Y1125000D02*
Y1925000D01*
X2800000Y1964371D02*
G03*
X2760629Y1925000I0J-39371D01*
G01*
X2800000Y1964371D02*
G03*
X2760629Y1925000I0J-39371D01*
G01*
X3239371D02*
G03*
X3200000Y1964371I-39371J0D01*
G01*
X3239371Y1925000D02*
G03*
X3200000Y1964371I-39371J0D01*
G01*
X3239371Y1925000D02*
Y1125000D01*
X3200000Y1085629D02*
G03*
X3239371Y1125000I0J39371D01*
G01*
X3200000Y1085629D02*
G03*
X3239371Y1125000I0J39371D01*
G01*
X3310629D02*
G03*
X3350000Y1085629I39371J0D01*
G01*
X3310629Y1125000D02*
G03*
X3350000Y1085629I39371J0D01*
G01*
X3310629Y1125000D02*
Y1925000D01*
X3350000Y1964371D02*
G03*
X3310629Y1925000I0J-39371D01*
G01*
X3350000Y1964371D02*
G03*
X3310629Y1925000I0J-39371D01*
G01*
X3789371D02*
G03*
X3750000Y1964371I-39371J0D01*
G01*
X3789371Y1925000D02*
G03*
X3750000Y1964371I-39371J0D01*
G01*
X3789371Y1925000D02*
Y1125000D01*
X3750000Y1085629D02*
G03*
X3789371Y1125000I0J39371D01*
G01*
X3750000Y1085629D02*
G03*
X3789371Y1125000I0J39371D01*
G01*
X3750000Y2485629D02*
G03*
X3789371Y2525000I0J39371D01*
G01*
Y3325000D01*
D02*
G03*
X3750000Y3364371I-39371J0D01*
G01*
X3789371Y3325000D02*
G03*
X3750000Y3364371I-39371J0D01*
G01*
X3350000D02*
G03*
X3310629Y3325000I0J-39371D01*
G01*
X3350000Y3364371D02*
G03*
X3310629Y3325000I0J-39371D01*
G01*
Y2525000D01*
D02*
G03*
X3350000Y2485629I39371J0D01*
G01*
X3310629Y2525000D02*
G03*
X3350000Y2485629I39371J0D01*
G01*
X3239371Y2525000D02*
Y3325000D01*
D02*
G03*
X3200000Y3364371I-39371J0D01*
G01*
X3239371Y3325000D02*
G03*
X3200000Y3364371I-39371J0D01*
G01*
X2800000D02*
G03*
X2760629Y3325000I0J-39371D01*
G01*
X2800000Y3364371D02*
G03*
X2760629Y3325000I0J-39371D01*
G01*
Y2525000D01*
D02*
G03*
X2800000Y2485629I39371J0D01*
G01*
X2760629Y2525000D02*
G03*
X2800000Y2485629I39371J0D01*
G01*
X2689371Y2525000D02*
Y3325000D01*
D02*
G03*
X2650000Y3364371I-39371J0D01*
G01*
X2689371Y3325000D02*
G03*
X2650000Y3364371I-39371J0D01*
G01*
X2250000D02*
G03*
X2210629Y3325000I0J-39371D01*
G01*
X2250000Y3364371D02*
G03*
X2210629Y3325000I0J-39371D01*
G01*
Y2525000D01*
D02*
G03*
X2250000Y2485629I39371J0D01*
G01*
X2210629Y2525000D02*
G03*
X2250000Y2485629I39371J0D01*
G01*
X2139371Y2525000D02*
Y3325000D01*
D02*
G03*
X2100000Y3364371I-39371J0D01*
G01*
X2139371Y3325000D02*
G03*
X2100000Y3364371I-39371J0D01*
G01*
X1700000D02*
G03*
X1660629Y3325000I0J-39371D01*
G01*
X1700000Y3364371D02*
G03*
X1660629Y3325000I0J-39371D01*
G01*
Y2525000D01*
D02*
G03*
X1700000Y2485629I39371J0D01*
G01*
X1660629Y2525000D02*
G03*
X1700000Y2485629I39371J0D01*
G01*
X1589371Y2525000D02*
Y3325000D01*
D02*
G03*
X1550000Y3364371I-39371J0D01*
G01*
X1589371Y3325000D02*
G03*
X1550000Y3364371I-39371J0D01*
G01*
X1150000D02*
G03*
X1110629Y3325000I0J-39371D01*
G01*
X1150000Y3364371D02*
G03*
X1110629Y3325000I0J-39371D01*
G01*
Y2525000D01*
D02*
G03*
X1150000Y2485629I39371J0D01*
G01*
X1110629Y2525000D02*
G03*
X1150000Y2485629I39371J0D01*
G01*
X1550000D02*
G03*
X1589371Y2525000I0J39371D01*
G01*
X1550000Y2485629D02*
G03*
X1589371Y2525000I0J39371D01*
G01*
X2100000Y2485629D02*
G03*
X2139371Y2525000I0J39371D01*
G01*
X2100000Y2485629D02*
G03*
X2139371Y2525000I0J39371D01*
G01*
X2650000Y2485629D02*
G03*
X2689371Y2525000I0J39371D01*
G01*
X2650000Y2485629D02*
G03*
X2689371Y2525000I0J39371D01*
G01*
X3200000Y2485629D02*
G03*
X3239371Y2525000I0J39371D01*
G01*
X3200000Y2485629D02*
G03*
X3239371Y2525000I0J39371D01*
G01*
X3750000Y2485629D02*
G03*
X3789371Y2525000I0J39371D01*
G01*
D27*
X1000000Y975000D02*
Y3475000D01*
X3900000D01*
Y975000D01*
X1000000D01*
%TF.MD5,059f452119a87fd6aa49f38138c2c3db*%
M02*
