%TF.GenerationSoftware,Altium Limited,Altium Designer,21.6.4 (81)*%
G04 Layer_Color=8388736*
%FSLAX26Y26*%
%MOIN*%
%TF.SameCoordinates,5FA90F47-3B47-4036-B415-51D33840892C*%
%TF.FilePolarity,Negative*%
%TF.FileFunction,Soldermask,Top*%
%TF.Part,CustomerPanel*%
G01*
G75*
%TA.AperFunction,ViaPad*%
%ADD14C,0.019685*%
%ADD17C,0.068000*%
%ADD18C,0.027685*%
%TA.AperFunction,SMDPad,CuDef*%
G04:AMPARAMS|DCode=23|XSize=90.677mil|YSize=90.677mil|CornerRadius=6.067mil|HoleSize=0mil|Usage=FLASHONLY|Rotation=315.000|XOffset=0mil|YOffset=0mil|HoleType=Round|Shape=RoundedRectangle|*
%AMROUNDEDRECTD23*
21,1,0.090677,0.078543,0,0,315.0*
21,1,0.078543,0.090677,0,0,315.0*
1,1,0.012134,0.000000,-0.055539*
1,1,0.012134,-0.055539,0.000000*
1,1,0.012134,0.000000,0.055539*
1,1,0.012134,0.055539,0.000000*
%
%ADD23ROUNDEDRECTD23*%
G04:AMPARAMS|DCode=24|XSize=19.811mil|YSize=37.528mil|CornerRadius=5.949mil|HoleSize=0mil|Usage=FLASHONLY|Rotation=315.000|XOffset=0mil|YOffset=0mil|HoleType=Round|Shape=RoundedRectangle|*
%AMROUNDEDRECTD24*
21,1,0.019811,0.025630,0,0,315.0*
21,1,0.007913,0.037528,0,0,315.0*
1,1,0.011898,-0.006264,-0.011859*
1,1,0.011898,-0.011859,-0.006264*
1,1,0.011898,0.006264,0.011859*
1,1,0.011898,0.011859,0.006264*
%
%ADD24ROUNDEDRECTD24*%
G04:AMPARAMS|DCode=25|XSize=19.811mil|YSize=37.528mil|CornerRadius=5.949mil|HoleSize=0mil|Usage=FLASHONLY|Rotation=45.000|XOffset=0mil|YOffset=0mil|HoleType=Round|Shape=RoundedRectangle|*
%AMROUNDEDRECTD25*
21,1,0.019811,0.025630,0,0,45.0*
21,1,0.007913,0.037528,0,0,45.0*
1,1,0.011898,0.011859,-0.006264*
1,1,0.011898,0.006264,-0.011859*
1,1,0.011898,-0.011859,0.006264*
1,1,0.011898,-0.006264,0.011859*
%
%ADD25ROUNDEDRECTD25*%
D14*
X1200000Y1055000D02*
D03*
X1230000D02*
D03*
X1260000D02*
D03*
X1290000D02*
D03*
X1320000D02*
D03*
X1350000D02*
D03*
X1380000D02*
D03*
X1410000D02*
D03*
X1440000D02*
D03*
X1470000D02*
D03*
X1500000D02*
D03*
Y1115000D02*
D03*
X1470000D02*
D03*
X1440000D02*
D03*
X1410000D02*
D03*
X1380000D02*
D03*
X1350000D02*
D03*
X1320000D02*
D03*
X1290000D02*
D03*
X1260000D02*
D03*
X1230000D02*
D03*
X1200000D02*
D03*
X1750000Y1055000D02*
D03*
X1780000D02*
D03*
X1810000D02*
D03*
X1840000D02*
D03*
X1870000D02*
D03*
X1900000D02*
D03*
X1930000D02*
D03*
X1960000D02*
D03*
X1990000D02*
D03*
X2020000D02*
D03*
X2050000D02*
D03*
Y1115000D02*
D03*
X2020000D02*
D03*
X1990000D02*
D03*
X1960000D02*
D03*
X1930000D02*
D03*
X1900000D02*
D03*
X1870000D02*
D03*
X1840000D02*
D03*
X1810000D02*
D03*
X1780000D02*
D03*
X1750000D02*
D03*
X2300000Y1055000D02*
D03*
X2330000D02*
D03*
X2360000D02*
D03*
X2390000D02*
D03*
X2420000D02*
D03*
X2450000D02*
D03*
X2480000D02*
D03*
X2510000D02*
D03*
X2540000D02*
D03*
X2570000D02*
D03*
X2600000D02*
D03*
Y1115000D02*
D03*
X2570000D02*
D03*
X2540000D02*
D03*
X2510000D02*
D03*
X2480000D02*
D03*
X2450000D02*
D03*
X2420000D02*
D03*
X2390000D02*
D03*
X2360000D02*
D03*
X2330000D02*
D03*
X2300000D02*
D03*
X2850000Y1055000D02*
D03*
X2880000D02*
D03*
X2910000D02*
D03*
X2940000D02*
D03*
X2970000D02*
D03*
X3000000D02*
D03*
X3030000D02*
D03*
X3060000D02*
D03*
X3090000D02*
D03*
X3120000D02*
D03*
X3150000D02*
D03*
Y1115000D02*
D03*
X3120000D02*
D03*
X3090000D02*
D03*
X3060000D02*
D03*
X3030000D02*
D03*
X3000000D02*
D03*
X2970000D02*
D03*
X2940000D02*
D03*
X2910000D02*
D03*
X2880000D02*
D03*
X2850000D02*
D03*
X3400000Y1055000D02*
D03*
X3430000D02*
D03*
X3460000D02*
D03*
X3490000D02*
D03*
X3520000D02*
D03*
X3550000D02*
D03*
X3580000D02*
D03*
X3610000D02*
D03*
X3640000D02*
D03*
X3670000D02*
D03*
X3700000D02*
D03*
Y1115000D02*
D03*
X3670000D02*
D03*
X3640000D02*
D03*
X3610000D02*
D03*
X3580000D02*
D03*
X3550000D02*
D03*
X3520000D02*
D03*
X3490000D02*
D03*
X3460000D02*
D03*
X3430000D02*
D03*
X3400000D02*
D03*
X3700000Y1935000D02*
D03*
Y1995000D02*
D03*
X3670000D02*
D03*
X3640000D02*
D03*
X3610000D02*
D03*
Y1935000D02*
D03*
X3640000D02*
D03*
X3670000D02*
D03*
X3580000D02*
D03*
X3550000D02*
D03*
X3520000D02*
D03*
Y1995000D02*
D03*
X3550000D02*
D03*
X3580000D02*
D03*
X3490000D02*
D03*
X3460000D02*
D03*
X3430000D02*
D03*
X3400000D02*
D03*
Y1935000D02*
D03*
X3430000D02*
D03*
X3460000D02*
D03*
X3490000D02*
D03*
X3150000D02*
D03*
X3120000D02*
D03*
Y1995000D02*
D03*
X3150000D02*
D03*
X3090000D02*
D03*
X3060000D02*
D03*
X3030000D02*
D03*
X3000000D02*
D03*
Y1935000D02*
D03*
X3030000D02*
D03*
X3060000D02*
D03*
X3090000D02*
D03*
X2970000D02*
D03*
X2940000D02*
D03*
X2910000D02*
D03*
Y1995000D02*
D03*
X2940000D02*
D03*
X2970000D02*
D03*
X2880000D02*
D03*
X2850000D02*
D03*
Y1935000D02*
D03*
X2880000D02*
D03*
X2600000D02*
D03*
Y1995000D02*
D03*
X2570000D02*
D03*
X2540000D02*
D03*
X2510000D02*
D03*
Y1935000D02*
D03*
X2540000D02*
D03*
X2570000D02*
D03*
X2480000D02*
D03*
X2450000D02*
D03*
X2420000D02*
D03*
Y1995000D02*
D03*
X2450000D02*
D03*
X2480000D02*
D03*
X2390000D02*
D03*
X2360000D02*
D03*
X2330000D02*
D03*
X2300000D02*
D03*
Y1935000D02*
D03*
X2330000D02*
D03*
X2360000D02*
D03*
X2390000D02*
D03*
X2050000D02*
D03*
X2020000D02*
D03*
Y1995000D02*
D03*
X2050000D02*
D03*
X1990000D02*
D03*
X1960000D02*
D03*
X1930000D02*
D03*
X1900000D02*
D03*
Y1935000D02*
D03*
X1930000D02*
D03*
X1960000D02*
D03*
X1990000D02*
D03*
X1870000D02*
D03*
X1840000D02*
D03*
X1810000D02*
D03*
Y1995000D02*
D03*
X1840000D02*
D03*
X1870000D02*
D03*
X1780000D02*
D03*
X1750000D02*
D03*
Y1935000D02*
D03*
X1780000D02*
D03*
X1500000D02*
D03*
Y1995000D02*
D03*
X1470000D02*
D03*
X1440000D02*
D03*
X1410000D02*
D03*
Y1935000D02*
D03*
X1440000D02*
D03*
X1470000D02*
D03*
X1380000D02*
D03*
X1350000D02*
D03*
X1320000D02*
D03*
Y1995000D02*
D03*
X1350000D02*
D03*
X1380000D02*
D03*
X1290000D02*
D03*
X1260000D02*
D03*
X1230000D02*
D03*
X1200000D02*
D03*
Y1935000D02*
D03*
X1230000D02*
D03*
X1260000D02*
D03*
X1290000D02*
D03*
X1750000Y2455000D02*
D03*
X1780000D02*
D03*
X1810000D02*
D03*
X1840000D02*
D03*
X1870000D02*
D03*
X1900000D02*
D03*
X1930000D02*
D03*
X1960000D02*
D03*
X1990000D02*
D03*
X2020000D02*
D03*
X2050000D02*
D03*
Y2515000D02*
D03*
X2020000D02*
D03*
X1990000D02*
D03*
X1960000D02*
D03*
X1930000D02*
D03*
X1900000D02*
D03*
X1870000D02*
D03*
X1840000D02*
D03*
X1810000D02*
D03*
X1780000D02*
D03*
X1750000D02*
D03*
X1500000D02*
D03*
Y2455000D02*
D03*
X1470000Y2515000D02*
D03*
X1440000D02*
D03*
X1410000D02*
D03*
Y2455000D02*
D03*
X1440000D02*
D03*
X1470000D02*
D03*
X1380000Y2515000D02*
D03*
X1350000D02*
D03*
X1320000D02*
D03*
Y2455000D02*
D03*
X1350000D02*
D03*
X1380000D02*
D03*
X1290000Y2515000D02*
D03*
X1260000D02*
D03*
X1230000D02*
D03*
X1200000D02*
D03*
Y2455000D02*
D03*
X1230000D02*
D03*
X1260000D02*
D03*
X1290000D02*
D03*
X2020000Y3335000D02*
D03*
X2050000D02*
D03*
Y3395000D02*
D03*
X2020000D02*
D03*
X1990000D02*
D03*
X1960000D02*
D03*
X1930000D02*
D03*
X1900000D02*
D03*
Y3335000D02*
D03*
X1930000D02*
D03*
X1960000D02*
D03*
X1990000D02*
D03*
X1870000D02*
D03*
X1840000D02*
D03*
X1810000D02*
D03*
Y3395000D02*
D03*
X1840000D02*
D03*
X1870000D02*
D03*
X1780000D02*
D03*
X1750000D02*
D03*
Y3335000D02*
D03*
X1780000D02*
D03*
X1500000D02*
D03*
Y3395000D02*
D03*
X1470000D02*
D03*
X1440000D02*
D03*
X1410000D02*
D03*
Y3335000D02*
D03*
X1440000D02*
D03*
X1470000D02*
D03*
X1380000D02*
D03*
X1350000D02*
D03*
X1320000D02*
D03*
Y3395000D02*
D03*
X1350000D02*
D03*
X1380000D02*
D03*
X1290000D02*
D03*
X1260000D02*
D03*
X1230000D02*
D03*
X1200000D02*
D03*
Y3335000D02*
D03*
X1230000D02*
D03*
X1260000D02*
D03*
X1290000D02*
D03*
X2300000Y2455000D02*
D03*
X2330000D02*
D03*
X2360000D02*
D03*
X2390000D02*
D03*
X2420000D02*
D03*
X2450000D02*
D03*
X2480000D02*
D03*
X2510000D02*
D03*
X2540000D02*
D03*
X2570000D02*
D03*
X2600000D02*
D03*
Y2515000D02*
D03*
X2570000D02*
D03*
X2540000D02*
D03*
X2510000D02*
D03*
X2480000D02*
D03*
X2450000D02*
D03*
X2420000D02*
D03*
X2390000D02*
D03*
X2360000D02*
D03*
X2330000D02*
D03*
X2300000D02*
D03*
X2850000Y2455000D02*
D03*
X2880000D02*
D03*
X2910000D02*
D03*
X2940000D02*
D03*
X2970000D02*
D03*
X3000000D02*
D03*
X3030000D02*
D03*
X3060000D02*
D03*
X3090000D02*
D03*
X3120000D02*
D03*
X3150000D02*
D03*
Y2515000D02*
D03*
X3120000D02*
D03*
X3090000D02*
D03*
X3060000D02*
D03*
X3030000D02*
D03*
X3000000D02*
D03*
X2970000D02*
D03*
X2940000D02*
D03*
X2910000D02*
D03*
X2880000D02*
D03*
X2850000D02*
D03*
X3400000Y2455000D02*
D03*
X3430000D02*
D03*
X3460000D02*
D03*
X3490000D02*
D03*
X3520000D02*
D03*
X3550000D02*
D03*
X3580000D02*
D03*
X3610000D02*
D03*
X3640000D02*
D03*
X3670000D02*
D03*
X3700000D02*
D03*
Y2515000D02*
D03*
X3670000D02*
D03*
X3640000D02*
D03*
X3610000D02*
D03*
X3580000D02*
D03*
X3550000D02*
D03*
X3520000D02*
D03*
X3490000D02*
D03*
X3460000D02*
D03*
X3430000D02*
D03*
X3400000D02*
D03*
X3700000Y3335000D02*
D03*
Y3395000D02*
D03*
X3670000D02*
D03*
X3640000D02*
D03*
X3610000D02*
D03*
Y3335000D02*
D03*
X3640000D02*
D03*
X3670000D02*
D03*
X3580000D02*
D03*
X3550000D02*
D03*
X3520000D02*
D03*
Y3395000D02*
D03*
X3550000D02*
D03*
X3580000D02*
D03*
X3490000D02*
D03*
X3460000D02*
D03*
X3430000D02*
D03*
X3400000D02*
D03*
Y3335000D02*
D03*
X3430000D02*
D03*
X3460000D02*
D03*
X3490000D02*
D03*
X3150000D02*
D03*
X3120000D02*
D03*
Y3395000D02*
D03*
X3150000D02*
D03*
X3090000D02*
D03*
X3060000D02*
D03*
X3030000D02*
D03*
X3000000D02*
D03*
Y3335000D02*
D03*
X3030000D02*
D03*
X3060000D02*
D03*
X3090000D02*
D03*
X2970000D02*
D03*
X2940000D02*
D03*
X2910000D02*
D03*
Y3395000D02*
D03*
X2940000D02*
D03*
X2970000D02*
D03*
X2880000D02*
D03*
X2850000D02*
D03*
Y3335000D02*
D03*
X2880000D02*
D03*
X2600000D02*
D03*
Y3395000D02*
D03*
X2570000D02*
D03*
X2540000D02*
D03*
X2510000D02*
D03*
Y3335000D02*
D03*
X2540000D02*
D03*
X2570000D02*
D03*
X2480000D02*
D03*
X2450000D02*
D03*
X2420000D02*
D03*
Y3395000D02*
D03*
X2450000D02*
D03*
X2480000D02*
D03*
X2390000D02*
D03*
X2360000D02*
D03*
X2330000D02*
D03*
X2300000D02*
D03*
Y3335000D02*
D03*
X2330000D02*
D03*
X2360000D02*
D03*
X2390000D02*
D03*
D17*
X1200000Y1175000D02*
D03*
Y1275000D02*
D03*
Y1375000D02*
D03*
Y1475000D02*
D03*
Y1575000D02*
D03*
Y1675000D02*
D03*
Y1775000D02*
D03*
Y1875000D02*
D03*
X1500000Y1575000D02*
D03*
Y1475000D02*
D03*
Y1375000D02*
D03*
Y1275000D02*
D03*
Y1175000D02*
D03*
X1750000D02*
D03*
Y1275000D02*
D03*
Y1375000D02*
D03*
Y1475000D02*
D03*
Y1575000D02*
D03*
Y1675000D02*
D03*
Y1775000D02*
D03*
Y1875000D02*
D03*
X1500000D02*
D03*
Y1775000D02*
D03*
Y1675000D02*
D03*
X2050000Y1175000D02*
D03*
Y1275000D02*
D03*
Y1375000D02*
D03*
Y1475000D02*
D03*
Y1575000D02*
D03*
Y1675000D02*
D03*
Y1775000D02*
D03*
Y1875000D02*
D03*
X2300000Y1575000D02*
D03*
Y1475000D02*
D03*
Y1375000D02*
D03*
Y1275000D02*
D03*
Y1175000D02*
D03*
X2600000D02*
D03*
Y1275000D02*
D03*
Y1375000D02*
D03*
Y1475000D02*
D03*
Y1575000D02*
D03*
Y1675000D02*
D03*
Y1775000D02*
D03*
Y1875000D02*
D03*
X2850000Y1675000D02*
D03*
Y1575000D02*
D03*
Y1475000D02*
D03*
Y1375000D02*
D03*
Y1275000D02*
D03*
Y1175000D02*
D03*
X3150000D02*
D03*
Y1275000D02*
D03*
Y1375000D02*
D03*
Y1475000D02*
D03*
Y1575000D02*
D03*
Y1675000D02*
D03*
Y1775000D02*
D03*
Y1875000D02*
D03*
X3400000Y1575000D02*
D03*
Y1475000D02*
D03*
Y1375000D02*
D03*
Y1275000D02*
D03*
Y1175000D02*
D03*
X3700000D02*
D03*
Y1275000D02*
D03*
Y1375000D02*
D03*
Y1475000D02*
D03*
Y1575000D02*
D03*
Y1675000D02*
D03*
Y1775000D02*
D03*
Y1875000D02*
D03*
X3400000D02*
D03*
Y1775000D02*
D03*
Y1675000D02*
D03*
X2850000Y1875000D02*
D03*
Y1775000D02*
D03*
X2300000Y1875000D02*
D03*
Y1775000D02*
D03*
Y1675000D02*
D03*
X3150000Y2575000D02*
D03*
Y2675000D02*
D03*
Y2775000D02*
D03*
Y2875000D02*
D03*
Y2975000D02*
D03*
Y3075000D02*
D03*
Y3175000D02*
D03*
Y3275000D02*
D03*
X3400000Y2975000D02*
D03*
Y2875000D02*
D03*
Y2775000D02*
D03*
Y2675000D02*
D03*
Y2575000D02*
D03*
X3700000D02*
D03*
Y2675000D02*
D03*
Y2775000D02*
D03*
Y2875000D02*
D03*
Y2975000D02*
D03*
Y3075000D02*
D03*
Y3175000D02*
D03*
Y3275000D02*
D03*
X3400000D02*
D03*
Y3175000D02*
D03*
Y3075000D02*
D03*
X2850000Y3275000D02*
D03*
Y3175000D02*
D03*
Y3075000D02*
D03*
Y2975000D02*
D03*
Y2875000D02*
D03*
Y2775000D02*
D03*
Y2675000D02*
D03*
Y2575000D02*
D03*
X2600000Y2775000D02*
D03*
Y2675000D02*
D03*
Y2575000D02*
D03*
Y2875000D02*
D03*
Y2975000D02*
D03*
Y3075000D02*
D03*
Y3175000D02*
D03*
Y3275000D02*
D03*
X2300000D02*
D03*
Y3175000D02*
D03*
Y3075000D02*
D03*
Y2975000D02*
D03*
Y2875000D02*
D03*
Y2775000D02*
D03*
Y2675000D02*
D03*
Y2575000D02*
D03*
X2050000Y2875000D02*
D03*
Y2775000D02*
D03*
Y2675000D02*
D03*
Y2575000D02*
D03*
X1750000Y2875000D02*
D03*
Y2775000D02*
D03*
Y2675000D02*
D03*
Y2575000D02*
D03*
X1500000Y2775000D02*
D03*
Y2675000D02*
D03*
Y2575000D02*
D03*
Y2875000D02*
D03*
Y2975000D02*
D03*
Y3075000D02*
D03*
Y3175000D02*
D03*
Y3275000D02*
D03*
X1750000Y3075000D02*
D03*
Y2975000D02*
D03*
Y3175000D02*
D03*
Y3275000D02*
D03*
X2050000Y2975000D02*
D03*
Y3075000D02*
D03*
Y3175000D02*
D03*
Y3275000D02*
D03*
X1200000D02*
D03*
Y3175000D02*
D03*
Y3075000D02*
D03*
Y2975000D02*
D03*
Y2875000D02*
D03*
Y2775000D02*
D03*
Y2675000D02*
D03*
Y2575000D02*
D03*
D18*
X1327730Y1502730D02*
D03*
X1372272D02*
D03*
Y1547272D02*
D03*
X1327730D02*
D03*
X1877730D02*
D03*
Y1502730D02*
D03*
X1922272D02*
D03*
Y1547272D02*
D03*
X2427730D02*
D03*
X2472272D02*
D03*
Y1502730D02*
D03*
X2427730D02*
D03*
X2977730D02*
D03*
Y1547272D02*
D03*
X3022272D02*
D03*
Y1502730D02*
D03*
X3527730D02*
D03*
X3572272D02*
D03*
Y1547272D02*
D03*
X3527730D02*
D03*
Y2902730D02*
D03*
X3572272D02*
D03*
Y2947272D02*
D03*
X3527730D02*
D03*
X3022272D02*
D03*
Y2902730D02*
D03*
X2977730D02*
D03*
Y2947272D02*
D03*
X2472272D02*
D03*
Y2902730D02*
D03*
X2427730D02*
D03*
Y2947272D02*
D03*
X1922272D02*
D03*
Y2902730D02*
D03*
X1877730D02*
D03*
Y2947272D02*
D03*
X1372272D02*
D03*
Y2902730D02*
D03*
X1327730D02*
D03*
Y2947272D02*
D03*
D23*
X1350000Y1525000D02*
D03*
X1900000D02*
D03*
X2450000D02*
D03*
X3000000D02*
D03*
X3550000D02*
D03*
Y2925000D02*
D03*
X3000000D02*
D03*
X2450000D02*
D03*
X1900000D02*
D03*
X1350000D02*
D03*
D24*
X1326338Y1447052D02*
D03*
X1308242Y1465148D02*
D03*
X1409854Y1566760D02*
D03*
X1427950Y1548664D02*
D03*
X1373664Y1602950D02*
D03*
X1391758Y1584856D02*
D03*
X1272052Y1501338D02*
D03*
X1290146Y1483242D02*
D03*
X1840146D02*
D03*
X1858242Y1465148D02*
D03*
X1876338Y1447052D02*
D03*
X1941758Y1584856D02*
D03*
X1959854Y1566760D02*
D03*
X1977950Y1548664D02*
D03*
X1923664Y1602950D02*
D03*
X1822052Y1501338D02*
D03*
X2390146Y1483242D02*
D03*
X2408242Y1465148D02*
D03*
X2426338Y1447052D02*
D03*
X2509854Y1566760D02*
D03*
X2527950Y1548664D02*
D03*
X2473664Y1602950D02*
D03*
X2491758Y1584856D02*
D03*
X2372052Y1501338D02*
D03*
X2940146Y1483242D02*
D03*
X2958242Y1465148D02*
D03*
X2976338Y1447052D02*
D03*
X3041758Y1584856D02*
D03*
X3059854Y1566760D02*
D03*
X3077950Y1548664D02*
D03*
X3023664Y1602950D02*
D03*
X2922052Y1501338D02*
D03*
X3490146Y1483242D02*
D03*
X3508242Y1465148D02*
D03*
X3526338Y1447052D02*
D03*
X3609854Y1566760D02*
D03*
X3627950Y1548664D02*
D03*
X3573664Y1602950D02*
D03*
X3591758Y1584856D02*
D03*
X3472052Y1501338D02*
D03*
X3526338Y2847052D02*
D03*
X3508242Y2865148D02*
D03*
X3609854Y2966760D02*
D03*
X3627950Y2948664D02*
D03*
X3573664Y3002950D02*
D03*
X3591758Y2984856D02*
D03*
X3472052Y2901338D02*
D03*
X3490146Y2883242D02*
D03*
X3023664Y3002950D02*
D03*
X3041758Y2984856D02*
D03*
X3059854Y2966760D02*
D03*
X3077950Y2948664D02*
D03*
X2922052Y2901338D02*
D03*
X2940146Y2883242D02*
D03*
X2958242Y2865148D02*
D03*
X2976338Y2847052D02*
D03*
X2527950Y2948664D02*
D03*
X2509854Y2966760D02*
D03*
X2473664Y3002950D02*
D03*
X2491758Y2984856D02*
D03*
X2426338Y2847052D02*
D03*
X2408242Y2865148D02*
D03*
X2372052Y2901338D02*
D03*
X2390146Y2883242D02*
D03*
X1923664Y3002950D02*
D03*
X1941758Y2984856D02*
D03*
X1959854Y2966760D02*
D03*
X1977950Y2948664D02*
D03*
X1822052Y2901338D02*
D03*
X1840146Y2883242D02*
D03*
X1858242Y2865148D02*
D03*
X1876338Y2847052D02*
D03*
X1427950Y2948664D02*
D03*
X1409854Y2966760D02*
D03*
X1373664Y3002950D02*
D03*
X1391758Y2984856D02*
D03*
X1326338Y2847052D02*
D03*
X1308242Y2865148D02*
D03*
X1272052Y2901338D02*
D03*
X1290146Y2883242D02*
D03*
D25*
X1409854Y1483242D02*
D03*
X1427948Y1501338D02*
D03*
X1326338Y1602948D02*
D03*
X1308242Y1584854D02*
D03*
X1391758Y1465148D02*
D03*
X1373662Y1447052D02*
D03*
X1272052Y1548662D02*
D03*
X1290148Y1566758D02*
D03*
X1822052Y1548662D02*
D03*
X1840148Y1566758D02*
D03*
X1858242Y1584854D02*
D03*
X1941758Y1465148D02*
D03*
X1959854Y1483242D02*
D03*
X1923662Y1447052D02*
D03*
X1977948Y1501338D02*
D03*
X1876338Y1602948D02*
D03*
X2372052Y1548662D02*
D03*
X2390148Y1566758D02*
D03*
X2491758Y1465148D02*
D03*
X2473662Y1447052D02*
D03*
X2509854Y1483242D02*
D03*
X2527948Y1501338D02*
D03*
X2426338Y1602948D02*
D03*
X2408242Y1584854D02*
D03*
X2958242D02*
D03*
X2940148Y1566758D02*
D03*
X2922052Y1548662D02*
D03*
X3041758Y1465148D02*
D03*
X3059854Y1483242D02*
D03*
X3023662Y1447052D02*
D03*
X3077948Y1501338D02*
D03*
X2976338Y1602948D02*
D03*
X3472052Y1548662D02*
D03*
X3490148Y1566758D02*
D03*
X3591758Y1465148D02*
D03*
X3573662Y1447052D02*
D03*
X3609854Y1483242D02*
D03*
X3627948Y1501338D02*
D03*
X3526338Y1602948D02*
D03*
X3508242Y1584854D02*
D03*
X3609854Y2883242D02*
D03*
X3627948Y2901338D02*
D03*
X3526338Y3002948D02*
D03*
X3508242Y2984854D02*
D03*
X3591758Y2865148D02*
D03*
X3573662Y2847052D02*
D03*
X3472052Y2948662D02*
D03*
X3490148Y2966758D02*
D03*
X3077948Y2901338D02*
D03*
X3059854Y2883242D02*
D03*
X3041758Y2865148D02*
D03*
X3023662Y2847052D02*
D03*
X2922052Y2948662D02*
D03*
X2940148Y2966758D02*
D03*
X2958242Y2984854D02*
D03*
X2976338Y3002948D02*
D03*
X2527948Y2901338D02*
D03*
X2509854Y2883242D02*
D03*
X2408242Y2984854D02*
D03*
X2491758Y2865148D02*
D03*
X2473662Y2847052D02*
D03*
X2372052Y2948662D02*
D03*
X2390148Y2966758D02*
D03*
X2426338Y3002948D02*
D03*
X1977948Y2901338D02*
D03*
X1959854Y2883242D02*
D03*
X1941758Y2865148D02*
D03*
X1923662Y2847052D02*
D03*
X1822052Y2948662D02*
D03*
X1840148Y2966758D02*
D03*
X1858242Y2984854D02*
D03*
X1876338Y3002948D02*
D03*
X1427948Y2901338D02*
D03*
X1409854Y2883242D02*
D03*
X1308242Y2984854D02*
D03*
X1391758Y2865148D02*
D03*
X1373662Y2847052D02*
D03*
X1272052Y2948662D02*
D03*
X1290148Y2966758D02*
D03*
X1326338Y3002948D02*
D03*
%TF.MD5,ad188b0da662ef4f03f520f440b3f110*%
M02*
