M48
;Layer_Color=9474304
;FILE_FORMAT=2:5
INCH,LZ
;TYPE=PLATED
T1F00S00C0.00787
T2F00S00C0.01968
T3F00S00C0.04000
;TYPE=NON_PLATED
%
T01
X0132773Y0150273
Y0154727
X0137227
Y0150273
X0187773
Y0154727
X0192227
Y0150273
X0242773
Y0154727
X0247227
Y0150273
X0297773
Y0154727
X0302227
Y0150273
X0352773
Y0154727
X0357227
Y0150273
Y0290273
X0352773
Y0294727
X0357227
X0302227
X0297773
Y0290273
X0302227
X0247227
X0242773
Y0294727
X0247227
X0192227
X0187773
Y0290273
X0192227
X0137227
X0132773
Y0294727
X0137227
T02
X012Y01055
X0123
X0126
X0129
X0132
X0135
X0138
X0141
X0144
X0147
X015
Y01115
X0147
X0144
X0141
X0138
X0135
X0132
X0129
X0126
X0123
X012
X0175
X0178
X0181
X0184
X0187
X019
X0193
X0196
X0199
X0202
X0205
Y01055
X0202
X0199
X0196
X0193
X019
X0187
X0184
X0181
X0178
X0175
X023
X0233
X0236
X0239
X0242
X0245
X0248
X0251
X0254
X0257
X026
Y01115
X0257
X0254
X0251
X0248
X0245
X0242
X0239
X0236
X0233
X023
X0285
X0288
X0291
X0294
X0297
X03
X0303
X0306
X0309
X0312
Y01055
X0309
X0306
X0303
X03
X0297
X0294
X0291
X0288
X0285
X0315
Y01115
X034
X0343
X0346
X0349
X0352
X0355
X0358
X0361
X0364
X0367
X037
Y01055
X0367
X0364
X0361
X0358
X0355
X0352
X0349
X0346
X0343
X034
Y01935
X0343
X0346
X0349
X0352
X0355
X0358
X0361
X0364
X0367
X037
Y01995
X0367
X0364
X0361
X0358
X0355
X0352
X0349
X0346
X0343
X034
X0315
Y01935
Y02455
Y02515
X034
X0343
X0346
X0349
X0352
X0355
X0358
X0361
X0364
X0367
X037
Y02455
X0367
X0364
X0361
X0358
X0355
X0352
X0349
X0346
X0343
X034
X0312
X0309
X0306
X0303
X03
X0297
X0294
X0291
X0288
X0285
Y02515
X0288
X0291
X0294
X0297
X03
X0303
X0306
X0309
X0312
Y01995
X0309
X0306
X0303
X03
X0297
X0294
X0291
X0288
X0285
Y01935
X0288
X0291
X0294
X0297
X03
X0303
X0306
X0309
X0312
X026
X0257
X0254
X0251
X0248
X0245
X0242
X0239
X0236
X0233
X023
Y01995
X0233
X0236
X0239
X0242
X0245
X0248
X0251
X0254
X0257
X026
Y02455
X0257
X0254
X0251
X0248
X0245
X0242
X0239
X0236
X0233
X023
Y02515
X0233
X0236
X0239
X0242
X0245
X0248
X0251
X0254
X0257
X026
X0205
X0202
X0199
X0196
X0193
X019
X0187
X0184
X0181
X0178
X0175
Y02455
X0178
X0181
X0184
X0187
X019
X0193
X0196
X0199
X0202
X0205
Y01995
X0202
X0199
X0196
X0193
X019
X0187
X0184
X0181
X0178
X0175
Y01935
X0178
X0181
X0184
X0187
X019
X0193
X0196
X0199
X0202
X0205
X015
X0147
X0144
X0141
X0138
X0135
X0132
X0129
X0126
X0123
X012
Y01995
X0123
X0126
X0129
X0132
X0135
X0138
X0141
X0144
X0147
X015
Y02455
X0147
X0144
X0141
X0138
X0135
X0132
X0129
X0126
X0123
X012
Y02515
X0123
X0126
X0129
X0132
X0135
X0138
X0141
X0144
X0147
X015
Y03335
X0147
X0144
X0141
X0138
X0135
X0132
X0129
X0126
X0123
X012
Y03395
X0123
X0126
X0129
X0132
X0135
X0138
X0141
X0144
X0147
X015
X0175
X0178
X0181
X0184
X0187
X019
X0193
X0196
X0199
X0202
X0205
Y03335
X0202
X0199
X0196
X0193
X019
X0187
X0184
X0181
X0178
X0175
X023
X0233
X0236
X0239
X0242
X0245
X0248
X0251
X0254
X0257
X026
Y03395
X0257
X0254
X0251
X0248
X0245
X0242
X0239
X0236
X0233
X023
X0285
X0288
X0291
X0294
X0297
X03
X0303
X0306
X0309
X0312
Y03335
X0309
X0306
X0303
X03
X0297
X0294
X0291
X0288
X0285
X0315
Y03395
X034
X0343
X0346
X0349
X0352
X0355
X0358
X0361
X0364
X0367
X037
Y03335
X0367
X0364
X0361
X0358
X0355
X0352
X0349
X0346
X0343
X034
T03
X012Y01175
Y01275
Y01375
Y01475
X015
Y01375
Y01275
Y01175
X0175
Y01275
Y01375
Y01475
X0205
Y01375
Y01275
Y01175
X023
Y01275
Y01375
Y01475
X026
Y01375
Y01275
Y01175
X0285
Y01275
Y01375
Y01475
X0315
Y01375
Y01275
Y01175
X034
Y01275
Y01375
Y01475
X037
Y01375
Y01275
Y01175
Y01575
Y01675
Y01775
Y01875
X034
Y01775
Y01675
Y01575
X0315
Y01675
Y01775
Y01875
Y02575
Y02675
Y02775
Y02875
Y02975
Y03075
X034
Y02975
Y02875
Y02775
Y02675
Y02575
X037
Y02675
Y02775
Y02875
Y02975
Y03075
X0285
Y02975
Y02875
Y02775
Y02675
Y02575
X026
Y02675
Y02775
Y02875
Y02975
Y03075
X023
Y02975
Y02875
Y02775
Y02675
Y02575
X0205
Y02675
Y02775
Y02875
Y02975
Y03075
X0175
Y02975
Y02875
Y02775
Y02675
Y02575
Y01875
Y01775
Y01675
Y01575
X0205
Y01675
Y01775
Y01875
X023
Y01775
Y01675
Y01575
X026
Y01675
Y01775
Y01875
X0285
Y01775
Y01675
Y01575
X015
Y01675
Y01775
Y01875
X012
Y01775
Y01675
Y01575
Y02575
Y02675
Y02775
Y02875
Y02975
Y03075
X015
Y02975
Y02875
Y02775
Y02675
Y02575
Y03175
Y03275
X012
Y03175
X0175
Y03275
X0205
Y03175
X023
Y03275
X026
Y03175
X0285
Y03275
X0315
Y03175
X034
Y03275
X037
Y03175
M30
