%TF.GenerationSoftware,Altium Limited,Altium Designer,21.6.4 (81)*%
G04 Layer_Color=32896*
%FSLAX26Y26*%
%MOIN*%
%TF.SameCoordinates,5FA90F47-3B47-4036-B415-51D33840892C*%
%TF.FilePolarity,Positive*%
%TF.FileFunction,Legend,Bot*%
%TF.Part,CustomerPanel*%
G01*
G75*
%TA.AperFunction,NonConductor*%
%ADD16C,0.005000*%
D16*
X1341669Y1159214D02*
X1337504Y1163379D01*
Y1171710D01*
X1341669Y1175875D01*
X1358331D01*
X1362496Y1171710D01*
Y1163379D01*
X1358331Y1159214D01*
X1362496Y1184206D02*
Y1200867D01*
X1337504D01*
Y1209198D02*
Y1217528D01*
Y1213363D01*
X1358331D01*
X1362496Y1217528D01*
Y1221694D01*
X1358331Y1225859D01*
Y1234190D02*
X1362496Y1238355D01*
Y1246686D01*
X1358331Y1250851D01*
X1341669D01*
X1337504Y1246686D01*
Y1238355D01*
X1341669Y1234190D01*
X1337504Y1275843D02*
X1362496D01*
Y1259181D01*
X1358331Y1288339D02*
X1362496Y1292504D01*
Y1296669D01*
X1358331Y1300835D01*
Y1309165D02*
X1362496Y1313331D01*
Y1321661D01*
X1358331Y1325827D01*
X1341669D01*
X1337504Y1321661D01*
Y1313331D01*
X1341669Y1309165D01*
X1337504Y1350819D02*
X1362496D01*
Y1334157D01*
X1358331Y1363314D02*
X1362496Y1367480D01*
Y1371645D01*
X1358331Y1375810D01*
Y1384141D02*
X1362496Y1388306D01*
Y1396637D01*
X1358331Y1400802D01*
X1341669D01*
X1337504Y1396637D01*
Y1388306D01*
X1341669Y1384141D01*
X1337504Y1367480D02*
Y1363314D01*
X1358331D01*
X1337504Y1359149D02*
Y1367480D01*
Y1292504D02*
Y1288339D01*
X1358331D01*
X1337504Y1284173D02*
Y1292504D01*
Y1425794D02*
X1362496D01*
Y1409133D01*
X1358331Y1438290D02*
X1362496Y1442456D01*
Y1446621D01*
X1358331Y1450786D01*
Y1438290D02*
X1337504D01*
Y1442456D01*
Y1434125D01*
X1887504Y1171710D02*
X1891669Y1175875D01*
X1908331D01*
X1912496Y1171710D01*
Y1163379D01*
X1908331Y1159214D01*
X1912496Y1184206D02*
Y1200867D01*
X1887504D01*
Y1209198D02*
Y1217528D01*
Y1213363D01*
X1908331D01*
X1912496Y1217528D01*
Y1221694D01*
X1908331Y1225859D01*
Y1234190D02*
X1912496Y1238355D01*
Y1246686D01*
X1908331Y1250851D01*
X1891669D01*
X1887504Y1246686D01*
Y1238355D01*
X1891669Y1234190D01*
X1887504Y1275843D02*
X1912496D01*
Y1259181D01*
X1908331Y1288339D02*
X1912496Y1292504D01*
Y1296669D01*
X1908331Y1300835D01*
Y1309165D02*
X1912496Y1313331D01*
Y1321661D01*
X1908331Y1325827D01*
X1891669D01*
X1887504Y1321661D01*
Y1313331D01*
X1891669Y1309165D01*
X1887504Y1350819D02*
X1912496D01*
Y1334157D01*
X1908331Y1363314D02*
X1912496Y1367480D01*
Y1371645D01*
X1908331Y1375810D01*
Y1384141D02*
X1912496Y1388306D01*
Y1396637D01*
X1908331Y1400802D01*
X1891669D01*
X1887504Y1396637D01*
Y1388306D01*
X1891669Y1384141D01*
X1887504Y1367480D02*
Y1363314D01*
X1908331D01*
Y1288339D02*
X1887504D01*
Y1292504D01*
Y1284173D01*
Y1171710D02*
Y1163379D01*
X1891669Y1159214D01*
X1887504Y1359149D02*
Y1367480D01*
X1912496Y1409133D02*
Y1425794D01*
X1887504D01*
Y1434125D02*
Y1442456D01*
Y1438290D01*
X1908331D01*
X1912496Y1442456D01*
Y1446621D01*
X1908331Y1450786D01*
X2437504Y1171710D02*
X2441669Y1175875D01*
X2458331D01*
X2462496Y1171710D01*
Y1163379D01*
X2458331Y1159214D01*
X2441669D02*
X2437504Y1163379D01*
Y1171710D01*
X2462496Y1184206D02*
Y1200867D01*
X2437504D01*
Y1209198D02*
Y1217528D01*
Y1213363D01*
X2458331D01*
X2462496Y1217528D01*
Y1221694D01*
X2458331Y1225859D01*
Y1234190D02*
X2462496Y1238355D01*
Y1246686D01*
X2458331Y1250851D01*
X2441669D01*
X2437504Y1246686D01*
Y1238355D01*
X2441669Y1234190D01*
X2437504Y1275843D02*
X2462496D01*
Y1259181D01*
X2458331Y1288339D02*
X2462496Y1292504D01*
Y1296669D01*
X2458331Y1300835D01*
Y1309165D02*
X2462496Y1313331D01*
Y1321661D01*
X2458331Y1325827D01*
X2441669D01*
X2437504Y1321661D01*
Y1313331D01*
X2441669Y1309165D01*
X2437504Y1350819D02*
X2462496D01*
Y1334157D01*
X2458331Y1363314D02*
X2462496Y1367480D01*
Y1371645D01*
X2458331Y1375810D01*
Y1384141D02*
X2462496Y1388306D01*
Y1396637D01*
X2458331Y1400802D01*
X2441669D01*
X2437504Y1396637D01*
Y1388306D01*
X2441669Y1384141D01*
X2437504Y1367480D02*
Y1363314D01*
X2458331D01*
X2437504Y1359149D02*
Y1367480D01*
Y1292504D02*
Y1288339D01*
X2458331D01*
X2437504Y1284173D02*
Y1292504D01*
Y1425794D02*
X2462496D01*
Y1409133D01*
X2458331Y1438290D02*
X2462496Y1442456D01*
Y1446621D01*
X2458331Y1450786D01*
Y1438290D02*
X2437504D01*
Y1442456D01*
Y1434125D01*
X2987504Y1171710D02*
X2991669Y1175875D01*
X3008331D01*
X3012496Y1171710D01*
Y1163379D01*
X3008331Y1159214D01*
X3012496Y1184206D02*
Y1200867D01*
X2987504D01*
Y1209198D02*
Y1217528D01*
Y1213363D01*
X3008331D01*
X3012496Y1217528D01*
Y1221694D01*
X3008331Y1225859D01*
Y1234190D02*
X3012496Y1238355D01*
Y1246686D01*
X3008331Y1250851D01*
X2991669D01*
X2987504Y1246686D01*
Y1238355D01*
X2991669Y1234190D01*
X2987504Y1275843D02*
X3012496D01*
Y1259181D01*
X3008331Y1288339D02*
X3012496Y1292504D01*
Y1296669D01*
X3008331Y1300835D01*
Y1309165D02*
X3012496Y1313331D01*
Y1321661D01*
X3008331Y1325827D01*
X2991669D01*
X2987504Y1321661D01*
Y1313331D01*
X2991669Y1309165D01*
X2987504Y1350819D02*
X3012496D01*
Y1334157D01*
X3008331Y1363314D02*
X3012496Y1367480D01*
Y1371645D01*
X3008331Y1375810D01*
Y1384141D02*
X3012496Y1388306D01*
Y1396637D01*
X3008331Y1400802D01*
X2991669D01*
X2987504Y1396637D01*
Y1388306D01*
X2991669Y1384141D01*
X2987504Y1367480D02*
Y1363314D01*
X3008331D01*
Y1288339D02*
X2987504D01*
Y1292504D01*
Y1284173D01*
Y1171710D02*
Y1163379D01*
X2991669Y1159214D01*
X2987504Y1359149D02*
Y1367480D01*
X3012496Y1409133D02*
Y1425794D01*
X2987504D01*
Y1434125D02*
Y1442456D01*
Y1438290D01*
X3008331D01*
X3012496Y1442456D01*
Y1446621D01*
X3008331Y1450786D01*
X3537504Y1171710D02*
X3541669Y1175875D01*
X3558331D01*
X3562496Y1171710D01*
Y1163379D01*
X3558331Y1159214D01*
X3541669D02*
X3537504Y1163379D01*
Y1171710D01*
X3562496Y1184206D02*
Y1200867D01*
X3537504D01*
Y1209198D02*
Y1217528D01*
Y1213363D01*
X3558331D01*
X3562496Y1217528D01*
Y1221694D01*
X3558331Y1225859D01*
Y1234190D02*
X3562496Y1238355D01*
Y1246686D01*
X3558331Y1250851D01*
X3541669D01*
X3537504Y1246686D01*
Y1238355D01*
X3541669Y1234190D01*
X3537504Y1275843D02*
X3562496D01*
Y1259181D01*
X3558331Y1288339D02*
X3562496Y1292504D01*
Y1296669D01*
X3558331Y1300835D01*
Y1309165D02*
X3562496Y1313331D01*
Y1321661D01*
X3558331Y1325827D01*
X3541669D01*
X3537504Y1321661D01*
Y1313331D01*
X3541669Y1309165D01*
X3537504Y1350819D02*
X3562496D01*
Y1334157D01*
X3558331Y1363314D02*
X3562496Y1367480D01*
Y1371645D01*
X3558331Y1375810D01*
Y1384141D02*
X3562496Y1388306D01*
Y1396637D01*
X3558331Y1400802D01*
X3541669D01*
X3537504Y1396637D01*
Y1388306D01*
X3541669Y1384141D01*
X3537504Y1367480D02*
Y1363314D01*
X3558331D01*
X3537504Y1359149D02*
Y1367480D01*
Y1292504D02*
Y1288339D01*
X3558331D01*
X3537504Y1284173D02*
Y1292504D01*
Y1425794D02*
X3562496D01*
Y1409133D01*
X3558331Y1438290D02*
X3562496Y1442456D01*
Y1446621D01*
X3558331Y1450786D01*
Y1438290D02*
X3537504D01*
Y1442456D01*
Y1434125D01*
X3541669Y2559214D02*
X3537504Y2563379D01*
Y2571710D01*
X3541669Y2575875D01*
X3558331D01*
X3562496Y2571710D01*
Y2563379D01*
X3558331Y2559214D01*
X3562496Y2584206D02*
Y2600867D01*
X3537504D01*
Y2609198D02*
Y2617528D01*
Y2613363D01*
X3558331D01*
X3562496Y2617528D01*
Y2621694D01*
X3558331Y2625859D01*
Y2634190D02*
X3562496Y2638355D01*
Y2646686D01*
X3558331Y2650851D01*
X3541669D01*
X3537504Y2646686D01*
Y2638355D01*
X3541669Y2634190D01*
X3537504Y2675843D02*
X3562496D01*
Y2659182D01*
X3558331Y2688339D02*
X3562496Y2692504D01*
Y2696669D01*
X3558331Y2700835D01*
Y2709165D02*
X3562496Y2713331D01*
Y2721661D01*
X3558331Y2725827D01*
X3541669D01*
X3537504Y2721661D01*
Y2713331D01*
X3541669Y2709165D01*
X3537504Y2750818D02*
X3562496D01*
Y2734157D01*
X3558331Y2763314D02*
X3562496Y2767480D01*
Y2771645D01*
X3558331Y2775810D01*
Y2784141D02*
X3562496Y2788306D01*
Y2796637D01*
X3558331Y2800802D01*
X3541669D01*
X3537504Y2796637D01*
Y2788306D01*
X3541669Y2784141D01*
X3537504Y2767480D02*
Y2763314D01*
X3558331D01*
X3537504Y2759149D02*
Y2767480D01*
Y2692504D02*
Y2688339D01*
X3558331D01*
X3537504Y2684173D02*
Y2692504D01*
Y2825794D02*
X3562496D01*
Y2809133D01*
X3558331Y2838290D02*
X3562496Y2842456D01*
Y2846621D01*
X3558331Y2850786D01*
Y2838290D02*
X3537504D01*
Y2842456D01*
Y2834125D01*
X3008331Y2838290D02*
X3012496Y2842456D01*
Y2846621D01*
X3008331Y2850786D01*
Y2838290D02*
X2987504D01*
Y2842456D01*
Y2834125D01*
Y2825794D02*
X3012496D01*
Y2809133D01*
X3008331Y2800802D02*
X3012496Y2796637D01*
Y2788306D01*
X3008331Y2784141D01*
Y2775810D02*
X3012496Y2771645D01*
Y2767480D01*
X3008331Y2763314D01*
X2987504D01*
Y2767480D01*
Y2759149D01*
Y2750818D02*
X3012496D01*
Y2734157D01*
X3008331Y2725827D02*
X3012496Y2721661D01*
Y2713331D01*
X3008331Y2709165D01*
Y2700835D02*
X3012496Y2696669D01*
Y2692504D01*
X3008331Y2688339D01*
X2987504D01*
Y2692504D01*
Y2684173D01*
Y2675843D02*
X3012496D01*
Y2659182D01*
X3008331Y2650851D02*
X3012496Y2646686D01*
Y2638355D01*
X3008331Y2634190D01*
Y2625859D02*
X3012496Y2621694D01*
Y2617528D01*
X3008331Y2613363D01*
X2987504D01*
Y2617528D01*
Y2609198D01*
Y2600867D02*
X3012496D01*
Y2584206D01*
X3008331Y2575875D02*
X3012496Y2571710D01*
Y2563379D01*
X3008331Y2559214D01*
Y2575875D02*
X2991669D01*
X2987504Y2571710D01*
Y2563379D01*
X2991669Y2559214D01*
X3008331Y2650851D02*
X2991669D01*
X2987504Y2646686D01*
Y2638355D01*
X2991669Y2634190D01*
X3008331Y2725827D02*
X2991669D01*
X2987504Y2721661D01*
Y2713331D01*
X2991669Y2709165D01*
Y2784141D02*
X2987504Y2788306D01*
Y2796637D01*
X2991669Y2800802D01*
X3008331D01*
X2458331D02*
X2462496Y2796637D01*
Y2788306D01*
X2458331Y2784141D01*
Y2775810D02*
X2462496Y2771645D01*
Y2767480D01*
X2458331Y2763314D01*
X2437504D01*
Y2767480D01*
Y2759149D01*
Y2750818D02*
X2462496D01*
Y2734157D01*
X2458331Y2725827D02*
X2462496Y2721661D01*
Y2713331D01*
X2458331Y2709165D01*
Y2700835D02*
X2462496Y2696669D01*
Y2692504D01*
X2458331Y2688339D01*
X2437504D01*
Y2692504D01*
Y2684173D01*
Y2675843D02*
X2462496D01*
Y2659182D01*
X2458331Y2650851D02*
X2462496Y2646686D01*
Y2638355D01*
X2458331Y2634190D01*
Y2625859D02*
X2462496Y2621694D01*
Y2617528D01*
X2458331Y2613363D01*
X2437504D01*
Y2617528D01*
Y2609198D01*
Y2600867D02*
X2462496D01*
Y2584206D01*
X2458331Y2575875D02*
X2462496Y2571710D01*
Y2563379D01*
X2458331Y2559214D01*
X2441669D02*
X2437504Y2563379D01*
Y2571710D01*
X2441669Y2575875D01*
X2458331D01*
X2441669Y2634190D02*
X2437504Y2638355D01*
Y2646686D01*
X2441669Y2650851D01*
X2458331D01*
X2441669Y2709165D02*
X2437504Y2713331D01*
Y2721661D01*
X2441669Y2725827D01*
X2458331D01*
X2441669Y2784141D02*
X2437504Y2788306D01*
Y2796637D01*
X2441669Y2800802D01*
X2458331D01*
X2462496Y2809133D02*
Y2825794D01*
X2437504D01*
Y2834125D02*
Y2842456D01*
Y2838290D01*
X2458331D01*
X2462496Y2842456D01*
Y2846621D01*
X2458331Y2850786D01*
X1912496Y2846621D02*
X1908331Y2850786D01*
X1912496Y2846621D02*
Y2842456D01*
X1908331Y2838290D01*
X1887504D01*
Y2842456D01*
Y2834125D01*
Y2825794D02*
X1912496D01*
Y2809133D01*
X1908331Y2800802D02*
X1912496Y2796637D01*
Y2788306D01*
X1908331Y2784141D01*
Y2775810D02*
X1912496Y2771645D01*
Y2767480D01*
X1908331Y2763314D01*
X1887504D01*
Y2767480D01*
Y2759149D01*
Y2750818D02*
X1912496D01*
Y2734157D01*
X1908331Y2725827D02*
X1912496Y2721661D01*
Y2713331D01*
X1908331Y2709165D01*
Y2700835D02*
X1912496Y2696669D01*
Y2692504D01*
X1908331Y2688339D01*
X1887504D01*
Y2692504D01*
Y2684173D01*
Y2675843D02*
X1912496D01*
Y2659182D01*
X1908331Y2650851D02*
X1912496Y2646686D01*
Y2638355D01*
X1908331Y2634190D01*
Y2625859D02*
X1912496Y2621694D01*
Y2617528D01*
X1908331Y2613363D01*
X1887504D01*
Y2617528D01*
Y2609198D01*
Y2600867D02*
X1912496D01*
Y2584206D01*
X1908331Y2575875D02*
X1912496Y2571710D01*
Y2563379D01*
X1908331Y2559214D01*
Y2575875D02*
X1891669D01*
X1887504Y2571710D01*
Y2563379D01*
X1891669Y2559214D01*
X1908331Y2650851D02*
X1891669D01*
X1887504Y2646686D01*
Y2638355D01*
X1891669Y2634190D01*
X1908331Y2725827D02*
X1891669D01*
X1887504Y2721661D01*
Y2713331D01*
X1891669Y2709165D01*
Y2784141D02*
X1887504Y2788306D01*
Y2796637D01*
X1891669Y2800802D01*
X1908331D01*
X1358331D02*
X1362496Y2796637D01*
Y2788306D01*
X1358331Y2784141D01*
Y2775810D02*
X1362496Y2771645D01*
Y2767480D01*
X1358331Y2763314D01*
X1337504D01*
Y2767480D01*
Y2759149D01*
Y2750818D02*
X1362496D01*
Y2734157D01*
X1358331Y2725827D02*
X1362496Y2721661D01*
Y2713331D01*
X1358331Y2709165D01*
Y2700835D02*
X1362496Y2696669D01*
Y2692504D01*
X1358331Y2688339D01*
X1337504D01*
Y2692504D01*
Y2684173D01*
Y2675843D02*
X1362496D01*
Y2659182D01*
X1358331Y2650851D02*
X1362496Y2646686D01*
Y2638355D01*
X1358331Y2634190D01*
Y2625859D02*
X1362496Y2621694D01*
Y2617528D01*
X1358331Y2613363D01*
X1337504D01*
Y2617528D01*
Y2609198D01*
Y2600867D02*
X1362496D01*
Y2584206D01*
X1358331Y2575875D02*
X1362496Y2571710D01*
Y2563379D01*
X1358331Y2559214D01*
X1341669D02*
X1337504Y2563379D01*
Y2571710D01*
X1341669Y2575875D01*
X1358331D01*
X1341669Y2634190D02*
X1337504Y2638355D01*
Y2646686D01*
X1341669Y2650851D01*
X1358331D01*
X1341669Y2709165D02*
X1337504Y2713331D01*
Y2721661D01*
X1341669Y2725827D01*
X1358331D01*
X1341669Y2784141D02*
X1337504Y2788306D01*
Y2796637D01*
X1341669Y2800802D01*
X1358331D01*
X1362496Y2809133D02*
Y2825794D01*
X1337504D01*
Y2834125D02*
Y2842456D01*
Y2838290D01*
X1358331D01*
X1362496Y2842456D01*
Y2846621D01*
X1358331Y2850786D01*
%TF.MD5,71f4638cf37ef2917e2cec6e9bcb88b3*%
M02*
