%TF.GenerationSoftware,Altium Limited,Altium Designer,21.6.4 (81)*%
G04 Layer_Physical_Order=1*
G04 Layer_Color=255*
%FSLAX26Y26*%
%MOIN*%
%TF.SameCoordinates,5FA90F47-3B47-4036-B415-51D33840892C*%
%TF.FilePolarity,Positive*%
%TF.FileFunction,Copper,L1,Top,Signal*%
%TF.Part,CustomerPanel*%
G01*
G75*
%TA.AperFunction,SMDPad,CuDef*%
G04:AMPARAMS|DCode=10|XSize=82.677mil|YSize=82.677mil|CornerRadius=2.067mil|HoleSize=0mil|Usage=FLASHONLY|Rotation=315.000|XOffset=0mil|YOffset=0mil|HoleType=Round|Shape=RoundedRectangle|*
%AMROUNDEDRECTD10*
21,1,0.082677,0.078543,0,0,315.0*
21,1,0.078543,0.082677,0,0,315.0*
1,1,0.004134,0.000000,-0.055539*
1,1,0.004134,-0.055539,0.000000*
1,1,0.004134,0.000000,0.055539*
1,1,0.004134,0.055539,0.000000*
%
%ADD10ROUNDEDRECTD10*%
G04:AMPARAMS|DCode=11|XSize=11.811mil|YSize=29.528mil|CornerRadius=1.949mil|HoleSize=0mil|Usage=FLASHONLY|Rotation=315.000|XOffset=0mil|YOffset=0mil|HoleType=Round|Shape=RoundedRectangle|*
%AMROUNDEDRECTD11*
21,1,0.011811,0.025630,0,0,315.0*
21,1,0.007913,0.029528,0,0,315.0*
1,1,0.003898,-0.006264,-0.011859*
1,1,0.003898,-0.011859,-0.006264*
1,1,0.003898,0.006264,0.011859*
1,1,0.003898,0.011859,0.006264*
%
%ADD11ROUNDEDRECTD11*%
G04:AMPARAMS|DCode=12|XSize=11.811mil|YSize=29.528mil|CornerRadius=1.949mil|HoleSize=0mil|Usage=FLASHONLY|Rotation=45.000|XOffset=0mil|YOffset=0mil|HoleType=Round|Shape=RoundedRectangle|*
%AMROUNDEDRECTD12*
21,1,0.011811,0.025630,0,0,45.0*
21,1,0.007913,0.029528,0,0,45.0*
1,1,0.003898,0.011859,-0.006264*
1,1,0.003898,0.006264,-0.011859*
1,1,0.003898,-0.011859,0.006264*
1,1,0.003898,-0.006264,0.011859*
%
%ADD12ROUNDEDRECTD12*%
%TA.AperFunction,Conductor*%
%ADD13C,0.010000*%
%TA.AperFunction,ViaPad*%
%ADD14C,0.019685*%
%ADD15C,0.060000*%
G36*
X3745000Y2530000D02*
X3355000D01*
Y3320000D01*
X3745000D01*
Y2530000D01*
D02*
G37*
G36*
X3195000D02*
X2805000D01*
Y3320000D01*
X3195000D01*
Y2530000D01*
D02*
G37*
G36*
X2645000D02*
X2255000D01*
Y3320000D01*
X2645000D01*
Y2530000D01*
D02*
G37*
G36*
X2095000D02*
X1705000D01*
Y3320000D01*
X2095000D01*
Y2530000D01*
D02*
G37*
G36*
X1545000D02*
X1155000D01*
Y3320000D01*
X1545000D01*
Y2530000D01*
D02*
G37*
G36*
X3745000Y1130000D02*
X3355000D01*
Y1920000D01*
X3745000D01*
Y1130000D01*
D02*
G37*
G36*
X3195000D02*
X2805000D01*
Y1920000D01*
X3195000D01*
Y1130000D01*
D02*
G37*
G36*
X2645000D02*
X2255000D01*
Y1920000D01*
X2645000D01*
Y1130000D01*
D02*
G37*
G36*
X2095000D02*
X1705000D01*
Y1920000D01*
X2095000D01*
Y1130000D01*
D02*
G37*
G36*
X1545000D02*
X1155000D01*
Y1920000D01*
X1545000D01*
Y1130000D01*
D02*
G37*
%LPC*%
G36*
X3705266Y3315000D02*
X3694734D01*
X3684561Y3312274D01*
X3675439Y3307008D01*
X3667992Y3299561D01*
X3662726Y3290439D01*
X3660000Y3280266D01*
Y3269734D01*
X3662726Y3259561D01*
X3662801Y3259430D01*
X3613413Y3210042D01*
X3610098Y3205080D01*
X3608934Y3199227D01*
Y3059848D01*
X3574918Y3025832D01*
X3571313Y3023424D01*
X3553190Y3005301D01*
X3553007Y3005027D01*
X3546994D01*
X3546812Y3005299D01*
X3528689Y3023422D01*
X3525084Y3025830D01*
X3491066Y3059848D01*
Y3199227D01*
X3489902Y3205080D01*
X3486587Y3210042D01*
X3437199Y3259430D01*
X3437274Y3259561D01*
X3440000Y3269734D01*
Y3280266D01*
X3437274Y3290439D01*
X3432008Y3299561D01*
X3424561Y3307008D01*
X3415439Y3312274D01*
X3405266Y3315000D01*
X3394734D01*
X3384561Y3312274D01*
X3375439Y3307008D01*
X3367992Y3299561D01*
X3362726Y3290439D01*
X3360000Y3280266D01*
Y3269734D01*
X3362726Y3259561D01*
X3367992Y3250439D01*
X3375439Y3242992D01*
X3384561Y3237726D01*
X3394734Y3235000D01*
X3405266D01*
X3415439Y3237726D01*
X3415570Y3237801D01*
X3460479Y3192892D01*
Y3142683D01*
X3455859Y3140769D01*
X3437199Y3159430D01*
X3437274Y3159561D01*
X3440000Y3169734D01*
Y3180266D01*
X3437274Y3190439D01*
X3432008Y3199561D01*
X3424561Y3207008D01*
X3415439Y3212274D01*
X3405266Y3215000D01*
X3394734D01*
X3384561Y3212274D01*
X3375439Y3207008D01*
X3367992Y3199561D01*
X3362726Y3190439D01*
X3360000Y3180266D01*
Y3169734D01*
X3362726Y3159561D01*
X3367992Y3150439D01*
X3375439Y3142992D01*
X3384561Y3137726D01*
X3394734Y3135000D01*
X3405266D01*
X3415439Y3137726D01*
X3415570Y3137801D01*
X3440479Y3112892D01*
Y3094889D01*
X3435479Y3093549D01*
X3432008Y3099561D01*
X3424561Y3107008D01*
X3415439Y3112274D01*
X3405266Y3115000D01*
X3394734D01*
X3384561Y3112274D01*
X3375439Y3107008D01*
X3367992Y3099561D01*
X3362726Y3090439D01*
X3360000Y3080266D01*
Y3069734D01*
X3362726Y3059561D01*
X3367992Y3050439D01*
X3375439Y3042992D01*
X3384561Y3037726D01*
X3394734Y3035000D01*
X3400277D01*
X3419675Y3015602D01*
X3416605Y3011601D01*
X3415439Y3012274D01*
X3405266Y3015000D01*
X3394734D01*
X3384561Y3012274D01*
X3375439Y3007008D01*
X3367992Y2999561D01*
X3362726Y2990439D01*
X3360000Y2980266D01*
Y2969734D01*
X3362726Y2959561D01*
X3367992Y2950439D01*
X3375439Y2942992D01*
X3384561Y2937726D01*
X3394734Y2935000D01*
X3405266D01*
X3415439Y2937726D01*
X3424561Y2942992D01*
X3432008Y2950439D01*
X3435624Y2956702D01*
X3441653Y2957432D01*
X3449170Y2949915D01*
X3451578Y2946311D01*
X3469701Y2928188D01*
X3469972Y2928007D01*
Y2921993D01*
X3469701Y2921812D01*
X3451578Y2903689D01*
X3449170Y2900085D01*
X3441653Y2892568D01*
X3435624Y2893298D01*
X3432008Y2899561D01*
X3424561Y2907008D01*
X3415439Y2912274D01*
X3405266Y2915000D01*
X3394734D01*
X3384561Y2912274D01*
X3375439Y2907008D01*
X3367992Y2899561D01*
X3362726Y2890439D01*
X3360000Y2880266D01*
Y2869734D01*
X3362726Y2859561D01*
X3367992Y2850439D01*
X3375439Y2842992D01*
X3384561Y2837726D01*
X3394734Y2835000D01*
X3405266D01*
X3415439Y2837726D01*
X3416600Y2838396D01*
X3419670Y2834395D01*
X3400275Y2815000D01*
X3394734D01*
X3384561Y2812274D01*
X3375439Y2807008D01*
X3367992Y2799561D01*
X3362726Y2790439D01*
X3360000Y2780266D01*
Y2769734D01*
X3362726Y2759561D01*
X3367992Y2750439D01*
X3375439Y2742992D01*
X3384561Y2737726D01*
X3394734Y2735000D01*
X3405266D01*
X3415439Y2737726D01*
X3424561Y2742992D01*
X3432008Y2750439D01*
X3435479Y2756451D01*
X3440479Y2755111D01*
Y2737108D01*
X3415570Y2712199D01*
X3415439Y2712274D01*
X3405266Y2715000D01*
X3394734D01*
X3384561Y2712274D01*
X3375439Y2707008D01*
X3367992Y2699561D01*
X3362726Y2690439D01*
X3360000Y2680266D01*
Y2669734D01*
X3362726Y2659561D01*
X3367992Y2650439D01*
X3375439Y2642992D01*
X3384561Y2637726D01*
X3394734Y2635000D01*
X3405266D01*
X3415439Y2637726D01*
X3424561Y2642992D01*
X3432008Y2650439D01*
X3437274Y2659561D01*
X3440000Y2669734D01*
Y2680266D01*
X3437274Y2690439D01*
X3437199Y2690570D01*
X3455859Y2709231D01*
X3460479Y2707317D01*
Y2657108D01*
X3415570Y2612199D01*
X3415439Y2612274D01*
X3405266Y2615000D01*
X3394734D01*
X3384561Y2612274D01*
X3375439Y2607008D01*
X3367992Y2599561D01*
X3362726Y2590439D01*
X3360000Y2580266D01*
Y2569734D01*
X3362726Y2559561D01*
X3367992Y2550439D01*
X3375439Y2542992D01*
X3384561Y2537726D01*
X3394734Y2535000D01*
X3405266D01*
X3415439Y2537726D01*
X3424561Y2542992D01*
X3432008Y2550439D01*
X3437274Y2559561D01*
X3440000Y2569734D01*
Y2580266D01*
X3437274Y2590439D01*
X3437199Y2590570D01*
X3486587Y2639958D01*
X3489902Y2644920D01*
X3491066Y2650773D01*
Y2790152D01*
X3525084Y2824170D01*
X3528689Y2826578D01*
X3546812Y2844701D01*
X3546993Y2844972D01*
X3553007D01*
X3553188Y2844701D01*
X3571311Y2826578D01*
X3574916Y2824170D01*
X3608934Y2790152D01*
Y2650773D01*
X3610098Y2644920D01*
X3613413Y2639958D01*
X3662801Y2590570D01*
X3662726Y2590439D01*
X3660000Y2580266D01*
Y2569734D01*
X3662726Y2559561D01*
X3667992Y2550439D01*
X3675439Y2542992D01*
X3684561Y2537726D01*
X3694734Y2535000D01*
X3705266D01*
X3715439Y2537726D01*
X3724561Y2542992D01*
X3732008Y2550439D01*
X3737274Y2559561D01*
X3740000Y2569734D01*
Y2580266D01*
X3737274Y2590439D01*
X3732008Y2599561D01*
X3724561Y2607008D01*
X3715439Y2612274D01*
X3705266Y2615000D01*
X3694734D01*
X3684561Y2612274D01*
X3684430Y2612199D01*
X3639521Y2657108D01*
Y2707317D01*
X3644141Y2709231D01*
X3662801Y2690570D01*
X3662726Y2690439D01*
X3660000Y2680266D01*
Y2669734D01*
X3662726Y2659561D01*
X3667992Y2650439D01*
X3675439Y2642992D01*
X3684561Y2637726D01*
X3694734Y2635000D01*
X3705266D01*
X3715439Y2637726D01*
X3724561Y2642992D01*
X3732008Y2650439D01*
X3737274Y2659561D01*
X3740000Y2669734D01*
Y2680266D01*
X3737274Y2690439D01*
X3732008Y2699561D01*
X3724561Y2707008D01*
X3715439Y2712274D01*
X3705266Y2715000D01*
X3694734D01*
X3684561Y2712274D01*
X3684430Y2712199D01*
X3659521Y2737108D01*
Y2755111D01*
X3664521Y2756451D01*
X3667992Y2750439D01*
X3675439Y2742992D01*
X3684561Y2737726D01*
X3694734Y2735000D01*
X3695000D01*
Y2775000D01*
Y2819725D01*
X3680330Y2834395D01*
X3683400Y2838396D01*
X3684561Y2837726D01*
X3694734Y2835000D01*
X3705266D01*
X3715439Y2837726D01*
X3724561Y2842992D01*
X3732008Y2850439D01*
X3737274Y2859561D01*
X3740000Y2869734D01*
Y2880266D01*
X3737274Y2890439D01*
X3732008Y2899561D01*
X3724561Y2907008D01*
X3715439Y2912274D01*
X3705266Y2915000D01*
X3694734D01*
X3684561Y2912274D01*
X3675439Y2907008D01*
X3667992Y2899561D01*
X3664376Y2893298D01*
X3658347Y2892568D01*
X3650830Y2900085D01*
X3648422Y2903689D01*
X3630299Y2921812D01*
X3630027Y2921994D01*
Y2928007D01*
X3630301Y2928190D01*
X3648424Y2946313D01*
X3650832Y2949918D01*
X3658347Y2957432D01*
X3664376Y2956702D01*
X3667992Y2950439D01*
X3675439Y2942992D01*
X3684561Y2937726D01*
X3694734Y2935000D01*
X3705266D01*
X3715439Y2937726D01*
X3724561Y2942992D01*
X3732008Y2950439D01*
X3737274Y2959561D01*
X3740000Y2969734D01*
Y2980266D01*
X3737274Y2990439D01*
X3732008Y2999561D01*
X3724561Y3007008D01*
X3715439Y3012274D01*
X3705266Y3015000D01*
X3694734D01*
X3684561Y3012274D01*
X3683395Y3011601D01*
X3680325Y3015602D01*
X3699723Y3035000D01*
X3705266D01*
X3715439Y3037726D01*
X3724561Y3042992D01*
X3732008Y3050439D01*
X3737274Y3059561D01*
X3740000Y3069734D01*
Y3080266D01*
X3737274Y3090439D01*
X3732008Y3099561D01*
X3724561Y3107008D01*
X3715439Y3112274D01*
X3705266Y3115000D01*
X3694734D01*
X3684561Y3112274D01*
X3675439Y3107008D01*
X3667992Y3099561D01*
X3664521Y3093549D01*
X3659521Y3094889D01*
Y3112892D01*
X3684430Y3137801D01*
X3684561Y3137726D01*
X3694734Y3135000D01*
X3705266D01*
X3715439Y3137726D01*
X3724561Y3142992D01*
X3732008Y3150439D01*
X3737274Y3159561D01*
X3740000Y3169734D01*
Y3180266D01*
X3737274Y3190439D01*
X3732008Y3199561D01*
X3724561Y3207008D01*
X3715439Y3212274D01*
X3705266Y3215000D01*
X3694734D01*
X3684561Y3212274D01*
X3675439Y3207008D01*
X3667992Y3199561D01*
X3662726Y3190439D01*
X3660000Y3180266D01*
Y3169734D01*
X3662726Y3159561D01*
X3662801Y3159430D01*
X3644141Y3140769D01*
X3639521Y3142683D01*
Y3192892D01*
X3684430Y3237801D01*
X3684561Y3237726D01*
X3694734Y3235000D01*
X3705266D01*
X3715439Y3237726D01*
X3724561Y3242992D01*
X3732008Y3250439D01*
X3737274Y3259561D01*
X3740000Y3269734D01*
Y3280266D01*
X3737274Y3290439D01*
X3732008Y3299561D01*
X3724561Y3307008D01*
X3715439Y3312274D01*
X3705266Y3315000D01*
D02*
G37*
G36*
Y2815000D02*
X3705000D01*
Y2780000D01*
X3740000D01*
Y2780266D01*
X3737274Y2790439D01*
X3732008Y2799561D01*
X3724561Y2807008D01*
X3715439Y2812274D01*
X3705266Y2815000D01*
D02*
G37*
G36*
X3740000Y2770000D02*
X3705000D01*
Y2735000D01*
X3705266D01*
X3715439Y2737726D01*
X3724561Y2742992D01*
X3732008Y2750439D01*
X3737274Y2759561D01*
X3740000Y2769734D01*
Y2770000D01*
D02*
G37*
G36*
X3155266Y3315000D02*
X3144734D01*
X3134561Y3312274D01*
X3125439Y3307008D01*
X3117992Y3299561D01*
X3112726Y3290439D01*
X3110000Y3280266D01*
Y3269734D01*
X3112726Y3259561D01*
X3112801Y3259430D01*
X3063413Y3210042D01*
X3060098Y3205080D01*
X3058934Y3199227D01*
Y3059848D01*
X3024918Y3025832D01*
X3021313Y3023424D01*
X3003190Y3005301D01*
X3003007Y3005027D01*
X2996994D01*
X2996812Y3005299D01*
X2978689Y3023422D01*
X2975084Y3025830D01*
X2941066Y3059848D01*
Y3199227D01*
X2939902Y3205080D01*
X2936587Y3210042D01*
X2887199Y3259430D01*
X2887274Y3259561D01*
X2890000Y3269734D01*
Y3280266D01*
X2887274Y3290439D01*
X2882008Y3299561D01*
X2874561Y3307008D01*
X2865439Y3312274D01*
X2855266Y3315000D01*
X2844734D01*
X2834561Y3312274D01*
X2825439Y3307008D01*
X2817992Y3299561D01*
X2812726Y3290439D01*
X2810000Y3280266D01*
Y3269734D01*
X2812726Y3259561D01*
X2817992Y3250439D01*
X2825439Y3242992D01*
X2834561Y3237726D01*
X2844734Y3235000D01*
X2855266D01*
X2865439Y3237726D01*
X2865570Y3237801D01*
X2910479Y3192892D01*
Y3142683D01*
X2905859Y3140769D01*
X2887199Y3159430D01*
X2887274Y3159561D01*
X2890000Y3169734D01*
Y3180266D01*
X2887274Y3190439D01*
X2882008Y3199561D01*
X2874561Y3207008D01*
X2865439Y3212274D01*
X2855266Y3215000D01*
X2844734D01*
X2834561Y3212274D01*
X2825439Y3207008D01*
X2817992Y3199561D01*
X2812726Y3190439D01*
X2810000Y3180266D01*
Y3169734D01*
X2812726Y3159561D01*
X2817992Y3150439D01*
X2825439Y3142992D01*
X2834561Y3137726D01*
X2844734Y3135000D01*
X2855266D01*
X2865439Y3137726D01*
X2865570Y3137801D01*
X2890479Y3112892D01*
Y3094889D01*
X2885479Y3093549D01*
X2882008Y3099561D01*
X2874561Y3107008D01*
X2865439Y3112274D01*
X2855266Y3115000D01*
X2844734D01*
X2834561Y3112274D01*
X2825439Y3107008D01*
X2817992Y3099561D01*
X2812726Y3090439D01*
X2810000Y3080266D01*
Y3069734D01*
X2812726Y3059561D01*
X2817992Y3050439D01*
X2825439Y3042992D01*
X2834561Y3037726D01*
X2844734Y3035000D01*
X2850277D01*
X2869675Y3015602D01*
X2866605Y3011601D01*
X2865439Y3012274D01*
X2855266Y3015000D01*
X2844734D01*
X2834561Y3012274D01*
X2825439Y3007008D01*
X2817992Y2999561D01*
X2812726Y2990439D01*
X2810000Y2980266D01*
Y2969734D01*
X2812726Y2959561D01*
X2817992Y2950439D01*
X2825439Y2942992D01*
X2834561Y2937726D01*
X2844734Y2935000D01*
X2855266D01*
X2865439Y2937726D01*
X2874561Y2942992D01*
X2882008Y2950439D01*
X2885624Y2956702D01*
X2891653Y2957432D01*
X2899170Y2949915D01*
X2901578Y2946311D01*
X2919701Y2928188D01*
X2919972Y2928007D01*
Y2921993D01*
X2919701Y2921812D01*
X2901578Y2903689D01*
X2899170Y2900085D01*
X2891653Y2892568D01*
X2885624Y2893298D01*
X2882008Y2899561D01*
X2874561Y2907008D01*
X2865439Y2912274D01*
X2855266Y2915000D01*
X2844734D01*
X2834561Y2912274D01*
X2825439Y2907008D01*
X2817992Y2899561D01*
X2812726Y2890439D01*
X2810000Y2880266D01*
Y2869734D01*
X2812726Y2859561D01*
X2817992Y2850439D01*
X2825439Y2842992D01*
X2834561Y2837726D01*
X2844734Y2835000D01*
X2855266D01*
X2865439Y2837726D01*
X2866600Y2838396D01*
X2869670Y2834395D01*
X2850275Y2815000D01*
X2844734D01*
X2834561Y2812274D01*
X2825439Y2807008D01*
X2817992Y2799561D01*
X2812726Y2790439D01*
X2810000Y2780266D01*
Y2769734D01*
X2812726Y2759561D01*
X2817992Y2750439D01*
X2825439Y2742992D01*
X2834561Y2737726D01*
X2844734Y2735000D01*
X2855266D01*
X2865439Y2737726D01*
X2874561Y2742992D01*
X2882008Y2750439D01*
X2885479Y2756451D01*
X2890479Y2755111D01*
Y2737108D01*
X2865570Y2712199D01*
X2865439Y2712274D01*
X2855266Y2715000D01*
X2844734D01*
X2834561Y2712274D01*
X2825439Y2707008D01*
X2817992Y2699561D01*
X2812726Y2690439D01*
X2810000Y2680266D01*
Y2669734D01*
X2812726Y2659561D01*
X2817992Y2650439D01*
X2825439Y2642992D01*
X2834561Y2637726D01*
X2844734Y2635000D01*
X2855266D01*
X2865439Y2637726D01*
X2874561Y2642992D01*
X2882008Y2650439D01*
X2887274Y2659561D01*
X2890000Y2669734D01*
Y2680266D01*
X2887274Y2690439D01*
X2887199Y2690570D01*
X2905859Y2709231D01*
X2910479Y2707317D01*
Y2657108D01*
X2865570Y2612199D01*
X2865439Y2612274D01*
X2855266Y2615000D01*
X2844734D01*
X2834561Y2612274D01*
X2825439Y2607008D01*
X2817992Y2599561D01*
X2812726Y2590439D01*
X2810000Y2580266D01*
Y2569734D01*
X2812726Y2559561D01*
X2817992Y2550439D01*
X2825439Y2542992D01*
X2834561Y2537726D01*
X2844734Y2535000D01*
X2855266D01*
X2865439Y2537726D01*
X2874561Y2542992D01*
X2882008Y2550439D01*
X2887274Y2559561D01*
X2890000Y2569734D01*
Y2580266D01*
X2887274Y2590439D01*
X2887199Y2590570D01*
X2936587Y2639958D01*
X2939902Y2644920D01*
X2941066Y2650773D01*
Y2790152D01*
X2975084Y2824170D01*
X2978689Y2826578D01*
X2996812Y2844701D01*
X2996993Y2844972D01*
X3003007D01*
X3003188Y2844701D01*
X3021311Y2826578D01*
X3024916Y2824170D01*
X3058934Y2790152D01*
Y2650773D01*
X3060098Y2644920D01*
X3063413Y2639958D01*
X3112801Y2590570D01*
X3112726Y2590439D01*
X3110000Y2580266D01*
Y2569734D01*
X3112726Y2559561D01*
X3117992Y2550439D01*
X3125439Y2542992D01*
X3134561Y2537726D01*
X3144734Y2535000D01*
X3155266D01*
X3165439Y2537726D01*
X3174561Y2542992D01*
X3182008Y2550439D01*
X3187274Y2559561D01*
X3190000Y2569734D01*
Y2580266D01*
X3187274Y2590439D01*
X3182008Y2599561D01*
X3174561Y2607008D01*
X3165439Y2612274D01*
X3155266Y2615000D01*
X3144734D01*
X3134561Y2612274D01*
X3134430Y2612199D01*
X3089521Y2657108D01*
Y2707317D01*
X3094141Y2709231D01*
X3112801Y2690570D01*
X3112726Y2690439D01*
X3110000Y2680266D01*
Y2669734D01*
X3112726Y2659561D01*
X3117992Y2650439D01*
X3125439Y2642992D01*
X3134561Y2637726D01*
X3144734Y2635000D01*
X3155266D01*
X3165439Y2637726D01*
X3174561Y2642992D01*
X3182008Y2650439D01*
X3187274Y2659561D01*
X3190000Y2669734D01*
Y2680266D01*
X3187274Y2690439D01*
X3182008Y2699561D01*
X3174561Y2707008D01*
X3165439Y2712274D01*
X3155266Y2715000D01*
X3144734D01*
X3134561Y2712274D01*
X3134430Y2712199D01*
X3109521Y2737108D01*
Y2755111D01*
X3114521Y2756451D01*
X3117992Y2750439D01*
X3125439Y2742992D01*
X3134561Y2737726D01*
X3144734Y2735000D01*
X3145000D01*
Y2775000D01*
Y2819725D01*
X3130330Y2834395D01*
X3133400Y2838396D01*
X3134561Y2837726D01*
X3144734Y2835000D01*
X3155266D01*
X3165439Y2837726D01*
X3174561Y2842992D01*
X3182008Y2850439D01*
X3187274Y2859561D01*
X3190000Y2869734D01*
Y2880266D01*
X3187274Y2890439D01*
X3182008Y2899561D01*
X3174561Y2907008D01*
X3165439Y2912274D01*
X3155266Y2915000D01*
X3144734D01*
X3134561Y2912274D01*
X3125439Y2907008D01*
X3117992Y2899561D01*
X3114376Y2893298D01*
X3108347Y2892568D01*
X3100830Y2900085D01*
X3098422Y2903689D01*
X3080299Y2921812D01*
X3080027Y2921994D01*
Y2928007D01*
X3080301Y2928190D01*
X3098424Y2946313D01*
X3100832Y2949918D01*
X3108347Y2957432D01*
X3114376Y2956702D01*
X3117992Y2950439D01*
X3125439Y2942992D01*
X3134561Y2937726D01*
X3144734Y2935000D01*
X3155266D01*
X3165439Y2937726D01*
X3174561Y2942992D01*
X3182008Y2950439D01*
X3187274Y2959561D01*
X3190000Y2969734D01*
Y2980266D01*
X3187274Y2990439D01*
X3182008Y2999561D01*
X3174561Y3007008D01*
X3165439Y3012274D01*
X3155266Y3015000D01*
X3144734D01*
X3134561Y3012274D01*
X3133395Y3011601D01*
X3130325Y3015602D01*
X3149723Y3035000D01*
X3155266D01*
X3165439Y3037726D01*
X3174561Y3042992D01*
X3182008Y3050439D01*
X3187274Y3059561D01*
X3190000Y3069734D01*
Y3080266D01*
X3187274Y3090439D01*
X3182008Y3099561D01*
X3174561Y3107008D01*
X3165439Y3112274D01*
X3155266Y3115000D01*
X3144734D01*
X3134561Y3112274D01*
X3125439Y3107008D01*
X3117992Y3099561D01*
X3114521Y3093549D01*
X3109521Y3094889D01*
Y3112892D01*
X3134430Y3137801D01*
X3134561Y3137726D01*
X3144734Y3135000D01*
X3155266D01*
X3165439Y3137726D01*
X3174561Y3142992D01*
X3182008Y3150439D01*
X3187274Y3159561D01*
X3190000Y3169734D01*
Y3180266D01*
X3187274Y3190439D01*
X3182008Y3199561D01*
X3174561Y3207008D01*
X3165439Y3212274D01*
X3155266Y3215000D01*
X3144734D01*
X3134561Y3212274D01*
X3125439Y3207008D01*
X3117992Y3199561D01*
X3112726Y3190439D01*
X3110000Y3180266D01*
Y3169734D01*
X3112726Y3159561D01*
X3112801Y3159430D01*
X3094141Y3140769D01*
X3089521Y3142683D01*
Y3192892D01*
X3134430Y3237801D01*
X3134561Y3237726D01*
X3144734Y3235000D01*
X3155266D01*
X3165439Y3237726D01*
X3174561Y3242992D01*
X3182008Y3250439D01*
X3187274Y3259561D01*
X3190000Y3269734D01*
Y3280266D01*
X3187274Y3290439D01*
X3182008Y3299561D01*
X3174561Y3307008D01*
X3165439Y3312274D01*
X3155266Y3315000D01*
D02*
G37*
G36*
Y2815000D02*
X3155000D01*
Y2780000D01*
X3190000D01*
Y2780266D01*
X3187274Y2790439D01*
X3182008Y2799561D01*
X3174561Y2807008D01*
X3165439Y2812274D01*
X3155266Y2815000D01*
D02*
G37*
G36*
X3190000Y2770000D02*
X3155000D01*
Y2735000D01*
X3155266D01*
X3165439Y2737726D01*
X3174561Y2742992D01*
X3182008Y2750439D01*
X3187274Y2759561D01*
X3190000Y2769734D01*
Y2770000D01*
D02*
G37*
G36*
X2605266Y3315000D02*
X2594734D01*
X2584561Y3312274D01*
X2575439Y3307008D01*
X2567992Y3299561D01*
X2562726Y3290439D01*
X2560000Y3280266D01*
Y3269734D01*
X2562726Y3259561D01*
X2562801Y3259430D01*
X2513413Y3210042D01*
X2510098Y3205080D01*
X2508934Y3199227D01*
Y3059848D01*
X2474918Y3025832D01*
X2471313Y3023424D01*
X2453190Y3005301D01*
X2453007Y3005027D01*
X2446994D01*
X2446812Y3005299D01*
X2428689Y3023422D01*
X2425084Y3025830D01*
X2391066Y3059848D01*
Y3199227D01*
X2389902Y3205080D01*
X2386587Y3210042D01*
X2337199Y3259430D01*
X2337274Y3259561D01*
X2340000Y3269734D01*
Y3280266D01*
X2337274Y3290439D01*
X2332008Y3299561D01*
X2324561Y3307008D01*
X2315439Y3312274D01*
X2305266Y3315000D01*
X2294734D01*
X2284561Y3312274D01*
X2275439Y3307008D01*
X2267992Y3299561D01*
X2262726Y3290439D01*
X2260000Y3280266D01*
Y3269734D01*
X2262726Y3259561D01*
X2267992Y3250439D01*
X2275439Y3242992D01*
X2284561Y3237726D01*
X2294734Y3235000D01*
X2305266D01*
X2315439Y3237726D01*
X2315570Y3237801D01*
X2360479Y3192892D01*
Y3142683D01*
X2355859Y3140769D01*
X2337199Y3159430D01*
X2337274Y3159561D01*
X2340000Y3169734D01*
Y3180266D01*
X2337274Y3190439D01*
X2332008Y3199561D01*
X2324561Y3207008D01*
X2315439Y3212274D01*
X2305266Y3215000D01*
X2294734D01*
X2284561Y3212274D01*
X2275439Y3207008D01*
X2267992Y3199561D01*
X2262726Y3190439D01*
X2260000Y3180266D01*
Y3169734D01*
X2262726Y3159561D01*
X2267992Y3150439D01*
X2275439Y3142992D01*
X2284561Y3137726D01*
X2294734Y3135000D01*
X2305266D01*
X2315439Y3137726D01*
X2315570Y3137801D01*
X2340479Y3112892D01*
Y3094889D01*
X2335479Y3093549D01*
X2332008Y3099561D01*
X2324561Y3107008D01*
X2315439Y3112274D01*
X2305266Y3115000D01*
X2294734D01*
X2284561Y3112274D01*
X2275439Y3107008D01*
X2267992Y3099561D01*
X2262726Y3090439D01*
X2260000Y3080266D01*
Y3069734D01*
X2262726Y3059561D01*
X2267992Y3050439D01*
X2275439Y3042992D01*
X2284561Y3037726D01*
X2294734Y3035000D01*
X2300277D01*
X2319675Y3015602D01*
X2316605Y3011601D01*
X2315439Y3012274D01*
X2305266Y3015000D01*
X2294734D01*
X2284561Y3012274D01*
X2275439Y3007008D01*
X2267992Y2999561D01*
X2262726Y2990439D01*
X2260000Y2980266D01*
Y2969734D01*
X2262726Y2959561D01*
X2267992Y2950439D01*
X2275439Y2942992D01*
X2284561Y2937726D01*
X2294734Y2935000D01*
X2305266D01*
X2315439Y2937726D01*
X2324561Y2942992D01*
X2332008Y2950439D01*
X2335624Y2956702D01*
X2341653Y2957432D01*
X2349170Y2949915D01*
X2351578Y2946311D01*
X2369701Y2928188D01*
X2369972Y2928007D01*
Y2921993D01*
X2369701Y2921812D01*
X2351578Y2903689D01*
X2349170Y2900085D01*
X2341653Y2892568D01*
X2335624Y2893298D01*
X2332008Y2899561D01*
X2324561Y2907008D01*
X2315439Y2912274D01*
X2305266Y2915000D01*
X2294734D01*
X2284561Y2912274D01*
X2275439Y2907008D01*
X2267992Y2899561D01*
X2262726Y2890439D01*
X2260000Y2880266D01*
Y2869734D01*
X2262726Y2859561D01*
X2267992Y2850439D01*
X2275439Y2842992D01*
X2284561Y2837726D01*
X2294734Y2835000D01*
X2305266D01*
X2315439Y2837726D01*
X2316600Y2838396D01*
X2319670Y2834395D01*
X2300275Y2815000D01*
X2294734D01*
X2284561Y2812274D01*
X2275439Y2807008D01*
X2267992Y2799561D01*
X2262726Y2790439D01*
X2260000Y2780266D01*
Y2769734D01*
X2262726Y2759561D01*
X2267992Y2750439D01*
X2275439Y2742992D01*
X2284561Y2737726D01*
X2294734Y2735000D01*
X2305266D01*
X2315439Y2737726D01*
X2324561Y2742992D01*
X2332008Y2750439D01*
X2335479Y2756451D01*
X2340479Y2755111D01*
Y2737108D01*
X2315570Y2712199D01*
X2315439Y2712274D01*
X2305266Y2715000D01*
X2294734D01*
X2284561Y2712274D01*
X2275439Y2707008D01*
X2267992Y2699561D01*
X2262726Y2690439D01*
X2260000Y2680266D01*
Y2669734D01*
X2262726Y2659561D01*
X2267992Y2650439D01*
X2275439Y2642992D01*
X2284561Y2637726D01*
X2294734Y2635000D01*
X2305266D01*
X2315439Y2637726D01*
X2324561Y2642992D01*
X2332008Y2650439D01*
X2337274Y2659561D01*
X2340000Y2669734D01*
Y2680266D01*
X2337274Y2690439D01*
X2337199Y2690570D01*
X2355859Y2709231D01*
X2360479Y2707317D01*
Y2657108D01*
X2315570Y2612199D01*
X2315439Y2612274D01*
X2305266Y2615000D01*
X2294734D01*
X2284561Y2612274D01*
X2275439Y2607008D01*
X2267992Y2599561D01*
X2262726Y2590439D01*
X2260000Y2580266D01*
Y2569734D01*
X2262726Y2559561D01*
X2267992Y2550439D01*
X2275439Y2542992D01*
X2284561Y2537726D01*
X2294734Y2535000D01*
X2305266D01*
X2315439Y2537726D01*
X2324561Y2542992D01*
X2332008Y2550439D01*
X2337274Y2559561D01*
X2340000Y2569734D01*
Y2580266D01*
X2337274Y2590439D01*
X2337199Y2590570D01*
X2386587Y2639958D01*
X2389902Y2644920D01*
X2391066Y2650773D01*
Y2790152D01*
X2425084Y2824170D01*
X2428689Y2826578D01*
X2446812Y2844701D01*
X2446993Y2844972D01*
X2453007D01*
X2453188Y2844701D01*
X2471311Y2826578D01*
X2474916Y2824170D01*
X2508934Y2790152D01*
Y2650773D01*
X2510098Y2644920D01*
X2513413Y2639958D01*
X2562801Y2590570D01*
X2562726Y2590439D01*
X2560000Y2580266D01*
Y2569734D01*
X2562726Y2559561D01*
X2567992Y2550439D01*
X2575439Y2542992D01*
X2584561Y2537726D01*
X2594734Y2535000D01*
X2605266D01*
X2615439Y2537726D01*
X2624561Y2542992D01*
X2632008Y2550439D01*
X2637274Y2559561D01*
X2640000Y2569734D01*
Y2580266D01*
X2637274Y2590439D01*
X2632008Y2599561D01*
X2624561Y2607008D01*
X2615439Y2612274D01*
X2605266Y2615000D01*
X2594734D01*
X2584561Y2612274D01*
X2584430Y2612199D01*
X2539521Y2657108D01*
Y2707317D01*
X2544141Y2709231D01*
X2562801Y2690570D01*
X2562726Y2690439D01*
X2560000Y2680266D01*
Y2669734D01*
X2562726Y2659561D01*
X2567992Y2650439D01*
X2575439Y2642992D01*
X2584561Y2637726D01*
X2594734Y2635000D01*
X2605266D01*
X2615439Y2637726D01*
X2624561Y2642992D01*
X2632008Y2650439D01*
X2637274Y2659561D01*
X2640000Y2669734D01*
Y2680266D01*
X2637274Y2690439D01*
X2632008Y2699561D01*
X2624561Y2707008D01*
X2615439Y2712274D01*
X2605266Y2715000D01*
X2594734D01*
X2584561Y2712274D01*
X2584430Y2712199D01*
X2559521Y2737108D01*
Y2755111D01*
X2564521Y2756451D01*
X2567992Y2750439D01*
X2575439Y2742992D01*
X2584561Y2737726D01*
X2594734Y2735000D01*
X2595000D01*
Y2775000D01*
Y2819725D01*
X2580330Y2834395D01*
X2583400Y2838396D01*
X2584561Y2837726D01*
X2594734Y2835000D01*
X2605266D01*
X2615439Y2837726D01*
X2624561Y2842992D01*
X2632008Y2850439D01*
X2637274Y2859561D01*
X2640000Y2869734D01*
Y2880266D01*
X2637274Y2890439D01*
X2632008Y2899561D01*
X2624561Y2907008D01*
X2615439Y2912274D01*
X2605266Y2915000D01*
X2594734D01*
X2584561Y2912274D01*
X2575439Y2907008D01*
X2567992Y2899561D01*
X2564376Y2893298D01*
X2558347Y2892568D01*
X2550830Y2900085D01*
X2548422Y2903689D01*
X2530299Y2921812D01*
X2530027Y2921994D01*
Y2928007D01*
X2530301Y2928190D01*
X2548424Y2946313D01*
X2550832Y2949918D01*
X2558347Y2957432D01*
X2564376Y2956702D01*
X2567992Y2950439D01*
X2575439Y2942992D01*
X2584561Y2937726D01*
X2594734Y2935000D01*
X2605266D01*
X2615439Y2937726D01*
X2624561Y2942992D01*
X2632008Y2950439D01*
X2637274Y2959561D01*
X2640000Y2969734D01*
Y2980266D01*
X2637274Y2990439D01*
X2632008Y2999561D01*
X2624561Y3007008D01*
X2615439Y3012274D01*
X2605266Y3015000D01*
X2594734D01*
X2584561Y3012274D01*
X2583395Y3011601D01*
X2580325Y3015602D01*
X2599723Y3035000D01*
X2605266D01*
X2615439Y3037726D01*
X2624561Y3042992D01*
X2632008Y3050439D01*
X2637274Y3059561D01*
X2640000Y3069734D01*
Y3080266D01*
X2637274Y3090439D01*
X2632008Y3099561D01*
X2624561Y3107008D01*
X2615439Y3112274D01*
X2605266Y3115000D01*
X2594734D01*
X2584561Y3112274D01*
X2575439Y3107008D01*
X2567992Y3099561D01*
X2564521Y3093549D01*
X2559521Y3094889D01*
Y3112892D01*
X2584430Y3137801D01*
X2584561Y3137726D01*
X2594734Y3135000D01*
X2605266D01*
X2615439Y3137726D01*
X2624561Y3142992D01*
X2632008Y3150439D01*
X2637274Y3159561D01*
X2640000Y3169734D01*
Y3180266D01*
X2637274Y3190439D01*
X2632008Y3199561D01*
X2624561Y3207008D01*
X2615439Y3212274D01*
X2605266Y3215000D01*
X2594734D01*
X2584561Y3212274D01*
X2575439Y3207008D01*
X2567992Y3199561D01*
X2562726Y3190439D01*
X2560000Y3180266D01*
Y3169734D01*
X2562726Y3159561D01*
X2562801Y3159430D01*
X2544141Y3140769D01*
X2539521Y3142683D01*
Y3192892D01*
X2584430Y3237801D01*
X2584561Y3237726D01*
X2594734Y3235000D01*
X2605266D01*
X2615439Y3237726D01*
X2624561Y3242992D01*
X2632008Y3250439D01*
X2637274Y3259561D01*
X2640000Y3269734D01*
Y3280266D01*
X2637274Y3290439D01*
X2632008Y3299561D01*
X2624561Y3307008D01*
X2615439Y3312274D01*
X2605266Y3315000D01*
D02*
G37*
G36*
Y2815000D02*
X2605000D01*
Y2780000D01*
X2640000D01*
Y2780266D01*
X2637274Y2790439D01*
X2632008Y2799561D01*
X2624561Y2807008D01*
X2615439Y2812274D01*
X2605266Y2815000D01*
D02*
G37*
G36*
X2640000Y2770000D02*
X2605000D01*
Y2735000D01*
X2605266D01*
X2615439Y2737726D01*
X2624561Y2742992D01*
X2632008Y2750439D01*
X2637274Y2759561D01*
X2640000Y2769734D01*
Y2770000D01*
D02*
G37*
G36*
X2055266Y3315000D02*
X2044734D01*
X2034561Y3312274D01*
X2025439Y3307008D01*
X2017992Y3299561D01*
X2012726Y3290439D01*
X2010000Y3280266D01*
Y3269734D01*
X2012726Y3259561D01*
X2012801Y3259430D01*
X1963413Y3210042D01*
X1960098Y3205080D01*
X1958934Y3199227D01*
Y3059848D01*
X1924918Y3025832D01*
X1921313Y3023424D01*
X1903190Y3005301D01*
X1903007Y3005027D01*
X1896994D01*
X1896812Y3005299D01*
X1878689Y3023422D01*
X1875084Y3025830D01*
X1841066Y3059848D01*
Y3199227D01*
X1839902Y3205080D01*
X1836587Y3210042D01*
X1787199Y3259430D01*
X1787274Y3259561D01*
X1790000Y3269734D01*
Y3280266D01*
X1787274Y3290439D01*
X1782008Y3299561D01*
X1774561Y3307008D01*
X1765439Y3312274D01*
X1755266Y3315000D01*
X1744734D01*
X1734561Y3312274D01*
X1725439Y3307008D01*
X1717992Y3299561D01*
X1712726Y3290439D01*
X1710000Y3280266D01*
Y3269734D01*
X1712726Y3259561D01*
X1717992Y3250439D01*
X1725439Y3242992D01*
X1734561Y3237726D01*
X1744734Y3235000D01*
X1755266D01*
X1765439Y3237726D01*
X1765570Y3237801D01*
X1810479Y3192892D01*
Y3142683D01*
X1805859Y3140769D01*
X1787199Y3159430D01*
X1787274Y3159561D01*
X1790000Y3169734D01*
Y3180266D01*
X1787274Y3190439D01*
X1782008Y3199561D01*
X1774561Y3207008D01*
X1765439Y3212274D01*
X1755266Y3215000D01*
X1744734D01*
X1734561Y3212274D01*
X1725439Y3207008D01*
X1717992Y3199561D01*
X1712726Y3190439D01*
X1710000Y3180266D01*
Y3169734D01*
X1712726Y3159561D01*
X1717992Y3150439D01*
X1725439Y3142992D01*
X1734561Y3137726D01*
X1744734Y3135000D01*
X1755266D01*
X1765439Y3137726D01*
X1765570Y3137801D01*
X1790479Y3112892D01*
Y3094889D01*
X1785479Y3093549D01*
X1782008Y3099561D01*
X1774561Y3107008D01*
X1765439Y3112274D01*
X1755266Y3115000D01*
X1744734D01*
X1734561Y3112274D01*
X1725439Y3107008D01*
X1717992Y3099561D01*
X1712726Y3090439D01*
X1710000Y3080266D01*
Y3069734D01*
X1712726Y3059561D01*
X1717992Y3050439D01*
X1725439Y3042992D01*
X1734561Y3037726D01*
X1744734Y3035000D01*
X1750277D01*
X1769675Y3015602D01*
X1766605Y3011601D01*
X1765439Y3012274D01*
X1755266Y3015000D01*
X1744734D01*
X1734561Y3012274D01*
X1725439Y3007008D01*
X1717992Y2999561D01*
X1712726Y2990439D01*
X1710000Y2980266D01*
Y2969734D01*
X1712726Y2959561D01*
X1717992Y2950439D01*
X1725439Y2942992D01*
X1734561Y2937726D01*
X1744734Y2935000D01*
X1755266D01*
X1765439Y2937726D01*
X1774561Y2942992D01*
X1782008Y2950439D01*
X1785623Y2956702D01*
X1791653Y2957432D01*
X1799170Y2949915D01*
X1801578Y2946311D01*
X1819701Y2928188D01*
X1819973Y2928007D01*
Y2921993D01*
X1819701Y2921812D01*
X1801578Y2903689D01*
X1799170Y2900085D01*
X1791653Y2892568D01*
X1785623Y2893298D01*
X1782008Y2899561D01*
X1774561Y2907008D01*
X1765439Y2912274D01*
X1755266Y2915000D01*
X1744734D01*
X1734561Y2912274D01*
X1725439Y2907008D01*
X1717992Y2899561D01*
X1712726Y2890439D01*
X1710000Y2880266D01*
Y2869734D01*
X1712726Y2859561D01*
X1717992Y2850439D01*
X1725439Y2842992D01*
X1734561Y2837726D01*
X1744734Y2835000D01*
X1755266D01*
X1765439Y2837726D01*
X1766600Y2838396D01*
X1769670Y2834395D01*
X1750275Y2815000D01*
X1744734D01*
X1734561Y2812274D01*
X1725439Y2807008D01*
X1717992Y2799561D01*
X1712726Y2790439D01*
X1710000Y2780266D01*
Y2769734D01*
X1712726Y2759561D01*
X1717992Y2750439D01*
X1725439Y2742992D01*
X1734561Y2737726D01*
X1744734Y2735000D01*
X1755266D01*
X1765439Y2737726D01*
X1774561Y2742992D01*
X1782008Y2750439D01*
X1785479Y2756451D01*
X1790479Y2755111D01*
Y2737108D01*
X1765570Y2712199D01*
X1765439Y2712274D01*
X1755266Y2715000D01*
X1744734D01*
X1734561Y2712274D01*
X1725439Y2707008D01*
X1717992Y2699561D01*
X1712726Y2690439D01*
X1710000Y2680266D01*
Y2669734D01*
X1712726Y2659561D01*
X1717992Y2650439D01*
X1725439Y2642992D01*
X1734561Y2637726D01*
X1744734Y2635000D01*
X1755266D01*
X1765439Y2637726D01*
X1774561Y2642992D01*
X1782008Y2650439D01*
X1787274Y2659561D01*
X1790000Y2669734D01*
Y2680266D01*
X1787274Y2690439D01*
X1787199Y2690570D01*
X1805859Y2709231D01*
X1810479Y2707317D01*
Y2657108D01*
X1765570Y2612199D01*
X1765439Y2612274D01*
X1755266Y2615000D01*
X1744734D01*
X1734561Y2612274D01*
X1725439Y2607008D01*
X1717992Y2599561D01*
X1712726Y2590439D01*
X1710000Y2580266D01*
Y2569734D01*
X1712726Y2559561D01*
X1717992Y2550439D01*
X1725439Y2542992D01*
X1734561Y2537726D01*
X1744734Y2535000D01*
X1755266D01*
X1765439Y2537726D01*
X1774561Y2542992D01*
X1782008Y2550439D01*
X1787274Y2559561D01*
X1790000Y2569734D01*
Y2580266D01*
X1787274Y2590439D01*
X1787199Y2590570D01*
X1836587Y2639958D01*
X1839902Y2644920D01*
X1841066Y2650773D01*
Y2790152D01*
X1875084Y2824170D01*
X1878689Y2826578D01*
X1896812Y2844701D01*
X1896993Y2844972D01*
X1903007D01*
X1903188Y2844701D01*
X1921311Y2826578D01*
X1924916Y2824170D01*
X1958934Y2790152D01*
Y2650773D01*
X1960098Y2644920D01*
X1963413Y2639958D01*
X2012801Y2590570D01*
X2012726Y2590439D01*
X2010000Y2580266D01*
Y2569734D01*
X2012726Y2559561D01*
X2017992Y2550439D01*
X2025439Y2542992D01*
X2034561Y2537726D01*
X2044734Y2535000D01*
X2055266D01*
X2065439Y2537726D01*
X2074561Y2542992D01*
X2082008Y2550439D01*
X2087274Y2559561D01*
X2090000Y2569734D01*
Y2580266D01*
X2087274Y2590439D01*
X2082008Y2599561D01*
X2074561Y2607008D01*
X2065439Y2612274D01*
X2055266Y2615000D01*
X2044734D01*
X2034561Y2612274D01*
X2034430Y2612199D01*
X1989521Y2657108D01*
Y2707317D01*
X1994141Y2709231D01*
X2012801Y2690570D01*
X2012726Y2690439D01*
X2010000Y2680266D01*
Y2669734D01*
X2012726Y2659561D01*
X2017992Y2650439D01*
X2025439Y2642992D01*
X2034561Y2637726D01*
X2044734Y2635000D01*
X2055266D01*
X2065439Y2637726D01*
X2074561Y2642992D01*
X2082008Y2650439D01*
X2087274Y2659561D01*
X2090000Y2669734D01*
Y2680266D01*
X2087274Y2690439D01*
X2082008Y2699561D01*
X2074561Y2707008D01*
X2065439Y2712274D01*
X2055266Y2715000D01*
X2044734D01*
X2034561Y2712274D01*
X2034430Y2712199D01*
X2009521Y2737108D01*
Y2755111D01*
X2014521Y2756451D01*
X2017992Y2750439D01*
X2025439Y2742992D01*
X2034561Y2737726D01*
X2044734Y2735000D01*
X2045000D01*
Y2775000D01*
Y2819725D01*
X2030330Y2834395D01*
X2033400Y2838396D01*
X2034561Y2837726D01*
X2044734Y2835000D01*
X2055266D01*
X2065439Y2837726D01*
X2074561Y2842992D01*
X2082008Y2850439D01*
X2087274Y2859561D01*
X2090000Y2869734D01*
Y2880266D01*
X2087274Y2890439D01*
X2082008Y2899561D01*
X2074561Y2907008D01*
X2065439Y2912274D01*
X2055266Y2915000D01*
X2044734D01*
X2034561Y2912274D01*
X2025439Y2907008D01*
X2017992Y2899561D01*
X2014377Y2893298D01*
X2008347Y2892568D01*
X2000830Y2900085D01*
X1998422Y2903689D01*
X1980299Y2921812D01*
X1980027Y2921994D01*
Y2928007D01*
X1980301Y2928190D01*
X1998424Y2946313D01*
X2000832Y2949918D01*
X2008347Y2957432D01*
X2014377Y2956702D01*
X2017992Y2950439D01*
X2025439Y2942992D01*
X2034561Y2937726D01*
X2044734Y2935000D01*
X2055266D01*
X2065439Y2937726D01*
X2074561Y2942992D01*
X2082008Y2950439D01*
X2087274Y2959561D01*
X2090000Y2969734D01*
Y2980266D01*
X2087274Y2990439D01*
X2082008Y2999561D01*
X2074561Y3007008D01*
X2065439Y3012274D01*
X2055266Y3015000D01*
X2044734D01*
X2034561Y3012274D01*
X2033395Y3011601D01*
X2030325Y3015602D01*
X2049723Y3035000D01*
X2055266D01*
X2065439Y3037726D01*
X2074561Y3042992D01*
X2082008Y3050439D01*
X2087274Y3059561D01*
X2090000Y3069734D01*
Y3080266D01*
X2087274Y3090439D01*
X2082008Y3099561D01*
X2074561Y3107008D01*
X2065439Y3112274D01*
X2055266Y3115000D01*
X2044734D01*
X2034561Y3112274D01*
X2025439Y3107008D01*
X2017992Y3099561D01*
X2014521Y3093549D01*
X2009521Y3094889D01*
Y3112892D01*
X2034430Y3137801D01*
X2034561Y3137726D01*
X2044734Y3135000D01*
X2055266D01*
X2065439Y3137726D01*
X2074561Y3142992D01*
X2082008Y3150439D01*
X2087274Y3159561D01*
X2090000Y3169734D01*
Y3180266D01*
X2087274Y3190439D01*
X2082008Y3199561D01*
X2074561Y3207008D01*
X2065439Y3212274D01*
X2055266Y3215000D01*
X2044734D01*
X2034561Y3212274D01*
X2025439Y3207008D01*
X2017992Y3199561D01*
X2012726Y3190439D01*
X2010000Y3180266D01*
Y3169734D01*
X2012726Y3159561D01*
X2012801Y3159430D01*
X1994141Y3140769D01*
X1989521Y3142683D01*
Y3192892D01*
X2034430Y3237801D01*
X2034561Y3237726D01*
X2044734Y3235000D01*
X2055266D01*
X2065439Y3237726D01*
X2074561Y3242992D01*
X2082008Y3250439D01*
X2087274Y3259561D01*
X2090000Y3269734D01*
Y3280266D01*
X2087274Y3290439D01*
X2082008Y3299561D01*
X2074561Y3307008D01*
X2065439Y3312274D01*
X2055266Y3315000D01*
D02*
G37*
G36*
Y2815000D02*
X2055000D01*
Y2780000D01*
X2090000D01*
Y2780266D01*
X2087274Y2790439D01*
X2082008Y2799561D01*
X2074561Y2807008D01*
X2065439Y2812274D01*
X2055266Y2815000D01*
D02*
G37*
G36*
X2090000Y2770000D02*
X2055000D01*
Y2735000D01*
X2055266D01*
X2065439Y2737726D01*
X2074561Y2742992D01*
X2082008Y2750439D01*
X2087274Y2759561D01*
X2090000Y2769734D01*
Y2770000D01*
D02*
G37*
G36*
X1505266Y3315000D02*
X1494734D01*
X1484561Y3312274D01*
X1475439Y3307008D01*
X1467992Y3299561D01*
X1462726Y3290439D01*
X1460000Y3280266D01*
Y3269734D01*
X1462726Y3259561D01*
X1462801Y3259430D01*
X1413413Y3210042D01*
X1410098Y3205080D01*
X1408934Y3199227D01*
Y3059848D01*
X1374918Y3025832D01*
X1371313Y3023424D01*
X1353190Y3005301D01*
X1353007Y3005027D01*
X1346994D01*
X1346812Y3005299D01*
X1328689Y3023422D01*
X1325084Y3025830D01*
X1291066Y3059848D01*
Y3199227D01*
X1289902Y3205080D01*
X1286587Y3210042D01*
X1237199Y3259430D01*
X1237274Y3259561D01*
X1240000Y3269734D01*
Y3280266D01*
X1237274Y3290439D01*
X1232008Y3299561D01*
X1224561Y3307008D01*
X1215439Y3312274D01*
X1205266Y3315000D01*
X1194734D01*
X1184561Y3312274D01*
X1175439Y3307008D01*
X1167992Y3299561D01*
X1162726Y3290439D01*
X1160000Y3280266D01*
Y3269734D01*
X1162726Y3259561D01*
X1167992Y3250439D01*
X1175439Y3242992D01*
X1184561Y3237726D01*
X1194734Y3235000D01*
X1205266D01*
X1215439Y3237726D01*
X1215570Y3237801D01*
X1260479Y3192892D01*
Y3142683D01*
X1255859Y3140769D01*
X1237199Y3159430D01*
X1237274Y3159561D01*
X1240000Y3169734D01*
Y3180266D01*
X1237274Y3190439D01*
X1232008Y3199561D01*
X1224561Y3207008D01*
X1215439Y3212274D01*
X1205266Y3215000D01*
X1194734D01*
X1184561Y3212274D01*
X1175439Y3207008D01*
X1167992Y3199561D01*
X1162726Y3190439D01*
X1160000Y3180266D01*
Y3169734D01*
X1162726Y3159561D01*
X1167992Y3150439D01*
X1175439Y3142992D01*
X1184561Y3137726D01*
X1194734Y3135000D01*
X1205266D01*
X1215439Y3137726D01*
X1215570Y3137801D01*
X1240479Y3112892D01*
Y3094889D01*
X1235479Y3093549D01*
X1232008Y3099561D01*
X1224561Y3107008D01*
X1215439Y3112274D01*
X1205266Y3115000D01*
X1194734D01*
X1184561Y3112274D01*
X1175439Y3107008D01*
X1167992Y3099561D01*
X1162726Y3090439D01*
X1160000Y3080266D01*
Y3069734D01*
X1162726Y3059561D01*
X1167992Y3050439D01*
X1175439Y3042992D01*
X1184561Y3037726D01*
X1194734Y3035000D01*
X1200277D01*
X1219675Y3015602D01*
X1216605Y3011601D01*
X1215439Y3012274D01*
X1205266Y3015000D01*
X1194734D01*
X1184561Y3012274D01*
X1175439Y3007008D01*
X1167992Y2999561D01*
X1162726Y2990439D01*
X1160000Y2980266D01*
Y2969734D01*
X1162726Y2959561D01*
X1167992Y2950439D01*
X1175439Y2942992D01*
X1184561Y2937726D01*
X1194734Y2935000D01*
X1205266D01*
X1215439Y2937726D01*
X1224561Y2942992D01*
X1232008Y2950439D01*
X1235623Y2956702D01*
X1241653Y2957432D01*
X1249170Y2949915D01*
X1251578Y2946311D01*
X1269701Y2928188D01*
X1269973Y2928007D01*
Y2921993D01*
X1269701Y2921812D01*
X1251578Y2903689D01*
X1249170Y2900085D01*
X1241653Y2892568D01*
X1235623Y2893298D01*
X1232008Y2899561D01*
X1224561Y2907008D01*
X1215439Y2912274D01*
X1205266Y2915000D01*
X1194734D01*
X1184561Y2912274D01*
X1175439Y2907008D01*
X1167992Y2899561D01*
X1162726Y2890439D01*
X1160000Y2880266D01*
Y2869734D01*
X1162726Y2859561D01*
X1167992Y2850439D01*
X1175439Y2842992D01*
X1184561Y2837726D01*
X1194734Y2835000D01*
X1205266D01*
X1215439Y2837726D01*
X1216600Y2838396D01*
X1219670Y2834395D01*
X1200275Y2815000D01*
X1194734D01*
X1184561Y2812274D01*
X1175439Y2807008D01*
X1167992Y2799561D01*
X1162726Y2790439D01*
X1160000Y2780266D01*
Y2769734D01*
X1162726Y2759561D01*
X1167992Y2750439D01*
X1175439Y2742992D01*
X1184561Y2737726D01*
X1194734Y2735000D01*
X1205266D01*
X1215439Y2737726D01*
X1224561Y2742992D01*
X1232008Y2750439D01*
X1235479Y2756451D01*
X1240479Y2755111D01*
Y2737108D01*
X1215570Y2712199D01*
X1215439Y2712274D01*
X1205266Y2715000D01*
X1194734D01*
X1184561Y2712274D01*
X1175439Y2707008D01*
X1167992Y2699561D01*
X1162726Y2690439D01*
X1160000Y2680266D01*
Y2669734D01*
X1162726Y2659561D01*
X1167992Y2650439D01*
X1175439Y2642992D01*
X1184561Y2637726D01*
X1194734Y2635000D01*
X1205266D01*
X1215439Y2637726D01*
X1224561Y2642992D01*
X1232008Y2650439D01*
X1237274Y2659561D01*
X1240000Y2669734D01*
Y2680266D01*
X1237274Y2690439D01*
X1237199Y2690570D01*
X1255859Y2709231D01*
X1260479Y2707317D01*
Y2657108D01*
X1215570Y2612199D01*
X1215439Y2612274D01*
X1205266Y2615000D01*
X1194734D01*
X1184561Y2612274D01*
X1175439Y2607008D01*
X1167992Y2599561D01*
X1162726Y2590439D01*
X1160000Y2580266D01*
Y2569734D01*
X1162726Y2559561D01*
X1167992Y2550439D01*
X1175439Y2542992D01*
X1184561Y2537726D01*
X1194734Y2535000D01*
X1205266D01*
X1215439Y2537726D01*
X1224561Y2542992D01*
X1232008Y2550439D01*
X1237274Y2559561D01*
X1240000Y2569734D01*
Y2580266D01*
X1237274Y2590439D01*
X1237199Y2590570D01*
X1286587Y2639958D01*
X1289902Y2644920D01*
X1291066Y2650773D01*
Y2790152D01*
X1325084Y2824170D01*
X1328689Y2826578D01*
X1346812Y2844701D01*
X1346993Y2844972D01*
X1353007D01*
X1353188Y2844701D01*
X1371311Y2826578D01*
X1374916Y2824170D01*
X1408934Y2790152D01*
Y2650773D01*
X1410098Y2644920D01*
X1413413Y2639958D01*
X1462801Y2590570D01*
X1462726Y2590439D01*
X1460000Y2580266D01*
Y2569734D01*
X1462726Y2559561D01*
X1467992Y2550439D01*
X1475439Y2542992D01*
X1484561Y2537726D01*
X1494734Y2535000D01*
X1505266D01*
X1515439Y2537726D01*
X1524561Y2542992D01*
X1532008Y2550439D01*
X1537274Y2559561D01*
X1540000Y2569734D01*
Y2580266D01*
X1537274Y2590439D01*
X1532008Y2599561D01*
X1524561Y2607008D01*
X1515439Y2612274D01*
X1505266Y2615000D01*
X1494734D01*
X1484561Y2612274D01*
X1484430Y2612199D01*
X1439521Y2657108D01*
Y2707317D01*
X1444141Y2709231D01*
X1462801Y2690570D01*
X1462726Y2690439D01*
X1460000Y2680266D01*
Y2669734D01*
X1462726Y2659561D01*
X1467992Y2650439D01*
X1475439Y2642992D01*
X1484561Y2637726D01*
X1494734Y2635000D01*
X1505266D01*
X1515439Y2637726D01*
X1524561Y2642992D01*
X1532008Y2650439D01*
X1537274Y2659561D01*
X1540000Y2669734D01*
Y2680266D01*
X1537274Y2690439D01*
X1532008Y2699561D01*
X1524561Y2707008D01*
X1515439Y2712274D01*
X1505266Y2715000D01*
X1494734D01*
X1484561Y2712274D01*
X1484430Y2712199D01*
X1459521Y2737108D01*
Y2755111D01*
X1464521Y2756451D01*
X1467992Y2750439D01*
X1475439Y2742992D01*
X1484561Y2737726D01*
X1494734Y2735000D01*
X1495000D01*
Y2775000D01*
Y2819725D01*
X1480330Y2834395D01*
X1483400Y2838396D01*
X1484561Y2837726D01*
X1494734Y2835000D01*
X1505266D01*
X1515439Y2837726D01*
X1524561Y2842992D01*
X1532008Y2850439D01*
X1537274Y2859561D01*
X1540000Y2869734D01*
Y2880266D01*
X1537274Y2890439D01*
X1532008Y2899561D01*
X1524561Y2907008D01*
X1515439Y2912274D01*
X1505266Y2915000D01*
X1494734D01*
X1484561Y2912274D01*
X1475439Y2907008D01*
X1467992Y2899561D01*
X1464377Y2893298D01*
X1458347Y2892568D01*
X1450830Y2900085D01*
X1448422Y2903689D01*
X1430299Y2921812D01*
X1430027Y2921994D01*
Y2928007D01*
X1430301Y2928190D01*
X1448424Y2946313D01*
X1450832Y2949918D01*
X1458347Y2957432D01*
X1464377Y2956702D01*
X1467992Y2950439D01*
X1475439Y2942992D01*
X1484561Y2937726D01*
X1494734Y2935000D01*
X1505266D01*
X1515439Y2937726D01*
X1524561Y2942992D01*
X1532008Y2950439D01*
X1537274Y2959561D01*
X1540000Y2969734D01*
Y2980266D01*
X1537274Y2990439D01*
X1532008Y2999561D01*
X1524561Y3007008D01*
X1515439Y3012274D01*
X1505266Y3015000D01*
X1494734D01*
X1484561Y3012274D01*
X1483395Y3011601D01*
X1480325Y3015602D01*
X1499723Y3035000D01*
X1505266D01*
X1515439Y3037726D01*
X1524561Y3042992D01*
X1532008Y3050439D01*
X1537274Y3059561D01*
X1540000Y3069734D01*
Y3080266D01*
X1537274Y3090439D01*
X1532008Y3099561D01*
X1524561Y3107008D01*
X1515439Y3112274D01*
X1505266Y3115000D01*
X1494734D01*
X1484561Y3112274D01*
X1475439Y3107008D01*
X1467992Y3099561D01*
X1464521Y3093549D01*
X1459521Y3094889D01*
Y3112892D01*
X1484430Y3137801D01*
X1484561Y3137726D01*
X1494734Y3135000D01*
X1505266D01*
X1515439Y3137726D01*
X1524561Y3142992D01*
X1532008Y3150439D01*
X1537274Y3159561D01*
X1540000Y3169734D01*
Y3180266D01*
X1537274Y3190439D01*
X1532008Y3199561D01*
X1524561Y3207008D01*
X1515439Y3212274D01*
X1505266Y3215000D01*
X1494734D01*
X1484561Y3212274D01*
X1475439Y3207008D01*
X1467992Y3199561D01*
X1462726Y3190439D01*
X1460000Y3180266D01*
Y3169734D01*
X1462726Y3159561D01*
X1462801Y3159430D01*
X1444141Y3140769D01*
X1439521Y3142683D01*
Y3192892D01*
X1484430Y3237801D01*
X1484561Y3237726D01*
X1494734Y3235000D01*
X1505266D01*
X1515439Y3237726D01*
X1524561Y3242992D01*
X1532008Y3250439D01*
X1537274Y3259561D01*
X1540000Y3269734D01*
Y3280266D01*
X1537274Y3290439D01*
X1532008Y3299561D01*
X1524561Y3307008D01*
X1515439Y3312274D01*
X1505266Y3315000D01*
D02*
G37*
G36*
Y2815000D02*
X1505000D01*
Y2780000D01*
X1540000D01*
Y2780266D01*
X1537274Y2790439D01*
X1532008Y2799561D01*
X1524561Y2807008D01*
X1515439Y2812274D01*
X1505266Y2815000D01*
D02*
G37*
G36*
X1540000Y2770000D02*
X1505000D01*
Y2735000D01*
X1505266D01*
X1515439Y2737726D01*
X1524561Y2742992D01*
X1532008Y2750439D01*
X1537274Y2759561D01*
X1540000Y2769734D01*
Y2770000D01*
D02*
G37*
G36*
X3705266Y1915000D02*
X3694734D01*
X3684561Y1912274D01*
X3675439Y1907008D01*
X3667992Y1899561D01*
X3662726Y1890439D01*
X3660000Y1880266D01*
Y1869734D01*
X3662726Y1859561D01*
X3662801Y1859430D01*
X3613413Y1810042D01*
X3610098Y1805080D01*
X3608934Y1799227D01*
Y1659848D01*
X3574918Y1625832D01*
X3571313Y1623424D01*
X3553190Y1605301D01*
X3553007Y1605027D01*
X3546994D01*
X3546812Y1605299D01*
X3528689Y1623422D01*
X3525084Y1625830D01*
X3491066Y1659848D01*
Y1799227D01*
X3489902Y1805080D01*
X3486587Y1810042D01*
X3437199Y1859430D01*
X3437274Y1859561D01*
X3440000Y1869734D01*
Y1880266D01*
X3437274Y1890439D01*
X3432008Y1899561D01*
X3424561Y1907008D01*
X3415439Y1912274D01*
X3405266Y1915000D01*
X3394734D01*
X3384561Y1912274D01*
X3375439Y1907008D01*
X3367992Y1899561D01*
X3362726Y1890439D01*
X3360000Y1880266D01*
Y1869734D01*
X3362726Y1859561D01*
X3367992Y1850439D01*
X3375439Y1842992D01*
X3384561Y1837726D01*
X3394734Y1835000D01*
X3405266D01*
X3415439Y1837726D01*
X3415570Y1837801D01*
X3460479Y1792892D01*
Y1742683D01*
X3455859Y1740770D01*
X3437199Y1759430D01*
X3437274Y1759561D01*
X3440000Y1769734D01*
Y1780266D01*
X3437274Y1790439D01*
X3432008Y1799561D01*
X3424561Y1807008D01*
X3415439Y1812274D01*
X3405266Y1815000D01*
X3394734D01*
X3384561Y1812274D01*
X3375439Y1807008D01*
X3367992Y1799561D01*
X3362726Y1790439D01*
X3360000Y1780266D01*
Y1769734D01*
X3362726Y1759561D01*
X3367992Y1750439D01*
X3375439Y1742992D01*
X3384561Y1737726D01*
X3394734Y1735000D01*
X3405266D01*
X3415439Y1737726D01*
X3415570Y1737801D01*
X3440479Y1712892D01*
Y1694889D01*
X3435479Y1693549D01*
X3432008Y1699561D01*
X3424561Y1707008D01*
X3415439Y1712274D01*
X3405266Y1715000D01*
X3394734D01*
X3384561Y1712274D01*
X3375439Y1707008D01*
X3367992Y1699561D01*
X3362726Y1690439D01*
X3360000Y1680266D01*
Y1669734D01*
X3362726Y1659561D01*
X3367992Y1650439D01*
X3375439Y1642992D01*
X3384561Y1637726D01*
X3394734Y1635000D01*
X3400277D01*
X3419675Y1615602D01*
X3416605Y1611601D01*
X3415439Y1612274D01*
X3405266Y1615000D01*
X3394734D01*
X3384561Y1612274D01*
X3375439Y1607008D01*
X3367992Y1599561D01*
X3362726Y1590439D01*
X3360000Y1580266D01*
Y1569734D01*
X3362726Y1559561D01*
X3367992Y1550439D01*
X3375439Y1542992D01*
X3384561Y1537726D01*
X3394734Y1535000D01*
X3405266D01*
X3415439Y1537726D01*
X3424561Y1542992D01*
X3432008Y1550439D01*
X3435624Y1556702D01*
X3441653Y1557432D01*
X3449170Y1549915D01*
X3451578Y1546311D01*
X3469701Y1528188D01*
X3469972Y1528007D01*
Y1521993D01*
X3469701Y1521812D01*
X3451578Y1503689D01*
X3449170Y1500085D01*
X3441653Y1492568D01*
X3435624Y1493298D01*
X3432008Y1499561D01*
X3424561Y1507008D01*
X3415439Y1512274D01*
X3405266Y1515000D01*
X3394734D01*
X3384561Y1512274D01*
X3375439Y1507008D01*
X3367992Y1499561D01*
X3362726Y1490439D01*
X3360000Y1480266D01*
Y1469734D01*
X3362726Y1459561D01*
X3367992Y1450439D01*
X3375439Y1442992D01*
X3384561Y1437726D01*
X3394734Y1435000D01*
X3405266D01*
X3415439Y1437726D01*
X3416600Y1438396D01*
X3419670Y1434395D01*
X3400275Y1415000D01*
X3394734D01*
X3384561Y1412274D01*
X3375439Y1407008D01*
X3367992Y1399561D01*
X3362726Y1390439D01*
X3360000Y1380266D01*
Y1369734D01*
X3362726Y1359561D01*
X3367992Y1350439D01*
X3375439Y1342992D01*
X3384561Y1337726D01*
X3394734Y1335000D01*
X3405266D01*
X3415439Y1337726D01*
X3424561Y1342992D01*
X3432008Y1350439D01*
X3435479Y1356451D01*
X3440479Y1355111D01*
Y1337108D01*
X3415570Y1312199D01*
X3415439Y1312274D01*
X3405266Y1315000D01*
X3394734D01*
X3384561Y1312274D01*
X3375439Y1307008D01*
X3367992Y1299561D01*
X3362726Y1290439D01*
X3360000Y1280266D01*
Y1269734D01*
X3362726Y1259561D01*
X3367992Y1250439D01*
X3375439Y1242992D01*
X3384561Y1237726D01*
X3394734Y1235000D01*
X3405266D01*
X3415439Y1237726D01*
X3424561Y1242992D01*
X3432008Y1250439D01*
X3437274Y1259561D01*
X3440000Y1269734D01*
Y1280266D01*
X3437274Y1290439D01*
X3437199Y1290570D01*
X3455859Y1309230D01*
X3460479Y1307317D01*
Y1257108D01*
X3415570Y1212199D01*
X3415439Y1212274D01*
X3405266Y1215000D01*
X3394734D01*
X3384561Y1212274D01*
X3375439Y1207008D01*
X3367992Y1199561D01*
X3362726Y1190439D01*
X3360000Y1180266D01*
Y1169734D01*
X3362726Y1159561D01*
X3367992Y1150439D01*
X3375439Y1142992D01*
X3384561Y1137726D01*
X3394734Y1135000D01*
X3405266D01*
X3415439Y1137726D01*
X3424561Y1142992D01*
X3432008Y1150439D01*
X3437274Y1159561D01*
X3440000Y1169734D01*
Y1180266D01*
X3437274Y1190439D01*
X3437199Y1190570D01*
X3486587Y1239958D01*
X3489902Y1244920D01*
X3491066Y1250773D01*
Y1390152D01*
X3525084Y1424170D01*
X3528689Y1426578D01*
X3546812Y1444701D01*
X3546993Y1444973D01*
X3553007D01*
X3553188Y1444701D01*
X3571311Y1426578D01*
X3574916Y1424170D01*
X3608934Y1390152D01*
Y1250773D01*
X3610098Y1244920D01*
X3613413Y1239958D01*
X3662801Y1190570D01*
X3662726Y1190439D01*
X3660000Y1180266D01*
Y1169734D01*
X3662726Y1159561D01*
X3667992Y1150439D01*
X3675439Y1142992D01*
X3684561Y1137726D01*
X3694734Y1135000D01*
X3705266D01*
X3715439Y1137726D01*
X3724561Y1142992D01*
X3732008Y1150439D01*
X3737274Y1159561D01*
X3740000Y1169734D01*
Y1180266D01*
X3737274Y1190439D01*
X3732008Y1199561D01*
X3724561Y1207008D01*
X3715439Y1212274D01*
X3705266Y1215000D01*
X3694734D01*
X3684561Y1212274D01*
X3684430Y1212199D01*
X3639521Y1257108D01*
Y1307317D01*
X3644141Y1309230D01*
X3662801Y1290570D01*
X3662726Y1290439D01*
X3660000Y1280266D01*
Y1269734D01*
X3662726Y1259561D01*
X3667992Y1250439D01*
X3675439Y1242992D01*
X3684561Y1237726D01*
X3694734Y1235000D01*
X3705266D01*
X3715439Y1237726D01*
X3724561Y1242992D01*
X3732008Y1250439D01*
X3737274Y1259561D01*
X3740000Y1269734D01*
Y1280266D01*
X3737274Y1290439D01*
X3732008Y1299561D01*
X3724561Y1307008D01*
X3715439Y1312274D01*
X3705266Y1315000D01*
X3694734D01*
X3684561Y1312274D01*
X3684430Y1312199D01*
X3659521Y1337108D01*
Y1355111D01*
X3664521Y1356451D01*
X3667992Y1350439D01*
X3675439Y1342992D01*
X3684561Y1337726D01*
X3694734Y1335000D01*
X3695000D01*
Y1375000D01*
Y1419725D01*
X3680330Y1434395D01*
X3683400Y1438396D01*
X3684561Y1437726D01*
X3694734Y1435000D01*
X3705266D01*
X3715439Y1437726D01*
X3724561Y1442992D01*
X3732008Y1450439D01*
X3737274Y1459561D01*
X3740000Y1469734D01*
Y1480266D01*
X3737274Y1490439D01*
X3732008Y1499561D01*
X3724561Y1507008D01*
X3715439Y1512274D01*
X3705266Y1515000D01*
X3694734D01*
X3684561Y1512274D01*
X3675439Y1507008D01*
X3667992Y1499561D01*
X3664376Y1493298D01*
X3658347Y1492568D01*
X3650830Y1500085D01*
X3648422Y1503689D01*
X3630299Y1521812D01*
X3630027Y1521994D01*
Y1528007D01*
X3630301Y1528190D01*
X3648424Y1546313D01*
X3650832Y1549918D01*
X3658347Y1557432D01*
X3664376Y1556702D01*
X3667992Y1550439D01*
X3675439Y1542992D01*
X3684561Y1537726D01*
X3694734Y1535000D01*
X3705266D01*
X3715439Y1537726D01*
X3724561Y1542992D01*
X3732008Y1550439D01*
X3737274Y1559561D01*
X3740000Y1569734D01*
Y1580266D01*
X3737274Y1590439D01*
X3732008Y1599561D01*
X3724561Y1607008D01*
X3715439Y1612274D01*
X3705266Y1615000D01*
X3694734D01*
X3684561Y1612274D01*
X3683395Y1611601D01*
X3680325Y1615602D01*
X3699723Y1635000D01*
X3705266D01*
X3715439Y1637726D01*
X3724561Y1642992D01*
X3732008Y1650439D01*
X3737274Y1659561D01*
X3740000Y1669734D01*
Y1680266D01*
X3737274Y1690439D01*
X3732008Y1699561D01*
X3724561Y1707008D01*
X3715439Y1712274D01*
X3705266Y1715000D01*
X3694734D01*
X3684561Y1712274D01*
X3675439Y1707008D01*
X3667992Y1699561D01*
X3664521Y1693549D01*
X3659521Y1694889D01*
Y1712892D01*
X3684430Y1737801D01*
X3684561Y1737726D01*
X3694734Y1735000D01*
X3705266D01*
X3715439Y1737726D01*
X3724561Y1742992D01*
X3732008Y1750439D01*
X3737274Y1759561D01*
X3740000Y1769734D01*
Y1780266D01*
X3737274Y1790439D01*
X3732008Y1799561D01*
X3724561Y1807008D01*
X3715439Y1812274D01*
X3705266Y1815000D01*
X3694734D01*
X3684561Y1812274D01*
X3675439Y1807008D01*
X3667992Y1799561D01*
X3662726Y1790439D01*
X3660000Y1780266D01*
Y1769734D01*
X3662726Y1759561D01*
X3662801Y1759430D01*
X3644141Y1740770D01*
X3639521Y1742683D01*
Y1792892D01*
X3684430Y1837801D01*
X3684561Y1837726D01*
X3694734Y1835000D01*
X3705266D01*
X3715439Y1837726D01*
X3724561Y1842992D01*
X3732008Y1850439D01*
X3737274Y1859561D01*
X3740000Y1869734D01*
Y1880266D01*
X3737274Y1890439D01*
X3732008Y1899561D01*
X3724561Y1907008D01*
X3715439Y1912274D01*
X3705266Y1915000D01*
D02*
G37*
G36*
Y1415000D02*
X3705000D01*
Y1380000D01*
X3740000D01*
Y1380266D01*
X3737274Y1390439D01*
X3732008Y1399561D01*
X3724561Y1407008D01*
X3715439Y1412274D01*
X3705266Y1415000D01*
D02*
G37*
G36*
X3740000Y1370000D02*
X3705000D01*
Y1335000D01*
X3705266D01*
X3715439Y1337726D01*
X3724561Y1342992D01*
X3732008Y1350439D01*
X3737274Y1359561D01*
X3740000Y1369734D01*
Y1370000D01*
D02*
G37*
G36*
X3155266Y1915000D02*
X3144734D01*
X3134561Y1912274D01*
X3125439Y1907008D01*
X3117992Y1899561D01*
X3112726Y1890439D01*
X3110000Y1880266D01*
Y1869734D01*
X3112726Y1859561D01*
X3112801Y1859430D01*
X3063413Y1810042D01*
X3060098Y1805080D01*
X3058934Y1799227D01*
Y1659848D01*
X3024918Y1625832D01*
X3021313Y1623424D01*
X3003190Y1605301D01*
X3003007Y1605027D01*
X2996994D01*
X2996812Y1605299D01*
X2978689Y1623422D01*
X2975084Y1625830D01*
X2941066Y1659848D01*
Y1799227D01*
X2939902Y1805080D01*
X2936587Y1810042D01*
X2887199Y1859430D01*
X2887274Y1859561D01*
X2890000Y1869734D01*
Y1880266D01*
X2887274Y1890439D01*
X2882008Y1899561D01*
X2874561Y1907008D01*
X2865439Y1912274D01*
X2855266Y1915000D01*
X2844734D01*
X2834561Y1912274D01*
X2825439Y1907008D01*
X2817992Y1899561D01*
X2812726Y1890439D01*
X2810000Y1880266D01*
Y1869734D01*
X2812726Y1859561D01*
X2817992Y1850439D01*
X2825439Y1842992D01*
X2834561Y1837726D01*
X2844734Y1835000D01*
X2855266D01*
X2865439Y1837726D01*
X2865570Y1837801D01*
X2910479Y1792892D01*
Y1742683D01*
X2905859Y1740770D01*
X2887199Y1759430D01*
X2887274Y1759561D01*
X2890000Y1769734D01*
Y1780266D01*
X2887274Y1790439D01*
X2882008Y1799561D01*
X2874561Y1807008D01*
X2865439Y1812274D01*
X2855266Y1815000D01*
X2844734D01*
X2834561Y1812274D01*
X2825439Y1807008D01*
X2817992Y1799561D01*
X2812726Y1790439D01*
X2810000Y1780266D01*
Y1769734D01*
X2812726Y1759561D01*
X2817992Y1750439D01*
X2825439Y1742992D01*
X2834561Y1737726D01*
X2844734Y1735000D01*
X2855266D01*
X2865439Y1737726D01*
X2865570Y1737801D01*
X2890479Y1712892D01*
Y1694889D01*
X2885479Y1693549D01*
X2882008Y1699561D01*
X2874561Y1707008D01*
X2865439Y1712274D01*
X2855266Y1715000D01*
X2844734D01*
X2834561Y1712274D01*
X2825439Y1707008D01*
X2817992Y1699561D01*
X2812726Y1690439D01*
X2810000Y1680266D01*
Y1669734D01*
X2812726Y1659561D01*
X2817992Y1650439D01*
X2825439Y1642992D01*
X2834561Y1637726D01*
X2844734Y1635000D01*
X2850277D01*
X2869675Y1615602D01*
X2866605Y1611601D01*
X2865439Y1612274D01*
X2855266Y1615000D01*
X2844734D01*
X2834561Y1612274D01*
X2825439Y1607008D01*
X2817992Y1599561D01*
X2812726Y1590439D01*
X2810000Y1580266D01*
Y1569734D01*
X2812726Y1559561D01*
X2817992Y1550439D01*
X2825439Y1542992D01*
X2834561Y1537726D01*
X2844734Y1535000D01*
X2855266D01*
X2865439Y1537726D01*
X2874561Y1542992D01*
X2882008Y1550439D01*
X2885624Y1556702D01*
X2891653Y1557432D01*
X2899170Y1549915D01*
X2901578Y1546311D01*
X2919701Y1528188D01*
X2919972Y1528007D01*
Y1521993D01*
X2919701Y1521812D01*
X2901578Y1503689D01*
X2899170Y1500085D01*
X2891653Y1492568D01*
X2885624Y1493298D01*
X2882008Y1499561D01*
X2874561Y1507008D01*
X2865439Y1512274D01*
X2855266Y1515000D01*
X2844734D01*
X2834561Y1512274D01*
X2825439Y1507008D01*
X2817992Y1499561D01*
X2812726Y1490439D01*
X2810000Y1480266D01*
Y1469734D01*
X2812726Y1459561D01*
X2817992Y1450439D01*
X2825439Y1442992D01*
X2834561Y1437726D01*
X2844734Y1435000D01*
X2855266D01*
X2865439Y1437726D01*
X2866600Y1438396D01*
X2869670Y1434395D01*
X2850275Y1415000D01*
X2844734D01*
X2834561Y1412274D01*
X2825439Y1407008D01*
X2817992Y1399561D01*
X2812726Y1390439D01*
X2810000Y1380266D01*
Y1369734D01*
X2812726Y1359561D01*
X2817992Y1350439D01*
X2825439Y1342992D01*
X2834561Y1337726D01*
X2844734Y1335000D01*
X2855266D01*
X2865439Y1337726D01*
X2874561Y1342992D01*
X2882008Y1350439D01*
X2885479Y1356451D01*
X2890479Y1355111D01*
Y1337108D01*
X2865570Y1312199D01*
X2865439Y1312274D01*
X2855266Y1315000D01*
X2844734D01*
X2834561Y1312274D01*
X2825439Y1307008D01*
X2817992Y1299561D01*
X2812726Y1290439D01*
X2810000Y1280266D01*
Y1269734D01*
X2812726Y1259561D01*
X2817992Y1250439D01*
X2825439Y1242992D01*
X2834561Y1237726D01*
X2844734Y1235000D01*
X2855266D01*
X2865439Y1237726D01*
X2874561Y1242992D01*
X2882008Y1250439D01*
X2887274Y1259561D01*
X2890000Y1269734D01*
Y1280266D01*
X2887274Y1290439D01*
X2887199Y1290570D01*
X2905859Y1309230D01*
X2910479Y1307317D01*
Y1257108D01*
X2865570Y1212199D01*
X2865439Y1212274D01*
X2855266Y1215000D01*
X2844734D01*
X2834561Y1212274D01*
X2825439Y1207008D01*
X2817992Y1199561D01*
X2812726Y1190439D01*
X2810000Y1180266D01*
Y1169734D01*
X2812726Y1159561D01*
X2817992Y1150439D01*
X2825439Y1142992D01*
X2834561Y1137726D01*
X2844734Y1135000D01*
X2855266D01*
X2865439Y1137726D01*
X2874561Y1142992D01*
X2882008Y1150439D01*
X2887274Y1159561D01*
X2890000Y1169734D01*
Y1180266D01*
X2887274Y1190439D01*
X2887199Y1190570D01*
X2936587Y1239958D01*
X2939902Y1244920D01*
X2941066Y1250773D01*
Y1390152D01*
X2975084Y1424170D01*
X2978689Y1426578D01*
X2996812Y1444701D01*
X2996993Y1444973D01*
X3003007D01*
X3003188Y1444701D01*
X3021311Y1426578D01*
X3024916Y1424170D01*
X3058934Y1390152D01*
Y1250773D01*
X3060098Y1244920D01*
X3063413Y1239958D01*
X3112801Y1190570D01*
X3112726Y1190439D01*
X3110000Y1180266D01*
Y1169734D01*
X3112726Y1159561D01*
X3117992Y1150439D01*
X3125439Y1142992D01*
X3134561Y1137726D01*
X3144734Y1135000D01*
X3155266D01*
X3165439Y1137726D01*
X3174561Y1142992D01*
X3182008Y1150439D01*
X3187274Y1159561D01*
X3190000Y1169734D01*
Y1180266D01*
X3187274Y1190439D01*
X3182008Y1199561D01*
X3174561Y1207008D01*
X3165439Y1212274D01*
X3155266Y1215000D01*
X3144734D01*
X3134561Y1212274D01*
X3134430Y1212199D01*
X3089521Y1257108D01*
Y1307317D01*
X3094141Y1309230D01*
X3112801Y1290570D01*
X3112726Y1290439D01*
X3110000Y1280266D01*
Y1269734D01*
X3112726Y1259561D01*
X3117992Y1250439D01*
X3125439Y1242992D01*
X3134561Y1237726D01*
X3144734Y1235000D01*
X3155266D01*
X3165439Y1237726D01*
X3174561Y1242992D01*
X3182008Y1250439D01*
X3187274Y1259561D01*
X3190000Y1269734D01*
Y1280266D01*
X3187274Y1290439D01*
X3182008Y1299561D01*
X3174561Y1307008D01*
X3165439Y1312274D01*
X3155266Y1315000D01*
X3144734D01*
X3134561Y1312274D01*
X3134430Y1312199D01*
X3109521Y1337108D01*
Y1355111D01*
X3114521Y1356451D01*
X3117992Y1350439D01*
X3125439Y1342992D01*
X3134561Y1337726D01*
X3144734Y1335000D01*
X3145000D01*
Y1375000D01*
Y1419725D01*
X3130330Y1434395D01*
X3133400Y1438396D01*
X3134561Y1437726D01*
X3144734Y1435000D01*
X3155266D01*
X3165439Y1437726D01*
X3174561Y1442992D01*
X3182008Y1450439D01*
X3187274Y1459561D01*
X3190000Y1469734D01*
Y1480266D01*
X3187274Y1490439D01*
X3182008Y1499561D01*
X3174561Y1507008D01*
X3165439Y1512274D01*
X3155266Y1515000D01*
X3144734D01*
X3134561Y1512274D01*
X3125439Y1507008D01*
X3117992Y1499561D01*
X3114376Y1493298D01*
X3108347Y1492568D01*
X3100830Y1500085D01*
X3098422Y1503689D01*
X3080299Y1521812D01*
X3080027Y1521994D01*
Y1528007D01*
X3080301Y1528190D01*
X3098424Y1546313D01*
X3100832Y1549918D01*
X3108347Y1557432D01*
X3114376Y1556702D01*
X3117992Y1550439D01*
X3125439Y1542992D01*
X3134561Y1537726D01*
X3144734Y1535000D01*
X3155266D01*
X3165439Y1537726D01*
X3174561Y1542992D01*
X3182008Y1550439D01*
X3187274Y1559561D01*
X3190000Y1569734D01*
Y1580266D01*
X3187274Y1590439D01*
X3182008Y1599561D01*
X3174561Y1607008D01*
X3165439Y1612274D01*
X3155266Y1615000D01*
X3144734D01*
X3134561Y1612274D01*
X3133395Y1611601D01*
X3130325Y1615602D01*
X3149723Y1635000D01*
X3155266D01*
X3165439Y1637726D01*
X3174561Y1642992D01*
X3182008Y1650439D01*
X3187274Y1659561D01*
X3190000Y1669734D01*
Y1680266D01*
X3187274Y1690439D01*
X3182008Y1699561D01*
X3174561Y1707008D01*
X3165439Y1712274D01*
X3155266Y1715000D01*
X3144734D01*
X3134561Y1712274D01*
X3125439Y1707008D01*
X3117992Y1699561D01*
X3114521Y1693549D01*
X3109521Y1694889D01*
Y1712892D01*
X3134430Y1737801D01*
X3134561Y1737726D01*
X3144734Y1735000D01*
X3155266D01*
X3165439Y1737726D01*
X3174561Y1742992D01*
X3182008Y1750439D01*
X3187274Y1759561D01*
X3190000Y1769734D01*
Y1780266D01*
X3187274Y1790439D01*
X3182008Y1799561D01*
X3174561Y1807008D01*
X3165439Y1812274D01*
X3155266Y1815000D01*
X3144734D01*
X3134561Y1812274D01*
X3125439Y1807008D01*
X3117992Y1799561D01*
X3112726Y1790439D01*
X3110000Y1780266D01*
Y1769734D01*
X3112726Y1759561D01*
X3112801Y1759430D01*
X3094141Y1740770D01*
X3089521Y1742683D01*
Y1792892D01*
X3134430Y1837801D01*
X3134561Y1837726D01*
X3144734Y1835000D01*
X3155266D01*
X3165439Y1837726D01*
X3174561Y1842992D01*
X3182008Y1850439D01*
X3187274Y1859561D01*
X3190000Y1869734D01*
Y1880266D01*
X3187274Y1890439D01*
X3182008Y1899561D01*
X3174561Y1907008D01*
X3165439Y1912274D01*
X3155266Y1915000D01*
D02*
G37*
G36*
Y1415000D02*
X3155000D01*
Y1380000D01*
X3190000D01*
Y1380266D01*
X3187274Y1390439D01*
X3182008Y1399561D01*
X3174561Y1407008D01*
X3165439Y1412274D01*
X3155266Y1415000D01*
D02*
G37*
G36*
X3190000Y1370000D02*
X3155000D01*
Y1335000D01*
X3155266D01*
X3165439Y1337726D01*
X3174561Y1342992D01*
X3182008Y1350439D01*
X3187274Y1359561D01*
X3190000Y1369734D01*
Y1370000D01*
D02*
G37*
G36*
X2605266Y1915000D02*
X2594734D01*
X2584561Y1912274D01*
X2575439Y1907008D01*
X2567992Y1899561D01*
X2562726Y1890439D01*
X2560000Y1880266D01*
Y1869734D01*
X2562726Y1859561D01*
X2562801Y1859430D01*
X2513413Y1810042D01*
X2510098Y1805080D01*
X2508934Y1799227D01*
Y1659848D01*
X2474918Y1625832D01*
X2471313Y1623424D01*
X2453190Y1605301D01*
X2453007Y1605027D01*
X2446994D01*
X2446812Y1605299D01*
X2428689Y1623422D01*
X2425084Y1625830D01*
X2391066Y1659848D01*
Y1799227D01*
X2389902Y1805080D01*
X2386587Y1810042D01*
X2337199Y1859430D01*
X2337274Y1859561D01*
X2340000Y1869734D01*
Y1880266D01*
X2337274Y1890439D01*
X2332008Y1899561D01*
X2324561Y1907008D01*
X2315439Y1912274D01*
X2305266Y1915000D01*
X2294734D01*
X2284561Y1912274D01*
X2275439Y1907008D01*
X2267992Y1899561D01*
X2262726Y1890439D01*
X2260000Y1880266D01*
Y1869734D01*
X2262726Y1859561D01*
X2267992Y1850439D01*
X2275439Y1842992D01*
X2284561Y1837726D01*
X2294734Y1835000D01*
X2305266D01*
X2315439Y1837726D01*
X2315570Y1837801D01*
X2360479Y1792892D01*
Y1742683D01*
X2355859Y1740770D01*
X2337199Y1759430D01*
X2337274Y1759561D01*
X2340000Y1769734D01*
Y1780266D01*
X2337274Y1790439D01*
X2332008Y1799561D01*
X2324561Y1807008D01*
X2315439Y1812274D01*
X2305266Y1815000D01*
X2294734D01*
X2284561Y1812274D01*
X2275439Y1807008D01*
X2267992Y1799561D01*
X2262726Y1790439D01*
X2260000Y1780266D01*
Y1769734D01*
X2262726Y1759561D01*
X2267992Y1750439D01*
X2275439Y1742992D01*
X2284561Y1737726D01*
X2294734Y1735000D01*
X2305266D01*
X2315439Y1737726D01*
X2315570Y1737801D01*
X2340479Y1712892D01*
Y1694889D01*
X2335479Y1693549D01*
X2332008Y1699561D01*
X2324561Y1707008D01*
X2315439Y1712274D01*
X2305266Y1715000D01*
X2294734D01*
X2284561Y1712274D01*
X2275439Y1707008D01*
X2267992Y1699561D01*
X2262726Y1690439D01*
X2260000Y1680266D01*
Y1669734D01*
X2262726Y1659561D01*
X2267992Y1650439D01*
X2275439Y1642992D01*
X2284561Y1637726D01*
X2294734Y1635000D01*
X2300277D01*
X2319675Y1615602D01*
X2316605Y1611601D01*
X2315439Y1612274D01*
X2305266Y1615000D01*
X2294734D01*
X2284561Y1612274D01*
X2275439Y1607008D01*
X2267992Y1599561D01*
X2262726Y1590439D01*
X2260000Y1580266D01*
Y1569734D01*
X2262726Y1559561D01*
X2267992Y1550439D01*
X2275439Y1542992D01*
X2284561Y1537726D01*
X2294734Y1535000D01*
X2305266D01*
X2315439Y1537726D01*
X2324561Y1542992D01*
X2332008Y1550439D01*
X2335624Y1556702D01*
X2341653Y1557432D01*
X2349170Y1549915D01*
X2351578Y1546311D01*
X2369701Y1528188D01*
X2369972Y1528007D01*
Y1521993D01*
X2369701Y1521812D01*
X2351578Y1503689D01*
X2349170Y1500085D01*
X2341653Y1492568D01*
X2335624Y1493298D01*
X2332008Y1499561D01*
X2324561Y1507008D01*
X2315439Y1512274D01*
X2305266Y1515000D01*
X2294734D01*
X2284561Y1512274D01*
X2275439Y1507008D01*
X2267992Y1499561D01*
X2262726Y1490439D01*
X2260000Y1480266D01*
Y1469734D01*
X2262726Y1459561D01*
X2267992Y1450439D01*
X2275439Y1442992D01*
X2284561Y1437726D01*
X2294734Y1435000D01*
X2305266D01*
X2315439Y1437726D01*
X2316600Y1438396D01*
X2319670Y1434395D01*
X2300275Y1415000D01*
X2294734D01*
X2284561Y1412274D01*
X2275439Y1407008D01*
X2267992Y1399561D01*
X2262726Y1390439D01*
X2260000Y1380266D01*
Y1369734D01*
X2262726Y1359561D01*
X2267992Y1350439D01*
X2275439Y1342992D01*
X2284561Y1337726D01*
X2294734Y1335000D01*
X2305266D01*
X2315439Y1337726D01*
X2324561Y1342992D01*
X2332008Y1350439D01*
X2335479Y1356451D01*
X2340479Y1355111D01*
Y1337108D01*
X2315570Y1312199D01*
X2315439Y1312274D01*
X2305266Y1315000D01*
X2294734D01*
X2284561Y1312274D01*
X2275439Y1307008D01*
X2267992Y1299561D01*
X2262726Y1290439D01*
X2260000Y1280266D01*
Y1269734D01*
X2262726Y1259561D01*
X2267992Y1250439D01*
X2275439Y1242992D01*
X2284561Y1237726D01*
X2294734Y1235000D01*
X2305266D01*
X2315439Y1237726D01*
X2324561Y1242992D01*
X2332008Y1250439D01*
X2337274Y1259561D01*
X2340000Y1269734D01*
Y1280266D01*
X2337274Y1290439D01*
X2337199Y1290570D01*
X2355859Y1309230D01*
X2360479Y1307317D01*
Y1257108D01*
X2315570Y1212199D01*
X2315439Y1212274D01*
X2305266Y1215000D01*
X2294734D01*
X2284561Y1212274D01*
X2275439Y1207008D01*
X2267992Y1199561D01*
X2262726Y1190439D01*
X2260000Y1180266D01*
Y1169734D01*
X2262726Y1159561D01*
X2267992Y1150439D01*
X2275439Y1142992D01*
X2284561Y1137726D01*
X2294734Y1135000D01*
X2305266D01*
X2315439Y1137726D01*
X2324561Y1142992D01*
X2332008Y1150439D01*
X2337274Y1159561D01*
X2340000Y1169734D01*
Y1180266D01*
X2337274Y1190439D01*
X2337199Y1190570D01*
X2386587Y1239958D01*
X2389902Y1244920D01*
X2391066Y1250773D01*
Y1390152D01*
X2425084Y1424170D01*
X2428689Y1426578D01*
X2446812Y1444701D01*
X2446993Y1444973D01*
X2453007D01*
X2453188Y1444701D01*
X2471311Y1426578D01*
X2474916Y1424170D01*
X2508934Y1390152D01*
Y1250773D01*
X2510098Y1244920D01*
X2513413Y1239958D01*
X2562801Y1190570D01*
X2562726Y1190439D01*
X2560000Y1180266D01*
Y1169734D01*
X2562726Y1159561D01*
X2567992Y1150439D01*
X2575439Y1142992D01*
X2584561Y1137726D01*
X2594734Y1135000D01*
X2605266D01*
X2615439Y1137726D01*
X2624561Y1142992D01*
X2632008Y1150439D01*
X2637274Y1159561D01*
X2640000Y1169734D01*
Y1180266D01*
X2637274Y1190439D01*
X2632008Y1199561D01*
X2624561Y1207008D01*
X2615439Y1212274D01*
X2605266Y1215000D01*
X2594734D01*
X2584561Y1212274D01*
X2584430Y1212199D01*
X2539521Y1257108D01*
Y1307317D01*
X2544141Y1309230D01*
X2562801Y1290570D01*
X2562726Y1290439D01*
X2560000Y1280266D01*
Y1269734D01*
X2562726Y1259561D01*
X2567992Y1250439D01*
X2575439Y1242992D01*
X2584561Y1237726D01*
X2594734Y1235000D01*
X2605266D01*
X2615439Y1237726D01*
X2624561Y1242992D01*
X2632008Y1250439D01*
X2637274Y1259561D01*
X2640000Y1269734D01*
Y1280266D01*
X2637274Y1290439D01*
X2632008Y1299561D01*
X2624561Y1307008D01*
X2615439Y1312274D01*
X2605266Y1315000D01*
X2594734D01*
X2584561Y1312274D01*
X2584430Y1312199D01*
X2559521Y1337108D01*
Y1355111D01*
X2564521Y1356451D01*
X2567992Y1350439D01*
X2575439Y1342992D01*
X2584561Y1337726D01*
X2594734Y1335000D01*
X2595000D01*
Y1375000D01*
Y1419725D01*
X2580330Y1434395D01*
X2583400Y1438396D01*
X2584561Y1437726D01*
X2594734Y1435000D01*
X2605266D01*
X2615439Y1437726D01*
X2624561Y1442992D01*
X2632008Y1450439D01*
X2637274Y1459561D01*
X2640000Y1469734D01*
Y1480266D01*
X2637274Y1490439D01*
X2632008Y1499561D01*
X2624561Y1507008D01*
X2615439Y1512274D01*
X2605266Y1515000D01*
X2594734D01*
X2584561Y1512274D01*
X2575439Y1507008D01*
X2567992Y1499561D01*
X2564376Y1493298D01*
X2558347Y1492568D01*
X2550830Y1500085D01*
X2548422Y1503689D01*
X2530299Y1521812D01*
X2530027Y1521994D01*
Y1528007D01*
X2530301Y1528190D01*
X2548424Y1546313D01*
X2550832Y1549918D01*
X2558347Y1557432D01*
X2564376Y1556702D01*
X2567992Y1550439D01*
X2575439Y1542992D01*
X2584561Y1537726D01*
X2594734Y1535000D01*
X2605266D01*
X2615439Y1537726D01*
X2624561Y1542992D01*
X2632008Y1550439D01*
X2637274Y1559561D01*
X2640000Y1569734D01*
Y1580266D01*
X2637274Y1590439D01*
X2632008Y1599561D01*
X2624561Y1607008D01*
X2615439Y1612274D01*
X2605266Y1615000D01*
X2594734D01*
X2584561Y1612274D01*
X2583395Y1611601D01*
X2580325Y1615602D01*
X2599723Y1635000D01*
X2605266D01*
X2615439Y1637726D01*
X2624561Y1642992D01*
X2632008Y1650439D01*
X2637274Y1659561D01*
X2640000Y1669734D01*
Y1680266D01*
X2637274Y1690439D01*
X2632008Y1699561D01*
X2624561Y1707008D01*
X2615439Y1712274D01*
X2605266Y1715000D01*
X2594734D01*
X2584561Y1712274D01*
X2575439Y1707008D01*
X2567992Y1699561D01*
X2564521Y1693549D01*
X2559521Y1694889D01*
Y1712892D01*
X2584430Y1737801D01*
X2584561Y1737726D01*
X2594734Y1735000D01*
X2605266D01*
X2615439Y1737726D01*
X2624561Y1742992D01*
X2632008Y1750439D01*
X2637274Y1759561D01*
X2640000Y1769734D01*
Y1780266D01*
X2637274Y1790439D01*
X2632008Y1799561D01*
X2624561Y1807008D01*
X2615439Y1812274D01*
X2605266Y1815000D01*
X2594734D01*
X2584561Y1812274D01*
X2575439Y1807008D01*
X2567992Y1799561D01*
X2562726Y1790439D01*
X2560000Y1780266D01*
Y1769734D01*
X2562726Y1759561D01*
X2562801Y1759430D01*
X2544141Y1740770D01*
X2539521Y1742683D01*
Y1792892D01*
X2584430Y1837801D01*
X2584561Y1837726D01*
X2594734Y1835000D01*
X2605266D01*
X2615439Y1837726D01*
X2624561Y1842992D01*
X2632008Y1850439D01*
X2637274Y1859561D01*
X2640000Y1869734D01*
Y1880266D01*
X2637274Y1890439D01*
X2632008Y1899561D01*
X2624561Y1907008D01*
X2615439Y1912274D01*
X2605266Y1915000D01*
D02*
G37*
G36*
Y1415000D02*
X2605000D01*
Y1380000D01*
X2640000D01*
Y1380266D01*
X2637274Y1390439D01*
X2632008Y1399561D01*
X2624561Y1407008D01*
X2615439Y1412274D01*
X2605266Y1415000D01*
D02*
G37*
G36*
X2640000Y1370000D02*
X2605000D01*
Y1335000D01*
X2605266D01*
X2615439Y1337726D01*
X2624561Y1342992D01*
X2632008Y1350439D01*
X2637274Y1359561D01*
X2640000Y1369734D01*
Y1370000D01*
D02*
G37*
G36*
X2055266Y1915000D02*
X2044734D01*
X2034561Y1912274D01*
X2025439Y1907008D01*
X2017992Y1899561D01*
X2012726Y1890439D01*
X2010000Y1880266D01*
Y1869734D01*
X2012726Y1859561D01*
X2012801Y1859430D01*
X1963413Y1810042D01*
X1960098Y1805080D01*
X1958934Y1799227D01*
Y1659848D01*
X1924918Y1625832D01*
X1921313Y1623424D01*
X1903190Y1605301D01*
X1903007Y1605027D01*
X1896994D01*
X1896812Y1605299D01*
X1878689Y1623422D01*
X1875084Y1625830D01*
X1841066Y1659848D01*
Y1799227D01*
X1839902Y1805080D01*
X1836587Y1810042D01*
X1787199Y1859430D01*
X1787274Y1859561D01*
X1790000Y1869734D01*
Y1880266D01*
X1787274Y1890439D01*
X1782008Y1899561D01*
X1774561Y1907008D01*
X1765439Y1912274D01*
X1755266Y1915000D01*
X1744734D01*
X1734561Y1912274D01*
X1725439Y1907008D01*
X1717992Y1899561D01*
X1712726Y1890439D01*
X1710000Y1880266D01*
Y1869734D01*
X1712726Y1859561D01*
X1717992Y1850439D01*
X1725439Y1842992D01*
X1734561Y1837726D01*
X1744734Y1835000D01*
X1755266D01*
X1765439Y1837726D01*
X1765570Y1837801D01*
X1810479Y1792892D01*
Y1742683D01*
X1805859Y1740770D01*
X1787199Y1759430D01*
X1787274Y1759561D01*
X1790000Y1769734D01*
Y1780266D01*
X1787274Y1790439D01*
X1782008Y1799561D01*
X1774561Y1807008D01*
X1765439Y1812274D01*
X1755266Y1815000D01*
X1744734D01*
X1734561Y1812274D01*
X1725439Y1807008D01*
X1717992Y1799561D01*
X1712726Y1790439D01*
X1710000Y1780266D01*
Y1769734D01*
X1712726Y1759561D01*
X1717992Y1750439D01*
X1725439Y1742992D01*
X1734561Y1737726D01*
X1744734Y1735000D01*
X1755266D01*
X1765439Y1737726D01*
X1765570Y1737801D01*
X1790479Y1712892D01*
Y1694889D01*
X1785479Y1693549D01*
X1782008Y1699561D01*
X1774561Y1707008D01*
X1765439Y1712274D01*
X1755266Y1715000D01*
X1744734D01*
X1734561Y1712274D01*
X1725439Y1707008D01*
X1717992Y1699561D01*
X1712726Y1690439D01*
X1710000Y1680266D01*
Y1669734D01*
X1712726Y1659561D01*
X1717992Y1650439D01*
X1725439Y1642992D01*
X1734561Y1637726D01*
X1744734Y1635000D01*
X1750277D01*
X1769675Y1615602D01*
X1766605Y1611601D01*
X1765439Y1612274D01*
X1755266Y1615000D01*
X1744734D01*
X1734561Y1612274D01*
X1725439Y1607008D01*
X1717992Y1599561D01*
X1712726Y1590439D01*
X1710000Y1580266D01*
Y1569734D01*
X1712726Y1559561D01*
X1717992Y1550439D01*
X1725439Y1542992D01*
X1734561Y1537726D01*
X1744734Y1535000D01*
X1755266D01*
X1765439Y1537726D01*
X1774561Y1542992D01*
X1782008Y1550439D01*
X1785623Y1556702D01*
X1791653Y1557432D01*
X1799170Y1549915D01*
X1801578Y1546311D01*
X1819701Y1528188D01*
X1819973Y1528007D01*
Y1521993D01*
X1819701Y1521812D01*
X1801578Y1503689D01*
X1799170Y1500085D01*
X1791653Y1492568D01*
X1785623Y1493298D01*
X1782008Y1499561D01*
X1774561Y1507008D01*
X1765439Y1512274D01*
X1755266Y1515000D01*
X1744734D01*
X1734561Y1512274D01*
X1725439Y1507008D01*
X1717992Y1499561D01*
X1712726Y1490439D01*
X1710000Y1480266D01*
Y1469734D01*
X1712726Y1459561D01*
X1717992Y1450439D01*
X1725439Y1442992D01*
X1734561Y1437726D01*
X1744734Y1435000D01*
X1755266D01*
X1765439Y1437726D01*
X1766600Y1438396D01*
X1769670Y1434395D01*
X1750275Y1415000D01*
X1744734D01*
X1734561Y1412274D01*
X1725439Y1407008D01*
X1717992Y1399561D01*
X1712726Y1390439D01*
X1710000Y1380266D01*
Y1369734D01*
X1712726Y1359561D01*
X1717992Y1350439D01*
X1725439Y1342992D01*
X1734561Y1337726D01*
X1744734Y1335000D01*
X1755266D01*
X1765439Y1337726D01*
X1774561Y1342992D01*
X1782008Y1350439D01*
X1785479Y1356451D01*
X1790479Y1355111D01*
Y1337108D01*
X1765570Y1312199D01*
X1765439Y1312274D01*
X1755266Y1315000D01*
X1744734D01*
X1734561Y1312274D01*
X1725439Y1307008D01*
X1717992Y1299561D01*
X1712726Y1290439D01*
X1710000Y1280266D01*
Y1269734D01*
X1712726Y1259561D01*
X1717992Y1250439D01*
X1725439Y1242992D01*
X1734561Y1237726D01*
X1744734Y1235000D01*
X1755266D01*
X1765439Y1237726D01*
X1774561Y1242992D01*
X1782008Y1250439D01*
X1787274Y1259561D01*
X1790000Y1269734D01*
Y1280266D01*
X1787274Y1290439D01*
X1787199Y1290570D01*
X1805859Y1309230D01*
X1810479Y1307317D01*
Y1257108D01*
X1765570Y1212199D01*
X1765439Y1212274D01*
X1755266Y1215000D01*
X1744734D01*
X1734561Y1212274D01*
X1725439Y1207008D01*
X1717992Y1199561D01*
X1712726Y1190439D01*
X1710000Y1180266D01*
Y1169734D01*
X1712726Y1159561D01*
X1717992Y1150439D01*
X1725439Y1142992D01*
X1734561Y1137726D01*
X1744734Y1135000D01*
X1755266D01*
X1765439Y1137726D01*
X1774561Y1142992D01*
X1782008Y1150439D01*
X1787274Y1159561D01*
X1790000Y1169734D01*
Y1180266D01*
X1787274Y1190439D01*
X1787199Y1190570D01*
X1836587Y1239958D01*
X1839902Y1244920D01*
X1841066Y1250773D01*
Y1390152D01*
X1875084Y1424170D01*
X1878689Y1426578D01*
X1896812Y1444701D01*
X1896993Y1444973D01*
X1903007D01*
X1903188Y1444701D01*
X1921311Y1426578D01*
X1924916Y1424170D01*
X1958934Y1390152D01*
Y1250773D01*
X1960098Y1244920D01*
X1963413Y1239958D01*
X2012801Y1190570D01*
X2012726Y1190439D01*
X2010000Y1180266D01*
Y1169734D01*
X2012726Y1159561D01*
X2017992Y1150439D01*
X2025439Y1142992D01*
X2034561Y1137726D01*
X2044734Y1135000D01*
X2055266D01*
X2065439Y1137726D01*
X2074561Y1142992D01*
X2082008Y1150439D01*
X2087274Y1159561D01*
X2090000Y1169734D01*
Y1180266D01*
X2087274Y1190439D01*
X2082008Y1199561D01*
X2074561Y1207008D01*
X2065439Y1212274D01*
X2055266Y1215000D01*
X2044734D01*
X2034561Y1212274D01*
X2034430Y1212199D01*
X1989521Y1257108D01*
Y1307317D01*
X1994141Y1309230D01*
X2012801Y1290570D01*
X2012726Y1290439D01*
X2010000Y1280266D01*
Y1269734D01*
X2012726Y1259561D01*
X2017992Y1250439D01*
X2025439Y1242992D01*
X2034561Y1237726D01*
X2044734Y1235000D01*
X2055266D01*
X2065439Y1237726D01*
X2074561Y1242992D01*
X2082008Y1250439D01*
X2087274Y1259561D01*
X2090000Y1269734D01*
Y1280266D01*
X2087274Y1290439D01*
X2082008Y1299561D01*
X2074561Y1307008D01*
X2065439Y1312274D01*
X2055266Y1315000D01*
X2044734D01*
X2034561Y1312274D01*
X2034430Y1312199D01*
X2009521Y1337108D01*
Y1355111D01*
X2014521Y1356451D01*
X2017992Y1350439D01*
X2025439Y1342992D01*
X2034561Y1337726D01*
X2044734Y1335000D01*
X2045000D01*
Y1375000D01*
Y1419725D01*
X2030330Y1434395D01*
X2033400Y1438396D01*
X2034561Y1437726D01*
X2044734Y1435000D01*
X2055266D01*
X2065439Y1437726D01*
X2074561Y1442992D01*
X2082008Y1450439D01*
X2087274Y1459561D01*
X2090000Y1469734D01*
Y1480266D01*
X2087274Y1490439D01*
X2082008Y1499561D01*
X2074561Y1507008D01*
X2065439Y1512274D01*
X2055266Y1515000D01*
X2044734D01*
X2034561Y1512274D01*
X2025439Y1507008D01*
X2017992Y1499561D01*
X2014377Y1493298D01*
X2008347Y1492568D01*
X2000830Y1500085D01*
X1998422Y1503689D01*
X1980299Y1521812D01*
X1980027Y1521994D01*
Y1528007D01*
X1980301Y1528190D01*
X1998424Y1546313D01*
X2000832Y1549918D01*
X2008347Y1557432D01*
X2014377Y1556702D01*
X2017992Y1550439D01*
X2025439Y1542992D01*
X2034561Y1537726D01*
X2044734Y1535000D01*
X2055266D01*
X2065439Y1537726D01*
X2074561Y1542992D01*
X2082008Y1550439D01*
X2087274Y1559561D01*
X2090000Y1569734D01*
Y1580266D01*
X2087274Y1590439D01*
X2082008Y1599561D01*
X2074561Y1607008D01*
X2065439Y1612274D01*
X2055266Y1615000D01*
X2044734D01*
X2034561Y1612274D01*
X2033395Y1611601D01*
X2030325Y1615602D01*
X2049723Y1635000D01*
X2055266D01*
X2065439Y1637726D01*
X2074561Y1642992D01*
X2082008Y1650439D01*
X2087274Y1659561D01*
X2090000Y1669734D01*
Y1680266D01*
X2087274Y1690439D01*
X2082008Y1699561D01*
X2074561Y1707008D01*
X2065439Y1712274D01*
X2055266Y1715000D01*
X2044734D01*
X2034561Y1712274D01*
X2025439Y1707008D01*
X2017992Y1699561D01*
X2014521Y1693549D01*
X2009521Y1694889D01*
Y1712892D01*
X2034430Y1737801D01*
X2034561Y1737726D01*
X2044734Y1735000D01*
X2055266D01*
X2065439Y1737726D01*
X2074561Y1742992D01*
X2082008Y1750439D01*
X2087274Y1759561D01*
X2090000Y1769734D01*
Y1780266D01*
X2087274Y1790439D01*
X2082008Y1799561D01*
X2074561Y1807008D01*
X2065439Y1812274D01*
X2055266Y1815000D01*
X2044734D01*
X2034561Y1812274D01*
X2025439Y1807008D01*
X2017992Y1799561D01*
X2012726Y1790439D01*
X2010000Y1780266D01*
Y1769734D01*
X2012726Y1759561D01*
X2012801Y1759430D01*
X1994141Y1740770D01*
X1989521Y1742683D01*
Y1792892D01*
X2034430Y1837801D01*
X2034561Y1837726D01*
X2044734Y1835000D01*
X2055266D01*
X2065439Y1837726D01*
X2074561Y1842992D01*
X2082008Y1850439D01*
X2087274Y1859561D01*
X2090000Y1869734D01*
Y1880266D01*
X2087274Y1890439D01*
X2082008Y1899561D01*
X2074561Y1907008D01*
X2065439Y1912274D01*
X2055266Y1915000D01*
D02*
G37*
G36*
Y1415000D02*
X2055000D01*
Y1380000D01*
X2090000D01*
Y1380266D01*
X2087274Y1390439D01*
X2082008Y1399561D01*
X2074561Y1407008D01*
X2065439Y1412274D01*
X2055266Y1415000D01*
D02*
G37*
G36*
X2090000Y1370000D02*
X2055000D01*
Y1335000D01*
X2055266D01*
X2065439Y1337726D01*
X2074561Y1342992D01*
X2082008Y1350439D01*
X2087274Y1359561D01*
X2090000Y1369734D01*
Y1370000D01*
D02*
G37*
G36*
X1505266Y1915000D02*
X1494734D01*
X1484561Y1912274D01*
X1475439Y1907008D01*
X1467992Y1899561D01*
X1462726Y1890439D01*
X1460000Y1880266D01*
Y1869734D01*
X1462726Y1859561D01*
X1462801Y1859430D01*
X1413413Y1810042D01*
X1410098Y1805080D01*
X1408934Y1799227D01*
Y1659848D01*
X1374918Y1625832D01*
X1371313Y1623424D01*
X1353190Y1605301D01*
X1353007Y1605027D01*
X1346994D01*
X1346812Y1605299D01*
X1328689Y1623422D01*
X1325084Y1625830D01*
X1291066Y1659848D01*
Y1799227D01*
X1289902Y1805080D01*
X1286587Y1810042D01*
X1237199Y1859430D01*
X1237274Y1859561D01*
X1240000Y1869734D01*
Y1880266D01*
X1237274Y1890439D01*
X1232008Y1899561D01*
X1224561Y1907008D01*
X1215439Y1912274D01*
X1205266Y1915000D01*
X1194734D01*
X1184561Y1912274D01*
X1175439Y1907008D01*
X1167992Y1899561D01*
X1162726Y1890439D01*
X1160000Y1880266D01*
Y1869734D01*
X1162726Y1859561D01*
X1167992Y1850439D01*
X1175439Y1842992D01*
X1184561Y1837726D01*
X1194734Y1835000D01*
X1205266D01*
X1215439Y1837726D01*
X1215570Y1837801D01*
X1260479Y1792892D01*
Y1742683D01*
X1255859Y1740770D01*
X1237199Y1759430D01*
X1237274Y1759561D01*
X1240000Y1769734D01*
Y1780266D01*
X1237274Y1790439D01*
X1232008Y1799561D01*
X1224561Y1807008D01*
X1215439Y1812274D01*
X1205266Y1815000D01*
X1194734D01*
X1184561Y1812274D01*
X1175439Y1807008D01*
X1167992Y1799561D01*
X1162726Y1790439D01*
X1160000Y1780266D01*
Y1769734D01*
X1162726Y1759561D01*
X1167992Y1750439D01*
X1175439Y1742992D01*
X1184561Y1737726D01*
X1194734Y1735000D01*
X1205266D01*
X1215439Y1737726D01*
X1215570Y1737801D01*
X1240479Y1712892D01*
Y1694889D01*
X1235479Y1693549D01*
X1232008Y1699561D01*
X1224561Y1707008D01*
X1215439Y1712274D01*
X1205266Y1715000D01*
X1194734D01*
X1184561Y1712274D01*
X1175439Y1707008D01*
X1167992Y1699561D01*
X1162726Y1690439D01*
X1160000Y1680266D01*
Y1669734D01*
X1162726Y1659561D01*
X1167992Y1650439D01*
X1175439Y1642992D01*
X1184561Y1637726D01*
X1194734Y1635000D01*
X1200277D01*
X1219675Y1615602D01*
X1216605Y1611601D01*
X1215439Y1612274D01*
X1205266Y1615000D01*
X1194734D01*
X1184561Y1612274D01*
X1175439Y1607008D01*
X1167992Y1599561D01*
X1162726Y1590439D01*
X1160000Y1580266D01*
Y1569734D01*
X1162726Y1559561D01*
X1167992Y1550439D01*
X1175439Y1542992D01*
X1184561Y1537726D01*
X1194734Y1535000D01*
X1205266D01*
X1215439Y1537726D01*
X1224561Y1542992D01*
X1232008Y1550439D01*
X1235623Y1556702D01*
X1241653Y1557432D01*
X1249170Y1549915D01*
X1251578Y1546311D01*
X1269701Y1528188D01*
X1269973Y1528007D01*
Y1521993D01*
X1269701Y1521812D01*
X1251578Y1503689D01*
X1249170Y1500085D01*
X1241653Y1492568D01*
X1235623Y1493298D01*
X1232008Y1499561D01*
X1224561Y1507008D01*
X1215439Y1512274D01*
X1205266Y1515000D01*
X1194734D01*
X1184561Y1512274D01*
X1175439Y1507008D01*
X1167992Y1499561D01*
X1162726Y1490439D01*
X1160000Y1480266D01*
Y1469734D01*
X1162726Y1459561D01*
X1167992Y1450439D01*
X1175439Y1442992D01*
X1184561Y1437726D01*
X1194734Y1435000D01*
X1205266D01*
X1215439Y1437726D01*
X1216600Y1438396D01*
X1219670Y1434395D01*
X1200275Y1415000D01*
X1194734D01*
X1184561Y1412274D01*
X1175439Y1407008D01*
X1167992Y1399561D01*
X1162726Y1390439D01*
X1160000Y1380266D01*
Y1369734D01*
X1162726Y1359561D01*
X1167992Y1350439D01*
X1175439Y1342992D01*
X1184561Y1337726D01*
X1194734Y1335000D01*
X1205266D01*
X1215439Y1337726D01*
X1224561Y1342992D01*
X1232008Y1350439D01*
X1235479Y1356451D01*
X1240479Y1355111D01*
Y1337108D01*
X1215570Y1312199D01*
X1215439Y1312274D01*
X1205266Y1315000D01*
X1194734D01*
X1184561Y1312274D01*
X1175439Y1307008D01*
X1167992Y1299561D01*
X1162726Y1290439D01*
X1160000Y1280266D01*
Y1269734D01*
X1162726Y1259561D01*
X1167992Y1250439D01*
X1175439Y1242992D01*
X1184561Y1237726D01*
X1194734Y1235000D01*
X1205266D01*
X1215439Y1237726D01*
X1224561Y1242992D01*
X1232008Y1250439D01*
X1237274Y1259561D01*
X1240000Y1269734D01*
Y1280266D01*
X1237274Y1290439D01*
X1237199Y1290570D01*
X1255859Y1309230D01*
X1260479Y1307317D01*
Y1257108D01*
X1215570Y1212199D01*
X1215439Y1212274D01*
X1205266Y1215000D01*
X1194734D01*
X1184561Y1212274D01*
X1175439Y1207008D01*
X1167992Y1199561D01*
X1162726Y1190439D01*
X1160000Y1180266D01*
Y1169734D01*
X1162726Y1159561D01*
X1167992Y1150439D01*
X1175439Y1142992D01*
X1184561Y1137726D01*
X1194734Y1135000D01*
X1205266D01*
X1215439Y1137726D01*
X1224561Y1142992D01*
X1232008Y1150439D01*
X1237274Y1159561D01*
X1240000Y1169734D01*
Y1180266D01*
X1237274Y1190439D01*
X1237199Y1190570D01*
X1286587Y1239958D01*
X1289902Y1244920D01*
X1291066Y1250773D01*
Y1390152D01*
X1325084Y1424170D01*
X1328689Y1426578D01*
X1346812Y1444701D01*
X1346993Y1444973D01*
X1353007D01*
X1353188Y1444701D01*
X1371311Y1426578D01*
X1374916Y1424170D01*
X1408934Y1390152D01*
Y1250773D01*
X1410098Y1244920D01*
X1413413Y1239958D01*
X1462801Y1190570D01*
X1462726Y1190439D01*
X1460000Y1180266D01*
Y1169734D01*
X1462726Y1159561D01*
X1467992Y1150439D01*
X1475439Y1142992D01*
X1484561Y1137726D01*
X1494734Y1135000D01*
X1505266D01*
X1515439Y1137726D01*
X1524561Y1142992D01*
X1532008Y1150439D01*
X1537274Y1159561D01*
X1540000Y1169734D01*
Y1180266D01*
X1537274Y1190439D01*
X1532008Y1199561D01*
X1524561Y1207008D01*
X1515439Y1212274D01*
X1505266Y1215000D01*
X1494734D01*
X1484561Y1212274D01*
X1484430Y1212199D01*
X1439521Y1257108D01*
Y1307317D01*
X1444141Y1309230D01*
X1462801Y1290570D01*
X1462726Y1290439D01*
X1460000Y1280266D01*
Y1269734D01*
X1462726Y1259561D01*
X1467992Y1250439D01*
X1475439Y1242992D01*
X1484561Y1237726D01*
X1494734Y1235000D01*
X1505266D01*
X1515439Y1237726D01*
X1524561Y1242992D01*
X1532008Y1250439D01*
X1537274Y1259561D01*
X1540000Y1269734D01*
Y1280266D01*
X1537274Y1290439D01*
X1532008Y1299561D01*
X1524561Y1307008D01*
X1515439Y1312274D01*
X1505266Y1315000D01*
X1494734D01*
X1484561Y1312274D01*
X1484430Y1312199D01*
X1459521Y1337108D01*
Y1355111D01*
X1464521Y1356451D01*
X1467992Y1350439D01*
X1475439Y1342992D01*
X1484561Y1337726D01*
X1494734Y1335000D01*
X1495000D01*
Y1375000D01*
Y1419725D01*
X1480330Y1434395D01*
X1483400Y1438396D01*
X1484561Y1437726D01*
X1494734Y1435000D01*
X1505266D01*
X1515439Y1437726D01*
X1524561Y1442992D01*
X1532008Y1450439D01*
X1537274Y1459561D01*
X1540000Y1469734D01*
Y1480266D01*
X1537274Y1490439D01*
X1532008Y1499561D01*
X1524561Y1507008D01*
X1515439Y1512274D01*
X1505266Y1515000D01*
X1494734D01*
X1484561Y1512274D01*
X1475439Y1507008D01*
X1467992Y1499561D01*
X1464377Y1493298D01*
X1458347Y1492568D01*
X1450830Y1500085D01*
X1448422Y1503689D01*
X1430299Y1521812D01*
X1430027Y1521994D01*
Y1528007D01*
X1430301Y1528190D01*
X1448424Y1546313D01*
X1450832Y1549918D01*
X1458347Y1557432D01*
X1464377Y1556702D01*
X1467992Y1550439D01*
X1475439Y1542992D01*
X1484561Y1537726D01*
X1494734Y1535000D01*
X1505266D01*
X1515439Y1537726D01*
X1524561Y1542992D01*
X1532008Y1550439D01*
X1537274Y1559561D01*
X1540000Y1569734D01*
Y1580266D01*
X1537274Y1590439D01*
X1532008Y1599561D01*
X1524561Y1607008D01*
X1515439Y1612274D01*
X1505266Y1615000D01*
X1494734D01*
X1484561Y1612274D01*
X1483395Y1611601D01*
X1480325Y1615602D01*
X1499723Y1635000D01*
X1505266D01*
X1515439Y1637726D01*
X1524561Y1642992D01*
X1532008Y1650439D01*
X1537274Y1659561D01*
X1540000Y1669734D01*
Y1680266D01*
X1537274Y1690439D01*
X1532008Y1699561D01*
X1524561Y1707008D01*
X1515439Y1712274D01*
X1505266Y1715000D01*
X1494734D01*
X1484561Y1712274D01*
X1475439Y1707008D01*
X1467992Y1699561D01*
X1464521Y1693549D01*
X1459521Y1694889D01*
Y1712892D01*
X1484430Y1737801D01*
X1484561Y1737726D01*
X1494734Y1735000D01*
X1505266D01*
X1515439Y1737726D01*
X1524561Y1742992D01*
X1532008Y1750439D01*
X1537274Y1759561D01*
X1540000Y1769734D01*
Y1780266D01*
X1537274Y1790439D01*
X1532008Y1799561D01*
X1524561Y1807008D01*
X1515439Y1812274D01*
X1505266Y1815000D01*
X1494734D01*
X1484561Y1812274D01*
X1475439Y1807008D01*
X1467992Y1799561D01*
X1462726Y1790439D01*
X1460000Y1780266D01*
Y1769734D01*
X1462726Y1759561D01*
X1462801Y1759430D01*
X1444141Y1740770D01*
X1439521Y1742683D01*
Y1792892D01*
X1484430Y1837801D01*
X1484561Y1837726D01*
X1494734Y1835000D01*
X1505266D01*
X1515439Y1837726D01*
X1524561Y1842992D01*
X1532008Y1850439D01*
X1537274Y1859561D01*
X1540000Y1869734D01*
Y1880266D01*
X1537274Y1890439D01*
X1532008Y1899561D01*
X1524561Y1907008D01*
X1515439Y1912274D01*
X1505266Y1915000D01*
D02*
G37*
G36*
Y1415000D02*
X1505000D01*
Y1380000D01*
X1540000D01*
Y1380266D01*
X1537274Y1390439D01*
X1532008Y1399561D01*
X1524561Y1407008D01*
X1515439Y1412274D01*
X1505266Y1415000D01*
D02*
G37*
G36*
X1540000Y1370000D02*
X1505000D01*
Y1335000D01*
X1505266D01*
X1515439Y1337726D01*
X1524561Y1342992D01*
X1532008Y1350439D01*
X1537274Y1359561D01*
X1540000Y1369734D01*
Y1370000D01*
D02*
G37*
%LPD*%
D10*
X1350000Y1525000D02*
D03*
X1900000D02*
D03*
X2450000D02*
D03*
X3000000D02*
D03*
X3550000D02*
D03*
Y2925000D02*
D03*
X3000000D02*
D03*
X2450000D02*
D03*
X1900000D02*
D03*
X1350000D02*
D03*
D11*
X1326338Y1447052D02*
D03*
X1308242Y1465148D02*
D03*
X1409854Y1566760D02*
D03*
X1427950Y1548664D02*
D03*
X1373664Y1602950D02*
D03*
X1391758Y1584856D02*
D03*
X1272052Y1501338D02*
D03*
X1290146Y1483242D02*
D03*
X1840146D02*
D03*
X1858242Y1465148D02*
D03*
X1876338Y1447052D02*
D03*
X1941758Y1584856D02*
D03*
X1959854Y1566760D02*
D03*
X1977950Y1548664D02*
D03*
X1923664Y1602950D02*
D03*
X1822052Y1501338D02*
D03*
X2390146Y1483242D02*
D03*
X2408242Y1465148D02*
D03*
X2426338Y1447052D02*
D03*
X2509854Y1566760D02*
D03*
X2527950Y1548664D02*
D03*
X2473664Y1602950D02*
D03*
X2491758Y1584856D02*
D03*
X2372052Y1501338D02*
D03*
X2940146Y1483242D02*
D03*
X2958242Y1465148D02*
D03*
X2976338Y1447052D02*
D03*
X3041758Y1584856D02*
D03*
X3059854Y1566760D02*
D03*
X3077950Y1548664D02*
D03*
X3023664Y1602950D02*
D03*
X2922052Y1501338D02*
D03*
X3490146Y1483242D02*
D03*
X3508242Y1465148D02*
D03*
X3526338Y1447052D02*
D03*
X3609854Y1566760D02*
D03*
X3627950Y1548664D02*
D03*
X3573664Y1602950D02*
D03*
X3591758Y1584856D02*
D03*
X3472052Y1501338D02*
D03*
X3526338Y2847052D02*
D03*
X3508242Y2865148D02*
D03*
X3609854Y2966760D02*
D03*
X3627950Y2948664D02*
D03*
X3573664Y3002950D02*
D03*
X3591758Y2984856D02*
D03*
X3472052Y2901338D02*
D03*
X3490146Y2883242D02*
D03*
X3023664Y3002950D02*
D03*
X3041758Y2984856D02*
D03*
X3059854Y2966760D02*
D03*
X3077950Y2948664D02*
D03*
X2922052Y2901338D02*
D03*
X2940146Y2883242D02*
D03*
X2958242Y2865148D02*
D03*
X2976338Y2847052D02*
D03*
X2527950Y2948664D02*
D03*
X2509854Y2966760D02*
D03*
X2473664Y3002950D02*
D03*
X2491758Y2984856D02*
D03*
X2426338Y2847052D02*
D03*
X2408242Y2865148D02*
D03*
X2372052Y2901338D02*
D03*
X2390146Y2883242D02*
D03*
X1923664Y3002950D02*
D03*
X1941758Y2984856D02*
D03*
X1959854Y2966760D02*
D03*
X1977950Y2948664D02*
D03*
X1822052Y2901338D02*
D03*
X1840146Y2883242D02*
D03*
X1858242Y2865148D02*
D03*
X1876338Y2847052D02*
D03*
X1427950Y2948664D02*
D03*
X1409854Y2966760D02*
D03*
X1373664Y3002950D02*
D03*
X1391758Y2984856D02*
D03*
X1326338Y2847052D02*
D03*
X1308242Y2865148D02*
D03*
X1272052Y2901338D02*
D03*
X1290146Y2883242D02*
D03*
D12*
X1409854Y1483242D02*
D03*
X1427948Y1501338D02*
D03*
X1326338Y1602948D02*
D03*
X1308242Y1584854D02*
D03*
X1391758Y1465148D02*
D03*
X1373662Y1447052D02*
D03*
X1272052Y1548662D02*
D03*
X1290148Y1566758D02*
D03*
X1822052Y1548662D02*
D03*
X1840148Y1566758D02*
D03*
X1858242Y1584854D02*
D03*
X1941758Y1465148D02*
D03*
X1959854Y1483242D02*
D03*
X1923662Y1447052D02*
D03*
X1977948Y1501338D02*
D03*
X1876338Y1602948D02*
D03*
X2372052Y1548662D02*
D03*
X2390148Y1566758D02*
D03*
X2491758Y1465148D02*
D03*
X2473662Y1447052D02*
D03*
X2509854Y1483242D02*
D03*
X2527948Y1501338D02*
D03*
X2426338Y1602948D02*
D03*
X2408242Y1584854D02*
D03*
X2958242D02*
D03*
X2940148Y1566758D02*
D03*
X2922052Y1548662D02*
D03*
X3041758Y1465148D02*
D03*
X3059854Y1483242D02*
D03*
X3023662Y1447052D02*
D03*
X3077948Y1501338D02*
D03*
X2976338Y1602948D02*
D03*
X3472052Y1548662D02*
D03*
X3490148Y1566758D02*
D03*
X3591758Y1465148D02*
D03*
X3573662Y1447052D02*
D03*
X3609854Y1483242D02*
D03*
X3627948Y1501338D02*
D03*
X3526338Y1602948D02*
D03*
X3508242Y1584854D02*
D03*
X3609854Y2883242D02*
D03*
X3627948Y2901338D02*
D03*
X3526338Y3002948D02*
D03*
X3508242Y2984854D02*
D03*
X3591758Y2865148D02*
D03*
X3573662Y2847052D02*
D03*
X3472052Y2948662D02*
D03*
X3490148Y2966758D02*
D03*
X3077948Y2901338D02*
D03*
X3059854Y2883242D02*
D03*
X3041758Y2865148D02*
D03*
X3023662Y2847052D02*
D03*
X2922052Y2948662D02*
D03*
X2940148Y2966758D02*
D03*
X2958242Y2984854D02*
D03*
X2976338Y3002948D02*
D03*
X2527948Y2901338D02*
D03*
X2509854Y2883242D02*
D03*
X2408242Y2984854D02*
D03*
X2491758Y2865148D02*
D03*
X2473662Y2847052D02*
D03*
X2372052Y2948662D02*
D03*
X2390148Y2966758D02*
D03*
X2426338Y3002948D02*
D03*
X1977948Y2901338D02*
D03*
X1959854Y2883242D02*
D03*
X1941758Y2865148D02*
D03*
X1923662Y2847052D02*
D03*
X1822052Y2948662D02*
D03*
X1840148Y2966758D02*
D03*
X1858242Y2984854D02*
D03*
X1876338Y3002948D02*
D03*
X1427948Y2901338D02*
D03*
X1409854Y2883242D02*
D03*
X1308242Y2984854D02*
D03*
X1391758Y2865148D02*
D03*
X1373662Y2847052D02*
D03*
X1272052Y2948662D02*
D03*
X1290148Y2966758D02*
D03*
X1326338Y3002948D02*
D03*
D13*
X1200000Y1175000D02*
X1275773Y1250773D01*
Y1396487D01*
X1326338Y1447052D01*
X1308242Y1465148D02*
X1255773Y1412679D01*
Y1330773D01*
X1200000Y1275000D01*
Y1375000D02*
X1209567Y1384567D01*
Y1402663D01*
X1290146Y1483242D01*
X1245714Y1475000D02*
X1272052Y1501338D01*
Y1548662D02*
X1245714Y1575000D01*
X1200000D01*
X1290148Y1566758D02*
X1209567Y1647339D01*
Y1665433D01*
X1200000Y1675000D01*
X1255773Y1637323D02*
X1308242Y1584854D01*
X1391758Y1584856D02*
X1444227Y1637325D01*
Y1719227D01*
X1500000Y1775000D01*
Y1675000D02*
X1490433Y1665433D01*
Y1647339D01*
X1409854Y1566760D01*
X1427950Y1548664D02*
X1454286Y1575000D01*
X1500000D01*
Y1475000D02*
X1454286D01*
X1427948Y1501338D01*
X1409854Y1483242D02*
X1490433Y1402663D01*
Y1384567D01*
X1500000Y1375000D01*
Y1275000D02*
X1444227Y1330773D01*
Y1412679D01*
X1391758Y1465148D01*
X1373662Y1447052D02*
X1424227Y1396487D01*
Y1250773D01*
X1500000Y1175000D01*
X1750000D02*
X1825773Y1250773D01*
Y1396487D01*
X1876338Y1447052D01*
X1858242Y1465148D02*
X1805773Y1412679D01*
Y1330773D01*
X1750000Y1275000D01*
Y1375000D02*
X1759567Y1384567D01*
Y1402663D01*
X1840146Y1483242D01*
X1974227Y1396487D02*
Y1250773D01*
X2050000Y1175000D01*
Y1275000D02*
X1994227Y1330773D01*
Y1412679D01*
X1941758Y1465148D01*
X1959854Y1483242D02*
X2040433Y1402663D01*
Y1384567D01*
X2050000Y1375000D01*
Y1475000D02*
X2004286D01*
X1977948Y1501338D01*
X1977950Y1548664D02*
X2004286Y1575000D01*
X2050000D01*
X2040433Y1647339D02*
Y1665433D01*
X2050000Y1675000D01*
X2040433Y1647339D02*
X1959854Y1566760D01*
X1941758Y1584856D02*
X1994227Y1637325D01*
Y1719227D01*
X2050000Y1775000D01*
Y1875000D02*
X1974227Y1799227D01*
Y1653513D01*
X1923664Y1602950D01*
X1918096Y1525000D02*
X1959854Y1483242D01*
X1923662Y1447052D02*
X1974227Y1396487D01*
X1918096Y1525000D02*
X1900000D01*
X1876338Y1602948D02*
X1825773Y1653513D01*
Y1799227D01*
X1750000Y1875000D01*
Y1775000D02*
X1805773Y1719227D01*
Y1637323D01*
X1858242Y1584854D01*
X1840148Y1566758D02*
X1759567Y1647339D01*
Y1665433D01*
X1750000Y1675000D01*
Y1575000D02*
X1795714D01*
X1822052Y1548662D01*
Y1501338D02*
X1795714Y1475000D01*
X1750000D01*
X1424227Y1799227D02*
X1500000Y1875000D01*
X1424227Y1799227D02*
Y1653513D01*
X1373664Y1602950D01*
X1326338Y1602948D02*
X1275773Y1653513D01*
Y1799227D01*
X1200000Y1875000D01*
Y1775000D02*
X1255773Y1719227D01*
Y1637323D01*
X1350000Y1525000D02*
X1368096D01*
X1409854Y1483242D01*
X1245714Y1475000D02*
X1200000D01*
X2300000Y1175000D02*
X2375773Y1250773D01*
Y1396487D01*
X2426338Y1447052D01*
X2408242Y1465148D02*
X2355773Y1412679D01*
Y1330773D01*
X2300000Y1275000D01*
Y1375000D02*
X2309567Y1384567D01*
Y1402663D01*
X2390146Y1483242D01*
X2345714Y1475000D02*
X2372052Y1501338D01*
Y1548662D02*
X2345714Y1575000D01*
X2300000D01*
X2390148Y1566758D02*
X2309567Y1647339D01*
Y1665433D01*
X2300000Y1675000D01*
X2355773Y1637323D02*
X2408242Y1584854D01*
X2491758Y1584856D02*
X2544227Y1637325D01*
Y1719227D01*
X2600000Y1775000D01*
Y1675000D02*
X2590433Y1665433D01*
Y1647339D01*
X2509854Y1566760D01*
X2527950Y1548664D02*
X2554286Y1575000D01*
X2600000D01*
Y1475000D02*
X2554286D01*
X2527948Y1501338D01*
X2509854Y1483242D02*
X2590433Y1402663D01*
Y1384567D01*
X2600000Y1375000D01*
Y1275000D02*
X2544227Y1330773D01*
Y1412679D01*
X2491758Y1465148D01*
X2473662Y1447052D02*
X2524227Y1396487D01*
Y1250773D01*
X2600000Y1175000D01*
X2850000D02*
X2925773Y1250773D01*
Y1396487D01*
X2976338Y1447052D01*
X2958242Y1465148D02*
X2905773Y1412679D01*
Y1330773D01*
X2850000Y1275000D01*
Y1375000D02*
X2859567Y1384567D01*
Y1402663D01*
X2940146Y1483242D01*
X3074227Y1396487D02*
Y1250773D01*
X3150000Y1175000D01*
Y1275000D02*
X3094227Y1330773D01*
Y1412679D01*
X3041758Y1465148D01*
X3059854Y1483242D02*
X3140433Y1402663D01*
Y1384567D01*
X3150000Y1375000D01*
Y1475000D02*
X3104286D01*
X3077948Y1501338D01*
X3077950Y1548664D02*
X3104286Y1575000D01*
X3150000D01*
X3140433Y1647339D02*
Y1665433D01*
X3150000Y1675000D01*
X3140433Y1647339D02*
X3059854Y1566760D01*
X3041758Y1584856D02*
X3094227Y1637325D01*
Y1719227D01*
X3150000Y1775000D01*
Y1875000D02*
X3074227Y1799227D01*
Y1653513D01*
X3023664Y1602950D01*
X3018096Y1525000D02*
X3059854Y1483242D01*
X3023662Y1447052D02*
X3074227Y1396487D01*
X3018096Y1525000D02*
X3000000D01*
X2976338Y1602948D02*
X2925773Y1653513D01*
Y1799227D01*
X2850000Y1875000D01*
Y1775000D02*
X2905773Y1719227D01*
Y1637323D01*
X2958242Y1584854D01*
X2940148Y1566758D02*
X2859567Y1647339D01*
Y1665433D01*
X2850000Y1675000D01*
Y1575000D02*
X2895714D01*
X2922052Y1548662D01*
Y1501338D02*
X2895714Y1475000D01*
X2850000D01*
X2524227Y1799227D02*
X2600000Y1875000D01*
X2524227Y1799227D02*
Y1653513D01*
X2473664Y1602950D01*
X2426338Y1602948D02*
X2375773Y1653513D01*
Y1799227D01*
X2300000Y1875000D01*
Y1775000D02*
X2355773Y1719227D01*
Y1637323D01*
X2450000Y1525000D02*
X2468096D01*
X2509854Y1483242D01*
X2345714Y1475000D02*
X2300000D01*
X3400000Y1175000D02*
X3475773Y1250773D01*
Y1396487D01*
X3526338Y1447052D01*
X3508242Y1465148D02*
X3455773Y1412679D01*
Y1330773D01*
X3400000Y1275000D01*
Y1375000D02*
X3409567Y1384567D01*
Y1402663D01*
X3490146Y1483242D01*
X3445714Y1475000D02*
X3472052Y1501338D01*
Y1548662D02*
X3445714Y1575000D01*
X3400000D01*
X3490148Y1566758D02*
X3409567Y1647339D01*
Y1665433D01*
X3400000Y1675000D01*
X3455773Y1637323D02*
X3508242Y1584854D01*
X3591758Y1584856D02*
X3644227Y1637325D01*
Y1719227D01*
X3700000Y1775000D01*
Y1675000D02*
X3690433Y1665433D01*
Y1647339D01*
X3609854Y1566760D01*
X3627950Y1548664D02*
X3654286Y1575000D01*
X3700000D01*
Y1475000D02*
X3654286D01*
X3627948Y1501338D01*
X3609854Y1483242D02*
X3690433Y1402663D01*
Y1384567D01*
X3700000Y1375000D01*
Y1275000D02*
X3644227Y1330773D01*
Y1412679D01*
X3591758Y1465148D01*
X3573662Y1447052D02*
X3624227Y1396487D01*
Y1250773D01*
X3700000Y1175000D01*
X3609854Y1483242D02*
X3568096Y1525000D01*
X3550000D01*
X3624227Y1653513D02*
Y1799227D01*
X3700000Y1875000D01*
X3624227Y1653513D02*
X3573664Y1602950D01*
X3526338Y1602948D02*
X3475773Y1653513D01*
Y1799227D01*
X3400000Y1875000D01*
Y1775000D02*
X3455773Y1719227D01*
Y1637323D01*
X3445714Y1475000D02*
X3400000D01*
X3700000Y2575000D02*
X3624227Y2650773D01*
Y2796487D01*
X3573662Y2847052D01*
X3591758Y2865148D02*
X3644227Y2812679D01*
Y2730773D01*
X3700000Y2675000D01*
Y2775000D02*
X3690433Y2784567D01*
Y2802663D01*
X3609854Y2883242D01*
X3568096Y2925000D01*
X3550000D01*
X3508242Y2984854D02*
X3455773Y3037323D01*
Y3119227D01*
X3400000Y3175000D01*
X3475773Y3199227D02*
X3400000Y3275000D01*
X3475773Y3199227D02*
Y3053513D01*
X3526338Y3002948D01*
X3573664Y3002950D02*
X3624227Y3053513D01*
Y3199227D01*
X3700000Y3275000D01*
Y3175000D02*
X3644227Y3119227D01*
Y3037325D01*
X3591758Y2984856D01*
X3526338Y2847052D02*
X3475773Y2796487D01*
Y2650773D01*
X3400000Y2575000D01*
Y2675000D02*
X3455773Y2730773D01*
Y2812679D01*
X3508242Y2865148D01*
X3654286Y2875000D02*
X3700000D01*
Y2975000D02*
X3654286D01*
X3627950Y2948664D01*
X3609854Y2966760D02*
X3690433Y3047339D01*
Y3065433D01*
X3700000Y3075000D01*
X3627948Y2901338D02*
X3654286Y2875000D01*
X3409567Y3047339D02*
X3490148Y2966758D01*
X3472052Y2948662D02*
X3445714Y2975000D01*
X3400000D01*
X3472052Y2901338D02*
X3445714Y2875000D01*
X3400000D01*
X3409567Y2802663D02*
X3490146Y2883242D01*
X3409567Y2802663D02*
Y2784567D01*
X3400000Y2775000D01*
X3409567Y3047339D02*
Y3065433D01*
X3400000Y3075000D01*
X3150000Y3275000D02*
X3074227Y3199227D01*
Y3053513D01*
X3023664Y3002950D01*
X3094227Y3037325D02*
Y3119227D01*
X3150000Y3175000D01*
Y3075000D02*
X3140433Y3065433D01*
Y3047339D01*
X3059854Y2966760D01*
X3041758Y2984856D02*
X3094227Y3037325D01*
X3077950Y2948664D02*
X3104286Y2975000D01*
X3150000D01*
Y2875000D02*
X3104286D01*
X3077948Y2901338D01*
X3018096Y2925000D02*
X3059854Y2883242D01*
X3140433Y2802663D01*
Y2784567D01*
X3150000Y2775000D01*
Y2675000D02*
X3094227Y2730773D01*
Y2812679D01*
X3041758Y2865148D01*
X3023662Y2847052D02*
X3074227Y2796487D01*
Y2650773D01*
X3150000Y2575000D01*
X2905773Y2730773D02*
Y2812679D01*
X2958242Y2865148D01*
X2940146Y2883242D02*
X2859567Y2802663D01*
Y2784567D01*
X2850000Y2775000D01*
Y2675000D02*
X2905773Y2730773D01*
X2925773Y2796487D02*
X2976338Y2847052D01*
X2925773Y2796487D02*
Y2650773D01*
X2850000Y2575000D01*
X2600000Y2775000D02*
X2590433Y2784567D01*
Y2802663D01*
X2509854Y2883242D01*
X2468096Y2925000D01*
X2450000D01*
X2408242Y2984854D02*
X2355773Y3037323D01*
Y3119227D01*
X2300000Y3175000D01*
X2375773Y3199227D02*
X2300000Y3275000D01*
X2375773Y3199227D02*
Y3053513D01*
X2426338Y3002948D01*
X2473664Y3002950D02*
X2524227Y3053513D01*
Y3199227D01*
X2600000Y3275000D01*
Y3175000D02*
X2544227Y3119227D01*
Y3037325D01*
X2491758Y2984856D01*
Y2865148D02*
X2544227Y2812679D01*
Y2730773D01*
X2600000Y2675000D01*
Y2575000D02*
X2524227Y2650773D01*
Y2796487D01*
X2473662Y2847052D01*
X2426338D02*
X2375773Y2796487D01*
Y2650773D01*
X2300000Y2575000D01*
Y2675000D02*
X2355773Y2730773D01*
Y2812679D01*
X2408242Y2865148D01*
X2554286Y2875000D02*
X2600000D01*
Y2975000D02*
X2554286D01*
X2527950Y2948664D01*
X2509854Y2966760D02*
X2590433Y3047339D01*
Y3065433D01*
X2600000Y3075000D01*
X2527948Y2901338D02*
X2554286Y2875000D01*
X2309567Y3047339D02*
X2390148Y2966758D01*
X2372052Y2948662D02*
X2345714Y2975000D01*
X2300000D01*
X2372052Y2901338D02*
X2345714Y2875000D01*
X2300000D01*
X2309567Y2802663D02*
X2390146Y2883242D01*
X2309567Y2802663D02*
Y2784567D01*
X2300000Y2775000D01*
X2309567Y3047339D02*
Y3065433D01*
X2300000Y3075000D01*
X2050000Y3275000D02*
X1974227Y3199227D01*
Y3053513D01*
X1923664Y3002950D01*
X1994227Y3037325D02*
Y3119227D01*
X2050000Y3175000D01*
Y3075000D02*
X2040433Y3065433D01*
Y3047339D01*
X1959854Y2966760D01*
X1941758Y2984856D02*
X1994227Y3037325D01*
X1977950Y2948664D02*
X2004286Y2975000D01*
X2050000D01*
Y2875000D02*
X2004286D01*
X1977948Y2901338D01*
X1918096Y2925000D02*
X1959854Y2883242D01*
X2040433Y2802663D01*
Y2784567D01*
X2050000Y2775000D01*
Y2675000D02*
X1994227Y2730773D01*
Y2812679D01*
X1941758Y2865148D01*
X1923662Y2847052D02*
X1974227Y2796487D01*
Y2650773D01*
X2050000Y2575000D01*
X1805773Y2730773D02*
Y2812679D01*
X1858242Y2865148D01*
X1840146Y2883242D02*
X1759567Y2802663D01*
Y2784567D01*
X1750000Y2775000D01*
Y2675000D02*
X1805773Y2730773D01*
X1825773Y2796487D02*
X1876338Y2847052D01*
X1825773Y2796487D02*
Y2650773D01*
X1750000Y2575000D01*
X1500000Y2775000D02*
X1490433Y2784567D01*
Y2802663D01*
X1409854Y2883242D01*
X1368096Y2925000D01*
X1350000D01*
X1308242Y2984854D02*
X1255773Y3037323D01*
Y3119227D01*
X1200000Y3175000D01*
X1275773Y3199227D02*
X1200000Y3275000D01*
X1275773Y3199227D02*
Y3053513D01*
X1326338Y3002948D01*
X1373664Y3002950D02*
X1424227Y3053513D01*
Y3199227D01*
X1500000Y3275000D01*
Y3175000D02*
X1444227Y3119227D01*
Y3037325D01*
X1391758Y2984856D01*
Y2865148D02*
X1444227Y2812679D01*
Y2730773D01*
X1500000Y2675000D01*
Y2575000D02*
X1424227Y2650773D01*
Y2796487D01*
X1373662Y2847052D01*
X1326338D02*
X1275773Y2796487D01*
Y2650773D01*
X1200000Y2575000D01*
Y2675000D02*
X1255773Y2730773D01*
Y2812679D01*
X1308242Y2865148D01*
X1454286Y2875000D02*
X1500000D01*
Y2975000D02*
X1454286D01*
X1427950Y2948664D01*
X1409854Y2966760D02*
X1490433Y3047339D01*
Y3065433D01*
X1500000Y3075000D01*
X1427948Y2901338D02*
X1454286Y2875000D01*
X1209567Y3047339D02*
X1290148Y2966758D01*
X1272052Y2948662D02*
X1245714Y2975000D01*
X1200000D01*
X1272052Y2901338D02*
X1245714Y2875000D01*
X1200000D01*
X1209567Y2802663D02*
X1290146Y2883242D01*
X1209567Y2802663D02*
Y2784567D01*
X1200000Y2775000D01*
X1209567Y3047339D02*
Y3065433D01*
X1200000Y3075000D01*
X1750000Y2875000D02*
X1795714D01*
X1822052Y2901338D01*
Y2948662D02*
X1795714Y2975000D01*
X1750000D01*
X1840148Y2966758D02*
X1759567Y3047339D01*
Y3065433D01*
X1750000Y3075000D01*
X1858242Y2984854D02*
X1805773Y3037323D01*
Y3119227D01*
X1750000Y3175000D01*
X1825773Y3053513D02*
X1876338Y3002948D01*
X1825773Y3053513D02*
Y3199227D01*
X1750000Y3275000D01*
X1900000Y2925000D02*
X1918096D01*
X2850000Y2875000D02*
X2895714D01*
X2922052Y2901338D01*
Y2948662D02*
X2895714Y2975000D01*
X2850000D01*
X2940148Y2966758D02*
X2859567Y3047339D01*
Y3065433D01*
X2850000Y3075000D01*
X2958242Y2984854D02*
X2905773Y3037323D01*
Y3119227D01*
X2850000Y3175000D01*
X2925773Y3053513D02*
X2976338Y3002948D01*
X2925773Y3053513D02*
Y3199227D01*
X2850000Y3275000D01*
X3000000Y2925000D02*
X3018096D01*
D14*
X1200000Y1055000D02*
D03*
X1230000D02*
D03*
X1260000D02*
D03*
X1290000D02*
D03*
X1320000D02*
D03*
X1350000D02*
D03*
X1380000D02*
D03*
X1410000D02*
D03*
X1440000D02*
D03*
X1470000D02*
D03*
X1500000D02*
D03*
Y1115000D02*
D03*
X1470000D02*
D03*
X1440000D02*
D03*
X1410000D02*
D03*
X1380000D02*
D03*
X1350000D02*
D03*
X1320000D02*
D03*
X1290000D02*
D03*
X1260000D02*
D03*
X1230000D02*
D03*
X1200000D02*
D03*
X1327730Y1502730D02*
D03*
X1372272D02*
D03*
Y1547272D02*
D03*
X1327730D02*
D03*
X1750000Y1115000D02*
D03*
X1780000D02*
D03*
Y1055000D02*
D03*
X1750000D02*
D03*
X1810000D02*
D03*
X1840000D02*
D03*
X1870000D02*
D03*
X1900000D02*
D03*
X1930000D02*
D03*
X1960000D02*
D03*
X1990000D02*
D03*
X2020000D02*
D03*
X2050000D02*
D03*
Y1115000D02*
D03*
X2020000D02*
D03*
X1990000D02*
D03*
X1960000D02*
D03*
X1930000D02*
D03*
X1900000D02*
D03*
X1870000D02*
D03*
X1840000D02*
D03*
X1810000D02*
D03*
X1922272Y1502730D02*
D03*
Y1547272D02*
D03*
X1877730D02*
D03*
Y1502730D02*
D03*
X2020000Y1935000D02*
D03*
X2050000D02*
D03*
Y1995000D02*
D03*
X2020000D02*
D03*
X1990000D02*
D03*
X1960000D02*
D03*
X1930000D02*
D03*
X1900000D02*
D03*
Y1935000D02*
D03*
X1930000D02*
D03*
X1960000D02*
D03*
X1990000D02*
D03*
X1870000D02*
D03*
X1840000D02*
D03*
X1810000D02*
D03*
Y1995000D02*
D03*
X1840000D02*
D03*
X1870000D02*
D03*
X1780000D02*
D03*
X1750000D02*
D03*
Y1935000D02*
D03*
X1780000D02*
D03*
X1500000D02*
D03*
Y1995000D02*
D03*
X1470000D02*
D03*
X1440000D02*
D03*
X1410000D02*
D03*
Y1935000D02*
D03*
X1440000D02*
D03*
X1470000D02*
D03*
X1380000D02*
D03*
X1350000D02*
D03*
X1320000D02*
D03*
Y1995000D02*
D03*
X1350000D02*
D03*
X1380000D02*
D03*
X1290000D02*
D03*
X1260000D02*
D03*
X1230000D02*
D03*
X1200000D02*
D03*
Y1935000D02*
D03*
X1230000D02*
D03*
X1260000D02*
D03*
X1290000D02*
D03*
X1750000Y2455000D02*
D03*
X1780000D02*
D03*
X1810000D02*
D03*
X1840000D02*
D03*
X1870000D02*
D03*
X1900000D02*
D03*
X1930000D02*
D03*
X1960000D02*
D03*
X1990000D02*
D03*
X2020000D02*
D03*
X2050000D02*
D03*
Y2515000D02*
D03*
X2020000D02*
D03*
X1990000D02*
D03*
X1960000D02*
D03*
X1930000D02*
D03*
X1900000D02*
D03*
X1870000D02*
D03*
X1840000D02*
D03*
X1810000D02*
D03*
X1780000D02*
D03*
X1750000D02*
D03*
X1500000D02*
D03*
Y2455000D02*
D03*
X1470000Y2515000D02*
D03*
X1440000D02*
D03*
X1410000D02*
D03*
Y2455000D02*
D03*
X1440000D02*
D03*
X1470000D02*
D03*
X1380000Y2515000D02*
D03*
X1350000D02*
D03*
X1320000D02*
D03*
Y2455000D02*
D03*
X1350000D02*
D03*
X1380000D02*
D03*
X1290000Y2515000D02*
D03*
X1260000D02*
D03*
X1230000D02*
D03*
X1200000D02*
D03*
Y2455000D02*
D03*
X1230000D02*
D03*
X1260000D02*
D03*
X1290000D02*
D03*
X1327730Y2902730D02*
D03*
X1372272D02*
D03*
Y2947272D02*
D03*
X1327730D02*
D03*
X1750000Y3335000D02*
D03*
X1780000D02*
D03*
Y3395000D02*
D03*
X1750000D02*
D03*
X1810000D02*
D03*
X1840000D02*
D03*
X1870000D02*
D03*
Y3335000D02*
D03*
X1840000D02*
D03*
X1810000D02*
D03*
X1900000D02*
D03*
X1930000D02*
D03*
X1960000D02*
D03*
X1990000D02*
D03*
Y3395000D02*
D03*
X1960000D02*
D03*
X1930000D02*
D03*
X1900000D02*
D03*
X2020000D02*
D03*
X2050000D02*
D03*
Y3335000D02*
D03*
X2020000D02*
D03*
X2300000D02*
D03*
X2330000D02*
D03*
X2360000D02*
D03*
X2390000D02*
D03*
Y3395000D02*
D03*
X2360000D02*
D03*
X2330000D02*
D03*
X2300000D02*
D03*
X2420000D02*
D03*
X2450000D02*
D03*
X2480000D02*
D03*
Y3335000D02*
D03*
X2450000D02*
D03*
X2420000D02*
D03*
X2510000D02*
D03*
X2540000D02*
D03*
X2570000D02*
D03*
Y3395000D02*
D03*
X2540000D02*
D03*
X2510000D02*
D03*
X2600000D02*
D03*
Y3335000D02*
D03*
X2850000D02*
D03*
X2880000D02*
D03*
Y3395000D02*
D03*
X2850000D02*
D03*
X2910000D02*
D03*
X2940000D02*
D03*
X2970000D02*
D03*
Y3335000D02*
D03*
X2940000D02*
D03*
X2910000D02*
D03*
X3000000D02*
D03*
X3030000D02*
D03*
X3060000D02*
D03*
X3090000D02*
D03*
Y3395000D02*
D03*
X3060000D02*
D03*
X3030000D02*
D03*
X3000000D02*
D03*
X3120000D02*
D03*
X3150000D02*
D03*
Y3335000D02*
D03*
X3120000D02*
D03*
X3400000D02*
D03*
X3430000D02*
D03*
X3460000D02*
D03*
X3490000D02*
D03*
Y3395000D02*
D03*
X3460000D02*
D03*
X3430000D02*
D03*
X3400000D02*
D03*
X3520000D02*
D03*
X3550000D02*
D03*
X3580000D02*
D03*
Y3335000D02*
D03*
X3550000D02*
D03*
X3520000D02*
D03*
X3610000D02*
D03*
X3640000D02*
D03*
X3670000D02*
D03*
Y3395000D02*
D03*
X3640000D02*
D03*
X3610000D02*
D03*
X3700000D02*
D03*
Y3335000D02*
D03*
X3572272Y2947272D02*
D03*
Y2902730D02*
D03*
X3527730D02*
D03*
Y2947272D02*
D03*
X3490000Y2515000D02*
D03*
X3460000D02*
D03*
X3430000D02*
D03*
X3400000D02*
D03*
Y2455000D02*
D03*
X3430000D02*
D03*
X3460000D02*
D03*
X3490000D02*
D03*
X3520000D02*
D03*
X3550000D02*
D03*
X3580000D02*
D03*
X3610000D02*
D03*
X3640000D02*
D03*
X3670000D02*
D03*
X3700000D02*
D03*
Y2515000D02*
D03*
X3670000D02*
D03*
X3640000D02*
D03*
X3610000D02*
D03*
X3580000D02*
D03*
X3550000D02*
D03*
X3520000D02*
D03*
X3150000D02*
D03*
X3120000D02*
D03*
Y2455000D02*
D03*
X3150000D02*
D03*
X3090000Y2515000D02*
D03*
X3060000D02*
D03*
X3030000D02*
D03*
X3000000D02*
D03*
Y2455000D02*
D03*
X3030000D02*
D03*
X3060000D02*
D03*
X3090000D02*
D03*
X2970000Y2515000D02*
D03*
X2940000D02*
D03*
X2910000D02*
D03*
Y2455000D02*
D03*
X2940000D02*
D03*
X2970000D02*
D03*
X2880000Y2515000D02*
D03*
X2850000D02*
D03*
Y2455000D02*
D03*
X2880000D02*
D03*
X2600000Y2515000D02*
D03*
Y2455000D02*
D03*
X2570000Y2515000D02*
D03*
X2540000D02*
D03*
X2510000D02*
D03*
Y2455000D02*
D03*
X2540000D02*
D03*
X2570000D02*
D03*
X2480000Y2515000D02*
D03*
X2450000D02*
D03*
X2420000D02*
D03*
Y2455000D02*
D03*
X2450000D02*
D03*
X2480000D02*
D03*
X2390000Y2515000D02*
D03*
X2360000D02*
D03*
X2330000D02*
D03*
X2300000D02*
D03*
Y2455000D02*
D03*
X2330000D02*
D03*
X2360000D02*
D03*
X2390000D02*
D03*
Y1995000D02*
D03*
X2360000D02*
D03*
X2330000D02*
D03*
X2300000D02*
D03*
Y1935000D02*
D03*
X2330000D02*
D03*
X2360000D02*
D03*
X2390000D02*
D03*
X2420000D02*
D03*
X2450000D02*
D03*
X2480000D02*
D03*
Y1995000D02*
D03*
X2450000D02*
D03*
X2420000D02*
D03*
X2510000D02*
D03*
X2540000D02*
D03*
X2570000D02*
D03*
Y1935000D02*
D03*
X2540000D02*
D03*
X2510000D02*
D03*
X2600000D02*
D03*
Y1995000D02*
D03*
X2850000D02*
D03*
X2880000D02*
D03*
Y1935000D02*
D03*
X2850000D02*
D03*
X2910000D02*
D03*
X2940000D02*
D03*
X2970000D02*
D03*
Y1995000D02*
D03*
X2940000D02*
D03*
X2910000D02*
D03*
X3000000D02*
D03*
X3030000D02*
D03*
X3060000D02*
D03*
X3090000D02*
D03*
Y1935000D02*
D03*
X3060000D02*
D03*
X3030000D02*
D03*
X3000000D02*
D03*
X3120000D02*
D03*
X3150000D02*
D03*
Y1995000D02*
D03*
X3120000D02*
D03*
X3400000D02*
D03*
X3430000D02*
D03*
X3460000D02*
D03*
X3490000D02*
D03*
Y1935000D02*
D03*
X3460000D02*
D03*
X3430000D02*
D03*
X3400000D02*
D03*
X3520000D02*
D03*
X3550000D02*
D03*
X3580000D02*
D03*
Y1995000D02*
D03*
X3550000D02*
D03*
X3520000D02*
D03*
X3610000D02*
D03*
X3640000D02*
D03*
X3670000D02*
D03*
Y1935000D02*
D03*
X3640000D02*
D03*
X3610000D02*
D03*
X3700000D02*
D03*
Y1995000D02*
D03*
X3572272Y1547272D02*
D03*
Y1502730D02*
D03*
X3527730D02*
D03*
Y1547272D02*
D03*
X3490000Y1115000D02*
D03*
X3460000D02*
D03*
X3430000D02*
D03*
X3400000D02*
D03*
Y1055000D02*
D03*
X3430000D02*
D03*
X3460000D02*
D03*
X3490000D02*
D03*
X3520000D02*
D03*
X3550000D02*
D03*
X3580000D02*
D03*
X3610000D02*
D03*
X3640000D02*
D03*
X3670000D02*
D03*
X3700000D02*
D03*
Y1115000D02*
D03*
X3670000D02*
D03*
X3640000D02*
D03*
X3610000D02*
D03*
X3580000D02*
D03*
X3550000D02*
D03*
X3520000D02*
D03*
X3150000D02*
D03*
X3120000D02*
D03*
Y1055000D02*
D03*
X3150000D02*
D03*
X3090000Y1115000D02*
D03*
X3060000D02*
D03*
X3030000D02*
D03*
X3000000D02*
D03*
Y1055000D02*
D03*
X3030000D02*
D03*
X3060000D02*
D03*
X3090000D02*
D03*
X2970000Y1115000D02*
D03*
X2940000D02*
D03*
X2910000D02*
D03*
Y1055000D02*
D03*
X2940000D02*
D03*
X2970000D02*
D03*
X2880000Y1115000D02*
D03*
X2850000D02*
D03*
Y1055000D02*
D03*
X2880000D02*
D03*
X2600000Y1115000D02*
D03*
Y1055000D02*
D03*
X2570000Y1115000D02*
D03*
X2540000D02*
D03*
X2510000D02*
D03*
Y1055000D02*
D03*
X2540000D02*
D03*
X2570000D02*
D03*
X2480000Y1115000D02*
D03*
X2450000D02*
D03*
X2420000D02*
D03*
Y1055000D02*
D03*
X2450000D02*
D03*
X2480000D02*
D03*
X2390000Y1115000D02*
D03*
X2360000D02*
D03*
X2330000D02*
D03*
X2300000D02*
D03*
Y1055000D02*
D03*
X2330000D02*
D03*
X2360000D02*
D03*
X2390000D02*
D03*
X2427730Y1502730D02*
D03*
X2472272D02*
D03*
Y1547272D02*
D03*
X2427730D02*
D03*
X2977730D02*
D03*
Y1502730D02*
D03*
X3022272D02*
D03*
Y1547272D02*
D03*
Y2902730D02*
D03*
Y2947272D02*
D03*
X2977730D02*
D03*
Y2902730D02*
D03*
X2472272D02*
D03*
Y2947272D02*
D03*
X2427730D02*
D03*
Y2902730D02*
D03*
X1922272D02*
D03*
Y2947272D02*
D03*
X1877730D02*
D03*
Y2902730D02*
D03*
X1500000Y3335000D02*
D03*
Y3395000D02*
D03*
X1470000D02*
D03*
X1440000D02*
D03*
X1410000D02*
D03*
Y3335000D02*
D03*
X1440000D02*
D03*
X1470000D02*
D03*
X1380000D02*
D03*
X1350000D02*
D03*
X1320000D02*
D03*
Y3395000D02*
D03*
X1350000D02*
D03*
X1380000D02*
D03*
X1290000D02*
D03*
X1260000D02*
D03*
X1230000D02*
D03*
X1200000D02*
D03*
Y3335000D02*
D03*
X1230000D02*
D03*
X1260000D02*
D03*
X1290000D02*
D03*
D15*
X1200000Y1175000D02*
D03*
Y1275000D02*
D03*
Y1375000D02*
D03*
Y1475000D02*
D03*
Y1575000D02*
D03*
Y1675000D02*
D03*
Y1775000D02*
D03*
Y1875000D02*
D03*
X1500000Y1575000D02*
D03*
Y1475000D02*
D03*
Y1375000D02*
D03*
Y1275000D02*
D03*
Y1175000D02*
D03*
X1750000D02*
D03*
Y1275000D02*
D03*
Y1375000D02*
D03*
Y1475000D02*
D03*
Y1575000D02*
D03*
Y1675000D02*
D03*
Y1775000D02*
D03*
Y1875000D02*
D03*
X1500000D02*
D03*
Y1775000D02*
D03*
Y1675000D02*
D03*
X2050000Y1175000D02*
D03*
Y1275000D02*
D03*
Y1375000D02*
D03*
Y1475000D02*
D03*
Y1575000D02*
D03*
Y1675000D02*
D03*
Y1775000D02*
D03*
Y1875000D02*
D03*
X2300000Y1575000D02*
D03*
Y1475000D02*
D03*
Y1375000D02*
D03*
Y1275000D02*
D03*
Y1175000D02*
D03*
X2600000D02*
D03*
Y1275000D02*
D03*
Y1375000D02*
D03*
Y1475000D02*
D03*
Y1575000D02*
D03*
Y1675000D02*
D03*
Y1775000D02*
D03*
Y1875000D02*
D03*
X2850000Y1675000D02*
D03*
Y1575000D02*
D03*
Y1475000D02*
D03*
Y1375000D02*
D03*
Y1275000D02*
D03*
Y1175000D02*
D03*
X3150000D02*
D03*
Y1275000D02*
D03*
Y1375000D02*
D03*
Y1475000D02*
D03*
Y1575000D02*
D03*
Y1675000D02*
D03*
Y1775000D02*
D03*
Y1875000D02*
D03*
X3400000Y1575000D02*
D03*
Y1475000D02*
D03*
Y1375000D02*
D03*
Y1275000D02*
D03*
Y1175000D02*
D03*
X3700000D02*
D03*
Y1275000D02*
D03*
Y1375000D02*
D03*
Y1475000D02*
D03*
Y1575000D02*
D03*
Y1675000D02*
D03*
Y1775000D02*
D03*
Y1875000D02*
D03*
X3400000D02*
D03*
Y1775000D02*
D03*
Y1675000D02*
D03*
X2850000Y1875000D02*
D03*
Y1775000D02*
D03*
X2300000Y1875000D02*
D03*
Y1775000D02*
D03*
Y1675000D02*
D03*
X3150000Y2575000D02*
D03*
Y2675000D02*
D03*
Y2775000D02*
D03*
Y2875000D02*
D03*
Y2975000D02*
D03*
Y3075000D02*
D03*
Y3175000D02*
D03*
Y3275000D02*
D03*
X3400000Y2975000D02*
D03*
Y2875000D02*
D03*
Y2775000D02*
D03*
Y2675000D02*
D03*
Y2575000D02*
D03*
X3700000D02*
D03*
Y2675000D02*
D03*
Y2775000D02*
D03*
Y2875000D02*
D03*
Y2975000D02*
D03*
Y3075000D02*
D03*
Y3175000D02*
D03*
Y3275000D02*
D03*
X3400000D02*
D03*
Y3175000D02*
D03*
Y3075000D02*
D03*
X2850000Y3275000D02*
D03*
Y3175000D02*
D03*
Y3075000D02*
D03*
Y2975000D02*
D03*
Y2875000D02*
D03*
Y2775000D02*
D03*
Y2675000D02*
D03*
Y2575000D02*
D03*
X2600000Y2775000D02*
D03*
Y2675000D02*
D03*
Y2575000D02*
D03*
Y2875000D02*
D03*
Y2975000D02*
D03*
Y3075000D02*
D03*
Y3175000D02*
D03*
Y3275000D02*
D03*
X2300000D02*
D03*
Y3175000D02*
D03*
Y3075000D02*
D03*
Y2975000D02*
D03*
Y2875000D02*
D03*
Y2775000D02*
D03*
Y2675000D02*
D03*
Y2575000D02*
D03*
X2050000Y2875000D02*
D03*
Y2775000D02*
D03*
Y2675000D02*
D03*
Y2575000D02*
D03*
X1750000Y2875000D02*
D03*
Y2775000D02*
D03*
Y2675000D02*
D03*
Y2575000D02*
D03*
X1500000Y2775000D02*
D03*
Y2675000D02*
D03*
Y2575000D02*
D03*
Y2875000D02*
D03*
Y2975000D02*
D03*
Y3075000D02*
D03*
Y3175000D02*
D03*
Y3275000D02*
D03*
X1750000Y3075000D02*
D03*
Y2975000D02*
D03*
Y3175000D02*
D03*
Y3275000D02*
D03*
X2050000Y2975000D02*
D03*
Y3075000D02*
D03*
Y3175000D02*
D03*
Y3275000D02*
D03*
X1200000D02*
D03*
Y3175000D02*
D03*
Y3075000D02*
D03*
Y2975000D02*
D03*
Y2875000D02*
D03*
Y2775000D02*
D03*
Y2675000D02*
D03*
Y2575000D02*
D03*
%TF.MD5,6cba24aa2c4384f3da2f677d8d9c30e5*%
M02*
