%TF.GenerationSoftware,Altium Limited,Altium Designer,21.6.4 (81)*%
G04 Layer_Color=16711935*
%FSLAX26Y26*%
%MOIN*%
%TF.SameCoordinates,5FA90F47-3B47-4036-B415-51D33840892C*%
%TF.FilePolarity,Negative*%
%TF.FileFunction,Soldermask,Bot*%
%TF.Part,CustomerPanel*%
G01*
G75*
%TA.AperFunction,ViaPad*%
%ADD14C,0.019685*%
%ADD17C,0.068000*%
%ADD18C,0.027685*%
D14*
X1200000Y1055000D02*
D03*
X1230000D02*
D03*
X1260000D02*
D03*
X1290000D02*
D03*
X1320000D02*
D03*
X1350000D02*
D03*
X1380000D02*
D03*
X1410000D02*
D03*
X1440000D02*
D03*
X1470000D02*
D03*
X1500000D02*
D03*
Y1115000D02*
D03*
X1470000D02*
D03*
X1440000D02*
D03*
X1410000D02*
D03*
X1380000D02*
D03*
X1350000D02*
D03*
X1320000D02*
D03*
X1290000D02*
D03*
X1260000D02*
D03*
X1230000D02*
D03*
X1200000D02*
D03*
X1750000Y1055000D02*
D03*
X1780000D02*
D03*
X1810000D02*
D03*
X1840000D02*
D03*
X1870000D02*
D03*
X1900000D02*
D03*
X1930000D02*
D03*
X1960000D02*
D03*
X1990000D02*
D03*
X2020000D02*
D03*
X2050000D02*
D03*
Y1115000D02*
D03*
X2020000D02*
D03*
X1990000D02*
D03*
X1960000D02*
D03*
X1930000D02*
D03*
X1900000D02*
D03*
X1870000D02*
D03*
X1840000D02*
D03*
X1810000D02*
D03*
X1780000D02*
D03*
X1750000D02*
D03*
X2300000Y1055000D02*
D03*
X2330000D02*
D03*
X2360000D02*
D03*
X2390000D02*
D03*
X2420000D02*
D03*
X2450000D02*
D03*
X2480000D02*
D03*
X2510000D02*
D03*
X2540000D02*
D03*
X2570000D02*
D03*
X2600000D02*
D03*
Y1115000D02*
D03*
X2570000D02*
D03*
X2540000D02*
D03*
X2510000D02*
D03*
X2480000D02*
D03*
X2450000D02*
D03*
X2420000D02*
D03*
X2390000D02*
D03*
X2360000D02*
D03*
X2330000D02*
D03*
X2300000D02*
D03*
X2850000Y1055000D02*
D03*
X2880000D02*
D03*
X2910000D02*
D03*
X2940000D02*
D03*
X2970000D02*
D03*
X3000000D02*
D03*
X3030000D02*
D03*
X3060000D02*
D03*
X3090000D02*
D03*
X3120000D02*
D03*
X3150000D02*
D03*
Y1115000D02*
D03*
X3120000D02*
D03*
X3090000D02*
D03*
X3060000D02*
D03*
X3030000D02*
D03*
X3000000D02*
D03*
X2970000D02*
D03*
X2940000D02*
D03*
X2910000D02*
D03*
X2880000D02*
D03*
X2850000D02*
D03*
X3400000Y1055000D02*
D03*
X3430000D02*
D03*
X3460000D02*
D03*
X3490000D02*
D03*
X3520000D02*
D03*
X3550000D02*
D03*
X3580000D02*
D03*
X3610000D02*
D03*
X3640000D02*
D03*
X3670000D02*
D03*
X3700000D02*
D03*
Y1115000D02*
D03*
X3670000D02*
D03*
X3640000D02*
D03*
X3610000D02*
D03*
X3580000D02*
D03*
X3550000D02*
D03*
X3520000D02*
D03*
X3490000D02*
D03*
X3460000D02*
D03*
X3430000D02*
D03*
X3400000D02*
D03*
X3700000Y1935000D02*
D03*
Y1995000D02*
D03*
X3670000D02*
D03*
X3640000D02*
D03*
X3610000D02*
D03*
Y1935000D02*
D03*
X3640000D02*
D03*
X3670000D02*
D03*
X3580000D02*
D03*
X3550000D02*
D03*
X3520000D02*
D03*
Y1995000D02*
D03*
X3550000D02*
D03*
X3580000D02*
D03*
X3490000D02*
D03*
X3460000D02*
D03*
X3430000D02*
D03*
X3400000D02*
D03*
Y1935000D02*
D03*
X3430000D02*
D03*
X3460000D02*
D03*
X3490000D02*
D03*
X3150000D02*
D03*
X3120000D02*
D03*
Y1995000D02*
D03*
X3150000D02*
D03*
X3090000D02*
D03*
X3060000D02*
D03*
X3030000D02*
D03*
X3000000D02*
D03*
Y1935000D02*
D03*
X3030000D02*
D03*
X3060000D02*
D03*
X3090000D02*
D03*
X2970000D02*
D03*
X2940000D02*
D03*
X2910000D02*
D03*
Y1995000D02*
D03*
X2940000D02*
D03*
X2970000D02*
D03*
X2880000D02*
D03*
X2850000D02*
D03*
Y1935000D02*
D03*
X2880000D02*
D03*
X2600000D02*
D03*
Y1995000D02*
D03*
X2570000D02*
D03*
X2540000D02*
D03*
X2510000D02*
D03*
Y1935000D02*
D03*
X2540000D02*
D03*
X2570000D02*
D03*
X2480000D02*
D03*
X2450000D02*
D03*
X2420000D02*
D03*
Y1995000D02*
D03*
X2450000D02*
D03*
X2480000D02*
D03*
X2390000D02*
D03*
X2360000D02*
D03*
X2330000D02*
D03*
X2300000D02*
D03*
Y1935000D02*
D03*
X2330000D02*
D03*
X2360000D02*
D03*
X2390000D02*
D03*
X2050000D02*
D03*
X2020000D02*
D03*
Y1995000D02*
D03*
X2050000D02*
D03*
X1990000D02*
D03*
X1960000D02*
D03*
X1930000D02*
D03*
X1900000D02*
D03*
Y1935000D02*
D03*
X1930000D02*
D03*
X1960000D02*
D03*
X1990000D02*
D03*
X1870000D02*
D03*
X1840000D02*
D03*
X1810000D02*
D03*
Y1995000D02*
D03*
X1840000D02*
D03*
X1870000D02*
D03*
X1780000D02*
D03*
X1750000D02*
D03*
Y1935000D02*
D03*
X1780000D02*
D03*
X1500000D02*
D03*
Y1995000D02*
D03*
X1470000D02*
D03*
X1440000D02*
D03*
X1410000D02*
D03*
Y1935000D02*
D03*
X1440000D02*
D03*
X1470000D02*
D03*
X1380000D02*
D03*
X1350000D02*
D03*
X1320000D02*
D03*
Y1995000D02*
D03*
X1350000D02*
D03*
X1380000D02*
D03*
X1290000D02*
D03*
X1260000D02*
D03*
X1230000D02*
D03*
X1200000D02*
D03*
Y1935000D02*
D03*
X1230000D02*
D03*
X1260000D02*
D03*
X1290000D02*
D03*
X1750000Y2455000D02*
D03*
X1780000D02*
D03*
X1810000D02*
D03*
X1840000D02*
D03*
X1870000D02*
D03*
X1900000D02*
D03*
X1930000D02*
D03*
X1960000D02*
D03*
X1990000D02*
D03*
X2020000D02*
D03*
X2050000D02*
D03*
Y2515000D02*
D03*
X2020000D02*
D03*
X1990000D02*
D03*
X1960000D02*
D03*
X1930000D02*
D03*
X1900000D02*
D03*
X1870000D02*
D03*
X1840000D02*
D03*
X1810000D02*
D03*
X1780000D02*
D03*
X1750000D02*
D03*
X1500000D02*
D03*
Y2455000D02*
D03*
X1470000Y2515000D02*
D03*
X1440000D02*
D03*
X1410000D02*
D03*
Y2455000D02*
D03*
X1440000D02*
D03*
X1470000D02*
D03*
X1380000Y2515000D02*
D03*
X1350000D02*
D03*
X1320000D02*
D03*
Y2455000D02*
D03*
X1350000D02*
D03*
X1380000D02*
D03*
X1290000Y2515000D02*
D03*
X1260000D02*
D03*
X1230000D02*
D03*
X1200000D02*
D03*
Y2455000D02*
D03*
X1230000D02*
D03*
X1260000D02*
D03*
X1290000D02*
D03*
X2020000Y3335000D02*
D03*
X2050000D02*
D03*
Y3395000D02*
D03*
X2020000D02*
D03*
X1990000D02*
D03*
X1960000D02*
D03*
X1930000D02*
D03*
X1900000D02*
D03*
Y3335000D02*
D03*
X1930000D02*
D03*
X1960000D02*
D03*
X1990000D02*
D03*
X1870000D02*
D03*
X1840000D02*
D03*
X1810000D02*
D03*
Y3395000D02*
D03*
X1840000D02*
D03*
X1870000D02*
D03*
X1780000D02*
D03*
X1750000D02*
D03*
Y3335000D02*
D03*
X1780000D02*
D03*
X1500000D02*
D03*
Y3395000D02*
D03*
X1470000D02*
D03*
X1440000D02*
D03*
X1410000D02*
D03*
Y3335000D02*
D03*
X1440000D02*
D03*
X1470000D02*
D03*
X1380000D02*
D03*
X1350000D02*
D03*
X1320000D02*
D03*
Y3395000D02*
D03*
X1350000D02*
D03*
X1380000D02*
D03*
X1290000D02*
D03*
X1260000D02*
D03*
X1230000D02*
D03*
X1200000D02*
D03*
Y3335000D02*
D03*
X1230000D02*
D03*
X1260000D02*
D03*
X1290000D02*
D03*
X2300000Y2455000D02*
D03*
X2330000D02*
D03*
X2360000D02*
D03*
X2390000D02*
D03*
X2420000D02*
D03*
X2450000D02*
D03*
X2480000D02*
D03*
X2510000D02*
D03*
X2540000D02*
D03*
X2570000D02*
D03*
X2600000D02*
D03*
Y2515000D02*
D03*
X2570000D02*
D03*
X2540000D02*
D03*
X2510000D02*
D03*
X2480000D02*
D03*
X2450000D02*
D03*
X2420000D02*
D03*
X2390000D02*
D03*
X2360000D02*
D03*
X2330000D02*
D03*
X2300000D02*
D03*
X2850000Y2455000D02*
D03*
X2880000D02*
D03*
X2910000D02*
D03*
X2940000D02*
D03*
X2970000D02*
D03*
X3000000D02*
D03*
X3030000D02*
D03*
X3060000D02*
D03*
X3090000D02*
D03*
X3120000D02*
D03*
X3150000D02*
D03*
Y2515000D02*
D03*
X3120000D02*
D03*
X3090000D02*
D03*
X3060000D02*
D03*
X3030000D02*
D03*
X3000000D02*
D03*
X2970000D02*
D03*
X2940000D02*
D03*
X2910000D02*
D03*
X2880000D02*
D03*
X2850000D02*
D03*
X3400000Y2455000D02*
D03*
X3430000D02*
D03*
X3460000D02*
D03*
X3490000D02*
D03*
X3520000D02*
D03*
X3550000D02*
D03*
X3580000D02*
D03*
X3610000D02*
D03*
X3640000D02*
D03*
X3670000D02*
D03*
X3700000D02*
D03*
Y2515000D02*
D03*
X3670000D02*
D03*
X3640000D02*
D03*
X3610000D02*
D03*
X3580000D02*
D03*
X3550000D02*
D03*
X3520000D02*
D03*
X3490000D02*
D03*
X3460000D02*
D03*
X3430000D02*
D03*
X3400000D02*
D03*
X3700000Y3335000D02*
D03*
Y3395000D02*
D03*
X3670000D02*
D03*
X3640000D02*
D03*
X3610000D02*
D03*
Y3335000D02*
D03*
X3640000D02*
D03*
X3670000D02*
D03*
X3580000D02*
D03*
X3550000D02*
D03*
X3520000D02*
D03*
Y3395000D02*
D03*
X3550000D02*
D03*
X3580000D02*
D03*
X3490000D02*
D03*
X3460000D02*
D03*
X3430000D02*
D03*
X3400000D02*
D03*
Y3335000D02*
D03*
X3430000D02*
D03*
X3460000D02*
D03*
X3490000D02*
D03*
X3150000D02*
D03*
X3120000D02*
D03*
Y3395000D02*
D03*
X3150000D02*
D03*
X3090000D02*
D03*
X3060000D02*
D03*
X3030000D02*
D03*
X3000000D02*
D03*
Y3335000D02*
D03*
X3030000D02*
D03*
X3060000D02*
D03*
X3090000D02*
D03*
X2970000D02*
D03*
X2940000D02*
D03*
X2910000D02*
D03*
Y3395000D02*
D03*
X2940000D02*
D03*
X2970000D02*
D03*
X2880000D02*
D03*
X2850000D02*
D03*
Y3335000D02*
D03*
X2880000D02*
D03*
X2600000D02*
D03*
Y3395000D02*
D03*
X2570000D02*
D03*
X2540000D02*
D03*
X2510000D02*
D03*
Y3335000D02*
D03*
X2540000D02*
D03*
X2570000D02*
D03*
X2480000D02*
D03*
X2450000D02*
D03*
X2420000D02*
D03*
Y3395000D02*
D03*
X2450000D02*
D03*
X2480000D02*
D03*
X2390000D02*
D03*
X2360000D02*
D03*
X2330000D02*
D03*
X2300000D02*
D03*
Y3335000D02*
D03*
X2330000D02*
D03*
X2360000D02*
D03*
X2390000D02*
D03*
D17*
X1200000Y1175000D02*
D03*
Y1275000D02*
D03*
Y1375000D02*
D03*
Y1475000D02*
D03*
Y1575000D02*
D03*
Y1675000D02*
D03*
Y1775000D02*
D03*
Y1875000D02*
D03*
X1500000Y1575000D02*
D03*
Y1475000D02*
D03*
Y1375000D02*
D03*
Y1275000D02*
D03*
Y1175000D02*
D03*
X1750000D02*
D03*
Y1275000D02*
D03*
Y1375000D02*
D03*
Y1475000D02*
D03*
Y1575000D02*
D03*
Y1675000D02*
D03*
Y1775000D02*
D03*
Y1875000D02*
D03*
X1500000D02*
D03*
Y1775000D02*
D03*
Y1675000D02*
D03*
X2050000Y1175000D02*
D03*
Y1275000D02*
D03*
Y1375000D02*
D03*
Y1475000D02*
D03*
Y1575000D02*
D03*
Y1675000D02*
D03*
Y1775000D02*
D03*
Y1875000D02*
D03*
X2300000Y1575000D02*
D03*
Y1475000D02*
D03*
Y1375000D02*
D03*
Y1275000D02*
D03*
Y1175000D02*
D03*
X2600000D02*
D03*
Y1275000D02*
D03*
Y1375000D02*
D03*
Y1475000D02*
D03*
Y1575000D02*
D03*
Y1675000D02*
D03*
Y1775000D02*
D03*
Y1875000D02*
D03*
X2850000Y1675000D02*
D03*
Y1575000D02*
D03*
Y1475000D02*
D03*
Y1375000D02*
D03*
Y1275000D02*
D03*
Y1175000D02*
D03*
X3150000D02*
D03*
Y1275000D02*
D03*
Y1375000D02*
D03*
Y1475000D02*
D03*
Y1575000D02*
D03*
Y1675000D02*
D03*
Y1775000D02*
D03*
Y1875000D02*
D03*
X3400000Y1575000D02*
D03*
Y1475000D02*
D03*
Y1375000D02*
D03*
Y1275000D02*
D03*
Y1175000D02*
D03*
X3700000D02*
D03*
Y1275000D02*
D03*
Y1375000D02*
D03*
Y1475000D02*
D03*
Y1575000D02*
D03*
Y1675000D02*
D03*
Y1775000D02*
D03*
Y1875000D02*
D03*
X3400000D02*
D03*
Y1775000D02*
D03*
Y1675000D02*
D03*
X2850000Y1875000D02*
D03*
Y1775000D02*
D03*
X2300000Y1875000D02*
D03*
Y1775000D02*
D03*
Y1675000D02*
D03*
X3150000Y2575000D02*
D03*
Y2675000D02*
D03*
Y2775000D02*
D03*
Y2875000D02*
D03*
Y2975000D02*
D03*
Y3075000D02*
D03*
Y3175000D02*
D03*
Y3275000D02*
D03*
X3400000Y2975000D02*
D03*
Y2875000D02*
D03*
Y2775000D02*
D03*
Y2675000D02*
D03*
Y2575000D02*
D03*
X3700000D02*
D03*
Y2675000D02*
D03*
Y2775000D02*
D03*
Y2875000D02*
D03*
Y2975000D02*
D03*
Y3075000D02*
D03*
Y3175000D02*
D03*
Y3275000D02*
D03*
X3400000D02*
D03*
Y3175000D02*
D03*
Y3075000D02*
D03*
X2850000Y3275000D02*
D03*
Y3175000D02*
D03*
Y3075000D02*
D03*
Y2975000D02*
D03*
Y2875000D02*
D03*
Y2775000D02*
D03*
Y2675000D02*
D03*
Y2575000D02*
D03*
X2600000Y2775000D02*
D03*
Y2675000D02*
D03*
Y2575000D02*
D03*
Y2875000D02*
D03*
Y2975000D02*
D03*
Y3075000D02*
D03*
Y3175000D02*
D03*
Y3275000D02*
D03*
X2300000D02*
D03*
Y3175000D02*
D03*
Y3075000D02*
D03*
Y2975000D02*
D03*
Y2875000D02*
D03*
Y2775000D02*
D03*
Y2675000D02*
D03*
Y2575000D02*
D03*
X2050000Y2875000D02*
D03*
Y2775000D02*
D03*
Y2675000D02*
D03*
Y2575000D02*
D03*
X1750000Y2875000D02*
D03*
Y2775000D02*
D03*
Y2675000D02*
D03*
Y2575000D02*
D03*
X1500000Y2775000D02*
D03*
Y2675000D02*
D03*
Y2575000D02*
D03*
Y2875000D02*
D03*
Y2975000D02*
D03*
Y3075000D02*
D03*
Y3175000D02*
D03*
Y3275000D02*
D03*
X1750000Y3075000D02*
D03*
Y2975000D02*
D03*
Y3175000D02*
D03*
Y3275000D02*
D03*
X2050000Y2975000D02*
D03*
Y3075000D02*
D03*
Y3175000D02*
D03*
Y3275000D02*
D03*
X1200000D02*
D03*
Y3175000D02*
D03*
Y3075000D02*
D03*
Y2975000D02*
D03*
Y2875000D02*
D03*
Y2775000D02*
D03*
Y2675000D02*
D03*
Y2575000D02*
D03*
D18*
X1327730Y1502730D02*
D03*
X1372272D02*
D03*
Y1547272D02*
D03*
X1327730D02*
D03*
X1877730D02*
D03*
Y1502730D02*
D03*
X1922272D02*
D03*
Y1547272D02*
D03*
X2427730D02*
D03*
X2472272D02*
D03*
Y1502730D02*
D03*
X2427730D02*
D03*
X2977730D02*
D03*
Y1547272D02*
D03*
X3022272D02*
D03*
Y1502730D02*
D03*
X3527730D02*
D03*
X3572272D02*
D03*
Y1547272D02*
D03*
X3527730D02*
D03*
Y2902730D02*
D03*
X3572272D02*
D03*
Y2947272D02*
D03*
X3527730D02*
D03*
X3022272D02*
D03*
Y2902730D02*
D03*
X2977730D02*
D03*
Y2947272D02*
D03*
X2472272D02*
D03*
Y2902730D02*
D03*
X2427730D02*
D03*
Y2947272D02*
D03*
X1922272D02*
D03*
Y2902730D02*
D03*
X1877730D02*
D03*
Y2947272D02*
D03*
X1372272D02*
D03*
Y2902730D02*
D03*
X1327730D02*
D03*
Y2947272D02*
D03*
%TF.MD5,891ab29849ae4cbe7a5e8affcfe9d6f7*%
M02*
