M48
;Layer_Color=9474304
;FILE_FORMAT=2:5
INCH,LZ
T4F00S00C0.07874
%
G90
G05
T04
G00X0391235Y0093762
M15
G01X0392345Y0094338
G01X0393219Y0095233
G01X0393768Y0096357
G01X0393937Y00975
G01X0393937Y03475
G01X0393738Y0348735
G01X0393162Y0349845
G01X0392267Y0350719
G01X0391143Y0351268
G01X039Y0351437
G01X01Y0351437
G01X0098765Y0351238
G01X0097655Y0350662
G01X0096781Y0349767
G01X0096232Y0348643
G01X0096063Y03475
G01X0096063Y00975
G01X0096262Y0096265
G01X0096838Y0095155
G01X0097733Y0094281
G01X0098857Y0093732
G01X01Y0093563
G01X039Y0093563
G01X0391235Y0093762
M16
G00X0156235Y0108762
M15
G01X0157345Y0109338
G01X0158219Y0110233
G01X0158768Y0111357
G01X0158937Y01125
G01X0158937Y01925
G01X0158738Y0193735
G01X0158162Y0194845
G01X0157267Y0195719
G01X0156143Y0196268
G01X0155Y0196437
G01X0115Y0196437
G01X0113765Y0196238
G01X0112655Y0195662
G01X0111781Y0194767
G01X0111232Y0193643
G01X0111063Y01925
G01X0111063Y01125
G01X0111262Y0111265
G01X0111838Y0110155
G01X0112733Y0109281
G01X0113857Y0108732
G01X0115Y0108563
G01X0155Y0108563
G01X0156235Y0108762
M16
G00X0211235Y0108762
M15
G01X0212345Y0109338
G01X0213219Y0110233
G01X0213768Y0111357
G01X0213937Y01125
G01X0213937Y01925
G01X0213738Y0193735
G01X0213162Y0194845
G01X0212267Y0195719
G01X0211143Y0196268
G01X021Y0196437
G01X017Y0196437
G01X0168765Y0196238
G01X0167655Y0195662
G01X0166781Y0194767
G01X0166232Y0193643
G01X0166063Y01925
G01X0166063Y01125
G01X0166262Y0111265
G01X0166838Y0110155
G01X0167733Y0109281
G01X0168857Y0108732
G01X017Y0108563
G01X021Y0108563
G01X0211235Y0108762
M16
G00X0266235Y0108762
M15
G01X0267345Y0109338
G01X0268219Y0110233
G01X0268768Y0111357
G01X0268937Y01125
G01X0268937Y01925
G01X0268738Y0193735
G01X0268162Y0194845
G01X0267267Y0195719
G01X0266143Y0196268
G01X0265Y0196437
G01X0225Y0196437
G01X0223765Y0196238
G01X0222655Y0195662
G01X0221781Y0194767
G01X0221232Y0193643
G01X0221063Y01925
G01X0221063Y01125
G01X0221262Y0111265
G01X0221838Y0110155
G01X0222733Y0109281
G01X0223857Y0108732
G01X0225Y0108563
G01X0265Y0108563
G01X0266235Y0108762
M16
G00X0321235Y0108762
M15
G01X0322345Y0109338
G01X0323219Y0110233
G01X0323768Y0111357
G01X0323937Y01125
G01X0323937Y01925
G01X0323738Y0193735
G01X0323162Y0194845
G01X0322267Y0195719
G01X0321143Y0196268
G01X032Y0196437
G01X028Y0196437
G01X0278765Y0196238
G01X0277655Y0195662
G01X0276781Y0194767
G01X0276232Y0193643
G01X0276063Y01925
G01X0276063Y01125
G01X0276262Y0111265
G01X0276838Y0110155
G01X0277733Y0109281
G01X0278857Y0108732
G01X028Y0108563
G01X032Y0108563
G01X0321235Y0108762
M16
G00X0376235Y0108762
M15
G01X0377345Y0109338
G01X0378219Y0110233
G01X0378768Y0111357
G01X0378937Y01125
G01X0378937Y01925
G01X0378738Y0193735
G01X0378162Y0194845
G01X0377267Y0195719
G01X0376143Y0196268
G01X0375Y0196437
G01X0335Y0196437
G01X0333765Y0196238
G01X0332655Y0195662
G01X0331781Y0194767
G01X0331232Y0193643
G01X0331063Y01925
G01X0331063Y01125
G01X0331262Y0111265
G01X0331838Y0110155
G01X0332733Y0109281
G01X0333857Y0108732
G01X0335Y0108563
G01X0375Y0108563
G01X0376235Y0108762
M16
G00X0156235Y0248762
M15
G01X0157345Y0249338
G01X0158219Y0250233
G01X0158768Y0251357
G01X0158937Y02525
G01X0158937Y03325
G01X0158738Y0333735
G01X0158162Y0334845
G01X0157267Y0335719
G01X0156143Y0336268
G01X0155Y0336437
G01X0115Y0336437
G01X0113765Y0336238
G01X0112655Y0335662
G01X0111781Y0334767
G01X0111232Y0333643
G01X0111063Y03325
G01X0111063Y02525
G01X0111262Y0251265
G01X0111838Y0250155
G01X0112733Y0249281
G01X0113857Y0248732
G01X0115Y0248563
G01X0155Y0248563
G01X0156235Y0248762
M16
G00X0211235Y0248762
M15
G01X0212345Y0249338
G01X0213219Y0250233
G01X0213768Y0251357
G01X0213937Y02525
G01X0213937Y03325
G01X0213738Y0333735
G01X0213162Y0334845
G01X0212267Y0335719
G01X0211143Y0336268
G01X021Y0336437
G01X017Y0336437
G01X0168765Y0336238
G01X0167655Y0335662
G01X0166781Y0334767
G01X0166232Y0333643
G01X0166063Y03325
G01X0166063Y02525
G01X0166262Y0251265
G01X0166838Y0250155
G01X0167733Y0249281
G01X0168857Y0248732
G01X017Y0248563
G01X021Y0248563
G01X0211235Y0248762
M16
G00X0266235Y0248762
M15
G01X0267345Y0249338
G01X0268219Y0250233
G01X0268768Y0251357
G01X0268937Y02525
G01X0268937Y03325
G01X0268738Y0333735
G01X0268162Y0334845
G01X0267267Y0335719
G01X0266143Y0336268
G01X0265Y0336437
G01X0225Y0336437
G01X0223765Y0336238
G01X0222655Y0335662
G01X0221781Y0334767
G01X0221232Y0333643
G01X0221063Y03325
G01X0221063Y02525
G01X0221262Y0251265
G01X0221838Y0250155
G01X0222733Y0249281
G01X0223857Y0248732
G01X0225Y0248563
G01X0265Y0248563
G01X0266235Y0248762
M16
G00X0321235Y0248762
M15
G01X0322345Y0249338
G01X0323219Y0250233
G01X0323768Y0251357
G01X0323937Y02525
G01X0323937Y03325
G01X0323738Y0333735
G01X0323162Y0334845
G01X0322267Y0335719
G01X0321143Y0336268
G01X032Y0336437
G01X028Y0336437
G01X0278765Y0336238
G01X0277655Y0335662
G01X0276781Y0334767
G01X0276232Y0333643
G01X0276063Y03325
G01X0276063Y02525
G01X0276262Y0251265
G01X0276838Y0250155
G01X0277733Y0249281
G01X0278857Y0248732
G01X028Y0248563
G01X032Y0248563
G01X0321235Y0248762
M16
G00X0376235Y0248762
M15
G01X0377345Y0249338
G01X0378219Y0250233
G01X0378768Y0251357
G01X0378937Y02525
G01X0378937Y03325
G01X0378738Y0333735
G01X0378162Y0334845
G01X0377267Y0335719
G01X0376143Y0336268
G01X0375Y0336437
G01X0335Y0336437
G01X0333765Y0336238
G01X0332655Y0335662
G01X0331781Y0334767
G01X0331232Y0333643
G01X0331063Y03325
G01X0331063Y02525
G01X0331262Y0251265
G01X0331838Y0250155
G01X0332733Y0249281
G01X0333857Y0248732
G01X0335Y0248563
G01X0375Y0248563
G01X0376235Y0248762
M16
M17
M30
