%TF.GenerationSoftware,Altium Limited,Altium Designer,21.6.4 (81)*%
G04 Layer_Color=2752767*
%FSLAX26Y26*%
%MOIN*%
%TF.SameCoordinates,5FA90F47-3B47-4036-B415-51D33840892C*%
%TF.FilePolarity,Positive*%
%TF.FileFunction,Drawing*%
%TF.Part,CustomerPanel*%
G01*
G75*
%TA.AperFunction,NonConductor*%
%ADD16C,0.005000*%
%ADD631C,0.006667*%
D16*
X1180000Y1035000D02*
Y1075000D01*
X1220000D01*
Y1035000D01*
X1180000D01*
Y1095000D02*
Y1135000D01*
X1220000D01*
Y1095000D01*
X1180000D01*
X1210000D02*
Y1135000D01*
X1250000D01*
Y1095000D01*
X1210000D01*
Y1075000D02*
X1250000D01*
Y1035000D01*
X1210000D01*
Y1075000D01*
X1240000D02*
X1280000D01*
Y1035000D01*
X1240000D01*
Y1075000D01*
Y1095000D02*
Y1135000D01*
X1280000D01*
Y1095000D01*
X1240000D01*
X1270000D02*
Y1135000D01*
X1310000D01*
Y1095000D01*
X1270000D01*
Y1075000D02*
X1310000D01*
Y1035000D01*
X1270000D01*
Y1075000D01*
X1300000D02*
X1340000D01*
Y1035000D01*
X1300000D01*
Y1075000D01*
Y1095000D02*
Y1135000D01*
X1340000D01*
Y1095000D01*
X1300000D01*
X1330000D02*
Y1135000D01*
X1370000D01*
Y1095000D01*
X1330000D01*
Y1075000D02*
X1370000D01*
Y1035000D01*
X1330000D01*
Y1075000D01*
X1360000D02*
X1400000D01*
Y1035000D01*
X1360000D01*
Y1075000D01*
Y1095000D02*
Y1135000D01*
X1400000D01*
Y1095000D01*
X1360000D01*
X1390000D02*
Y1135000D01*
X1430000D01*
Y1095000D01*
X1390000D01*
Y1075000D02*
X1430000D01*
Y1035000D01*
X1390000D01*
Y1075000D01*
X1420000D02*
X1460000D01*
Y1035000D01*
X1420000D01*
Y1075000D01*
Y1095000D02*
Y1135000D01*
X1460000D01*
Y1095000D01*
X1420000D01*
X1450000D02*
Y1135000D01*
X1490000D01*
Y1095000D01*
X1450000D01*
Y1075000D02*
X1490000D01*
Y1035000D01*
X1450000D01*
Y1075000D01*
X1480000D02*
X1520000D01*
Y1035000D01*
X1480000D01*
Y1075000D01*
Y1095000D02*
Y1135000D01*
X1520000D01*
Y1095000D01*
X1480000D01*
X1730000D02*
Y1135000D01*
X1770000D01*
Y1095000D01*
X1730000D01*
Y1075000D02*
X1770000D01*
Y1035000D01*
X1730000D01*
Y1075000D01*
X1760000D02*
X1800000D01*
Y1035000D01*
X1760000D01*
Y1075000D01*
Y1095000D02*
Y1135000D01*
X1800000D01*
Y1095000D01*
X1760000D01*
X1790000D02*
Y1135000D01*
X1830000D01*
Y1095000D01*
X1790000D01*
Y1075000D02*
X1830000D01*
Y1035000D01*
X1790000D01*
Y1075000D01*
X1820000D02*
X1860000D01*
Y1035000D01*
X1820000D01*
Y1075000D01*
Y1095000D02*
Y1135000D01*
X1860000D01*
Y1095000D01*
X1820000D01*
X1850000D02*
Y1135000D01*
X1890000D01*
Y1095000D01*
X1850000D01*
Y1075000D02*
X1890000D01*
Y1035000D01*
X1850000D01*
Y1075000D01*
X1880000D02*
X1920000D01*
Y1035000D01*
X1880000D01*
Y1075000D01*
Y1095000D02*
Y1135000D01*
X1920000D01*
Y1095000D01*
X1880000D01*
X1910000D02*
Y1135000D01*
X1950000D01*
Y1095000D01*
X1910000D01*
Y1075000D02*
X1950000D01*
Y1035000D01*
X1910000D01*
Y1075000D01*
X1940000D02*
X1980000D01*
Y1035000D01*
X1940000D01*
Y1075000D01*
Y1095000D02*
Y1135000D01*
X1980000D01*
Y1095000D01*
X1940000D01*
X1970000D02*
Y1135000D01*
X2010000D01*
Y1095000D01*
X1970000D01*
Y1075000D02*
X2010000D01*
Y1035000D01*
X1970000D01*
Y1075000D01*
X2000000D02*
X2040000D01*
Y1035000D01*
X2000000D01*
Y1075000D01*
Y1095000D02*
Y1135000D01*
X2040000D01*
Y1095000D01*
X2000000D01*
X2030000D02*
Y1135000D01*
X2070000D01*
Y1095000D01*
X2030000D01*
Y1075000D02*
X2070000D01*
Y1035000D01*
X2030000D01*
Y1075000D01*
X2280000D02*
X2320000D01*
Y1035000D01*
X2280000D01*
Y1075000D01*
Y1095000D02*
Y1135000D01*
X2320000D01*
Y1095000D01*
X2280000D01*
X2310000D02*
Y1135000D01*
X2350000D01*
Y1095000D01*
X2310000D01*
Y1075000D02*
X2350000D01*
Y1035000D01*
X2310000D01*
Y1075000D01*
X2340000D02*
X2380000D01*
Y1035000D01*
X2340000D01*
Y1075000D01*
Y1095000D02*
Y1135000D01*
X2380000D01*
Y1095000D01*
X2340000D01*
X2370000D02*
Y1135000D01*
X2410000D01*
Y1095000D01*
X2370000D01*
Y1075000D02*
X2410000D01*
Y1035000D01*
X2370000D01*
Y1075000D01*
X2400000D02*
X2440000D01*
Y1035000D01*
X2400000D01*
Y1075000D01*
Y1095000D02*
Y1135000D01*
X2440000D01*
Y1095000D01*
X2400000D01*
X2430000D02*
Y1135000D01*
X2470000D01*
Y1095000D01*
X2430000D01*
Y1075000D02*
X2470000D01*
Y1035000D01*
X2430000D01*
Y1075000D01*
X2460000D02*
X2500000D01*
Y1035000D01*
X2460000D01*
Y1075000D01*
Y1095000D02*
Y1135000D01*
X2500000D01*
Y1095000D01*
X2460000D01*
X2490000D02*
Y1135000D01*
X2530000D01*
Y1095000D01*
X2490000D01*
Y1075000D02*
X2530000D01*
Y1035000D01*
X2490000D01*
Y1075000D01*
X2520000D02*
X2560000D01*
Y1035000D01*
X2520000D01*
Y1075000D01*
Y1095000D02*
Y1135000D01*
X2560000D01*
Y1095000D01*
X2520000D01*
X2550000D02*
Y1135000D01*
X2590000D01*
Y1095000D01*
X2550000D01*
Y1075000D02*
X2590000D01*
Y1035000D01*
X2550000D01*
Y1075000D01*
X2580000D02*
X2620000D01*
Y1035000D01*
X2580000D01*
Y1075000D01*
Y1095000D02*
Y1135000D01*
X2620000D01*
Y1095000D01*
X2580000D01*
X2830000D02*
Y1135000D01*
X2870000D01*
Y1095000D01*
X2830000D01*
Y1075000D02*
X2870000D01*
Y1035000D01*
X2830000D01*
Y1075000D01*
X2860000D02*
X2900000D01*
Y1035000D01*
X2860000D01*
Y1075000D01*
Y1095000D02*
Y1135000D01*
X2900000D01*
Y1095000D01*
X2860000D01*
X2890000D02*
Y1135000D01*
X2930000D01*
Y1095000D01*
X2890000D01*
Y1075000D02*
X2930000D01*
Y1035000D01*
X2890000D01*
Y1075000D01*
X2920000D02*
X2960000D01*
Y1035000D01*
X2920000D01*
Y1075000D01*
Y1095000D02*
Y1135000D01*
X2960000D01*
Y1095000D01*
X2920000D01*
X2950000D02*
Y1135000D01*
X2990000D01*
Y1095000D01*
X2950000D01*
Y1075000D02*
X2990000D01*
Y1035000D01*
X2950000D01*
Y1075000D01*
X2980000D02*
X3020000D01*
Y1035000D01*
X2980000D01*
Y1075000D01*
Y1095000D02*
Y1135000D01*
X3020000D01*
Y1095000D01*
X2980000D01*
X3010000D02*
Y1135000D01*
X3050000D01*
Y1095000D01*
X3010000D01*
Y1075000D02*
X3050000D01*
Y1035000D01*
X3010000D01*
Y1075000D01*
X3040000D02*
X3080000D01*
Y1035000D01*
X3040000D01*
Y1075000D01*
Y1095000D02*
Y1135000D01*
X3080000D01*
Y1095000D01*
X3040000D01*
X3070000D02*
Y1135000D01*
X3110000D01*
Y1095000D01*
X3070000D01*
Y1075000D02*
X3110000D01*
Y1035000D01*
X3070000D01*
Y1075000D01*
X3100000D02*
X3140000D01*
Y1035000D01*
X3100000D01*
Y1075000D01*
Y1095000D02*
Y1135000D01*
X3140000D01*
Y1095000D01*
X3100000D01*
X3130000D02*
Y1135000D01*
X3170000D01*
Y1095000D01*
X3130000D01*
Y1075000D02*
X3170000D01*
Y1035000D01*
X3130000D01*
Y1075000D01*
X3380000D02*
X3420000D01*
Y1035000D01*
X3380000D01*
Y1075000D01*
Y1095000D02*
Y1135000D01*
X3420000D01*
Y1095000D01*
X3380000D01*
X3410000D02*
Y1135000D01*
X3450000D01*
Y1095000D01*
X3410000D01*
Y1075000D02*
X3450000D01*
Y1035000D01*
X3410000D01*
Y1075000D01*
X3440000D02*
X3480000D01*
Y1035000D01*
X3440000D01*
Y1075000D01*
Y1095000D02*
Y1135000D01*
X3480000D01*
Y1095000D01*
X3440000D01*
X3470000D02*
Y1135000D01*
X3510000D01*
Y1095000D01*
X3470000D01*
Y1075000D02*
X3510000D01*
Y1035000D01*
X3470000D01*
Y1075000D01*
X3500000D02*
X3540000D01*
Y1035000D01*
X3500000D01*
Y1075000D01*
Y1095000D02*
Y1135000D01*
X3540000D01*
Y1095000D01*
X3500000D01*
X3530000D02*
Y1135000D01*
X3570000D01*
Y1095000D01*
X3530000D01*
Y1075000D02*
X3570000D01*
Y1035000D01*
X3530000D01*
Y1075000D01*
X3560000D02*
X3600000D01*
Y1035000D01*
X3560000D01*
Y1075000D01*
Y1095000D02*
Y1135000D01*
X3600000D01*
Y1095000D01*
X3560000D01*
X3590000D02*
Y1135000D01*
X3630000D01*
Y1095000D01*
X3590000D01*
Y1075000D02*
X3630000D01*
Y1035000D01*
X3590000D01*
Y1075000D01*
X3620000D02*
X3660000D01*
Y1035000D01*
X3620000D01*
Y1075000D01*
Y1095000D02*
Y1135000D01*
X3660000D01*
Y1095000D01*
X3620000D01*
X3650000D02*
Y1135000D01*
X3690000D01*
Y1095000D01*
X3650000D01*
Y1075000D02*
X3690000D01*
Y1035000D01*
X3650000D01*
Y1075000D01*
X3680000D02*
X3720000D01*
Y1035000D01*
X3680000D01*
Y1075000D01*
Y1095000D02*
Y1135000D01*
X3720000D01*
Y1095000D01*
X3680000D01*
X3572272Y1482730D02*
X3552272Y1522730D01*
X3592272D01*
X3572272Y1482730D01*
X3527730D02*
X3507730Y1522730D01*
X3547730D01*
X3527730Y1482730D01*
Y1527272D02*
X3507730Y1567272D01*
X3547730D01*
X3527730Y1527272D01*
X3572272D02*
X3552272Y1567272D01*
X3592272D01*
X3572272Y1527272D01*
X3720000Y1915000D02*
X3680000D01*
Y1955000D01*
X3720000D01*
Y1915000D01*
Y1975000D02*
X3680000D01*
Y2015000D01*
X3720000D01*
Y1975000D01*
X3690000Y2015000D02*
Y1975000D01*
X3650000D01*
Y2015000D01*
X3690000D01*
X3660000D02*
Y1975000D01*
X3620000D01*
Y2015000D01*
X3660000D01*
X3630000D02*
Y1975000D01*
X3590000D01*
Y2015000D01*
X3630000D01*
X3600000D02*
Y1975000D01*
X3560000D01*
Y2015000D01*
X3600000D01*
Y1955000D02*
Y1915000D01*
X3560000D01*
Y1955000D01*
X3600000D01*
X3620000D02*
X3660000D01*
Y1915000D01*
X3620000D01*
Y1955000D01*
X3630000D02*
Y1915000D01*
X3590000D01*
Y1955000D01*
X3630000D01*
X3650000D02*
X3690000D01*
Y1915000D01*
X3650000D01*
Y1955000D01*
X3570000Y2015000D02*
Y1975000D01*
X3530000D01*
Y2015000D01*
X3570000D01*
X3540000D02*
Y1975000D01*
X3500000D01*
Y2015000D01*
X3540000D01*
X3510000D02*
Y1975000D01*
X3470000D01*
Y2015000D01*
X3510000D01*
Y1955000D02*
Y1915000D01*
X3470000D01*
Y1955000D01*
X3510000D01*
X3500000D02*
X3540000D01*
Y1915000D01*
X3500000D01*
Y1955000D01*
X3530000D02*
X3570000D01*
Y1915000D01*
X3530000D01*
Y1955000D01*
X3480000Y2015000D02*
Y1975000D01*
X3440000D01*
Y2015000D01*
X3480000D01*
X3450000D02*
Y1975000D01*
X3410000D01*
Y2015000D01*
X3450000D01*
X3420000D02*
Y1975000D01*
X3380000D01*
Y2015000D01*
X3420000D01*
Y1955000D02*
Y1915000D01*
X3380000D01*
Y1955000D01*
X3420000D01*
X3410000D02*
X3450000D01*
Y1915000D01*
X3410000D01*
Y1955000D01*
X3440000D02*
X3480000D01*
Y1915000D01*
X3440000D01*
Y1955000D01*
X3170000Y2015000D02*
Y1975000D01*
X3130000D01*
Y2015000D01*
X3170000D01*
X3140000D02*
Y1975000D01*
X3100000D01*
Y2015000D01*
X3140000D01*
X3110000D02*
Y1975000D01*
X3070000D01*
Y2015000D01*
X3110000D01*
Y1955000D02*
Y1915000D01*
X3070000D01*
Y1955000D01*
X3110000D01*
X3100000D02*
X3140000D01*
Y1915000D01*
X3100000D01*
Y1955000D01*
X3130000D02*
X3170000D01*
Y1915000D01*
X3130000D01*
Y1955000D01*
X3080000Y2015000D02*
Y1975000D01*
X3040000D01*
Y2015000D01*
X3080000D01*
X3050000D02*
Y1975000D01*
X3010000D01*
Y2015000D01*
X3050000D01*
X3020000D02*
Y1975000D01*
X2980000D01*
Y2015000D01*
X3020000D01*
Y1955000D02*
Y1915000D01*
X2980000D01*
Y1955000D01*
X3020000D01*
X3010000D02*
X3050000D01*
Y1915000D01*
X3010000D01*
Y1955000D01*
X3040000D02*
X3080000D01*
Y1915000D01*
X3040000D01*
Y1955000D01*
X2990000Y2015000D02*
Y1975000D01*
X2950000D01*
Y2015000D01*
X2990000D01*
X2960000D02*
Y1975000D01*
X2920000D01*
Y2015000D01*
X2960000D01*
X2930000D02*
Y1975000D01*
X2890000D01*
Y2015000D01*
X2930000D01*
X2900000D02*
Y1975000D01*
X2860000D01*
Y2015000D01*
X2900000D01*
Y1955000D02*
Y1915000D01*
X2860000D01*
Y1955000D01*
X2900000D01*
X2920000D02*
X2960000D01*
Y1915000D01*
X2920000D01*
Y1955000D01*
X2930000D02*
Y1915000D01*
X2890000D01*
Y1955000D01*
X2930000D01*
X2950000D02*
X2990000D01*
Y1915000D01*
X2950000D01*
Y1955000D01*
X2870000Y2015000D02*
Y1975000D01*
X2830000D01*
Y2015000D01*
X2870000D01*
Y1955000D02*
Y1915000D01*
X2830000D01*
Y1955000D01*
X2870000D01*
X2620000Y2015000D02*
Y1975000D01*
X2580000D01*
Y2015000D01*
X2620000D01*
Y1955000D02*
Y1915000D01*
X2580000D01*
Y1955000D01*
X2620000D01*
X2590000Y2015000D02*
Y1975000D01*
X2550000D01*
Y2015000D01*
X2590000D01*
X2560000D02*
Y1975000D01*
X2520000D01*
Y2015000D01*
X2560000D01*
X2530000D02*
Y1975000D01*
X2490000D01*
Y2015000D01*
X2530000D01*
X2500000D02*
Y1975000D01*
X2460000D01*
Y2015000D01*
X2500000D01*
Y1955000D02*
Y1915000D01*
X2460000D01*
Y1955000D01*
X2500000D01*
X2520000D02*
X2560000D01*
Y1915000D01*
X2520000D01*
Y1955000D01*
X2530000D02*
Y1915000D01*
X2490000D01*
Y1955000D01*
X2530000D01*
X2550000D02*
X2590000D01*
Y1915000D01*
X2550000D01*
Y1955000D01*
X2470000Y2015000D02*
Y1975000D01*
X2430000D01*
Y2015000D01*
X2470000D01*
X2440000D02*
Y1975000D01*
X2400000D01*
Y2015000D01*
X2440000D01*
X2410000D02*
Y1975000D01*
X2370000D01*
Y2015000D01*
X2410000D01*
Y1955000D02*
Y1915000D01*
X2370000D01*
Y1955000D01*
X2410000D01*
X2400000D02*
X2440000D01*
Y1915000D01*
X2400000D01*
Y1955000D01*
X2430000D02*
X2470000D01*
Y1915000D01*
X2430000D01*
Y1955000D01*
X2380000Y2015000D02*
Y1975000D01*
X2340000D01*
Y2015000D01*
X2380000D01*
X2350000D02*
Y1975000D01*
X2310000D01*
Y2015000D01*
X2350000D01*
X2320000D02*
Y1975000D01*
X2280000D01*
Y2015000D01*
X2320000D01*
Y1955000D02*
Y1915000D01*
X2280000D01*
Y1955000D01*
X2320000D01*
X2310000D02*
X2350000D01*
Y1915000D01*
X2310000D01*
Y1955000D01*
X2340000D02*
X2380000D01*
Y1915000D01*
X2340000D01*
Y1955000D01*
X2070000Y2015000D02*
Y1975000D01*
X2030000D01*
Y2015000D01*
X2070000D01*
X2040000D02*
Y1975000D01*
X2000000D01*
Y2015000D01*
X2040000D01*
X2010000D02*
Y1975000D01*
X1970000D01*
Y2015000D01*
X2010000D01*
Y1955000D02*
Y1915000D01*
X1970000D01*
Y1955000D01*
X2010000D01*
X2000000D02*
X2040000D01*
Y1915000D01*
X2000000D01*
Y1955000D01*
X2030000D02*
X2070000D01*
Y1915000D01*
X2030000D01*
Y1955000D01*
X1980000Y2015000D02*
Y1975000D01*
X1940000D01*
Y2015000D01*
X1980000D01*
X1950000D02*
Y1975000D01*
X1910000D01*
Y2015000D01*
X1950000D01*
X1920000D02*
Y1975000D01*
X1880000D01*
Y2015000D01*
X1920000D01*
Y1955000D02*
Y1915000D01*
X1880000D01*
Y1955000D01*
X1920000D01*
X1910000D02*
X1950000D01*
Y1915000D01*
X1910000D01*
Y1955000D01*
X1940000D02*
X1980000D01*
Y1915000D01*
X1940000D01*
Y1955000D01*
X1890000Y2015000D02*
Y1975000D01*
X1850000D01*
Y2015000D01*
X1890000D01*
X1860000D02*
Y1975000D01*
X1820000D01*
Y2015000D01*
X1860000D01*
X1830000D02*
Y1975000D01*
X1790000D01*
Y2015000D01*
X1830000D01*
X1800000D02*
Y1975000D01*
X1760000D01*
Y2015000D01*
X1800000D01*
Y1955000D02*
Y1915000D01*
X1760000D01*
Y1955000D01*
X1800000D01*
X1820000D02*
X1860000D01*
Y1915000D01*
X1820000D01*
Y1955000D01*
X1830000D02*
Y1915000D01*
X1790000D01*
Y1955000D01*
X1830000D01*
X1850000D02*
X1890000D01*
Y1915000D01*
X1850000D01*
Y1955000D01*
X1770000Y2015000D02*
Y1975000D01*
X1730000D01*
Y2015000D01*
X1770000D01*
Y1955000D02*
Y1915000D01*
X1730000D01*
Y1955000D01*
X1770000D01*
X1520000Y2015000D02*
Y1975000D01*
X1480000D01*
Y2015000D01*
X1520000D01*
Y1955000D02*
Y1915000D01*
X1480000D01*
Y1955000D01*
X1520000D01*
X1490000Y2015000D02*
Y1975000D01*
X1450000D01*
Y2015000D01*
X1490000D01*
X1460000D02*
Y1975000D01*
X1420000D01*
Y2015000D01*
X1460000D01*
X1430000D02*
Y1975000D01*
X1390000D01*
Y2015000D01*
X1430000D01*
X1400000D02*
Y1975000D01*
X1360000D01*
Y2015000D01*
X1400000D01*
Y1955000D02*
Y1915000D01*
X1360000D01*
Y1955000D01*
X1400000D01*
X1420000D02*
X1460000D01*
Y1915000D01*
X1420000D01*
Y1955000D01*
X1430000D02*
Y1915000D01*
X1390000D01*
Y1955000D01*
X1430000D01*
X1450000D02*
X1490000D01*
Y1915000D01*
X1450000D01*
Y1955000D01*
X1370000Y2015000D02*
Y1975000D01*
X1330000D01*
Y2015000D01*
X1370000D01*
X1340000D02*
Y1975000D01*
X1300000D01*
Y2015000D01*
X1340000D01*
X1310000D02*
Y1975000D01*
X1270000D01*
Y2015000D01*
X1310000D01*
Y1955000D02*
Y1915000D01*
X1270000D01*
Y1955000D01*
X1310000D01*
X1300000D02*
X1340000D01*
Y1915000D01*
X1300000D01*
Y1955000D01*
X1330000D02*
X1370000D01*
Y1915000D01*
X1330000D01*
Y1955000D01*
X1280000Y2015000D02*
Y1975000D01*
X1240000D01*
Y2015000D01*
X1280000D01*
X1250000D02*
Y1975000D01*
X1210000D01*
Y2015000D01*
X1250000D01*
X1220000D02*
Y1975000D01*
X1180000D01*
Y2015000D01*
X1220000D01*
Y1955000D02*
Y1915000D01*
X1180000D01*
Y1955000D01*
X1220000D01*
X1210000D02*
X1250000D01*
Y1915000D01*
X1210000D01*
Y1955000D01*
X1240000D02*
X1280000D01*
Y1915000D01*
X1240000D01*
Y1955000D01*
X1307730Y1567272D02*
X1347730D01*
X1327730Y1527272D01*
X1307730Y1567272D01*
X1352272D02*
X1392272D01*
X1372272Y1527272D01*
X1352272Y1567272D01*
Y1522730D02*
X1392272D01*
X1372272Y1482730D01*
X1352272Y1522730D01*
X1347730D02*
X1327730Y1482730D01*
X1307730Y1522730D01*
X1347730D01*
X1877730Y1482730D02*
X1857730Y1522730D01*
X1897730D01*
X1877730Y1482730D01*
X1922272D02*
X1902272Y1522730D01*
X1942272D01*
X1922272Y1482730D01*
Y1527272D02*
X1902272Y1567272D01*
X1942272D01*
X1922272Y1527272D01*
X1877730D02*
X1857730Y1567272D01*
X1897730D01*
X1877730Y1527272D01*
X2427730Y1482730D02*
X2407730Y1522730D01*
X2447730D01*
X2427730Y1482730D01*
X2472272D02*
X2452272Y1522730D01*
X2492272D01*
X2472272Y1482730D01*
Y1527272D02*
X2452272Y1567272D01*
X2492272D01*
X2472272Y1527272D01*
X2427730D02*
X2407730Y1567272D01*
X2447730D01*
X2427730Y1527272D01*
X2977730Y1482730D02*
X2957730Y1522730D01*
X2997730D01*
X2977730Y1482730D01*
X3022272D02*
X3002272Y1522730D01*
X3042272D01*
X3022272Y1482730D01*
Y1527272D02*
X3002272Y1567272D01*
X3042272D01*
X3022272Y1527272D01*
X2977730D02*
X2957730Y1567272D01*
X2997730D01*
X2977730Y1527272D01*
X3720000Y2435000D02*
X3680000D01*
Y2475000D01*
X3720000D01*
Y2435000D01*
Y2495000D02*
X3680000D01*
Y2535000D01*
X3720000D01*
Y2495000D01*
X3690000Y2535000D02*
Y2495000D01*
X3650000D01*
Y2535000D01*
X3690000D01*
X3660000D02*
Y2495000D01*
X3620000D01*
Y2535000D01*
X3660000D01*
X3630000D02*
Y2495000D01*
X3590000D01*
Y2535000D01*
X3630000D01*
X3600000D02*
Y2495000D01*
X3560000D01*
Y2535000D01*
X3600000D01*
Y2475000D02*
Y2435000D01*
X3560000D01*
Y2475000D01*
X3600000D01*
X3620000D02*
X3660000D01*
Y2435000D01*
X3620000D01*
Y2475000D01*
X3630000D02*
Y2435000D01*
X3590000D01*
Y2475000D01*
X3630000D01*
X3650000D02*
X3690000D01*
Y2435000D01*
X3650000D01*
Y2475000D01*
X3570000Y2535000D02*
Y2495000D01*
X3530000D01*
Y2535000D01*
X3570000D01*
X3540000D02*
Y2495000D01*
X3500000D01*
Y2535000D01*
X3540000D01*
X3510000D02*
Y2495000D01*
X3470000D01*
Y2535000D01*
X3510000D01*
Y2475000D02*
Y2435000D01*
X3470000D01*
Y2475000D01*
X3510000D01*
X3500000D02*
X3540000D01*
Y2435000D01*
X3500000D01*
Y2475000D01*
X3530000D02*
X3570000D01*
Y2435000D01*
X3530000D01*
Y2475000D01*
X3480000Y2535000D02*
Y2495000D01*
X3440000D01*
Y2535000D01*
X3480000D01*
X3450000D02*
Y2495000D01*
X3410000D01*
Y2535000D01*
X3450000D01*
X3420000D02*
Y2495000D01*
X3380000D01*
Y2535000D01*
X3420000D01*
Y2475000D02*
Y2435000D01*
X3380000D01*
Y2475000D01*
X3420000D01*
X3410000D02*
X3450000D01*
Y2435000D01*
X3410000D01*
Y2475000D01*
X3440000D02*
X3480000D01*
Y2435000D01*
X3440000D01*
Y2475000D01*
X3170000Y2535000D02*
Y2495000D01*
X3130000D01*
Y2535000D01*
X3170000D01*
X3140000D02*
Y2495000D01*
X3100000D01*
Y2535000D01*
X3140000D01*
X3110000D02*
Y2495000D01*
X3070000D01*
Y2535000D01*
X3110000D01*
Y2475000D02*
Y2435000D01*
X3070000D01*
Y2475000D01*
X3110000D01*
X3100000D02*
X3140000D01*
Y2435000D01*
X3100000D01*
Y2475000D01*
X3130000D02*
X3170000D01*
Y2435000D01*
X3130000D01*
Y2475000D01*
X3080000Y2535000D02*
Y2495000D01*
X3040000D01*
Y2535000D01*
X3080000D01*
X3050000D02*
Y2495000D01*
X3010000D01*
Y2535000D01*
X3050000D01*
X3020000D02*
Y2495000D01*
X2980000D01*
Y2535000D01*
X3020000D01*
Y2475000D02*
Y2435000D01*
X2980000D01*
Y2475000D01*
X3020000D01*
X3010000D02*
X3050000D01*
Y2435000D01*
X3010000D01*
Y2475000D01*
X3040000D02*
X3080000D01*
Y2435000D01*
X3040000D01*
Y2475000D01*
X2990000Y2535000D02*
Y2495000D01*
X2950000D01*
Y2535000D01*
X2990000D01*
X2960000D02*
Y2495000D01*
X2920000D01*
Y2535000D01*
X2960000D01*
X2930000D02*
Y2495000D01*
X2890000D01*
Y2535000D01*
X2930000D01*
X2900000D02*
Y2495000D01*
X2860000D01*
Y2535000D01*
X2900000D01*
Y2475000D02*
Y2435000D01*
X2860000D01*
Y2475000D01*
X2900000D01*
X2920000D02*
X2960000D01*
Y2435000D01*
X2920000D01*
Y2475000D01*
X2930000D02*
Y2435000D01*
X2890000D01*
Y2475000D01*
X2930000D01*
X2950000D02*
X2990000D01*
Y2435000D01*
X2950000D01*
Y2475000D01*
X2870000Y2535000D02*
Y2495000D01*
X2830000D01*
Y2535000D01*
X2870000D01*
Y2475000D02*
Y2435000D01*
X2830000D01*
Y2475000D01*
X2870000D01*
X2620000Y2535000D02*
Y2495000D01*
X2580000D01*
Y2535000D01*
X2620000D01*
Y2475000D02*
Y2435000D01*
X2580000D01*
Y2475000D01*
X2620000D01*
X2590000Y2535000D02*
Y2495000D01*
X2550000D01*
Y2535000D01*
X2590000D01*
X2560000D02*
Y2495000D01*
X2520000D01*
Y2535000D01*
X2560000D01*
X2530000D02*
Y2495000D01*
X2490000D01*
Y2535000D01*
X2530000D01*
X2500000D02*
Y2495000D01*
X2460000D01*
Y2535000D01*
X2500000D01*
Y2475000D02*
Y2435000D01*
X2460000D01*
Y2475000D01*
X2500000D01*
X2520000D02*
X2560000D01*
Y2435000D01*
X2520000D01*
Y2475000D01*
X2530000D02*
Y2435000D01*
X2490000D01*
Y2475000D01*
X2530000D01*
X2550000D02*
X2590000D01*
Y2435000D01*
X2550000D01*
Y2475000D01*
X2470000Y2535000D02*
Y2495000D01*
X2430000D01*
Y2535000D01*
X2470000D01*
X2440000D02*
Y2495000D01*
X2400000D01*
Y2535000D01*
X2440000D01*
X2410000D02*
Y2495000D01*
X2370000D01*
Y2535000D01*
X2410000D01*
Y2475000D02*
Y2435000D01*
X2370000D01*
Y2475000D01*
X2410000D01*
X2400000D02*
X2440000D01*
Y2435000D01*
X2400000D01*
Y2475000D01*
X2430000D02*
X2470000D01*
Y2435000D01*
X2430000D01*
Y2475000D01*
X2380000Y2535000D02*
Y2495000D01*
X2340000D01*
Y2535000D01*
X2380000D01*
X2350000D02*
Y2495000D01*
X2310000D01*
Y2535000D01*
X2350000D01*
X2320000D02*
Y2495000D01*
X2280000D01*
Y2535000D01*
X2320000D01*
Y2475000D02*
Y2435000D01*
X2280000D01*
Y2475000D01*
X2320000D01*
X2310000D02*
X2350000D01*
Y2435000D01*
X2310000D01*
Y2475000D01*
X2340000D02*
X2380000D01*
Y2435000D01*
X2340000D01*
Y2475000D01*
X2070000Y2535000D02*
Y2495000D01*
X2030000D01*
Y2535000D01*
X2070000D01*
X2040000D02*
Y2495000D01*
X2000000D01*
Y2535000D01*
X2040000D01*
X2010000D02*
Y2495000D01*
X1970000D01*
Y2535000D01*
X2010000D01*
Y2475000D02*
Y2435000D01*
X1970000D01*
Y2475000D01*
X2010000D01*
X2000000D02*
X2040000D01*
Y2435000D01*
X2000000D01*
Y2475000D01*
X2030000D02*
X2070000D01*
Y2435000D01*
X2030000D01*
Y2475000D01*
X1980000Y2535000D02*
Y2495000D01*
X1940000D01*
Y2535000D01*
X1980000D01*
X1950000D02*
Y2495000D01*
X1910000D01*
Y2535000D01*
X1950000D01*
X1920000D02*
Y2495000D01*
X1880000D01*
Y2535000D01*
X1920000D01*
Y2475000D02*
Y2435000D01*
X1880000D01*
Y2475000D01*
X1920000D01*
X1910000D02*
X1950000D01*
Y2435000D01*
X1910000D01*
Y2475000D01*
X1940000D02*
X1980000D01*
Y2435000D01*
X1940000D01*
Y2475000D01*
X1890000Y2535000D02*
Y2495000D01*
X1850000D01*
Y2535000D01*
X1890000D01*
X1860000D02*
Y2495000D01*
X1820000D01*
Y2535000D01*
X1860000D01*
X1830000D02*
Y2495000D01*
X1790000D01*
Y2535000D01*
X1830000D01*
X1800000D02*
Y2495000D01*
X1760000D01*
Y2535000D01*
X1800000D01*
Y2475000D02*
Y2435000D01*
X1760000D01*
Y2475000D01*
X1800000D01*
X1820000D02*
X1860000D01*
Y2435000D01*
X1820000D01*
Y2475000D01*
X1830000D02*
Y2435000D01*
X1790000D01*
Y2475000D01*
X1830000D01*
X1850000D02*
X1890000D01*
Y2435000D01*
X1850000D01*
Y2475000D01*
X1770000Y2535000D02*
Y2495000D01*
X1730000D01*
Y2535000D01*
X1770000D01*
Y2475000D02*
Y2435000D01*
X1730000D01*
Y2475000D01*
X1770000D01*
X1520000Y2535000D02*
Y2495000D01*
X1480000D01*
Y2535000D01*
X1520000D01*
Y2475000D02*
Y2435000D01*
X1480000D01*
Y2475000D01*
X1520000D01*
X1490000Y2535000D02*
Y2495000D01*
X1450000D01*
Y2535000D01*
X1490000D01*
X1460000D02*
Y2495000D01*
X1420000D01*
Y2535000D01*
X1460000D01*
X1430000D02*
Y2495000D01*
X1390000D01*
Y2535000D01*
X1430000D01*
X1400000D02*
Y2495000D01*
X1360000D01*
Y2535000D01*
X1400000D01*
Y2475000D02*
Y2435000D01*
X1360000D01*
Y2475000D01*
X1400000D01*
X1420000D02*
X1460000D01*
Y2435000D01*
X1420000D01*
Y2475000D01*
X1430000D02*
Y2435000D01*
X1390000D01*
Y2475000D01*
X1430000D01*
X1450000D02*
X1490000D01*
Y2435000D01*
X1450000D01*
Y2475000D01*
X1370000Y2535000D02*
Y2495000D01*
X1330000D01*
Y2535000D01*
X1370000D01*
X1340000D02*
Y2495000D01*
X1300000D01*
Y2535000D01*
X1340000D01*
X1310000D02*
Y2495000D01*
X1270000D01*
Y2535000D01*
X1310000D01*
Y2475000D02*
Y2435000D01*
X1270000D01*
Y2475000D01*
X1310000D01*
X1300000D02*
X1340000D01*
Y2435000D01*
X1300000D01*
Y2475000D01*
X1330000D02*
X1370000D01*
Y2435000D01*
X1330000D01*
Y2475000D01*
X1280000Y2535000D02*
Y2495000D01*
X1240000D01*
Y2535000D01*
X1280000D01*
X1250000D02*
Y2495000D01*
X1210000D01*
Y2535000D01*
X1250000D01*
X1220000D02*
Y2495000D01*
X1180000D01*
Y2535000D01*
X1220000D01*
Y2475000D02*
Y2435000D01*
X1180000D01*
Y2475000D01*
X1220000D01*
X1210000D02*
X1250000D01*
Y2435000D01*
X1210000D01*
Y2475000D01*
X1240000D02*
X1280000D01*
Y2435000D01*
X1240000D01*
Y2475000D01*
X1327730Y2882730D02*
X1307730Y2922730D01*
X1347730D01*
X1327730Y2882730D01*
X1372272D02*
X1352272Y2922730D01*
X1392272D01*
X1372272Y2882730D01*
Y2927272D02*
X1352272Y2967272D01*
X1392272D01*
X1372272Y2927272D01*
X1327730D02*
X1307730Y2967272D01*
X1347730D01*
X1327730Y2927272D01*
X1730000Y3315000D02*
Y3355000D01*
X1770000D01*
Y3315000D01*
X1730000D01*
X1760000D02*
Y3355000D01*
X1800000D01*
Y3315000D01*
X1760000D01*
X1790000D02*
Y3355000D01*
X1830000D01*
Y3315000D01*
X1790000D01*
Y3375000D02*
Y3415000D01*
X1830000D01*
Y3375000D01*
X1790000D01*
X1770000D02*
X1730000D01*
Y3415000D01*
X1770000D01*
Y3375000D01*
X1760000D02*
Y3415000D01*
X1800000D01*
Y3375000D01*
X1760000D01*
X1820000D02*
Y3415000D01*
X1860000D01*
Y3375000D01*
X1820000D01*
Y3355000D02*
X1860000D01*
Y3315000D01*
X1820000D01*
Y3355000D01*
X1850000D02*
X1890000D01*
Y3315000D01*
X1850000D01*
Y3355000D01*
Y3375000D02*
Y3415000D01*
X1890000D01*
Y3375000D01*
X1850000D01*
X1880000D02*
Y3415000D01*
X1920000D01*
Y3375000D01*
X1880000D01*
Y3355000D02*
X1920000D01*
Y3315000D01*
X1880000D01*
Y3355000D01*
X1910000D02*
X1950000D01*
Y3315000D01*
X1910000D01*
Y3355000D01*
Y3375000D02*
Y3415000D01*
X1950000D01*
Y3375000D01*
X1910000D01*
X1940000D02*
Y3415000D01*
X1980000D01*
Y3375000D01*
X1940000D01*
Y3355000D02*
X1980000D01*
Y3315000D01*
X1940000D01*
Y3355000D01*
X1970000D02*
X2010000D01*
Y3315000D01*
X1970000D01*
Y3355000D01*
Y3375000D02*
Y3415000D01*
X2010000D01*
Y3375000D01*
X1970000D01*
X2000000D02*
Y3415000D01*
X2040000D01*
Y3375000D01*
X2000000D01*
Y3355000D02*
X2040000D01*
Y3315000D01*
X2000000D01*
Y3355000D01*
X2030000D02*
X2070000D01*
Y3315000D01*
X2030000D01*
Y3355000D01*
Y3375000D02*
Y3415000D01*
X2070000D01*
Y3375000D01*
X2030000D01*
X2280000D02*
Y3415000D01*
X2320000D01*
Y3375000D01*
X2280000D01*
Y3355000D02*
X2320000D01*
Y3315000D01*
X2280000D01*
Y3355000D01*
X2310000D02*
X2350000D01*
Y3315000D01*
X2310000D01*
Y3355000D01*
Y3375000D02*
Y3415000D01*
X2350000D01*
Y3375000D01*
X2310000D01*
X2340000D02*
Y3415000D01*
X2380000D01*
Y3375000D01*
X2340000D01*
Y3355000D02*
X2380000D01*
Y3315000D01*
X2340000D01*
Y3355000D01*
X2370000D02*
X2410000D01*
Y3315000D01*
X2370000D01*
Y3355000D01*
Y3375000D02*
Y3415000D01*
X2410000D01*
Y3375000D01*
X2370000D01*
X2400000D02*
Y3415000D01*
X2440000D01*
Y3375000D01*
X2400000D01*
Y3355000D02*
X2440000D01*
Y3315000D01*
X2400000D01*
Y3355000D01*
X2430000D02*
X2470000D01*
Y3315000D01*
X2430000D01*
Y3355000D01*
Y3375000D02*
Y3415000D01*
X2470000D01*
Y3375000D01*
X2430000D01*
X2460000D02*
Y3415000D01*
X2500000D01*
Y3375000D01*
X2460000D01*
Y3355000D02*
X2500000D01*
Y3315000D01*
X2460000D01*
Y3355000D01*
X2490000D02*
X2530000D01*
Y3315000D01*
X2490000D01*
Y3355000D01*
Y3375000D02*
Y3415000D01*
X2530000D01*
Y3375000D01*
X2490000D01*
X2520000D02*
Y3415000D01*
X2560000D01*
Y3375000D01*
X2520000D01*
Y3355000D02*
X2560000D01*
Y3315000D01*
X2520000D01*
Y3355000D01*
X2550000D02*
X2590000D01*
Y3315000D01*
X2550000D01*
Y3355000D01*
Y3375000D02*
Y3415000D01*
X2590000D01*
Y3375000D01*
X2550000D01*
X2580000D02*
Y3415000D01*
X2620000D01*
Y3375000D01*
X2580000D01*
Y3355000D02*
X2620000D01*
Y3315000D01*
X2580000D01*
Y3355000D01*
X2830000D02*
X2870000D01*
Y3315000D01*
X2830000D01*
Y3355000D01*
Y3375000D02*
Y3415000D01*
X2870000D01*
Y3375000D01*
X2830000D01*
X2860000D02*
Y3415000D01*
X2900000D01*
Y3375000D01*
X2860000D01*
Y3355000D02*
X2900000D01*
Y3315000D01*
X2860000D01*
Y3355000D01*
X2890000D02*
X2930000D01*
Y3315000D01*
X2890000D01*
Y3355000D01*
Y3375000D02*
Y3415000D01*
X2930000D01*
Y3375000D01*
X2890000D01*
X2920000D02*
Y3415000D01*
X2960000D01*
Y3375000D01*
X2920000D01*
Y3355000D02*
X2960000D01*
Y3315000D01*
X2920000D01*
Y3355000D01*
X2950000D02*
X2990000D01*
Y3315000D01*
X2950000D01*
Y3355000D01*
Y3375000D02*
Y3415000D01*
X2990000D01*
Y3375000D01*
X2950000D01*
X2980000D02*
Y3415000D01*
X3020000D01*
Y3375000D01*
X2980000D01*
Y3355000D02*
X3020000D01*
Y3315000D01*
X2980000D01*
Y3355000D01*
X3010000D02*
X3050000D01*
Y3315000D01*
X3010000D01*
Y3355000D01*
Y3375000D02*
Y3415000D01*
X3050000D01*
Y3375000D01*
X3010000D01*
X3040000D02*
Y3415000D01*
X3080000D01*
Y3375000D01*
X3040000D01*
Y3355000D02*
X3080000D01*
Y3315000D01*
X3040000D01*
Y3355000D01*
X3070000D02*
X3110000D01*
Y3315000D01*
X3070000D01*
Y3355000D01*
Y3375000D02*
Y3415000D01*
X3110000D01*
Y3375000D01*
X3070000D01*
X3100000D02*
Y3415000D01*
X3140000D01*
Y3375000D01*
X3100000D01*
Y3355000D02*
X3140000D01*
Y3315000D01*
X3100000D01*
Y3355000D01*
X3130000D02*
X3170000D01*
Y3315000D01*
X3130000D01*
Y3355000D01*
Y3375000D02*
Y3415000D01*
X3170000D01*
Y3375000D01*
X3130000D01*
X3380000D02*
Y3415000D01*
X3420000D01*
Y3375000D01*
X3380000D01*
Y3355000D02*
X3420000D01*
Y3315000D01*
X3380000D01*
Y3355000D01*
X3410000D02*
X3450000D01*
Y3315000D01*
X3410000D01*
Y3355000D01*
Y3375000D02*
Y3415000D01*
X3450000D01*
Y3375000D01*
X3410000D01*
X3440000D02*
Y3415000D01*
X3480000D01*
Y3375000D01*
X3440000D01*
Y3355000D02*
X3480000D01*
Y3315000D01*
X3440000D01*
Y3355000D01*
X3470000D02*
X3510000D01*
Y3315000D01*
X3470000D01*
Y3355000D01*
Y3375000D02*
Y3415000D01*
X3510000D01*
Y3375000D01*
X3470000D01*
X3500000D02*
Y3415000D01*
X3540000D01*
Y3375000D01*
X3500000D01*
Y3355000D02*
X3540000D01*
Y3315000D01*
X3500000D01*
Y3355000D01*
X3530000D02*
X3570000D01*
Y3315000D01*
X3530000D01*
Y3355000D01*
Y3375000D02*
Y3415000D01*
X3570000D01*
Y3375000D01*
X3530000D01*
X3560000D02*
Y3415000D01*
X3600000D01*
Y3375000D01*
X3560000D01*
Y3355000D02*
X3600000D01*
Y3315000D01*
X3560000D01*
Y3355000D01*
X3590000D02*
X3630000D01*
Y3315000D01*
X3590000D01*
Y3355000D01*
Y3375000D02*
Y3415000D01*
X3630000D01*
Y3375000D01*
X3590000D01*
X3620000D02*
Y3415000D01*
X3660000D01*
Y3375000D01*
X3620000D01*
Y3355000D02*
X3660000D01*
Y3315000D01*
X3620000D01*
Y3355000D01*
X3650000D02*
X3690000D01*
Y3315000D01*
X3650000D01*
Y3355000D01*
Y3375000D02*
Y3415000D01*
X3690000D01*
Y3375000D01*
X3650000D01*
X3680000D02*
Y3415000D01*
X3720000D01*
Y3375000D01*
X3680000D01*
Y3355000D02*
X3720000D01*
Y3315000D01*
X3680000D01*
Y3355000D01*
X3592272Y2967272D02*
X3572272Y2927272D01*
X3552272Y2967272D01*
X3592272D01*
Y2922730D02*
X3572272Y2882730D01*
X3552272Y2922730D01*
X3592272D01*
X3547730D02*
X3527730Y2882730D01*
X3507730Y2922730D01*
X3547730D01*
X3527730Y2927272D02*
X3507730Y2967272D01*
X3547730D01*
X3527730Y2927272D01*
X3042272Y2922730D02*
X3022272Y2882730D01*
X3002272Y2922730D01*
X3042272D01*
X3022272Y2927272D02*
X3002272Y2967272D01*
X3042272D01*
X3022272Y2927272D01*
X2997730Y2922730D02*
X2977730Y2882730D01*
X2957730Y2922730D01*
X2997730D01*
X2977730Y2927272D02*
X2957730Y2967272D01*
X2997730D01*
X2977730Y2927272D01*
X2492272Y2922730D02*
X2472272Y2882730D01*
X2452272Y2922730D01*
X2492272D01*
X2472272Y2927272D02*
X2452272Y2967272D01*
X2492272D01*
X2472272Y2927272D01*
X2447730Y2922730D02*
X2427730Y2882730D01*
X2407730Y2922730D01*
X2447730D01*
X2427730Y2927272D02*
X2407730Y2967272D01*
X2447730D01*
X2427730Y2927272D01*
X1942272Y2922730D02*
X1922272Y2882730D01*
X1902272Y2922730D01*
X1942272D01*
X1922272Y2927272D02*
X1902272Y2967272D01*
X1942272D01*
X1922272Y2927272D01*
X1897730Y2922730D02*
X1877730Y2882730D01*
X1857730Y2922730D01*
X1897730D01*
X1877730Y2927272D02*
X1857730Y2967272D01*
X1897730D01*
X1877730Y2927272D01*
X1520000Y3315000D02*
X1480000D01*
Y3355000D01*
X1520000D01*
Y3315000D01*
Y3375000D02*
X1480000D01*
Y3415000D01*
X1520000D01*
Y3375000D01*
X1490000Y3415000D02*
Y3375000D01*
X1450000D01*
Y3415000D01*
X1490000D01*
X1460000D02*
Y3375000D01*
X1420000D01*
Y3415000D01*
X1460000D01*
X1430000D02*
Y3375000D01*
X1390000D01*
Y3415000D01*
X1430000D01*
X1400000D02*
Y3375000D01*
X1360000D01*
Y3415000D01*
X1400000D01*
Y3355000D02*
Y3315000D01*
X1360000D01*
Y3355000D01*
X1400000D01*
X1420000D02*
X1460000D01*
Y3315000D01*
X1420000D01*
Y3355000D01*
X1430000D02*
Y3315000D01*
X1390000D01*
Y3355000D01*
X1430000D01*
X1450000D02*
X1490000D01*
Y3315000D01*
X1450000D01*
Y3355000D01*
X1370000Y3415000D02*
Y3375000D01*
X1330000D01*
Y3415000D01*
X1370000D01*
X1340000D02*
Y3375000D01*
X1300000D01*
Y3415000D01*
X1340000D01*
X1310000D02*
Y3375000D01*
X1270000D01*
Y3415000D01*
X1310000D01*
Y3355000D02*
Y3315000D01*
X1270000D01*
Y3355000D01*
X1310000D01*
X1300000D02*
X1340000D01*
Y3315000D01*
X1300000D01*
Y3355000D01*
X1330000D02*
X1370000D01*
Y3315000D01*
X1330000D01*
Y3355000D01*
X1280000Y3415000D02*
Y3375000D01*
X1240000D01*
Y3415000D01*
X1280000D01*
X1250000D02*
Y3375000D01*
X1210000D01*
Y3415000D01*
X1250000D01*
X1220000D02*
Y3375000D01*
X1180000D01*
Y3415000D01*
X1220000D01*
Y3355000D02*
Y3315000D01*
X1180000D01*
Y3355000D01*
X1220000D01*
X1210000D02*
X1250000D01*
Y3315000D01*
X1210000D01*
Y3355000D01*
X1240000D02*
X1280000D01*
Y3315000D01*
X1240000D01*
Y3355000D01*
D631*
X1220000Y1175000D02*
G03*
X1220000Y1175000I-20000J0D01*
G01*
Y1275000D02*
G03*
X1220000Y1275000I-20000J0D01*
G01*
Y1375000D02*
G03*
X1220000Y1375000I-20000J0D01*
G01*
Y1475000D02*
G03*
X1220000Y1475000I-20000J0D01*
G01*
Y1575000D02*
G03*
X1220000Y1575000I-20000J0D01*
G01*
Y1675000D02*
G03*
X1220000Y1675000I-20000J0D01*
G01*
Y1775000D02*
G03*
X1220000Y1775000I-20000J0D01*
G01*
Y1875000D02*
G03*
X1220000Y1875000I-20000J0D01*
G01*
X1520000Y1575000D02*
G03*
X1520000Y1575000I-20000J0D01*
G01*
Y1475000D02*
G03*
X1520000Y1475000I-20000J0D01*
G01*
Y1375000D02*
G03*
X1520000Y1375000I-20000J0D01*
G01*
Y1275000D02*
G03*
X1520000Y1275000I-20000J0D01*
G01*
Y1175000D02*
G03*
X1520000Y1175000I-20000J0D01*
G01*
X1770000D02*
G03*
X1770000Y1175000I-20000J0D01*
G01*
Y1275000D02*
G03*
X1770000Y1275000I-20000J0D01*
G01*
Y1375000D02*
G03*
X1770000Y1375000I-20000J0D01*
G01*
Y1475000D02*
G03*
X1770000Y1475000I-20000J0D01*
G01*
Y1575000D02*
G03*
X1770000Y1575000I-20000J0D01*
G01*
Y1675000D02*
G03*
X1770000Y1675000I-20000J0D01*
G01*
Y1775000D02*
G03*
X1770000Y1775000I-20000J0D01*
G01*
Y1875000D02*
G03*
X1770000Y1875000I-20000J0D01*
G01*
X1520000D02*
G03*
X1520000Y1875000I-20000J0D01*
G01*
Y1775000D02*
G03*
X1520000Y1775000I-20000J0D01*
G01*
Y1675000D02*
G03*
X1520000Y1675000I-20000J0D01*
G01*
X2070000Y1175000D02*
G03*
X2070000Y1175000I-20000J0D01*
G01*
Y1275000D02*
G03*
X2070000Y1275000I-20000J0D01*
G01*
Y1375000D02*
G03*
X2070000Y1375000I-20000J0D01*
G01*
Y1475000D02*
G03*
X2070000Y1475000I-20000J0D01*
G01*
Y1575000D02*
G03*
X2070000Y1575000I-20000J0D01*
G01*
Y1675000D02*
G03*
X2070000Y1675000I-20000J0D01*
G01*
Y1775000D02*
G03*
X2070000Y1775000I-20000J0D01*
G01*
Y1875000D02*
G03*
X2070000Y1875000I-20000J0D01*
G01*
X2320000Y1575000D02*
G03*
X2320000Y1575000I-20000J0D01*
G01*
Y1475000D02*
G03*
X2320000Y1475000I-20000J0D01*
G01*
Y1375000D02*
G03*
X2320000Y1375000I-20000J0D01*
G01*
Y1275000D02*
G03*
X2320000Y1275000I-20000J0D01*
G01*
Y1175000D02*
G03*
X2320000Y1175000I-20000J0D01*
G01*
X2620000D02*
G03*
X2620000Y1175000I-20000J0D01*
G01*
Y1275000D02*
G03*
X2620000Y1275000I-20000J0D01*
G01*
Y1375000D02*
G03*
X2620000Y1375000I-20000J0D01*
G01*
Y1475000D02*
G03*
X2620000Y1475000I-20000J0D01*
G01*
Y1575000D02*
G03*
X2620000Y1575000I-20000J0D01*
G01*
Y1675000D02*
G03*
X2620000Y1675000I-20000J0D01*
G01*
Y1775000D02*
G03*
X2620000Y1775000I-20000J0D01*
G01*
Y1875000D02*
G03*
X2620000Y1875000I-20000J0D01*
G01*
X2870000Y1675000D02*
G03*
X2870000Y1675000I-20000J0D01*
G01*
Y1575000D02*
G03*
X2870000Y1575000I-20000J0D01*
G01*
Y1475000D02*
G03*
X2870000Y1475000I-20000J0D01*
G01*
Y1375000D02*
G03*
X2870000Y1375000I-20000J0D01*
G01*
Y1275000D02*
G03*
X2870000Y1275000I-20000J0D01*
G01*
Y1175000D02*
G03*
X2870000Y1175000I-20000J0D01*
G01*
X3170000D02*
G03*
X3170000Y1175000I-20000J0D01*
G01*
Y1275000D02*
G03*
X3170000Y1275000I-20000J0D01*
G01*
Y1375000D02*
G03*
X3170000Y1375000I-20000J0D01*
G01*
Y1475000D02*
G03*
X3170000Y1475000I-20000J0D01*
G01*
Y1575000D02*
G03*
X3170000Y1575000I-20000J0D01*
G01*
Y1675000D02*
G03*
X3170000Y1675000I-20000J0D01*
G01*
Y1775000D02*
G03*
X3170000Y1775000I-20000J0D01*
G01*
Y1875000D02*
G03*
X3170000Y1875000I-20000J0D01*
G01*
X3420000Y1575000D02*
G03*
X3420000Y1575000I-20000J0D01*
G01*
Y1475000D02*
G03*
X3420000Y1475000I-20000J0D01*
G01*
Y1375000D02*
G03*
X3420000Y1375000I-20000J0D01*
G01*
Y1275000D02*
G03*
X3420000Y1275000I-20000J0D01*
G01*
Y1175000D02*
G03*
X3420000Y1175000I-20000J0D01*
G01*
X3720000D02*
G03*
X3720000Y1175000I-20000J0D01*
G01*
Y1275000D02*
G03*
X3720000Y1275000I-20000J0D01*
G01*
Y1375000D02*
G03*
X3720000Y1375000I-20000J0D01*
G01*
Y1475000D02*
G03*
X3720000Y1475000I-20000J0D01*
G01*
Y1575000D02*
G03*
X3720000Y1575000I-20000J0D01*
G01*
Y1675000D02*
G03*
X3720000Y1675000I-20000J0D01*
G01*
Y1775000D02*
G03*
X3720000Y1775000I-20000J0D01*
G01*
Y1875000D02*
G03*
X3720000Y1875000I-20000J0D01*
G01*
X3420000D02*
G03*
X3420000Y1875000I-20000J0D01*
G01*
Y1775000D02*
G03*
X3420000Y1775000I-20000J0D01*
G01*
Y1675000D02*
G03*
X3420000Y1675000I-20000J0D01*
G01*
X2870000Y1875000D02*
G03*
X2870000Y1875000I-20000J0D01*
G01*
Y1775000D02*
G03*
X2870000Y1775000I-20000J0D01*
G01*
X2320000Y1875000D02*
G03*
X2320000Y1875000I-20000J0D01*
G01*
Y1775000D02*
G03*
X2320000Y1775000I-20000J0D01*
G01*
Y1675000D02*
G03*
X2320000Y1675000I-20000J0D01*
G01*
X3170000Y2575000D02*
G03*
X3170000Y2575000I-20000J0D01*
G01*
Y2675000D02*
G03*
X3170000Y2675000I-20000J0D01*
G01*
Y2775000D02*
G03*
X3170000Y2775000I-20000J0D01*
G01*
Y2875000D02*
G03*
X3170000Y2875000I-20000J0D01*
G01*
Y2975000D02*
G03*
X3170000Y2975000I-20000J0D01*
G01*
Y3075000D02*
G03*
X3170000Y3075000I-20000J0D01*
G01*
Y3175000D02*
G03*
X3170000Y3175000I-20000J0D01*
G01*
Y3275000D02*
G03*
X3170000Y3275000I-20000J0D01*
G01*
X3420000Y2975000D02*
G03*
X3420000Y2975000I-20000J0D01*
G01*
Y2875000D02*
G03*
X3420000Y2875000I-20000J0D01*
G01*
Y2775000D02*
G03*
X3420000Y2775000I-20000J0D01*
G01*
Y2675000D02*
G03*
X3420000Y2675000I-20000J0D01*
G01*
Y2575000D02*
G03*
X3420000Y2575000I-20000J0D01*
G01*
X3720000D02*
G03*
X3720000Y2575000I-20000J0D01*
G01*
Y2675000D02*
G03*
X3720000Y2675000I-20000J0D01*
G01*
Y2775000D02*
G03*
X3720000Y2775000I-20000J0D01*
G01*
Y2875000D02*
G03*
X3720000Y2875000I-20000J0D01*
G01*
Y2975000D02*
G03*
X3720000Y2975000I-20000J0D01*
G01*
Y3075000D02*
G03*
X3720000Y3075000I-20000J0D01*
G01*
Y3175000D02*
G03*
X3720000Y3175000I-20000J0D01*
G01*
Y3275000D02*
G03*
X3720000Y3275000I-20000J0D01*
G01*
X3420000D02*
G03*
X3420000Y3275000I-20000J0D01*
G01*
Y3175000D02*
G03*
X3420000Y3175000I-20000J0D01*
G01*
Y3075000D02*
G03*
X3420000Y3075000I-20000J0D01*
G01*
X2870000Y3275000D02*
G03*
X2870000Y3275000I-20000J0D01*
G01*
Y3175000D02*
G03*
X2870000Y3175000I-20000J0D01*
G01*
Y3075000D02*
G03*
X2870000Y3075000I-20000J0D01*
G01*
Y2975000D02*
G03*
X2870000Y2975000I-20000J0D01*
G01*
Y2875000D02*
G03*
X2870000Y2875000I-20000J0D01*
G01*
Y2775000D02*
G03*
X2870000Y2775000I-20000J0D01*
G01*
Y2675000D02*
G03*
X2870000Y2675000I-20000J0D01*
G01*
Y2575000D02*
G03*
X2870000Y2575000I-20000J0D01*
G01*
X2620000Y2775000D02*
G03*
X2620000Y2775000I-20000J0D01*
G01*
Y2675000D02*
G03*
X2620000Y2675000I-20000J0D01*
G01*
Y2575000D02*
G03*
X2620000Y2575000I-20000J0D01*
G01*
Y2875000D02*
G03*
X2620000Y2875000I-20000J0D01*
G01*
Y2975000D02*
G03*
X2620000Y2975000I-20000J0D01*
G01*
Y3075000D02*
G03*
X2620000Y3075000I-20000J0D01*
G01*
Y3175000D02*
G03*
X2620000Y3175000I-20000J0D01*
G01*
Y3275000D02*
G03*
X2620000Y3275000I-20000J0D01*
G01*
X2320000D02*
G03*
X2320000Y3275000I-20000J0D01*
G01*
Y3175000D02*
G03*
X2320000Y3175000I-20000J0D01*
G01*
Y3075000D02*
G03*
X2320000Y3075000I-20000J0D01*
G01*
Y2975000D02*
G03*
X2320000Y2975000I-20000J0D01*
G01*
Y2875000D02*
G03*
X2320000Y2875000I-20000J0D01*
G01*
Y2775000D02*
G03*
X2320000Y2775000I-20000J0D01*
G01*
Y2675000D02*
G03*
X2320000Y2675000I-20000J0D01*
G01*
Y2575000D02*
G03*
X2320000Y2575000I-20000J0D01*
G01*
X2070000Y2875000D02*
G03*
X2070000Y2875000I-20000J0D01*
G01*
Y2775000D02*
G03*
X2070000Y2775000I-20000J0D01*
G01*
Y2675000D02*
G03*
X2070000Y2675000I-20000J0D01*
G01*
Y2575000D02*
G03*
X2070000Y2575000I-20000J0D01*
G01*
X1770000Y2875000D02*
G03*
X1770000Y2875000I-20000J0D01*
G01*
Y2775000D02*
G03*
X1770000Y2775000I-20000J0D01*
G01*
Y2675000D02*
G03*
X1770000Y2675000I-20000J0D01*
G01*
Y2575000D02*
G03*
X1770000Y2575000I-20000J0D01*
G01*
X1520000Y2775000D02*
G03*
X1520000Y2775000I-20000J0D01*
G01*
Y2675000D02*
G03*
X1520000Y2675000I-20000J0D01*
G01*
Y2575000D02*
G03*
X1520000Y2575000I-20000J0D01*
G01*
Y2875000D02*
G03*
X1520000Y2875000I-20000J0D01*
G01*
Y2975000D02*
G03*
X1520000Y2975000I-20000J0D01*
G01*
Y3075000D02*
G03*
X1520000Y3075000I-20000J0D01*
G01*
Y3175000D02*
G03*
X1520000Y3175000I-20000J0D01*
G01*
Y3275000D02*
G03*
X1520000Y3275000I-20000J0D01*
G01*
X1770000Y3075000D02*
G03*
X1770000Y3075000I-20000J0D01*
G01*
Y2975000D02*
G03*
X1770000Y2975000I-20000J0D01*
G01*
Y3175000D02*
G03*
X1770000Y3175000I-20000J0D01*
G01*
Y3275000D02*
G03*
X1770000Y3275000I-20000J0D01*
G01*
X2070000Y2975000D02*
G03*
X2070000Y2975000I-20000J0D01*
G01*
Y3075000D02*
G03*
X2070000Y3075000I-20000J0D01*
G01*
Y3175000D02*
G03*
X2070000Y3175000I-20000J0D01*
G01*
Y3275000D02*
G03*
X2070000Y3275000I-20000J0D01*
G01*
X1220000D02*
G03*
X1220000Y3275000I-20000J0D01*
G01*
Y3175000D02*
G03*
X1220000Y3175000I-20000J0D01*
G01*
Y3075000D02*
G03*
X1220000Y3075000I-20000J0D01*
G01*
Y2975000D02*
G03*
X1220000Y2975000I-20000J0D01*
G01*
Y2875000D02*
G03*
X1220000Y2875000I-20000J0D01*
G01*
Y2775000D02*
G03*
X1220000Y2775000I-20000J0D01*
G01*
Y2675000D02*
G03*
X1220000Y2675000I-20000J0D01*
G01*
Y2575000D02*
G03*
X1220000Y2575000I-20000J0D01*
G01*
%TF.MD5,a6a4543b7079d99814a3409260e3b06e*%
M02*
