%TF.GenerationSoftware,Altium Limited,Altium Designer,21.6.4 (81)*%
G04 Layer_Color=0*
%FSLAX26Y26*%
%MOIN*%
%TF.SameCoordinates,5FA90F47-3B47-4036-B415-51D33840892C*%
%TF.FilePolarity,Positive*%
%TF.FileFunction,Plated,1,2,PTH,Drill*%
%TF.Part,CustomerPanel*%
G01*
G75*
%TA.AperFunction,OtherDrill,Pad Free-13 (1200mil,1055mil)*%
%ADD29C,0.019685*%
%TA.AperFunction,OtherDrill,Pad Free-13 (1230mil,1055mil)*%
%ADD30C,0.019685*%
%TA.AperFunction,OtherDrill,Pad Free-13 (1260mil,1055mil)*%
%ADD31C,0.019685*%
%TA.AperFunction,OtherDrill,Pad Free-13 (1290mil,1055mil)*%
%ADD32C,0.019685*%
%TA.AperFunction,OtherDrill,Pad Free-13 (1320mil,1055mil)*%
%ADD33C,0.019685*%
%TA.AperFunction,OtherDrill,Pad Free-13 (1350mil,1055mil)*%
%ADD34C,0.019685*%
%TA.AperFunction,OtherDrill,Pad Free-13 (1380mil,1055mil)*%
%ADD35C,0.019685*%
%TA.AperFunction,OtherDrill,Pad Free-13 (1410mil,1055mil)*%
%ADD36C,0.019685*%
%TA.AperFunction,OtherDrill,Pad Free-13 (1440mil,1055mil)*%
%ADD37C,0.019685*%
%TA.AperFunction,OtherDrill,Pad Free-13 (1470mil,1055mil)*%
%ADD38C,0.019685*%
%TA.AperFunction,OtherDrill,Pad Free-13 (1500mil,1055mil)*%
%ADD39C,0.019685*%
%TA.AperFunction,OtherDrill,Pad Free-13 (1500mil,1115mil)*%
%ADD40C,0.019685*%
%TA.AperFunction,OtherDrill,Pad Free-13 (1470mil,1115mil)*%
%ADD41C,0.019685*%
%TA.AperFunction,OtherDrill,Pad Free-13 (1440mil,1115mil)*%
%ADD42C,0.019685*%
%TA.AperFunction,OtherDrill,Pad Free-13 (1410mil,1115mil)*%
%ADD43C,0.019685*%
%TA.AperFunction,OtherDrill,Pad Free-13 (1380mil,1115mil)*%
%ADD44C,0.019685*%
%TA.AperFunction,OtherDrill,Pad Free-13 (1350mil,1115mil)*%
%ADD45C,0.019685*%
%TA.AperFunction,OtherDrill,Pad Free-13 (1320mil,1115mil)*%
%ADD46C,0.019685*%
%TA.AperFunction,OtherDrill,Pad Free-13 (1290mil,1115mil)*%
%ADD47C,0.019685*%
%TA.AperFunction,OtherDrill,Pad Free-13 (1260mil,1115mil)*%
%ADD48C,0.019685*%
%TA.AperFunction,OtherDrill,Pad Free-13 (1230mil,1115mil)*%
%ADD49C,0.019685*%
%TA.AperFunction,OtherDrill,Pad Free-13 (1200mil,1115mil)*%
%ADD50C,0.019685*%
%TA.AperFunction,OtherDrill,Pad Free-13 (1750mil,1055mil)*%
%ADD51C,0.019685*%
%TA.AperFunction,OtherDrill,Pad Free-13 (1780mil,1055mil)*%
%ADD52C,0.019685*%
%TA.AperFunction,OtherDrill,Pad Free-13 (1810mil,1055mil)*%
%ADD53C,0.019685*%
%TA.AperFunction,OtherDrill,Pad Free-13 (1840mil,1055mil)*%
%ADD54C,0.019685*%
%TA.AperFunction,OtherDrill,Pad Free-13 (1870mil,1055mil)*%
%ADD55C,0.019685*%
%TA.AperFunction,OtherDrill,Pad Free-13 (1900mil,1055mil)*%
%ADD56C,0.019685*%
%TA.AperFunction,OtherDrill,Pad Free-13 (1930mil,1055mil)*%
%ADD57C,0.019685*%
%TA.AperFunction,OtherDrill,Pad Free-13 (1960mil,1055mil)*%
%ADD58C,0.019685*%
%TA.AperFunction,OtherDrill,Pad Free-13 (1990mil,1055mil)*%
%ADD59C,0.019685*%
%TA.AperFunction,OtherDrill,Pad Free-13 (2020mil,1055mil)*%
%ADD60C,0.019685*%
%TA.AperFunction,OtherDrill,Pad Free-13 (2050mil,1055mil)*%
%ADD61C,0.019685*%
%TA.AperFunction,OtherDrill,Pad Free-13 (2050mil,1115mil)*%
%ADD62C,0.019685*%
%TA.AperFunction,OtherDrill,Pad Free-13 (2020mil,1115mil)*%
%ADD63C,0.019685*%
%TA.AperFunction,OtherDrill,Pad Free-13 (1990mil,1115mil)*%
%ADD64C,0.019685*%
%TA.AperFunction,OtherDrill,Pad Free-13 (1960mil,1115mil)*%
%ADD65C,0.019685*%
%TA.AperFunction,OtherDrill,Pad Free-13 (1930mil,1115mil)*%
%ADD66C,0.019685*%
%TA.AperFunction,OtherDrill,Pad Free-13 (1900mil,1115mil)*%
%ADD67C,0.019685*%
%TA.AperFunction,OtherDrill,Pad Free-13 (1870mil,1115mil)*%
%ADD68C,0.019685*%
%TA.AperFunction,OtherDrill,Pad Free-13 (1840mil,1115mil)*%
%ADD69C,0.019685*%
%TA.AperFunction,OtherDrill,Pad Free-13 (1810mil,1115mil)*%
%ADD70C,0.019685*%
%TA.AperFunction,OtherDrill,Pad Free-13 (1780mil,1115mil)*%
%ADD71C,0.019685*%
%TA.AperFunction,OtherDrill,Pad Free-13 (1750mil,1115mil)*%
%ADD72C,0.019685*%
%TA.AperFunction,OtherDrill,Pad Free-13 (2850mil,1055mil)*%
%ADD73C,0.019685*%
%TA.AperFunction,OtherDrill,Pad Free-13 (2880mil,1055mil)*%
%ADD74C,0.019685*%
%TA.AperFunction,OtherDrill,Pad Free-13 (2910mil,1055mil)*%
%ADD75C,0.019685*%
%TA.AperFunction,OtherDrill,Pad Free-13 (2940mil,1055mil)*%
%ADD76C,0.019685*%
%TA.AperFunction,OtherDrill,Pad Free-13 (2970mil,1055mil)*%
%ADD77C,0.019685*%
%TA.AperFunction,OtherDrill,Pad Free-13 (3000mil,1055mil)*%
%ADD78C,0.019685*%
%TA.AperFunction,OtherDrill,Pad Free-13 (3030mil,1055mil)*%
%ADD79C,0.019685*%
%TA.AperFunction,OtherDrill,Pad Free-13 (3060mil,1055mil)*%
%ADD80C,0.019685*%
%TA.AperFunction,OtherDrill,Pad Free-13 (3090mil,1055mil)*%
%ADD81C,0.019685*%
%TA.AperFunction,OtherDrill,Pad Free-13 (3120mil,1055mil)*%
%ADD82C,0.019685*%
%TA.AperFunction,OtherDrill,Pad Free-13 (3150mil,1055mil)*%
%ADD83C,0.019685*%
%TA.AperFunction,OtherDrill,Pad Free-13 (3150mil,1115mil)*%
%ADD84C,0.019685*%
%TA.AperFunction,OtherDrill,Pad Free-13 (3120mil,1115mil)*%
%ADD85C,0.019685*%
%TA.AperFunction,OtherDrill,Pad Free-13 (3090mil,1115mil)*%
%ADD86C,0.019685*%
%TA.AperFunction,OtherDrill,Pad Free-13 (3060mil,1115mil)*%
%ADD87C,0.019685*%
%TA.AperFunction,OtherDrill,Pad Free-13 (3030mil,1115mil)*%
%ADD88C,0.019685*%
%TA.AperFunction,OtherDrill,Pad Free-13 (3000mil,1115mil)*%
%ADD89C,0.019685*%
%TA.AperFunction,OtherDrill,Pad Free-13 (2970mil,1115mil)*%
%ADD90C,0.019685*%
%TA.AperFunction,OtherDrill,Pad Free-13 (2940mil,1115mil)*%
%ADD91C,0.019685*%
%TA.AperFunction,OtherDrill,Pad Free-13 (2910mil,1115mil)*%
%ADD92C,0.019685*%
%TA.AperFunction,OtherDrill,Pad Free-13 (2880mil,1115mil)*%
%ADD93C,0.019685*%
%TA.AperFunction,OtherDrill,Pad Free-13 (2850mil,1115mil)*%
%ADD94C,0.019685*%
%TA.AperFunction,OtherDrill,Pad Free-13 (2300mil,1055mil)*%
%ADD95C,0.019685*%
%TA.AperFunction,OtherDrill,Pad Free-13 (2330mil,1055mil)*%
%ADD96C,0.019685*%
%TA.AperFunction,OtherDrill,Pad Free-13 (2360mil,1055mil)*%
%ADD97C,0.019685*%
%TA.AperFunction,OtherDrill,Pad Free-13 (2390mil,1055mil)*%
%ADD98C,0.019685*%
%TA.AperFunction,OtherDrill,Pad Free-13 (2420mil,1055mil)*%
%ADD99C,0.019685*%
%TA.AperFunction,OtherDrill,Pad Free-13 (2450mil,1055mil)*%
%ADD100C,0.019685*%
%TA.AperFunction,OtherDrill,Pad Free-13 (2480mil,1055mil)*%
%ADD101C,0.019685*%
%TA.AperFunction,OtherDrill,Pad Free-13 (2510mil,1055mil)*%
%ADD102C,0.019685*%
%TA.AperFunction,OtherDrill,Pad Free-13 (2540mil,1055mil)*%
%ADD103C,0.019685*%
%TA.AperFunction,OtherDrill,Pad Free-13 (2570mil,1055mil)*%
%ADD104C,0.019685*%
%TA.AperFunction,OtherDrill,Pad Free-13 (2600mil,1055mil)*%
%ADD105C,0.019685*%
%TA.AperFunction,OtherDrill,Pad Free-13 (2600mil,1115mil)*%
%ADD106C,0.019685*%
%TA.AperFunction,OtherDrill,Pad Free-13 (2570mil,1115mil)*%
%ADD107C,0.019685*%
%TA.AperFunction,OtherDrill,Pad Free-13 (2540mil,1115mil)*%
%ADD108C,0.019685*%
%TA.AperFunction,OtherDrill,Pad Free-13 (2510mil,1115mil)*%
%ADD109C,0.019685*%
%TA.AperFunction,OtherDrill,Pad Free-13 (2480mil,1115mil)*%
%ADD110C,0.019685*%
%TA.AperFunction,OtherDrill,Pad Free-13 (2450mil,1115mil)*%
%ADD111C,0.019685*%
%TA.AperFunction,OtherDrill,Pad Free-13 (2420mil,1115mil)*%
%ADD112C,0.019685*%
%TA.AperFunction,OtherDrill,Pad Free-13 (2390mil,1115mil)*%
%ADD113C,0.019685*%
%TA.AperFunction,OtherDrill,Pad Free-13 (2360mil,1115mil)*%
%ADD114C,0.019685*%
%TA.AperFunction,OtherDrill,Pad Free-13 (2330mil,1115mil)*%
%ADD115C,0.019685*%
%TA.AperFunction,OtherDrill,Pad Free-13 (2300mil,1115mil)*%
%ADD116C,0.019685*%
%TA.AperFunction,OtherDrill,Pad Free-13 (3400mil,1055mil)*%
%ADD117C,0.019685*%
%TA.AperFunction,OtherDrill,Pad Free-13 (3430mil,1055mil)*%
%ADD118C,0.019685*%
%TA.AperFunction,OtherDrill,Pad Free-13 (3460mil,1055mil)*%
%ADD119C,0.019685*%
%TA.AperFunction,OtherDrill,Pad Free-13 (3490mil,1055mil)*%
%ADD120C,0.019685*%
%TA.AperFunction,OtherDrill,Pad Free-13 (3520mil,1055mil)*%
%ADD121C,0.019685*%
%TA.AperFunction,OtherDrill,Pad Free-13 (3550mil,1055mil)*%
%ADD122C,0.019685*%
%TA.AperFunction,OtherDrill,Pad Free-13 (3580mil,1055mil)*%
%ADD123C,0.019685*%
%TA.AperFunction,OtherDrill,Pad Free-13 (3610mil,1055mil)*%
%ADD124C,0.019685*%
%TA.AperFunction,OtherDrill,Pad Free-13 (3640mil,1055mil)*%
%ADD125C,0.019685*%
%TA.AperFunction,OtherDrill,Pad Free-13 (3670mil,1055mil)*%
%ADD126C,0.019685*%
%TA.AperFunction,OtherDrill,Pad Free-13 (3700mil,1055mil)*%
%ADD127C,0.019685*%
%TA.AperFunction,OtherDrill,Pad Free-13 (3700mil,1115mil)*%
%ADD128C,0.019685*%
%TA.AperFunction,OtherDrill,Pad Free-13 (3670mil,1115mil)*%
%ADD129C,0.019685*%
%TA.AperFunction,OtherDrill,Pad Free-13 (3640mil,1115mil)*%
%ADD130C,0.019685*%
%TA.AperFunction,OtherDrill,Pad Free-13 (3610mil,1115mil)*%
%ADD131C,0.019685*%
%TA.AperFunction,OtherDrill,Pad Free-13 (3580mil,1115mil)*%
%ADD132C,0.019685*%
%TA.AperFunction,OtherDrill,Pad Free-13 (3550mil,1115mil)*%
%ADD133C,0.019685*%
%TA.AperFunction,OtherDrill,Pad Free-13 (3520mil,1115mil)*%
%ADD134C,0.019685*%
%TA.AperFunction,OtherDrill,Pad Free-13 (3490mil,1115mil)*%
%ADD135C,0.019685*%
%TA.AperFunction,OtherDrill,Pad Free-13 (3460mil,1115mil)*%
%ADD136C,0.019685*%
%TA.AperFunction,OtherDrill,Pad Free-13 (3430mil,1115mil)*%
%ADD137C,0.019685*%
%TA.AperFunction,OtherDrill,Pad Free-13 (3400mil,1115mil)*%
%ADD138C,0.019685*%
%TA.AperFunction,OtherDrill,Pad Free-13 (1200mil,1935mil)*%
%ADD139C,0.019685*%
%TA.AperFunction,OtherDrill,Pad Free-13 (1230mil,1935mil)*%
%ADD140C,0.019685*%
%TA.AperFunction,OtherDrill,Pad Free-13 (1260mil,1935mil)*%
%ADD141C,0.019685*%
%TA.AperFunction,OtherDrill,Pad Free-13 (1290mil,1935mil)*%
%ADD142C,0.019685*%
%TA.AperFunction,OtherDrill,Pad Free-13 (1320mil,1935mil)*%
%ADD143C,0.019685*%
%TA.AperFunction,OtherDrill,Pad Free-13 (1350mil,1935mil)*%
%ADD144C,0.019685*%
%TA.AperFunction,OtherDrill,Pad Free-13 (1380mil,1935mil)*%
%ADD145C,0.019685*%
%TA.AperFunction,OtherDrill,Pad Free-13 (1410mil,1935mil)*%
%ADD146C,0.019685*%
%TA.AperFunction,OtherDrill,Pad Free-13 (1440mil,1935mil)*%
%ADD147C,0.019685*%
%TA.AperFunction,OtherDrill,Pad Free-13 (1470mil,1935mil)*%
%ADD148C,0.019685*%
%TA.AperFunction,OtherDrill,Pad Free-13 (1500mil,1935mil)*%
%ADD149C,0.019685*%
%TA.AperFunction,OtherDrill,Pad Free-13 (1500mil,1995mil)*%
%ADD150C,0.019685*%
%TA.AperFunction,OtherDrill,Pad Free-13 (1470mil,1995mil)*%
%ADD151C,0.019685*%
%TA.AperFunction,OtherDrill,Pad Free-13 (1440mil,1995mil)*%
%ADD152C,0.019685*%
%TA.AperFunction,OtherDrill,Pad Free-13 (1410mil,1995mil)*%
%ADD153C,0.019685*%
%TA.AperFunction,OtherDrill,Pad Free-13 (1380mil,1995mil)*%
%ADD154C,0.019685*%
%TA.AperFunction,OtherDrill,Pad Free-13 (1350mil,1995mil)*%
%ADD155C,0.019685*%
%TA.AperFunction,OtherDrill,Pad Free-13 (1320mil,1995mil)*%
%ADD156C,0.019685*%
%TA.AperFunction,OtherDrill,Pad Free-13 (1290mil,1995mil)*%
%ADD157C,0.019685*%
%TA.AperFunction,OtherDrill,Pad Free-13 (1260mil,1995mil)*%
%ADD158C,0.019685*%
%TA.AperFunction,OtherDrill,Pad Free-13 (1230mil,1995mil)*%
%ADD159C,0.019685*%
%TA.AperFunction,OtherDrill,Pad Free-13 (1200mil,1995mil)*%
%ADD160C,0.019685*%
%TA.AperFunction,OtherDrill,Pad Free-13 (1750mil,1935mil)*%
%ADD161C,0.019685*%
%TA.AperFunction,OtherDrill,Pad Free-13 (1780mil,1935mil)*%
%ADD162C,0.019685*%
%TA.AperFunction,OtherDrill,Pad Free-13 (1810mil,1935mil)*%
%ADD163C,0.019685*%
%TA.AperFunction,OtherDrill,Pad Free-13 (1840mil,1935mil)*%
%ADD164C,0.019685*%
%TA.AperFunction,OtherDrill,Pad Free-13 (1870mil,1935mil)*%
%ADD165C,0.019685*%
%TA.AperFunction,OtherDrill,Pad Free-13 (1900mil,1935mil)*%
%ADD166C,0.019685*%
%TA.AperFunction,OtherDrill,Pad Free-13 (1930mil,1935mil)*%
%ADD167C,0.019685*%
%TA.AperFunction,OtherDrill,Pad Free-13 (1960mil,1935mil)*%
%ADD168C,0.019685*%
%TA.AperFunction,OtherDrill,Pad Free-13 (1990mil,1935mil)*%
%ADD169C,0.019685*%
%TA.AperFunction,OtherDrill,Pad Free-13 (2020mil,1935mil)*%
%ADD170C,0.019685*%
%TA.AperFunction,OtherDrill,Pad Free-13 (2050mil,1935mil)*%
%ADD171C,0.019685*%
%TA.AperFunction,OtherDrill,Pad Free-13 (2050mil,1995mil)*%
%ADD172C,0.019685*%
%TA.AperFunction,OtherDrill,Pad Free-13 (2020mil,1995mil)*%
%ADD173C,0.019685*%
%TA.AperFunction,OtherDrill,Pad Free-13 (1990mil,1995mil)*%
%ADD174C,0.019685*%
%TA.AperFunction,OtherDrill,Pad Free-13 (1960mil,1995mil)*%
%ADD175C,0.019685*%
%TA.AperFunction,OtherDrill,Pad Free-13 (1930mil,1995mil)*%
%ADD176C,0.019685*%
%TA.AperFunction,OtherDrill,Pad Free-13 (1900mil,1995mil)*%
%ADD177C,0.019685*%
%TA.AperFunction,OtherDrill,Pad Free-13 (1870mil,1995mil)*%
%ADD178C,0.019685*%
%TA.AperFunction,OtherDrill,Pad Free-13 (1840mil,1995mil)*%
%ADD179C,0.019685*%
%TA.AperFunction,OtherDrill,Pad Free-13 (1810mil,1995mil)*%
%ADD180C,0.019685*%
%TA.AperFunction,OtherDrill,Pad Free-13 (1780mil,1995mil)*%
%ADD181C,0.019685*%
%TA.AperFunction,OtherDrill,Pad Free-13 (1750mil,1995mil)*%
%ADD182C,0.019685*%
%TA.AperFunction,OtherDrill,Pad Free-13 (2850mil,1935mil)*%
%ADD183C,0.019685*%
%TA.AperFunction,OtherDrill,Pad Free-13 (2880mil,1935mil)*%
%ADD184C,0.019685*%
%TA.AperFunction,OtherDrill,Pad Free-13 (2910mil,1935mil)*%
%ADD185C,0.019685*%
%TA.AperFunction,OtherDrill,Pad Free-13 (2940mil,1935mil)*%
%ADD186C,0.019685*%
%TA.AperFunction,OtherDrill,Pad Free-13 (2970mil,1935mil)*%
%ADD187C,0.019685*%
%TA.AperFunction,OtherDrill,Pad Free-13 (3000mil,1935mil)*%
%ADD188C,0.019685*%
%TA.AperFunction,OtherDrill,Pad Free-13 (3030mil,1935mil)*%
%ADD189C,0.019685*%
%TA.AperFunction,OtherDrill,Pad Free-13 (3060mil,1935mil)*%
%ADD190C,0.019685*%
%TA.AperFunction,OtherDrill,Pad Free-13 (3090mil,1935mil)*%
%ADD191C,0.019685*%
%TA.AperFunction,OtherDrill,Pad Free-13 (3120mil,1935mil)*%
%ADD192C,0.019685*%
%TA.AperFunction,OtherDrill,Pad Free-13 (3150mil,1935mil)*%
%ADD193C,0.019685*%
%TA.AperFunction,OtherDrill,Pad Free-13 (3150mil,1995mil)*%
%ADD194C,0.019685*%
%TA.AperFunction,OtherDrill,Pad Free-13 (3120mil,1995mil)*%
%ADD195C,0.019685*%
%TA.AperFunction,OtherDrill,Pad Free-13 (3090mil,1995mil)*%
%ADD196C,0.019685*%
%TA.AperFunction,OtherDrill,Pad Free-13 (3060mil,1995mil)*%
%ADD197C,0.019685*%
%TA.AperFunction,OtherDrill,Pad Free-13 (3030mil,1995mil)*%
%ADD198C,0.019685*%
%TA.AperFunction,OtherDrill,Pad Free-13 (3000mil,1995mil)*%
%ADD199C,0.019685*%
%TA.AperFunction,OtherDrill,Pad Free-13 (2970mil,1995mil)*%
%ADD200C,0.019685*%
%TA.AperFunction,OtherDrill,Pad Free-13 (2940mil,1995mil)*%
%ADD201C,0.019685*%
%TA.AperFunction,OtherDrill,Pad Free-13 (2910mil,1995mil)*%
%ADD202C,0.019685*%
%TA.AperFunction,OtherDrill,Pad Free-13 (2880mil,1995mil)*%
%ADD203C,0.019685*%
%TA.AperFunction,OtherDrill,Pad Free-13 (2850mil,1995mil)*%
%ADD204C,0.019685*%
%TA.AperFunction,OtherDrill,Pad Free-13 (2300mil,1935mil)*%
%ADD205C,0.019685*%
%TA.AperFunction,OtherDrill,Pad Free-13 (2330mil,1935mil)*%
%ADD206C,0.019685*%
%TA.AperFunction,OtherDrill,Pad Free-13 (2360mil,1935mil)*%
%ADD207C,0.019685*%
%TA.AperFunction,OtherDrill,Pad Free-13 (2390mil,1935mil)*%
%ADD208C,0.019685*%
%TA.AperFunction,OtherDrill,Pad Free-13 (2420mil,1935mil)*%
%ADD209C,0.019685*%
%TA.AperFunction,OtherDrill,Pad Free-13 (2450mil,1935mil)*%
%ADD210C,0.019685*%
%TA.AperFunction,OtherDrill,Pad Free-13 (2480mil,1935mil)*%
%ADD211C,0.019685*%
%TA.AperFunction,OtherDrill,Pad Free-13 (2510mil,1935mil)*%
%ADD212C,0.019685*%
%TA.AperFunction,OtherDrill,Pad Free-13 (2540mil,1935mil)*%
%ADD213C,0.019685*%
%TA.AperFunction,OtherDrill,Pad Free-13 (2570mil,1935mil)*%
%ADD214C,0.019685*%
%TA.AperFunction,OtherDrill,Pad Free-13 (2600mil,1935mil)*%
%ADD215C,0.019685*%
%TA.AperFunction,OtherDrill,Pad Free-13 (2600mil,1995mil)*%
%ADD216C,0.019685*%
%TA.AperFunction,OtherDrill,Pad Free-13 (2570mil,1995mil)*%
%ADD217C,0.019685*%
%TA.AperFunction,OtherDrill,Pad Free-13 (2540mil,1995mil)*%
%ADD218C,0.019685*%
%TA.AperFunction,OtherDrill,Pad Free-13 (2510mil,1995mil)*%
%ADD219C,0.019685*%
%TA.AperFunction,OtherDrill,Pad Free-13 (2480mil,1995mil)*%
%ADD220C,0.019685*%
%TA.AperFunction,OtherDrill,Pad Free-13 (2450mil,1995mil)*%
%ADD221C,0.019685*%
%TA.AperFunction,OtherDrill,Pad Free-13 (2420mil,1995mil)*%
%ADD222C,0.019685*%
%TA.AperFunction,OtherDrill,Pad Free-13 (2390mil,1995mil)*%
%ADD223C,0.019685*%
%TA.AperFunction,OtherDrill,Pad Free-13 (2360mil,1995mil)*%
%ADD224C,0.019685*%
%TA.AperFunction,OtherDrill,Pad Free-13 (2330mil,1995mil)*%
%ADD225C,0.019685*%
%TA.AperFunction,OtherDrill,Pad Free-13 (2300mil,1995mil)*%
%ADD226C,0.019685*%
%TA.AperFunction,OtherDrill,Pad Free-13 (3400mil,1935mil)*%
%ADD227C,0.019685*%
%TA.AperFunction,OtherDrill,Pad Free-13 (3430mil,1935mil)*%
%ADD228C,0.019685*%
%TA.AperFunction,OtherDrill,Pad Free-13 (3460mil,1935mil)*%
%ADD229C,0.019685*%
%TA.AperFunction,OtherDrill,Pad Free-13 (3490mil,1935mil)*%
%ADD230C,0.019685*%
%TA.AperFunction,OtherDrill,Pad Free-13 (3520mil,1935mil)*%
%ADD231C,0.019685*%
%TA.AperFunction,OtherDrill,Pad Free-13 (3550mil,1935mil)*%
%ADD232C,0.019685*%
%TA.AperFunction,OtherDrill,Pad Free-13 (3580mil,1935mil)*%
%ADD233C,0.019685*%
%TA.AperFunction,OtherDrill,Pad Free-13 (3610mil,1935mil)*%
%ADD234C,0.019685*%
%TA.AperFunction,OtherDrill,Pad Free-13 (3640mil,1935mil)*%
%ADD235C,0.019685*%
%TA.AperFunction,OtherDrill,Pad Free-13 (3670mil,1935mil)*%
%ADD236C,0.019685*%
%TA.AperFunction,OtherDrill,Pad Free-13 (3700mil,1935mil)*%
%ADD237C,0.019685*%
%TA.AperFunction,OtherDrill,Pad Free-13 (3700mil,1995mil)*%
%ADD238C,0.019685*%
%TA.AperFunction,OtherDrill,Pad Free-13 (3670mil,1995mil)*%
%ADD239C,0.019685*%
%TA.AperFunction,OtherDrill,Pad Free-13 (3640mil,1995mil)*%
%ADD240C,0.019685*%
%TA.AperFunction,OtherDrill,Pad Free-13 (3610mil,1995mil)*%
%ADD241C,0.019685*%
%TA.AperFunction,OtherDrill,Pad Free-13 (3580mil,1995mil)*%
%ADD242C,0.019685*%
%TA.AperFunction,OtherDrill,Pad Free-13 (3550mil,1995mil)*%
%ADD243C,0.019685*%
%TA.AperFunction,OtherDrill,Pad Free-13 (3520mil,1995mil)*%
%ADD244C,0.019685*%
%TA.AperFunction,OtherDrill,Pad Free-13 (3490mil,1995mil)*%
%ADD245C,0.019685*%
%TA.AperFunction,OtherDrill,Pad Free-13 (3460mil,1995mil)*%
%ADD246C,0.019685*%
%TA.AperFunction,OtherDrill,Pad Free-13 (3430mil,1995mil)*%
%ADD247C,0.019685*%
%TA.AperFunction,OtherDrill,Pad Free-13 (3400mil,1995mil)*%
%ADD248C,0.019685*%
%TA.AperFunction,OtherDrill,Pad Free-13 (3400mil,2515mil)*%
%ADD249C,0.019685*%
%TA.AperFunction,OtherDrill,Pad Free-13 (3430mil,2515mil)*%
%ADD250C,0.019685*%
%TA.AperFunction,OtherDrill,Pad Free-13 (3460mil,2515mil)*%
%ADD251C,0.019685*%
%TA.AperFunction,OtherDrill,Pad Free-13 (3490mil,2515mil)*%
%ADD252C,0.019685*%
%TA.AperFunction,OtherDrill,Pad Free-13 (3520mil,2515mil)*%
%ADD253C,0.019685*%
%TA.AperFunction,OtherDrill,Pad Free-13 (3550mil,2515mil)*%
%ADD254C,0.019685*%
%TA.AperFunction,OtherDrill,Pad Free-13 (3580mil,2515mil)*%
%ADD255C,0.019685*%
%TA.AperFunction,OtherDrill,Pad Free-13 (3610mil,2515mil)*%
%ADD256C,0.019685*%
%TA.AperFunction,OtherDrill,Pad Free-13 (3640mil,2515mil)*%
%ADD257C,0.019685*%
%TA.AperFunction,OtherDrill,Pad Free-13 (3670mil,2515mil)*%
%ADD258C,0.019685*%
%TA.AperFunction,OtherDrill,Pad Free-13 (3700mil,2515mil)*%
%ADD259C,0.019685*%
%TA.AperFunction,OtherDrill,Pad Free-13 (3700mil,2455mil)*%
%ADD260C,0.019685*%
%TA.AperFunction,OtherDrill,Pad Free-13 (3670mil,2455mil)*%
%ADD261C,0.019685*%
%TA.AperFunction,OtherDrill,Pad Free-13 (3640mil,2455mil)*%
%ADD262C,0.019685*%
%TA.AperFunction,OtherDrill,Pad Free-13 (3610mil,2455mil)*%
%ADD263C,0.019685*%
%TA.AperFunction,OtherDrill,Pad Free-13 (3580mil,2455mil)*%
%ADD264C,0.019685*%
%TA.AperFunction,OtherDrill,Pad Free-13 (3550mil,2455mil)*%
%ADD265C,0.019685*%
%TA.AperFunction,OtherDrill,Pad Free-13 (3520mil,2455mil)*%
%ADD266C,0.019685*%
%TA.AperFunction,OtherDrill,Pad Free-13 (3490mil,2455mil)*%
%ADD267C,0.019685*%
%TA.AperFunction,OtherDrill,Pad Free-13 (3460mil,2455mil)*%
%ADD268C,0.019685*%
%TA.AperFunction,OtherDrill,Pad Free-13 (3430mil,2455mil)*%
%ADD269C,0.019685*%
%TA.AperFunction,OtherDrill,Pad Free-13 (3400mil,2455mil)*%
%ADD270C,0.019685*%
%TA.AperFunction,OtherDrill,Pad Free-13 (2300mil,2515mil)*%
%ADD271C,0.019685*%
%TA.AperFunction,OtherDrill,Pad Free-13 (2330mil,2515mil)*%
%ADD272C,0.019685*%
%TA.AperFunction,OtherDrill,Pad Free-13 (2360mil,2515mil)*%
%ADD273C,0.019685*%
%TA.AperFunction,OtherDrill,Pad Free-13 (2390mil,2515mil)*%
%ADD274C,0.019685*%
%TA.AperFunction,OtherDrill,Pad Free-13 (2420mil,2515mil)*%
%ADD275C,0.019685*%
%TA.AperFunction,OtherDrill,Pad Free-13 (2450mil,2515mil)*%
%ADD276C,0.019685*%
%TA.AperFunction,OtherDrill,Pad Free-13 (2480mil,2515mil)*%
%ADD277C,0.019685*%
%TA.AperFunction,OtherDrill,Pad Free-13 (2510mil,2515mil)*%
%ADD278C,0.019685*%
%TA.AperFunction,OtherDrill,Pad Free-13 (2540mil,2515mil)*%
%ADD279C,0.019685*%
%TA.AperFunction,OtherDrill,Pad Free-13 (2570mil,2515mil)*%
%ADD280C,0.019685*%
%TA.AperFunction,OtherDrill,Pad Free-13 (2600mil,2515mil)*%
%ADD281C,0.019685*%
%TA.AperFunction,OtherDrill,Pad Free-13 (2600mil,2455mil)*%
%ADD282C,0.019685*%
%TA.AperFunction,OtherDrill,Pad Free-13 (2570mil,2455mil)*%
%ADD283C,0.019685*%
%TA.AperFunction,OtherDrill,Pad Free-13 (2540mil,2455mil)*%
%ADD284C,0.019685*%
%TA.AperFunction,OtherDrill,Pad Free-13 (2510mil,2455mil)*%
%ADD285C,0.019685*%
%TA.AperFunction,OtherDrill,Pad Free-13 (2480mil,2455mil)*%
%ADD286C,0.019685*%
%TA.AperFunction,OtherDrill,Pad Free-13 (2450mil,2455mil)*%
%ADD287C,0.019685*%
%TA.AperFunction,OtherDrill,Pad Free-13 (2420mil,2455mil)*%
%ADD288C,0.019685*%
%TA.AperFunction,OtherDrill,Pad Free-13 (2390mil,2455mil)*%
%ADD289C,0.019685*%
%TA.AperFunction,OtherDrill,Pad Free-13 (2360mil,2455mil)*%
%ADD290C,0.019685*%
%TA.AperFunction,OtherDrill,Pad Free-13 (2330mil,2455mil)*%
%ADD291C,0.019685*%
%TA.AperFunction,OtherDrill,Pad Free-13 (2300mil,2455mil)*%
%ADD292C,0.019685*%
%TA.AperFunction,OtherDrill,Pad Free-13 (2850mil,2515mil)*%
%ADD293C,0.019685*%
%TA.AperFunction,OtherDrill,Pad Free-13 (2880mil,2515mil)*%
%ADD294C,0.019685*%
%TA.AperFunction,OtherDrill,Pad Free-13 (2910mil,2515mil)*%
%ADD295C,0.019685*%
%TA.AperFunction,OtherDrill,Pad Free-13 (2940mil,2515mil)*%
%ADD296C,0.019685*%
%TA.AperFunction,OtherDrill,Pad Free-13 (2970mil,2515mil)*%
%ADD297C,0.019685*%
%TA.AperFunction,OtherDrill,Pad Free-13 (3000mil,2515mil)*%
%ADD298C,0.019685*%
%TA.AperFunction,OtherDrill,Pad Free-13 (3030mil,2515mil)*%
%ADD299C,0.019685*%
%TA.AperFunction,OtherDrill,Pad Free-13 (3060mil,2515mil)*%
%ADD300C,0.019685*%
%TA.AperFunction,OtherDrill,Pad Free-13 (3090mil,2515mil)*%
%ADD301C,0.019685*%
%TA.AperFunction,OtherDrill,Pad Free-13 (3120mil,2515mil)*%
%ADD302C,0.019685*%
%TA.AperFunction,OtherDrill,Pad Free-13 (3150mil,2515mil)*%
%ADD303C,0.019685*%
%TA.AperFunction,OtherDrill,Pad Free-13 (3150mil,2455mil)*%
%ADD304C,0.019685*%
%TA.AperFunction,OtherDrill,Pad Free-13 (3120mil,2455mil)*%
%ADD305C,0.019685*%
%TA.AperFunction,OtherDrill,Pad Free-13 (3090mil,2455mil)*%
%ADD306C,0.019685*%
%TA.AperFunction,OtherDrill,Pad Free-13 (3060mil,2455mil)*%
%ADD307C,0.019685*%
%TA.AperFunction,OtherDrill,Pad Free-13 (3030mil,2455mil)*%
%ADD308C,0.019685*%
%TA.AperFunction,OtherDrill,Pad Free-13 (3000mil,2455mil)*%
%ADD309C,0.019685*%
%TA.AperFunction,OtherDrill,Pad Free-13 (2970mil,2455mil)*%
%ADD310C,0.019685*%
%TA.AperFunction,OtherDrill,Pad Free-13 (2940mil,2455mil)*%
%ADD311C,0.019685*%
%TA.AperFunction,OtherDrill,Pad Free-13 (2910mil,2455mil)*%
%ADD312C,0.019685*%
%TA.AperFunction,OtherDrill,Pad Free-13 (2880mil,2455mil)*%
%ADD313C,0.019685*%
%TA.AperFunction,OtherDrill,Pad Free-13 (2850mil,2455mil)*%
%ADD314C,0.019685*%
%TA.AperFunction,OtherDrill,Pad Free-13 (3400mil,3395mil)*%
%ADD315C,0.019685*%
%TA.AperFunction,OtherDrill,Pad Free-13 (3430mil,3395mil)*%
%ADD316C,0.019685*%
%TA.AperFunction,OtherDrill,Pad Free-13 (3460mil,3395mil)*%
%ADD317C,0.019685*%
%TA.AperFunction,OtherDrill,Pad Free-13 (3490mil,3395mil)*%
%ADD318C,0.019685*%
%TA.AperFunction,OtherDrill,Pad Free-13 (3520mil,3395mil)*%
%ADD319C,0.019685*%
%TA.AperFunction,OtherDrill,Pad Free-13 (3550mil,3395mil)*%
%ADD320C,0.019685*%
%TA.AperFunction,OtherDrill,Pad Free-13 (3580mil,3395mil)*%
%ADD321C,0.019685*%
%TA.AperFunction,OtherDrill,Pad Free-13 (3610mil,3395mil)*%
%ADD322C,0.019685*%
%TA.AperFunction,OtherDrill,Pad Free-13 (3640mil,3395mil)*%
%ADD323C,0.019685*%
%TA.AperFunction,OtherDrill,Pad Free-13 (3670mil,3395mil)*%
%ADD324C,0.019685*%
%TA.AperFunction,OtherDrill,Pad Free-13 (3700mil,3395mil)*%
%ADD325C,0.019685*%
%TA.AperFunction,OtherDrill,Pad Free-13 (3700mil,3335mil)*%
%ADD326C,0.019685*%
%TA.AperFunction,OtherDrill,Pad Free-13 (3670mil,3335mil)*%
%ADD327C,0.019685*%
%TA.AperFunction,OtherDrill,Pad Free-13 (3640mil,3335mil)*%
%ADD328C,0.019685*%
%TA.AperFunction,OtherDrill,Pad Free-13 (3610mil,3335mil)*%
%ADD329C,0.019685*%
%TA.AperFunction,OtherDrill,Pad Free-13 (3580mil,3335mil)*%
%ADD330C,0.019685*%
%TA.AperFunction,OtherDrill,Pad Free-13 (3550mil,3335mil)*%
%ADD331C,0.019685*%
%TA.AperFunction,OtherDrill,Pad Free-13 (3520mil,3335mil)*%
%ADD332C,0.019685*%
%TA.AperFunction,OtherDrill,Pad Free-13 (3490mil,3335mil)*%
%ADD333C,0.019685*%
%TA.AperFunction,OtherDrill,Pad Free-13 (3460mil,3335mil)*%
%ADD334C,0.019685*%
%TA.AperFunction,OtherDrill,Pad Free-13 (3430mil,3335mil)*%
%ADD335C,0.019685*%
%TA.AperFunction,OtherDrill,Pad Free-13 (3400mil,3335mil)*%
%ADD336C,0.019685*%
%TA.AperFunction,OtherDrill,Pad Free-13 (2850mil,3395mil)*%
%ADD337C,0.019685*%
%TA.AperFunction,OtherDrill,Pad Free-13 (2880mil,3395mil)*%
%ADD338C,0.019685*%
%TA.AperFunction,OtherDrill,Pad Free-13 (2910mil,3395mil)*%
%ADD339C,0.019685*%
%TA.AperFunction,OtherDrill,Pad Free-13 (2940mil,3395mil)*%
%ADD340C,0.019685*%
%TA.AperFunction,OtherDrill,Pad Free-13 (2970mil,3395mil)*%
%ADD341C,0.019685*%
%TA.AperFunction,OtherDrill,Pad Free-13 (3000mil,3395mil)*%
%ADD342C,0.019685*%
%TA.AperFunction,OtherDrill,Pad Free-13 (3030mil,3395mil)*%
%ADD343C,0.019685*%
%TA.AperFunction,OtherDrill,Pad Free-13 (3060mil,3395mil)*%
%ADD344C,0.019685*%
%TA.AperFunction,OtherDrill,Pad Free-13 (3090mil,3395mil)*%
%ADD345C,0.019685*%
%TA.AperFunction,OtherDrill,Pad Free-13 (3120mil,3395mil)*%
%ADD346C,0.019685*%
%TA.AperFunction,OtherDrill,Pad Free-13 (3150mil,3395mil)*%
%ADD347C,0.019685*%
%TA.AperFunction,OtherDrill,Pad Free-13 (3150mil,3335mil)*%
%ADD348C,0.019685*%
%TA.AperFunction,OtherDrill,Pad Free-13 (3120mil,3335mil)*%
%ADD349C,0.019685*%
%TA.AperFunction,OtherDrill,Pad Free-13 (3090mil,3335mil)*%
%ADD350C,0.019685*%
%TA.AperFunction,OtherDrill,Pad Free-13 (3060mil,3335mil)*%
%ADD351C,0.019685*%
%TA.AperFunction,OtherDrill,Pad Free-13 (3030mil,3335mil)*%
%ADD352C,0.019685*%
%TA.AperFunction,OtherDrill,Pad Free-13 (3000mil,3335mil)*%
%ADD353C,0.019685*%
%TA.AperFunction,OtherDrill,Pad Free-13 (2970mil,3335mil)*%
%ADD354C,0.019685*%
%TA.AperFunction,OtherDrill,Pad Free-13 (2940mil,3335mil)*%
%ADD355C,0.019685*%
%TA.AperFunction,OtherDrill,Pad Free-13 (2910mil,3335mil)*%
%ADD356C,0.019685*%
%TA.AperFunction,OtherDrill,Pad Free-13 (2880mil,3335mil)*%
%ADD357C,0.019685*%
%TA.AperFunction,OtherDrill,Pad Free-13 (2850mil,3335mil)*%
%ADD358C,0.019685*%
%TA.AperFunction,OtherDrill,Pad Free-13 (2300mil,3395mil)*%
%ADD359C,0.019685*%
%TA.AperFunction,OtherDrill,Pad Free-13 (2330mil,3395mil)*%
%ADD360C,0.019685*%
%TA.AperFunction,OtherDrill,Pad Free-13 (2360mil,3395mil)*%
%ADD361C,0.019685*%
%TA.AperFunction,OtherDrill,Pad Free-13 (2390mil,3395mil)*%
%ADD362C,0.019685*%
%TA.AperFunction,OtherDrill,Pad Free-13 (2420mil,3395mil)*%
%ADD363C,0.019685*%
%TA.AperFunction,OtherDrill,Pad Free-13 (2450mil,3395mil)*%
%ADD364C,0.019685*%
%TA.AperFunction,OtherDrill,Pad Free-13 (2480mil,3395mil)*%
%ADD365C,0.019685*%
%TA.AperFunction,OtherDrill,Pad Free-13 (2510mil,3395mil)*%
%ADD366C,0.019685*%
%TA.AperFunction,OtherDrill,Pad Free-13 (2540mil,3395mil)*%
%ADD367C,0.019685*%
%TA.AperFunction,OtherDrill,Pad Free-13 (2570mil,3395mil)*%
%ADD368C,0.019685*%
%TA.AperFunction,OtherDrill,Pad Free-13 (2600mil,3395mil)*%
%ADD369C,0.019685*%
%TA.AperFunction,OtherDrill,Pad Free-13 (2600mil,3335mil)*%
%ADD370C,0.019685*%
%TA.AperFunction,OtherDrill,Pad Free-13 (2570mil,3335mil)*%
%ADD371C,0.019685*%
%TA.AperFunction,OtherDrill,Pad Free-13 (2540mil,3335mil)*%
%ADD372C,0.019685*%
%TA.AperFunction,OtherDrill,Pad Free-13 (2510mil,3335mil)*%
%ADD373C,0.019685*%
%TA.AperFunction,OtherDrill,Pad Free-13 (2480mil,3335mil)*%
%ADD374C,0.019685*%
%TA.AperFunction,OtherDrill,Pad Free-13 (2450mil,3335mil)*%
%ADD375C,0.019685*%
%TA.AperFunction,OtherDrill,Pad Free-13 (2420mil,3335mil)*%
%ADD376C,0.019685*%
%TA.AperFunction,OtherDrill,Pad Free-13 (2390mil,3335mil)*%
%ADD377C,0.019685*%
%TA.AperFunction,OtherDrill,Pad Free-13 (2360mil,3335mil)*%
%ADD378C,0.019685*%
%TA.AperFunction,OtherDrill,Pad Free-13 (2330mil,3335mil)*%
%ADD379C,0.019685*%
%TA.AperFunction,OtherDrill,Pad Free-13 (2300mil,3335mil)*%
%ADD380C,0.019685*%
%TA.AperFunction,OtherDrill,Pad Free-13 (1750mil,3395mil)*%
%ADD381C,0.019685*%
%TA.AperFunction,OtherDrill,Pad Free-13 (1780mil,3395mil)*%
%ADD382C,0.019685*%
%TA.AperFunction,OtherDrill,Pad Free-13 (1810mil,3395mil)*%
%ADD383C,0.019685*%
%TA.AperFunction,OtherDrill,Pad Free-13 (1840mil,3395mil)*%
%ADD384C,0.019685*%
%TA.AperFunction,OtherDrill,Pad Free-13 (1870mil,3395mil)*%
%ADD385C,0.019685*%
%TA.AperFunction,OtherDrill,Pad Free-13 (1900mil,3395mil)*%
%ADD386C,0.019685*%
%TA.AperFunction,OtherDrill,Pad Free-13 (1930mil,3395mil)*%
%ADD387C,0.019685*%
%TA.AperFunction,OtherDrill,Pad Free-13 (1960mil,3395mil)*%
%ADD388C,0.019685*%
%TA.AperFunction,OtherDrill,Pad Free-13 (1990mil,3395mil)*%
%ADD389C,0.019685*%
%TA.AperFunction,OtherDrill,Pad Free-13 (2020mil,3395mil)*%
%ADD390C,0.019685*%
%TA.AperFunction,OtherDrill,Pad Free-13 (2050mil,3395mil)*%
%ADD391C,0.019685*%
%TA.AperFunction,OtherDrill,Pad Free-13 (2050mil,3335mil)*%
%ADD392C,0.019685*%
%TA.AperFunction,OtherDrill,Pad Free-13 (2020mil,3335mil)*%
%ADD393C,0.019685*%
%TA.AperFunction,OtherDrill,Pad Free-13 (1990mil,3335mil)*%
%ADD394C,0.019685*%
%TA.AperFunction,OtherDrill,Pad Free-13 (1960mil,3335mil)*%
%ADD395C,0.019685*%
%TA.AperFunction,OtherDrill,Pad Free-13 (1930mil,3335mil)*%
%ADD396C,0.019685*%
%TA.AperFunction,OtherDrill,Pad Free-13 (1900mil,3335mil)*%
%ADD397C,0.019685*%
%TA.AperFunction,OtherDrill,Pad Free-13 (1870mil,3335mil)*%
%ADD398C,0.019685*%
%TA.AperFunction,OtherDrill,Pad Free-13 (1840mil,3335mil)*%
%ADD399C,0.019685*%
%TA.AperFunction,OtherDrill,Pad Free-13 (1810mil,3335mil)*%
%ADD400C,0.019685*%
%TA.AperFunction,OtherDrill,Pad Free-13 (1780mil,3335mil)*%
%ADD401C,0.019685*%
%TA.AperFunction,OtherDrill,Pad Free-13 (1750mil,3335mil)*%
%ADD402C,0.019685*%
%TA.AperFunction,OtherDrill,Pad Free-13 (1750mil,2515mil)*%
%ADD403C,0.019685*%
%TA.AperFunction,OtherDrill,Pad Free-13 (1780mil,2515mil)*%
%ADD404C,0.019685*%
%TA.AperFunction,OtherDrill,Pad Free-13 (1810mil,2515mil)*%
%ADD405C,0.019685*%
%TA.AperFunction,OtherDrill,Pad Free-13 (1840mil,2515mil)*%
%ADD406C,0.019685*%
%TA.AperFunction,OtherDrill,Pad Free-13 (1870mil,2515mil)*%
%ADD407C,0.019685*%
%TA.AperFunction,OtherDrill,Pad Free-13 (1900mil,2515mil)*%
%ADD408C,0.019685*%
%TA.AperFunction,OtherDrill,Pad Free-13 (1930mil,2515mil)*%
%ADD409C,0.019685*%
%TA.AperFunction,OtherDrill,Pad Free-13 (1960mil,2515mil)*%
%ADD410C,0.019685*%
%TA.AperFunction,OtherDrill,Pad Free-13 (1990mil,2515mil)*%
%ADD411C,0.019685*%
%TA.AperFunction,OtherDrill,Pad Free-13 (2020mil,2515mil)*%
%ADD412C,0.019685*%
%TA.AperFunction,OtherDrill,Pad Free-13 (2050mil,2515mil)*%
%ADD413C,0.019685*%
%TA.AperFunction,OtherDrill,Pad Free-13 (2050mil,2455mil)*%
%ADD414C,0.019685*%
%TA.AperFunction,OtherDrill,Pad Free-13 (2020mil,2455mil)*%
%ADD415C,0.019685*%
%TA.AperFunction,OtherDrill,Pad Free-13 (1990mil,2455mil)*%
%ADD416C,0.019685*%
%TA.AperFunction,OtherDrill,Pad Free-13 (1960mil,2455mil)*%
%ADD417C,0.019685*%
%TA.AperFunction,OtherDrill,Pad Free-13 (1930mil,2455mil)*%
%ADD418C,0.019685*%
%TA.AperFunction,OtherDrill,Pad Free-13 (1900mil,2455mil)*%
%ADD419C,0.019685*%
%TA.AperFunction,OtherDrill,Pad Free-13 (1870mil,2455mil)*%
%ADD420C,0.019685*%
%TA.AperFunction,OtherDrill,Pad Free-13 (1840mil,2455mil)*%
%ADD421C,0.019685*%
%TA.AperFunction,OtherDrill,Pad Free-13 (1810mil,2455mil)*%
%ADD422C,0.019685*%
%TA.AperFunction,OtherDrill,Pad Free-13 (1780mil,2455mil)*%
%ADD423C,0.019685*%
%TA.AperFunction,OtherDrill,Pad Free-13 (1750mil,2455mil)*%
%ADD424C,0.019685*%
%TA.AperFunction,OtherDrill,Pad Free-13 (1200mil,2515mil)*%
%ADD425C,0.019685*%
%TA.AperFunction,OtherDrill,Pad Free-13 (1230mil,2515mil)*%
%ADD426C,0.019685*%
%TA.AperFunction,OtherDrill,Pad Free-13 (1260mil,2515mil)*%
%ADD427C,0.019685*%
%TA.AperFunction,OtherDrill,Pad Free-13 (1290mil,2515mil)*%
%ADD428C,0.019685*%
%TA.AperFunction,OtherDrill,Pad Free-13 (1320mil,2515mil)*%
%ADD429C,0.019685*%
%TA.AperFunction,OtherDrill,Pad Free-13 (1350mil,2515mil)*%
%ADD430C,0.019685*%
%TA.AperFunction,OtherDrill,Pad Free-13 (1380mil,2515mil)*%
%ADD431C,0.019685*%
%TA.AperFunction,OtherDrill,Pad Free-13 (1410mil,2515mil)*%
%ADD432C,0.019685*%
%TA.AperFunction,OtherDrill,Pad Free-13 (1440mil,2515mil)*%
%ADD433C,0.019685*%
%TA.AperFunction,OtherDrill,Pad Free-13 (1470mil,2515mil)*%
%ADD434C,0.019685*%
%TA.AperFunction,OtherDrill,Pad Free-13 (1500mil,2515mil)*%
%ADD435C,0.019685*%
%TA.AperFunction,OtherDrill,Pad Free-13 (1500mil,2455mil)*%
%ADD436C,0.019685*%
%TA.AperFunction,OtherDrill,Pad Free-13 (1470mil,2455mil)*%
%ADD437C,0.019685*%
%TA.AperFunction,OtherDrill,Pad Free-13 (1440mil,2455mil)*%
%ADD438C,0.019685*%
%TA.AperFunction,OtherDrill,Pad Free-13 (1410mil,2455mil)*%
%ADD439C,0.019685*%
%TA.AperFunction,OtherDrill,Pad Free-13 (1380mil,2455mil)*%
%ADD440C,0.019685*%
%TA.AperFunction,OtherDrill,Pad Free-13 (1350mil,2455mil)*%
%ADD441C,0.019685*%
%TA.AperFunction,OtherDrill,Pad Free-13 (1320mil,2455mil)*%
%ADD442C,0.019685*%
%TA.AperFunction,OtherDrill,Pad Free-13 (1290mil,2455mil)*%
%ADD443C,0.019685*%
%TA.AperFunction,OtherDrill,Pad Free-13 (1260mil,2455mil)*%
%ADD444C,0.019685*%
%TA.AperFunction,OtherDrill,Pad Free-13 (1230mil,2455mil)*%
%ADD445C,0.019685*%
%TA.AperFunction,OtherDrill,Pad Free-13 (1200mil,2455mil)*%
%ADD446C,0.019685*%
%TA.AperFunction,OtherDrill,Pad Free-13 (1200mil,3395mil)*%
%ADD447C,0.019685*%
%TA.AperFunction,OtherDrill,Pad Free-13 (1230mil,3395mil)*%
%ADD448C,0.019685*%
%TA.AperFunction,OtherDrill,Pad Free-13 (1260mil,3395mil)*%
%ADD449C,0.019685*%
%TA.AperFunction,OtherDrill,Pad Free-13 (1290mil,3395mil)*%
%ADD450C,0.019685*%
%TA.AperFunction,OtherDrill,Pad Free-13 (1320mil,3395mil)*%
%ADD451C,0.019685*%
%TA.AperFunction,OtherDrill,Pad Free-13 (1350mil,3395mil)*%
%ADD452C,0.019685*%
%TA.AperFunction,OtherDrill,Pad Free-13 (1380mil,3395mil)*%
%ADD453C,0.019685*%
%TA.AperFunction,OtherDrill,Pad Free-13 (1410mil,3395mil)*%
%ADD454C,0.019685*%
%TA.AperFunction,OtherDrill,Pad Free-13 (1440mil,3395mil)*%
%ADD455C,0.019685*%
%TA.AperFunction,OtherDrill,Pad Free-13 (1470mil,3395mil)*%
%ADD456C,0.019685*%
%TA.AperFunction,OtherDrill,Pad Free-13 (1500mil,3395mil)*%
%ADD457C,0.019685*%
%TA.AperFunction,OtherDrill,Pad Free-13 (1500mil,3335mil)*%
%ADD458C,0.019685*%
%TA.AperFunction,OtherDrill,Pad Free-13 (1470mil,3335mil)*%
%ADD459C,0.019685*%
%TA.AperFunction,OtherDrill,Pad Free-13 (1440mil,3335mil)*%
%ADD460C,0.019685*%
%TA.AperFunction,OtherDrill,Pad Free-13 (1410mil,3335mil)*%
%ADD461C,0.019685*%
%TA.AperFunction,OtherDrill,Pad Free-13 (1380mil,3335mil)*%
%ADD462C,0.019685*%
%TA.AperFunction,OtherDrill,Pad Free-13 (1350mil,3335mil)*%
%ADD463C,0.019685*%
%TA.AperFunction,OtherDrill,Pad Free-13 (1320mil,3335mil)*%
%ADD464C,0.019685*%
%TA.AperFunction,OtherDrill,Pad Free-13 (1290mil,3335mil)*%
%ADD465C,0.019685*%
%TA.AperFunction,OtherDrill,Pad Free-13 (1260mil,3335mil)*%
%ADD466C,0.019685*%
%TA.AperFunction,OtherDrill,Pad Free-13 (1230mil,3335mil)*%
%ADD467C,0.019685*%
%TA.AperFunction,OtherDrill,Pad Free-13 (1200mil,3335mil)*%
%ADD468C,0.019685*%
%TA.AperFunction,OtherDrill,Pad Free-16 (1500mil,1175mil)*%
%ADD469C,0.040000*%
%TA.AperFunction,OtherDrill,Pad Free-15 (1500mil,1275mil)*%
%ADD470C,0.040000*%
%TA.AperFunction,OtherDrill,Pad Free-14 (1500mil,1375mil)*%
%ADD471C,0.040000*%
%TA.AperFunction,OtherDrill,Pad Free-13 (1500mil,1475mil)*%
%ADD472C,0.040000*%
%TA.AperFunction,OtherDrill,Pad Free-5 (1200mil,1875mil)*%
%ADD473C,0.040000*%
%TA.AperFunction,OtherDrill,Pad Free-4 (1500mil,1875mil)*%
%ADD474C,0.040000*%
%TA.AperFunction,OtherDrill,Pad Free-3 (1500mil,1775mil)*%
%ADD475C,0.040000*%
%TA.AperFunction,OtherDrill,Pad Free-2 (1500mil,1675mil)*%
%ADD476C,0.040000*%
%TA.AperFunction,OtherDrill,Pad Free-1 (1500mil,1575mil)*%
%ADD477C,0.040000*%
%TA.AperFunction,OtherDrill,Pad Free-12 (1200mil,1175mil)*%
%ADD478C,0.040000*%
%TA.AperFunction,OtherDrill,Pad Free-11 (1200mil,1275mil)*%
%ADD479C,0.040000*%
%TA.AperFunction,OtherDrill,Pad Free-10 (1200mil,1375mil)*%
%ADD480C,0.040000*%
%TA.AperFunction,OtherDrill,Pad Free-9 (1200mil,1475mil)*%
%ADD481C,0.040000*%
%TA.AperFunction,OtherDrill,Pad Free-8 (1200mil,1575mil)*%
%ADD482C,0.040000*%
%TA.AperFunction,OtherDrill,Pad Free-7 (1200mil,1675mil)*%
%ADD483C,0.040000*%
%TA.AperFunction,OtherDrill,Pad Free-6 (1200mil,1775mil)*%
%ADD484C,0.040000*%
%TA.AperFunction,ViaDrill,NotFilled*%
%ADD485C,0.007874*%
%TA.AperFunction,OtherDrill,Pad Free-16 (2050mil,1175mil)*%
%ADD486C,0.040000*%
%TA.AperFunction,OtherDrill,Pad Free-15 (2050mil,1275mil)*%
%ADD487C,0.040000*%
%TA.AperFunction,OtherDrill,Pad Free-14 (2050mil,1375mil)*%
%ADD488C,0.040000*%
%TA.AperFunction,OtherDrill,Pad Free-13 (2050mil,1475mil)*%
%ADD489C,0.040000*%
%TA.AperFunction,OtherDrill,Pad Free-5 (1750mil,1875mil)*%
%ADD490C,0.040000*%
%TA.AperFunction,OtherDrill,Pad Free-4 (2050mil,1875mil)*%
%ADD491C,0.040000*%
%TA.AperFunction,OtherDrill,Pad Free-3 (2050mil,1775mil)*%
%ADD492C,0.040000*%
%TA.AperFunction,OtherDrill,Pad Free-2 (2050mil,1675mil)*%
%ADD493C,0.040000*%
%TA.AperFunction,OtherDrill,Pad Free-1 (2050mil,1575mil)*%
%ADD494C,0.040000*%
%TA.AperFunction,OtherDrill,Pad Free-12 (1750mil,1175mil)*%
%ADD495C,0.040000*%
%TA.AperFunction,OtherDrill,Pad Free-11 (1750mil,1275mil)*%
%ADD496C,0.040000*%
%TA.AperFunction,OtherDrill,Pad Free-10 (1750mil,1375mil)*%
%ADD497C,0.040000*%
%TA.AperFunction,OtherDrill,Pad Free-9 (1750mil,1475mil)*%
%ADD498C,0.040000*%
%TA.AperFunction,OtherDrill,Pad Free-8 (1750mil,1575mil)*%
%ADD499C,0.040000*%
%TA.AperFunction,OtherDrill,Pad Free-7 (1750mil,1675mil)*%
%ADD500C,0.040000*%
%TA.AperFunction,OtherDrill,Pad Free-6 (1750mil,1775mil)*%
%ADD501C,0.040000*%
%TA.AperFunction,OtherDrill,Pad Free-16 (2600mil,1175mil)*%
%ADD502C,0.040000*%
%TA.AperFunction,OtherDrill,Pad Free-15 (2600mil,1275mil)*%
%ADD503C,0.040000*%
%TA.AperFunction,OtherDrill,Pad Free-14 (2600mil,1375mil)*%
%ADD504C,0.040000*%
%TA.AperFunction,OtherDrill,Pad Free-13 (2600mil,1475mil)*%
%ADD505C,0.040000*%
%TA.AperFunction,OtherDrill,Pad Free-5 (2300mil,1875mil)*%
%ADD506C,0.040000*%
%TA.AperFunction,OtherDrill,Pad Free-4 (2600mil,1875mil)*%
%ADD507C,0.040000*%
%TA.AperFunction,OtherDrill,Pad Free-3 (2600mil,1775mil)*%
%ADD508C,0.040000*%
%TA.AperFunction,OtherDrill,Pad Free-2 (2600mil,1675mil)*%
%ADD509C,0.040000*%
%TA.AperFunction,OtherDrill,Pad Free-1 (2600mil,1575mil)*%
%ADD510C,0.040000*%
%TA.AperFunction,OtherDrill,Pad Free-12 (2300mil,1175mil)*%
%ADD511C,0.040000*%
%TA.AperFunction,OtherDrill,Pad Free-11 (2300mil,1275mil)*%
%ADD512C,0.040000*%
%TA.AperFunction,OtherDrill,Pad Free-10 (2300mil,1375mil)*%
%ADD513C,0.040000*%
%TA.AperFunction,OtherDrill,Pad Free-9 (2300mil,1475mil)*%
%ADD514C,0.040000*%
%TA.AperFunction,OtherDrill,Pad Free-8 (2300mil,1575mil)*%
%ADD515C,0.040000*%
%TA.AperFunction,OtherDrill,Pad Free-7 (2300mil,1675mil)*%
%ADD516C,0.040000*%
%TA.AperFunction,OtherDrill,Pad Free-6 (2300mil,1775mil)*%
%ADD517C,0.040000*%
%TA.AperFunction,OtherDrill,Pad Free-16 (3150mil,1175mil)*%
%ADD518C,0.040000*%
%TA.AperFunction,OtherDrill,Pad Free-15 (3150mil,1275mil)*%
%ADD519C,0.040000*%
%TA.AperFunction,OtherDrill,Pad Free-14 (3150mil,1375mil)*%
%ADD520C,0.040000*%
%TA.AperFunction,OtherDrill,Pad Free-13 (3150mil,1475mil)*%
%ADD521C,0.040000*%
%TA.AperFunction,OtherDrill,Pad Free-5 (2850mil,1875mil)*%
%ADD522C,0.040000*%
%TA.AperFunction,OtherDrill,Pad Free-4 (3150mil,1875mil)*%
%ADD523C,0.040000*%
%TA.AperFunction,OtherDrill,Pad Free-3 (3150mil,1775mil)*%
%ADD524C,0.040000*%
%TA.AperFunction,OtherDrill,Pad Free-2 (3150mil,1675mil)*%
%ADD525C,0.040000*%
%TA.AperFunction,OtherDrill,Pad Free-1 (3150mil,1575mil)*%
%ADD526C,0.040000*%
%TA.AperFunction,OtherDrill,Pad Free-12 (2850mil,1175mil)*%
%ADD527C,0.040000*%
%TA.AperFunction,OtherDrill,Pad Free-11 (2850mil,1275mil)*%
%ADD528C,0.040000*%
%TA.AperFunction,OtherDrill,Pad Free-10 (2850mil,1375mil)*%
%ADD529C,0.040000*%
%TA.AperFunction,OtherDrill,Pad Free-9 (2850mil,1475mil)*%
%ADD530C,0.040000*%
%TA.AperFunction,OtherDrill,Pad Free-8 (2850mil,1575mil)*%
%ADD531C,0.040000*%
%TA.AperFunction,OtherDrill,Pad Free-7 (2850mil,1675mil)*%
%ADD532C,0.040000*%
%TA.AperFunction,OtherDrill,Pad Free-6 (2850mil,1775mil)*%
%ADD533C,0.040000*%
%TA.AperFunction,OtherDrill,Pad Free-16 (3700mil,1175mil)*%
%ADD534C,0.040000*%
%TA.AperFunction,OtherDrill,Pad Free-15 (3700mil,1275mil)*%
%ADD535C,0.040000*%
%TA.AperFunction,OtherDrill,Pad Free-14 (3700mil,1375mil)*%
%ADD536C,0.040000*%
%TA.AperFunction,OtherDrill,Pad Free-13 (3700mil,1475mil)*%
%ADD537C,0.040000*%
%TA.AperFunction,OtherDrill,Pad Free-5 (3400mil,1875mil)*%
%ADD538C,0.040000*%
%TA.AperFunction,OtherDrill,Pad Free-4 (3700mil,1875mil)*%
%ADD539C,0.040000*%
%TA.AperFunction,OtherDrill,Pad Free-3 (3700mil,1775mil)*%
%ADD540C,0.040000*%
%TA.AperFunction,OtherDrill,Pad Free-2 (3700mil,1675mil)*%
%ADD541C,0.040000*%
%TA.AperFunction,OtherDrill,Pad Free-1 (3700mil,1575mil)*%
%ADD542C,0.040000*%
%TA.AperFunction,OtherDrill,Pad Free-12 (3400mil,1175mil)*%
%ADD543C,0.040000*%
%TA.AperFunction,OtherDrill,Pad Free-11 (3400mil,1275mil)*%
%ADD544C,0.040000*%
%TA.AperFunction,OtherDrill,Pad Free-10 (3400mil,1375mil)*%
%ADD545C,0.040000*%
%TA.AperFunction,OtherDrill,Pad Free-9 (3400mil,1475mil)*%
%ADD546C,0.040000*%
%TA.AperFunction,OtherDrill,Pad Free-8 (3400mil,1575mil)*%
%ADD547C,0.040000*%
%TA.AperFunction,OtherDrill,Pad Free-7 (3400mil,1675mil)*%
%ADD548C,0.040000*%
%TA.AperFunction,OtherDrill,Pad Free-6 (3400mil,1775mil)*%
%ADD549C,0.040000*%
%TA.AperFunction,OtherDrill,Pad Free-16 (1500mil,2575mil)*%
%ADD550C,0.040000*%
%TA.AperFunction,OtherDrill,Pad Free-15 (1500mil,2675mil)*%
%ADD551C,0.040000*%
%TA.AperFunction,OtherDrill,Pad Free-14 (1500mil,2775mil)*%
%ADD552C,0.040000*%
%TA.AperFunction,OtherDrill,Pad Free-13 (1500mil,2875mil)*%
%ADD553C,0.040000*%
%TA.AperFunction,OtherDrill,Pad Free-5 (1200mil,3275mil)*%
%ADD554C,0.040000*%
%TA.AperFunction,OtherDrill,Pad Free-4 (1500mil,3275mil)*%
%ADD555C,0.040000*%
%TA.AperFunction,OtherDrill,Pad Free-3 (1500mil,3175mil)*%
%ADD556C,0.040000*%
%TA.AperFunction,OtherDrill,Pad Free-2 (1500mil,3075mil)*%
%ADD557C,0.040000*%
%TA.AperFunction,OtherDrill,Pad Free-1 (1500mil,2975mil)*%
%ADD558C,0.040000*%
%TA.AperFunction,OtherDrill,Pad Free-12 (1200mil,2575mil)*%
%ADD559C,0.040000*%
%TA.AperFunction,OtherDrill,Pad Free-11 (1200mil,2675mil)*%
%ADD560C,0.040000*%
%TA.AperFunction,OtherDrill,Pad Free-10 (1200mil,2775mil)*%
%ADD561C,0.040000*%
%TA.AperFunction,OtherDrill,Pad Free-9 (1200mil,2875mil)*%
%ADD562C,0.040000*%
%TA.AperFunction,OtherDrill,Pad Free-8 (1200mil,2975mil)*%
%ADD563C,0.040000*%
%TA.AperFunction,OtherDrill,Pad Free-7 (1200mil,3075mil)*%
%ADD564C,0.040000*%
%TA.AperFunction,OtherDrill,Pad Free-6 (1200mil,3175mil)*%
%ADD565C,0.040000*%
%TA.AperFunction,OtherDrill,Pad Free-16 (2050mil,2575mil)*%
%ADD566C,0.040000*%
%TA.AperFunction,OtherDrill,Pad Free-15 (2050mil,2675mil)*%
%ADD567C,0.040000*%
%TA.AperFunction,OtherDrill,Pad Free-14 (2050mil,2775mil)*%
%ADD568C,0.040000*%
%TA.AperFunction,OtherDrill,Pad Free-13 (2050mil,2875mil)*%
%ADD569C,0.040000*%
%TA.AperFunction,OtherDrill,Pad Free-5 (1750mil,3275mil)*%
%ADD570C,0.040000*%
%TA.AperFunction,OtherDrill,Pad Free-4 (2050mil,3275mil)*%
%ADD571C,0.040000*%
%TA.AperFunction,OtherDrill,Pad Free-3 (2050mil,3175mil)*%
%ADD572C,0.040000*%
%TA.AperFunction,OtherDrill,Pad Free-2 (2050mil,3075mil)*%
%ADD573C,0.040000*%
%TA.AperFunction,OtherDrill,Pad Free-1 (2050mil,2975mil)*%
%ADD574C,0.040000*%
%TA.AperFunction,OtherDrill,Pad Free-12 (1750mil,2575mil)*%
%ADD575C,0.040000*%
%TA.AperFunction,OtherDrill,Pad Free-11 (1750mil,2675mil)*%
%ADD576C,0.040000*%
%TA.AperFunction,OtherDrill,Pad Free-10 (1750mil,2775mil)*%
%ADD577C,0.040000*%
%TA.AperFunction,OtherDrill,Pad Free-9 (1750mil,2875mil)*%
%ADD578C,0.040000*%
%TA.AperFunction,OtherDrill,Pad Free-8 (1750mil,2975mil)*%
%ADD579C,0.040000*%
%TA.AperFunction,OtherDrill,Pad Free-7 (1750mil,3075mil)*%
%ADD580C,0.040000*%
%TA.AperFunction,OtherDrill,Pad Free-6 (1750mil,3175mil)*%
%ADD581C,0.040000*%
%TA.AperFunction,OtherDrill,Pad Free-16 (2600mil,2575mil)*%
%ADD582C,0.040000*%
%TA.AperFunction,OtherDrill,Pad Free-15 (2600mil,2675mil)*%
%ADD583C,0.040000*%
%TA.AperFunction,OtherDrill,Pad Free-14 (2600mil,2775mil)*%
%ADD584C,0.040000*%
%TA.AperFunction,OtherDrill,Pad Free-13 (2600mil,2875mil)*%
%ADD585C,0.040000*%
%TA.AperFunction,OtherDrill,Pad Free-5 (2300mil,3275mil)*%
%ADD586C,0.040000*%
%TA.AperFunction,OtherDrill,Pad Free-4 (2600mil,3275mil)*%
%ADD587C,0.040000*%
%TA.AperFunction,OtherDrill,Pad Free-3 (2600mil,3175mil)*%
%ADD588C,0.040000*%
%TA.AperFunction,OtherDrill,Pad Free-2 (2600mil,3075mil)*%
%ADD589C,0.040000*%
%TA.AperFunction,OtherDrill,Pad Free-1 (2600mil,2975mil)*%
%ADD590C,0.040000*%
%TA.AperFunction,OtherDrill,Pad Free-12 (2300mil,2575mil)*%
%ADD591C,0.040000*%
%TA.AperFunction,OtherDrill,Pad Free-11 (2300mil,2675mil)*%
%ADD592C,0.040000*%
%TA.AperFunction,OtherDrill,Pad Free-10 (2300mil,2775mil)*%
%ADD593C,0.040000*%
%TA.AperFunction,OtherDrill,Pad Free-9 (2300mil,2875mil)*%
%ADD594C,0.040000*%
%TA.AperFunction,OtherDrill,Pad Free-8 (2300mil,2975mil)*%
%ADD595C,0.040000*%
%TA.AperFunction,OtherDrill,Pad Free-7 (2300mil,3075mil)*%
%ADD596C,0.040000*%
%TA.AperFunction,OtherDrill,Pad Free-6 (2300mil,3175mil)*%
%ADD597C,0.040000*%
%TA.AperFunction,OtherDrill,Pad Free-16 (3150mil,2575mil)*%
%ADD598C,0.040000*%
%TA.AperFunction,OtherDrill,Pad Free-15 (3150mil,2675mil)*%
%ADD599C,0.040000*%
%TA.AperFunction,OtherDrill,Pad Free-14 (3150mil,2775mil)*%
%ADD600C,0.040000*%
%TA.AperFunction,OtherDrill,Pad Free-13 (3150mil,2875mil)*%
%ADD601C,0.040000*%
%TA.AperFunction,OtherDrill,Pad Free-5 (2850mil,3275mil)*%
%ADD602C,0.040000*%
%TA.AperFunction,OtherDrill,Pad Free-4 (3150mil,3275mil)*%
%ADD603C,0.040000*%
%TA.AperFunction,OtherDrill,Pad Free-3 (3150mil,3175mil)*%
%ADD604C,0.040000*%
%TA.AperFunction,OtherDrill,Pad Free-2 (3150mil,3075mil)*%
%ADD605C,0.040000*%
%TA.AperFunction,OtherDrill,Pad Free-1 (3150mil,2975mil)*%
%ADD606C,0.040000*%
%TA.AperFunction,OtherDrill,Pad Free-12 (2850mil,2575mil)*%
%ADD607C,0.040000*%
%TA.AperFunction,OtherDrill,Pad Free-11 (2850mil,2675mil)*%
%ADD608C,0.040000*%
%TA.AperFunction,OtherDrill,Pad Free-10 (2850mil,2775mil)*%
%ADD609C,0.040000*%
%TA.AperFunction,OtherDrill,Pad Free-9 (2850mil,2875mil)*%
%ADD610C,0.040000*%
%TA.AperFunction,OtherDrill,Pad Free-8 (2850mil,2975mil)*%
%ADD611C,0.040000*%
%TA.AperFunction,OtherDrill,Pad Free-7 (2850mil,3075mil)*%
%ADD612C,0.040000*%
%TA.AperFunction,OtherDrill,Pad Free-6 (2850mil,3175mil)*%
%ADD613C,0.040000*%
%TA.AperFunction,OtherDrill,Pad Free-16 (3700mil,2575mil)*%
%ADD614C,0.040000*%
%TA.AperFunction,OtherDrill,Pad Free-15 (3700mil,2675mil)*%
%ADD615C,0.040000*%
%TA.AperFunction,OtherDrill,Pad Free-14 (3700mil,2775mil)*%
%ADD616C,0.040000*%
%TA.AperFunction,OtherDrill,Pad Free-13 (3700mil,2875mil)*%
%ADD617C,0.040000*%
%TA.AperFunction,OtherDrill,Pad Free-5 (3400mil,3275mil)*%
%ADD618C,0.040000*%
%TA.AperFunction,OtherDrill,Pad Free-4 (3700mil,3275mil)*%
%ADD619C,0.040000*%
%TA.AperFunction,OtherDrill,Pad Free-3 (3700mil,3175mil)*%
%ADD620C,0.040000*%
%TA.AperFunction,OtherDrill,Pad Free-2 (3700mil,3075mil)*%
%ADD621C,0.040000*%
%TA.AperFunction,OtherDrill,Pad Free-1 (3700mil,2975mil)*%
%ADD622C,0.040000*%
%TA.AperFunction,OtherDrill,Pad Free-12 (3400mil,2575mil)*%
%ADD623C,0.040000*%
%TA.AperFunction,OtherDrill,Pad Free-11 (3400mil,2675mil)*%
%ADD624C,0.040000*%
%TA.AperFunction,OtherDrill,Pad Free-10 (3400mil,2775mil)*%
%ADD625C,0.040000*%
%TA.AperFunction,OtherDrill,Pad Free-9 (3400mil,2875mil)*%
%ADD626C,0.040000*%
%TA.AperFunction,OtherDrill,Pad Free-8 (3400mil,2975mil)*%
%ADD627C,0.040000*%
%TA.AperFunction,OtherDrill,Pad Free-7 (3400mil,3075mil)*%
%ADD628C,0.040000*%
%TA.AperFunction,OtherDrill,Pad Free-6 (3400mil,3175mil)*%
%ADD629C,0.040000*%
D29*
X1200000Y1055000D02*
D03*
D30*
X1230000Y1055000D02*
D03*
D31*
X1260000Y1055000D02*
D03*
D32*
X1290000Y1055000D02*
D03*
D33*
X1320000Y1055000D02*
D03*
D34*
X1350000Y1055000D02*
D03*
D35*
X1380000Y1055000D02*
D03*
D36*
X1410000Y1055000D02*
D03*
D37*
X1440000Y1055000D02*
D03*
D38*
X1470000Y1055000D02*
D03*
D39*
X1500000Y1055000D02*
D03*
D40*
X1500000Y1115000D02*
D03*
D41*
X1470000Y1115000D02*
D03*
D42*
X1440000Y1115000D02*
D03*
D43*
X1410000Y1115000D02*
D03*
D44*
X1380000Y1115000D02*
D03*
D45*
X1350000Y1115000D02*
D03*
D46*
X1320000Y1115000D02*
D03*
D47*
X1290000Y1115000D02*
D03*
D48*
X1260000Y1115000D02*
D03*
D49*
X1230000Y1115000D02*
D03*
D50*
X1200000Y1115000D02*
D03*
D51*
X1750000Y1055000D02*
D03*
D52*
X1780000Y1055000D02*
D03*
D53*
X1810000Y1055000D02*
D03*
D54*
X1840000Y1055000D02*
D03*
D55*
X1870000Y1055000D02*
D03*
D56*
X1900000Y1055000D02*
D03*
D57*
X1930000Y1055000D02*
D03*
D58*
X1960000Y1055000D02*
D03*
D59*
X1990000Y1055000D02*
D03*
D60*
X2020000Y1055000D02*
D03*
D61*
X2050000Y1055000D02*
D03*
D62*
X2050000Y1115000D02*
D03*
D63*
X2020000Y1115000D02*
D03*
D64*
X1990000Y1115000D02*
D03*
D65*
X1960000Y1115000D02*
D03*
D66*
X1930000Y1115000D02*
D03*
D67*
X1900000Y1115000D02*
D03*
D68*
X1870000Y1115000D02*
D03*
D69*
X1840000Y1115000D02*
D03*
D70*
X1810000Y1115000D02*
D03*
D71*
X1780000Y1115000D02*
D03*
D72*
X1750000Y1115000D02*
D03*
D73*
X2850000Y1055000D02*
D03*
D74*
X2880000Y1055000D02*
D03*
D75*
X2910000Y1055000D02*
D03*
D76*
X2940000Y1055000D02*
D03*
D77*
X2970000Y1055000D02*
D03*
D78*
X3000000Y1055000D02*
D03*
D79*
X3030000Y1055000D02*
D03*
D80*
X3060000Y1055000D02*
D03*
D81*
X3090000Y1055000D02*
D03*
D82*
X3120000Y1055000D02*
D03*
D83*
X3150000Y1055000D02*
D03*
D84*
X3150000Y1115000D02*
D03*
D85*
X3120000Y1115000D02*
D03*
D86*
X3090000Y1115000D02*
D03*
D87*
X3060000Y1115000D02*
D03*
D88*
X3030000Y1115000D02*
D03*
D89*
X3000000Y1115000D02*
D03*
D90*
X2970000Y1115000D02*
D03*
D91*
X2940000Y1115000D02*
D03*
D92*
X2910000Y1115000D02*
D03*
D93*
X2880000Y1115000D02*
D03*
D94*
X2850000Y1115000D02*
D03*
D95*
X2300000Y1055000D02*
D03*
D96*
X2330000Y1055000D02*
D03*
D97*
X2360000Y1055000D02*
D03*
D98*
X2390000Y1055000D02*
D03*
D99*
X2420000Y1055000D02*
D03*
D100*
X2450000Y1055000D02*
D03*
D101*
X2480000Y1055000D02*
D03*
D102*
X2510000Y1055000D02*
D03*
D103*
X2540000Y1055000D02*
D03*
D104*
X2570000Y1055000D02*
D03*
D105*
X2600000Y1055000D02*
D03*
D106*
X2600000Y1115000D02*
D03*
D107*
X2570000Y1115000D02*
D03*
D108*
X2540000Y1115000D02*
D03*
D109*
X2510000Y1115000D02*
D03*
D110*
X2480000Y1115000D02*
D03*
D111*
X2450000Y1115000D02*
D03*
D112*
X2420000Y1115000D02*
D03*
D113*
X2390000Y1115000D02*
D03*
D114*
X2360000Y1115000D02*
D03*
D115*
X2330000Y1115000D02*
D03*
D116*
X2300000Y1115000D02*
D03*
D117*
X3400000Y1055000D02*
D03*
D118*
X3430000Y1055000D02*
D03*
D119*
X3460000Y1055000D02*
D03*
D120*
X3490000Y1055000D02*
D03*
D121*
X3520000Y1055000D02*
D03*
D122*
X3550000Y1055000D02*
D03*
D123*
X3580000Y1055000D02*
D03*
D124*
X3610000Y1055000D02*
D03*
D125*
X3640000Y1055000D02*
D03*
D126*
X3670000Y1055000D02*
D03*
D127*
X3700000Y1055000D02*
D03*
D128*
X3700000Y1115000D02*
D03*
D129*
X3670000Y1115000D02*
D03*
D130*
X3640000Y1115000D02*
D03*
D131*
X3610000Y1115000D02*
D03*
D132*
X3580000Y1115000D02*
D03*
D133*
X3550000Y1115000D02*
D03*
D134*
X3520000Y1115000D02*
D03*
D135*
X3490000Y1115000D02*
D03*
D136*
X3460000Y1115000D02*
D03*
D137*
X3430000Y1115000D02*
D03*
D138*
X3400000Y1115000D02*
D03*
D139*
X1200000Y1935000D02*
D03*
D140*
X1230000Y1935000D02*
D03*
D141*
X1260000Y1935000D02*
D03*
D142*
X1290000Y1935000D02*
D03*
D143*
X1320000Y1935000D02*
D03*
D144*
X1350000Y1935000D02*
D03*
D145*
X1380000Y1935000D02*
D03*
D146*
X1410000Y1935000D02*
D03*
D147*
X1440000Y1935000D02*
D03*
D148*
X1470000Y1935000D02*
D03*
D149*
X1500000Y1935000D02*
D03*
D150*
X1500000Y1995000D02*
D03*
D151*
X1470000Y1995000D02*
D03*
D152*
X1440000Y1995000D02*
D03*
D153*
X1410000Y1995000D02*
D03*
D154*
X1380000Y1995000D02*
D03*
D155*
X1350000Y1995000D02*
D03*
D156*
X1320000Y1995000D02*
D03*
D157*
X1290000Y1995000D02*
D03*
D158*
X1260000Y1995000D02*
D03*
D159*
X1230000Y1995000D02*
D03*
D160*
X1200000Y1995000D02*
D03*
D161*
X1750000Y1935000D02*
D03*
D162*
X1780000Y1935000D02*
D03*
D163*
X1810000Y1935000D02*
D03*
D164*
X1840000Y1935000D02*
D03*
D165*
X1870000Y1935000D02*
D03*
D166*
X1900000Y1935000D02*
D03*
D167*
X1930000Y1935000D02*
D03*
D168*
X1960000Y1935000D02*
D03*
D169*
X1990000Y1935000D02*
D03*
D170*
X2020000Y1935000D02*
D03*
D171*
X2050000Y1935000D02*
D03*
D172*
X2050000Y1995000D02*
D03*
D173*
X2020000Y1995000D02*
D03*
D174*
X1990000Y1995000D02*
D03*
D175*
X1960000Y1995000D02*
D03*
D176*
X1930000Y1995000D02*
D03*
D177*
X1900000Y1995000D02*
D03*
D178*
X1870000Y1995000D02*
D03*
D179*
X1840000Y1995000D02*
D03*
D180*
X1810000Y1995000D02*
D03*
D181*
X1780000Y1995000D02*
D03*
D182*
X1750000Y1995000D02*
D03*
D183*
X2850000Y1935000D02*
D03*
D184*
X2880000Y1935000D02*
D03*
D185*
X2910000Y1935000D02*
D03*
D186*
X2940000Y1935000D02*
D03*
D187*
X2970000Y1935000D02*
D03*
D188*
X3000000Y1935000D02*
D03*
D189*
X3030000Y1935000D02*
D03*
D190*
X3060000Y1935000D02*
D03*
D191*
X3090000Y1935000D02*
D03*
D192*
X3120000Y1935000D02*
D03*
D193*
X3150000Y1935000D02*
D03*
D194*
X3150000Y1995000D02*
D03*
D195*
X3120000Y1995000D02*
D03*
D196*
X3090000Y1995000D02*
D03*
D197*
X3060000Y1995000D02*
D03*
D198*
X3030000Y1995000D02*
D03*
D199*
X3000000Y1995000D02*
D03*
D200*
X2970000Y1995000D02*
D03*
D201*
X2940000Y1995000D02*
D03*
D202*
X2910000Y1995000D02*
D03*
D203*
X2880000Y1995000D02*
D03*
D204*
X2850000Y1995000D02*
D03*
D205*
X2300000Y1935000D02*
D03*
D206*
X2330000Y1935000D02*
D03*
D207*
X2360000Y1935000D02*
D03*
D208*
X2390000Y1935000D02*
D03*
D209*
X2420000Y1935000D02*
D03*
D210*
X2450000Y1935000D02*
D03*
D211*
X2480000Y1935000D02*
D03*
D212*
X2510000Y1935000D02*
D03*
D213*
X2540000Y1935000D02*
D03*
D214*
X2570000Y1935000D02*
D03*
D215*
X2600000Y1935000D02*
D03*
D216*
X2600000Y1995000D02*
D03*
D217*
X2570000Y1995000D02*
D03*
D218*
X2540000Y1995000D02*
D03*
D219*
X2510000Y1995000D02*
D03*
D220*
X2480000Y1995000D02*
D03*
D221*
X2450000Y1995000D02*
D03*
D222*
X2420000Y1995000D02*
D03*
D223*
X2390000Y1995000D02*
D03*
D224*
X2360000Y1995000D02*
D03*
D225*
X2330000Y1995000D02*
D03*
D226*
X2300000Y1995000D02*
D03*
D227*
X3400000Y1935000D02*
D03*
D228*
X3430000Y1935000D02*
D03*
D229*
X3460000Y1935000D02*
D03*
D230*
X3490000Y1935000D02*
D03*
D231*
X3520000Y1935000D02*
D03*
D232*
X3550000Y1935000D02*
D03*
D233*
X3580000Y1935000D02*
D03*
D234*
X3610000Y1935000D02*
D03*
D235*
X3640000Y1935000D02*
D03*
D236*
X3670000Y1935000D02*
D03*
D237*
X3700000Y1935000D02*
D03*
D238*
X3700000Y1995000D02*
D03*
D239*
X3670000Y1995000D02*
D03*
D240*
X3640000Y1995000D02*
D03*
D241*
X3610000Y1995000D02*
D03*
D242*
X3580000Y1995000D02*
D03*
D243*
X3550000Y1995000D02*
D03*
D244*
X3520000Y1995000D02*
D03*
D245*
X3490000Y1995000D02*
D03*
D246*
X3460000Y1995000D02*
D03*
D247*
X3430000Y1995000D02*
D03*
D248*
X3400000Y1995000D02*
D03*
D249*
X3400000Y2515000D02*
D03*
D250*
X3430000Y2515000D02*
D03*
D251*
X3460000Y2515000D02*
D03*
D252*
X3490000Y2515000D02*
D03*
D253*
X3520000Y2515000D02*
D03*
D254*
X3550000Y2515000D02*
D03*
D255*
X3580000Y2515000D02*
D03*
D256*
X3610000Y2515000D02*
D03*
D257*
X3640000Y2515000D02*
D03*
D258*
X3670000Y2515000D02*
D03*
D259*
X3700000Y2515000D02*
D03*
D260*
X3700000Y2455000D02*
D03*
D261*
X3670000Y2455000D02*
D03*
D262*
X3640000Y2455000D02*
D03*
D263*
X3610000Y2455000D02*
D03*
D264*
X3580000Y2455000D02*
D03*
D265*
X3550000Y2455000D02*
D03*
D266*
X3520000Y2455000D02*
D03*
D267*
X3490000Y2455000D02*
D03*
D268*
X3460000Y2455000D02*
D03*
D269*
X3430000Y2455000D02*
D03*
D270*
X3400000Y2455000D02*
D03*
D271*
X2300000Y2515000D02*
D03*
D272*
X2330000Y2515000D02*
D03*
D273*
X2360000Y2515000D02*
D03*
D274*
X2390000Y2515000D02*
D03*
D275*
X2420000Y2515000D02*
D03*
D276*
X2450000Y2515000D02*
D03*
D277*
X2480000Y2515000D02*
D03*
D278*
X2510000Y2515000D02*
D03*
D279*
X2540000Y2515000D02*
D03*
D280*
X2570000Y2515000D02*
D03*
D281*
X2600000Y2515000D02*
D03*
D282*
X2600000Y2455000D02*
D03*
D283*
X2570000Y2455000D02*
D03*
D284*
X2540000Y2455000D02*
D03*
D285*
X2510000Y2455000D02*
D03*
D286*
X2480000Y2455000D02*
D03*
D287*
X2450000Y2455000D02*
D03*
D288*
X2420000Y2455000D02*
D03*
D289*
X2390000Y2455000D02*
D03*
D290*
X2360000Y2455000D02*
D03*
D291*
X2330000Y2455000D02*
D03*
D292*
X2300000Y2455000D02*
D03*
D293*
X2850000Y2515000D02*
D03*
D294*
X2880000Y2515000D02*
D03*
D295*
X2910000Y2515000D02*
D03*
D296*
X2940000Y2515000D02*
D03*
D297*
X2970000Y2515000D02*
D03*
D298*
X3000000Y2515000D02*
D03*
D299*
X3030000Y2515000D02*
D03*
D300*
X3060000Y2515000D02*
D03*
D301*
X3090000Y2515000D02*
D03*
D302*
X3120000Y2515000D02*
D03*
D303*
X3150000Y2515000D02*
D03*
D304*
X3150000Y2455000D02*
D03*
D305*
X3120000Y2455000D02*
D03*
D306*
X3090000Y2455000D02*
D03*
D307*
X3060000Y2455000D02*
D03*
D308*
X3030000Y2455000D02*
D03*
D309*
X3000000Y2455000D02*
D03*
D310*
X2970000Y2455000D02*
D03*
D311*
X2940000Y2455000D02*
D03*
D312*
X2910000Y2455000D02*
D03*
D313*
X2880000Y2455000D02*
D03*
D314*
X2850000Y2455000D02*
D03*
D315*
X3400000Y3395000D02*
D03*
D316*
X3430000Y3395000D02*
D03*
D317*
X3460000Y3395000D02*
D03*
D318*
X3490000Y3395000D02*
D03*
D319*
X3520000Y3395000D02*
D03*
D320*
X3550000Y3395000D02*
D03*
D321*
X3580000Y3395000D02*
D03*
D322*
X3610000Y3395000D02*
D03*
D323*
X3640000Y3395000D02*
D03*
D324*
X3670000Y3395000D02*
D03*
D325*
X3700000Y3395000D02*
D03*
D326*
X3700000Y3335000D02*
D03*
D327*
X3670000Y3335000D02*
D03*
D328*
X3640000Y3335000D02*
D03*
D329*
X3610000Y3335000D02*
D03*
D330*
X3580000Y3335000D02*
D03*
D331*
X3550000Y3335000D02*
D03*
D332*
X3520000Y3335000D02*
D03*
D333*
X3490000Y3335000D02*
D03*
D334*
X3460000Y3335000D02*
D03*
D335*
X3430000Y3335000D02*
D03*
D336*
X3400000Y3335000D02*
D03*
D337*
X2850000Y3395000D02*
D03*
D338*
X2880000Y3395000D02*
D03*
D339*
X2910000Y3395000D02*
D03*
D340*
X2940000Y3395000D02*
D03*
D341*
X2970000Y3395000D02*
D03*
D342*
X3000000Y3395000D02*
D03*
D343*
X3030000Y3395000D02*
D03*
D344*
X3060000Y3395000D02*
D03*
D345*
X3090000Y3395000D02*
D03*
D346*
X3120000Y3395000D02*
D03*
D347*
X3150000Y3395000D02*
D03*
D348*
X3150000Y3335000D02*
D03*
D349*
X3120000Y3335000D02*
D03*
D350*
X3090000Y3335000D02*
D03*
D351*
X3060000Y3335000D02*
D03*
D352*
X3030000Y3335000D02*
D03*
D353*
X3000000Y3335000D02*
D03*
D354*
X2970000Y3335000D02*
D03*
D355*
X2940000Y3335000D02*
D03*
D356*
X2910000Y3335000D02*
D03*
D357*
X2880000Y3335000D02*
D03*
D358*
X2850000Y3335000D02*
D03*
D359*
X2300000Y3395000D02*
D03*
D360*
X2330000Y3395000D02*
D03*
D361*
X2360000Y3395000D02*
D03*
D362*
X2390000Y3395000D02*
D03*
D363*
X2420000Y3395000D02*
D03*
D364*
X2450000Y3395000D02*
D03*
D365*
X2480000Y3395000D02*
D03*
D366*
X2510000Y3395000D02*
D03*
D367*
X2540000Y3395000D02*
D03*
D368*
X2570000Y3395000D02*
D03*
D369*
X2600000Y3395000D02*
D03*
D370*
X2600000Y3335000D02*
D03*
D371*
X2570000Y3335000D02*
D03*
D372*
X2540000Y3335000D02*
D03*
D373*
X2510000Y3335000D02*
D03*
D374*
X2480000Y3335000D02*
D03*
D375*
X2450000Y3335000D02*
D03*
D376*
X2420000Y3335000D02*
D03*
D377*
X2390000Y3335000D02*
D03*
D378*
X2360000Y3335000D02*
D03*
D379*
X2330000Y3335000D02*
D03*
D380*
X2300000Y3335000D02*
D03*
D381*
X1750000Y3395000D02*
D03*
D382*
X1780000Y3395000D02*
D03*
D383*
X1810000Y3395000D02*
D03*
D384*
X1840000Y3395000D02*
D03*
D385*
X1870000Y3395000D02*
D03*
D386*
X1900000Y3395000D02*
D03*
D387*
X1930000Y3395000D02*
D03*
D388*
X1960000Y3395000D02*
D03*
D389*
X1990000Y3395000D02*
D03*
D390*
X2020000Y3395000D02*
D03*
D391*
X2050000Y3395000D02*
D03*
D392*
X2050000Y3335000D02*
D03*
D393*
X2020000Y3335000D02*
D03*
D394*
X1990000Y3335000D02*
D03*
D395*
X1960000Y3335000D02*
D03*
D396*
X1930000Y3335000D02*
D03*
D397*
X1900000Y3335000D02*
D03*
D398*
X1870000Y3335000D02*
D03*
D399*
X1840000Y3335000D02*
D03*
D400*
X1810000Y3335000D02*
D03*
D401*
X1780000Y3335000D02*
D03*
D402*
X1750000Y3335000D02*
D03*
D403*
X1750000Y2515000D02*
D03*
D404*
X1780000Y2515000D02*
D03*
D405*
X1810000Y2515000D02*
D03*
D406*
X1840000Y2515000D02*
D03*
D407*
X1870000Y2515000D02*
D03*
D408*
X1900000Y2515000D02*
D03*
D409*
X1930000Y2515000D02*
D03*
D410*
X1960000Y2515000D02*
D03*
D411*
X1990000Y2515000D02*
D03*
D412*
X2020000Y2515000D02*
D03*
D413*
X2050000Y2515000D02*
D03*
D414*
X2050000Y2455000D02*
D03*
D415*
X2020000Y2455000D02*
D03*
D416*
X1990000Y2455000D02*
D03*
D417*
X1960000Y2455000D02*
D03*
D418*
X1930000Y2455000D02*
D03*
D419*
X1900000Y2455000D02*
D03*
D420*
X1870000Y2455000D02*
D03*
D421*
X1840000Y2455000D02*
D03*
D422*
X1810000Y2455000D02*
D03*
D423*
X1780000Y2455000D02*
D03*
D424*
X1750000Y2455000D02*
D03*
D425*
X1200000Y2515000D02*
D03*
D426*
X1230000Y2515000D02*
D03*
D427*
X1260000Y2515000D02*
D03*
D428*
X1290000Y2515000D02*
D03*
D429*
X1320000Y2515000D02*
D03*
D430*
X1350000Y2515000D02*
D03*
D431*
X1380000Y2515000D02*
D03*
D432*
X1410000Y2515000D02*
D03*
D433*
X1440000Y2515000D02*
D03*
D434*
X1470000Y2515000D02*
D03*
D435*
X1500000Y2515000D02*
D03*
D436*
X1500000Y2455000D02*
D03*
D437*
X1470000Y2455000D02*
D03*
D438*
X1440000Y2455000D02*
D03*
D439*
X1410000Y2455000D02*
D03*
D440*
X1380000Y2455000D02*
D03*
D441*
X1350000Y2455000D02*
D03*
D442*
X1320000Y2455000D02*
D03*
D443*
X1290000Y2455000D02*
D03*
D444*
X1260000Y2455000D02*
D03*
D445*
X1230000Y2455000D02*
D03*
D446*
X1200000Y2455000D02*
D03*
D447*
X1200000Y3395000D02*
D03*
D448*
X1230000Y3395000D02*
D03*
D449*
X1260000Y3395000D02*
D03*
D450*
X1290000Y3395000D02*
D03*
D451*
X1320000Y3395000D02*
D03*
D452*
X1350000Y3395000D02*
D03*
D453*
X1380000Y3395000D02*
D03*
D454*
X1410000Y3395000D02*
D03*
D455*
X1440000Y3395000D02*
D03*
D456*
X1470000Y3395000D02*
D03*
D457*
X1500000Y3395000D02*
D03*
D458*
X1500000Y3335000D02*
D03*
D459*
X1470000Y3335000D02*
D03*
D460*
X1440000Y3335000D02*
D03*
D461*
X1410000Y3335000D02*
D03*
D462*
X1380000Y3335000D02*
D03*
D463*
X1350000Y3335000D02*
D03*
D464*
X1320000Y3335000D02*
D03*
D465*
X1290000Y3335000D02*
D03*
D466*
X1260000Y3335000D02*
D03*
D467*
X1230000Y3335000D02*
D03*
D468*
X1200000Y3335000D02*
D03*
D469*
X1500000Y1175000D02*
D03*
D470*
X1500000Y1275000D02*
D03*
D471*
X1500000Y1375000D02*
D03*
D472*
X1500000Y1475000D02*
D03*
D473*
X1200000Y1875000D02*
D03*
D474*
X1500000Y1875000D02*
D03*
D475*
X1500000Y1775000D02*
D03*
D476*
X1500000Y1675000D02*
D03*
D477*
X1500000Y1575000D02*
D03*
D478*
X1200000Y1175000D02*
D03*
D479*
X1200000Y1275000D02*
D03*
D480*
X1200000Y1375000D02*
D03*
D481*
X1200000Y1475000D02*
D03*
D482*
X1200000Y1575000D02*
D03*
D483*
X1200000Y1675000D02*
D03*
D484*
X1200000Y1775000D02*
D03*
D485*
X1327730Y1502730D02*
D03*
X1372272D02*
D03*
Y1547272D02*
D03*
X1327730D02*
D03*
X1877730D02*
D03*
Y1502730D02*
D03*
X1922272D02*
D03*
Y1547272D02*
D03*
X2427730D02*
D03*
X2472272D02*
D03*
Y1502730D02*
D03*
X2427730D02*
D03*
X2977730D02*
D03*
Y1547272D02*
D03*
X3022272D02*
D03*
Y1502730D02*
D03*
X3527730D02*
D03*
X3572272D02*
D03*
Y1547272D02*
D03*
X3527730D02*
D03*
Y2902730D02*
D03*
X3572272D02*
D03*
Y2947272D02*
D03*
X3527730D02*
D03*
X3022272D02*
D03*
Y2902730D02*
D03*
X2977730D02*
D03*
Y2947272D02*
D03*
X2472272D02*
D03*
Y2902730D02*
D03*
X2427730D02*
D03*
Y2947272D02*
D03*
X1922272D02*
D03*
Y2902730D02*
D03*
X1877730D02*
D03*
Y2947272D02*
D03*
X1372272D02*
D03*
Y2902730D02*
D03*
X1327730D02*
D03*
Y2947272D02*
D03*
D486*
X2050000Y1175000D02*
D03*
D487*
X2050000Y1275000D02*
D03*
D488*
X2050000Y1375000D02*
D03*
D489*
X2050000Y1475000D02*
D03*
D490*
X1750000Y1875000D02*
D03*
D491*
X2050000Y1875000D02*
D03*
D492*
X2050000Y1775000D02*
D03*
D493*
X2050000Y1675000D02*
D03*
D494*
X2050000Y1575000D02*
D03*
D495*
X1750000Y1175000D02*
D03*
D496*
X1750000Y1275000D02*
D03*
D497*
X1750000Y1375000D02*
D03*
D498*
X1750000Y1475000D02*
D03*
D499*
X1750000Y1575000D02*
D03*
D500*
X1750000Y1675000D02*
D03*
D501*
X1750000Y1775000D02*
D03*
D502*
X2600000Y1175000D02*
D03*
D503*
X2600000Y1275000D02*
D03*
D504*
X2600000Y1375000D02*
D03*
D505*
X2600000Y1475000D02*
D03*
D506*
X2300000Y1875000D02*
D03*
D507*
X2600000Y1875000D02*
D03*
D508*
X2600000Y1775000D02*
D03*
D509*
X2600000Y1675000D02*
D03*
D510*
X2600000Y1575000D02*
D03*
D511*
X2300000Y1175000D02*
D03*
D512*
X2300000Y1275000D02*
D03*
D513*
X2300000Y1375000D02*
D03*
D514*
X2300000Y1475000D02*
D03*
D515*
X2300000Y1575000D02*
D03*
D516*
X2300000Y1675000D02*
D03*
D517*
X2300000Y1775000D02*
D03*
D518*
X3150000Y1175000D02*
D03*
D519*
X3150000Y1275000D02*
D03*
D520*
X3150000Y1375000D02*
D03*
D521*
X3150000Y1475000D02*
D03*
D522*
X2850000Y1875000D02*
D03*
D523*
X3150000Y1875000D02*
D03*
D524*
X3150000Y1775000D02*
D03*
D525*
X3150000Y1675000D02*
D03*
D526*
X3150000Y1575000D02*
D03*
D527*
X2850000Y1175000D02*
D03*
D528*
X2850000Y1275000D02*
D03*
D529*
X2850000Y1375000D02*
D03*
D530*
X2850000Y1475000D02*
D03*
D531*
X2850000Y1575000D02*
D03*
D532*
X2850000Y1675000D02*
D03*
D533*
X2850000Y1775000D02*
D03*
D534*
X3700000Y1175000D02*
D03*
D535*
X3700000Y1275000D02*
D03*
D536*
X3700000Y1375000D02*
D03*
D537*
X3700000Y1475000D02*
D03*
D538*
X3400000Y1875000D02*
D03*
D539*
X3700000Y1875000D02*
D03*
D540*
X3700000Y1775000D02*
D03*
D541*
X3700000Y1675000D02*
D03*
D542*
X3700000Y1575000D02*
D03*
D543*
X3400000Y1175000D02*
D03*
D544*
X3400000Y1275000D02*
D03*
D545*
X3400000Y1375000D02*
D03*
D546*
X3400000Y1475000D02*
D03*
D547*
X3400000Y1575000D02*
D03*
D548*
X3400000Y1675000D02*
D03*
D549*
X3400000Y1775000D02*
D03*
D550*
X1500000Y2575000D02*
D03*
D551*
X1500000Y2675000D02*
D03*
D552*
X1500000Y2775000D02*
D03*
D553*
X1500000Y2875000D02*
D03*
D554*
X1200000Y3275000D02*
D03*
D555*
X1500000Y3275000D02*
D03*
D556*
X1500000Y3175000D02*
D03*
D557*
X1500000Y3075000D02*
D03*
D558*
X1500000Y2975000D02*
D03*
D559*
X1200000Y2575000D02*
D03*
D560*
X1200000Y2675000D02*
D03*
D561*
X1200000Y2775000D02*
D03*
D562*
X1200000Y2875000D02*
D03*
D563*
X1200000Y2975000D02*
D03*
D564*
X1200000Y3075000D02*
D03*
D565*
X1200000Y3175000D02*
D03*
D566*
X2050000Y2575000D02*
D03*
D567*
X2050000Y2675000D02*
D03*
D568*
X2050000Y2775000D02*
D03*
D569*
X2050000Y2875000D02*
D03*
D570*
X1750000Y3275000D02*
D03*
D571*
X2050000Y3275000D02*
D03*
D572*
X2050000Y3175000D02*
D03*
D573*
X2050000Y3075000D02*
D03*
D574*
X2050000Y2975000D02*
D03*
D575*
X1750000Y2575000D02*
D03*
D576*
X1750000Y2675000D02*
D03*
D577*
X1750000Y2775000D02*
D03*
D578*
X1750000Y2875000D02*
D03*
D579*
X1750000Y2975000D02*
D03*
D580*
X1750000Y3075000D02*
D03*
D581*
X1750000Y3175000D02*
D03*
D582*
X2600000Y2575000D02*
D03*
D583*
X2600000Y2675000D02*
D03*
D584*
X2600000Y2775000D02*
D03*
D585*
X2600000Y2875000D02*
D03*
D586*
X2300000Y3275000D02*
D03*
D587*
X2600000Y3275000D02*
D03*
D588*
X2600000Y3175000D02*
D03*
D589*
X2600000Y3075000D02*
D03*
D590*
X2600000Y2975000D02*
D03*
D591*
X2300000Y2575000D02*
D03*
D592*
X2300000Y2675000D02*
D03*
D593*
X2300000Y2775000D02*
D03*
D594*
X2300000Y2875000D02*
D03*
D595*
X2300000Y2975000D02*
D03*
D596*
X2300000Y3075000D02*
D03*
D597*
X2300000Y3175000D02*
D03*
D598*
X3150000Y2575000D02*
D03*
D599*
X3150000Y2675000D02*
D03*
D600*
X3150000Y2775000D02*
D03*
D601*
X3150000Y2875000D02*
D03*
D602*
X2850000Y3275000D02*
D03*
D603*
X3150000Y3275000D02*
D03*
D604*
X3150000Y3175000D02*
D03*
D605*
X3150000Y3075000D02*
D03*
D606*
X3150000Y2975000D02*
D03*
D607*
X2850000Y2575000D02*
D03*
D608*
X2850000Y2675000D02*
D03*
D609*
X2850000Y2775000D02*
D03*
D610*
X2850000Y2875000D02*
D03*
D611*
X2850000Y2975000D02*
D03*
D612*
X2850000Y3075000D02*
D03*
D613*
X2850000Y3175000D02*
D03*
D614*
X3700000Y2575000D02*
D03*
D615*
X3700000Y2675000D02*
D03*
D616*
X3700000Y2775000D02*
D03*
D617*
X3700000Y2875000D02*
D03*
D618*
X3400000Y3275000D02*
D03*
D619*
X3700000Y3275000D02*
D03*
D620*
X3700000Y3175000D02*
D03*
D621*
X3700000Y3075000D02*
D03*
D622*
X3700000Y2975000D02*
D03*
D623*
X3400000Y2575000D02*
D03*
D624*
X3400000Y2675000D02*
D03*
D625*
X3400000Y2775000D02*
D03*
D626*
X3400000Y2875000D02*
D03*
D627*
X3400000Y2975000D02*
D03*
D628*
X3400000Y3075000D02*
D03*
D629*
X3400000Y3175000D02*
D03*
%TF.MD5,8e35b65f4bf54bf7773ae669064567d9*%
M02*
