M48
;Layer_Color=9474304
;FILE_FORMAT=4:4
METRIC,LZ
T11F00S00C5.0800
%
G90
G05
T11
G00X01783048Y-00024893
M15
G01X01787895Y-00023393
G01X01792347Y-0002096
G01X01796227Y-0001769
G01X01799379Y-00013715
G01X01801678Y-00009192
G01X01803033Y-00004303
G01X018034Y0
G01X018034Y01524
G01X01802893Y01529048
G01X01801393Y01533895
G01X0179896Y01538347
G01X0179569Y01542227
G01X01791715Y01545379
G01X01787192Y01547678
G01X01782302Y01549033
G01X01778Y015494
G01X0Y015494
G01X-00005048Y01548893
G01X-00009895Y01547393
G01X-00014347Y0154496
G01X-00018227Y0154169
G01X-00021379Y01537715
G01X-00023678Y01533192
G01X-00025033Y01528303
G01X-000254Y01524
G01X-000254Y0
G01X-00024893Y-00005048
G01X-00023393Y-00009895
G01X-0002096Y-00014347
G01X-0001769Y-00018227
G01X-00013715Y-00021379
G01X-00009192Y-00023678
G01X-00004303Y-00025033
G01X0Y-000254
G01X01778Y-000254
G01X01783048Y-00024893
M16
M17
M30
