M48
;Layer_Color=9474304
;FILE_FORMAT=4:4
METRIC,LZ
;TYPE=PLATED
T1F00S00C0.2032
T2F00S00C0.2540
T4F00S00C0.8000
T5F00S00C1.0000
T6F00S00C1.0160
T7F00S00C1.1938
T8F00S00C1.2000
T9F00S00C3.5560
;TYPE=NON_PLATED
T10F00S00C1.6000
%
T01
X0081407Y0056642
X0081153Y00618236
X0082042
X00836934Y00633734
X0084201Y0064262
X00829314Y00644473
X0080391Y0064135
X0079502Y0065786
Y0068453
X0079629Y007239
X0083058Y0072898
X0083693Y0072263
X0084963
X0086233
X0087503
Y0070993
Y0069723
Y0068453
X0086233
Y0069723
Y0070993
X0084963
Y0069723
Y0068453
X0083693
Y0069723
Y0070993
X0084328Y0070358
Y0069088
Y0067818
X0085598
X0086868
Y0069088
Y0070358
Y0071628
Y0072898
X0085598
X0084328
Y0071628
X0085598
Y0070358
Y0069088
X0088138
Y0067818
Y0070358
Y0071628
Y0072898
X0087884Y0076581
X00866648
X00860806Y00759722
X0087249Y0077216
X0088519
X009144Y0077978
X0094996Y0075692
X00956374Y00750724
X0095631Y0074168
X0094996Y0073533
X009268Y0072669
X0092583Y0071755
X0091821Y0072009
X0090932Y00711708
X00921Y0070079
X0091567Y00664464
X0093345Y006477
X009271Y0062738
X0088392Y0061976
X0088265Y00635
X0086995Y0064389
X0085471Y0059436
X0088646Y0056642
X0092202
X0095123Y005969
X0096266Y0058928
X0098044Y0061976
Y0063881
X0100838Y0067056
Y0068707
X0099822Y0072644
X0100838Y0073787
X0100584Y0077978
X0104902Y0071882
X0105664Y0070104
X0096901Y0070739
X0083058Y0070358
Y0071628
Y0069088
Y0067818
X008128Y0075946
X0083058Y0078867
X01016Y0060452
X0077851Y0056642
X0075057Y0055626
X0072517
X0069977
X0067437
X0064897
X0062357
X0059817
X0057277
X0054737
X0052197
X0049657
X0047117
X0044577
X0042037
X0043307Y0059436
X0045847
X0048387
X0050927
X0053467
X0056007
X0058547
X0061087
X0063627
X0066167
X0068707
X0071247
X0073787
X0074549Y0063246
X00762
Y0065786
X0077851
Y0068453
X0077978Y006985
X00762Y0068453
X0074549
X0072898
X0071247
X0069596
X0067945
X0066294
X0064643
X0062992
X0061595Y00691896
X0060254Y00694436
X0058928Y00691896
X0057531Y0068453
X005588
X0054229
X0052578
X0050927
X0049276
X0047625
X0045974
X0044323
X0042672
X0041021
Y0065786
X0042672
X0044323
X0045974
X0047625
X0049276
X0050927
X0052578
X0054229
X005588
X0057531
X0058928Y0065024
X0060254Y006477
X0061595Y0065024
X0062992Y0065786
X0064643
X0066294
X0067945
X0069596
X0071247
X0072898
X0074549
X0072517Y0063246
X0069977
X0067437
X0064897
X0062357
X0059817
X0057277
X0054737
X0052197
X0049657
X0047117
X0044577
X0042037
X0040767Y0059436
X0042037Y0070993
X0044577
X0047117
X0049657
X0052197
X0054737
X0057277
X0059817
X0062357
X0064897
X006731
X0069596
X0068707Y0074803
X0066167
X0063627
X0061087
X0058547
X0056007
X0053467
X0050927
X0048387
X0045847
X0043307
X0040767
X0042037Y0078613
X0044577
X0047117
X0049657
X0052197
X0054737
X0057277
X0059817
X0062357
X0064897
X0067437
X0069977
X0072517
X0070993Y0076708
X0078232Y0073533
X0039497Y0070993
X0036957
X0034417
X0031877
X0029337
X0026797
X0024257
Y0068834
X0022733
X0021336Y0068453
Y0065786
X0022606Y0065278
X0024257
Y0063246
X0021717
X0019177
X0016637
Y0065786
X0018288
Y0068453
X0016637
X0014986
X0013335
X0011684
X0010033
X0008382
X0006731
X000508
X0003429
X0001778
X0002667Y0070993
X0003937
X0006477
X0009017
X0011557
X0014097
X0016637
X0019177
X0021717
X0020447Y0074803
X0017907
X0015367
X0012827
X0010287
X0007747
X0005207
X0002667
Y0078613
X0003937
X0006477
X0009017
X0011557
X0014097
X0016637
X0019177
X0021717
X0024257
X0026797
X0029337
X0031877
X0034417
X0036957
X0039497
X0038227Y0074803
X0035687
X0033147
X0030607
X0028067
X0025527
X0022987
X0026162Y0068453
X0027813
X0029464
X0031115
X0032766
X0034417
X0036068
X0037719
X003937
Y0065786
X0037719
X0036068
X0034417
X0032766
X0031115
X0029464
X0027813
X0026162
X0026797Y0063246
X0029337
X0031877
X0034417
X0036957
X0039497
X0038227Y0059436
X0035687
X0033147
X0030607
X0028067
X0025527
X0022987
X0020447
X0017907
X0015367
X0012827
X0010287
X0007747
X0006731Y0060833
X000508
X0005207Y0059436
X0002667
X0003429Y0060833
X0006731Y0062484
Y0064135
Y0065786
X0008382
X0010033
X0011684
X0013335
X0014986
X0014097Y0063246
X0011557
X0009017
Y0055626
X0011557
X0014097
X0016637
X0019177
X0021717
X0024257
X0026797
X0029337
X0031877
X0034417
X0036957
X0039497
X0006477
X0003937
X0002667
X0071882Y0082042
X0072771
X0070866Y0086487
X006985
X006731Y0096901
X0064643Y0097663
X008128Y0108712
Y011049
X0082804Y0109601
X0093853Y0096139
X0094742
X0095631
X0098171
X00990645Y00961345
X00999535
X0104902Y0096901
X0105664Y0097663
X011049Y0110871
X0091186Y0090551
X0089789Y0091821
X0089281Y0084455
X009144
Y0082804
X008509Y008128
X008255Y0084074
X0079883
X014478Y0114427
X014605
X014859
X015748Y0109855
X016002
X016256
X016383Y010668
X016129
X015875
X014478Y0131318
X0142875Y0129413
X0143891Y013843
X0151511
X0136271
X0126238Y0125095
X0124841Y012192
X0123444
X0116713Y0126746
X0107061Y0121158
X0098425Y0126619
X0089916Y0121158
X0079629Y0127635
X0077597Y0129921
X0075184Y0130683
X0072644Y0127635
X0064389Y0128651
Y0125857
Y0131445
X0056007Y0130683
X0056642Y0129921
X005842Y0127635
X00527034Y01378069
X0068834Y0137795
X0076327
X0039624Y0131699
X0038862Y0130048
X0037973Y0128524
X003429Y0131445
Y013335
X0028448Y0137668
X002413Y013843
X0022733Y0136779
X002286Y013462
X0023876
X0023368Y0133731
X002286Y0132842
X0023876
X0019939Y0136779
X001651
X001397Y0135763
X0017399Y0146304
X0018542
X0021717Y0142875
X0028448
T02
X0088138Y0064516
X0091313Y0061849
X0092456Y0069088
X00837199Y0077343
X0077851Y0061849
X0088011Y0093345
X00839568Y01003202
X0145415Y0108077
X0155956Y0129413
X0067564Y0125984
X0030607Y0140081
X0024892Y01397
X0020701Y0134493
T04
X0133731Y0145034
X0136271
X0141351
X0143891
X0148971
X0151511
T05
X0159679Y0149225
X0162179
X0157179
X0119507Y0134747
X0112141Y0126619
X0109601
X0107061
X0094996
X0092456
X0089916
X0101727Y0134747
T06
X015875Y0117475
X016129
X016383
Y0120015
X016129
X015875
T07
X01237488Y0146812
X0118745
X0109601
X01045972
X0095377
X00903732
T08
X0041395Y0136565
X0043895
X0046395
X0048895
X0051395
X0053895
Y0139065
X0051395
X0048895
X0046395
X0043895
X0041395
X0065104
X0067604
X0070104
X0072604
X0075104
X0077604
Y0136565
X0075104
X0072604
X0070104
X0067604
X0065104
T09
X0008128Y0008128
X0169672
Y0144272
X0008128
T10
X0041395Y0146245
X0053895
X0065104
X0077604
M30
