M48
;Layer_Color=9474304
;FILE_FORMAT=4:4
METRIC,LZ
;TYPE=PLATED
T1F00S00C0.3048
T3F00S00C0.8000
T4F00S00C1.0000
T5F00S00C1.0160
T6F00S00C1.1938
T7F00S00C1.2000
T8F00S00C3.5560
;TYPE=NON_PLATED
T9F00S00C1.6000
%
T01
X0013589Y0021971
X0016256Y0023749
X0018161Y0026416
X0019431
X0021971
X0025146Y0028448
X0030607Y0031496
X003302Y0035941
X0034036Y0035179
X0021971
X0015748Y0035052
X0014351Y0034163
X0012573Y0034417
X0013081Y0031623
X0008763Y0030861
Y0036957
X0011176Y0026416
X0023241Y0021209
X0047117Y0021082
X0041656Y003175
X004064Y0039116
X0044577Y0040767
X0044958Y0048133
X0044196Y0052959
Y0063881
X0049403Y0064389
Y0067945
X0052324Y0067564
X0051562Y0071628
X0048133Y0071882
X0046482Y0070993
X0045593
X0049403Y007366
X0054737
X00544195Y00746125
X0057404Y007366
X0059055Y0076581
X0062611Y0073406
X0061468Y0070612
X0060071
X0063373Y0069977
X0065532
X0064516Y0068707
X0067564Y0070358
X006858Y0071247
X0069723Y0074422
X0070612Y0077089
X0052451Y0076962
X0057531Y0065913
X0057912Y0063754
X0056642Y0062357
X0057531Y0060833
X0059309Y0056896
X0058166Y0049784
X0060452Y0064008
X0067945Y0058166
X0041021Y0068326
X0038735Y006858
X0037465Y0068072
X003556Y0068834
X0033147Y0068072
X003048Y0070485
X0027559
X0027051Y0068326
X0023241Y0067691
X0021717Y0067564
X0019431
X0018542
X00178435Y00682625
X00160593Y00688903
X0015748Y0069723
X0014224Y0068199
X001397Y0065405
X001524
X00164465
X0020701Y0064516
Y0062484
Y0060452
X0021074Y0058919
X0020424Y0058269
X0021074Y0057619
X0021724Y0058269
X0021099Y0055919
X0021724Y0055269
X0020424
X0021074Y0054619
Y0052919
X0020424Y0052269
X0021074Y0051619
X0021724Y0052269
X0018724
X0018074Y0052919
X0017424Y0052269
X0018074Y0051619
X0018669Y0049276
X0017272Y0048387
X0016256Y0048006
X0015875Y0050419
X0015074Y0051619
Y0052919
X0015724Y0052269
X0014424
Y0055269
X0015724
X0015074Y0054619
Y0055919
Y0057619
X0015724Y0058269
X0015074Y0058919
X0014424Y0058269
X0017424
X0018074Y0057619
X0018724Y0058269
X0018074Y0058919
X0017018Y0060452
X0017424Y0055269
X0018074Y0054619
X0018724Y0055269
X0018099Y0055919
X0025781Y0056896
X00281305Y0057785
Y00602686
X0025527Y0059944
X0023622Y0061214
X0023495Y0062357
Y00635
Y0064643
X002286Y007239
X0020574
X0018923Y0073914
X0016891Y0077597
X0011303Y0067691
X0009144Y0067818
X0007874
X0009736Y00650819
X0009525Y0063754
Y0061214
Y0058674
Y0057404
X00130683Y00487447
X00127Y0046101
X001397
X0013843Y004445
X0015875Y0045085
X0016256Y0039751
X001143Y0042164
X0010541
X00079375Y0043815
X0008763Y004572
X00217805Y0048006
X0022987
X00255093Y00506044
X00259017Y00514287
X0026416Y0053467
X002794Y0054102
X00281305Y0052884
X0031877Y006223
X0037465Y0064135
X0034798Y0072771
X0037465Y0047879
X0037846Y0081407
X0024638Y0079883
X0026543Y0088646
X0017272Y0084582
X0047117Y0084963
Y0083312
X00471619Y00822511
X0049784Y0083185
Y0084455
Y0086233
X0051054Y0086995
X0048514
X004826Y0079629
X0052578Y0082169
X0057912Y0081788
X0059309Y0086233
X0054991Y0088265
X0057531Y0096139
X0061722Y0095123
X0067818Y0088011
X0041783Y0091694
T03
X0011557Y0073914
Y0076454
Y0080264
Y0082804
Y0086614
Y0089154
T04
X0047498Y0010922
Y0013462
Y0016002
Y0026416
Y0028956
Y0031496
X0058166Y0023368
Y0005588
X0032893Y0098806
X0030393
X0027893
T05
X0016891Y0013589
X0019431
X0021971
Y0016129
X0019431
X0016891
X0017526Y0038227
X0020066
X0022606
X0014986
X0030353Y0037465
Y0040005
Y0042545
Y0045085
Y0047625
Y0050165
Y0052705
Y0055245
Y0057785
Y0060325
Y0073025
Y0075565
Y0078105
Y0080645
Y0083185
Y0085725
T06
X0072136Y00134112
Y0018415
Y0024765
Y00297688
Y0036068
Y00410718
T07
X0063091Y0053032
X0065591
Y0055532
Y0058032
Y0060532
Y0063032
Y0065532
X0063091
Y0063032
Y0060532
Y0058032
Y0055532
Y0075511
Y0078011
X0065591
Y0075511
Y0080511
X0063091
Y0083011
Y0085511
Y0088011
X0065591
Y0085511
Y0083011
T08
X001397Y000635
X007112
X001397Y009525
X007112
T09
X0072771Y0053032
Y0065532
Y0075511
Y0088011
M30
