M48
;Layer_Color=9474304
;FILE_FORMAT=4:4
METRIC,LZ
T10F00S00C5.0800
%
G90
G05
T10
G00X00779748Y-00024893
M15
G01X00784595Y-00023393
G01X00789047Y-0002096
G01X00792927Y-0001769
G01X00796079Y-00013715
G01X00798378Y-00009192
G01X00799733Y-00004303
G01X008001Y0
G01X008001Y01016
G01X00799593Y01021048
G01X00798093Y01025895
G01X0079566Y01030347
G01X0079239Y01034227
G01X00788415Y01037379
G01X00783892Y01039678
G01X00779003Y01041033
G01X007747Y010414
G01X000127Y010414
G01X00007652Y01040893
G01X00002805Y01039393
G01X-00001647Y0103696
G01X-00005527Y0103369
G01X-00008679Y01029715
G01X-00010978Y01025192
G01X-00012333Y01020303
G01X-000127Y01016
G01X-000127Y0
G01X-00012193Y-00005048
G01X-00010693Y-00009895
G01X-0000826Y-00014347
G01X-0000499Y-00018227
G01X-00001015Y-00021379
G01X00003508Y-00023678
G01X00008397Y-00025033
G01X000127Y-000254
G01X007747Y-000254
G01X00779748Y-00024893
M16
M17
M30
