G04*
G04 #@! TF.GenerationSoftware,Altium Limited,Altium Designer,23.2.1 (34)*
G04*
G04 Layer_Physical_Order=2*
G04 Layer_Color=36540*
%FSLAX44Y44*%
%MOMM*%
G71*
G04*
G04 #@! TF.SameCoordinates,B8F3427F-0302-4C4C-BDD2-04FEC27F4463*
G04*
G04*
G04 #@! TF.FilePolarity,Positive*
G04*
G01*
G75*
%ADD11C,0.1524*%
%ADD16C,0.2540*%
%ADD63C,1.7000*%
%ADD65C,1.6000*%
%ADD80R,2.5400X2.5400*%
%ADD81C,2.5400*%
%ADD82R,1.7000X1.7000*%
%ADD83R,1.6000X1.6000*%
%ADD84C,1.6000*%
%ADD85C,2.0320*%
%ADD86R,2.0320X2.0320*%
%ADD87R,1.5000X1.5000*%
%ADD88C,1.5000*%
%ADD89C,1.6500*%
%ADD90O,0.9000X1.8000*%
%ADD91C,5.0800*%
%ADD92C,0.5080*%
%ADD93C,1.0160*%
%ADD94C,0.7620*%
G36*
X1775961Y2039D02*
X10160D01*
Y618490D01*
X15240D01*
Y621665D01*
X27940D01*
Y618490D01*
X59690D01*
Y676910D01*
X27940D01*
Y643128D01*
X15240D01*
Y676910D01*
X10160D01*
Y1521961D01*
X1775961D01*
Y2039D01*
D02*
G37*
%LPC*%
G36*
X264710Y1520361D02*
X262872Y1520119D01*
X261160Y1519409D01*
X259689Y1518281D01*
X258561Y1516810D01*
X257851Y1515098D01*
X257609Y1513260D01*
Y1504260D01*
X257851Y1502422D01*
X258561Y1500710D01*
X259689Y1499239D01*
X261160Y1498111D01*
X262872Y1497401D01*
X264710Y1497159D01*
X266548Y1497401D01*
X268260Y1498111D01*
X269731Y1499239D01*
X270859Y1500710D01*
X271569Y1502422D01*
X271811Y1504260D01*
Y1513260D01*
X271569Y1515098D01*
X270859Y1516810D01*
X269731Y1518281D01*
X268260Y1519409D01*
X266548Y1520119D01*
X264710Y1520361D01*
D02*
G37*
G36*
X198710D02*
X196872Y1520119D01*
X195160Y1519409D01*
X193689Y1518281D01*
X192561Y1516810D01*
X191851Y1515098D01*
X191609Y1513260D01*
Y1504260D01*
X191851Y1502422D01*
X192561Y1500710D01*
X193689Y1499239D01*
X195160Y1498111D01*
X196872Y1497401D01*
X198710Y1497159D01*
X200548Y1497401D01*
X202260Y1498111D01*
X203731Y1499239D01*
X204859Y1500710D01*
X205569Y1502422D01*
X205811Y1504260D01*
Y1513260D01*
X205569Y1515098D01*
X204859Y1516810D01*
X203731Y1518281D01*
X202260Y1519409D01*
X200548Y1520119D01*
X198710Y1520361D01*
D02*
G37*
G36*
X1631830Y1502290D02*
X1611750D01*
Y1482210D01*
X1631830D01*
Y1502290D01*
D02*
G37*
G36*
X1598112D02*
X1595468D01*
X1592915Y1501606D01*
X1590625Y1500284D01*
X1588756Y1498415D01*
X1587434Y1496125D01*
X1586750Y1493572D01*
Y1490928D01*
X1587434Y1488375D01*
X1588756Y1486085D01*
X1590625Y1484216D01*
X1592915Y1482894D01*
X1595468Y1482210D01*
X1598112D01*
X1600665Y1482894D01*
X1602955Y1484216D01*
X1604824Y1486085D01*
X1606146Y1488375D01*
X1606830Y1490928D01*
Y1493572D01*
X1606146Y1496125D01*
X1604824Y1498415D01*
X1602955Y1500284D01*
X1600665Y1501606D01*
X1598112Y1502290D01*
D02*
G37*
G36*
X1573112D02*
X1570468D01*
X1567915Y1501606D01*
X1565625Y1500284D01*
X1563756Y1498415D01*
X1562434Y1496125D01*
X1561750Y1493572D01*
Y1490928D01*
X1562434Y1488375D01*
X1563756Y1486085D01*
X1565625Y1484216D01*
X1567915Y1482894D01*
X1570468Y1482210D01*
X1573112D01*
X1575665Y1482894D01*
X1577955Y1484216D01*
X1579824Y1486085D01*
X1581146Y1488375D01*
X1581830Y1490928D01*
Y1493572D01*
X1581146Y1496125D01*
X1579824Y1498415D01*
X1577955Y1500284D01*
X1575665Y1501606D01*
X1573112Y1502290D01*
D02*
G37*
G36*
X1188951Y1483360D02*
X1185949D01*
X1183005Y1482774D01*
X1180231Y1481626D01*
X1177735Y1479958D01*
X1175612Y1477835D01*
X1173944Y1475339D01*
X1172796Y1472565D01*
X1172210Y1469621D01*
Y1466619D01*
X1172796Y1463675D01*
X1173944Y1460901D01*
X1175612Y1458405D01*
X1177735Y1456282D01*
X1180231Y1454615D01*
X1183005Y1453466D01*
X1185949Y1452880D01*
X1188951D01*
X1191895Y1453466D01*
X1194669Y1454615D01*
X1197165Y1456282D01*
X1199288Y1458405D01*
X1200956Y1460901D01*
X1202104Y1463675D01*
X1202690Y1466619D01*
Y1469621D01*
X1202104Y1472565D01*
X1200956Y1475339D01*
X1199288Y1477835D01*
X1197165Y1479958D01*
X1194669Y1481626D01*
X1191895Y1482774D01*
X1188951Y1483360D01*
D02*
G37*
G36*
X1111250D02*
X1080770D01*
Y1452880D01*
X1111250D01*
Y1483360D01*
D02*
G37*
G36*
X1047473D02*
X1044471D01*
X1041527Y1482774D01*
X1038753Y1481626D01*
X1036257Y1479958D01*
X1034134Y1477835D01*
X1032467Y1475339D01*
X1031318Y1472565D01*
X1030732Y1469621D01*
Y1466619D01*
X1031318Y1463675D01*
X1032467Y1460901D01*
X1034134Y1458405D01*
X1036257Y1456282D01*
X1038753Y1454615D01*
X1041527Y1453466D01*
X1044471Y1452880D01*
X1047473D01*
X1050417Y1453466D01*
X1053191Y1454615D01*
X1055687Y1456282D01*
X1057810Y1458405D01*
X1059477Y1460901D01*
X1060626Y1463675D01*
X1061212Y1466619D01*
Y1469621D01*
X1060626Y1472565D01*
X1059477Y1475339D01*
X1057810Y1477835D01*
X1055687Y1479958D01*
X1053191Y1481626D01*
X1050417Y1482774D01*
X1047473Y1483360D01*
D02*
G37*
G36*
X969010D02*
X938530D01*
Y1452880D01*
X969010D01*
Y1483360D01*
D02*
G37*
G36*
X905233D02*
X902231D01*
X899287Y1482774D01*
X896513Y1481626D01*
X894017Y1479958D01*
X891894Y1477835D01*
X890227Y1475339D01*
X889078Y1472565D01*
X888492Y1469621D01*
Y1466619D01*
X889078Y1463675D01*
X890227Y1460901D01*
X891894Y1458405D01*
X894017Y1456282D01*
X896513Y1454615D01*
X899287Y1453466D01*
X902231Y1452880D01*
X905233D01*
X908177Y1453466D01*
X910951Y1454615D01*
X913447Y1456282D01*
X915570Y1458405D01*
X917237Y1460901D01*
X918386Y1463675D01*
X918972Y1466619D01*
Y1469621D01*
X918386Y1472565D01*
X917237Y1475339D01*
X915570Y1477835D01*
X913447Y1479958D01*
X910951Y1481626D01*
X908177Y1482774D01*
X905233Y1483360D01*
D02*
G37*
G36*
X777427Y1472990D02*
X774652D01*
X771972Y1472272D01*
X769568Y1470884D01*
X767606Y1468922D01*
X766218Y1466518D01*
X765500Y1463838D01*
Y1461062D01*
X766218Y1458382D01*
X767606Y1455978D01*
X769568Y1454016D01*
X771972Y1452628D01*
X774652Y1451910D01*
X777427D01*
X780108Y1452628D01*
X782512Y1454016D01*
X784474Y1455978D01*
X785861Y1458382D01*
X786580Y1461062D01*
Y1463838D01*
X785861Y1466518D01*
X784474Y1468922D01*
X782512Y1470884D01*
X780108Y1472272D01*
X777427Y1472990D01*
D02*
G37*
G36*
X652428D02*
X649652D01*
X646972Y1472272D01*
X644568Y1470884D01*
X642606Y1468922D01*
X641218Y1466518D01*
X640500Y1463838D01*
Y1461062D01*
X641218Y1458382D01*
X642606Y1455978D01*
X644568Y1454016D01*
X646972Y1452628D01*
X649652Y1451910D01*
X652428D01*
X655108Y1452628D01*
X657512Y1454016D01*
X659474Y1455978D01*
X660862Y1458382D01*
X661580Y1461062D01*
Y1463838D01*
X660862Y1466518D01*
X659474Y1468922D01*
X657512Y1470884D01*
X655108Y1472272D01*
X652428Y1472990D01*
D02*
G37*
G36*
X540337D02*
X537562D01*
X534882Y1472272D01*
X532478Y1470884D01*
X530516Y1468922D01*
X529128Y1466518D01*
X528410Y1463838D01*
Y1461062D01*
X529128Y1458382D01*
X530516Y1455978D01*
X532478Y1454016D01*
X534882Y1452628D01*
X537562Y1451910D01*
X540337D01*
X543018Y1452628D01*
X545421Y1454016D01*
X547384Y1455978D01*
X548771Y1458382D01*
X549490Y1461062D01*
Y1463838D01*
X548771Y1466518D01*
X547384Y1468922D01*
X545421Y1470884D01*
X543018Y1472272D01*
X540337Y1472990D01*
D02*
G37*
G36*
X415338D02*
X412562D01*
X409882Y1472272D01*
X407478Y1470884D01*
X405516Y1468922D01*
X404128Y1466518D01*
X403410Y1463838D01*
Y1461062D01*
X404128Y1458382D01*
X405516Y1455978D01*
X407478Y1454016D01*
X409882Y1452628D01*
X412562Y1451910D01*
X415338D01*
X418018Y1452628D01*
X420422Y1454016D01*
X422384Y1455978D01*
X423772Y1458382D01*
X424490Y1461062D01*
Y1463838D01*
X423772Y1466518D01*
X422384Y1468922D01*
X420422Y1470884D01*
X418018Y1472272D01*
X415338Y1472990D01*
D02*
G37*
G36*
X1516498Y1460880D02*
X1513722D01*
X1511042Y1460162D01*
X1508638Y1458774D01*
X1506676Y1456812D01*
X1505288Y1454408D01*
X1504570Y1451728D01*
Y1448952D01*
X1505288Y1446272D01*
X1506676Y1443868D01*
X1508638Y1441906D01*
X1511042Y1440518D01*
X1513722Y1439800D01*
X1516498D01*
X1519178Y1440518D01*
X1521582Y1441906D01*
X1523544Y1443868D01*
X1524932Y1446272D01*
X1525650Y1448952D01*
Y1451728D01*
X1524932Y1454408D01*
X1523544Y1456812D01*
X1521582Y1458774D01*
X1519178Y1460162D01*
X1516498Y1460880D01*
D02*
G37*
G36*
X1491098D02*
X1488322D01*
X1485642Y1460162D01*
X1483238Y1458774D01*
X1481276Y1456812D01*
X1479888Y1454408D01*
X1479170Y1451728D01*
Y1448952D01*
X1479888Y1446272D01*
X1481276Y1443868D01*
X1483238Y1441906D01*
X1485642Y1440518D01*
X1488322Y1439800D01*
X1491098D01*
X1493778Y1440518D01*
X1496182Y1441906D01*
X1498144Y1443868D01*
X1499532Y1446272D01*
X1500250Y1448952D01*
Y1451728D01*
X1499532Y1454408D01*
X1498144Y1456812D01*
X1496182Y1458774D01*
X1493778Y1460162D01*
X1491098Y1460880D01*
D02*
G37*
G36*
X1440298D02*
X1437522D01*
X1434842Y1460162D01*
X1432438Y1458774D01*
X1430476Y1456812D01*
X1429088Y1454408D01*
X1428370Y1451728D01*
Y1448952D01*
X1429088Y1446272D01*
X1430476Y1443868D01*
X1432438Y1441906D01*
X1434842Y1440518D01*
X1437522Y1439800D01*
X1440298D01*
X1442978Y1440518D01*
X1445382Y1441906D01*
X1447344Y1443868D01*
X1448732Y1446272D01*
X1449450Y1448952D01*
Y1451728D01*
X1448732Y1454408D01*
X1447344Y1456812D01*
X1445382Y1458774D01*
X1442978Y1460162D01*
X1440298Y1460880D01*
D02*
G37*
G36*
X1414898D02*
X1412122D01*
X1409442Y1460162D01*
X1407038Y1458774D01*
X1405076Y1456812D01*
X1403688Y1454408D01*
X1402970Y1451728D01*
Y1448952D01*
X1403688Y1446272D01*
X1405076Y1443868D01*
X1407038Y1441906D01*
X1409442Y1440518D01*
X1412122Y1439800D01*
X1414898D01*
X1417578Y1440518D01*
X1419982Y1441906D01*
X1421944Y1443868D01*
X1423332Y1446272D01*
X1424050Y1448952D01*
Y1451728D01*
X1423332Y1454408D01*
X1421944Y1456812D01*
X1419982Y1458774D01*
X1417578Y1460162D01*
X1414898Y1460880D01*
D02*
G37*
G36*
X1364098D02*
X1361322D01*
X1358642Y1460162D01*
X1356238Y1458774D01*
X1354276Y1456812D01*
X1352888Y1454408D01*
X1352170Y1451728D01*
Y1448952D01*
X1352888Y1446272D01*
X1354276Y1443868D01*
X1356238Y1441906D01*
X1358642Y1440518D01*
X1361322Y1439800D01*
X1364098D01*
X1366778Y1440518D01*
X1369182Y1441906D01*
X1371144Y1443868D01*
X1372532Y1446272D01*
X1373250Y1448952D01*
Y1451728D01*
X1372532Y1454408D01*
X1371144Y1456812D01*
X1369182Y1458774D01*
X1366778Y1460162D01*
X1364098Y1460880D01*
D02*
G37*
G36*
X1338698D02*
X1335922D01*
X1333242Y1460162D01*
X1330838Y1458774D01*
X1328876Y1456812D01*
X1327488Y1454408D01*
X1326770Y1451728D01*
Y1448952D01*
X1327488Y1446272D01*
X1328876Y1443868D01*
X1330838Y1441906D01*
X1333242Y1440518D01*
X1335922Y1439800D01*
X1338698D01*
X1341378Y1440518D01*
X1343782Y1441906D01*
X1345744Y1443868D01*
X1347132Y1446272D01*
X1347850Y1448952D01*
Y1451728D01*
X1347132Y1454408D01*
X1345744Y1456812D01*
X1343782Y1458774D01*
X1341378Y1460162D01*
X1338698Y1460880D01*
D02*
G37*
G36*
X307073Y1408430D02*
X305067D01*
X303129Y1407911D01*
X301391Y1406908D01*
X299972Y1405489D01*
X298969Y1403751D01*
X298450Y1401813D01*
Y1399807D01*
X298969Y1397869D01*
X299972Y1396131D01*
X301391Y1394713D01*
X303129Y1393709D01*
X305067Y1393190D01*
X307073D01*
X309011Y1393709D01*
X310749Y1394713D01*
X312167Y1396131D01*
X313171Y1397869D01*
X313690Y1399807D01*
Y1401813D01*
X313171Y1403751D01*
X312167Y1405489D01*
X310749Y1406908D01*
X309011Y1407911D01*
X307073Y1408430D01*
D02*
G37*
G36*
X249923Y1404620D02*
X247917D01*
X245979Y1404101D01*
X244241Y1403098D01*
X242822Y1401679D01*
X241819Y1399941D01*
X241300Y1398003D01*
Y1395997D01*
X241819Y1394059D01*
X242822Y1392321D01*
X244241Y1390903D01*
X245979Y1389899D01*
X247917Y1389380D01*
X249923D01*
X251861Y1389899D01*
X253599Y1390903D01*
X255018Y1392321D01*
X256021Y1394059D01*
X256540Y1395997D01*
Y1398003D01*
X256021Y1399941D01*
X255018Y1401679D01*
X253599Y1403098D01*
X251861Y1404101D01*
X249923Y1404620D01*
D02*
G37*
G36*
X727493Y1401690D02*
X724587D01*
X721779Y1400938D01*
X719261Y1399484D01*
X717206Y1397429D01*
X715752Y1394911D01*
X715000Y1392103D01*
Y1389197D01*
X715752Y1386389D01*
X717206Y1383871D01*
X719261Y1381816D01*
X721779Y1380362D01*
X724587Y1379610D01*
X727493D01*
X730301Y1380362D01*
X732819Y1381816D01*
X734874Y1383871D01*
X736328Y1386389D01*
X737080Y1389197D01*
Y1392103D01*
X736328Y1394911D01*
X734874Y1397429D01*
X732819Y1399484D01*
X730301Y1400938D01*
X727493Y1401690D01*
D02*
G37*
G36*
X702493D02*
X699587D01*
X696779Y1400938D01*
X694261Y1399484D01*
X692206Y1397429D01*
X690752Y1394911D01*
X690000Y1392103D01*
Y1389197D01*
X690752Y1386389D01*
X692206Y1383871D01*
X694261Y1381816D01*
X696779Y1380362D01*
X699587Y1379610D01*
X702493D01*
X705301Y1380362D01*
X707819Y1381816D01*
X709874Y1383871D01*
X711328Y1386389D01*
X712080Y1389197D01*
Y1392103D01*
X711328Y1394911D01*
X709874Y1397429D01*
X707819Y1399484D01*
X705301Y1400938D01*
X702493Y1401690D01*
D02*
G37*
G36*
X677493D02*
X674587D01*
X671779Y1400938D01*
X669261Y1399484D01*
X667206Y1397429D01*
X665752Y1394911D01*
X665000Y1392103D01*
Y1389197D01*
X665752Y1386389D01*
X667206Y1383871D01*
X669261Y1381816D01*
X671779Y1380362D01*
X674587Y1379610D01*
X677493D01*
X680301Y1380362D01*
X682819Y1381816D01*
X684874Y1383871D01*
X686328Y1386389D01*
X687080Y1389197D01*
Y1392103D01*
X686328Y1394911D01*
X684874Y1397429D01*
X682819Y1399484D01*
X680301Y1400938D01*
X677493Y1401690D01*
D02*
G37*
G36*
X540403D02*
X537497D01*
X534689Y1400938D01*
X532171Y1399484D01*
X530116Y1397429D01*
X528662Y1394911D01*
X527910Y1392103D01*
Y1389197D01*
X528662Y1386389D01*
X530116Y1383871D01*
X532171Y1381816D01*
X534689Y1380362D01*
X537497Y1379610D01*
X540403D01*
X543211Y1380362D01*
X545729Y1381816D01*
X547784Y1383871D01*
X549238Y1386389D01*
X549990Y1389197D01*
Y1392103D01*
X549238Y1394911D01*
X547784Y1397429D01*
X545729Y1399484D01*
X543211Y1400938D01*
X540403Y1401690D01*
D02*
G37*
G36*
X515403D02*
X512497D01*
X509689Y1400938D01*
X507171Y1399484D01*
X505116Y1397429D01*
X503662Y1394911D01*
X502910Y1392103D01*
Y1389197D01*
X503662Y1386389D01*
X505116Y1383871D01*
X507171Y1381816D01*
X509689Y1380362D01*
X512497Y1379610D01*
X515403D01*
X518211Y1380362D01*
X520729Y1381816D01*
X522784Y1383871D01*
X524238Y1386389D01*
X524990Y1389197D01*
Y1392103D01*
X524238Y1394911D01*
X522784Y1397429D01*
X520729Y1399484D01*
X518211Y1400938D01*
X515403Y1401690D01*
D02*
G37*
G36*
X490403D02*
X487497D01*
X484689Y1400938D01*
X482171Y1399484D01*
X480116Y1397429D01*
X478662Y1394911D01*
X477910Y1392103D01*
Y1389197D01*
X478662Y1386389D01*
X480116Y1383871D01*
X482171Y1381816D01*
X484689Y1380362D01*
X487497Y1379610D01*
X490403D01*
X493211Y1380362D01*
X495729Y1381816D01*
X497784Y1383871D01*
X499238Y1386389D01*
X499990Y1389197D01*
Y1392103D01*
X499238Y1394911D01*
X497784Y1397429D01*
X495729Y1399484D01*
X493211Y1400938D01*
X490403Y1401690D01*
D02*
G37*
G36*
X465403D02*
X462497D01*
X459689Y1400938D01*
X457171Y1399484D01*
X455116Y1397429D01*
X453662Y1394911D01*
X452910Y1392103D01*
Y1389197D01*
X453662Y1386389D01*
X455116Y1383871D01*
X457171Y1381816D01*
X459689Y1380362D01*
X462497Y1379610D01*
X465403D01*
X468211Y1380362D01*
X470729Y1381816D01*
X472784Y1383871D01*
X474238Y1386389D01*
X474990Y1389197D01*
Y1392103D01*
X474238Y1394911D01*
X472784Y1397429D01*
X470729Y1399484D01*
X468211Y1400938D01*
X465403Y1401690D01*
D02*
G37*
G36*
X440403D02*
X437497D01*
X434689Y1400938D01*
X432171Y1399484D01*
X430116Y1397429D01*
X428662Y1394911D01*
X427910Y1392103D01*
Y1389197D01*
X428662Y1386389D01*
X430116Y1383871D01*
X432171Y1381816D01*
X434689Y1380362D01*
X437497Y1379610D01*
X440403D01*
X443211Y1380362D01*
X445729Y1381816D01*
X447784Y1383871D01*
X449238Y1386389D01*
X449990Y1389197D01*
Y1392103D01*
X449238Y1394911D01*
X447784Y1397429D01*
X445729Y1399484D01*
X443211Y1400938D01*
X440403Y1401690D01*
D02*
G37*
G36*
X415403D02*
X412497D01*
X409689Y1400938D01*
X407171Y1399484D01*
X405116Y1397429D01*
X403662Y1394911D01*
X402910Y1392103D01*
Y1389197D01*
X403662Y1386389D01*
X405116Y1383871D01*
X407171Y1381816D01*
X409689Y1380362D01*
X412497Y1379610D01*
X415403D01*
X418211Y1380362D01*
X420729Y1381816D01*
X422784Y1383871D01*
X424238Y1386389D01*
X424990Y1389197D01*
Y1392103D01*
X424238Y1394911D01*
X422784Y1397429D01*
X420729Y1399484D01*
X418211Y1400938D01*
X415403Y1401690D01*
D02*
G37*
G36*
X228340Y1372870D02*
X226320D01*
X224452Y1372097D01*
X223023Y1370668D01*
X222250Y1368801D01*
Y1366779D01*
X223023Y1364912D01*
X224452Y1363483D01*
X226320Y1362710D01*
X228340D01*
X230208Y1363483D01*
X231637Y1364912D01*
X232410Y1366779D01*
Y1368801D01*
X231637Y1370668D01*
X230208Y1372097D01*
X228340Y1372870D01*
D02*
G37*
G36*
X200401D02*
X198379D01*
X196512Y1372097D01*
X195083Y1370668D01*
X194310Y1368801D01*
Y1366779D01*
X195083Y1364912D01*
X196512Y1363483D01*
X198379Y1362710D01*
X200401D01*
X202268Y1363483D01*
X203697Y1364912D01*
X204470Y1366779D01*
Y1368801D01*
X203697Y1370668D01*
X202268Y1372097D01*
X200401Y1372870D01*
D02*
G37*
G36*
X166110D02*
X164090D01*
X162222Y1372097D01*
X160793Y1370668D01*
X160020Y1368801D01*
Y1366779D01*
X160793Y1364912D01*
X162222Y1363483D01*
X164090Y1362710D01*
X166110D01*
X167978Y1363483D01*
X169407Y1364912D01*
X170180Y1366779D01*
Y1368801D01*
X169407Y1370668D01*
X167978Y1372097D01*
X166110Y1372870D01*
D02*
G37*
G36*
X777493Y1376690D02*
X774587D01*
X771779Y1375938D01*
X769261Y1374484D01*
X767206Y1372429D01*
X765752Y1369911D01*
X765000Y1367103D01*
Y1364197D01*
X765752Y1361389D01*
X767206Y1358871D01*
X769261Y1356816D01*
X771779Y1355362D01*
X774587Y1354610D01*
X777493D01*
X780301Y1355362D01*
X782819Y1356816D01*
X784874Y1358871D01*
X786328Y1361389D01*
X787080Y1364197D01*
Y1367103D01*
X786328Y1369911D01*
X784874Y1372429D01*
X782819Y1374484D01*
X780301Y1375938D01*
X777493Y1376690D01*
D02*
G37*
G36*
X752493D02*
X749587D01*
X746779Y1375938D01*
X744261Y1374484D01*
X742206Y1372429D01*
X740752Y1369911D01*
X740000Y1367103D01*
Y1364197D01*
X740752Y1361389D01*
X742206Y1358871D01*
X744261Y1356816D01*
X746779Y1355362D01*
X749587Y1354610D01*
X752493D01*
X755301Y1355362D01*
X757819Y1356816D01*
X759874Y1358871D01*
X761328Y1361389D01*
X762080Y1364197D01*
Y1367103D01*
X761328Y1369911D01*
X759874Y1372429D01*
X757819Y1374484D01*
X755301Y1375938D01*
X752493Y1376690D01*
D02*
G37*
G36*
X727493D02*
X724587D01*
X721779Y1375938D01*
X719261Y1374484D01*
X717206Y1372429D01*
X715752Y1369911D01*
X715000Y1367103D01*
Y1364197D01*
X715752Y1361389D01*
X717206Y1358871D01*
X719261Y1356816D01*
X721779Y1355362D01*
X724587Y1354610D01*
X727493D01*
X730301Y1355362D01*
X732819Y1356816D01*
X734874Y1358871D01*
X736328Y1361389D01*
X737080Y1364197D01*
Y1367103D01*
X736328Y1369911D01*
X734874Y1372429D01*
X732819Y1374484D01*
X730301Y1375938D01*
X727493Y1376690D01*
D02*
G37*
G36*
X677493D02*
X674587D01*
X671779Y1375938D01*
X669261Y1374484D01*
X667206Y1372429D01*
X665752Y1369911D01*
X665000Y1367103D01*
Y1364197D01*
X665752Y1361389D01*
X667206Y1358871D01*
X669261Y1356816D01*
X671779Y1355362D01*
X674587Y1354610D01*
X677493D01*
X680301Y1355362D01*
X682819Y1356816D01*
X684874Y1358871D01*
X686328Y1361389D01*
X687080Y1364197D01*
Y1367103D01*
X686328Y1369911D01*
X684874Y1372429D01*
X682819Y1374484D01*
X680301Y1375938D01*
X677493Y1376690D01*
D02*
G37*
G36*
X662080D02*
X640000D01*
Y1354610D01*
X662080D01*
Y1376690D01*
D02*
G37*
G36*
X515403D02*
X512497D01*
X509689Y1375938D01*
X507171Y1374484D01*
X505116Y1372429D01*
X503662Y1369911D01*
X502910Y1367103D01*
Y1364197D01*
X503662Y1361389D01*
X505116Y1358871D01*
X507171Y1356816D01*
X509689Y1355362D01*
X512497Y1354610D01*
X515403D01*
X518211Y1355362D01*
X520729Y1356816D01*
X522784Y1358871D01*
X524238Y1361389D01*
X524990Y1364197D01*
Y1367103D01*
X524238Y1369911D01*
X522784Y1372429D01*
X520729Y1374484D01*
X518211Y1375938D01*
X515403Y1376690D01*
D02*
G37*
G36*
X490403D02*
X487497D01*
X484689Y1375938D01*
X482171Y1374484D01*
X480116Y1372429D01*
X478662Y1369911D01*
X477910Y1367103D01*
Y1364197D01*
X478662Y1361389D01*
X480116Y1358871D01*
X482171Y1356816D01*
X484689Y1355362D01*
X487497Y1354610D01*
X490403D01*
X493211Y1355362D01*
X495729Y1356816D01*
X497784Y1358871D01*
X499238Y1361389D01*
X499990Y1364197D01*
Y1367103D01*
X499238Y1369911D01*
X497784Y1372429D01*
X495729Y1374484D01*
X493211Y1375938D01*
X490403Y1376690D01*
D02*
G37*
G36*
X465403D02*
X462497D01*
X459689Y1375938D01*
X457171Y1374484D01*
X455116Y1372429D01*
X453662Y1369911D01*
X452910Y1367103D01*
Y1364197D01*
X453662Y1361389D01*
X455116Y1358871D01*
X457171Y1356816D01*
X459689Y1355362D01*
X462497Y1354610D01*
X465403D01*
X468211Y1355362D01*
X470729Y1356816D01*
X472784Y1358871D01*
X474238Y1361389D01*
X474990Y1364197D01*
Y1367103D01*
X474238Y1369911D01*
X472784Y1372429D01*
X470729Y1374484D01*
X468211Y1375938D01*
X465403Y1376690D01*
D02*
G37*
G36*
X440403D02*
X437497D01*
X434689Y1375938D01*
X432171Y1374484D01*
X430116Y1372429D01*
X428662Y1369911D01*
X427910Y1367103D01*
Y1364197D01*
X428662Y1361389D01*
X430116Y1358871D01*
X432171Y1356816D01*
X434689Y1355362D01*
X437497Y1354610D01*
X440403D01*
X443211Y1355362D01*
X445729Y1356816D01*
X447784Y1358871D01*
X449238Y1361389D01*
X449990Y1364197D01*
Y1367103D01*
X449238Y1369911D01*
X447784Y1372429D01*
X445729Y1374484D01*
X443211Y1375938D01*
X440403Y1376690D01*
D02*
G37*
G36*
X424990D02*
X402910D01*
Y1354610D01*
X424990D01*
Y1376690D01*
D02*
G37*
G36*
X140710Y1362710D02*
X138689D01*
X136822Y1361937D01*
X135393Y1360508D01*
X134620Y1358640D01*
Y1356620D01*
X135393Y1354752D01*
X136822Y1353323D01*
X138689Y1352550D01*
X140710D01*
X142578Y1353323D01*
X144007Y1354752D01*
X144780Y1356620D01*
Y1358640D01*
X144007Y1360508D01*
X142578Y1361937D01*
X140710Y1362710D01*
D02*
G37*
G36*
X208013Y1352550D02*
X206007D01*
X204069Y1352031D01*
X202331Y1351028D01*
X200912Y1349609D01*
X199909Y1347871D01*
X199390Y1345933D01*
Y1343927D01*
X199909Y1341989D01*
X200912Y1340251D01*
X202331Y1338833D01*
X204069Y1337829D01*
X206007Y1337310D01*
X208013D01*
X209951Y1337829D01*
X211689Y1338833D01*
X213107Y1340251D01*
X214111Y1341989D01*
X214630Y1343927D01*
Y1345933D01*
X214111Y1347871D01*
X213107Y1349609D01*
X211689Y1351028D01*
X209951Y1352031D01*
X208013Y1352550D01*
D02*
G37*
G36*
X1196490Y1358260D02*
X1193650D01*
X1190905Y1357525D01*
X1188445Y1356104D01*
X1186436Y1354095D01*
X1185015Y1351635D01*
X1184280Y1348891D01*
Y1346049D01*
X1185015Y1343305D01*
X1186436Y1340845D01*
X1188445Y1338836D01*
X1190905Y1337415D01*
X1193650Y1336680D01*
X1196490D01*
X1199235Y1337415D01*
X1201695Y1338836D01*
X1203704Y1340845D01*
X1205125Y1343305D01*
X1205860Y1346049D01*
Y1348891D01*
X1205125Y1351635D01*
X1203704Y1354095D01*
X1201695Y1356104D01*
X1199235Y1357525D01*
X1196490Y1358260D01*
D02*
G37*
G36*
X1018690D02*
X1015850D01*
X1013105Y1357525D01*
X1010645Y1356104D01*
X1008636Y1354095D01*
X1007215Y1351635D01*
X1006480Y1348891D01*
Y1346049D01*
X1007215Y1343305D01*
X1008636Y1340845D01*
X1010645Y1338836D01*
X1013105Y1337415D01*
X1015850Y1336680D01*
X1018690D01*
X1021435Y1337415D01*
X1023895Y1338836D01*
X1025904Y1340845D01*
X1027325Y1343305D01*
X1028060Y1346049D01*
Y1348891D01*
X1027325Y1351635D01*
X1025904Y1354095D01*
X1023895Y1356104D01*
X1021435Y1357525D01*
X1018690Y1358260D01*
D02*
G37*
G36*
X397251Y1322070D02*
X395229D01*
X393362Y1321297D01*
X391933Y1319868D01*
X391160Y1318000D01*
Y1315979D01*
X391933Y1314112D01*
X393362Y1312683D01*
X395229Y1311910D01*
X397251D01*
X399118Y1312683D01*
X400547Y1314112D01*
X401320Y1315979D01*
Y1318000D01*
X400547Y1319868D01*
X399118Y1321297D01*
X397251Y1322070D01*
D02*
G37*
G36*
X389631Y1305560D02*
X387609D01*
X385742Y1304787D01*
X384313Y1303358D01*
X383540Y1301490D01*
Y1299469D01*
X384313Y1297602D01*
X385742Y1296173D01*
X387609Y1295400D01*
X389631D01*
X391498Y1296173D01*
X392927Y1297602D01*
X393700Y1299469D01*
Y1301490D01*
X392927Y1303358D01*
X391498Y1304787D01*
X389631Y1305560D01*
D02*
G37*
G36*
X561081Y1311910D02*
X559059D01*
X557192Y1311137D01*
X555763Y1309708D01*
X554990Y1307841D01*
Y1305820D01*
X555763Y1303952D01*
X557192Y1302523D01*
X559059Y1301750D01*
X560599D01*
X561412Y1300795D01*
X561488Y1300577D01*
X561340Y1300220D01*
Y1298199D01*
X562113Y1296332D01*
X563542Y1294903D01*
X565410Y1294130D01*
X567430D01*
X569298Y1294903D01*
X570727Y1296332D01*
X571500Y1298199D01*
Y1300220D01*
X570727Y1302088D01*
X569298Y1303517D01*
X567430Y1304290D01*
X565891D01*
X565078Y1305245D01*
X565003Y1305463D01*
X565150Y1305820D01*
Y1307841D01*
X564377Y1309708D01*
X562948Y1311137D01*
X561081Y1311910D01*
D02*
G37*
G36*
X1560563Y1301750D02*
X1558557D01*
X1556619Y1301231D01*
X1554881Y1300228D01*
X1553463Y1298809D01*
X1552459Y1297071D01*
X1551940Y1295133D01*
Y1293127D01*
X1552459Y1291189D01*
X1553463Y1289451D01*
X1554881Y1288033D01*
X1556619Y1287029D01*
X1558557Y1286510D01*
X1560563D01*
X1562501Y1287029D01*
X1564239Y1288033D01*
X1565658Y1289451D01*
X1566661Y1291189D01*
X1567180Y1293127D01*
Y1295133D01*
X1566661Y1297071D01*
X1565658Y1298809D01*
X1564239Y1300228D01*
X1562501Y1301231D01*
X1560563Y1301750D01*
D02*
G37*
G36*
X380741Y1290320D02*
X378719D01*
X376852Y1289547D01*
X375423Y1288118D01*
X374650Y1286250D01*
Y1284229D01*
X375423Y1282362D01*
X376852Y1280933D01*
X378719Y1280160D01*
X380741D01*
X382608Y1280933D01*
X384037Y1282362D01*
X384810Y1284229D01*
Y1286250D01*
X384037Y1288118D01*
X382608Y1289547D01*
X380741Y1290320D01*
D02*
G37*
G36*
X727450Y1281430D02*
X725430D01*
X723562Y1280657D01*
X722133Y1279228D01*
X721360Y1277361D01*
Y1275340D01*
X722133Y1273472D01*
X723562Y1272043D01*
X725430Y1271270D01*
X727450D01*
X729318Y1272043D01*
X730747Y1273472D01*
X731520Y1275340D01*
Y1277361D01*
X730747Y1279228D01*
X729318Y1280657D01*
X727450Y1281430D01*
D02*
G37*
G36*
X585210D02*
X583190D01*
X581322Y1280657D01*
X579893Y1279228D01*
X579120Y1277361D01*
Y1275340D01*
X579893Y1273472D01*
X581322Y1272043D01*
X583190Y1271270D01*
X585210D01*
X587078Y1272043D01*
X588507Y1273472D01*
X589280Y1275340D01*
Y1277361D01*
X588507Y1279228D01*
X587078Y1280657D01*
X585210Y1281430D01*
D02*
G37*
G36*
X1097398Y1276730D02*
X1094622D01*
X1091942Y1276012D01*
X1089538Y1274624D01*
X1087576Y1272662D01*
X1086188Y1270258D01*
X1085470Y1267578D01*
Y1264802D01*
X1086188Y1262122D01*
X1087576Y1259718D01*
X1089538Y1257756D01*
X1091942Y1256368D01*
X1094622Y1255650D01*
X1097398D01*
X1100078Y1256368D01*
X1102482Y1257756D01*
X1104444Y1259718D01*
X1105832Y1262122D01*
X1106550Y1264802D01*
Y1267578D01*
X1105832Y1270258D01*
X1104444Y1272662D01*
X1102482Y1274624D01*
X1100078Y1276012D01*
X1097398Y1276730D01*
D02*
G37*
G36*
X1081150D02*
X1060070D01*
Y1255650D01*
X1081150D01*
Y1276730D01*
D02*
G37*
G36*
X925948D02*
X923172D01*
X920492Y1276012D01*
X918088Y1274624D01*
X916126Y1272662D01*
X914738Y1270258D01*
X914020Y1267578D01*
Y1264802D01*
X914738Y1262122D01*
X916126Y1259718D01*
X918088Y1257756D01*
X920492Y1256368D01*
X923172Y1255650D01*
X925948D01*
X928628Y1256368D01*
X931032Y1257756D01*
X932994Y1259718D01*
X934382Y1262122D01*
X935100Y1264802D01*
Y1267578D01*
X934382Y1270258D01*
X932994Y1272662D01*
X931032Y1274624D01*
X928628Y1276012D01*
X925948Y1276730D01*
D02*
G37*
G36*
X909700D02*
X888620D01*
Y1255650D01*
X909700D01*
Y1276730D01*
D02*
G37*
G36*
X676643Y1267460D02*
X674637D01*
X672699Y1266941D01*
X670961Y1265938D01*
X669542Y1264519D01*
X668539Y1262781D01*
X668020Y1260843D01*
Y1258837D01*
X668539Y1256899D01*
X669542Y1255161D01*
X670961Y1253743D01*
X672699Y1252739D01*
X674637Y1252220D01*
X676643D01*
X678581Y1252739D01*
X680319Y1253743D01*
X681738Y1255161D01*
X682741Y1256899D01*
X683260Y1258837D01*
Y1260843D01*
X682741Y1262781D01*
X681738Y1264519D01*
X680319Y1265938D01*
X678581Y1266941D01*
X676643Y1267460D01*
D02*
G37*
G36*
X1263391Y1256030D02*
X1261369D01*
X1259502Y1255257D01*
X1258073Y1253828D01*
X1257300Y1251961D01*
Y1249939D01*
X1258073Y1248072D01*
X1259502Y1246643D01*
X1261369Y1245870D01*
X1263391D01*
X1265258Y1246643D01*
X1266687Y1248072D01*
X1267460Y1249939D01*
Y1251961D01*
X1266687Y1253828D01*
X1265258Y1255257D01*
X1263391Y1256030D01*
D02*
G37*
G36*
X1249420Y1224280D02*
X1247400D01*
X1245532Y1223507D01*
X1244103Y1222078D01*
X1243330Y1220210D01*
Y1218189D01*
X1244103Y1216322D01*
X1245532Y1214893D01*
X1247400Y1214120D01*
X1249420D01*
X1251288Y1214893D01*
X1252717Y1216322D01*
X1253490Y1218189D01*
Y1220210D01*
X1252717Y1222078D01*
X1251288Y1223507D01*
X1249420Y1224280D01*
D02*
G37*
G36*
X1235451D02*
X1233429D01*
X1231562Y1223507D01*
X1230133Y1222078D01*
X1229360Y1220210D01*
Y1218189D01*
X1230133Y1216322D01*
X1231562Y1214893D01*
X1233429Y1214120D01*
X1235451D01*
X1237318Y1214893D01*
X1238747Y1216322D01*
X1239520Y1218189D01*
Y1220210D01*
X1238747Y1222078D01*
X1237318Y1223507D01*
X1235451Y1224280D01*
D02*
G37*
G36*
X1639972Y1212850D02*
X1636628D01*
X1633398Y1211984D01*
X1630502Y1210312D01*
X1628138Y1207948D01*
X1626465Y1205052D01*
X1626235Y1204192D01*
X1624965D01*
X1624734Y1205052D01*
X1623062Y1207948D01*
X1620698Y1210312D01*
X1617802Y1211984D01*
X1614572Y1212850D01*
X1611228D01*
X1607998Y1211984D01*
X1605102Y1210312D01*
X1602737Y1207948D01*
X1601066Y1205052D01*
X1600835Y1204192D01*
X1599565D01*
X1599335Y1205052D01*
X1597663Y1207948D01*
X1595298Y1210312D01*
X1592402Y1211984D01*
X1589172Y1212850D01*
X1585828D01*
X1582598Y1211984D01*
X1579702Y1210312D01*
X1577337Y1207948D01*
X1575665Y1205052D01*
X1574800Y1201822D01*
Y1198478D01*
X1575665Y1195248D01*
X1577337Y1192352D01*
X1579702Y1189987D01*
X1581897Y1188720D01*
X1581557Y1187450D01*
X1574800D01*
Y1162050D01*
X1600200D01*
Y1168807D01*
X1601470Y1169147D01*
X1602737Y1166952D01*
X1605102Y1164587D01*
X1607998Y1162915D01*
X1611228Y1162050D01*
X1614572D01*
X1617802Y1162915D01*
X1620698Y1164587D01*
X1623062Y1166952D01*
X1624734Y1169848D01*
X1624965Y1170708D01*
X1626235D01*
X1626465Y1169848D01*
X1628138Y1166952D01*
X1630502Y1164587D01*
X1633398Y1162915D01*
X1636628Y1162050D01*
X1639972D01*
X1643202Y1162915D01*
X1646098Y1164587D01*
X1648463Y1166952D01*
X1650134Y1169848D01*
X1651000Y1173078D01*
Y1176422D01*
X1650134Y1179652D01*
X1648463Y1182548D01*
X1646098Y1184912D01*
X1643202Y1186584D01*
X1642342Y1186815D01*
Y1188085D01*
X1643202Y1188316D01*
X1646098Y1189987D01*
X1648463Y1192352D01*
X1650134Y1195248D01*
X1651000Y1198478D01*
Y1201822D01*
X1650134Y1205052D01*
X1648463Y1207948D01*
X1646098Y1210312D01*
X1643202Y1211984D01*
X1639972Y1212850D01*
D02*
G37*
G36*
X813811Y1109980D02*
X811789D01*
X809922Y1109207D01*
X808493Y1107778D01*
X807720Y1105910D01*
Y1103889D01*
X808493Y1102022D01*
X809922Y1100593D01*
X811789Y1099820D01*
X813811D01*
X815678Y1100593D01*
X817107Y1102022D01*
X817880Y1103889D01*
Y1105910D01*
X817107Y1107778D01*
X815678Y1109207D01*
X813811Y1109980D01*
D02*
G37*
G36*
X1626611Y1103630D02*
X1624590D01*
X1622722Y1102857D01*
X1621293Y1101428D01*
X1620520Y1099560D01*
Y1097540D01*
X1621293Y1095672D01*
X1622722Y1094243D01*
X1624590Y1093470D01*
X1626611D01*
X1628478Y1094243D01*
X1629907Y1095672D01*
X1630680Y1097540D01*
Y1099560D01*
X1629907Y1101428D01*
X1628478Y1102857D01*
X1626611Y1103630D01*
D02*
G37*
G36*
X1601210D02*
X1599189D01*
X1597322Y1102857D01*
X1595893Y1101428D01*
X1595120Y1099560D01*
Y1097540D01*
X1595893Y1095672D01*
X1597322Y1094243D01*
X1599189Y1093470D01*
X1601210D01*
X1603078Y1094243D01*
X1604507Y1095672D01*
X1605280Y1097540D01*
Y1099560D01*
X1604507Y1101428D01*
X1603078Y1102857D01*
X1601210Y1103630D01*
D02*
G37*
G36*
X1575811D02*
X1573790D01*
X1571922Y1102857D01*
X1570493Y1101428D01*
X1569720Y1099560D01*
Y1097540D01*
X1570493Y1095672D01*
X1571922Y1094243D01*
X1573790Y1093470D01*
X1575811D01*
X1577678Y1094243D01*
X1579107Y1095672D01*
X1579880Y1097540D01*
Y1099560D01*
X1579107Y1101428D01*
X1577678Y1102857D01*
X1575811Y1103630D01*
D02*
G37*
G36*
X829051Y1101090D02*
X827029D01*
X825162Y1100317D01*
X823733Y1098888D01*
X822960Y1097020D01*
Y1094999D01*
X823733Y1093132D01*
X825162Y1091703D01*
X827029Y1090930D01*
X829051D01*
X830918Y1091703D01*
X832347Y1093132D01*
X833120Y1094999D01*
Y1097020D01*
X832347Y1098888D01*
X830918Y1100317D01*
X829051Y1101090D01*
D02*
G37*
G36*
X813811Y1092200D02*
X811789D01*
X809922Y1091427D01*
X808493Y1089998D01*
X807720Y1088130D01*
Y1086109D01*
X808493Y1084242D01*
X809922Y1082813D01*
X811789Y1082040D01*
X813811D01*
X815678Y1082813D01*
X817107Y1084242D01*
X817880Y1086109D01*
Y1088130D01*
X817107Y1089998D01*
X815678Y1091427D01*
X813811Y1092200D01*
D02*
G37*
G36*
X1455153Y1088390D02*
X1453147D01*
X1451209Y1087871D01*
X1449471Y1086868D01*
X1448053Y1085449D01*
X1447049Y1083711D01*
X1446530Y1081773D01*
Y1079767D01*
X1447049Y1077829D01*
X1448053Y1076091D01*
X1449471Y1074672D01*
X1451209Y1073669D01*
X1453147Y1073150D01*
X1455153D01*
X1457091Y1073669D01*
X1458829Y1074672D01*
X1460247Y1076091D01*
X1461251Y1077829D01*
X1461770Y1079767D01*
Y1081773D01*
X1461251Y1083711D01*
X1460247Y1085449D01*
X1458829Y1086868D01*
X1457091Y1087871D01*
X1455153Y1088390D01*
D02*
G37*
G36*
X1057651Y981710D02*
X1055630D01*
X1053762Y980937D01*
X1052333Y979508D01*
X1051560Y977641D01*
Y975620D01*
X1051954Y974668D01*
X1050982Y973696D01*
X1050031Y974090D01*
X1048009D01*
X1046142Y973317D01*
X1044713Y971888D01*
X1043940Y970021D01*
Y967999D01*
X1044713Y966132D01*
X1046142Y964703D01*
X1048009Y963930D01*
X1050031D01*
X1051898Y964703D01*
X1053327Y966132D01*
X1054100Y967999D01*
Y970021D01*
X1053706Y970972D01*
X1054678Y971944D01*
X1055630Y971550D01*
X1057651D01*
X1059518Y972323D01*
X1060947Y973752D01*
X1061720Y975620D01*
Y977641D01*
X1060947Y979508D01*
X1059518Y980937D01*
X1057651Y981710D01*
D02*
G37*
G36*
X647440D02*
X645419D01*
X643552Y980937D01*
X642123Y979508D01*
X641350Y977641D01*
Y975620D01*
X642123Y973752D01*
X643552Y972323D01*
X645419Y971550D01*
X647440D01*
X649308Y972323D01*
X650737Y973752D01*
X651510Y975620D01*
Y977641D01*
X650737Y979508D01*
X649308Y980937D01*
X647440Y981710D01*
D02*
G37*
G36*
X957320Y966470D02*
X955300D01*
X953432Y965697D01*
X952695Y964959D01*
X951865Y964366D01*
X951035Y964959D01*
X950298Y965697D01*
X948430Y966470D01*
X946410D01*
X944542Y965697D01*
X943805Y964959D01*
X942975Y964366D01*
X942145Y964959D01*
X941408Y965697D01*
X939540Y966470D01*
X937520D01*
X935652Y965697D01*
X934223Y964268D01*
X933450Y962401D01*
Y960379D01*
X934223Y958512D01*
X935652Y957083D01*
X937520Y956310D01*
X939540D01*
X941408Y957083D01*
X942145Y957821D01*
X942975Y958414D01*
X943805Y957821D01*
X944542Y957083D01*
X946410Y956310D01*
X948430D01*
X950298Y957083D01*
X951035Y957821D01*
X951865Y958414D01*
X952695Y957821D01*
X953432Y957083D01*
X955300Y956310D01*
X957320D01*
X959188Y957083D01*
X960617Y958512D01*
X961390Y960379D01*
Y962401D01*
X960617Y964268D01*
X959188Y965697D01*
X957320Y966470D01*
D02*
G37*
G36*
X674110Y974090D02*
X672089D01*
X670222Y973317D01*
X668793Y971888D01*
X668020Y970021D01*
Y967999D01*
X668793Y966132D01*
X670222Y964703D01*
X672089Y963930D01*
X674110D01*
X675978Y964703D01*
X677407Y966132D01*
X678180Y967999D01*
Y970021D01*
X677407Y971888D01*
X675978Y973317D01*
X674110Y974090D01*
D02*
G37*
G36*
X752850Y1311910D02*
X750829D01*
X748962Y1311137D01*
X747533Y1309708D01*
X746760Y1307841D01*
Y1305820D01*
X747533Y1303952D01*
X748473Y1303013D01*
Y1049866D01*
X748730Y1048578D01*
X749459Y1047486D01*
X869123Y927822D01*
Y775977D01*
X868183Y775038D01*
X867410Y773170D01*
Y771150D01*
X867237Y770890D01*
X865638D01*
X863770Y770117D01*
X862341Y768688D01*
X861568Y766821D01*
Y764802D01*
X859796D01*
X857928Y764029D01*
X856499Y762600D01*
X855726Y760732D01*
Y758711D01*
X856499Y756844D01*
X857928Y755415D01*
X859796Y754642D01*
X861816D01*
X863684Y755415D01*
X865113Y756844D01*
X865886Y758711D01*
Y760730D01*
X867658D01*
X869526Y761503D01*
X870955Y762932D01*
X871728Y764799D01*
Y766249D01*
X872312Y766619D01*
X873718Y766099D01*
X873760Y765907D01*
Y764799D01*
X874533Y762932D01*
X875962Y761503D01*
X876371Y761334D01*
X876619Y760088D01*
X869197Y752667D01*
X810385D01*
X701933Y861118D01*
X702807Y861992D01*
X702945Y862327D01*
X704215D01*
X704353Y861992D01*
X705782Y860563D01*
X707650Y859790D01*
X709670D01*
X711538Y860563D01*
X712967Y861992D01*
X713740Y863859D01*
Y865881D01*
X712967Y867748D01*
X711538Y869177D01*
X709670Y869950D01*
X707650D01*
X705782Y869177D01*
X704353Y867748D01*
X704215Y867413D01*
X702945D01*
X702807Y867748D01*
X701378Y869177D01*
X699510Y869950D01*
X697489D01*
X695622Y869177D01*
X694193Y867748D01*
X693420Y865881D01*
Y863859D01*
X694193Y861992D01*
X695133Y861052D01*
Y859790D01*
X695390Y858502D01*
X696119Y857409D01*
X726855Y826673D01*
X726369Y825363D01*
X724832Y824727D01*
X724095Y823989D01*
X723265Y823396D01*
X722435Y823989D01*
X721698Y824727D01*
X719830Y825500D01*
X717810D01*
X715942Y824727D01*
X714513Y823298D01*
X713740Y821431D01*
Y819409D01*
X714513Y817542D01*
X715942Y816113D01*
X717810Y815340D01*
X719139D01*
X797719Y736759D01*
X798812Y736030D01*
X800100Y735773D01*
X895226D01*
X905953Y725045D01*
Y715526D01*
X905013Y714586D01*
X904240Y712719D01*
Y710697D01*
X905013Y708830D01*
X906442Y707401D01*
X908309Y706628D01*
X910331D01*
X912198Y707401D01*
X913627Y708830D01*
X914400Y710697D01*
Y712719D01*
X913627Y714586D01*
X912687Y715526D01*
Y716831D01*
X913681Y717143D01*
X913957Y717159D01*
X915332Y715783D01*
X917199Y715010D01*
X919221D01*
X921067Y715775D01*
X921523Y714672D01*
X922952Y713243D01*
X924819Y712470D01*
X926841D01*
X928708Y713243D01*
X930137Y714672D01*
X930197Y714818D01*
X1045837D01*
X1046142Y714513D01*
X1048009Y713740D01*
X1050031D01*
X1051898Y714513D01*
X1053327Y715942D01*
X1054100Y717810D01*
Y719830D01*
X1053327Y721698D01*
X1051898Y723127D01*
X1050031Y723900D01*
X1048009D01*
X1046142Y723127D01*
X1044713Y721698D01*
X1044653Y721552D01*
X1002312D01*
X1001786Y722822D01*
X1002527Y723562D01*
X1003300Y725430D01*
Y727450D01*
X1002527Y729318D01*
X1001098Y730747D01*
X999230Y731520D01*
X997209D01*
X995342Y730747D01*
X994528Y729932D01*
X953405D01*
X953184Y730358D01*
X953016Y731202D01*
X954267Y732452D01*
X955040Y734320D01*
Y735427D01*
X955253Y736387D01*
X956213Y736600D01*
X957320D01*
X959188Y737373D01*
X960617Y738802D01*
X961390Y740669D01*
Y741266D01*
X999587Y779463D01*
X1000760Y778977D01*
Y778770D01*
X1001533Y776902D01*
X1002962Y775473D01*
X1004829Y774700D01*
X1006851D01*
X1008718Y775473D01*
X1010147Y776902D01*
X1010920Y778770D01*
Y780790D01*
X1010147Y782658D01*
X1008718Y784087D01*
X1006851Y784860D01*
X1006643D01*
X1006157Y786033D01*
X1073357Y853233D01*
X1074199Y854493D01*
X1074495Y855980D01*
Y1208280D01*
X1074917Y1208702D01*
X1075690Y1210570D01*
Y1212590D01*
X1074917Y1214458D01*
X1073488Y1215887D01*
X1071620Y1216660D01*
X1069600D01*
X1067732Y1215887D01*
X1066303Y1214458D01*
X1065530Y1212590D01*
Y1210570D01*
X1066303Y1208702D01*
X1066725Y1208280D01*
Y857589D01*
X977878Y768742D01*
X976705Y769228D01*
Y957415D01*
X977975Y957941D01*
X978832Y957083D01*
X980699Y956310D01*
X982720D01*
X984588Y957083D01*
X985325Y957821D01*
X986202Y958380D01*
X986985Y957821D01*
X987767Y957038D01*
X989635Y956265D01*
X991656D01*
X993523Y957038D01*
X994260Y957776D01*
X995090Y958368D01*
X995920Y957776D01*
X996657Y957038D01*
X998525Y956265D01*
X1000546D01*
X1002413Y957038D01*
X1003842Y958467D01*
X1004615Y960334D01*
Y962355D01*
X1003842Y964222D01*
X1002413Y965651D01*
X1000546Y966425D01*
X998525D01*
X996657Y965651D01*
X995920Y964914D01*
X995090Y964321D01*
X994260Y964914D01*
X993523Y965651D01*
X991656Y966425D01*
X989635D01*
X987767Y965651D01*
X987030Y964914D01*
X986153Y964355D01*
X985370Y964914D01*
X984588Y965697D01*
X982720Y966470D01*
X980699D01*
X978832Y965697D01*
X977975Y964839D01*
X976705Y965365D01*
Y1137920D01*
X976409Y1139407D01*
X975567Y1140667D01*
X904240Y1211994D01*
Y1212590D01*
X903467Y1214458D01*
X902038Y1215887D01*
X900171Y1216660D01*
X898149D01*
X896282Y1215887D01*
X894853Y1214458D01*
X894080Y1212590D01*
Y1210570D01*
X894853Y1208702D01*
X896282Y1207273D01*
X898149Y1206500D01*
X898746D01*
X968935Y1136311D01*
Y898768D01*
X967762Y898282D01*
X800175Y1065869D01*
Y1273050D01*
X800597Y1273472D01*
X801370Y1275340D01*
Y1277361D01*
X800597Y1279228D01*
X799168Y1280657D01*
X797300Y1281430D01*
X795279D01*
X793412Y1280657D01*
X791983Y1279228D01*
X791210Y1277361D01*
Y1275340D01*
X791983Y1273472D01*
X792405Y1273050D01*
Y1064260D01*
X792701Y1062773D01*
X793543Y1061513D01*
X844350Y1010706D01*
X843570Y1009690D01*
X842510Y1010302D01*
X840572Y1010822D01*
X838565D01*
X836627Y1010302D01*
X834890Y1009299D01*
X833471Y1007880D01*
X832468Y1006143D01*
X831948Y1004205D01*
Y1002198D01*
X831970Y1002117D01*
X830832Y1001460D01*
X779337Y1052954D01*
Y1295392D01*
X780277Y1296332D01*
X781050Y1298199D01*
Y1300220D01*
X780277Y1302088D01*
X778848Y1303517D01*
X776981Y1304290D01*
X774959D01*
X773092Y1303517D01*
X771663Y1302088D01*
X770890Y1300220D01*
Y1298199D01*
X771663Y1296332D01*
X772603Y1295392D01*
Y1051560D01*
X772860Y1050272D01*
X773589Y1049179D01*
X880429Y942340D01*
X879903Y941070D01*
X879107D01*
X877169Y940551D01*
X875431Y939548D01*
X874013Y938129D01*
X873009Y936391D01*
X872769Y935494D01*
X871352Y935115D01*
X755207Y1051261D01*
Y1303013D01*
X756147Y1303952D01*
X756920Y1305820D01*
Y1307841D01*
X756147Y1309708D01*
X754718Y1311137D01*
X752850Y1311910D01*
D02*
G37*
G36*
X838202Y781050D02*
X836196D01*
X834258Y780531D01*
X832520Y779528D01*
X831102Y778109D01*
X830098Y776371D01*
X829579Y774433D01*
Y772427D01*
X830098Y770489D01*
X831102Y768751D01*
X832520Y767333D01*
X834258Y766329D01*
X836196Y765810D01*
X838202D01*
X840140Y766329D01*
X841878Y767333D01*
X843297Y768751D01*
X844300Y770489D01*
X844819Y772427D01*
Y774433D01*
X844300Y776371D01*
X843297Y778109D01*
X841878Y779528D01*
X840140Y780531D01*
X838202Y781050D01*
D02*
G37*
G36*
X813811Y764540D02*
X811789D01*
X809922Y763767D01*
X808493Y762338D01*
X807720Y760471D01*
Y758449D01*
X808493Y756582D01*
X809922Y755153D01*
X811789Y754380D01*
X813811D01*
X815678Y755153D01*
X817107Y756582D01*
X817880Y758449D01*
Y760471D01*
X817107Y762338D01*
X815678Y763767D01*
X813811Y764540D01*
D02*
G37*
G36*
X797300Y728980D02*
X795279D01*
X793412Y728207D01*
X791983Y726778D01*
X791210Y724911D01*
Y722889D01*
X791983Y721022D01*
X793412Y719593D01*
X795279Y718820D01*
X797300D01*
X799168Y719593D01*
X800597Y721022D01*
X801370Y722889D01*
Y724911D01*
X800597Y726778D01*
X799168Y728207D01*
X797300Y728980D01*
D02*
G37*
G36*
X1057651Y706120D02*
X1055630D01*
X1053762Y705347D01*
X1052698Y704282D01*
X924692D01*
X923877Y705097D01*
X922010Y705870D01*
X919989D01*
X918122Y705097D01*
X916693Y703668D01*
X915920Y701801D01*
Y699780D01*
X916693Y697913D01*
X917857Y696749D01*
X918135Y696202D01*
X918187Y695082D01*
X917459Y693821D01*
X916940Y691883D01*
Y689877D01*
X917459Y687939D01*
X918463Y686201D01*
X919881Y684782D01*
X921619Y683779D01*
X923557Y683260D01*
X925563D01*
X927501Y683779D01*
X929239Y684782D01*
X930658Y686201D01*
X931661Y687939D01*
X932180Y689877D01*
Y691883D01*
X931661Y693821D01*
X930658Y695559D01*
X929938Y696278D01*
X930464Y697548D01*
X1052947D01*
X1053762Y696733D01*
X1055630Y695960D01*
X1057651D01*
X1059518Y696733D01*
X1060947Y698162D01*
X1061720Y700030D01*
Y702050D01*
X1060947Y703918D01*
X1059518Y705347D01*
X1057651Y706120D01*
D02*
G37*
G36*
X780790Y703580D02*
X778770D01*
X776902Y702807D01*
X775473Y701378D01*
X774700Y699510D01*
Y697489D01*
X775473Y695622D01*
X776902Y694193D01*
X778770Y693420D01*
X780790D01*
X782658Y694193D01*
X784087Y695622D01*
X784860Y697489D01*
Y699510D01*
X784087Y701378D01*
X782658Y702807D01*
X780790Y703580D01*
D02*
G37*
G36*
X1105910Y1113790D02*
X1103889D01*
X1102022Y1113017D01*
X1100593Y1111588D01*
X1099820Y1109721D01*
Y1107700D01*
X1100593Y1105832D01*
X1101015Y1105410D01*
Y728049D01*
X1039791Y666825D01*
X981250D01*
X980863Y667211D01*
X979603Y668053D01*
X978117Y668349D01*
X918970D01*
X918548Y668771D01*
X916681Y669544D01*
X914660D01*
X912792Y668771D01*
X911363Y667342D01*
X910590Y665474D01*
Y663454D01*
X911363Y661586D01*
X912792Y660157D01*
X914660Y659384D01*
X916681D01*
X918548Y660157D01*
X918970Y660579D01*
X976508D01*
X976894Y660193D01*
X978154Y659351D01*
X979641Y659055D01*
X1041400D01*
X1042887Y659351D01*
X1044147Y660193D01*
X1107647Y723693D01*
X1108489Y724953D01*
X1108785Y726440D01*
Y1105410D01*
X1109207Y1105832D01*
X1109980Y1107700D01*
Y1109721D01*
X1109207Y1111588D01*
X1107778Y1113017D01*
X1105910Y1113790D01*
D02*
G37*
G36*
X882383Y652780D02*
X880377D01*
X878439Y652261D01*
X876701Y651257D01*
X875283Y649839D01*
X874440Y648380D01*
X873076Y647949D01*
X872828Y648197D01*
X870960Y648970D01*
X868940D01*
X867072Y648197D01*
X865643Y646768D01*
X864870Y644901D01*
Y642879D01*
X865643Y641012D01*
X867072Y639583D01*
X868940Y638810D01*
X870960D01*
X872828Y639583D01*
X873783Y640539D01*
X875236Y640483D01*
X875334Y640430D01*
X876701Y639062D01*
X877398Y638660D01*
X878343Y637878D01*
X877570Y636011D01*
Y633989D01*
X878343Y632122D01*
X879772Y630693D01*
X881639Y629920D01*
X883661D01*
X885528Y630693D01*
X886957Y632122D01*
X887730Y633989D01*
Y636011D01*
X886957Y637878D01*
X886754Y638080D01*
X886813Y639817D01*
X887477Y640481D01*
X888481Y642219D01*
X889000Y644157D01*
Y646163D01*
X888481Y648101D01*
X887477Y649839D01*
X886059Y651257D01*
X884321Y652261D01*
X882383Y652780D01*
D02*
G37*
G36*
X934461D02*
X932439D01*
X930572Y652007D01*
X929143Y650578D01*
X928370Y648710D01*
Y646690D01*
X929143Y644822D01*
X930572Y643393D01*
X932439Y642620D01*
X934461D01*
X936328Y643393D01*
X937757Y644822D01*
X938530Y646690D01*
Y648710D01*
X937757Y650578D01*
X936328Y652007D01*
X934461Y652780D01*
D02*
G37*
G36*
X830324Y649553D02*
X828303D01*
X826436Y648779D01*
X825007Y647350D01*
X824234Y645483D01*
Y643462D01*
X825007Y641595D01*
X826436Y640166D01*
X828303Y639393D01*
X830324D01*
X832191Y640166D01*
X833620Y641595D01*
X834394Y643462D01*
Y645483D01*
X833620Y647350D01*
X832191Y648779D01*
X830324Y649553D01*
D02*
G37*
G36*
X843020Y647700D02*
X841000D01*
X839132Y646927D01*
X837703Y645498D01*
X836930Y643631D01*
Y641609D01*
X837125Y641140D01*
X836419Y640084D01*
X835671D01*
X833337Y639117D01*
X831551Y637331D01*
X830584Y634997D01*
Y632471D01*
X831551Y630137D01*
X833337Y628350D01*
X835671Y627384D01*
X838197D01*
X840531Y628350D01*
X842317Y630137D01*
X843284Y632471D01*
Y634997D01*
X842757Y636270D01*
X842810Y636527D01*
X843520Y637747D01*
X844888Y638313D01*
X846317Y639742D01*
X847090Y641609D01*
Y643631D01*
X846317Y645498D01*
X844888Y646927D01*
X843020Y647700D01*
D02*
G37*
G36*
X804921Y646430D02*
X802899D01*
X801032Y645657D01*
X799603Y644228D01*
X798830Y642361D01*
Y640340D01*
X799603Y638472D01*
X801032Y637043D01*
X802899Y636270D01*
X804921D01*
X806608Y636969D01*
X819087Y624489D01*
X818741Y623039D01*
X817542Y622543D01*
X816805Y621805D01*
X815975Y621212D01*
X815145Y621805D01*
X814408Y622543D01*
X812541Y623316D01*
X810519D01*
X808652Y622543D01*
X807223Y621114D01*
X806450Y619246D01*
Y617225D01*
X807223Y615358D01*
X808652Y613929D01*
X810519Y613156D01*
X812541D01*
X814408Y613929D01*
X815145Y614667D01*
X815975Y615260D01*
X816805Y614667D01*
X817542Y613929D01*
X819409Y613156D01*
X821431D01*
X823298Y613929D01*
X824727Y615358D01*
X825223Y616557D01*
X826673Y616903D01*
X841803Y601773D01*
X843063Y600931D01*
X844550Y600635D01*
X1012700D01*
X1013122Y600213D01*
X1014989Y599440D01*
X1017010D01*
X1018878Y600213D01*
X1020307Y601642D01*
X1021080Y603509D01*
Y605531D01*
X1020307Y607398D01*
X1018878Y608827D01*
X1017010Y609600D01*
X1014989D01*
X1013122Y608827D01*
X1012700Y608405D01*
X846159D01*
X810467Y644097D01*
X809207Y644939D01*
X807720Y645235D01*
X807210D01*
X806788Y645657D01*
X804921Y646430D01*
D02*
G37*
G36*
X981451Y624840D02*
X979429D01*
X977562Y624067D01*
X976133Y622638D01*
X975360Y620770D01*
Y618750D01*
X976133Y616882D01*
X977562Y615453D01*
X979429Y614680D01*
X981451D01*
X983318Y615453D01*
X984747Y616882D01*
X985520Y618750D01*
Y620770D01*
X984747Y622638D01*
X983318Y624067D01*
X981451Y624840D01*
D02*
G37*
G36*
X914133Y626110D02*
X912127D01*
X910189Y625591D01*
X908451Y624588D01*
X907032Y623169D01*
X906029Y621431D01*
X905510Y619493D01*
Y617487D01*
X906029Y615549D01*
X907032Y613811D01*
X908451Y612393D01*
X910189Y611389D01*
X912127Y610870D01*
X914133D01*
X916071Y611389D01*
X917809Y612393D01*
X919228Y613811D01*
X920231Y615549D01*
X920750Y617487D01*
Y619493D01*
X920231Y621431D01*
X919228Y623169D01*
X917809Y624588D01*
X916071Y625591D01*
X914133Y626110D01*
D02*
G37*
G36*
X779513D02*
X777507D01*
X775569Y625591D01*
X773831Y624588D01*
X772412Y623169D01*
X771409Y621431D01*
X770890Y619493D01*
Y617487D01*
X771409Y615549D01*
X772412Y613811D01*
X773831Y612393D01*
X775569Y611389D01*
X777507Y610870D01*
X779513D01*
X781451Y611389D01*
X783189Y612393D01*
X784607Y613811D01*
X785611Y615549D01*
X786130Y617487D01*
Y619493D01*
X785611Y621431D01*
X784607Y623169D01*
X783189Y624588D01*
X781451Y625591D01*
X779513Y626110D01*
D02*
G37*
G36*
X963671Y594360D02*
X961649D01*
X959782Y593587D01*
X958353Y592158D01*
X957580Y590290D01*
Y588270D01*
X958353Y586402D01*
X959782Y584973D01*
X961649Y584200D01*
X963671D01*
X965538Y584973D01*
X966967Y586402D01*
X967740Y588270D01*
Y590290D01*
X966967Y592158D01*
X965538Y593587D01*
X963671Y594360D01*
D02*
G37*
%LPD*%
G36*
X962585Y892471D02*
Y775039D01*
X949546Y762000D01*
X948950D01*
X947082Y761227D01*
X945653Y759798D01*
X944880Y757931D01*
Y755910D01*
X945653Y754042D01*
X947082Y752613D01*
X948950Y751840D01*
X950120D01*
X950992Y751762D01*
X951294Y750667D01*
Y749714D01*
X952067Y747847D01*
X952850Y747064D01*
X953336Y746166D01*
X952850Y745404D01*
X952003Y744558D01*
X951230Y742691D01*
Y741583D01*
X951018Y740622D01*
X950057Y740410D01*
X949641D01*
X943451Y746601D01*
X942358Y747330D01*
X941070Y747587D01*
X875299D01*
X874813Y748760D01*
X887571Y761518D01*
X888300Y762610D01*
X888557Y763898D01*
Y768343D01*
X889497Y769282D01*
X890270Y771150D01*
Y773170D01*
X889497Y775038D01*
X888068Y776467D01*
X886200Y777240D01*
X884180D01*
X883477Y776949D01*
X882207Y777797D01*
Y845713D01*
X890873Y854379D01*
X891602Y855471D01*
X891859Y856759D01*
Y939038D01*
X891602Y940326D01*
X890873Y941419D01*
X837827Y994465D01*
X838484Y995603D01*
X838565Y995582D01*
X840572D01*
X842510Y996101D01*
X844247Y997104D01*
X845666Y998523D01*
X846669Y1000260D01*
X847188Y1002198D01*
Y1004205D01*
X846669Y1006143D01*
X846057Y1007203D01*
X847073Y1007983D01*
X962585Y892471D01*
D02*
G37*
%LPC*%
G36*
X915411Y784860D02*
X913390D01*
X911522Y784087D01*
X910093Y782658D01*
X909320Y780790D01*
Y778770D01*
X910093Y776902D01*
X911522Y775473D01*
X913390Y774700D01*
X915411D01*
X917278Y775473D01*
X918707Y776902D01*
X919480Y778770D01*
Y780790D01*
X918707Y782658D01*
X917278Y784087D01*
X915411Y784860D01*
D02*
G37*
%LPD*%
D11*
X1048385Y718185D02*
X1049020Y718820D01*
X926465Y718185D02*
X1048385D01*
X925830Y717550D02*
X926465Y718185D01*
X921000Y700790D02*
X921125Y700915D01*
X1056515D02*
X1056640Y701040D01*
X921125Y700915D02*
X1056515D01*
X718820Y820420D02*
X800100Y739140D01*
X926925Y726565D02*
X998095D01*
X926800Y726690D02*
X926925Y726565D01*
X998095D02*
X998220Y726440D01*
X896620Y739140D02*
X909320Y726440D01*
Y711708D02*
Y726440D01*
X800100Y739140D02*
X896620D01*
X727710Y820420D02*
X803910Y744220D01*
X941070D01*
X949960Y735330D01*
X808990Y749300D02*
X870592D01*
X698500Y859790D02*
X808990Y749300D01*
X870592D02*
X885190Y763898D01*
X878840Y765810D02*
Y847107D01*
X698500Y859790D02*
Y862330D01*
X885190Y763898D02*
Y772160D01*
X775970Y1051560D02*
Y1299210D01*
X888492Y856759D02*
Y939038D01*
X775970Y1051560D02*
X888492Y939038D01*
X878840Y847107D02*
X888492Y856759D01*
X751840Y1049866D02*
X872490Y929216D01*
Y772160D02*
Y929216D01*
X751840Y1049866D02*
Y1306830D01*
D16*
X899160Y1211580D02*
X972820Y1137920D01*
Y767153D02*
Y1137920D01*
X1070610Y855980D02*
Y1211580D01*
X803910Y641350D02*
X807720D01*
X915670Y664464D02*
X978117D01*
X979641Y662940D02*
X1041400D01*
X978117Y664464D02*
X979641Y662940D01*
X1104900Y726440D02*
Y1108710D01*
X1041400Y662940D02*
X1104900Y726440D01*
X956310Y741680D02*
X1070610Y855980D01*
X844550Y604520D02*
X1016000D01*
X807720Y641350D02*
X844550Y604520D01*
X966470Y773430D02*
Y894080D01*
X796290Y1064260D02*
X966470Y894080D01*
X949960Y756920D02*
X966470Y773430D01*
X956374Y750724D02*
X956391D01*
X972820Y767153D01*
X796290Y1064260D02*
Y1276350D01*
D63*
X776040Y1390650D02*
D03*
X751040D02*
D03*
X726040D02*
D03*
X701040D02*
D03*
X676040D02*
D03*
X651040D02*
D03*
X776040Y1365650D02*
D03*
X751040D02*
D03*
X726040D02*
D03*
X701040D02*
D03*
X676040D02*
D03*
X438950D02*
D03*
X463950D02*
D03*
X488950D02*
D03*
X513950D02*
D03*
X538950D02*
D03*
X413950Y1390650D02*
D03*
X438950D02*
D03*
X463950D02*
D03*
X488950D02*
D03*
X513950D02*
D03*
X538950D02*
D03*
D65*
X776040Y1462450D02*
D03*
X651040D02*
D03*
X1489710Y1450340D02*
D03*
X1515110D02*
D03*
X1413510D02*
D03*
X1438910D02*
D03*
X1337310D02*
D03*
X1362710D02*
D03*
X413950Y1462450D02*
D03*
X538950D02*
D03*
D80*
X953770Y1468120D02*
D03*
X1096010D02*
D03*
X1237488D02*
D03*
D81*
X903732D02*
D03*
X1045972D02*
D03*
X1187450D02*
D03*
D82*
X651040Y1365650D02*
D03*
X413950D02*
D03*
D83*
X899160Y1266190D02*
D03*
X1070610D02*
D03*
D84*
X924560D02*
D03*
X949960D02*
D03*
X1121410D02*
D03*
X1096010D02*
D03*
D85*
X1587500Y1200150D02*
D03*
X1612900D02*
D03*
X1638300D02*
D03*
Y1174750D02*
D03*
X1612900D02*
D03*
D86*
X1587500D02*
D03*
D87*
X1621790Y1492250D02*
D03*
D88*
X1596790D02*
D03*
X1571790D02*
D03*
D89*
X1017270Y1347470D02*
D03*
X1195070D02*
D03*
D90*
X198710Y1508760D02*
D03*
X264710D02*
D03*
D91*
X1696720Y81280D02*
D03*
Y1442720D02*
D03*
X81280D02*
D03*
Y81280D02*
D03*
D92*
X925830Y717550D02*
D03*
X261620Y684530D02*
D03*
X34290Y608330D02*
D03*
X26670Y709930D02*
D03*
Y786130D02*
D03*
X782320Y735330D02*
D03*
X1262380Y1250950D02*
D03*
X1234440Y1219200D02*
D03*
X1248410D02*
D03*
X50800Y608330D02*
D03*
X67310D02*
D03*
Y624840D02*
D03*
X182880Y684530D02*
D03*
Y657860D02*
D03*
X166370Y684530D02*
D03*
Y657860D02*
D03*
X17780Y684530D02*
D03*
X83820Y657860D02*
D03*
Y684530D02*
D03*
X67310D02*
D03*
Y657860D02*
D03*
X34290Y684530D02*
D03*
X50800D02*
D03*
X116840Y657860D02*
D03*
Y684530D02*
D03*
X100330D02*
D03*
Y657860D02*
D03*
X133350D02*
D03*
Y684530D02*
D03*
X149860D02*
D03*
Y657860D02*
D03*
X709930Y767080D02*
D03*
X699770Y786130D02*
D03*
X725170D02*
D03*
X750570Y556260D02*
D03*
X26670D02*
D03*
Y594360D02*
D03*
X39370Y709930D02*
D03*
X64770D02*
D03*
X90170D02*
D03*
X166370D02*
D03*
X115570D02*
D03*
X140970D02*
D03*
X648970Y556260D02*
D03*
X699770D02*
D03*
X674370D02*
D03*
X572770D02*
D03*
X598170D02*
D03*
X623570D02*
D03*
X547370D02*
D03*
X521970D02*
D03*
X115570D02*
D03*
X90170D02*
D03*
X64770D02*
D03*
X39370D02*
D03*
X140970D02*
D03*
X445770D02*
D03*
X420370D02*
D03*
X471170D02*
D03*
X496570D02*
D03*
X394970D02*
D03*
X369570D02*
D03*
X344170D02*
D03*
X318770D02*
D03*
X267970D02*
D03*
X242570D02*
D03*
X191770D02*
D03*
X217170D02*
D03*
X166370D02*
D03*
X293370D02*
D03*
X166370Y632460D02*
D03*
X140970D02*
D03*
X115570D02*
D03*
X90170D02*
D03*
X67310Y641350D02*
D03*
X102870Y594360D02*
D03*
X77470D02*
D03*
X52070D02*
D03*
X179070D02*
D03*
X153670D02*
D03*
X128270D02*
D03*
X762000Y632460D02*
D03*
X745490D02*
D03*
X420370D02*
D03*
X445770D02*
D03*
X471170D02*
D03*
X496570D02*
D03*
X191770D02*
D03*
X217170D02*
D03*
X242570D02*
D03*
X267970D02*
D03*
X293370D02*
D03*
X394970D02*
D03*
X369570D02*
D03*
X318770D02*
D03*
X344170D02*
D03*
X521970D02*
D03*
X547370D02*
D03*
X623570D02*
D03*
X572770D02*
D03*
X598170D02*
D03*
X725170D02*
D03*
X648970D02*
D03*
X699770D02*
D03*
X674370D02*
D03*
X778510Y657860D02*
D03*
Y684530D02*
D03*
X241300Y1384300D02*
D03*
X854710Y594360D02*
D03*
X883920Y619760D02*
D03*
X185420Y1463040D02*
D03*
X173990D02*
D03*
X643890Y1258570D02*
D03*
Y1314450D02*
D03*
Y1286510D02*
D03*
X1515110Y1384300D02*
D03*
X1438910D02*
D03*
X1362710D02*
D03*
X1167130Y1267460D02*
D03*
X984250Y1266190D02*
D03*
X763270Y1377950D02*
D03*
X688340D02*
D03*
X527034Y1378069D02*
D03*
X233680Y1337310D02*
D03*
X228600Y1328420D02*
D03*
X238760Y1346200D02*
D03*
X342900Y1314450D02*
D03*
Y1333500D02*
D03*
X284480Y1428750D02*
D03*
X217170D02*
D03*
X1638300Y1066800D02*
D03*
X1612900D02*
D03*
X1587500D02*
D03*
X1447800Y1313180D02*
D03*
X1428750Y1294130D02*
D03*
X1485900Y1144270D02*
D03*
X1460500D02*
D03*
X1447800D02*
D03*
X922020Y566420D02*
D03*
X886460D02*
D03*
X814070D02*
D03*
X778510D02*
D03*
X980440Y638810D02*
D03*
X927100Y627380D02*
D03*
X951230Y596900D02*
D03*
X1008380Y737870D02*
D03*
X969010Y707390D02*
D03*
X1008380Y687070D02*
D03*
Y670560D02*
D03*
X914400Y844550D02*
D03*
X892810D02*
D03*
X914400Y828040D02*
D03*
X850900Y812800D02*
D03*
X830580Y788670D02*
D03*
X825500Y840740D02*
D03*
X798830D02*
D03*
X911860Y905510D02*
D03*
X897890Y918210D02*
D03*
X26670Y748030D02*
D03*
X718820Y820420D02*
D03*
X102870Y748030D02*
D03*
X128270D02*
D03*
X77470D02*
D03*
X52070D02*
D03*
X179070D02*
D03*
X153670D02*
D03*
X695960Y709930D02*
D03*
X191770D02*
D03*
X471170D02*
D03*
X496570D02*
D03*
X445770D02*
D03*
X420370D02*
D03*
X547370D02*
D03*
X521970D02*
D03*
X318770D02*
D03*
X293370D02*
D03*
X344170D02*
D03*
X369570D02*
D03*
X394970D02*
D03*
X267970D02*
D03*
X242570D02*
D03*
X217170D02*
D03*
X623570D02*
D03*
X598170D02*
D03*
X572770D02*
D03*
X648970D02*
D03*
X674370Y786130D02*
D03*
X648970D02*
D03*
X572770D02*
D03*
X598170D02*
D03*
X623570D02*
D03*
X217170D02*
D03*
X242570D02*
D03*
X267970D02*
D03*
X394970D02*
D03*
X369570D02*
D03*
X344170D02*
D03*
X293370D02*
D03*
X318770D02*
D03*
X521970D02*
D03*
X547370D02*
D03*
X420370D02*
D03*
X445770D02*
D03*
X496570D02*
D03*
X471170D02*
D03*
X191770D02*
D03*
X166370D02*
D03*
X39370D02*
D03*
X140970D02*
D03*
X64770D02*
D03*
X90170D02*
D03*
X115570D02*
D03*
X779780Y698500D02*
D03*
X725170Y556260D02*
D03*
X998220Y726440D02*
D03*
X139700Y1357630D02*
D03*
X165100Y1367790D02*
D03*
X204470Y748030D02*
D03*
X229870D02*
D03*
X204470Y594360D02*
D03*
X229870D02*
D03*
X255270Y748030D02*
D03*
X280670D02*
D03*
X331470D02*
D03*
X306070D02*
D03*
X407670D02*
D03*
X433070D02*
D03*
X382270D02*
D03*
X356870D02*
D03*
X509270D02*
D03*
X534670D02*
D03*
X483870D02*
D03*
X458470D02*
D03*
X610870D02*
D03*
X636270D02*
D03*
X585470D02*
D03*
X560070D02*
D03*
X673100Y709930D02*
D03*
X687070Y748030D02*
D03*
X661670D02*
D03*
Y594360D02*
D03*
X687070D02*
D03*
X737870D02*
D03*
X712470D02*
D03*
X560070D02*
D03*
X585470D02*
D03*
X636270D02*
D03*
X610870D02*
D03*
X458470D02*
D03*
X483870D02*
D03*
X534670D02*
D03*
X509270D02*
D03*
X356870D02*
D03*
X382270D02*
D03*
X433070D02*
D03*
X407670D02*
D03*
X306070D02*
D03*
X331470D02*
D03*
X280670D02*
D03*
X255270D02*
D03*
X227330Y688340D02*
D03*
X242570D02*
D03*
Y652780D02*
D03*
X226060D02*
D03*
X213360Y657860D02*
D03*
Y684530D02*
D03*
X393700Y657860D02*
D03*
Y684530D02*
D03*
X377190D02*
D03*
Y657860D02*
D03*
X344170D02*
D03*
Y684530D02*
D03*
X360680D02*
D03*
Y657860D02*
D03*
X294640D02*
D03*
Y684530D02*
D03*
X278130D02*
D03*
Y657860D02*
D03*
X311150D02*
D03*
Y684530D02*
D03*
X327660D02*
D03*
Y657860D02*
D03*
X261620D02*
D03*
X575310D02*
D03*
Y684530D02*
D03*
X558800D02*
D03*
Y657860D02*
D03*
X525780D02*
D03*
Y684530D02*
D03*
X542290D02*
D03*
Y657860D02*
D03*
X476250D02*
D03*
Y684530D02*
D03*
X459740D02*
D03*
Y657860D02*
D03*
X492760D02*
D03*
Y684530D02*
D03*
X509270D02*
D03*
Y657860D02*
D03*
X410210D02*
D03*
Y684530D02*
D03*
X426720Y657860D02*
D03*
Y684530D02*
D03*
X443230D02*
D03*
Y657860D02*
D03*
X662940D02*
D03*
Y684530D02*
D03*
X646430D02*
D03*
Y657860D02*
D03*
X629920Y684530D02*
D03*
Y657860D02*
D03*
X728980D02*
D03*
Y684530D02*
D03*
X712470D02*
D03*
Y657860D02*
D03*
X679450D02*
D03*
Y684530D02*
D03*
X695960D02*
D03*
Y657860D02*
D03*
X762000D02*
D03*
Y684530D02*
D03*
X745490D02*
D03*
Y657860D02*
D03*
X795020Y684530D02*
D03*
Y657860D02*
D03*
X803910Y641350D02*
D03*
X615950Y691896D02*
D03*
X602540Y694436D02*
D03*
X615950Y650240D02*
D03*
X602540Y647700D02*
D03*
X589280Y691896D02*
D03*
Y650240D02*
D03*
X1005840Y779780D02*
D03*
X933450Y647700D02*
D03*
X915670Y664464D02*
D03*
X914400Y779780D02*
D03*
X882650Y635000D02*
D03*
X869950Y643890D02*
D03*
X1056640Y701040D02*
D03*
X1104900Y1108710D02*
D03*
X980440Y619760D02*
D03*
X962660Y589280D02*
D03*
X1016000Y604520D02*
D03*
X842010Y642620D02*
D03*
X708660Y864870D02*
D03*
X646430Y976630D02*
D03*
X673100Y969010D02*
D03*
X981710Y961390D02*
D03*
X1049020Y969010D02*
D03*
X1056640Y976630D02*
D03*
X1049020Y718820D02*
D03*
X238760Y1328420D02*
D03*
X228600Y1346200D02*
D03*
X875030Y684530D02*
D03*
Y709930D02*
D03*
Y697230D02*
D03*
Y722630D02*
D03*
X862330Y684530D02*
D03*
Y709930D02*
D03*
Y697230D02*
D03*
Y722630D02*
D03*
X849630Y684530D02*
D03*
Y709930D02*
D03*
Y697230D02*
D03*
Y722630D02*
D03*
X836930Y684530D02*
D03*
Y709930D02*
D03*
Y697230D02*
D03*
Y722630D02*
D03*
X868680Y728980D02*
D03*
Y678180D02*
D03*
Y703580D02*
D03*
Y690880D02*
D03*
Y716280D02*
D03*
X843280Y728980D02*
D03*
Y678180D02*
D03*
Y703580D02*
D03*
Y690880D02*
D03*
Y716280D02*
D03*
X855980Y728980D02*
D03*
Y678180D02*
D03*
Y703580D02*
D03*
Y690880D02*
D03*
Y716280D02*
D03*
X881380Y728980D02*
D03*
Y678180D02*
D03*
Y703580D02*
D03*
Y690880D02*
D03*
Y716280D02*
D03*
X830580D02*
D03*
Y690880D02*
D03*
Y703580D02*
D03*
Y678180D02*
D03*
Y728980D02*
D03*
X878840Y765810D02*
D03*
X828040Y1096010D02*
D03*
X812800Y1104900D02*
D03*
Y1087120D02*
D03*
X947420Y961390D02*
D03*
X566420Y1299210D02*
D03*
X560070Y1306830D02*
D03*
X938530Y961390D02*
D03*
X956374Y750724D02*
D03*
X956310Y741680D02*
D03*
X949960Y735330D02*
D03*
Y756920D02*
D03*
X926800Y726690D02*
D03*
X918210Y720090D02*
D03*
X956310Y961390D02*
D03*
X990645Y961345D02*
D03*
X999535D02*
D03*
X698500Y864870D02*
D03*
X379730Y1285240D02*
D03*
X396240Y1316990D02*
D03*
X388620Y1300480D02*
D03*
X812800Y759460D02*
D03*
X921000Y700790D02*
D03*
X584200Y1276350D02*
D03*
X727710Y820420D02*
D03*
X899160Y1211580D02*
D03*
X1070610D02*
D03*
X796290Y1276350D02*
D03*
X726440D02*
D03*
X885190Y772160D02*
D03*
X866648Y765810D02*
D03*
X860806Y759722D02*
D03*
X751840Y1306830D02*
D03*
X775970Y1299210D02*
D03*
X820420Y618236D02*
D03*
X811530D02*
D03*
X829314Y644473D02*
D03*
X909320Y711708D02*
D03*
X872490Y772160D02*
D03*
X1625600Y1098550D02*
D03*
X1600200D02*
D03*
X1574800D02*
D03*
X796290Y723900D02*
D03*
X199390Y1367790D02*
D03*
X227330D02*
D03*
X284480Y1376680D02*
D03*
D93*
X881380Y645160D02*
D03*
X913130Y618490D02*
D03*
X207010Y1344930D02*
D03*
X1559560Y1294130D02*
D03*
X1454150Y1080770D02*
D03*
X839568Y1003202D02*
D03*
X675640Y1259840D02*
D03*
X778510Y618490D02*
D03*
X924560Y690880D02*
D03*
X837199Y773430D02*
D03*
X880110Y933450D02*
D03*
X306070Y1400810D02*
D03*
X248920Y1397000D02*
D03*
D94*
X836934Y633734D02*
D03*
M02*
