G04*
G04 #@! TF.GenerationSoftware,Altium Limited,Altium Designer,23.2.1 (34)*
G04*
G04 Layer_Color=32896*
%FSLAX44Y44*%
%MOMM*%
G71*
G04*
G04 #@! TF.SameCoordinates,66AF3463-A4ED-4445-B3F6-74E376143534*
G04*
G04*
G04 #@! TF.FilePolarity,Positive*
G04*
G01*
G75*
%ADD14C,0.2540*%
D14*
X338645Y69848D02*
X342877D01*
X340761D01*
Y59268D01*
X342877Y57152D01*
X344993D01*
X347109Y59268D01*
X334413Y69848D02*
Y57152D01*
X325950D01*
X313254Y67732D02*
X315370Y69848D01*
X319602D01*
X321718Y67732D01*
Y59268D01*
X319602Y57152D01*
X315370D01*
X313254Y59268D01*
X300558Y69848D02*
X304790D01*
X302674D01*
Y59268D01*
X304790Y57152D01*
X306906D01*
X309022Y59268D01*
X296326Y69848D02*
Y57152D01*
X287862D01*
X275166Y67732D02*
X277282Y69848D01*
X281514D01*
X283630Y67732D01*
Y59268D01*
X281514Y57152D01*
X277282D01*
X275166Y59268D01*
X262470Y69848D02*
X266702D01*
X264586D01*
Y59268D01*
X266702Y57152D01*
X268818D01*
X270934Y59268D01*
X258238Y69848D02*
Y57152D01*
X249774D01*
X237078Y67732D02*
X239194Y69848D01*
X243426D01*
X245542Y67732D01*
Y59268D01*
X243426Y57152D01*
X239194D01*
X237078Y59268D01*
X224382Y69848D02*
X228614D01*
X226498D01*
Y59268D01*
X228614Y57152D01*
X230730D01*
X232846Y59268D01*
X220151Y69848D02*
Y57152D01*
X211686D01*
X198991Y67732D02*
X201107Y69848D01*
X205339D01*
X207455Y67732D01*
Y59268D01*
X205339Y57152D01*
X201107D01*
X198991Y59268D01*
M02*
