G04*
G04 #@! TF.GenerationSoftware,Altium Limited,Altium Designer,23.2.1 (34)*
G04*
G04 Layer_Color=255*
%FSLAX44Y44*%
%MOMM*%
G71*
G04*
G04 #@! TF.SameCoordinates,B8F3427F-0302-4C4C-BDD2-04FEC27F4463*
G04*
G04*
G04 #@! TF.FilePolarity,Positive*
G04*
G01*
G75*
%ADD63C,1.7000*%
%ADD65C,1.6000*%
%ADD80R,2.5400X2.5400*%
%ADD81C,2.5400*%
%ADD82R,1.7000X1.7000*%
%ADD83R,1.6000X1.6000*%
%ADD84C,1.6000*%
%ADD85C,2.0320*%
%ADD86R,2.0320X2.0320*%
%ADD87R,1.5000X1.5000*%
%ADD88C,1.5000*%
%ADD89C,1.6500*%
%ADD90O,0.9000X1.8000*%
%ADD91C,5.0800*%
D63*
X776040Y1390650D02*
D03*
X751040D02*
D03*
X726040D02*
D03*
X701040D02*
D03*
X676040D02*
D03*
X651040D02*
D03*
X776040Y1365650D02*
D03*
X751040D02*
D03*
X726040D02*
D03*
X701040D02*
D03*
X676040D02*
D03*
X438950D02*
D03*
X463950D02*
D03*
X488950D02*
D03*
X513950D02*
D03*
X538950D02*
D03*
X413950Y1390650D02*
D03*
X438950D02*
D03*
X463950D02*
D03*
X488950D02*
D03*
X513950D02*
D03*
X538950D02*
D03*
D65*
X776040Y1462450D02*
D03*
X651040D02*
D03*
X1489710Y1450340D02*
D03*
X1515110D02*
D03*
X1413510D02*
D03*
X1438910D02*
D03*
X1337310D02*
D03*
X1362710D02*
D03*
X413950Y1462450D02*
D03*
X538950D02*
D03*
D80*
X953770Y1468120D02*
D03*
X1096010D02*
D03*
X1237488D02*
D03*
D81*
X903732D02*
D03*
X1045972D02*
D03*
X1187450D02*
D03*
D82*
X651040Y1365650D02*
D03*
X413950D02*
D03*
D83*
X899160Y1266190D02*
D03*
X1070610D02*
D03*
D84*
X924560D02*
D03*
X949960D02*
D03*
X1121410D02*
D03*
X1096010D02*
D03*
D85*
X1587500Y1200150D02*
D03*
X1612900D02*
D03*
X1638300D02*
D03*
Y1174750D02*
D03*
X1612900D02*
D03*
D86*
X1587500D02*
D03*
D87*
X1621790Y1492250D02*
D03*
D88*
X1596790D02*
D03*
X1571790D02*
D03*
D89*
X1017270Y1347470D02*
D03*
X1195070D02*
D03*
D90*
X198710Y1508760D02*
D03*
X264710D02*
D03*
D91*
X1696720Y81280D02*
D03*
Y1442720D02*
D03*
X81280D02*
D03*
Y81280D02*
D03*
M02*
