G04*
G04 #@! TF.GenerationSoftware,Altium Limited,Altium Designer,23.2.1 (34)*
G04*
G04 Layer_Color=255*
%FSLAX44Y44*%
%MOMM*%
G71*
G04*
G04 #@! TF.SameCoordinates,66AF3463-A4ED-4445-B3F6-74E376143534*
G04*
G04*
G04 #@! TF.FilePolarity,Positive*
G04*
G01*
G75*
%ADD15R,1.2000X1.4000*%
%ADD19R,0.7400X2.7900*%
%ADD20R,1.4000X1.2000*%
%ADD21R,1.4000X1.1000*%
%ADD22R,1.1000X1.4000*%
G04:AMPARAMS|DCode=23|XSize=0.84mm|YSize=0.25mm|CornerRadius=0.0313mm|HoleSize=0mm|Usage=FLASHONLY|Rotation=180.000|XOffset=0mm|YOffset=0mm|HoleType=Round|Shape=RoundedRectangle|*
%AMROUNDEDRECTD23*
21,1,0.8400,0.1875,0,0,180.0*
21,1,0.7775,0.2500,0,0,180.0*
1,1,0.0625,-0.3888,0.0938*
1,1,0.0625,0.3888,0.0938*
1,1,0.0625,0.3888,-0.0938*
1,1,0.0625,-0.3888,-0.0938*
%
%ADD23ROUNDEDRECTD23*%
%ADD24R,1.9000X1.9000*%
%ADD25R,1.6000X1.4000*%
%ADD26R,0.4000X1.3500*%
%ADD31R,2.0000X2.0000*%
%ADD41C,0.5842*%
%ADD52C,1.7000*%
%ADD56C,1.6000*%
%ADD60R,0.9000X0.9000*%
%ADD61R,0.9000X0.9000*%
%ADD62R,1.6000X2.5000*%
%ADD69R,1.7000X1.7000*%
%ADD70C,2.0320*%
%ADD71R,2.0320X2.0320*%
%ADD72O,0.9000X1.8000*%
%ADD73C,1.6000*%
%ADD74R,1.6000X1.6000*%
%ADD75C,1.6500*%
%ADD76R,2.5400X2.5400*%
%ADD77C,2.5400*%
%ADD78R,1.5000X1.5000*%
%ADD79C,1.5000*%
%ADD80C,5.0800*%
D15*
X563880Y897890D02*
D03*
X581880D02*
D03*
X544610Y920750D02*
D03*
X562610D02*
D03*
X538370Y848360D02*
D03*
X556370D02*
D03*
X222470Y764540D02*
D03*
X204470D02*
D03*
X222470Y828040D02*
D03*
X204470D02*
D03*
X222250Y891540D02*
D03*
X204250D02*
D03*
D19*
X219710Y326450D02*
D03*
Y285750D02*
D03*
X207010Y326450D02*
D03*
X194310D02*
D03*
Y285750D02*
D03*
X181610Y326450D02*
D03*
Y285750D02*
D03*
X168910Y326450D02*
D03*
Y285750D02*
D03*
D20*
X228600Y708660D02*
D03*
Y690660D02*
D03*
X205740Y708880D02*
D03*
Y690880D02*
D03*
X111760Y249140D02*
D03*
Y231140D02*
D03*
X135890Y204690D02*
D03*
Y186690D02*
D03*
X87630Y293590D02*
D03*
Y275590D02*
D03*
X510540Y901700D02*
D03*
Y883700D02*
D03*
X485140Y901700D02*
D03*
Y883700D02*
D03*
X252730Y249140D02*
D03*
Y231140D02*
D03*
Y186470D02*
D03*
Y204470D02*
D03*
X303530Y928370D02*
D03*
Y910370D02*
D03*
D21*
X588010Y529590D02*
D03*
Y544590D02*
D03*
X553720Y529470D02*
D03*
Y544470D02*
D03*
X114300Y692270D02*
D03*
Y707270D02*
D03*
X91440Y692150D02*
D03*
Y707150D02*
D03*
D22*
X539870Y868680D02*
D03*
X554870D02*
D03*
X455810Y861060D02*
D03*
X440810D02*
D03*
X455690Y840740D02*
D03*
X440690D02*
D03*
X539750Y828040D02*
D03*
X554750D02*
D03*
X455930Y806450D02*
D03*
X440930D02*
D03*
X539750D02*
D03*
X554750D02*
D03*
X248920Y326390D02*
D03*
X263920D02*
D03*
D23*
X483490Y826950D02*
D03*
Y831450D02*
D03*
Y835950D02*
D03*
Y840450D02*
D03*
Y844950D02*
D03*
Y849450D02*
D03*
X512190D02*
D03*
Y844950D02*
D03*
Y840450D02*
D03*
Y835950D02*
D03*
Y831450D02*
D03*
Y826950D02*
D03*
D24*
X485590Y1001130D02*
D03*
X509590D02*
D03*
D25*
X465590Y976630D02*
D03*
X529590D02*
D03*
D26*
X484590Y974380D02*
D03*
X491090D02*
D03*
X497590D02*
D03*
X504090D02*
D03*
X510590D02*
D03*
D31*
X210740Y522690D02*
D03*
Y552690D02*
D03*
Y582690D02*
D03*
X180740Y522690D02*
D03*
Y552690D02*
D03*
Y582690D02*
D03*
X150740Y522690D02*
D03*
Y552690D02*
D03*
Y582690D02*
D03*
D41*
X150740Y529190D02*
D03*
X144240Y522690D02*
D03*
X150740Y516190D02*
D03*
X157240Y522690D02*
D03*
X174240D02*
D03*
X180740Y516190D02*
D03*
X187240Y522690D02*
D03*
X180740Y529190D02*
D03*
X210740D02*
D03*
Y516190D02*
D03*
X217240Y522690D02*
D03*
X204240D02*
D03*
X180990Y559190D02*
D03*
X174240Y552690D02*
D03*
X180740Y546190D02*
D03*
X187240Y552690D02*
D03*
X144240D02*
D03*
X150740Y546190D02*
D03*
X157240Y552690D02*
D03*
X150740Y559190D02*
D03*
Y589190D02*
D03*
X144240Y582690D02*
D03*
X150740Y576190D02*
D03*
X157240Y582690D02*
D03*
X174240D02*
D03*
X180740Y576190D02*
D03*
X187240Y582690D02*
D03*
X180740Y589190D02*
D03*
X210740D02*
D03*
X204240Y582690D02*
D03*
X217240D02*
D03*
X210740Y576190D02*
D03*
X210990Y559190D02*
D03*
X204240Y552690D02*
D03*
X217240D02*
D03*
X210740Y546190D02*
D03*
D52*
X655910Y530320D02*
D03*
Y555320D02*
D03*
Y580320D02*
D03*
Y605320D02*
D03*
Y630320D02*
D03*
Y655320D02*
D03*
X630910Y530320D02*
D03*
Y555320D02*
D03*
Y580320D02*
D03*
Y605320D02*
D03*
Y630320D02*
D03*
Y855110D02*
D03*
Y830110D02*
D03*
Y805110D02*
D03*
Y780110D02*
D03*
Y755110D02*
D03*
X655910Y880110D02*
D03*
Y855110D02*
D03*
Y830110D02*
D03*
Y805110D02*
D03*
Y780110D02*
D03*
Y755110D02*
D03*
D56*
X727710Y530320D02*
D03*
Y655320D02*
D03*
X115570Y739140D02*
D03*
Y764540D02*
D03*
Y802640D02*
D03*
Y828040D02*
D03*
Y866140D02*
D03*
Y891540D02*
D03*
X727710Y880110D02*
D03*
Y755110D02*
D03*
D60*
X246240Y472450D02*
D03*
Y485140D02*
D03*
Y497840D02*
D03*
Y510540D02*
D03*
Y523240D02*
D03*
Y535940D02*
D03*
Y548640D02*
D03*
Y561340D02*
D03*
Y574040D02*
D03*
Y586740D02*
D03*
Y599440D02*
D03*
Y612140D02*
D03*
Y624840D02*
D03*
Y637540D02*
D03*
Y650240D02*
D03*
Y662930D02*
D03*
X85240D02*
D03*
Y650240D02*
D03*
Y637540D02*
D03*
Y624840D02*
D03*
Y612140D02*
D03*
Y599440D02*
D03*
Y586740D02*
D03*
Y574040D02*
D03*
Y561340D02*
D03*
Y548640D02*
D03*
Y535940D02*
D03*
Y523240D02*
D03*
Y510540D02*
D03*
Y497840D02*
D03*
Y485140D02*
D03*
Y472450D02*
D03*
D61*
X229240Y662930D02*
D03*
X216540D02*
D03*
X203840D02*
D03*
X191140D02*
D03*
X178440D02*
D03*
X165740D02*
D03*
X153040D02*
D03*
X140340D02*
D03*
X127640D02*
D03*
X114940D02*
D03*
X102240D02*
D03*
Y472450D02*
D03*
X114940D02*
D03*
X127640D02*
D03*
X140340D02*
D03*
X153040D02*
D03*
X165740D02*
D03*
X178440D02*
D03*
X191140D02*
D03*
X203840D02*
D03*
X216540D02*
D03*
X229240D02*
D03*
D62*
X497840Y838200D02*
D03*
D69*
X630910Y655320D02*
D03*
Y880110D02*
D03*
D70*
X303530Y552450D02*
D03*
Y527050D02*
D03*
Y577850D02*
D03*
Y603250D02*
D03*
Y501650D02*
D03*
Y374650D02*
D03*
Y476250D02*
D03*
Y400050D02*
D03*
Y425450D02*
D03*
Y450850D02*
D03*
X226060Y382270D02*
D03*
X200660D02*
D03*
X175260D02*
D03*
X149860D02*
D03*
X303530Y730250D02*
D03*
Y755650D02*
D03*
Y781050D02*
D03*
Y806450D02*
D03*
Y831850D02*
D03*
Y857250D02*
D03*
X194310Y135890D02*
D03*
X219710D02*
D03*
Y161290D02*
D03*
X194310D02*
D03*
X168910D02*
D03*
D71*
Y135890D02*
D03*
D72*
X464590Y1001130D02*
D03*
X530590D02*
D03*
D73*
X474980Y314960D02*
D03*
Y289560D02*
D03*
Y160020D02*
D03*
Y134620D02*
D03*
D74*
Y264160D02*
D03*
Y109220D02*
D03*
D75*
X581660Y233680D02*
D03*
Y55880D02*
D03*
D76*
X721360Y360680D02*
D03*
Y247650D02*
D03*
Y134112D02*
D03*
D77*
Y410718D02*
D03*
Y297688D02*
D03*
Y184150D02*
D03*
D78*
X328930Y988060D02*
D03*
D79*
X303930D02*
D03*
X278930D02*
D03*
D80*
X711200Y63500D02*
D03*
Y952500D02*
D03*
X139700D02*
D03*
Y63500D02*
D03*
M02*
