G04*
G04 #@! TF.GenerationSoftware,Altium Limited,Altium Designer,23.2.1 (34)*
G04*
G04 Layer_Color=65535*
%FSLAX44Y44*%
%MOMM*%
G71*
G04*
G04 #@! TF.SameCoordinates,B8F3427F-0302-4C4C-BDD2-04FEC27F4463*
G04*
G04*
G04 #@! TF.FilePolarity,Positive*
G04*
G01*
G75*
%ADD10C,0.7620*%
%ADD11C,0.1524*%
%ADD12C,0.3000*%
%ADD13C,0.2500*%
%ADD14C,0.2000*%
%ADD15C,0.1270*%
%ADD16C,0.2540*%
%ADD17C,0.0762*%
G36*
X804926Y674168D02*
Y677978D01*
X802386D01*
Y674168D01*
X804926D01*
D02*
G37*
G36*
Y724181D02*
Y727991D01*
X802386D01*
Y724181D01*
X804926D01*
D02*
G37*
G36*
X850383Y754634D02*
Y757174D01*
X846573D01*
Y754634D01*
X850383D01*
D02*
G37*
G36*
X855384Y652526D02*
Y649986D01*
X851574D01*
Y652526D01*
X855384D01*
D02*
G37*
G36*
X907034Y669167D02*
Y672977D01*
X909574D01*
Y669167D01*
X907034D01*
D02*
G37*
G36*
Y719179D02*
Y722989D01*
X909574D01*
Y719179D01*
X907034D01*
D02*
G37*
D10*
X892810Y1430020D02*
G03*
X892810Y1430020I-2540J0D01*
G01*
X1035050D02*
G03*
X1035050Y1430020I-2540J0D01*
G01*
X1176020D02*
G03*
X1176020Y1430020I-2540J0D01*
G01*
D11*
X22352Y661148D02*
G03*
X22352Y661148I-762J0D01*
G01*
X11570Y624785D02*
Y640135D01*
X31610Y624785D02*
Y640135D01*
X898087Y656844D02*
X902716D01*
X809244D02*
Y661473D01*
Y750316D02*
X813873D01*
X898087D02*
X902716D01*
Y656844D02*
Y661473D01*
X809244Y656844D02*
X813873D01*
X809244Y745687D02*
Y750316D01*
X902716Y745687D02*
Y750316D01*
D12*
X786658Y894800D02*
G03*
X786658Y894800I-1118J0D01*
G01*
D13*
X878810Y1254190D02*
G03*
X878810Y1254190I-1250J0D01*
G01*
X961951Y655123D02*
G03*
X961951Y655123I-1250J0D01*
G01*
X727520Y723830D02*
G03*
X727520Y723830I-1250J0D01*
G01*
X1623040Y1465750D02*
G03*
X1623040Y1465750I-1250J0D01*
G01*
X1050260Y1254190D02*
G03*
X1050260Y1254190I-1250J0D01*
G01*
D14*
X259430Y1326060D02*
G03*
X259430Y1326060I-1000J0D01*
G01*
X1423250Y1167130D02*
G03*
X1423250Y1167130I-1000J0D01*
G01*
X245710Y1468260D02*
G03*
X245710Y1468260I-1000J0D01*
G01*
X826660Y927450D02*
Y939450D01*
X871060Y1289690D02*
X978060D01*
X871060Y1294690D02*
X978060D01*
X871060Y1247690D02*
X978060D01*
X871060D02*
Y1294690D01*
X978060Y1247690D02*
Y1294690D01*
X769770Y745330D02*
Y747330D01*
X719770Y745330D02*
Y747330D01*
X740270Y730330D02*
X749270D01*
X740270Y762330D02*
X749270D01*
X1632300Y1089550D02*
X1644300D01*
X1606900D02*
X1618900D01*
X1581500D02*
X1593500D01*
X1441800Y1285240D02*
X1453800D01*
X201010Y1388000D02*
X213010D01*
X221330D02*
X233330D01*
X1493100Y1170330D02*
Y1204630D01*
X1427900Y1170330D02*
Y1204630D01*
X1429100Y1089550D02*
X1441100D01*
X1590390Y1424830D02*
X1602390D01*
X1538790Y1472250D02*
X1654790D01*
X1538790D02*
Y1512250D01*
X1654790D01*
Y1472250D02*
Y1512250D01*
X1509110Y1410860D02*
X1521110D01*
X1432910D02*
X1444910D01*
X1356710D02*
X1368710D01*
X1149510Y1247690D02*
Y1294690D01*
X1042510Y1247690D02*
Y1294690D01*
Y1247690D02*
X1149510D01*
X1042510Y1294690D02*
X1149510D01*
X1042510Y1289690D02*
X1149510D01*
X1032510Y1347470D02*
X1042670D01*
X1169670D02*
X1179830D01*
X1068070Y1322070D02*
Y1372870D01*
X1042670Y1322070D02*
Y1372870D01*
X1169670D01*
Y1322070D02*
Y1372870D01*
X1042670Y1322070D02*
X1169670D01*
X1581500Y1285350D02*
X1593500D01*
X324200Y1430130D02*
X336200D01*
X297070Y1326230D02*
Y1338230D01*
X183230Y1431180D02*
X195230D01*
X275700Y1440530D02*
Y1452530D01*
X251460Y1420210D02*
Y1432210D01*
D15*
X1516910Y1505340D02*
G03*
X1487910Y1505340I-14500J0D01*
G01*
X1440710D02*
G03*
X1411710Y1505340I-14500J0D01*
G01*
X1364510D02*
G03*
X1335510Y1505340I-14500J0D01*
G01*
X1572260Y1159510D02*
X1653540D01*
X1572260Y1215390D02*
X1653540D01*
Y1159510D02*
Y1215390D01*
X1572260Y1159510D02*
Y1215390D01*
X762322Y1362550D02*
X764758D01*
X737322D02*
X739758D01*
X712322D02*
X714758D01*
X687322D02*
X689758D01*
X662740D02*
X664758D01*
X633840D02*
X639340D01*
X633840D02*
Y1494450D01*
X793240D01*
Y1362550D02*
Y1494450D01*
X787322Y1362550D02*
X793240D01*
X616060Y1372000D02*
X631300Y1365650D01*
X616060Y1359300D02*
Y1372000D01*
Y1359300D02*
X631300Y1365650D01*
X806770Y900230D02*
X846770D01*
X806770Y849830D02*
X846770D01*
X218680Y1353010D02*
X248680D01*
X218680Y1321610D02*
X248680D01*
X1480410Y1494340D02*
X1524410D01*
X1487910D02*
Y1505340D01*
X1516910Y1494340D02*
Y1505340D01*
X1404210Y1494340D02*
X1448210D01*
X1411710D02*
Y1505340D01*
X1440710Y1494340D02*
Y1505340D01*
X1328010Y1494340D02*
X1372010D01*
X1335510D02*
Y1505340D01*
X1364510Y1494340D02*
Y1505340D01*
X378970Y1359300D02*
X394210Y1365650D01*
X378970Y1359300D02*
Y1372000D01*
X394210Y1365650D01*
X550232Y1362550D02*
X556150D01*
Y1494450D01*
X396750D02*
X556150D01*
X396750Y1362550D02*
Y1494450D01*
Y1362550D02*
X402250D01*
X425650D02*
X427668D01*
X450232D02*
X452668D01*
X475232D02*
X477668D01*
X500232D02*
X502668D01*
X525232D02*
X527668D01*
X269710Y1520960D02*
Y1523260D01*
X193710D02*
X269710D01*
X193710Y1520960D02*
Y1523260D01*
X1019813Y761998D02*
X1024892D01*
X1022353D01*
Y754380D01*
X1027431D02*
Y761998D01*
X1031240D01*
X1032509Y760728D01*
Y758189D01*
X1031240Y756919D01*
X1027431D01*
X1035048Y755650D02*
X1036318Y754380D01*
X1038857D01*
X1040127Y755650D01*
Y760728D01*
X1038857Y761998D01*
X1036318D01*
X1035048Y760728D01*
Y759458D01*
X1036318Y758189D01*
X1040127D01*
X1016639Y796288D02*
X1021718D01*
X1019178D01*
Y788670D01*
X1024257D02*
Y796288D01*
X1028066D01*
X1029335Y795018D01*
Y792479D01*
X1028066Y791209D01*
X1024257D01*
X1031874Y788670D02*
X1034414D01*
X1033144D01*
Y796288D01*
X1031874Y795018D01*
X1038222D02*
X1039492Y796288D01*
X1042031D01*
X1043301Y795018D01*
Y789940D01*
X1042031Y788670D01*
X1039492D01*
X1038222Y789940D01*
Y795018D01*
X657867Y854707D02*
X662945D01*
X660406D01*
Y847090D01*
X665484D02*
Y854707D01*
X669293D01*
X670563Y853438D01*
Y850899D01*
X669293Y849629D01*
X665484D01*
X673102Y853438D02*
X674371Y854707D01*
X676910D01*
X678180Y853438D01*
Y852168D01*
X676910Y850899D01*
X678180Y849629D01*
Y848360D01*
X676910Y847090D01*
X674371D01*
X673102Y848360D01*
Y849629D01*
X674371Y850899D01*
X673102Y852168D01*
Y853438D01*
X674371Y850899D02*
X676910D01*
X657867Y835658D02*
X662945D01*
X660406D01*
Y828040D01*
X665484D02*
Y835658D01*
X669293D01*
X670563Y834388D01*
Y831849D01*
X669293Y830579D01*
X665484D01*
X673102Y835658D02*
X678180D01*
Y834388D01*
X673102Y829310D01*
Y828040D01*
X129543Y1403347D02*
X134622D01*
X132083D01*
Y1395730D01*
X137161D02*
Y1403347D01*
X140970D01*
X142239Y1402078D01*
Y1399539D01*
X140970Y1398269D01*
X137161D01*
X144778Y1402078D02*
X146048Y1403347D01*
X148587D01*
X149857Y1402078D01*
Y1400808D01*
X148587Y1399539D01*
X147318D01*
X148587D01*
X149857Y1398269D01*
Y1397000D01*
X148587Y1395730D01*
X146048D01*
X144778Y1397000D01*
X154943Y1403347D02*
X160022D01*
X157483D01*
Y1395730D01*
X162561D02*
Y1403347D01*
X166370D01*
X167639Y1402078D01*
Y1399539D01*
X166370Y1398269D01*
X162561D01*
X175257Y1395730D02*
X170178D01*
X175257Y1400808D01*
Y1402078D01*
X173987Y1403347D01*
X171448D01*
X170178Y1402078D01*
X1615443Y1146807D02*
X1620522D01*
X1617982D01*
Y1139190D01*
X1623061D02*
Y1146807D01*
X1626870D01*
X1628139Y1145538D01*
Y1142999D01*
X1626870Y1141729D01*
X1623061D01*
X1635757Y1146807D02*
X1633218Y1145538D01*
X1630678Y1142999D01*
Y1140460D01*
X1631948Y1139190D01*
X1634487D01*
X1635757Y1140460D01*
Y1141729D01*
X1634487Y1142999D01*
X1630678D01*
X1590040Y1146807D02*
X1595119D01*
X1592580D01*
Y1139190D01*
X1597658D02*
Y1146807D01*
X1601467D01*
X1602736Y1145538D01*
Y1142999D01*
X1601467Y1141729D01*
X1597658D01*
X1610354Y1146807D02*
X1605276D01*
Y1142999D01*
X1607815Y1144268D01*
X1609084D01*
X1610354Y1142999D01*
Y1140460D01*
X1609084Y1139190D01*
X1606545D01*
X1605276Y1140460D01*
X1564643Y1146807D02*
X1569722D01*
X1567182D01*
Y1139190D01*
X1572261D02*
Y1146807D01*
X1576070D01*
X1577339Y1145538D01*
Y1142999D01*
X1576070Y1141729D01*
X1572261D01*
X1583687Y1139190D02*
Y1146807D01*
X1579878Y1142999D01*
X1584957D01*
X1506220Y1278887D02*
X1511298D01*
X1508759D01*
Y1271270D01*
X1513837D02*
Y1278887D01*
X1517646D01*
X1518916Y1277618D01*
Y1275079D01*
X1517646Y1273809D01*
X1513837D01*
X1521455Y1271270D02*
X1523994D01*
X1522725D01*
Y1278887D01*
X1521455Y1277618D01*
X1555750Y1162050D02*
Y1169668D01*
X1559559D01*
X1560828Y1168398D01*
Y1165859D01*
X1559559Y1164589D01*
X1555750D01*
X1563367Y1168398D02*
X1564637Y1169668D01*
X1567176D01*
X1568446Y1168398D01*
Y1167128D01*
X1567176Y1165859D01*
X1565907D01*
X1567176D01*
X1568446Y1164589D01*
Y1163320D01*
X1567176Y1162050D01*
X1564637D01*
X1563367Y1163320D01*
X1147577Y1424672D02*
Y1432289D01*
X1151385D01*
X1152655Y1431020D01*
Y1428481D01*
X1151385Y1427211D01*
X1147577D01*
X1155194Y1424672D02*
X1157733D01*
X1156464D01*
Y1432289D01*
X1155194Y1431020D01*
X760299Y725815D02*
Y724546D01*
X762838Y722006D01*
X765377Y724546D01*
Y725815D01*
X762838Y722006D02*
Y718197D01*
X772995D02*
X767916D01*
X772995Y723276D01*
Y724546D01*
X771725Y725815D01*
X769186D01*
X767916Y724546D01*
X937262Y669289D02*
Y668019D01*
X939801Y665480D01*
X942340Y668019D01*
Y669289D01*
X939801Y665480D02*
Y661671D01*
X944879D02*
X947418D01*
X946149D01*
Y669289D01*
X944879Y668019D01*
X248922Y1316989D02*
Y1310641D01*
X250192Y1309371D01*
X252731D01*
X254000Y1310641D01*
Y1316989D01*
X256540D02*
X261618D01*
Y1315719D01*
X256540Y1310641D01*
Y1309371D01*
X783592Y911859D02*
Y905511D01*
X784862Y904241D01*
X787401D01*
X788670Y905511D01*
Y911859D01*
X796288Y904241D02*
X791210D01*
X796288Y909320D01*
Y910589D01*
X795018Y911859D01*
X792479D01*
X791210Y910589D01*
X906782Y760729D02*
Y754381D01*
X908051Y753111D01*
X910590D01*
X911860Y754381D01*
Y760729D01*
X914399Y753111D02*
X916938D01*
X915669D01*
Y760729D01*
X914399Y759459D01*
X1642111Y1465579D02*
X1640842Y1466849D01*
X1638302D01*
X1637033Y1465579D01*
Y1464310D01*
X1638302Y1463040D01*
X1640842D01*
X1642111Y1461770D01*
Y1460501D01*
X1640842Y1459231D01*
X1638302D01*
X1637033Y1460501D01*
X1644650Y1466849D02*
Y1459231D01*
X1647190Y1461770D01*
X1649729Y1459231D01*
Y1466849D01*
X1652268Y1459231D02*
X1654807D01*
X1653537D01*
Y1466849D01*
X1652268Y1465579D01*
X316233Y1328421D02*
Y1336039D01*
X320042D01*
X321311Y1334769D01*
Y1332230D01*
X320042Y1330960D01*
X316233D01*
X318772D02*
X321311Y1328421D01*
X323850Y1334769D02*
X325120Y1336039D01*
X327659D01*
X328929Y1334769D01*
Y1333500D01*
X327659Y1332230D01*
X326390D01*
X327659D01*
X328929Y1330960D01*
Y1329691D01*
X327659Y1328421D01*
X325120D01*
X323850Y1329691D01*
X331468Y1328421D02*
X334007D01*
X332738D01*
Y1336039D01*
X331468Y1334769D01*
X179073Y1450341D02*
Y1457959D01*
X182882D01*
X184152Y1456689D01*
Y1454150D01*
X182882Y1452880D01*
X179073D01*
X181612D02*
X184152Y1450341D01*
X186691Y1456689D02*
X187960Y1457959D01*
X190500D01*
X191769Y1456689D01*
Y1455420D01*
X190500Y1454150D01*
X189230D01*
X190500D01*
X191769Y1452880D01*
Y1451611D01*
X190500Y1450341D01*
X187960D01*
X186691Y1451611D01*
X194308Y1456689D02*
X195578Y1457959D01*
X198117D01*
X199387Y1456689D01*
Y1451611D01*
X198117Y1450341D01*
X195578D01*
X194308Y1451611D01*
Y1456689D01*
X340363Y1450561D02*
Y1458179D01*
X344172D01*
X345442Y1456909D01*
Y1454370D01*
X344172Y1453100D01*
X340363D01*
X342902D02*
X345442Y1450561D01*
X353059D02*
X347981D01*
X353059Y1455640D01*
Y1456909D01*
X351790Y1458179D01*
X349250D01*
X347981Y1456909D01*
X355598Y1451831D02*
X356868Y1450561D01*
X359407D01*
X360677Y1451831D01*
Y1456909D01*
X359407Y1458179D01*
X356868D01*
X355598Y1456909D01*
Y1455640D01*
X356868Y1454370D01*
X360677D01*
X259083Y1457961D02*
Y1465579D01*
X262892D01*
X264162Y1464309D01*
Y1461770D01*
X262892Y1460500D01*
X259083D01*
X261623D02*
X264162Y1457961D01*
X271779D02*
X266701D01*
X271779Y1463040D01*
Y1464309D01*
X270510Y1465579D01*
X267970D01*
X266701Y1464309D01*
X274318D02*
X275588Y1465579D01*
X278127D01*
X279397Y1464309D01*
Y1463040D01*
X278127Y1461770D01*
X279397Y1460500D01*
Y1459231D01*
X278127Y1457961D01*
X275588D01*
X274318Y1459231D01*
Y1460500D01*
X275588Y1461770D01*
X274318Y1463040D01*
Y1464309D01*
X275588Y1461770D02*
X278127D01*
X234953Y1437641D02*
Y1445259D01*
X238762D01*
X240032Y1443989D01*
Y1441450D01*
X238762Y1440180D01*
X234953D01*
X237493D02*
X240032Y1437641D01*
X247649D02*
X242571D01*
X247649Y1442720D01*
Y1443989D01*
X246380Y1445259D01*
X243840D01*
X242571Y1443989D01*
X250188Y1445259D02*
X255267D01*
Y1443989D01*
X250188Y1438911D01*
Y1437641D01*
X1459233Y1292971D02*
Y1300589D01*
X1463042D01*
X1464312Y1299319D01*
Y1296780D01*
X1463042Y1295510D01*
X1459233D01*
X1461772D02*
X1464312Y1292971D01*
X1471929D02*
X1466851D01*
X1471929Y1298050D01*
Y1299319D01*
X1470660Y1300589D01*
X1468121D01*
X1466851Y1299319D01*
X1479547Y1300589D02*
X1477008Y1299319D01*
X1474468Y1296780D01*
Y1294241D01*
X1475738Y1292971D01*
X1478277D01*
X1479547Y1294241D01*
Y1295510D01*
X1478277Y1296780D01*
X1474468D01*
X1424943Y1108711D02*
Y1116329D01*
X1428752D01*
X1430022Y1115059D01*
Y1112520D01*
X1428752Y1111250D01*
X1424943D01*
X1427482D02*
X1430022Y1108711D01*
X1437639D02*
X1432561D01*
X1437639Y1113790D01*
Y1115059D01*
X1436370Y1116329D01*
X1433830D01*
X1432561Y1115059D01*
X1445257Y1116329D02*
X1440178D01*
Y1112520D01*
X1442718Y1113790D01*
X1443987D01*
X1445257Y1112520D01*
Y1109981D01*
X1443987Y1108711D01*
X1441448D01*
X1440178Y1109981D01*
X1525908Y1418591D02*
Y1426209D01*
X1529717D01*
X1530986Y1424939D01*
Y1422400D01*
X1529717Y1421130D01*
X1525908D01*
X1528447D02*
X1530986Y1418591D01*
X1533526D02*
X1536065D01*
X1534795D01*
Y1426209D01*
X1533526Y1424939D01*
X1539874D02*
X1541143Y1426209D01*
X1543682D01*
X1544952Y1424939D01*
Y1423670D01*
X1543682Y1422400D01*
X1544952Y1421130D01*
Y1419861D01*
X1543682Y1418591D01*
X1541143D01*
X1539874Y1419861D01*
Y1421130D01*
X1541143Y1422400D01*
X1539874Y1423670D01*
Y1424939D01*
X1541143Y1422400D02*
X1543682D01*
X1449708Y1418591D02*
Y1426209D01*
X1453517D01*
X1454786Y1424939D01*
Y1422400D01*
X1453517Y1421130D01*
X1449708D01*
X1452247D02*
X1454786Y1418591D01*
X1457326D02*
X1459865D01*
X1458595D01*
Y1426209D01*
X1457326Y1424939D01*
X1463674Y1426209D02*
X1468752D01*
Y1424939D01*
X1463674Y1419861D01*
Y1418591D01*
X1373508D02*
Y1426209D01*
X1377317D01*
X1378586Y1424939D01*
Y1422400D01*
X1377317Y1421130D01*
X1373508D01*
X1376047D02*
X1378586Y1418591D01*
X1381126D02*
X1383665D01*
X1382395D01*
Y1426209D01*
X1381126Y1424939D01*
X1392552Y1426209D02*
X1390013Y1424939D01*
X1387474Y1422400D01*
Y1419861D01*
X1388743Y1418591D01*
X1391282D01*
X1392552Y1419861D01*
Y1421130D01*
X1391282Y1422400D01*
X1387474D01*
X220982Y1407051D02*
Y1414669D01*
X224791D01*
X226060Y1413399D01*
Y1410860D01*
X224791Y1409590D01*
X220982D01*
X223521D02*
X226060Y1407051D01*
X228600Y1408321D02*
X229869Y1407051D01*
X232408D01*
X233678Y1408321D01*
Y1413399D01*
X232408Y1414669D01*
X229869D01*
X228600Y1413399D01*
Y1412130D01*
X229869Y1410860D01*
X233678D01*
X200662Y1406941D02*
Y1414559D01*
X204471D01*
X205740Y1413289D01*
Y1410750D01*
X204471Y1409480D01*
X200662D01*
X203201D02*
X205740Y1406941D01*
X208280Y1413289D02*
X209549Y1414559D01*
X212088D01*
X213358Y1413289D01*
Y1412020D01*
X212088Y1410750D01*
X213358Y1409480D01*
Y1408211D01*
X212088Y1406941D01*
X209549D01*
X208280Y1408211D01*
Y1409480D01*
X209549Y1410750D01*
X208280Y1412020D01*
Y1413289D01*
X209549Y1410750D02*
X212088D01*
X1578864Y1309624D02*
Y1317242D01*
X1582673D01*
X1583942Y1315972D01*
Y1313433D01*
X1582673Y1312163D01*
X1578864D01*
X1581403D02*
X1583942Y1309624D01*
X1586481Y1317242D02*
X1591560D01*
Y1315972D01*
X1586481Y1310894D01*
Y1309624D01*
X1629412Y1108711D02*
Y1116329D01*
X1633221D01*
X1634490Y1115059D01*
Y1112520D01*
X1633221Y1111250D01*
X1629412D01*
X1631951D02*
X1634490Y1108711D01*
X1642108Y1116329D02*
X1639569Y1115059D01*
X1637030Y1112520D01*
Y1109981D01*
X1638299Y1108711D01*
X1640838D01*
X1642108Y1109981D01*
Y1111250D01*
X1640838Y1112520D01*
X1637030D01*
X1604012Y1108711D02*
Y1116329D01*
X1607821D01*
X1609090Y1115059D01*
Y1112520D01*
X1607821Y1111250D01*
X1604012D01*
X1606551D02*
X1609090Y1108711D01*
X1616708Y1116329D02*
X1611630D01*
Y1112520D01*
X1614169Y1113790D01*
X1615438D01*
X1616708Y1112520D01*
Y1109981D01*
X1615438Y1108711D01*
X1612899D01*
X1611630Y1109981D01*
X1578612Y1108711D02*
Y1116329D01*
X1582421D01*
X1583690Y1115059D01*
Y1112520D01*
X1582421Y1111250D01*
X1578612D01*
X1581151D02*
X1583690Y1108711D01*
X1590038D02*
Y1116329D01*
X1586230Y1112520D01*
X1591308D01*
X810262Y944881D02*
Y952499D01*
X814071D01*
X815340Y951229D01*
Y948690D01*
X814071Y947420D01*
X810262D01*
X812801D02*
X815340Y944881D01*
X822958D02*
X817880D01*
X822958Y949960D01*
Y951229D01*
X821688Y952499D01*
X819149D01*
X817880Y951229D01*
X1574802Y1432341D02*
Y1439959D01*
X1578610D01*
X1579880Y1438689D01*
Y1436150D01*
X1578610Y1434880D01*
X1574802D01*
X1577341D02*
X1579880Y1432341D01*
X1582419D02*
X1584958D01*
X1583689D01*
Y1439959D01*
X1582419Y1438689D01*
X876300Y1236981D02*
Y1242059D01*
X875031Y1243329D01*
X872492D01*
X871222Y1242059D01*
Y1236981D01*
X872492Y1235711D01*
X875031D01*
X873761Y1238250D02*
X876300Y1235711D01*
X875031D02*
X876300Y1236981D01*
X883918Y1243329D02*
X878840D01*
Y1239520D01*
X881379Y1240790D01*
X882648D01*
X883918Y1239520D01*
Y1236981D01*
X882648Y1235711D01*
X880109D01*
X878840Y1236981D01*
X1047750D02*
Y1242059D01*
X1046480Y1243329D01*
X1043941D01*
X1042672Y1242059D01*
Y1236981D01*
X1043941Y1235711D01*
X1046480D01*
X1045211Y1238250D02*
X1047750Y1235711D01*
X1046480D02*
X1047750Y1236981D01*
X1050289Y1235711D02*
X1052828D01*
X1051559D01*
Y1243329D01*
X1050289Y1242059D01*
X861062Y1423671D02*
Y1431289D01*
X864871D01*
X866140Y1430019D01*
Y1427480D01*
X864871Y1426210D01*
X861062D01*
X873758Y1431289D02*
X868680D01*
Y1427480D01*
X871219Y1428750D01*
X872488D01*
X873758Y1427480D01*
Y1424941D01*
X872488Y1423671D01*
X869949D01*
X868680Y1424941D01*
X1003302Y1423671D02*
Y1431289D01*
X1007111D01*
X1008380Y1430019D01*
Y1427480D01*
X1007111Y1426210D01*
X1003302D01*
X1015998Y1423671D02*
X1010920D01*
X1015998Y1428750D01*
Y1430019D01*
X1014728Y1431289D01*
X1012189D01*
X1010920Y1430019D01*
X890272Y793749D02*
Y786131D01*
X895350D01*
X901698D02*
Y793749D01*
X897890Y789940D01*
X902968D01*
X849632Y610869D02*
Y603251D01*
X854710D01*
X857250Y609599D02*
X858519Y610869D01*
X861058D01*
X862328Y609599D01*
Y608330D01*
X861058Y607060D01*
X859789D01*
X861058D01*
X862328Y605790D01*
Y604521D01*
X861058Y603251D01*
X858519D01*
X857250Y604521D01*
X974092Y580389D02*
Y572771D01*
X979170D01*
X986788D02*
X981710D01*
X986788Y577850D01*
Y579119D01*
X985518Y580389D01*
X982979D01*
X981710Y579119D01*
X212092Y697229D02*
Y689611D01*
X217170D01*
X219709D02*
X222248D01*
X220979D01*
Y697229D01*
X219709Y695959D01*
X621030Y1384299D02*
X618491D01*
X619761D01*
Y1377951D01*
X618491Y1376681D01*
X617222D01*
X615952Y1377951D01*
X628648Y1384299D02*
X623570D01*
Y1380490D01*
X626109Y1381760D01*
X627378D01*
X628648Y1380490D01*
Y1377951D01*
X627378Y1376681D01*
X624839D01*
X623570Y1377951D01*
X173990Y1489709D02*
X171451D01*
X172721D01*
Y1483361D01*
X171451Y1482091D01*
X170182D01*
X168912Y1483361D01*
X180338Y1482091D02*
Y1489709D01*
X176530Y1485900D01*
X181608D01*
X1416050Y1160839D02*
X1413511D01*
X1414781D01*
Y1154491D01*
X1413511Y1153221D01*
X1412242D01*
X1410972Y1154491D01*
X1418590Y1159569D02*
X1419859Y1160839D01*
X1422398D01*
X1423668Y1159569D01*
Y1158300D01*
X1422398Y1157030D01*
X1421129D01*
X1422398D01*
X1423668Y1155760D01*
Y1154491D01*
X1422398Y1153221D01*
X1419859D01*
X1418590Y1154491D01*
X384810Y1384299D02*
X382271D01*
X383541D01*
Y1377951D01*
X382271Y1376681D01*
X381002D01*
X379732Y1377951D01*
X392428Y1376681D02*
X387350D01*
X392428Y1381760D01*
Y1383029D01*
X391158Y1384299D01*
X388619D01*
X387350Y1383029D01*
X627381Y697229D02*
X622303D01*
Y693420D01*
X624842D01*
X622303D01*
Y689611D01*
X629920Y697229D02*
Y689611D01*
X634999D01*
X637538D02*
X640077D01*
X638807D01*
Y697229D01*
X637538Y695959D01*
X21705Y674147D02*
X16626D01*
Y666529D01*
X21705D01*
X16626Y670338D02*
X19165D01*
X24244Y666529D02*
X26783D01*
X25513D01*
Y674147D01*
X24244Y672877D01*
X1042672Y1316989D02*
Y1309371D01*
X1046481D01*
X1047750Y1310641D01*
Y1315719D01*
X1046481Y1316989D01*
X1042672D01*
X1054098Y1309371D02*
Y1316989D01*
X1050290Y1313180D01*
X1055368D01*
X1463042Y1454149D02*
Y1446531D01*
X1466851D01*
X1468120Y1447801D01*
Y1452879D01*
X1466851Y1454149D01*
X1463042D01*
X1470660Y1452879D02*
X1471929Y1454149D01*
X1474468D01*
X1475738Y1452879D01*
Y1451610D01*
X1474468Y1450340D01*
X1473199D01*
X1474468D01*
X1475738Y1449070D01*
Y1447801D01*
X1474468Y1446531D01*
X1471929D01*
X1470660Y1447801D01*
X1386842Y1454149D02*
Y1446531D01*
X1390651D01*
X1391920Y1447801D01*
Y1452879D01*
X1390651Y1454149D01*
X1386842D01*
X1399538Y1446531D02*
X1394460D01*
X1399538Y1451610D01*
Y1452879D01*
X1398268Y1454149D01*
X1395729D01*
X1394460Y1452879D01*
X1313182Y1454149D02*
Y1446531D01*
X1316990D01*
X1318260Y1447801D01*
Y1452879D01*
X1316990Y1454149D01*
X1313182D01*
X1320799Y1446531D02*
X1323338D01*
X1322069D01*
Y1454149D01*
X1320799Y1452879D01*
X317502Y1315719D02*
X316232Y1316989D01*
X313693D01*
X312423Y1315719D01*
Y1310641D01*
X313693Y1309371D01*
X316232D01*
X317502Y1310641D01*
X323850Y1309371D02*
Y1316989D01*
X320041Y1313180D01*
X325119D01*
X332737Y1316989D02*
X330198Y1315719D01*
X327658Y1313180D01*
Y1310641D01*
X328928Y1309371D01*
X331467D01*
X332737Y1310641D01*
Y1311910D01*
X331467Y1313180D01*
X327658D01*
X181612Y1314449D02*
X180342Y1315719D01*
X177803D01*
X176533Y1314449D01*
Y1309371D01*
X177803Y1308101D01*
X180342D01*
X181612Y1309371D01*
X187960Y1308101D02*
Y1315719D01*
X184151Y1311910D01*
X189229D01*
X196847Y1315719D02*
X191768D01*
Y1311910D01*
X194308Y1313180D01*
X195577D01*
X196847Y1311910D01*
Y1309371D01*
X195577Y1308101D01*
X193038D01*
X191768Y1309371D01*
X317502Y1297939D02*
X316232Y1299209D01*
X313693D01*
X312423Y1297939D01*
Y1292861D01*
X313693Y1291591D01*
X316232D01*
X317502Y1292861D01*
X323850Y1291591D02*
Y1299209D01*
X320041Y1295400D01*
X325119D01*
X331467Y1291591D02*
Y1299209D01*
X327658Y1295400D01*
X332737D01*
X335282Y1388109D02*
X334012Y1389379D01*
X331473D01*
X330203Y1388109D01*
Y1383031D01*
X331473Y1381761D01*
X334012D01*
X335282Y1383031D01*
X341630Y1381761D02*
Y1389379D01*
X337821Y1385570D01*
X342899D01*
X345438Y1388109D02*
X346708Y1389379D01*
X349247D01*
X350517Y1388109D01*
Y1386840D01*
X349247Y1385570D01*
X347978D01*
X349247D01*
X350517Y1384300D01*
Y1383031D01*
X349247Y1381761D01*
X346708D01*
X345438Y1383031D01*
X335282Y1352549D02*
X334012Y1353819D01*
X331473D01*
X330203Y1352549D01*
Y1347471D01*
X331473Y1346201D01*
X334012D01*
X335282Y1347471D01*
X341630Y1346201D02*
Y1353819D01*
X337821Y1350010D01*
X342899D01*
X350517Y1346201D02*
X345438D01*
X350517Y1351280D01*
Y1352549D01*
X349247Y1353819D01*
X346708D01*
X345438Y1352549D01*
X335281Y1370329D02*
X334012Y1371599D01*
X331473D01*
X330203Y1370329D01*
Y1365251D01*
X331473Y1363981D01*
X334012D01*
X335281Y1365251D01*
X341629Y1363981D02*
Y1371599D01*
X337820Y1367790D01*
X342899D01*
X345438Y1363981D02*
X347977D01*
X346707D01*
Y1371599D01*
X345438Y1370329D01*
X689612Y1282699D02*
X688342Y1283969D01*
X685803D01*
X684533Y1282699D01*
Y1277621D01*
X685803Y1276351D01*
X688342D01*
X689612Y1277621D01*
X697229Y1276351D02*
X692151D01*
X697229Y1281430D01*
Y1282699D01*
X695960Y1283969D01*
X693420D01*
X692151Y1282699D01*
X699768D02*
X701038Y1283969D01*
X703577D01*
X704847Y1282699D01*
Y1281430D01*
X703577Y1280160D01*
X704847Y1278890D01*
Y1277621D01*
X703577Y1276351D01*
X701038D01*
X699768Y1277621D01*
Y1278890D01*
X701038Y1280160D01*
X699768Y1281430D01*
Y1282699D01*
X701038Y1280160D02*
X703577D01*
X689612Y1303019D02*
X688342Y1304289D01*
X685803D01*
X684533Y1303019D01*
Y1297941D01*
X685803Y1296671D01*
X688342D01*
X689612Y1297941D01*
X697229Y1296671D02*
X692151D01*
X697229Y1301750D01*
Y1303019D01*
X695960Y1304289D01*
X693420D01*
X692151Y1303019D01*
X699768Y1304289D02*
X704847D01*
Y1303019D01*
X699768Y1297941D01*
Y1296671D01*
X742952Y791209D02*
X741682Y792479D01*
X739143D01*
X737873Y791209D01*
Y786131D01*
X739143Y784861D01*
X741682D01*
X742952Y786131D01*
X750569Y784861D02*
X745491D01*
X750569Y789940D01*
Y791209D01*
X749300Y792479D01*
X746760D01*
X745491Y791209D01*
X758187Y792479D02*
X755648Y791209D01*
X753108Y788670D01*
Y786131D01*
X754378Y784861D01*
X756917D01*
X758187Y786131D01*
Y787400D01*
X756917Y788670D01*
X753108D01*
X679452Y739139D02*
X678182Y740409D01*
X675643D01*
X674373Y739139D01*
Y734061D01*
X675643Y732791D01*
X678182D01*
X679452Y734061D01*
X687069Y732791D02*
X681991D01*
X687069Y737870D01*
Y739139D01*
X685800Y740409D01*
X683260D01*
X681991Y739139D01*
X694687Y740409D02*
X689608D01*
Y736600D01*
X692148Y737870D01*
X693417D01*
X694687Y736600D01*
Y734061D01*
X693417Y732791D01*
X690878D01*
X689608Y734061D01*
X981712Y708659D02*
X980442Y709929D01*
X977903D01*
X976633Y708659D01*
Y703581D01*
X977903Y702311D01*
X980442D01*
X981712Y703581D01*
X989329Y702311D02*
X984251D01*
X989329Y707390D01*
Y708659D01*
X988060Y709929D01*
X985520D01*
X984251Y708659D01*
X995677Y702311D02*
Y709929D01*
X991868Y706120D01*
X996947D01*
X981712Y654049D02*
X980442Y655319D01*
X977903D01*
X976633Y654049D01*
Y648971D01*
X977903Y647701D01*
X980442D01*
X981712Y648971D01*
X989329Y647701D02*
X984251D01*
X989329Y652780D01*
Y654049D01*
X988060Y655319D01*
X985520D01*
X984251Y654049D01*
X991868D02*
X993138Y655319D01*
X995677D01*
X996947Y654049D01*
Y652780D01*
X995677Y651510D01*
X994408D01*
X995677D01*
X996947Y650240D01*
Y648971D01*
X995677Y647701D01*
X993138D01*
X991868Y648971D01*
X689612Y723899D02*
X688342Y725169D01*
X685803D01*
X684533Y723899D01*
Y718821D01*
X685803Y717551D01*
X688342D01*
X689612Y718821D01*
X697229Y717551D02*
X692151D01*
X697229Y722630D01*
Y723899D01*
X695960Y725169D01*
X693420D01*
X692151Y723899D01*
X704847Y717551D02*
X699768D01*
X704847Y722630D01*
Y723899D01*
X703577Y725169D01*
X701038D01*
X699768Y723899D01*
X958851Y633729D02*
X957582Y634999D01*
X955042D01*
X953773Y633729D01*
Y628651D01*
X955042Y627381D01*
X957582D01*
X958851Y628651D01*
X966469Y627381D02*
X961390D01*
X966469Y632460D01*
Y633729D01*
X965199Y634999D01*
X962660D01*
X961390Y633729D01*
X969008Y627381D02*
X971547D01*
X970277D01*
Y634999D01*
X969008Y633729D01*
X933452Y579119D02*
X932182Y580389D01*
X929643D01*
X928373Y579119D01*
Y574041D01*
X929643Y572771D01*
X932182D01*
X933452Y574041D01*
X941069Y572771D02*
X935991D01*
X941069Y577850D01*
Y579119D01*
X939800Y580389D01*
X937260D01*
X935991Y579119D01*
X943608D02*
X944878Y580389D01*
X947417D01*
X948687Y579119D01*
Y574041D01*
X947417Y572771D01*
X944878D01*
X943608Y574041D01*
Y579119D01*
X967106Y727709D02*
X965837Y728979D01*
X963298D01*
X962028Y727709D01*
Y722631D01*
X963298Y721361D01*
X965837D01*
X967106Y722631D01*
X969646Y721361D02*
X972185D01*
X970915D01*
Y728979D01*
X969646Y727709D01*
X975994Y722631D02*
X977263Y721361D01*
X979802D01*
X981072Y722631D01*
Y727709D01*
X979802Y728979D01*
X977263D01*
X975994Y727709D01*
Y726440D01*
X977263Y725170D01*
X981072D01*
X874396Y839469D02*
X873127Y840739D01*
X870588D01*
X869318Y839469D01*
Y834391D01*
X870588Y833121D01*
X873127D01*
X874396Y834391D01*
X876936Y833121D02*
X879475D01*
X878205D01*
Y840739D01*
X876936Y839469D01*
X883284D02*
X884553Y840739D01*
X887092D01*
X888362Y839469D01*
Y838200D01*
X887092Y836930D01*
X888362Y835660D01*
Y834391D01*
X887092Y833121D01*
X884553D01*
X883284Y834391D01*
Y835660D01*
X884553Y836930D01*
X883284Y838200D01*
Y839469D01*
X884553Y836930D02*
X887092D01*
X898526Y839469D02*
X897257Y840739D01*
X894718D01*
X893448Y839469D01*
Y834391D01*
X894718Y833121D01*
X897257D01*
X898526Y834391D01*
X901066Y833121D02*
X903605D01*
X902335D01*
Y840739D01*
X901066Y839469D01*
X907414Y840739D02*
X912492D01*
Y839469D01*
X907414Y834391D01*
Y833121D01*
X748666Y579119D02*
X747397Y580389D01*
X744858D01*
X743588Y579119D01*
Y574041D01*
X744858Y572771D01*
X747397D01*
X748666Y574041D01*
X751206Y572771D02*
X753745D01*
X752475D01*
Y580389D01*
X751206Y579119D01*
X762632Y580389D02*
X760093Y579119D01*
X757554Y576580D01*
Y574041D01*
X758823Y572771D01*
X761362D01*
X762632Y574041D01*
Y575310D01*
X761362Y576580D01*
X757554D01*
X888366Y579119D02*
X887097Y580389D01*
X884558D01*
X883288Y579119D01*
Y574041D01*
X884558Y572771D01*
X887097D01*
X888366Y574041D01*
X890906Y572771D02*
X893445D01*
X892175D01*
Y580389D01*
X890906Y579119D01*
X902332Y580389D02*
X897254D01*
Y576580D01*
X899793Y577850D01*
X901062D01*
X902332Y576580D01*
Y574041D01*
X901062Y572771D01*
X898523D01*
X897254Y574041D01*
X865506Y579119D02*
X864237Y580389D01*
X861698D01*
X860428Y579119D01*
Y574041D01*
X861698Y572771D01*
X864237D01*
X865506Y574041D01*
X868046Y572771D02*
X870585D01*
X869315D01*
Y580389D01*
X868046Y579119D01*
X878202Y572771D02*
Y580389D01*
X874394Y576580D01*
X879472D01*
X728346Y697229D02*
X727077Y698499D01*
X724538D01*
X723268Y697229D01*
Y692151D01*
X724538Y690881D01*
X727077D01*
X728346Y692151D01*
X730886Y690881D02*
X733425D01*
X732155D01*
Y698499D01*
X730886Y697229D01*
X737234D02*
X738503Y698499D01*
X741042D01*
X742312Y697229D01*
Y695960D01*
X741042Y694690D01*
X739773D01*
X741042D01*
X742312Y693420D01*
Y692151D01*
X741042Y690881D01*
X738503D01*
X737234Y692151D01*
X835026Y579119D02*
X833757Y580389D01*
X831218D01*
X829948Y579119D01*
Y574041D01*
X831218Y572771D01*
X833757D01*
X835026Y574041D01*
X837566Y572771D02*
X840105D01*
X838835D01*
Y580389D01*
X837566Y579119D01*
X848992Y572771D02*
X843914D01*
X848992Y577850D01*
Y579119D01*
X847722Y580389D01*
X845183D01*
X843914Y579119D01*
X909956Y638809D02*
X908686Y640079D01*
X906147D01*
X904878Y638809D01*
Y633731D01*
X906147Y632461D01*
X908686D01*
X909956Y633731D01*
X912495Y632461D02*
X915034D01*
X913765D01*
Y640079D01*
X912495Y638809D01*
X918843Y632461D02*
X921382D01*
X920113D01*
Y640079D01*
X918843Y638809D01*
X812166Y579119D02*
X810897Y580389D01*
X808358D01*
X807088Y579119D01*
Y574041D01*
X808358Y572771D01*
X810897D01*
X812166Y574041D01*
X814706Y572771D02*
X817245D01*
X815975D01*
Y580389D01*
X814706Y579119D01*
X821054D02*
X822323Y580389D01*
X824862D01*
X826132Y579119D01*
Y574041D01*
X824862Y572771D01*
X822323D01*
X821054Y574041D01*
Y579119D01*
X197087Y687804D02*
X195817Y689074D01*
X193278D01*
X192008Y687804D01*
Y682726D01*
X193278Y681456D01*
X195817D01*
X197087Y682726D01*
X199626D02*
X200896Y681456D01*
X203435D01*
X204704Y682726D01*
Y687804D01*
X203435Y689074D01*
X200896D01*
X199626Y687804D01*
Y686535D01*
X200896Y685265D01*
X204704D01*
X878840Y882649D02*
X877571Y883919D01*
X875032D01*
X873762Y882649D01*
Y877571D01*
X875032Y876301D01*
X877571D01*
X878840Y877571D01*
X881380Y882649D02*
X882649Y883919D01*
X885188D01*
X886458Y882649D01*
Y881380D01*
X885188Y880110D01*
X886458Y878840D01*
Y877571D01*
X885188Y876301D01*
X882649D01*
X881380Y877571D01*
Y878840D01*
X882649Y880110D01*
X881380Y881380D01*
Y882649D01*
X882649Y880110D02*
X885188D01*
X938530Y680719D02*
X937261Y681989D01*
X934722D01*
X933452Y680719D01*
Y675641D01*
X934722Y674371D01*
X937261D01*
X938530Y675641D01*
X941070Y681989D02*
X946148D01*
Y680719D01*
X941070Y675641D01*
Y674371D01*
X914400Y579119D02*
X913131Y580389D01*
X910592D01*
X909322Y579119D01*
Y574041D01*
X910592Y572771D01*
X913131D01*
X914400Y574041D01*
X922018Y580389D02*
X919479Y579119D01*
X916940Y576580D01*
Y574041D01*
X918209Y572771D01*
X920748D01*
X922018Y574041D01*
Y575310D01*
X920748Y576580D01*
X916940D01*
X795020Y579119D02*
X793751Y580389D01*
X791212D01*
X789942Y579119D01*
Y574041D01*
X791212Y572771D01*
X793751D01*
X795020Y574041D01*
X802638Y580389D02*
X797560D01*
Y576580D01*
X800099Y577850D01*
X801368D01*
X802638Y576580D01*
Y574041D01*
X801368Y572771D01*
X798829D01*
X797560Y574041D01*
X774700Y579119D02*
X773431Y580389D01*
X770892D01*
X769622Y579119D01*
Y574041D01*
X770892Y572771D01*
X773431D01*
X774700Y574041D01*
X781048Y572771D02*
Y580389D01*
X777240Y576580D01*
X782318D01*
X847090Y802639D02*
X845821Y803909D01*
X843282D01*
X842012Y802639D01*
Y797561D01*
X843282Y796291D01*
X845821D01*
X847090Y797561D01*
X849630Y802639D02*
X850899Y803909D01*
X853438D01*
X854708Y802639D01*
Y801370D01*
X853438Y800100D01*
X852169D01*
X853438D01*
X854708Y798830D01*
Y797561D01*
X853438Y796291D01*
X850899D01*
X849630Y797561D01*
X792480Y629919D02*
X791211Y631189D01*
X788672D01*
X787402Y629919D01*
Y624841D01*
X788672Y623571D01*
X791211D01*
X792480Y624841D01*
X800098Y623571D02*
X795020D01*
X800098Y628650D01*
Y629919D01*
X798828Y631189D01*
X796289D01*
X795020Y629919D01*
D16*
X878840Y1418082D02*
Y1507998D01*
X978662Y1418082D02*
Y1507998D01*
X878840Y1418082D02*
X978662D01*
X1021080D02*
Y1507998D01*
X1120902Y1418082D02*
Y1507998D01*
X1021080Y1418082D02*
X1120902D01*
X1162558D02*
X1262380D01*
Y1507998D01*
X1162558Y1418082D02*
Y1507998D01*
X1582422Y1234438D02*
X1584961Y1236977D01*
X1590039D01*
X1592578Y1234438D01*
Y1224282D01*
X1590039Y1221742D01*
X1584961D01*
X1582422Y1224282D01*
Y1234438D01*
X1261563Y274397D02*
X1257331Y278629D01*
X1248867D01*
X1244635Y274397D01*
Y257469D01*
X1248867Y253237D01*
X1257331D01*
X1261563Y257469D01*
Y265933D01*
X1253099D01*
X1270027Y253237D02*
Y270165D01*
X1278491Y278629D01*
X1286954Y270165D01*
Y253237D01*
Y265933D01*
X1270027D01*
X1295419Y253237D02*
Y278629D01*
X1308114D01*
X1312346Y274397D01*
Y265933D01*
X1308114Y261701D01*
X1295419D01*
X1303882D02*
X1312346Y253237D01*
X1320810Y278629D02*
Y253237D01*
X1333506D01*
X1337738Y257469D01*
Y274397D01*
X1333506Y278629D01*
X1320810D01*
X1363130D02*
X1346202D01*
Y253237D01*
X1363130D01*
X1346202Y265933D02*
X1354666D01*
X1371594Y253237D02*
Y278629D01*
X1388522Y253237D01*
Y278629D01*
X1396986D02*
X1405450D01*
X1401218D01*
Y253237D01*
X1396986D01*
X1405450D01*
X1418145D02*
Y278629D01*
X1430841D01*
X1435073Y274397D01*
Y265933D01*
X1430841Y261701D01*
X1418145D01*
X1426609D02*
X1435073Y253237D01*
X1460465Y274397D02*
X1456233Y278629D01*
X1447769D01*
X1443537Y274397D01*
Y270165D01*
X1447769Y265933D01*
X1456233D01*
X1460465Y261701D01*
Y257469D01*
X1456233Y253237D01*
X1447769D01*
X1443537Y257469D01*
X1113444Y216671D02*
Y242063D01*
X1121908Y233599D01*
X1130372Y242063D01*
Y216671D01*
X1138836Y242063D02*
X1147300D01*
X1143068D01*
Y216671D01*
X1138836D01*
X1147300D01*
X1176923Y237831D02*
X1172691Y242063D01*
X1164228D01*
X1159995Y237831D01*
Y220903D01*
X1164228Y216671D01*
X1172691D01*
X1176923Y220903D01*
X1185387Y216671D02*
Y242063D01*
X1198083D01*
X1202315Y237831D01*
Y229367D01*
X1198083Y225135D01*
X1185387D01*
X1193851D02*
X1202315Y216671D01*
X1223475Y242063D02*
X1215011D01*
X1210779Y237831D01*
Y220903D01*
X1215011Y216671D01*
X1223475D01*
X1227707Y220903D01*
Y237831D01*
X1223475Y242063D01*
X1253099Y237831D02*
X1248867Y242063D01*
X1240403D01*
X1236171Y237831D01*
Y220903D01*
X1240403Y216671D01*
X1248867D01*
X1253099Y220903D01*
X1274259Y242063D02*
X1265795D01*
X1261563Y237831D01*
Y220903D01*
X1265795Y216671D01*
X1274259D01*
X1278491Y220903D01*
Y237831D01*
X1274259Y242063D01*
X1286954Y216671D02*
Y242063D01*
X1303882Y216671D01*
Y242063D01*
X1312346D02*
X1329274D01*
X1320810D01*
Y216671D01*
X1337738D02*
Y242063D01*
X1350434D01*
X1354666Y237831D01*
Y229367D01*
X1350434Y225135D01*
X1337738D01*
X1346202D02*
X1354666Y216671D01*
X1375826Y242063D02*
X1367362D01*
X1363130Y237831D01*
Y220903D01*
X1367362Y216671D01*
X1375826D01*
X1380058Y220903D01*
Y237831D01*
X1375826Y242063D01*
X1388522D02*
Y216671D01*
X1405450D01*
X1413914Y242063D02*
Y216671D01*
X1430841D01*
X1456233Y242063D02*
X1439305D01*
Y216671D01*
X1456233D01*
X1439305Y229367D02*
X1447769D01*
X1464697Y216671D02*
Y242063D01*
X1477393D01*
X1481625Y237831D01*
Y229367D01*
X1477393Y225135D01*
X1464697D01*
X1473161D02*
X1481625Y216671D01*
X1515481Y233599D02*
X1523945Y216671D01*
X1532408Y233599D01*
X1540872Y216671D02*
X1549336D01*
X1545105D01*
Y242063D01*
X1540872Y237831D01*
X1562032Y216671D02*
Y220903D01*
X1566264D01*
Y216671D01*
X1562032D01*
X1583192D02*
X1591656D01*
X1587424D01*
Y242063D01*
X1583192Y237831D01*
X1610361Y1221742D02*
X1615439D01*
X1612900D01*
Y1236977D01*
X1610361Y1234438D01*
X1643378Y1221742D02*
X1633222D01*
X1643378Y1231899D01*
Y1234438D01*
X1640839Y1236977D01*
X1635761D01*
X1633222Y1234438D01*
X1162050Y1397000D02*
X1167128D01*
X1164589D01*
Y1412235D01*
X1162050Y1409696D01*
X1184903Y1397000D02*
X1174746D01*
X1184903Y1407157D01*
Y1409696D01*
X1182363Y1412235D01*
X1177285D01*
X1174746Y1409696D01*
X1189981Y1412235D02*
Y1402078D01*
X1195059Y1397000D01*
X1200138Y1402078D01*
Y1412235D01*
X1021080D02*
Y1397000D01*
X1026158Y1402078D01*
X1031237Y1397000D01*
Y1412235D01*
X1038854Y1407157D02*
X1043933D01*
X1046472Y1404617D01*
Y1397000D01*
X1038854D01*
X1036315Y1399539D01*
X1038854Y1402078D01*
X1046472D01*
X1054089Y1409696D02*
Y1407157D01*
X1051550D01*
X1056628D01*
X1054089D01*
Y1399539D01*
X1056628Y1397000D01*
X1071864D02*
X1066785D01*
X1064246Y1399539D01*
Y1404617D01*
X1066785Y1407157D01*
X1071864D01*
X1074403Y1404617D01*
Y1402078D01*
X1064246D01*
X1079481Y1407157D02*
Y1397000D01*
Y1402078D01*
X1082020Y1404617D01*
X1084559Y1407157D01*
X1087099D01*
X878840Y1412233D02*
Y1396998D01*
X888997D01*
X896614Y1407155D02*
X901693D01*
X904232Y1404616D01*
Y1396998D01*
X896614D01*
X894075Y1399538D01*
X896614Y1402077D01*
X904232D01*
X909310Y1396998D02*
Y1407155D01*
X911849D01*
X914389Y1404616D01*
Y1396998D01*
Y1404616D01*
X916928Y1407155D01*
X919467Y1404616D01*
Y1396998D01*
X924545Y1391920D02*
Y1407155D01*
X932163D01*
X934702Y1404616D01*
Y1399538D01*
X932163Y1396998D01*
X924545D01*
X1442726Y1257295D02*
X1437647D01*
X1440187D01*
Y1244599D01*
X1437647Y1242060D01*
X1435108D01*
X1432569Y1244599D01*
X1447804Y1257295D02*
X1457961D01*
X1452883D01*
Y1242060D01*
X1463039D02*
Y1252217D01*
X1468118Y1257295D01*
X1473196Y1252217D01*
Y1242060D01*
Y1249678D01*
X1463039D01*
X1488431Y1254756D02*
X1485892Y1257295D01*
X1480813D01*
X1478274Y1254756D01*
Y1244599D01*
X1480813Y1242060D01*
X1485892D01*
X1488431Y1244599D01*
Y1249678D01*
X1483353D01*
X1602737Y1257296D02*
X1600197Y1259835D01*
X1595119D01*
X1592580Y1257296D01*
Y1254757D01*
X1595119Y1252217D01*
X1600197D01*
X1602737Y1249678D01*
Y1247139D01*
X1600197Y1244600D01*
X1595119D01*
X1592580Y1247139D01*
X1615433Y1259835D02*
X1610354D01*
X1607815Y1257296D01*
Y1247139D01*
X1610354Y1244600D01*
X1615433D01*
X1617972Y1247139D01*
Y1257296D01*
X1615433Y1259835D01*
X1623050Y1244600D02*
Y1259835D01*
X1630668D01*
X1633207Y1257296D01*
Y1252217D01*
X1630668Y1249678D01*
X1623050D01*
X1344930Y1468120D02*
Y1483355D01*
X1352547D01*
X1355087Y1480816D01*
Y1475737D01*
X1352547Y1473198D01*
X1344930D01*
X1350008D02*
X1355087Y1468120D01*
X1497330Y1483355D02*
Y1480816D01*
X1502408Y1475737D01*
X1507487Y1480816D01*
Y1483355D01*
X1502408Y1475737D02*
Y1468120D01*
X1432557Y1480816D02*
X1430018Y1483355D01*
X1424939D01*
X1422400Y1480816D01*
Y1470659D01*
X1424939Y1468120D01*
X1430018D01*
X1432557Y1470659D01*
Y1475737D01*
X1427478D01*
X642620Y1329690D02*
Y1344925D01*
X650238D01*
X652777Y1342386D01*
Y1337307D01*
X650238Y1334768D01*
X642620D01*
X660394Y1329690D02*
X665473D01*
X668012Y1332229D01*
Y1337307D01*
X665473Y1339847D01*
X660394D01*
X657855Y1337307D01*
Y1332229D01*
X660394Y1329690D01*
X673090Y1339847D02*
Y1332229D01*
X675629Y1329690D01*
X678168Y1332229D01*
X680708Y1329690D01*
X683247Y1332229D01*
Y1339847D01*
X695943Y1329690D02*
X690864D01*
X688325Y1332229D01*
Y1337307D01*
X690864Y1339847D01*
X695943D01*
X698482Y1337307D01*
Y1334768D01*
X688325D01*
X703560Y1339847D02*
Y1329690D01*
Y1334768D01*
X706099Y1337307D01*
X708639Y1339847D01*
X711178D01*
X407667Y1342384D02*
X405127Y1344923D01*
X400049D01*
X397510Y1342384D01*
Y1339845D01*
X400049Y1337306D01*
X405127D01*
X407667Y1334767D01*
Y1332227D01*
X405127Y1329688D01*
X400049D01*
X397510Y1332227D01*
X420363Y1329688D02*
X415284D01*
X412745Y1332227D01*
Y1337306D01*
X415284Y1339845D01*
X420363D01*
X422902Y1337306D01*
Y1334767D01*
X412745D01*
X427980Y1329688D02*
Y1339845D01*
X435598D01*
X438137Y1337306D01*
Y1329688D01*
X443215D02*
X450833D01*
X453372Y1332227D01*
X450833Y1334767D01*
X445754D01*
X443215Y1337306D01*
X445754Y1339845D01*
X453372D01*
X458450Y1329688D02*
X463529D01*
X460989D01*
Y1339845D01*
X458450D01*
X471146Y1329688D02*
Y1339845D01*
X478764D01*
X481303Y1337306D01*
Y1329688D01*
X491460Y1324610D02*
X493999D01*
X496538Y1327149D01*
Y1339845D01*
X488920D01*
X486381Y1337306D01*
Y1332227D01*
X488920Y1329688D01*
X496538D01*
D17*
X900850Y764540D02*
X892386Y756076D01*
Y764540D02*
X900850Y756076D01*
X896618Y764540D02*
Y756076D01*
X892386Y760308D02*
X900850D01*
M02*
