G04*
G04 #@! TF.GenerationSoftware,Altium Limited,Altium Designer,23.2.1 (34)*
G04*
G04 Layer_Color=255*
%FSLAX44Y44*%
%MOMM*%
G71*
G04*
G04 #@! TF.SameCoordinates,66AF3463-A4ED-4445-B3F6-74E376143534*
G04*
G04*
G04 #@! TF.FilePolarity,Positive*
G04*
G01*
G75*
%ADD41C,0.5842*%
%ADD52C,1.7000*%
%ADD56C,1.6000*%
%ADD69R,1.7000X1.7000*%
%ADD70C,2.0320*%
%ADD71R,2.0320X2.0320*%
%ADD72O,0.9000X1.8000*%
%ADD73C,1.6000*%
%ADD74R,1.6000X1.6000*%
%ADD75C,1.6500*%
%ADD76R,2.5400X2.5400*%
%ADD77C,2.5400*%
%ADD78R,1.5000X1.5000*%
%ADD79C,1.5000*%
%ADD80C,5.0800*%
D41*
X150740Y529190D02*
D03*
X144240Y522690D02*
D03*
X150740Y516190D02*
D03*
X157240Y522690D02*
D03*
X174240D02*
D03*
X180740Y516190D02*
D03*
X187240Y522690D02*
D03*
X180740Y529190D02*
D03*
X210740D02*
D03*
Y516190D02*
D03*
X217240Y522690D02*
D03*
X204240D02*
D03*
X180990Y559190D02*
D03*
X174240Y552690D02*
D03*
X180740Y546190D02*
D03*
X187240Y552690D02*
D03*
X144240D02*
D03*
X150740Y546190D02*
D03*
X157240Y552690D02*
D03*
X150740Y559190D02*
D03*
Y589190D02*
D03*
X144240Y582690D02*
D03*
X150740Y576190D02*
D03*
X157240Y582690D02*
D03*
X174240D02*
D03*
X180740Y576190D02*
D03*
X187240Y582690D02*
D03*
X180740Y589190D02*
D03*
X210740D02*
D03*
X204240Y582690D02*
D03*
X217240D02*
D03*
X210740Y576190D02*
D03*
X210990Y559190D02*
D03*
X204240Y552690D02*
D03*
X217240D02*
D03*
X210740Y546190D02*
D03*
D52*
X655910Y530320D02*
D03*
Y555320D02*
D03*
Y580320D02*
D03*
Y605320D02*
D03*
Y630320D02*
D03*
Y655320D02*
D03*
X630910Y530320D02*
D03*
Y555320D02*
D03*
Y580320D02*
D03*
Y605320D02*
D03*
Y630320D02*
D03*
Y855110D02*
D03*
Y830110D02*
D03*
Y805110D02*
D03*
Y780110D02*
D03*
Y755110D02*
D03*
X655910Y880110D02*
D03*
Y855110D02*
D03*
Y830110D02*
D03*
Y805110D02*
D03*
Y780110D02*
D03*
Y755110D02*
D03*
D56*
X727710Y530320D02*
D03*
Y655320D02*
D03*
X115570Y739140D02*
D03*
Y764540D02*
D03*
Y802640D02*
D03*
Y828040D02*
D03*
Y866140D02*
D03*
Y891540D02*
D03*
X727710Y880110D02*
D03*
Y755110D02*
D03*
D69*
X630910Y655320D02*
D03*
Y880110D02*
D03*
D70*
X303530Y552450D02*
D03*
Y527050D02*
D03*
Y577850D02*
D03*
Y603250D02*
D03*
Y501650D02*
D03*
Y374650D02*
D03*
Y476250D02*
D03*
Y400050D02*
D03*
Y425450D02*
D03*
Y450850D02*
D03*
X226060Y382270D02*
D03*
X200660D02*
D03*
X175260D02*
D03*
X149860D02*
D03*
X303530Y730250D02*
D03*
Y755650D02*
D03*
Y781050D02*
D03*
Y806450D02*
D03*
Y831850D02*
D03*
Y857250D02*
D03*
X194310Y135890D02*
D03*
X219710D02*
D03*
Y161290D02*
D03*
X194310D02*
D03*
X168910D02*
D03*
D71*
Y135890D02*
D03*
D72*
X464590Y1001130D02*
D03*
X530590D02*
D03*
D73*
X474980Y314960D02*
D03*
Y289560D02*
D03*
Y160020D02*
D03*
Y134620D02*
D03*
D74*
Y264160D02*
D03*
Y109220D02*
D03*
D75*
X581660Y233680D02*
D03*
Y55880D02*
D03*
D76*
X721360Y360680D02*
D03*
Y247650D02*
D03*
Y134112D02*
D03*
D77*
Y410718D02*
D03*
Y297688D02*
D03*
Y184150D02*
D03*
D78*
X328930Y988060D02*
D03*
D79*
X303930D02*
D03*
X278930D02*
D03*
D80*
X711200Y63500D02*
D03*
Y952500D02*
D03*
X139700D02*
D03*
Y63500D02*
D03*
M02*
