G04*
G04 #@! TF.GenerationSoftware,Altium Limited,Altium Designer,23.2.1 (34)*
G04*
G04 Layer_Color=8421504*
%FSLAX44Y44*%
%MOMM*%
G71*
G04*
G04 #@! TF.SameCoordinates,66AF3463-A4ED-4445-B3F6-74E376143534*
G04*
G04*
G04 #@! TF.FilePolarity,Positive*
G04*
G01*
G75*
%ADD15R,1.2000X1.4000*%
%ADD16R,0.8000X0.8000*%
%ADD17R,0.8000X0.8000*%
%ADD18R,0.0254X0.0254*%
%ADD19R,0.7400X2.7900*%
%ADD20R,1.4000X1.2000*%
%ADD21R,1.4000X1.1000*%
%ADD22R,1.1000X1.4000*%
G04:AMPARAMS|DCode=23|XSize=0.84mm|YSize=0.25mm|CornerRadius=0.0313mm|HoleSize=0mm|Usage=FLASHONLY|Rotation=180.000|XOffset=0mm|YOffset=0mm|HoleType=Round|Shape=RoundedRectangle|*
%AMROUNDEDRECTD23*
21,1,0.8400,0.1875,0,0,180.0*
21,1,0.7775,0.2500,0,0,180.0*
1,1,0.0625,-0.3888,0.0938*
1,1,0.0625,0.3888,0.0938*
1,1,0.0625,0.3888,-0.0938*
1,1,0.0625,-0.3888,-0.0938*
%
%ADD23ROUNDEDRECTD23*%
%ADD24R,1.9000X1.9000*%
%ADD25R,1.6000X1.4000*%
%ADD26R,0.4000X1.3500*%
G36*
X502940Y830300D02*
X492740D01*
Y846100D01*
X502940D01*
Y830300D01*
D02*
G37*
G36*
X220296Y592631D02*
X220388Y592603D01*
X220473Y592557D01*
X220547Y592497D01*
X220607Y592422D01*
X220653Y592338D01*
X220681Y592246D01*
X220690Y592150D01*
Y584230D01*
X220681Y584134D01*
X220653Y584042D01*
X220607Y583958D01*
X220547Y583883D01*
X220473Y583823D01*
X220388Y583777D01*
X220296Y583749D01*
X220201Y583740D01*
X212279D01*
X212184Y583749D01*
X212092Y583777D01*
X212008Y583823D01*
X211933Y583883D01*
X211873Y583958D01*
X211827Y584042D01*
X211799Y584134D01*
X211790Y584230D01*
Y592150D01*
X211799Y592246D01*
X211827Y592338D01*
X211873Y592422D01*
X211933Y592497D01*
X212008Y592557D01*
X212092Y592603D01*
X212184Y592631D01*
X212279Y592640D01*
X220201D01*
X220296Y592631D01*
D02*
G37*
G36*
X209296D02*
X209388Y592603D01*
X209472Y592557D01*
X209547Y592497D01*
X209608Y592422D01*
X209653Y592338D01*
X209681Y592246D01*
X209690Y592150D01*
Y584230D01*
X209681Y584134D01*
X209653Y584042D01*
X209608Y583958D01*
X209547Y583883D01*
X209472Y583823D01*
X209388Y583777D01*
X209296Y583749D01*
X209200Y583740D01*
X201280D01*
X201184Y583749D01*
X201092Y583777D01*
X201007Y583823D01*
X200933Y583883D01*
X200872Y583958D01*
X200827Y584042D01*
X200799Y584134D01*
X200790Y584230D01*
Y592150D01*
X200799Y592246D01*
X200827Y592338D01*
X200872Y592422D01*
X200933Y592497D01*
X201007Y592557D01*
X201092Y592603D01*
X201184Y592631D01*
X201280Y592640D01*
X209200D01*
X209296Y592631D01*
D02*
G37*
G36*
X190296D02*
X190388Y592603D01*
X190473Y592557D01*
X190547Y592497D01*
X190607Y592422D01*
X190653Y592338D01*
X190681Y592246D01*
X190690Y592150D01*
Y584230D01*
X190681Y584134D01*
X190653Y584042D01*
X190607Y583958D01*
X190547Y583883D01*
X190473Y583823D01*
X190388Y583777D01*
X190296Y583749D01*
X190201Y583740D01*
X182279D01*
X182184Y583749D01*
X182092Y583777D01*
X182008Y583823D01*
X181933Y583883D01*
X181873Y583958D01*
X181827Y584042D01*
X181799Y584134D01*
X181790Y584230D01*
Y592150D01*
X181799Y592246D01*
X181827Y592338D01*
X181873Y592422D01*
X181933Y592497D01*
X182008Y592557D01*
X182092Y592603D01*
X182184Y592631D01*
X182279Y592640D01*
X190201D01*
X190296Y592631D01*
D02*
G37*
G36*
X179296D02*
X179388Y592603D01*
X179472Y592557D01*
X179547Y592497D01*
X179608Y592422D01*
X179653Y592338D01*
X179681Y592246D01*
X179690Y592150D01*
Y584230D01*
X179681Y584134D01*
X179653Y584042D01*
X179608Y583958D01*
X179547Y583883D01*
X179472Y583823D01*
X179388Y583777D01*
X179296Y583749D01*
X179200Y583740D01*
X171280D01*
X171184Y583749D01*
X171092Y583777D01*
X171007Y583823D01*
X170933Y583883D01*
X170872Y583958D01*
X170827Y584042D01*
X170799Y584134D01*
X170790Y584230D01*
Y592150D01*
X170799Y592246D01*
X170827Y592338D01*
X170872Y592422D01*
X170933Y592497D01*
X171007Y592557D01*
X171092Y592603D01*
X171184Y592631D01*
X171280Y592640D01*
X179200D01*
X179296Y592631D01*
D02*
G37*
G36*
X160296D02*
X160388Y592603D01*
X160473Y592557D01*
X160547Y592497D01*
X160607Y592422D01*
X160653Y592338D01*
X160681Y592246D01*
X160690Y592150D01*
Y584230D01*
X160681Y584134D01*
X160653Y584042D01*
X160607Y583958D01*
X160547Y583883D01*
X160473Y583823D01*
X160388Y583777D01*
X160296Y583749D01*
X160201Y583740D01*
X152280D01*
X152184Y583749D01*
X152092Y583777D01*
X152008Y583823D01*
X151933Y583883D01*
X151873Y583958D01*
X151827Y584042D01*
X151799Y584134D01*
X151790Y584230D01*
Y592150D01*
X151799Y592246D01*
X151827Y592338D01*
X151873Y592422D01*
X151933Y592497D01*
X152008Y592557D01*
X152092Y592603D01*
X152184Y592631D01*
X152280Y592640D01*
X160201D01*
X160296Y592631D01*
D02*
G37*
G36*
X149296D02*
X149388Y592603D01*
X149472Y592557D01*
X149547Y592497D01*
X149607Y592422D01*
X149653Y592338D01*
X149681Y592246D01*
X149690Y592150D01*
Y584230D01*
X149681Y584134D01*
X149653Y584042D01*
X149607Y583958D01*
X149547Y583883D01*
X149472Y583823D01*
X149388Y583777D01*
X149296Y583749D01*
X149200Y583740D01*
X141279D01*
X141184Y583749D01*
X141092Y583777D01*
X141007Y583823D01*
X140933Y583883D01*
X140872Y583958D01*
X140827Y584042D01*
X140799Y584134D01*
X140790Y584230D01*
Y592150D01*
X140799Y592246D01*
X140827Y592338D01*
X140872Y592422D01*
X140933Y592497D01*
X141007Y592557D01*
X141092Y592603D01*
X141184Y592631D01*
X141279Y592640D01*
X149200D01*
X149296Y592631D01*
D02*
G37*
G36*
X220296Y581631D02*
X220388Y581603D01*
X220473Y581558D01*
X220547Y581497D01*
X220607Y581422D01*
X220653Y581338D01*
X220681Y581246D01*
X220690Y581151D01*
Y573229D01*
X220681Y573134D01*
X220653Y573042D01*
X220607Y572957D01*
X220547Y572883D01*
X220473Y572822D01*
X220388Y572777D01*
X220296Y572749D01*
X220201Y572740D01*
X212279D01*
X212184Y572749D01*
X212092Y572777D01*
X212008Y572822D01*
X211933Y572883D01*
X211873Y572957D01*
X211827Y573042D01*
X211799Y573134D01*
X211790Y573229D01*
Y581151D01*
X211799Y581246D01*
X211827Y581338D01*
X211873Y581422D01*
X211933Y581497D01*
X212008Y581558D01*
X212092Y581603D01*
X212184Y581631D01*
X212279Y581640D01*
X220201D01*
X220296Y581631D01*
D02*
G37*
G36*
X209296D02*
X209388Y581603D01*
X209472Y581558D01*
X209547Y581497D01*
X209608Y581422D01*
X209653Y581338D01*
X209681Y581246D01*
X209690Y581151D01*
Y573229D01*
X209681Y573134D01*
X209653Y573042D01*
X209608Y572957D01*
X209547Y572883D01*
X209472Y572822D01*
X209388Y572777D01*
X209296Y572749D01*
X209200Y572740D01*
X201280D01*
X201184Y572749D01*
X201092Y572777D01*
X201007Y572822D01*
X200933Y572883D01*
X200872Y572957D01*
X200827Y573042D01*
X200799Y573134D01*
X200790Y573229D01*
Y581151D01*
X200799Y581246D01*
X200827Y581338D01*
X200872Y581422D01*
X200933Y581497D01*
X201007Y581558D01*
X201092Y581603D01*
X201184Y581631D01*
X201280Y581640D01*
X209200D01*
X209296Y581631D01*
D02*
G37*
G36*
X190296D02*
X190388Y581603D01*
X190473Y581558D01*
X190547Y581497D01*
X190607Y581422D01*
X190653Y581338D01*
X190681Y581246D01*
X190690Y581151D01*
Y573229D01*
X190681Y573134D01*
X190653Y573042D01*
X190607Y572957D01*
X190547Y572883D01*
X190473Y572822D01*
X190388Y572777D01*
X190296Y572749D01*
X190201Y572740D01*
X182279D01*
X182184Y572749D01*
X182092Y572777D01*
X182008Y572822D01*
X181933Y572883D01*
X181873Y572957D01*
X181827Y573042D01*
X181799Y573134D01*
X181790Y573229D01*
Y581151D01*
X181799Y581246D01*
X181827Y581338D01*
X181873Y581422D01*
X181933Y581497D01*
X182008Y581558D01*
X182092Y581603D01*
X182184Y581631D01*
X182279Y581640D01*
X190201D01*
X190296Y581631D01*
D02*
G37*
G36*
X179296D02*
X179388Y581603D01*
X179472Y581558D01*
X179547Y581497D01*
X179608Y581422D01*
X179653Y581338D01*
X179681Y581246D01*
X179690Y581151D01*
Y573229D01*
X179681Y573134D01*
X179653Y573042D01*
X179608Y572957D01*
X179547Y572883D01*
X179472Y572822D01*
X179388Y572777D01*
X179296Y572749D01*
X179200Y572740D01*
X171280D01*
X171184Y572749D01*
X171092Y572777D01*
X171007Y572822D01*
X170933Y572883D01*
X170872Y572957D01*
X170827Y573042D01*
X170799Y573134D01*
X170790Y573229D01*
Y581151D01*
X170799Y581246D01*
X170827Y581338D01*
X170872Y581422D01*
X170933Y581497D01*
X171007Y581558D01*
X171092Y581603D01*
X171184Y581631D01*
X171280Y581640D01*
X179200D01*
X179296Y581631D01*
D02*
G37*
G36*
X160296D02*
X160388Y581603D01*
X160473Y581558D01*
X160547Y581497D01*
X160607Y581422D01*
X160653Y581338D01*
X160681Y581246D01*
X160690Y581151D01*
Y573229D01*
X160681Y573134D01*
X160653Y573042D01*
X160607Y572957D01*
X160547Y572883D01*
X160473Y572822D01*
X160388Y572777D01*
X160296Y572749D01*
X160201Y572740D01*
X152280D01*
X152184Y572749D01*
X152092Y572777D01*
X152008Y572822D01*
X151933Y572883D01*
X151873Y572957D01*
X151827Y573042D01*
X151799Y573134D01*
X151790Y573229D01*
Y581151D01*
X151799Y581246D01*
X151827Y581338D01*
X151873Y581422D01*
X151933Y581497D01*
X152008Y581558D01*
X152092Y581603D01*
X152184Y581631D01*
X152280Y581640D01*
X160201D01*
X160296Y581631D01*
D02*
G37*
G36*
X149296D02*
X149388Y581603D01*
X149472Y581558D01*
X149547Y581497D01*
X149607Y581422D01*
X149653Y581338D01*
X149681Y581246D01*
X149690Y581151D01*
Y573229D01*
X149681Y573134D01*
X149653Y573042D01*
X149607Y572957D01*
X149547Y572883D01*
X149472Y572822D01*
X149388Y572777D01*
X149296Y572749D01*
X149200Y572740D01*
X141279D01*
X141184Y572749D01*
X141092Y572777D01*
X141007Y572822D01*
X140933Y572883D01*
X140872Y572957D01*
X140827Y573042D01*
X140799Y573134D01*
X140790Y573229D01*
Y581151D01*
X140799Y581246D01*
X140827Y581338D01*
X140872Y581422D01*
X140933Y581497D01*
X141007Y581558D01*
X141092Y581603D01*
X141184Y581631D01*
X141279Y581640D01*
X149200D01*
X149296Y581631D01*
D02*
G37*
G36*
X220296Y562631D02*
X220388Y562603D01*
X220473Y562557D01*
X220547Y562497D01*
X220607Y562422D01*
X220653Y562338D01*
X220681Y562246D01*
X220690Y562150D01*
Y554230D01*
X220681Y554134D01*
X220653Y554042D01*
X220607Y553958D01*
X220547Y553883D01*
X220473Y553823D01*
X220388Y553777D01*
X220296Y553749D01*
X220201Y553740D01*
X212279D01*
X212184Y553749D01*
X212092Y553777D01*
X212008Y553823D01*
X211933Y553883D01*
X211873Y553958D01*
X211827Y554042D01*
X211799Y554134D01*
X211790Y554230D01*
Y562150D01*
X211799Y562246D01*
X211827Y562338D01*
X211873Y562422D01*
X211933Y562497D01*
X212008Y562557D01*
X212092Y562603D01*
X212184Y562631D01*
X212279Y562640D01*
X220201D01*
X220296Y562631D01*
D02*
G37*
G36*
X209296D02*
X209388Y562603D01*
X209473Y562557D01*
X209547Y562497D01*
X209608Y562422D01*
X209653Y562338D01*
X209681Y562246D01*
X209690Y562150D01*
Y554230D01*
X209681Y554134D01*
X209653Y554042D01*
X209608Y553958D01*
X209547Y553883D01*
X209473Y553823D01*
X209388Y553777D01*
X209296Y553749D01*
X209200Y553740D01*
X201280D01*
X201184Y553749D01*
X201092Y553777D01*
X201007Y553823D01*
X200933Y553883D01*
X200872Y553958D01*
X200827Y554042D01*
X200799Y554134D01*
X200790Y554230D01*
Y562150D01*
X200799Y562246D01*
X200827Y562338D01*
X200872Y562422D01*
X200933Y562497D01*
X201007Y562557D01*
X201092Y562603D01*
X201184Y562631D01*
X201280Y562640D01*
X209200D01*
X209296Y562631D01*
D02*
G37*
G36*
X190296D02*
X190388Y562603D01*
X190473Y562557D01*
X190547Y562497D01*
X190607Y562422D01*
X190653Y562338D01*
X190681Y562246D01*
X190690Y562150D01*
Y554230D01*
X190681Y554134D01*
X190653Y554042D01*
X190607Y553958D01*
X190547Y553883D01*
X190473Y553823D01*
X190388Y553777D01*
X190296Y553749D01*
X190201Y553740D01*
X182279D01*
X182184Y553749D01*
X182092Y553777D01*
X182008Y553823D01*
X181933Y553883D01*
X181873Y553958D01*
X181827Y554042D01*
X181799Y554134D01*
X181790Y554230D01*
Y562150D01*
X181799Y562246D01*
X181827Y562338D01*
X181873Y562422D01*
X181933Y562497D01*
X182008Y562557D01*
X182092Y562603D01*
X182184Y562631D01*
X182279Y562640D01*
X190201D01*
X190296Y562631D01*
D02*
G37*
G36*
X179296D02*
X179388Y562603D01*
X179472Y562557D01*
X179547Y562497D01*
X179608Y562422D01*
X179653Y562338D01*
X179681Y562246D01*
X179690Y562150D01*
Y554230D01*
X179681Y554134D01*
X179653Y554042D01*
X179608Y553958D01*
X179547Y553883D01*
X179472Y553823D01*
X179388Y553777D01*
X179296Y553749D01*
X179200Y553740D01*
X171280D01*
X171184Y553749D01*
X171092Y553777D01*
X171007Y553823D01*
X170933Y553883D01*
X170872Y553958D01*
X170827Y554042D01*
X170799Y554134D01*
X170790Y554230D01*
Y562150D01*
X170799Y562246D01*
X170827Y562338D01*
X170872Y562422D01*
X170933Y562497D01*
X171007Y562557D01*
X171092Y562603D01*
X171184Y562631D01*
X171280Y562640D01*
X179200D01*
X179296Y562631D01*
D02*
G37*
G36*
X160296D02*
X160388Y562603D01*
X160473Y562557D01*
X160547Y562497D01*
X160607Y562422D01*
X160653Y562338D01*
X160681Y562246D01*
X160690Y562150D01*
Y554230D01*
X160681Y554134D01*
X160653Y554042D01*
X160607Y553958D01*
X160547Y553883D01*
X160473Y553823D01*
X160388Y553777D01*
X160296Y553749D01*
X160201Y553740D01*
X152280D01*
X152184Y553749D01*
X152092Y553777D01*
X152008Y553823D01*
X151933Y553883D01*
X151873Y553958D01*
X151827Y554042D01*
X151799Y554134D01*
X151790Y554230D01*
Y562150D01*
X151799Y562246D01*
X151827Y562338D01*
X151873Y562422D01*
X151933Y562497D01*
X152008Y562557D01*
X152092Y562603D01*
X152184Y562631D01*
X152280Y562640D01*
X160201D01*
X160296Y562631D01*
D02*
G37*
G36*
X149296D02*
X149388Y562603D01*
X149472Y562557D01*
X149547Y562497D01*
X149607Y562422D01*
X149653Y562338D01*
X149681Y562246D01*
X149690Y562150D01*
Y554230D01*
X149681Y554134D01*
X149653Y554042D01*
X149607Y553958D01*
X149547Y553883D01*
X149472Y553823D01*
X149388Y553777D01*
X149296Y553749D01*
X149200Y553740D01*
X141279D01*
X141184Y553749D01*
X141092Y553777D01*
X141007Y553823D01*
X140933Y553883D01*
X140872Y553958D01*
X140827Y554042D01*
X140799Y554134D01*
X140790Y554230D01*
Y562150D01*
X140799Y562246D01*
X140827Y562338D01*
X140872Y562422D01*
X140933Y562497D01*
X141007Y562557D01*
X141092Y562603D01*
X141184Y562631D01*
X141279Y562640D01*
X149200D01*
X149296Y562631D01*
D02*
G37*
G36*
X220296Y551631D02*
X220388Y551603D01*
X220473Y551558D01*
X220547Y551497D01*
X220607Y551422D01*
X220653Y551338D01*
X220681Y551246D01*
X220690Y551151D01*
Y543229D01*
X220681Y543134D01*
X220653Y543042D01*
X220607Y542957D01*
X220547Y542883D01*
X220473Y542822D01*
X220388Y542777D01*
X220296Y542749D01*
X220201Y542740D01*
X212279D01*
X212184Y542749D01*
X212092Y542777D01*
X212008Y542822D01*
X211933Y542883D01*
X211873Y542957D01*
X211827Y543042D01*
X211799Y543134D01*
X211790Y543229D01*
Y551151D01*
X211799Y551246D01*
X211827Y551338D01*
X211873Y551422D01*
X211933Y551497D01*
X212008Y551558D01*
X212092Y551603D01*
X212184Y551631D01*
X212279Y551640D01*
X220201D01*
X220296Y551631D01*
D02*
G37*
G36*
X209296D02*
X209388Y551603D01*
X209473Y551558D01*
X209547Y551497D01*
X209608Y551422D01*
X209653Y551338D01*
X209681Y551246D01*
X209690Y551151D01*
Y543229D01*
X209681Y543134D01*
X209653Y543042D01*
X209608Y542957D01*
X209547Y542883D01*
X209473Y542822D01*
X209388Y542777D01*
X209296Y542749D01*
X209200Y542740D01*
X201280D01*
X201184Y542749D01*
X201092Y542777D01*
X201007Y542822D01*
X200933Y542883D01*
X200872Y542957D01*
X200827Y543042D01*
X200799Y543134D01*
X200790Y543229D01*
Y551151D01*
X200799Y551246D01*
X200827Y551338D01*
X200872Y551422D01*
X200933Y551497D01*
X201007Y551558D01*
X201092Y551603D01*
X201184Y551631D01*
X201280Y551640D01*
X209200D01*
X209296Y551631D01*
D02*
G37*
G36*
X190296D02*
X190388Y551603D01*
X190473Y551558D01*
X190547Y551497D01*
X190607Y551422D01*
X190653Y551338D01*
X190681Y551246D01*
X190690Y551151D01*
Y543229D01*
X190681Y543134D01*
X190653Y543042D01*
X190607Y542957D01*
X190547Y542883D01*
X190473Y542822D01*
X190388Y542777D01*
X190296Y542749D01*
X190201Y542740D01*
X182279D01*
X182184Y542749D01*
X182092Y542777D01*
X182008Y542822D01*
X181933Y542883D01*
X181873Y542957D01*
X181827Y543042D01*
X181799Y543134D01*
X181790Y543229D01*
Y551151D01*
X181799Y551246D01*
X181827Y551338D01*
X181873Y551422D01*
X181933Y551497D01*
X182008Y551558D01*
X182092Y551603D01*
X182184Y551631D01*
X182279Y551640D01*
X190201D01*
X190296Y551631D01*
D02*
G37*
G36*
X179296D02*
X179388Y551603D01*
X179472Y551558D01*
X179547Y551497D01*
X179608Y551422D01*
X179653Y551338D01*
X179681Y551246D01*
X179690Y551151D01*
Y543229D01*
X179681Y543134D01*
X179653Y543042D01*
X179608Y542957D01*
X179547Y542883D01*
X179472Y542822D01*
X179388Y542777D01*
X179296Y542749D01*
X179200Y542740D01*
X171280D01*
X171184Y542749D01*
X171092Y542777D01*
X171007Y542822D01*
X170933Y542883D01*
X170872Y542957D01*
X170827Y543042D01*
X170799Y543134D01*
X170790Y543229D01*
Y551151D01*
X170799Y551246D01*
X170827Y551338D01*
X170872Y551422D01*
X170933Y551497D01*
X171007Y551558D01*
X171092Y551603D01*
X171184Y551631D01*
X171280Y551640D01*
X179200D01*
X179296Y551631D01*
D02*
G37*
G36*
X160296D02*
X160388Y551603D01*
X160473Y551558D01*
X160547Y551497D01*
X160607Y551422D01*
X160653Y551338D01*
X160681Y551246D01*
X160690Y551151D01*
Y543229D01*
X160681Y543134D01*
X160653Y543042D01*
X160607Y542957D01*
X160547Y542883D01*
X160473Y542822D01*
X160388Y542777D01*
X160296Y542749D01*
X160201Y542740D01*
X152280D01*
X152184Y542749D01*
X152092Y542777D01*
X152008Y542822D01*
X151933Y542883D01*
X151873Y542957D01*
X151827Y543042D01*
X151799Y543134D01*
X151790Y543229D01*
Y551151D01*
X151799Y551246D01*
X151827Y551338D01*
X151873Y551422D01*
X151933Y551497D01*
X152008Y551558D01*
X152092Y551603D01*
X152184Y551631D01*
X152280Y551640D01*
X160201D01*
X160296Y551631D01*
D02*
G37*
G36*
X149296D02*
X149388Y551603D01*
X149472Y551558D01*
X149547Y551497D01*
X149607Y551422D01*
X149653Y551338D01*
X149681Y551246D01*
X149690Y551151D01*
Y543229D01*
X149681Y543134D01*
X149653Y543042D01*
X149607Y542957D01*
X149547Y542883D01*
X149472Y542822D01*
X149388Y542777D01*
X149296Y542749D01*
X149200Y542740D01*
X141279D01*
X141184Y542749D01*
X141092Y542777D01*
X141007Y542822D01*
X140933Y542883D01*
X140872Y542957D01*
X140827Y543042D01*
X140799Y543134D01*
X140790Y543229D01*
Y551151D01*
X140799Y551246D01*
X140827Y551338D01*
X140872Y551422D01*
X140933Y551497D01*
X141007Y551558D01*
X141092Y551603D01*
X141184Y551631D01*
X141279Y551640D01*
X149200D01*
X149296Y551631D01*
D02*
G37*
G36*
X220296Y532631D02*
X220388Y532603D01*
X220473Y532557D01*
X220547Y532497D01*
X220607Y532422D01*
X220653Y532338D01*
X220681Y532246D01*
X220690Y532150D01*
Y524230D01*
X220681Y524134D01*
X220653Y524042D01*
X220607Y523958D01*
X220547Y523883D01*
X220473Y523823D01*
X220388Y523777D01*
X220296Y523749D01*
X220201Y523740D01*
X212279D01*
X212184Y523749D01*
X212092Y523777D01*
X212008Y523823D01*
X211933Y523883D01*
X211873Y523958D01*
X211827Y524042D01*
X211799Y524134D01*
X211790Y524230D01*
Y532150D01*
X211799Y532246D01*
X211827Y532338D01*
X211873Y532422D01*
X211933Y532497D01*
X212008Y532557D01*
X212092Y532603D01*
X212184Y532631D01*
X212279Y532640D01*
X220201D01*
X220296Y532631D01*
D02*
G37*
G36*
X209296D02*
X209388Y532603D01*
X209472Y532557D01*
X209547Y532497D01*
X209608Y532422D01*
X209653Y532338D01*
X209681Y532246D01*
X209690Y532150D01*
Y524230D01*
X209681Y524134D01*
X209653Y524042D01*
X209608Y523958D01*
X209547Y523883D01*
X209472Y523823D01*
X209388Y523777D01*
X209296Y523749D01*
X209200Y523740D01*
X201280D01*
X201184Y523749D01*
X201092Y523777D01*
X201007Y523823D01*
X200933Y523883D01*
X200872Y523958D01*
X200827Y524042D01*
X200799Y524134D01*
X200790Y524230D01*
Y532150D01*
X200799Y532246D01*
X200827Y532338D01*
X200872Y532422D01*
X200933Y532497D01*
X201007Y532557D01*
X201092Y532603D01*
X201184Y532631D01*
X201280Y532640D01*
X209200D01*
X209296Y532631D01*
D02*
G37*
G36*
X190296D02*
X190388Y532603D01*
X190473Y532557D01*
X190547Y532497D01*
X190607Y532422D01*
X190653Y532338D01*
X190681Y532246D01*
X190690Y532150D01*
Y524230D01*
X190681Y524134D01*
X190653Y524042D01*
X190607Y523958D01*
X190547Y523883D01*
X190473Y523823D01*
X190388Y523777D01*
X190296Y523749D01*
X190201Y523740D01*
X182279D01*
X182184Y523749D01*
X182092Y523777D01*
X182008Y523823D01*
X181933Y523883D01*
X181873Y523958D01*
X181827Y524042D01*
X181799Y524134D01*
X181790Y524230D01*
Y532150D01*
X181799Y532246D01*
X181827Y532338D01*
X181873Y532422D01*
X181933Y532497D01*
X182008Y532557D01*
X182092Y532603D01*
X182184Y532631D01*
X182279Y532640D01*
X190201D01*
X190296Y532631D01*
D02*
G37*
G36*
X179296D02*
X179388Y532603D01*
X179472Y532557D01*
X179547Y532497D01*
X179608Y532422D01*
X179653Y532338D01*
X179681Y532246D01*
X179690Y532150D01*
Y524230D01*
X179681Y524134D01*
X179653Y524042D01*
X179608Y523958D01*
X179547Y523883D01*
X179472Y523823D01*
X179388Y523777D01*
X179296Y523749D01*
X179200Y523740D01*
X171280D01*
X171184Y523749D01*
X171092Y523777D01*
X171007Y523823D01*
X170933Y523883D01*
X170872Y523958D01*
X170827Y524042D01*
X170799Y524134D01*
X170790Y524230D01*
Y532150D01*
X170799Y532246D01*
X170827Y532338D01*
X170872Y532422D01*
X170933Y532497D01*
X171007Y532557D01*
X171092Y532603D01*
X171184Y532631D01*
X171280Y532640D01*
X179200D01*
X179296Y532631D01*
D02*
G37*
G36*
X160296D02*
X160388Y532603D01*
X160473Y532557D01*
X160547Y532497D01*
X160607Y532422D01*
X160653Y532338D01*
X160681Y532246D01*
X160690Y532150D01*
Y524230D01*
X160681Y524134D01*
X160653Y524042D01*
X160607Y523958D01*
X160547Y523883D01*
X160473Y523823D01*
X160388Y523777D01*
X160296Y523749D01*
X160201Y523740D01*
X152280D01*
X152184Y523749D01*
X152092Y523777D01*
X152008Y523823D01*
X151933Y523883D01*
X151873Y523958D01*
X151827Y524042D01*
X151799Y524134D01*
X151790Y524230D01*
Y532150D01*
X151799Y532246D01*
X151827Y532338D01*
X151873Y532422D01*
X151933Y532497D01*
X152008Y532557D01*
X152092Y532603D01*
X152184Y532631D01*
X152280Y532640D01*
X160201D01*
X160296Y532631D01*
D02*
G37*
G36*
X149296D02*
X149388Y532603D01*
X149472Y532557D01*
X149547Y532497D01*
X149607Y532422D01*
X149653Y532338D01*
X149681Y532246D01*
X149690Y532150D01*
Y524230D01*
X149681Y524134D01*
X149653Y524042D01*
X149607Y523958D01*
X149547Y523883D01*
X149472Y523823D01*
X149388Y523777D01*
X149296Y523749D01*
X149200Y523740D01*
X141279D01*
X141184Y523749D01*
X141092Y523777D01*
X141007Y523823D01*
X140933Y523883D01*
X140872Y523958D01*
X140827Y524042D01*
X140799Y524134D01*
X140790Y524230D01*
Y532150D01*
X140799Y532246D01*
X140827Y532338D01*
X140872Y532422D01*
X140933Y532497D01*
X141007Y532557D01*
X141092Y532603D01*
X141184Y532631D01*
X141279Y532640D01*
X149200D01*
X149296Y532631D01*
D02*
G37*
G36*
X216240Y521190D02*
Y517690D01*
X215740Y517190D01*
X210240D01*
X209740Y516690D01*
Y513290D01*
X209240Y512790D01*
X201340D01*
X200840Y513290D01*
Y521190D01*
X201340Y521690D01*
X215740D01*
X216240Y521190D01*
D02*
G37*
G36*
X190296Y521631D02*
X190388Y521603D01*
X190473Y521558D01*
X190547Y521497D01*
X190607Y521422D01*
X190653Y521338D01*
X190681Y521246D01*
X190690Y521151D01*
Y513229D01*
X190681Y513134D01*
X190653Y513042D01*
X190607Y512957D01*
X190547Y512883D01*
X190473Y512822D01*
X190388Y512777D01*
X190296Y512749D01*
X190201Y512740D01*
X182279D01*
X182184Y512749D01*
X182092Y512777D01*
X182008Y512822D01*
X181933Y512883D01*
X181873Y512957D01*
X181827Y513042D01*
X181799Y513134D01*
X181790Y513229D01*
Y521151D01*
X181799Y521246D01*
X181827Y521338D01*
X181873Y521422D01*
X181933Y521497D01*
X182008Y521558D01*
X182092Y521603D01*
X182184Y521631D01*
X182279Y521640D01*
X190201D01*
X190296Y521631D01*
D02*
G37*
G36*
X179296D02*
X179388Y521603D01*
X179472Y521558D01*
X179547Y521497D01*
X179608Y521422D01*
X179653Y521338D01*
X179681Y521246D01*
X179690Y521151D01*
Y513229D01*
X179681Y513134D01*
X179653Y513042D01*
X179608Y512957D01*
X179547Y512883D01*
X179472Y512822D01*
X179388Y512777D01*
X179296Y512749D01*
X179200Y512740D01*
X171280D01*
X171184Y512749D01*
X171092Y512777D01*
X171007Y512822D01*
X170933Y512883D01*
X170872Y512957D01*
X170827Y513042D01*
X170799Y513134D01*
X170790Y513229D01*
Y521151D01*
X170799Y521246D01*
X170827Y521338D01*
X170872Y521422D01*
X170933Y521497D01*
X171007Y521558D01*
X171092Y521603D01*
X171184Y521631D01*
X171280Y521640D01*
X179200D01*
X179296Y521631D01*
D02*
G37*
G36*
X160296D02*
X160388Y521603D01*
X160473Y521558D01*
X160547Y521497D01*
X160607Y521422D01*
X160653Y521338D01*
X160681Y521246D01*
X160690Y521151D01*
Y513229D01*
X160681Y513134D01*
X160653Y513042D01*
X160607Y512957D01*
X160547Y512883D01*
X160473Y512822D01*
X160388Y512777D01*
X160296Y512749D01*
X160201Y512740D01*
X152280D01*
X152184Y512749D01*
X152092Y512777D01*
X152008Y512822D01*
X151933Y512883D01*
X151873Y512957D01*
X151827Y513042D01*
X151799Y513134D01*
X151790Y513229D01*
Y521151D01*
X151799Y521246D01*
X151827Y521338D01*
X151873Y521422D01*
X151933Y521497D01*
X152008Y521558D01*
X152092Y521603D01*
X152184Y521631D01*
X152280Y521640D01*
X160201D01*
X160296Y521631D01*
D02*
G37*
G36*
X149296D02*
X149388Y521603D01*
X149472Y521558D01*
X149547Y521497D01*
X149607Y521422D01*
X149653Y521338D01*
X149681Y521246D01*
X149690Y521151D01*
Y513229D01*
X149681Y513134D01*
X149653Y513042D01*
X149607Y512957D01*
X149547Y512883D01*
X149472Y512822D01*
X149388Y512777D01*
X149296Y512749D01*
X149200Y512740D01*
X141279D01*
X141184Y512749D01*
X141092Y512777D01*
X141007Y512822D01*
X140933Y512883D01*
X140872Y512957D01*
X140827Y513042D01*
X140799Y513134D01*
X140790Y513229D01*
Y521151D01*
X140799Y521246D01*
X140827Y521338D01*
X140872Y521422D01*
X140933Y521497D01*
X141007Y521558D01*
X141092Y521603D01*
X141184Y521631D01*
X141279Y521640D01*
X149200D01*
X149296Y521631D01*
D02*
G37*
D15*
X563880Y897890D02*
D03*
X581880D02*
D03*
X544610Y920750D02*
D03*
X562610D02*
D03*
X538370Y848360D02*
D03*
X556370D02*
D03*
X222470Y764540D02*
D03*
X204470D02*
D03*
X222470Y828040D02*
D03*
X204470D02*
D03*
X222250Y891540D02*
D03*
X204250D02*
D03*
D16*
X246240Y472450D02*
D03*
Y485140D02*
D03*
Y497840D02*
D03*
Y510540D02*
D03*
Y523240D02*
D03*
Y535940D02*
D03*
Y548640D02*
D03*
Y561340D02*
D03*
Y574040D02*
D03*
Y586740D02*
D03*
Y599440D02*
D03*
Y612140D02*
D03*
Y624840D02*
D03*
Y637540D02*
D03*
Y650240D02*
D03*
Y662930D02*
D03*
X85240D02*
D03*
Y650240D02*
D03*
Y637540D02*
D03*
Y624840D02*
D03*
Y612140D02*
D03*
Y599440D02*
D03*
Y586740D02*
D03*
Y574040D02*
D03*
Y561340D02*
D03*
Y548640D02*
D03*
Y535940D02*
D03*
Y523240D02*
D03*
Y510540D02*
D03*
Y497840D02*
D03*
Y485140D02*
D03*
Y472450D02*
D03*
D17*
X229240Y662930D02*
D03*
X216540D02*
D03*
X203840D02*
D03*
X191140D02*
D03*
X178440D02*
D03*
X165740D02*
D03*
X153040D02*
D03*
X140340D02*
D03*
X127640D02*
D03*
X114940D02*
D03*
X102240D02*
D03*
Y472450D02*
D03*
X114940D02*
D03*
X127640D02*
D03*
X140340D02*
D03*
X153040D02*
D03*
X165740D02*
D03*
X178440D02*
D03*
X191140D02*
D03*
X203840D02*
D03*
X216540D02*
D03*
X229240D02*
D03*
D18*
X210740Y522690D02*
D03*
Y552690D02*
D03*
Y582690D02*
D03*
X180740Y522690D02*
D03*
Y552690D02*
D03*
Y582690D02*
D03*
X150740Y522690D02*
D03*
Y552690D02*
D03*
Y582690D02*
D03*
D19*
X219710Y326450D02*
D03*
Y285750D02*
D03*
X207010Y326450D02*
D03*
X194310D02*
D03*
Y285750D02*
D03*
X181610Y326450D02*
D03*
Y285750D02*
D03*
X168910Y326450D02*
D03*
Y285750D02*
D03*
D20*
X228600Y708660D02*
D03*
Y690660D02*
D03*
X205740Y708880D02*
D03*
Y690880D02*
D03*
X111760Y249140D02*
D03*
Y231140D02*
D03*
X135890Y204690D02*
D03*
Y186690D02*
D03*
X87630Y293590D02*
D03*
Y275590D02*
D03*
X510540Y901700D02*
D03*
Y883700D02*
D03*
X485140Y901700D02*
D03*
Y883700D02*
D03*
X252730Y249140D02*
D03*
Y231140D02*
D03*
Y186470D02*
D03*
Y204470D02*
D03*
X303530Y928370D02*
D03*
Y910370D02*
D03*
D21*
X588010Y529590D02*
D03*
Y544590D02*
D03*
X553720Y529470D02*
D03*
Y544470D02*
D03*
X114300Y692270D02*
D03*
Y707270D02*
D03*
X91440Y692150D02*
D03*
Y707150D02*
D03*
D22*
X539870Y868680D02*
D03*
X554870D02*
D03*
X455810Y861060D02*
D03*
X440810D02*
D03*
X455690Y840740D02*
D03*
X440690D02*
D03*
X539750Y828040D02*
D03*
X554750D02*
D03*
X455930Y806450D02*
D03*
X440930D02*
D03*
X539750D02*
D03*
X554750D02*
D03*
X248920Y326390D02*
D03*
X263920D02*
D03*
D23*
X483490Y826950D02*
D03*
Y831450D02*
D03*
Y835950D02*
D03*
Y840450D02*
D03*
Y844950D02*
D03*
Y849450D02*
D03*
X512190D02*
D03*
Y844950D02*
D03*
Y840450D02*
D03*
Y835950D02*
D03*
Y831450D02*
D03*
Y826950D02*
D03*
D24*
X485590Y1001130D02*
D03*
X509590D02*
D03*
D25*
X465590Y976630D02*
D03*
X529590D02*
D03*
D26*
X484590Y974380D02*
D03*
X491090D02*
D03*
X497590D02*
D03*
X504090D02*
D03*
X510590D02*
D03*
M02*
