G04*
G04 #@! TF.GenerationSoftware,Altium Limited,Altium Designer,23.2.1 (34)*
G04*
G04 Layer_Color=32768*
%FSLAX44Y44*%
%MOMM*%
G71*
G04*
G04 #@! TF.SameCoordinates,B8F3427F-0302-4C4C-BDD2-04FEC27F4463*
G04*
G04*
G04 #@! TF.FilePolarity,Positive*
G04*
G01*
G75*
%ADD11C,0.1524*%
%ADD15C,0.1270*%
%ADD98C,0.0500*%
%ADD100C,0.1000*%
G36*
X10300Y609614D02*
Y655306D01*
X32880D01*
Y609614D01*
X10300D01*
D02*
G37*
G36*
X611830Y663282D02*
Y657782D01*
X610330D01*
D01*
X594750D01*
D01*
X593250D01*
Y663282D01*
D01*
Y678862D01*
D01*
Y684362D01*
X594750D01*
X597460D01*
X610330D01*
D01*
X611830D01*
Y678862D01*
D01*
Y663282D01*
D01*
D02*
G37*
G36*
X807974Y744899D02*
Y751586D01*
X814660D01*
Y754634D01*
X897299D01*
Y751586D01*
X903986D01*
Y744899D01*
X907034D01*
Y662261D01*
X903986D01*
Y655574D01*
X897299D01*
Y652526D01*
X814660D01*
Y655574D01*
X807974D01*
Y662261D01*
X804926D01*
Y744899D01*
X807974D01*
D02*
G37*
D11*
X10300Y655306D02*
X32880D01*
Y609614D02*
Y655306D01*
X10300Y609614D02*
X32880D01*
X10300D02*
Y655306D01*
X807974Y744899D02*
Y751586D01*
X804926Y744899D02*
X807974D01*
X804926Y662261D02*
Y744899D01*
Y662261D02*
X807974D01*
Y655574D02*
Y662261D01*
Y655574D02*
X814660D01*
Y652526D02*
Y655574D01*
Y652526D02*
X897299D01*
Y655574D01*
X903986D01*
Y662261D01*
X907034D01*
Y744899D01*
X903986D02*
X907034D01*
X903986D02*
Y751586D01*
X897299D02*
X903986D01*
X897299D02*
Y754634D01*
X814660D02*
X897299D01*
X814660Y751586D02*
Y754634D01*
X807974Y751586D02*
X814660D01*
X610330Y657782D02*
X611830D01*
X594750D02*
X610330D01*
X593250D02*
X594750D01*
X593250D02*
Y663282D01*
Y678862D01*
Y684362D01*
X594750D01*
X610330D01*
X611830D01*
Y678862D02*
Y684362D01*
Y663282D02*
Y678862D01*
Y657782D02*
Y663282D01*
D15*
X621140Y1349770D02*
X805940D01*
X621140D02*
Y1521750D01*
X805940D01*
Y1349770D02*
Y1521750D01*
X568850Y1349770D02*
Y1521750D01*
X384050D02*
X568850D01*
X384050Y1349770D02*
Y1521750D01*
Y1349770D02*
X568850D01*
D98*
X789670Y902730D02*
X863870D01*
Y847330D02*
Y902730D01*
X789670Y847330D02*
X863870D01*
X789670D02*
Y902730D01*
X950200Y659623D02*
Y697623D01*
Y659623D02*
X971200D01*
Y697623D01*
X950200D02*
X971200D01*
X715270Y764330D02*
X774270D01*
X715270Y728330D02*
X774270D01*
X715270D02*
Y764330D01*
X774270Y728330D02*
Y764330D01*
X212630Y1319810D02*
Y1354810D01*
X254730Y1319810D02*
Y1354810D01*
X212630D02*
X254730D01*
X212630Y1319810D02*
X254730D01*
X1426250Y1150680D02*
X1494750D01*
Y1224280D01*
X1426250D02*
X1494750D01*
X1426250Y1150680D02*
Y1224280D01*
X1537790Y1471250D02*
X1655790D01*
X1537790D02*
Y1513250D01*
X1655790D01*
Y1471250D02*
Y1513250D01*
X188510Y1472760D02*
X274910D01*
X188510D02*
Y1539420D01*
X274910D01*
Y1472760D02*
Y1539420D01*
D100*
X696680Y759780D02*
X712680D01*
X696680Y731780D02*
X712680D01*
Y759780D01*
X696680Y731780D02*
Y759780D01*
X704680Y740780D02*
Y750780D01*
X699680Y745780D02*
X709680D01*
X758190Y693500D02*
Y703500D01*
X753190Y698500D02*
X763190D01*
X744190Y690500D02*
X772190D01*
X744190Y706500D02*
X772190D01*
Y690500D02*
Y706500D01*
X744190Y690500D02*
Y706500D01*
X731320Y767110D02*
Y783110D01*
X759320Y767110D02*
Y783110D01*
X731320D02*
X759320D01*
X731320Y767110D02*
X759320D01*
X740320Y775110D02*
X750320D01*
X745320Y770110D02*
Y780110D01*
X975440Y597280D02*
X985440D01*
X980440Y592280D02*
Y602280D01*
X988440Y582280D02*
Y612280D01*
X972440Y582280D02*
Y612280D01*
X988440D01*
X972440Y582280D02*
X988440D01*
X840360Y794930D02*
X856360D01*
X840360Y766930D02*
X856360D01*
Y794930D01*
X840360Y766930D02*
Y794930D01*
X848360Y775930D02*
Y785930D01*
X843360Y780930D02*
X853360D01*
X909400Y800990D02*
X919400D01*
X914400Y795990D02*
Y805990D01*
X906400Y785990D02*
Y815990D01*
X922400Y785990D02*
Y815990D01*
X906400Y785990D02*
X922400D01*
X906400Y815990D02*
X922400D01*
X888620Y830730D02*
X904620D01*
X888620Y802730D02*
X904620D01*
Y830730D01*
X888620Y802730D02*
Y830730D01*
X896620Y811730D02*
Y821730D01*
X891620Y816730D02*
X901620D01*
X870840Y830490D02*
X886840D01*
X870840Y802490D02*
X886840D01*
Y830490D01*
X870840Y802490D02*
Y830490D01*
X878840Y811490D02*
Y821490D01*
X873840Y816490D02*
X883840D01*
X958880Y714630D02*
Y730630D01*
X930880Y714630D02*
Y730630D01*
Y714630D02*
X958880D01*
X930880Y730630D02*
X958880D01*
X939880Y722630D02*
X949880D01*
X944880Y717630D02*
Y727630D01*
X901610Y886080D02*
Y902080D01*
X873610Y886080D02*
Y902080D01*
Y886080D02*
X901610D01*
X873610Y902080D02*
X901610D01*
X882610Y894080D02*
X892610D01*
X887610Y889080D02*
Y899080D01*
X826660Y928450D02*
Y938450D01*
X821660Y933450D02*
X831660D01*
X809160Y923950D02*
X844160D01*
X809160Y942950D02*
X844160D01*
Y923950D02*
Y942950D01*
X809160Y923950D02*
Y942950D01*
X823850Y582900D02*
X839850D01*
X823850Y610900D02*
X839850D01*
X823850Y582900D02*
Y610900D01*
X839850Y582900D02*
Y610900D01*
X831850Y591900D02*
Y601900D01*
X826850Y596900D02*
X836850D01*
X806070Y583020D02*
X822070D01*
X806070Y611020D02*
X822070D01*
X806070Y583020D02*
Y611020D01*
X822070Y583020D02*
Y611020D01*
X814070Y592020D02*
Y602020D01*
X809070Y597020D02*
X819070D01*
X788290Y583020D02*
X804290D01*
X788290Y611020D02*
X804290D01*
X788290Y583020D02*
Y611020D01*
X804290Y583020D02*
Y611020D01*
X796290Y592020D02*
Y602020D01*
X791290Y597020D02*
X801290D01*
X887350Y613380D02*
X903350D01*
X887350Y641380D02*
X903350D01*
X887350Y613380D02*
Y641380D01*
X903350Y613380D02*
Y641380D01*
X895350Y622380D02*
Y632380D01*
X890350Y627380D02*
X900350D01*
X919560Y1266190D02*
X929560D01*
X924560Y1261190D02*
Y1271190D01*
X1001940Y684150D02*
Y700150D01*
X973940Y684150D02*
Y700150D01*
Y684150D02*
X1001940D01*
X973940Y700150D02*
X1001940D01*
X982940Y692150D02*
X992940D01*
X987940Y687150D02*
Y697150D01*
X1001940Y657480D02*
Y673480D01*
X973940Y657480D02*
Y673480D01*
Y657480D02*
X1001940D01*
X973940Y673480D02*
X1001940D01*
X982940Y665480D02*
X992940D01*
X987940Y660480D02*
Y670480D01*
X955701Y678623D02*
X965700D01*
X960700Y673623D02*
Y683623D01*
X744770Y741330D02*
Y751330D01*
X739770Y746330D02*
X749770D01*
X707360Y703200D02*
Y719200D01*
X735360Y703200D02*
Y719200D01*
X707360D02*
X735360D01*
X707360Y703200D02*
X735360D01*
X716360Y711200D02*
X726360D01*
X721360Y706200D02*
Y716200D01*
X856004Y615873D02*
Y625873D01*
X851004Y620873D02*
X861004D01*
X841004Y612873D02*
X871004D01*
X841004Y628873D02*
X871004D01*
Y612873D02*
Y628873D01*
X841004Y612873D02*
Y628873D01*
X1628800Y1072050D02*
X1647800D01*
X1628800Y1107050D02*
X1647800D01*
X1628800Y1072050D02*
Y1107050D01*
X1647800Y1072050D02*
Y1107050D01*
X1638300Y1084550D02*
Y1094550D01*
X1633300Y1089550D02*
X1643300D01*
X1603400Y1072050D02*
X1622400D01*
X1603400Y1107050D02*
X1622400D01*
X1603400Y1072050D02*
Y1107050D01*
X1622400Y1072050D02*
Y1107050D01*
X1612900Y1084550D02*
Y1094550D01*
X1607900Y1089550D02*
X1617900D01*
X1578000Y1072050D02*
X1597000D01*
X1578000Y1107050D02*
X1597000D01*
X1578000Y1072050D02*
Y1107050D01*
X1597000Y1072050D02*
Y1107050D01*
X1587500Y1084550D02*
Y1094550D01*
X1582500Y1089550D02*
X1592500D01*
X1438300Y1302740D02*
X1457300D01*
X1438300Y1267740D02*
X1457300D01*
Y1302740D01*
X1438300Y1267740D02*
Y1302740D01*
X1447800Y1280240D02*
Y1290240D01*
X1442800Y1285240D02*
X1452800D01*
X934800Y698380D02*
X944800D01*
X939800Y693380D02*
Y703380D01*
X931800Y684380D02*
Y712380D01*
X947800Y684380D02*
Y712380D01*
X931800Y684380D02*
X947800D01*
X931800Y712380D02*
X947800D01*
X668140Y1271350D02*
Y1281350D01*
X663140Y1276350D02*
X673140D01*
X654140Y1268350D02*
X682140D01*
X654140Y1284350D02*
X682140D01*
Y1268350D02*
Y1284350D01*
X654140Y1268350D02*
Y1284350D01*
X668140Y1291670D02*
Y1301670D01*
X663140Y1296670D02*
X673140D01*
X654140Y1288670D02*
X682140D01*
X654140Y1304670D02*
X682140D01*
Y1288670D02*
Y1304670D01*
X654140Y1288670D02*
Y1304670D01*
X197510Y1370500D02*
X216510D01*
X197510Y1405500D02*
X216510D01*
X197510Y1370500D02*
Y1405500D01*
X216510Y1370500D02*
Y1405500D01*
X207010Y1383000D02*
Y1393000D01*
X202010Y1388000D02*
X212010D01*
X185300Y1320880D02*
Y1330880D01*
X180300Y1325880D02*
X190300D01*
X171300Y1317880D02*
X199300D01*
X171300Y1333880D02*
X199300D01*
Y1317880D02*
Y1333880D01*
X171300Y1317880D02*
Y1333880D01*
X217830Y1370500D02*
X236830D01*
X217830Y1405500D02*
X236830D01*
X217830Y1370500D02*
Y1405500D01*
X236830Y1370500D02*
Y1405500D01*
X227330Y1383000D02*
Y1393000D01*
X222330Y1388000D02*
X232330D01*
X1425600Y1107050D02*
X1444600D01*
X1425600Y1072050D02*
X1444600D01*
Y1107050D01*
X1425600Y1072050D02*
Y1107050D01*
X1435100Y1084550D02*
Y1094550D01*
X1430100Y1089550D02*
X1440100D01*
X1586890Y1442330D02*
X1605890D01*
X1586890Y1407330D02*
X1605890D01*
Y1442330D01*
X1586890Y1407330D02*
Y1442330D01*
X1596390Y1419830D02*
Y1429830D01*
X1591390Y1424830D02*
X1601390D01*
X1596790Y1487250D02*
Y1497250D01*
X1591790Y1492250D02*
X1601790D01*
X786250Y636350D02*
Y646350D01*
X781250Y641350D02*
X791250D01*
X772250Y633350D02*
X800250D01*
X772250Y649350D02*
X800250D01*
Y633350D02*
Y649350D01*
X772250Y633350D02*
Y649350D01*
X1505610Y1393360D02*
X1524610D01*
X1505610Y1428360D02*
X1524610D01*
X1505610Y1393360D02*
Y1428360D01*
X1524610Y1393360D02*
Y1428360D01*
X1515110Y1405860D02*
Y1415860D01*
X1510110Y1410860D02*
X1520110D01*
X1429410Y1393360D02*
X1448410D01*
X1429410Y1428360D02*
X1448410D01*
X1429410Y1393360D02*
Y1428360D01*
X1448410Y1393360D02*
Y1428360D01*
X1438910Y1405860D02*
Y1415860D01*
X1433910Y1410860D02*
X1443910D01*
X1353210Y1393360D02*
X1372210D01*
X1353210Y1428360D02*
X1372210D01*
X1353210Y1393360D02*
Y1428360D01*
X1372210Y1393360D02*
Y1428360D01*
X1362710Y1405860D02*
Y1415860D01*
X1357710Y1410860D02*
X1367710D01*
X1096010Y1261190D02*
Y1271190D01*
X1091010Y1266190D02*
X1101010D01*
X925910Y597020D02*
X935910D01*
X930910Y592020D02*
Y602020D01*
X938910Y583020D02*
Y611020D01*
X922910Y583020D02*
Y611020D01*
X938910D01*
X922910Y583020D02*
X938910D01*
X908130Y597020D02*
X918130D01*
X913130Y592020D02*
Y602020D01*
X921130Y583020D02*
Y611020D01*
X905130Y583020D02*
Y611020D01*
X921130D01*
X905130Y583020D02*
X921130D01*
X773510Y597020D02*
X783510D01*
X778510Y592020D02*
Y602020D01*
X786510Y583020D02*
Y611020D01*
X770510Y583020D02*
Y611020D01*
X786510D01*
X770510Y583020D02*
X786510D01*
X946201Y615178D02*
X953272Y622249D01*
X946201D02*
X953272Y615178D01*
X945494Y634270D02*
X965293Y614471D01*
X934180Y622956D02*
X953979Y603157D01*
X934180Y622956D02*
X945494Y634270D01*
X953979Y603157D02*
X965293Y614471D01*
X872570Y597020D02*
X882570D01*
X877570Y592020D02*
Y602020D01*
X885570Y583020D02*
Y611020D01*
X869570Y583020D02*
Y611020D01*
X885570D01*
X869570Y583020D02*
X885570D01*
X890350Y597020D02*
X900350D01*
X895350Y592020D02*
Y602020D01*
X903350Y583020D02*
Y611020D01*
X887350Y583020D02*
Y611020D01*
X903350D01*
X887350Y583020D02*
X903350D01*
X755730Y597260D02*
X765730D01*
X760730Y592260D02*
Y602260D01*
X768730Y583260D02*
Y611260D01*
X752730Y583260D02*
Y611260D01*
X768730D01*
X752730Y583260D02*
X768730D01*
X193356Y663555D02*
X203356D01*
X198356Y658555D02*
Y668555D01*
X206356Y649555D02*
Y677555D01*
X190356Y649555D02*
Y677555D01*
X206356D01*
X190356Y649555D02*
X206356D01*
X219570Y663072D02*
Y679072D01*
X249570Y663072D02*
Y679072D01*
X219570D02*
X249570D01*
X219570Y663072D02*
X249570D01*
X229570Y671072D02*
X239570D01*
X234570Y666072D02*
Y676072D01*
X1578000Y1267850D02*
X1597000D01*
X1578000Y1302850D02*
X1597000D01*
X1578000Y1267850D02*
Y1302850D01*
X1597000Y1267850D02*
Y1302850D01*
X1587500Y1280350D02*
Y1290350D01*
X1582500Y1285350D02*
X1592500D01*
X320700Y1447630D02*
X339700D01*
X320700Y1412630D02*
X339700D01*
Y1447630D01*
X320700Y1412630D02*
Y1447630D01*
X330200Y1425130D02*
Y1435130D01*
X325200Y1430130D02*
X335200D01*
X313810Y1380570D02*
Y1390570D01*
X308810Y1385570D02*
X318810D01*
X299810Y1393570D02*
X327810D01*
X299810Y1377570D02*
X327810D01*
X299810D02*
Y1393570D01*
X327810Y1377570D02*
Y1393570D01*
X313690Y1345010D02*
Y1355010D01*
X308690Y1350010D02*
X318690D01*
X299690Y1358010D02*
X327690D01*
X299690Y1342010D02*
X327690D01*
X299690D02*
Y1358010D01*
X327690Y1342010D02*
Y1358010D01*
X313810Y1362790D02*
Y1372790D01*
X308810Y1367790D02*
X318810D01*
X299810Y1375790D02*
X327810D01*
X299810Y1359790D02*
X327810D01*
X299810D02*
Y1375790D01*
X327810Y1359790D02*
Y1375790D01*
X279570Y1322730D02*
Y1341730D01*
X314570Y1322730D02*
Y1341730D01*
X279570D02*
X314570D01*
X279570Y1322730D02*
X314570D01*
X292070Y1332230D02*
X302070D01*
X297070Y1327230D02*
Y1337230D01*
X296030Y1308180D02*
Y1318180D01*
X291030Y1313180D02*
X301030D01*
X282030Y1321180D02*
X310030D01*
X282030Y1305180D02*
X310030D01*
X282030D02*
Y1321180D01*
X310030Y1305180D02*
Y1321180D01*
X296030Y1290400D02*
Y1300400D01*
X291030Y1295400D02*
X301030D01*
X282030Y1303400D02*
X310030D01*
X282030Y1287400D02*
X310030D01*
X282030D02*
Y1303400D01*
X310030Y1287400D02*
Y1303400D01*
X179730Y1448680D02*
X198730D01*
X179730Y1413680D02*
X198730D01*
Y1448680D01*
X179730Y1413680D02*
Y1448680D01*
X189230Y1426180D02*
Y1436180D01*
X184230Y1431180D02*
X194230D01*
X293200Y1437030D02*
Y1456030D01*
X258200Y1437030D02*
Y1456030D01*
Y1437030D02*
X293200D01*
X258200Y1456030D02*
X293200D01*
X270700Y1446530D02*
X280700D01*
X275700Y1441530D02*
Y1451530D01*
X268960Y1416710D02*
Y1435710D01*
X233960Y1416710D02*
Y1435710D01*
Y1416710D02*
X268960D01*
X233960Y1435710D02*
X268960D01*
X246460Y1426210D02*
X256460D01*
X251460Y1421210D02*
Y1431210D01*
M02*
