G04*
G04 #@! TF.GenerationSoftware,Altium Limited,Altium Designer,23.2.1 (34)*
G04*
G04 Layer_Physical_Order=1*
G04 Layer_Color=255*
%FSLAX44Y44*%
%MOMM*%
G71*
G04*
G04 #@! TF.SameCoordinates,B8F3427F-0302-4C4C-BDD2-04FEC27F4463*
G04*
G04*
G04 #@! TF.FilePolarity,Positive*
G04*
G01*
G75*
%ADD10C,0.7620*%
%ADD11C,0.1524*%
%ADD16C,0.2540*%
%ADD18C,1.5240*%
%ADD19R,1.2000X0.9556*%
%ADD20R,1.4000X1.1000*%
%ADD21R,1.1000X1.4000*%
%ADD22R,0.2540X0.8128*%
%ADD24R,0.8128X0.2540*%
%ADD25R,1.0500X0.5000*%
%ADD26R,0.3500X0.3500*%
%ADD27R,1.4000X1.2000*%
%ADD28R,1.6500X0.6100*%
%ADD29R,1.2000X1.4000*%
%ADD30R,1.9000X1.1000*%
%ADD31R,2.0000X1.2000*%
G04:AMPARAMS|DCode=32|XSize=0.84mm|YSize=0.25mm|CornerRadius=0.0313mm|HoleSize=0mm|Usage=FLASHONLY|Rotation=180.000|XOffset=0mm|YOffset=0mm|HoleType=Round|Shape=RoundedRectangle|*
%AMROUNDEDRECTD32*
21,1,0.8400,0.1875,0,0,180.0*
21,1,0.7775,0.2500,0,0,180.0*
1,1,0.0625,-0.3888,0.0938*
1,1,0.0625,0.3888,0.0938*
1,1,0.0625,0.3888,-0.0938*
1,1,0.0625,-0.3888,-0.0938*
%
%ADD32ROUNDEDRECTD32*%
%ADD33R,0.7400X2.7900*%
G04:AMPARAMS|DCode=34|XSize=1.4mm|YSize=1.1mm|CornerRadius=0mm|HoleSize=0mm|Usage=FLASHONLY|Rotation=225.000|XOffset=0mm|YOffset=0mm|HoleType=Round|Shape=Rectangle|*
%AMROTATEDRECTD34*
4,1,4,0.1061,0.8839,0.8839,0.1061,-0.1061,-0.8839,-0.8839,-0.1061,0.1061,0.8839,0.0*
%
%ADD34ROTATEDRECTD34*%

%ADD35R,1.9000X1.9000*%
%ADD36R,1.6000X1.4000*%
%ADD37R,0.4000X1.3500*%
%ADD41R,6.4008X6.4008*%
%ADD63C,1.7000*%
%ADD65C,1.6000*%
%ADD72R,1.6000X2.5000*%
%ADD73C,0.3190*%
%ADD74C,0.2032*%
%ADD75C,0.8890*%
%ADD76C,0.6350*%
%ADD77C,0.3048*%
%ADD78C,0.5080*%
%ADD79R,1.2700X1.2700*%
%ADD80R,2.5400X2.5400*%
%ADD81C,2.5400*%
%ADD82R,1.7000X1.7000*%
%ADD83R,1.6000X1.6000*%
%ADD84C,1.6000*%
%ADD85C,2.0320*%
%ADD86R,2.0320X2.0320*%
%ADD87R,1.5000X1.5000*%
%ADD88C,1.5000*%
%ADD89C,1.6500*%
%ADD90O,0.9000X1.8000*%
%ADD91C,5.0800*%
%ADD92C,0.5080*%
%ADD93C,1.0160*%
%ADD94C,0.7620*%
G36*
X256163Y1466643D02*
X257424Y1465801D01*
X258910Y1465505D01*
X297331D01*
X309348Y1453488D01*
X309348Y1453488D01*
X320660Y1442176D01*
Y1430940D01*
X320660Y1430590D01*
Y1429670D01*
X320660Y1429320D01*
Y1412590D01*
X333246D01*
X352985Y1392851D01*
Y1312249D01*
X329719Y1288983D01*
X311570D01*
Y1294130D01*
X303530D01*
Y1296670D01*
X311570D01*
Y1303640D01*
Y1311910D01*
X303530D01*
Y1314450D01*
X311570D01*
Y1322690D01*
X314610D01*
Y1340470D01*
X319920D01*
Y1350010D01*
X321190D01*
Y1351280D01*
X329230D01*
Y1358250D01*
X329350D01*
Y1366520D01*
X321310D01*
Y1369060D01*
X329350D01*
Y1376030D01*
Y1384300D01*
X321310D01*
Y1385570D01*
X320040D01*
Y1395110D01*
X312764D01*
X312311Y1396380D01*
X313171Y1397869D01*
X313690Y1399807D01*
Y1401813D01*
X313171Y1403751D01*
X312167Y1405489D01*
X310749Y1406908D01*
X309011Y1407911D01*
X307073Y1408430D01*
X305067D01*
X303129Y1407911D01*
X301391Y1406908D01*
X299972Y1405489D01*
X298969Y1403751D01*
X298450Y1401813D01*
Y1399807D01*
X298969Y1397869D01*
X299829Y1396380D01*
X299376Y1395110D01*
X298270D01*
Y1376030D01*
Y1359550D01*
X298150D01*
Y1354154D01*
X274320D01*
X272734Y1353838D01*
X271390Y1352940D01*
X261636Y1343186D01*
X255897D01*
X255512Y1343723D01*
X256068Y1345129D01*
X256478Y1345210D01*
X257654Y1345996D01*
X265454Y1353796D01*
X265454Y1353796D01*
X266240Y1354973D01*
X266516Y1356360D01*
X266516Y1356360D01*
Y1357598D01*
X266775Y1358900D01*
Y1416670D01*
X269000D01*
Y1430256D01*
X269447Y1430703D01*
X270289Y1431963D01*
X270585Y1433450D01*
Y1436990D01*
X274890D01*
X275240Y1436990D01*
X276160D01*
X276510Y1436990D01*
X283430D01*
Y1446530D01*
Y1456070D01*
X276510D01*
X276160Y1456070D01*
X275240D01*
X274890Y1456070D01*
X258160D01*
Y1436990D01*
X258160D01*
X258088Y1435750D01*
X252270D01*
X251920Y1435750D01*
X251000D01*
X250650Y1435750D01*
X248595D01*
Y1466850D01*
X255957D01*
X256163Y1466643D01*
D02*
G37*
G36*
X1775961Y2039D02*
X10160D01*
Y618490D01*
X15240D01*
Y621665D01*
X27940D01*
Y618490D01*
X59690D01*
Y666839D01*
X188816D01*
Y663015D01*
X207896D01*
Y666856D01*
X218030D01*
Y661532D01*
X251110D01*
Y666856D01*
X595000D01*
Y666782D01*
X610080D01*
Y666856D01*
X804926D01*
Y662261D01*
X805871D01*
X806397Y660991D01*
X796296Y650890D01*
X780020D01*
Y641350D01*
X778750D01*
Y640080D01*
X770710D01*
Y632246D01*
X770673Y632239D01*
X769413Y631397D01*
X763713Y625697D01*
X762871Y624437D01*
X762575Y622950D01*
Y612800D01*
X751190D01*
Y596720D01*
Y591030D01*
X760730D01*
Y589760D01*
X762000D01*
Y581720D01*
X768970D01*
Y581480D01*
X777240D01*
Y589520D01*
X779780D01*
Y581480D01*
X795020D01*
Y589520D01*
X797560D01*
Y581480D01*
X812800D01*
Y589520D01*
X815340D01*
Y581480D01*
X822310D01*
Y581360D01*
X830580D01*
Y589400D01*
X831850D01*
Y590670D01*
X841390D01*
Y596360D01*
Y611333D01*
X868030D01*
Y596480D01*
Y590790D01*
X877570D01*
Y589520D01*
X878840D01*
Y581480D01*
X894080D01*
Y589520D01*
X896620D01*
Y581480D01*
X911860D01*
Y589520D01*
X914400D01*
Y581480D01*
X929640D01*
Y589520D01*
X930910D01*
Y590790D01*
X940450D01*
Y596480D01*
Y612560D01*
X920175D01*
Y615453D01*
X920231Y615549D01*
X920750Y617487D01*
Y619493D01*
X920231Y621431D01*
X919228Y623169D01*
X917809Y624588D01*
X916071Y625591D01*
X914133Y626110D01*
X912127D01*
X910189Y625591D01*
X908451Y624588D01*
X907032Y623169D01*
X906160Y621658D01*
X905245Y621736D01*
X904890Y621874D01*
Y626840D01*
Y642920D01*
X897374D01*
Y659130D01*
X897299Y659505D01*
Y662261D01*
X902273D01*
X936790Y627743D01*
X932002Y622956D01*
X942609Y612349D01*
X947396Y607562D01*
X954142Y614308D01*
X960888Y621054D01*
X956864Y625077D01*
X945494Y636447D01*
X941551Y632505D01*
X932706Y641350D01*
X933232Y642620D01*
X934461D01*
X936328Y643393D01*
X937757Y644822D01*
X938530Y646690D01*
Y648710D01*
X937757Y650578D01*
X936328Y652007D01*
X934461Y652780D01*
X932439D01*
X930572Y652007D01*
X929143Y650578D01*
X928370Y648710D01*
Y647482D01*
X927100Y646956D01*
X915845Y658211D01*
X916331Y659384D01*
X916681D01*
X918548Y660157D01*
X919977Y661586D01*
X920750Y663454D01*
Y665474D01*
X919977Y667342D01*
X918548Y668771D01*
X916681Y669544D01*
X915351D01*
X912894Y672002D01*
X913380Y673175D01*
X932572D01*
X932821Y673224D01*
X948661D01*
Y658083D01*
X972400D01*
Y655940D01*
X994170D01*
Y665480D01*
Y675020D01*
X972400D01*
Y674163D01*
X964067D01*
Y675698D01*
X963811Y676987D01*
X963081Y678079D01*
X962537Y678623D01*
X963081Y679167D01*
X963811Y680259D01*
X964067Y681548D01*
Y683083D01*
X972400D01*
Y682610D01*
X994170D01*
Y692150D01*
Y701690D01*
X972400D01*
Y699163D01*
X949340D01*
Y704610D01*
X939800D01*
Y707150D01*
X949340D01*
Y713090D01*
X951110D01*
Y722630D01*
X952380D01*
Y723900D01*
X960420D01*
Y732170D01*
X955524D01*
X954676Y733440D01*
X955040Y734320D01*
Y735427D01*
X955253Y736387D01*
X956213Y736600D01*
X957320D01*
X959188Y737373D01*
X960127Y738313D01*
X995680D01*
X996968Y738570D01*
X998061Y739299D01*
X1025551Y766790D01*
X1026048Y766502D01*
X1028632Y765810D01*
X1031308D01*
X1033892Y766502D01*
X1036208Y767840D01*
X1038100Y769732D01*
X1039438Y772048D01*
X1040130Y774632D01*
Y777308D01*
X1039438Y779892D01*
X1038100Y782208D01*
X1036208Y784100D01*
X1033892Y785438D01*
X1031308Y786130D01*
X1028632D01*
X1026048Y785438D01*
X1023732Y784100D01*
X1021840Y782208D01*
X1020502Y779892D01*
X1019810Y777308D01*
Y774632D01*
X1020502Y772048D01*
X1020790Y771551D01*
X994286Y745047D01*
X960127D01*
X959834Y745340D01*
X959348Y746238D01*
X959834Y747000D01*
X960680Y747847D01*
X961454Y749714D01*
Y751734D01*
X960680Y753602D01*
X959251Y755031D01*
X957384Y755804D01*
X956213D01*
X955342Y755882D01*
X955040Y756977D01*
Y757931D01*
X954267Y759798D01*
X952838Y761227D01*
X950971Y762000D01*
X948950D01*
X947082Y761227D01*
X946143Y760287D01*
X943237D01*
X942751Y761460D01*
X958691Y777399D01*
X959420Y778492D01*
X959677Y779780D01*
Y957572D01*
X960617Y958512D01*
X961390Y960379D01*
Y962401D01*
X960617Y964268D01*
X959188Y965697D01*
X957320Y966470D01*
X955300D01*
X953432Y965697D01*
X952695Y964959D01*
X951865Y964366D01*
X951035Y964959D01*
X950298Y965697D01*
X948430Y966470D01*
X946410D01*
X944542Y965697D01*
X943805Y964959D01*
X942975Y964366D01*
X942145Y964959D01*
X941408Y965697D01*
X939540Y966470D01*
X937520D01*
X935652Y965697D01*
X934223Y964268D01*
X933450Y962401D01*
Y960379D01*
X934223Y958512D01*
X935163Y957572D01*
Y776095D01*
X924632Y765563D01*
X889254D01*
X888557Y766135D01*
Y768343D01*
X889497Y769282D01*
X890270Y771150D01*
Y773170D01*
X889497Y775038D01*
X888068Y776467D01*
X886200Y777240D01*
X884180D01*
X882312Y776467D01*
X880883Y775038D01*
X880110Y773170D01*
Y772063D01*
X879898Y771103D01*
X878937Y770890D01*
X878743D01*
X877783Y771103D01*
X877570Y772063D01*
Y773170D01*
X876797Y775038D01*
X875368Y776467D01*
X874811Y776697D01*
X874564Y777943D01*
X881221Y784599D01*
X881950Y785692D01*
X882207Y786980D01*
Y800950D01*
X888380D01*
Y801190D01*
X904860D01*
Y784450D01*
X910090D01*
X910616Y783180D01*
X910093Y782658D01*
X909320Y780790D01*
Y778770D01*
X910093Y776902D01*
X911522Y775473D01*
X913390Y774700D01*
X915411D01*
X917278Y775473D01*
X918707Y776902D01*
X919480Y778770D01*
Y780790D01*
X918707Y782658D01*
X918184Y783180D01*
X918710Y784450D01*
X923940D01*
Y800450D01*
Y817530D01*
X906160D01*
Y822960D01*
X896620D01*
Y824230D01*
X895350D01*
Y832270D01*
X887080D01*
Y832030D01*
X880110D01*
Y823990D01*
X878840D01*
Y822720D01*
X869300D01*
Y815950D01*
Y800950D01*
X875473D01*
Y788375D01*
X859073Y771975D01*
X857900Y772461D01*
Y780390D01*
Y787160D01*
X838820D01*
Y782199D01*
X838202Y781050D01*
X836196D01*
X834258Y780531D01*
X832520Y779528D01*
X831102Y778109D01*
X830098Y776371D01*
X829858Y775474D01*
X828442Y775095D01*
X827597Y775940D01*
Y796940D01*
X866545Y835888D01*
X867274Y836980D01*
X867531Y838268D01*
Y862836D01*
X867274Y864124D01*
X866545Y865217D01*
X863910Y867851D01*
Y874270D01*
X842330D01*
Y863090D01*
X858264D01*
X858431Y862840D01*
X857753Y861570D01*
X842330D01*
Y850390D01*
X850073D01*
Y847215D01*
X817785Y814927D01*
X817056Y813834D01*
X816799Y812546D01*
Y776902D01*
X815626Y776416D01*
X792743Y799299D01*
Y850390D01*
X799150D01*
Y855980D01*
Y861570D01*
X792743D01*
Y863090D01*
X799229D01*
X800420Y862853D01*
X820482D01*
X822712Y863297D01*
X824603Y864560D01*
X835596Y875553D01*
X853120D01*
X854311Y875790D01*
X863910D01*
Y886970D01*
X858947D01*
Y888253D01*
X872070D01*
Y884540D01*
X893840D01*
Y894080D01*
Y903620D01*
X887155D01*
Y930413D01*
X887211Y930509D01*
X887730Y932447D01*
Y934453D01*
X887211Y936391D01*
X886208Y938129D01*
X884789Y939548D01*
X883051Y940551D01*
X881113Y941070D01*
X879107D01*
X877169Y940551D01*
X875431Y939548D01*
X874013Y938129D01*
X873704Y937594D01*
X844200D01*
Y942990D01*
X827120D01*
Y942990D01*
X826200D01*
Y942990D01*
X809120D01*
Y923910D01*
X812480D01*
X813006Y922640D01*
X797353Y906987D01*
X796511Y905727D01*
X796215Y904240D01*
Y899670D01*
X789630D01*
Y893251D01*
X782931Y886553D01*
X782202Y885460D01*
X781945Y884172D01*
Y796221D01*
X782202Y794933D01*
X782931Y793841D01*
X810541Y766230D01*
X810343Y764698D01*
X809947Y764453D01*
X809560Y764558D01*
X808831Y765651D01*
X765367Y809115D01*
Y942215D01*
X805304Y982153D01*
X1053381D01*
X1053693Y981159D01*
X1053709Y980883D01*
X1052333Y979508D01*
X1051560Y977641D01*
Y975620D01*
X1051954Y974668D01*
X1050982Y973696D01*
X1050031Y974090D01*
X1048009D01*
X1046142Y973317D01*
X1044713Y971888D01*
X1043940Y970021D01*
Y967999D01*
X1044713Y966132D01*
X1045653Y965192D01*
Y722637D01*
X1044713Y721698D01*
X1043940Y719830D01*
Y717810D01*
X1044713Y715942D01*
X1046142Y714513D01*
X1048009Y713740D01*
X1050031D01*
X1051898Y714513D01*
X1052100Y714716D01*
X1053273Y714230D01*
Y704857D01*
X1052333Y703918D01*
X1051560Y702050D01*
Y700030D01*
X1052333Y698162D01*
X1053762Y696733D01*
X1055630Y695960D01*
X1057651D01*
X1059518Y696733D01*
X1060947Y698162D01*
X1061720Y700030D01*
Y702050D01*
X1060947Y703918D01*
X1060007Y704857D01*
Y972812D01*
X1060947Y973752D01*
X1061720Y975620D01*
Y977641D01*
X1060947Y979508D01*
X1059571Y980883D01*
X1059587Y981159D01*
X1059899Y982153D01*
X1435100D01*
X1436388Y982410D01*
X1437481Y983139D01*
X1475581Y1021239D01*
X1476310Y1022332D01*
X1476567Y1023620D01*
Y1190442D01*
X1477465Y1191340D01*
X1479440Y1191340D01*
X1480710Y1191340D01*
X1492140D01*
Y1203945D01*
X1511225D01*
Y1039199D01*
X1080431Y608405D01*
X1019300D01*
X1018878Y608827D01*
X1017010Y609600D01*
X1014989D01*
X1013122Y608827D01*
X1011693Y607398D01*
X1010920Y605531D01*
Y603509D01*
X1011693Y601642D01*
X1013122Y600213D01*
X1014989Y599440D01*
X1017010D01*
X1018878Y600213D01*
X1019300Y600635D01*
X1082040D01*
X1083527Y600931D01*
X1084787Y601773D01*
X1517857Y1034843D01*
X1518699Y1036103D01*
X1518995Y1037590D01*
Y1251633D01*
X1519032Y1251642D01*
X1521348Y1252980D01*
X1523240Y1254872D01*
X1524578Y1257188D01*
X1525270Y1259772D01*
Y1262448D01*
X1524578Y1265032D01*
X1523240Y1267348D01*
X1521348Y1269240D01*
X1519032Y1270578D01*
X1516448Y1271270D01*
X1513772D01*
X1511188Y1270578D01*
X1508872Y1269240D01*
X1506980Y1267348D01*
X1505642Y1265032D01*
X1504950Y1262448D01*
Y1259772D01*
X1505642Y1257188D01*
X1506980Y1254872D01*
X1508872Y1252980D01*
X1511188Y1251642D01*
X1511225Y1251633D01*
Y1211715D01*
X1492140D01*
Y1224320D01*
X1489785D01*
Y1281091D01*
X1599137Y1390443D01*
X1599979Y1391703D01*
X1600275Y1393190D01*
Y1407290D01*
X1605930D01*
Y1424020D01*
X1605930Y1424370D01*
Y1425290D01*
X1605930Y1425640D01*
Y1442370D01*
X1600675D01*
Y1482900D01*
X1602955Y1484216D01*
X1604824Y1486085D01*
X1606146Y1488375D01*
X1606830Y1490928D01*
Y1493572D01*
X1606146Y1496125D01*
X1604824Y1498415D01*
X1602955Y1500284D01*
X1600665Y1501606D01*
X1598112Y1502290D01*
X1595468D01*
X1592915Y1501606D01*
X1590625Y1500284D01*
X1588756Y1498415D01*
X1587434Y1496125D01*
X1586750Y1493572D01*
Y1490928D01*
X1587434Y1488375D01*
X1588756Y1486085D01*
X1590625Y1484216D01*
X1592905Y1482900D01*
Y1442370D01*
X1586850D01*
Y1425640D01*
X1586850Y1425290D01*
Y1424370D01*
X1586850Y1424020D01*
Y1407290D01*
X1592505D01*
Y1394799D01*
X1483153Y1285447D01*
X1482311Y1284187D01*
X1482015Y1282700D01*
Y1225218D01*
X1481117Y1224320D01*
X1479660Y1224320D01*
X1478390Y1224320D01*
X1466960D01*
Y1224320D01*
X1466740D01*
Y1224320D01*
X1455310D01*
X1454260Y1224320D01*
Y1224320D01*
X1454040D01*
Y1224320D01*
X1451685D01*
Y1267700D01*
X1457340D01*
Y1284430D01*
X1457340Y1284780D01*
Y1285700D01*
X1457340Y1286050D01*
Y1292970D01*
X1438260D01*
Y1286050D01*
X1438260Y1285700D01*
Y1284780D01*
X1438260Y1284430D01*
Y1267700D01*
X1443915D01*
Y1224320D01*
X1442610D01*
X1441560Y1224320D01*
Y1224320D01*
X1441340D01*
Y1224320D01*
X1428860D01*
Y1211197D01*
X1416110D01*
X1414822Y1210940D01*
X1413729Y1210211D01*
X1401956Y1198437D01*
X975360D01*
X974072Y1198180D01*
X972979Y1197451D01*
X740569Y965041D01*
X739840Y963948D01*
X739583Y962660D01*
Y808323D01*
X739840Y807034D01*
X740569Y805942D01*
X760591Y785920D01*
X760065Y784650D01*
X739090D01*
Y775110D01*
X737820D01*
Y773840D01*
X729780D01*
Y765870D01*
X727540D01*
Y758600D01*
X738810D01*
Y765570D01*
X750730D01*
Y753551D01*
X745483Y748304D01*
X744753Y747212D01*
X744497Y745923D01*
Y745154D01*
X740858D01*
X739570Y744897D01*
X738478Y744168D01*
X738245Y743935D01*
X731508D01*
X731183Y743870D01*
X714220D01*
Y745240D01*
Y748790D01*
X725000D01*
Y757330D01*
Y765870D01*
X713730D01*
Y761320D01*
X705950D01*
Y753280D01*
X704680D01*
Y752010D01*
X695140D01*
Y745240D01*
Y730240D01*
X713730D01*
Y726790D01*
X738810D01*
Y737201D01*
X739639D01*
X740928Y737458D01*
X741775Y738024D01*
X742591Y737758D01*
X743045Y737417D01*
Y725518D01*
X743302Y724230D01*
X744031Y723137D01*
X750814Y716355D01*
X750288Y715085D01*
X736900D01*
Y720740D01*
X715130D01*
Y711200D01*
Y701660D01*
X736900D01*
Y707315D01*
X742650D01*
Y699770D01*
X750690D01*
Y698500D01*
X751960D01*
Y688960D01*
X773730D01*
Y694615D01*
X776480D01*
X776902Y694193D01*
X778770Y693420D01*
X780790D01*
X782658Y694193D01*
X783080Y694615D01*
X794748D01*
X796235Y694911D01*
X797495Y695753D01*
X798858Y697116D01*
X804926D01*
Y687267D01*
Y675288D01*
X610080D01*
Y675362D01*
X595000D01*
Y675288D01*
X251110D01*
Y680612D01*
X218030D01*
Y675288D01*
X207896D01*
Y679095D01*
X188816D01*
Y675271D01*
X59690D01*
Y676910D01*
X27940D01*
Y675271D01*
X21490D01*
X19877Y674950D01*
X18509Y674036D01*
X17595Y672668D01*
X17275Y671055D01*
X17595Y669442D01*
X18509Y668074D01*
X19877Y667160D01*
X21490Y666839D01*
X27940D01*
Y643128D01*
X15240D01*
Y676910D01*
X10160D01*
Y1521961D01*
X191770D01*
Y1514481D01*
X191609Y1513260D01*
Y1504260D01*
X191770Y1503039D01*
Y1493800D01*
X189170D01*
Y1474720D01*
X191770D01*
Y1466925D01*
X185420D01*
X183933Y1466629D01*
X182673Y1465787D01*
X181831Y1464527D01*
X181535Y1463040D01*
X181831Y1461553D01*
X182673Y1460293D01*
X183933Y1459451D01*
X185420Y1459155D01*
X204490D01*
X205977Y1459451D01*
X207237Y1460293D01*
X213794Y1466850D01*
X216317D01*
X216803Y1465677D01*
X199921Y1448795D01*
X193960D01*
X193585Y1448720D01*
X179690D01*
Y1431990D01*
X179690Y1431640D01*
Y1430720D01*
X179690Y1430370D01*
Y1413640D01*
X185345D01*
Y1335420D01*
X179070D01*
Y1325880D01*
Y1316340D01*
X200840D01*
Y1322254D01*
X215240D01*
X215443Y1322214D01*
X223218D01*
X223498Y1322270D01*
X232410D01*
Y1337310D01*
Y1352350D01*
X223498D01*
X223218Y1352406D01*
X222697D01*
Y1363443D01*
X223967Y1363969D01*
X224452Y1363483D01*
X226320Y1362710D01*
X228340D01*
X230208Y1363483D01*
X231637Y1364912D01*
X232410Y1366779D01*
Y1368801D01*
X232160Y1369404D01*
X232866Y1370460D01*
X236870D01*
Y1387190D01*
X236870Y1387540D01*
Y1388460D01*
X236870Y1388810D01*
Y1392856D01*
X242514D01*
X242822Y1392321D01*
X244241Y1390903D01*
X245979Y1389899D01*
X247917Y1389380D01*
X249923D01*
X251861Y1389899D01*
X253599Y1390903D01*
X255018Y1392321D01*
X256021Y1394059D01*
X256540Y1395997D01*
Y1398003D01*
X256021Y1399941D01*
X255018Y1401679D01*
X253599Y1403098D01*
X251861Y1404101D01*
X249923Y1404620D01*
X247917D01*
X245979Y1404101D01*
X244241Y1403098D01*
X242822Y1401679D01*
X242514Y1401144D01*
X236870D01*
Y1405540D01*
X217790D01*
Y1405540D01*
X216550D01*
Y1405540D01*
X197470D01*
Y1388810D01*
X197470Y1388460D01*
Y1387540D01*
X197470Y1387190D01*
Y1375304D01*
X197129Y1374963D01*
X196287Y1373703D01*
X195991Y1372216D01*
Y1371575D01*
X195083Y1370668D01*
X194310Y1368801D01*
X193115Y1368981D01*
Y1413640D01*
X198770D01*
Y1430370D01*
X198770Y1430720D01*
Y1431640D01*
X198770Y1431990D01*
Y1441025D01*
X201530D01*
X203016Y1441321D01*
X204277Y1442163D01*
X228963Y1466850D01*
X240825D01*
Y1435750D01*
X233920D01*
Y1416670D01*
X250650D01*
X251000Y1416670D01*
X251920D01*
X252270Y1416670D01*
X259005D01*
Y1358900D01*
X259221Y1357818D01*
X253588Y1352186D01*
X253025D01*
X251917Y1352406D01*
X244142D01*
X243862Y1352350D01*
X234950D01*
Y1337310D01*
Y1322270D01*
X243862D01*
X244142Y1322214D01*
X248636D01*
X278197Y1292653D01*
X279458Y1291811D01*
X280490Y1291606D01*
Y1285860D01*
X291076D01*
X291077Y1285860D01*
X291139Y1285546D01*
X291981Y1284285D01*
X293915Y1282351D01*
X295176Y1281509D01*
X296662Y1281213D01*
X331328D01*
X332815Y1281509D01*
X334075Y1282351D01*
X359617Y1307893D01*
X360459Y1309153D01*
X360755Y1310640D01*
Y1394460D01*
X360459Y1395947D01*
X359617Y1397207D01*
X339740Y1417084D01*
Y1429320D01*
X339740Y1429670D01*
Y1430590D01*
X339740Y1430940D01*
Y1447670D01*
X326154D01*
X314842Y1458982D01*
X314842Y1458982D01*
X301687Y1472137D01*
X300427Y1472979D01*
X298940Y1473275D01*
X271780D01*
Y1474720D01*
X274250D01*
Y1493800D01*
X271780D01*
Y1504026D01*
X271811Y1504260D01*
Y1513260D01*
X271780Y1513494D01*
Y1521961D01*
X1775961D01*
Y2039D01*
D02*
G37*
G36*
X1469833Y1025014D02*
X1433705Y988887D01*
X803910D01*
X802622Y988630D01*
X801529Y987901D01*
X760287Y946658D01*
X759017Y947184D01*
Y948566D01*
X991994Y1181543D01*
X1428860D01*
Y1150640D01*
X1431215D01*
Y1107090D01*
X1425560D01*
Y1090360D01*
X1425560Y1090010D01*
Y1089090D01*
X1425560Y1088740D01*
Y1072010D01*
X1428055D01*
Y1067178D01*
X1371123Y1010247D01*
X842606D01*
X842510Y1010302D01*
X840572Y1010822D01*
X838565D01*
X836627Y1010302D01*
X834890Y1009299D01*
X833471Y1007880D01*
X832468Y1006143D01*
X831948Y1004205D01*
Y1002198D01*
X832468Y1000260D01*
X833471Y998523D01*
X834890Y997104D01*
X836627Y996101D01*
X838565Y995582D01*
X840572D01*
X842510Y996101D01*
X842606Y996156D01*
X1374042D01*
X1375865Y996396D01*
X1377564Y997100D01*
X1379023Y998220D01*
X1440082Y1059278D01*
X1441201Y1060737D01*
X1441905Y1062437D01*
X1442145Y1064260D01*
Y1072010D01*
X1444640D01*
Y1073505D01*
X1451823D01*
X1453147Y1073150D01*
X1455153D01*
X1457091Y1073669D01*
X1458829Y1074672D01*
X1460247Y1076091D01*
X1461251Y1077829D01*
X1461770Y1079767D01*
Y1081773D01*
X1461251Y1083711D01*
X1460247Y1085449D01*
X1458829Y1086868D01*
X1457091Y1087871D01*
X1455153Y1088390D01*
X1453147D01*
X1451209Y1087871D01*
X1450732Y1087595D01*
X1445538D01*
X1444640Y1088493D01*
X1444640Y1090010D01*
X1444640Y1090360D01*
Y1107090D01*
X1438985D01*
Y1150640D01*
X1441340D01*
Y1150640D01*
X1441560D01*
Y1150640D01*
X1446530D01*
Y1167130D01*
X1449070D01*
Y1150640D01*
X1452990D01*
X1454040Y1150640D01*
X1455310Y1150640D01*
X1459230D01*
Y1167130D01*
Y1183620D01*
X1455310D01*
X1454337Y1183620D01*
X1453779Y1184251D01*
X1453601Y1184680D01*
X1459943Y1191021D01*
X1460155Y1191340D01*
X1466740D01*
Y1191340D01*
X1466960D01*
Y1191340D01*
X1469833D01*
Y1025014D01*
D02*
G37*
G36*
X789875Y756636D02*
Y739343D01*
X790132Y738055D01*
X790861Y736963D01*
X797671Y730153D01*
X797526Y729695D01*
X797048Y728980D01*
X795279D01*
X793412Y728207D01*
X791983Y726778D01*
X791210Y724911D01*
Y722889D01*
X791983Y721022D01*
X792755Y720251D01*
X792228Y718981D01*
X783719D01*
X778313Y724387D01*
X777221Y725117D01*
X775932Y725373D01*
X758096D01*
X757997Y725520D01*
X758676Y726790D01*
X762000D01*
Y735330D01*
Y743870D01*
X753230D01*
X752857Y744428D01*
X751993Y745292D01*
X755491Y748790D01*
X775810D01*
Y765870D01*
X760935D01*
Y770880D01*
X760860Y771255D01*
Y783855D01*
X762130Y784381D01*
X789875Y756636D01*
D02*
G37*
G36*
X851607Y740857D02*
X853167Y739297D01*
X852681Y738124D01*
X821436D01*
Y704850D01*
X855980D01*
Y702310D01*
X821436D01*
Y670895D01*
X820696Y670401D01*
X819307Y669012D01*
X818134Y669498D01*
Y682266D01*
Y692268D01*
Y702271D01*
Y712273D01*
Y722276D01*
Y732278D01*
Y741426D01*
X851227D01*
X851607Y740857D01*
D02*
G37*
%LPC*%
G36*
X285970Y1456070D02*
Y1447800D01*
X293240D01*
Y1456070D01*
X285970D01*
D02*
G37*
G36*
X293240Y1445260D02*
X285970D01*
Y1436990D01*
X293240D01*
Y1445260D01*
D02*
G37*
G36*
X329350Y1395110D02*
X322580D01*
Y1386840D01*
X329350D01*
Y1395110D01*
D02*
G37*
G36*
X329230Y1348740D02*
X322460D01*
Y1340470D01*
X329230D01*
Y1348740D01*
D02*
G37*
G36*
X1631830Y1502290D02*
X1611750D01*
Y1482210D01*
X1631830D01*
Y1502290D01*
D02*
G37*
G36*
X1573112D02*
X1570468D01*
X1567915Y1501606D01*
X1565625Y1500284D01*
X1563756Y1498415D01*
X1562434Y1496125D01*
X1561750Y1493572D01*
Y1490928D01*
X1562434Y1488375D01*
X1563756Y1486085D01*
X1565625Y1484216D01*
X1567915Y1482894D01*
X1570468Y1482210D01*
X1573112D01*
X1575665Y1482894D01*
X1577955Y1484216D01*
X1579824Y1486085D01*
X1581146Y1488375D01*
X1581830Y1490928D01*
Y1493572D01*
X1581146Y1496125D01*
X1579824Y1498415D01*
X1577955Y1500284D01*
X1575665Y1501606D01*
X1573112Y1502290D01*
D02*
G37*
G36*
X1188951Y1483360D02*
X1185949D01*
X1183005Y1482774D01*
X1180231Y1481626D01*
X1177735Y1479958D01*
X1175612Y1477835D01*
X1173944Y1475339D01*
X1172796Y1472565D01*
X1172210Y1469621D01*
Y1466619D01*
X1172796Y1463675D01*
X1173944Y1460901D01*
X1175612Y1458405D01*
X1177735Y1456282D01*
X1180231Y1454615D01*
X1183005Y1453466D01*
X1185949Y1452880D01*
X1188951D01*
X1191895Y1453466D01*
X1194669Y1454615D01*
X1197165Y1456282D01*
X1199288Y1458405D01*
X1200956Y1460901D01*
X1202104Y1463675D01*
X1202690Y1466619D01*
Y1469621D01*
X1202104Y1472565D01*
X1200956Y1475339D01*
X1199288Y1477835D01*
X1197165Y1479958D01*
X1194669Y1481626D01*
X1191895Y1482774D01*
X1188951Y1483360D01*
D02*
G37*
G36*
X905233D02*
X902231D01*
X899287Y1482774D01*
X896513Y1481626D01*
X894017Y1479958D01*
X891894Y1477835D01*
X890227Y1475339D01*
X889078Y1472565D01*
X888492Y1469621D01*
Y1466619D01*
X889078Y1463675D01*
X890227Y1460901D01*
X891894Y1458405D01*
X894017Y1456282D01*
X896513Y1454615D01*
X899287Y1453466D01*
X902231Y1452880D01*
X905233D01*
X908177Y1453466D01*
X910951Y1454615D01*
X913447Y1456282D01*
X915570Y1458405D01*
X917237Y1460901D01*
X918386Y1463675D01*
X918972Y1466619D01*
Y1469621D01*
X918386Y1472565D01*
X917237Y1475339D01*
X915570Y1477835D01*
X913447Y1479958D01*
X910951Y1481626D01*
X908177Y1482774D01*
X905233Y1483360D01*
D02*
G37*
G36*
X777427Y1472990D02*
X774652D01*
X771972Y1472272D01*
X769568Y1470884D01*
X767606Y1468922D01*
X766218Y1466518D01*
X765500Y1463838D01*
Y1461062D01*
X766218Y1458382D01*
X767606Y1455978D01*
X769568Y1454016D01*
X771972Y1452628D01*
X774652Y1451910D01*
X777427D01*
X780108Y1452628D01*
X782512Y1454016D01*
X784474Y1455978D01*
X785861Y1458382D01*
X786580Y1461062D01*
Y1463838D01*
X785861Y1466518D01*
X784474Y1468922D01*
X782512Y1470884D01*
X780108Y1472272D01*
X777427Y1472990D01*
D02*
G37*
G36*
X652428D02*
X649652D01*
X646972Y1472272D01*
X644568Y1470884D01*
X642606Y1468922D01*
X641218Y1466518D01*
X640500Y1463838D01*
Y1461062D01*
X641218Y1458382D01*
X642606Y1455978D01*
X644568Y1454016D01*
X646972Y1452628D01*
X649652Y1451910D01*
X652428D01*
X655108Y1452628D01*
X657512Y1454016D01*
X659474Y1455978D01*
X660862Y1458382D01*
X661580Y1461062D01*
Y1463838D01*
X660862Y1466518D01*
X659474Y1468922D01*
X657512Y1470884D01*
X655108Y1472272D01*
X652428Y1472990D01*
D02*
G37*
G36*
X540337D02*
X537562D01*
X534882Y1472272D01*
X532478Y1470884D01*
X530516Y1468922D01*
X529128Y1466518D01*
X528410Y1463838D01*
Y1461062D01*
X529128Y1458382D01*
X530516Y1455978D01*
X532478Y1454016D01*
X534882Y1452628D01*
X537562Y1451910D01*
X540337D01*
X543018Y1452628D01*
X545421Y1454016D01*
X547384Y1455978D01*
X548771Y1458382D01*
X549490Y1461062D01*
Y1463838D01*
X548771Y1466518D01*
X547384Y1468922D01*
X545421Y1470884D01*
X543018Y1472272D01*
X540337Y1472990D01*
D02*
G37*
G36*
X415338D02*
X412562D01*
X409882Y1472272D01*
X407478Y1470884D01*
X405516Y1468922D01*
X404128Y1466518D01*
X403410Y1463838D01*
Y1461062D01*
X404128Y1458382D01*
X405516Y1455978D01*
X407478Y1454016D01*
X409882Y1452628D01*
X412562Y1451910D01*
X415338D01*
X418018Y1452628D01*
X420422Y1454016D01*
X422384Y1455978D01*
X423772Y1458382D01*
X424490Y1461062D01*
Y1463838D01*
X423772Y1466518D01*
X422384Y1468922D01*
X420422Y1470884D01*
X418018Y1472272D01*
X415338Y1472990D01*
D02*
G37*
G36*
X1364098Y1460880D02*
X1361322D01*
X1358642Y1460162D01*
X1356238Y1458774D01*
X1354276Y1456812D01*
X1352888Y1454408D01*
X1352170Y1451728D01*
Y1448952D01*
X1352888Y1446272D01*
X1354276Y1443868D01*
X1356238Y1441906D01*
X1358642Y1440518D01*
X1358825Y1440469D01*
Y1428400D01*
X1353170D01*
Y1411670D01*
X1353170Y1411320D01*
Y1410400D01*
X1353170Y1410050D01*
Y1403130D01*
X1362710D01*
X1372250D01*
Y1410050D01*
X1372250Y1410400D01*
Y1411320D01*
X1372250Y1411670D01*
Y1428400D01*
X1366595D01*
Y1440469D01*
X1366778Y1440518D01*
X1369182Y1441906D01*
X1371144Y1443868D01*
X1372532Y1446272D01*
X1373250Y1448952D01*
Y1451728D01*
X1372532Y1454408D01*
X1371144Y1456812D01*
X1369182Y1458774D01*
X1366778Y1460162D01*
X1364098Y1460880D01*
D02*
G37*
G36*
X1516498D02*
X1513722D01*
X1511042Y1460162D01*
X1508638Y1458774D01*
X1506676Y1456812D01*
X1505288Y1454408D01*
X1504570Y1451728D01*
Y1448952D01*
X1505288Y1446272D01*
X1506676Y1443868D01*
X1508638Y1441906D01*
X1511042Y1440518D01*
X1511225Y1440469D01*
Y1428400D01*
X1505570D01*
Y1411670D01*
X1505570Y1411320D01*
Y1410400D01*
X1505570Y1410050D01*
Y1403130D01*
X1515110D01*
X1524650D01*
Y1410050D01*
X1524650Y1410400D01*
Y1411320D01*
X1524650Y1411670D01*
Y1428400D01*
X1518995D01*
Y1440469D01*
X1519178Y1440518D01*
X1521582Y1441906D01*
X1523544Y1443868D01*
X1524932Y1446272D01*
X1525650Y1448952D01*
Y1451728D01*
X1524932Y1454408D01*
X1523544Y1456812D01*
X1521582Y1458774D01*
X1519178Y1460162D01*
X1516498Y1460880D01*
D02*
G37*
G36*
X1440298D02*
X1437522D01*
X1434842Y1460162D01*
X1432438Y1458774D01*
X1430476Y1456812D01*
X1429088Y1454408D01*
X1428370Y1451728D01*
Y1448952D01*
X1429088Y1446272D01*
X1430476Y1443868D01*
X1432438Y1441906D01*
X1434842Y1440518D01*
X1435025Y1440469D01*
Y1428400D01*
X1429370D01*
Y1411670D01*
X1429370Y1411320D01*
Y1410400D01*
X1429370Y1410050D01*
Y1403130D01*
X1438910D01*
X1448450D01*
Y1410050D01*
X1448450Y1410400D01*
Y1411320D01*
X1448450Y1411670D01*
Y1428400D01*
X1442795D01*
Y1440469D01*
X1442978Y1440518D01*
X1445382Y1441906D01*
X1447344Y1443868D01*
X1448732Y1446272D01*
X1449450Y1448952D01*
Y1451728D01*
X1448732Y1454408D01*
X1447344Y1456812D01*
X1445382Y1458774D01*
X1442978Y1460162D01*
X1440298Y1460880D01*
D02*
G37*
G36*
X1524650Y1400590D02*
X1516380D01*
Y1393320D01*
X1524650D01*
Y1400590D01*
D02*
G37*
G36*
X1513840D02*
X1505570D01*
Y1393320D01*
X1513840D01*
Y1400590D01*
D02*
G37*
G36*
X1448450D02*
X1440180D01*
Y1393320D01*
X1448450D01*
Y1400590D01*
D02*
G37*
G36*
X1437640D02*
X1429370D01*
Y1393320D01*
X1437640D01*
Y1400590D01*
D02*
G37*
G36*
X1372250D02*
X1363980D01*
Y1393320D01*
X1372250D01*
Y1400590D01*
D02*
G37*
G36*
X1361440D02*
X1353170D01*
Y1393320D01*
X1361440D01*
Y1400590D01*
D02*
G37*
G36*
X727493Y1401690D02*
X724587D01*
X721779Y1400938D01*
X719261Y1399484D01*
X717206Y1397429D01*
X715752Y1394911D01*
X715000Y1392103D01*
Y1389197D01*
X715752Y1386389D01*
X717206Y1383871D01*
X719261Y1381816D01*
X721779Y1380362D01*
X724587Y1379610D01*
X727493D01*
X730301Y1380362D01*
X732819Y1381816D01*
X734874Y1383871D01*
X736328Y1386389D01*
X737080Y1389197D01*
Y1392103D01*
X736328Y1394911D01*
X734874Y1397429D01*
X732819Y1399484D01*
X730301Y1400938D01*
X727493Y1401690D01*
D02*
G37*
G36*
X702493D02*
X699587D01*
X696779Y1400938D01*
X694261Y1399484D01*
X692206Y1397429D01*
X690752Y1394911D01*
X690000Y1392103D01*
Y1389197D01*
X690752Y1386389D01*
X692206Y1383871D01*
X694261Y1381816D01*
X696779Y1380362D01*
X699587Y1379610D01*
X702493D01*
X705301Y1380362D01*
X707819Y1381816D01*
X709874Y1383871D01*
X711328Y1386389D01*
X712080Y1389197D01*
Y1392103D01*
X711328Y1394911D01*
X709874Y1397429D01*
X707819Y1399484D01*
X705301Y1400938D01*
X702493Y1401690D01*
D02*
G37*
G36*
X677493D02*
X674587D01*
X671779Y1400938D01*
X669261Y1399484D01*
X667206Y1397429D01*
X665752Y1394911D01*
X665000Y1392103D01*
Y1389197D01*
X665752Y1386389D01*
X667206Y1383871D01*
X669261Y1381816D01*
X671779Y1380362D01*
X674587Y1379610D01*
X677493D01*
X680301Y1380362D01*
X682819Y1381816D01*
X684874Y1383871D01*
X686328Y1386389D01*
X687080Y1389197D01*
Y1392103D01*
X686328Y1394911D01*
X684874Y1397429D01*
X682819Y1399484D01*
X680301Y1400938D01*
X677493Y1401690D01*
D02*
G37*
G36*
X540403D02*
X537497D01*
X534689Y1400938D01*
X532171Y1399484D01*
X530116Y1397429D01*
X528662Y1394911D01*
X527910Y1392103D01*
Y1389197D01*
X528662Y1386389D01*
X530116Y1383871D01*
X532171Y1381816D01*
X534689Y1380362D01*
X537497Y1379610D01*
X540403D01*
X543211Y1380362D01*
X545729Y1381816D01*
X547784Y1383871D01*
X549238Y1386389D01*
X549990Y1389197D01*
Y1392103D01*
X549238Y1394911D01*
X547784Y1397429D01*
X545729Y1399484D01*
X543211Y1400938D01*
X540403Y1401690D01*
D02*
G37*
G36*
X515403D02*
X512497D01*
X509689Y1400938D01*
X507171Y1399484D01*
X505116Y1397429D01*
X503662Y1394911D01*
X502910Y1392103D01*
Y1389197D01*
X503662Y1386389D01*
X505116Y1383871D01*
X507171Y1381816D01*
X509689Y1380362D01*
X512497Y1379610D01*
X515403D01*
X518211Y1380362D01*
X520729Y1381816D01*
X522784Y1383871D01*
X524238Y1386389D01*
X524990Y1389197D01*
Y1392103D01*
X524238Y1394911D01*
X522784Y1397429D01*
X520729Y1399484D01*
X518211Y1400938D01*
X515403Y1401690D01*
D02*
G37*
G36*
X490403D02*
X487497D01*
X484689Y1400938D01*
X482171Y1399484D01*
X480116Y1397429D01*
X478662Y1394911D01*
X477910Y1392103D01*
Y1389197D01*
X478662Y1386389D01*
X480116Y1383871D01*
X482171Y1381816D01*
X484689Y1380362D01*
X487497Y1379610D01*
X490403D01*
X493211Y1380362D01*
X495729Y1381816D01*
X497784Y1383871D01*
X499238Y1386389D01*
X499990Y1389197D01*
Y1392103D01*
X499238Y1394911D01*
X497784Y1397429D01*
X495729Y1399484D01*
X493211Y1400938D01*
X490403Y1401690D01*
D02*
G37*
G36*
X465403D02*
X462497D01*
X459689Y1400938D01*
X457171Y1399484D01*
X455116Y1397429D01*
X453662Y1394911D01*
X452910Y1392103D01*
Y1389197D01*
X453662Y1386389D01*
X455116Y1383871D01*
X457171Y1381816D01*
X459689Y1380362D01*
X462497Y1379610D01*
X465403D01*
X468211Y1380362D01*
X470729Y1381816D01*
X472784Y1383871D01*
X474238Y1386389D01*
X474990Y1389197D01*
Y1392103D01*
X474238Y1394911D01*
X472784Y1397429D01*
X470729Y1399484D01*
X468211Y1400938D01*
X465403Y1401690D01*
D02*
G37*
G36*
X440403D02*
X437497D01*
X434689Y1400938D01*
X432171Y1399484D01*
X430116Y1397429D01*
X428662Y1394911D01*
X427910Y1392103D01*
Y1389197D01*
X428662Y1386389D01*
X430116Y1383871D01*
X432171Y1381816D01*
X434689Y1380362D01*
X437497Y1379610D01*
X440403D01*
X443211Y1380362D01*
X445729Y1381816D01*
X447784Y1383871D01*
X449238Y1386389D01*
X449990Y1389197D01*
Y1392103D01*
X449238Y1394911D01*
X447784Y1397429D01*
X445729Y1399484D01*
X443211Y1400938D01*
X440403Y1401690D01*
D02*
G37*
G36*
X415403D02*
X412497D01*
X409689Y1400938D01*
X407171Y1399484D01*
X405116Y1397429D01*
X403662Y1394911D01*
X402910Y1392103D01*
Y1389197D01*
X403662Y1386389D01*
X405116Y1383871D01*
X407171Y1381816D01*
X409689Y1380362D01*
X412497Y1379610D01*
X415403D01*
X418211Y1380362D01*
X420729Y1381816D01*
X422784Y1383871D01*
X424238Y1386389D01*
X424990Y1389197D01*
Y1392103D01*
X424238Y1394911D01*
X422784Y1397429D01*
X420729Y1399484D01*
X418211Y1400938D01*
X415403Y1401690D01*
D02*
G37*
G36*
X677493Y1376690D02*
X674587D01*
X671779Y1375938D01*
X669261Y1374484D01*
X667472Y1372695D01*
X662080D01*
Y1376690D01*
X640000D01*
Y1364574D01*
X612162Y1336735D01*
X452828D01*
X435819Y1353745D01*
X436476Y1354883D01*
X437497Y1354610D01*
X440403D01*
X443211Y1355362D01*
X445729Y1356816D01*
X447784Y1358871D01*
X449238Y1361389D01*
X449990Y1364197D01*
Y1367103D01*
X449238Y1369911D01*
X447784Y1372429D01*
X445729Y1374484D01*
X443211Y1375938D01*
X440403Y1376690D01*
X437497D01*
X434689Y1375938D01*
X432171Y1374484D01*
X430116Y1372429D01*
X428662Y1369911D01*
X427910Y1367103D01*
Y1364197D01*
X428183Y1363176D01*
X427045Y1362519D01*
X424990Y1364574D01*
Y1376690D01*
X402910D01*
Y1354610D01*
X415027D01*
X444928Y1324708D01*
X446387Y1323589D01*
X448087Y1322885D01*
X449910Y1322645D01*
X615080D01*
X616903Y1322885D01*
X618603Y1323589D01*
X620062Y1324708D01*
X649964Y1354610D01*
X662080D01*
Y1358605D01*
X667472D01*
X668795Y1357282D01*
Y1306210D01*
X661910D01*
Y1296670D01*
X660640D01*
Y1295400D01*
X652600D01*
Y1287130D01*
X652600D01*
Y1285890D01*
X652600D01*
Y1277620D01*
X660640D01*
Y1276350D01*
X661910D01*
Y1266810D01*
X668595D01*
Y1262877D01*
X668539Y1262781D01*
X668020Y1260843D01*
Y1258837D01*
X668539Y1256899D01*
X669542Y1255161D01*
X670961Y1253743D01*
X672699Y1252739D01*
X674637Y1252220D01*
X676643D01*
X678581Y1252739D01*
X680319Y1253743D01*
X681738Y1255161D01*
X682741Y1256899D01*
X683260Y1258837D01*
Y1260843D01*
X682741Y1262781D01*
X682685Y1262877D01*
Y1266810D01*
X683680D01*
Y1285890D01*
X683680D01*
Y1287130D01*
X683680D01*
Y1306210D01*
X682885D01*
Y1356882D01*
X684874Y1358871D01*
X686328Y1361389D01*
X687080Y1364197D01*
Y1367103D01*
X686328Y1369911D01*
X684874Y1372429D01*
X682819Y1374484D01*
X680301Y1375938D01*
X677493Y1376690D01*
D02*
G37*
G36*
X166438Y1394460D02*
X163762D01*
X161178Y1393768D01*
X158862Y1392430D01*
X156970Y1390538D01*
X155632Y1388222D01*
X154940Y1385638D01*
Y1382962D01*
X155632Y1380378D01*
X156970Y1378062D01*
X158862Y1376170D01*
X161178Y1374832D01*
X161733Y1374684D01*
Y1371608D01*
X160793Y1370668D01*
X160020Y1368801D01*
Y1366779D01*
X160793Y1364912D01*
X162222Y1363483D01*
X164090Y1362710D01*
X166110D01*
X167978Y1363483D01*
X169407Y1364912D01*
X170180Y1366779D01*
Y1368801D01*
X169407Y1370668D01*
X168467Y1371608D01*
Y1374684D01*
X169022Y1374832D01*
X171338Y1376170D01*
X173230Y1378062D01*
X174568Y1380378D01*
X175260Y1382962D01*
Y1385638D01*
X174568Y1388222D01*
X173230Y1390538D01*
X171338Y1392430D01*
X169022Y1393768D01*
X166438Y1394460D01*
D02*
G37*
G36*
X777493Y1376690D02*
X774587D01*
X771779Y1375938D01*
X769261Y1374484D01*
X767206Y1372429D01*
X765752Y1369911D01*
X765000Y1367103D01*
Y1364197D01*
X765752Y1361389D01*
X767206Y1358871D01*
X769261Y1356816D01*
X771779Y1355362D01*
X774587Y1354610D01*
X777493D01*
X780301Y1355362D01*
X782819Y1356816D01*
X784874Y1358871D01*
X786328Y1361389D01*
X787080Y1364197D01*
Y1367103D01*
X786328Y1369911D01*
X784874Y1372429D01*
X782819Y1374484D01*
X780301Y1375938D01*
X777493Y1376690D01*
D02*
G37*
G36*
X752493D02*
X749587D01*
X746779Y1375938D01*
X744261Y1374484D01*
X742206Y1372429D01*
X740752Y1369911D01*
X740000Y1367103D01*
Y1364197D01*
X740752Y1361389D01*
X742206Y1358871D01*
X744261Y1356816D01*
X746779Y1355362D01*
X749587Y1354610D01*
X752493D01*
X755301Y1355362D01*
X757819Y1356816D01*
X759874Y1358871D01*
X761328Y1361389D01*
X762080Y1364197D01*
Y1367103D01*
X761328Y1369911D01*
X759874Y1372429D01*
X757819Y1374484D01*
X755301Y1375938D01*
X752493Y1376690D01*
D02*
G37*
G36*
X727493D02*
X724587D01*
X721779Y1375938D01*
X719261Y1374484D01*
X717206Y1372429D01*
X715752Y1369911D01*
X715000Y1367103D01*
Y1364197D01*
X715752Y1361389D01*
X717206Y1358871D01*
X719261Y1356816D01*
X721779Y1355362D01*
X724587Y1354610D01*
X727493D01*
X730301Y1355362D01*
X732819Y1356816D01*
X734874Y1358871D01*
X736328Y1361389D01*
X737080Y1364197D01*
Y1367103D01*
X736328Y1369911D01*
X734874Y1372429D01*
X732819Y1374484D01*
X730301Y1375938D01*
X727493Y1376690D01*
D02*
G37*
G36*
X515403D02*
X512497D01*
X509689Y1375938D01*
X507171Y1374484D01*
X505116Y1372429D01*
X503662Y1369911D01*
X502910Y1367103D01*
Y1364197D01*
X503662Y1361389D01*
X505116Y1358871D01*
X507171Y1356816D01*
X509689Y1355362D01*
X512497Y1354610D01*
X515403D01*
X518211Y1355362D01*
X520729Y1356816D01*
X522784Y1358871D01*
X524238Y1361389D01*
X524990Y1364197D01*
Y1367103D01*
X524238Y1369911D01*
X522784Y1372429D01*
X520729Y1374484D01*
X518211Y1375938D01*
X515403Y1376690D01*
D02*
G37*
G36*
X490403D02*
X487497D01*
X484689Y1375938D01*
X482171Y1374484D01*
X480116Y1372429D01*
X478662Y1369911D01*
X477910Y1367103D01*
Y1364197D01*
X478662Y1361389D01*
X480116Y1358871D01*
X482171Y1356816D01*
X484689Y1355362D01*
X487497Y1354610D01*
X490403D01*
X493211Y1355362D01*
X495729Y1356816D01*
X497784Y1358871D01*
X499238Y1361389D01*
X499990Y1364197D01*
Y1367103D01*
X499238Y1369911D01*
X497784Y1372429D01*
X495729Y1374484D01*
X493211Y1375938D01*
X490403Y1376690D01*
D02*
G37*
G36*
X465403D02*
X462497D01*
X459689Y1375938D01*
X457171Y1374484D01*
X455116Y1372429D01*
X453662Y1369911D01*
X452910Y1367103D01*
Y1364197D01*
X453662Y1361389D01*
X455116Y1358871D01*
X457171Y1356816D01*
X459689Y1355362D01*
X462497Y1354610D01*
X465403D01*
X468211Y1355362D01*
X470729Y1356816D01*
X472784Y1358871D01*
X474238Y1361389D01*
X474990Y1364197D01*
Y1367103D01*
X474238Y1369911D01*
X472784Y1372429D01*
X470729Y1374484D01*
X468211Y1375938D01*
X465403Y1376690D01*
D02*
G37*
G36*
X141038Y1394460D02*
X138362D01*
X135778Y1393768D01*
X133462Y1392430D01*
X131570Y1390538D01*
X130232Y1388222D01*
X129540Y1385638D01*
Y1382962D01*
X130232Y1380378D01*
X131570Y1378062D01*
X133462Y1376170D01*
X135778Y1374832D01*
X136333Y1374684D01*
Y1361447D01*
X135393Y1360508D01*
X134620Y1358640D01*
Y1356620D01*
X135393Y1354752D01*
X136822Y1353323D01*
X138689Y1352550D01*
X140710D01*
X142578Y1353323D01*
X144007Y1354752D01*
X144780Y1356620D01*
Y1358640D01*
X144007Y1360508D01*
X143067Y1361447D01*
Y1374684D01*
X143622Y1374832D01*
X145938Y1376170D01*
X147830Y1378062D01*
X149168Y1380378D01*
X149860Y1382962D01*
Y1385638D01*
X149168Y1388222D01*
X147830Y1390538D01*
X145938Y1392430D01*
X143622Y1393768D01*
X141038Y1394460D01*
D02*
G37*
G36*
X1047473Y1483360D02*
X1044471D01*
X1041527Y1482774D01*
X1038753Y1481626D01*
X1036257Y1479958D01*
X1034134Y1477835D01*
X1032467Y1475339D01*
X1031318Y1472565D01*
X1030732Y1469621D01*
Y1466619D01*
X1031318Y1463675D01*
X1032467Y1460901D01*
X1034134Y1458405D01*
X1036257Y1456282D01*
X1038753Y1454615D01*
X1039498Y1454306D01*
Y1410604D01*
X1012692Y1383798D01*
X1011288Y1381698D01*
X1010796Y1379220D01*
Y1356191D01*
X1010645Y1356104D01*
X1008636Y1354095D01*
X1007215Y1351635D01*
X1006480Y1348891D01*
Y1346049D01*
X1007215Y1343305D01*
X1008636Y1340845D01*
X1010645Y1338836D01*
X1013105Y1337415D01*
X1015850Y1336680D01*
X1018690D01*
X1021435Y1337415D01*
X1023895Y1338836D01*
X1025904Y1340845D01*
X1027325Y1343305D01*
X1028060Y1346049D01*
Y1348891D01*
X1027325Y1351635D01*
X1025904Y1354095D01*
X1023895Y1356104D01*
X1023744Y1356191D01*
Y1376538D01*
X1050550Y1403344D01*
X1051954Y1405444D01*
X1052446Y1407922D01*
Y1454306D01*
X1053191Y1454615D01*
X1055687Y1456282D01*
X1057810Y1458405D01*
X1059477Y1460901D01*
X1060626Y1463675D01*
X1061212Y1466619D01*
Y1469621D01*
X1060626Y1472565D01*
X1059477Y1475339D01*
X1057810Y1477835D01*
X1055687Y1479958D01*
X1053191Y1481626D01*
X1050417Y1482774D01*
X1047473Y1483360D01*
D02*
G37*
G36*
X176530Y1335420D02*
X169760D01*
Y1327150D01*
X176530D01*
Y1335420D01*
D02*
G37*
G36*
Y1324610D02*
X169760D01*
Y1316340D01*
X176530D01*
Y1324610D01*
D02*
G37*
G36*
X397251Y1322070D02*
X395229D01*
X393362Y1321297D01*
X391933Y1319868D01*
X391160Y1318000D01*
Y1315979D01*
X391933Y1314112D01*
X393362Y1312683D01*
X395229Y1311910D01*
X397251D01*
X399118Y1312683D01*
X400547Y1314112D01*
X401320Y1315979D01*
Y1318000D01*
X400547Y1319868D01*
X399118Y1321297D01*
X397251Y1322070D01*
D02*
G37*
G36*
X752850Y1311910D02*
X750829D01*
X748962Y1311137D01*
X747533Y1309708D01*
X746760Y1307841D01*
Y1305820D01*
X747533Y1303952D01*
X748962Y1302523D01*
X750829Y1301750D01*
X752850D01*
X754718Y1302523D01*
X756147Y1303952D01*
X756920Y1305820D01*
Y1307841D01*
X756147Y1309708D01*
X754718Y1311137D01*
X752850Y1311910D01*
D02*
G37*
G36*
X1597040Y1302890D02*
X1577960D01*
Y1301285D01*
X1562298D01*
X1560563Y1301750D01*
X1558557D01*
X1556619Y1301231D01*
X1554881Y1300228D01*
X1553463Y1298809D01*
X1552459Y1297071D01*
X1551940Y1295133D01*
Y1293127D01*
X1552459Y1291189D01*
X1553463Y1289451D01*
X1554881Y1288033D01*
X1556619Y1287029D01*
X1558557Y1286510D01*
X1560563D01*
X1562501Y1287029D01*
X1562788Y1287195D01*
X1577062D01*
X1577960Y1286297D01*
X1577960Y1284890D01*
X1577960Y1284540D01*
Y1267810D01*
X1583615D01*
Y1212257D01*
X1582598Y1211984D01*
X1579702Y1210312D01*
X1577337Y1207948D01*
X1575665Y1205052D01*
X1574800Y1201822D01*
Y1198478D01*
X1575665Y1195248D01*
X1577337Y1192352D01*
X1579702Y1189987D01*
X1581897Y1188720D01*
X1581557Y1187450D01*
X1574800D01*
Y1162050D01*
X1583615D01*
Y1134855D01*
X1582345Y1134329D01*
X1581038Y1135636D01*
X1578722Y1136974D01*
X1576138Y1137666D01*
X1573462D01*
X1570878Y1136974D01*
X1568562Y1135636D01*
X1566670Y1133744D01*
X1565332Y1131428D01*
X1564640Y1128844D01*
Y1126168D01*
X1565332Y1123584D01*
X1566670Y1121268D01*
X1568562Y1119376D01*
X1570878Y1118038D01*
X1571433Y1117890D01*
Y1102367D01*
X1570493Y1101428D01*
X1569720Y1099560D01*
Y1097540D01*
X1570493Y1095672D01*
X1571922Y1094243D01*
X1573790Y1093470D01*
X1575811D01*
X1576690Y1093834D01*
X1577960Y1092986D01*
Y1090360D01*
X1577960Y1090010D01*
Y1089090D01*
X1577960Y1088740D01*
Y1081820D01*
X1587500D01*
X1597040D01*
Y1088740D01*
X1597040Y1089090D01*
Y1090010D01*
X1597040Y1090360D01*
Y1092986D01*
X1598310Y1093834D01*
X1599189Y1093470D01*
X1601210D01*
X1602090Y1093834D01*
X1603360Y1092986D01*
Y1090360D01*
X1603360Y1090010D01*
Y1089090D01*
X1603360Y1088740D01*
Y1081820D01*
X1612900D01*
X1622440D01*
Y1088740D01*
X1622440Y1089090D01*
Y1090010D01*
X1622440Y1090360D01*
Y1092986D01*
X1623710Y1093834D01*
X1624590Y1093470D01*
X1626611D01*
X1627490Y1093834D01*
X1628760Y1092986D01*
Y1090360D01*
X1628760Y1090010D01*
Y1089090D01*
X1628760Y1088740D01*
Y1081820D01*
X1638300D01*
X1647840D01*
Y1088740D01*
X1647840Y1089090D01*
Y1090010D01*
X1647840Y1090360D01*
Y1107090D01*
X1642185D01*
Y1162643D01*
X1643202Y1162915D01*
X1646098Y1164587D01*
X1648463Y1166952D01*
X1650134Y1169848D01*
X1651000Y1173078D01*
Y1176422D01*
X1650134Y1179652D01*
X1648463Y1182548D01*
X1646098Y1184912D01*
X1643202Y1186584D01*
X1642342Y1186815D01*
Y1188085D01*
X1643202Y1188316D01*
X1646098Y1189987D01*
X1648463Y1192352D01*
X1650134Y1195248D01*
X1651000Y1198478D01*
Y1201822D01*
X1650134Y1205052D01*
X1648463Y1207948D01*
X1646098Y1210312D01*
X1643202Y1211984D01*
X1639972Y1212850D01*
X1636628D01*
X1633398Y1211984D01*
X1630502Y1210312D01*
X1628138Y1207948D01*
X1626465Y1205052D01*
X1626193Y1204035D01*
X1625007D01*
X1624734Y1205052D01*
X1623062Y1207948D01*
X1620698Y1210312D01*
X1617802Y1211984D01*
X1614572Y1212850D01*
X1611228D01*
X1607998Y1211984D01*
X1605102Y1210312D01*
X1602737Y1207948D01*
X1601066Y1205052D01*
X1600793Y1204035D01*
X1599607D01*
X1599335Y1205052D01*
X1597663Y1207948D01*
X1595298Y1210312D01*
X1592402Y1211984D01*
X1591385Y1212257D01*
Y1267810D01*
X1597040D01*
Y1284540D01*
X1597040Y1284890D01*
Y1285810D01*
X1597040Y1286160D01*
Y1302890D01*
D02*
G37*
G36*
X659370Y1306210D02*
X652600D01*
Y1297940D01*
X659370D01*
Y1306210D01*
D02*
G37*
G36*
X1457340Y1302780D02*
X1449070D01*
Y1295510D01*
X1457340D01*
Y1302780D01*
D02*
G37*
G36*
X1446530D02*
X1438260D01*
Y1295510D01*
X1446530D01*
Y1302780D01*
D02*
G37*
G36*
X389631Y1305560D02*
X387609D01*
X385742Y1304787D01*
X384313Y1303358D01*
X383540Y1301490D01*
Y1299469D01*
X384313Y1297602D01*
X385742Y1296173D01*
X387609Y1295400D01*
X389631D01*
X391498Y1296173D01*
X392927Y1297602D01*
X393700Y1299469D01*
Y1301490D01*
X392927Y1303358D01*
X391498Y1304787D01*
X389631Y1305560D01*
D02*
G37*
G36*
X776981Y1304290D02*
X774959D01*
X773092Y1303517D01*
X771663Y1302088D01*
X770890Y1300220D01*
Y1298199D01*
X771663Y1296332D01*
X773092Y1294903D01*
X774959Y1294130D01*
X776981D01*
X778848Y1294903D01*
X780277Y1296332D01*
X781050Y1298199D01*
Y1300220D01*
X780277Y1302088D01*
X778848Y1303517D01*
X776981Y1304290D01*
D02*
G37*
G36*
X561081Y1311910D02*
X559059D01*
X557192Y1311137D01*
X555763Y1309708D01*
X554990Y1307841D01*
Y1305820D01*
X555763Y1303952D01*
X557192Y1302523D01*
X559059Y1301750D01*
X560599D01*
X561412Y1300795D01*
X561488Y1300577D01*
X561340Y1300220D01*
Y1298199D01*
X562113Y1296332D01*
X563542Y1294903D01*
X565410Y1294130D01*
X567430D01*
X569298Y1294903D01*
X570727Y1296332D01*
X571500Y1298199D01*
Y1300220D01*
X570727Y1302088D01*
X569298Y1303517D01*
X567430Y1304290D01*
X565891D01*
X565078Y1305245D01*
X565003Y1305463D01*
X565150Y1305820D01*
Y1307841D01*
X564377Y1309708D01*
X562948Y1311137D01*
X561081Y1311910D01*
D02*
G37*
G36*
X380741Y1290320D02*
X378719D01*
X376852Y1289547D01*
X375423Y1288118D01*
X374650Y1286250D01*
Y1284229D01*
X375423Y1282362D01*
X376852Y1280933D01*
X378719Y1280160D01*
X380741D01*
X382608Y1280933D01*
X384037Y1282362D01*
X384810Y1284229D01*
Y1286250D01*
X384037Y1288118D01*
X382608Y1289547D01*
X380741Y1290320D01*
D02*
G37*
G36*
X797300Y1281430D02*
X795279D01*
X793412Y1280657D01*
X791983Y1279228D01*
X791210Y1277361D01*
Y1275340D01*
X791983Y1273472D01*
X793412Y1272043D01*
X795279Y1271270D01*
X797300D01*
X799168Y1272043D01*
X800597Y1273472D01*
X801370Y1275340D01*
Y1277361D01*
X800597Y1279228D01*
X799168Y1280657D01*
X797300Y1281430D01*
D02*
G37*
G36*
X727450D02*
X725430D01*
X723562Y1280657D01*
X722133Y1279228D01*
X721360Y1277361D01*
Y1275340D01*
X722133Y1273472D01*
X723562Y1272043D01*
X725430Y1271270D01*
X727450D01*
X729318Y1272043D01*
X730747Y1273472D01*
X731520Y1275340D01*
Y1277361D01*
X730747Y1279228D01*
X729318Y1280657D01*
X727450Y1281430D01*
D02*
G37*
G36*
X585210D02*
X583190D01*
X581322Y1280657D01*
X579893Y1279228D01*
X579120Y1277361D01*
Y1275340D01*
X579893Y1273472D01*
X581322Y1272043D01*
X583190Y1271270D01*
X585210D01*
X587078Y1272043D01*
X588507Y1273472D01*
X589280Y1275340D01*
Y1277361D01*
X588507Y1279228D01*
X587078Y1280657D01*
X585210Y1281430D01*
D02*
G37*
G36*
X659370Y1275080D02*
X652600D01*
Y1266810D01*
X659370D01*
Y1275080D01*
D02*
G37*
G36*
X969010Y1483360D02*
X938530D01*
Y1452880D01*
X947296D01*
Y1395872D01*
X919982Y1368558D01*
X918578Y1366458D01*
X918086Y1363980D01*
Y1274621D01*
X916126Y1272662D01*
X914738Y1270258D01*
X914020Y1267578D01*
Y1264802D01*
X914738Y1262122D01*
X916126Y1259718D01*
X918088Y1257756D01*
X920492Y1256368D01*
X923172Y1255650D01*
X925948D01*
X928628Y1256368D01*
X931032Y1257756D01*
X932994Y1259718D01*
X934382Y1262122D01*
X935100Y1264802D01*
Y1267578D01*
X934382Y1270258D01*
X932994Y1272662D01*
X931034Y1274621D01*
Y1361298D01*
X958348Y1388612D01*
X959752Y1390712D01*
X960244Y1393190D01*
Y1452880D01*
X969010D01*
Y1483360D01*
D02*
G37*
G36*
X1414898Y1460880D02*
X1412122D01*
X1409442Y1460162D01*
X1407038Y1458774D01*
X1405076Y1456812D01*
X1403688Y1454408D01*
X1402970Y1451728D01*
Y1448952D01*
X1403688Y1446272D01*
X1405076Y1443868D01*
X1407038Y1441906D01*
X1409442Y1440518D01*
X1409625Y1440469D01*
Y1403689D01*
X1261966Y1256030D01*
X1261369D01*
X1259502Y1255257D01*
X1258073Y1253828D01*
X1257300Y1251961D01*
Y1249939D01*
X1258073Y1248072D01*
X1259502Y1246643D01*
X1261369Y1245870D01*
X1263391D01*
X1265258Y1246643D01*
X1266687Y1248072D01*
X1267460Y1249939D01*
Y1250536D01*
X1416257Y1399333D01*
X1417099Y1400593D01*
X1417395Y1402080D01*
Y1440469D01*
X1417578Y1440518D01*
X1419982Y1441906D01*
X1421944Y1443868D01*
X1423332Y1446272D01*
X1424050Y1448952D01*
Y1451728D01*
X1423332Y1454408D01*
X1421944Y1456812D01*
X1419982Y1458774D01*
X1417578Y1460162D01*
X1414898Y1460880D01*
D02*
G37*
G36*
X1111250Y1483360D02*
X1080770D01*
Y1452880D01*
X1089536D01*
Y1274621D01*
X1087576Y1272662D01*
X1086188Y1270258D01*
X1085470Y1267578D01*
Y1264802D01*
X1086188Y1262122D01*
X1087576Y1259718D01*
X1089536Y1257759D01*
Y1247140D01*
X1090028Y1244662D01*
X1091432Y1242562D01*
X1101592Y1232402D01*
X1103692Y1230998D01*
X1106170Y1230506D01*
X1183640D01*
X1186118Y1230998D01*
X1188218Y1232402D01*
X1199648Y1243832D01*
X1201052Y1245932D01*
X1201544Y1248410D01*
Y1338749D01*
X1201695Y1338836D01*
X1203704Y1340845D01*
X1205125Y1343305D01*
X1205860Y1346049D01*
Y1348891D01*
X1205125Y1351635D01*
X1203704Y1354095D01*
X1201695Y1356104D01*
X1199235Y1357525D01*
X1196490Y1358260D01*
X1193650D01*
X1190905Y1357525D01*
X1188445Y1356104D01*
X1186436Y1354095D01*
X1185015Y1351635D01*
X1184280Y1348891D01*
Y1346049D01*
X1185015Y1343305D01*
X1186436Y1340845D01*
X1188445Y1338836D01*
X1188596Y1338749D01*
Y1251092D01*
X1180958Y1243454D01*
X1108852D01*
X1102484Y1249822D01*
Y1257759D01*
X1104444Y1259718D01*
X1105832Y1262122D01*
X1106550Y1264802D01*
Y1267578D01*
X1105832Y1270258D01*
X1104444Y1272662D01*
X1102484Y1274621D01*
Y1452880D01*
X1111250D01*
Y1483360D01*
D02*
G37*
G36*
X1491098Y1460880D02*
X1488322D01*
X1485642Y1460162D01*
X1483238Y1458774D01*
X1481276Y1456812D01*
X1479888Y1454408D01*
X1479170Y1451728D01*
Y1448952D01*
X1479888Y1446272D01*
X1481276Y1443868D01*
X1483238Y1441906D01*
X1485642Y1440518D01*
X1485825Y1440469D01*
Y1377019D01*
X1446191Y1337385D01*
X1362710D01*
X1361223Y1337089D01*
X1359963Y1336247D01*
X1247996Y1224280D01*
X1247400D01*
X1245532Y1223507D01*
X1244103Y1222078D01*
X1243330Y1220210D01*
Y1218189D01*
X1244103Y1216322D01*
X1245532Y1214893D01*
X1247400Y1214120D01*
X1249420D01*
X1251288Y1214893D01*
X1252717Y1216322D01*
X1253490Y1218189D01*
Y1218786D01*
X1364319Y1329615D01*
X1447800D01*
X1449287Y1329911D01*
X1450547Y1330753D01*
X1492457Y1372663D01*
X1493299Y1373923D01*
X1493595Y1375410D01*
Y1440469D01*
X1493778Y1440518D01*
X1496182Y1441906D01*
X1498144Y1443868D01*
X1499532Y1446272D01*
X1500250Y1448952D01*
Y1451728D01*
X1499532Y1454408D01*
X1498144Y1456812D01*
X1496182Y1458774D01*
X1493778Y1460162D01*
X1491098Y1460880D01*
D02*
G37*
G36*
X1338698D02*
X1335922D01*
X1333242Y1460162D01*
X1330838Y1458774D01*
X1328876Y1456812D01*
X1327488Y1454408D01*
X1326770Y1451728D01*
Y1448952D01*
X1327488Y1446272D01*
X1328876Y1443868D01*
X1330838Y1441906D01*
X1333242Y1440518D01*
X1333425Y1440469D01*
Y1345269D01*
X1231693Y1243537D01*
X1230851Y1242277D01*
X1230555Y1240790D01*
Y1222500D01*
X1230133Y1222078D01*
X1229360Y1220210D01*
Y1218189D01*
X1230133Y1216322D01*
X1231562Y1214893D01*
X1233429Y1214120D01*
X1235451D01*
X1237318Y1214893D01*
X1238747Y1216322D01*
X1239520Y1218189D01*
Y1220210D01*
X1238747Y1222078D01*
X1238325Y1222500D01*
Y1239181D01*
X1340057Y1340913D01*
X1340899Y1342173D01*
X1341195Y1343660D01*
Y1440469D01*
X1341378Y1440518D01*
X1343782Y1441906D01*
X1345744Y1443868D01*
X1347132Y1446272D01*
X1347850Y1448952D01*
Y1451728D01*
X1347132Y1454408D01*
X1345744Y1456812D01*
X1343782Y1458774D01*
X1341378Y1460162D01*
X1338698Y1460880D01*
D02*
G37*
G36*
X1081150Y1276730D02*
X1060070D01*
Y1255650D01*
X1066725D01*
Y1214880D01*
X1066303Y1214458D01*
X1065530Y1212590D01*
Y1210570D01*
X1066303Y1208702D01*
X1067732Y1207273D01*
X1069600Y1206500D01*
X1071620D01*
X1073488Y1207273D01*
X1074917Y1208702D01*
X1075690Y1210570D01*
Y1212590D01*
X1074917Y1214458D01*
X1074495Y1214880D01*
Y1255650D01*
X1081150D01*
Y1276730D01*
D02*
G37*
G36*
X909700D02*
X888620D01*
Y1255650D01*
X895275D01*
Y1214880D01*
X894853Y1214458D01*
X894080Y1212590D01*
Y1210570D01*
X894853Y1208702D01*
X896282Y1207273D01*
X898149Y1206500D01*
X900171D01*
X902038Y1207273D01*
X903467Y1208702D01*
X904240Y1210570D01*
Y1212590D01*
X903467Y1214458D01*
X903045Y1214880D01*
Y1255650D01*
X909700D01*
Y1276730D01*
D02*
G37*
G36*
X1492140Y1183620D02*
X1487170D01*
Y1168400D01*
X1492140D01*
Y1183620D01*
D02*
G37*
G36*
X1484630D02*
X1479660D01*
Y1168400D01*
X1484630D01*
Y1183620D01*
D02*
G37*
G36*
X1492140Y1165860D02*
X1487170D01*
Y1150640D01*
X1492140D01*
Y1165860D01*
D02*
G37*
G36*
X1484630D02*
X1479660D01*
Y1150640D01*
X1484630D01*
Y1165860D01*
D02*
G37*
G36*
X813811Y1109980D02*
X811789D01*
X809922Y1109207D01*
X808493Y1107778D01*
X807720Y1105910D01*
Y1103889D01*
X808493Y1102022D01*
X809922Y1100593D01*
X811789Y1099820D01*
X813811D01*
X815678Y1100593D01*
X817107Y1102022D01*
X817880Y1103889D01*
Y1105910D01*
X817107Y1107778D01*
X815678Y1109207D01*
X813811Y1109980D01*
D02*
G37*
G36*
X829051Y1101090D02*
X827029D01*
X825162Y1100317D01*
X823733Y1098888D01*
X822960Y1097020D01*
Y1094999D01*
X823733Y1093132D01*
X825162Y1091703D01*
X827029Y1090930D01*
X829051D01*
X830918Y1091703D01*
X832347Y1093132D01*
X833120Y1094999D01*
Y1097020D01*
X832347Y1098888D01*
X830918Y1100317D01*
X829051Y1101090D01*
D02*
G37*
G36*
X813811Y1092200D02*
X811789D01*
X809922Y1091427D01*
X808493Y1089998D01*
X807720Y1088130D01*
Y1086109D01*
X808493Y1084242D01*
X809922Y1082813D01*
X811789Y1082040D01*
X813811D01*
X815678Y1082813D01*
X817107Y1084242D01*
X817880Y1086109D01*
Y1088130D01*
X817107Y1089998D01*
X815678Y1091427D01*
X813811Y1092200D01*
D02*
G37*
G36*
X1647840Y1079280D02*
X1639570D01*
Y1072010D01*
X1647840D01*
Y1079280D01*
D02*
G37*
G36*
X1637030D02*
X1628760D01*
Y1072010D01*
X1637030D01*
Y1079280D01*
D02*
G37*
G36*
X1622440D02*
X1614170D01*
Y1072010D01*
X1622440D01*
Y1079280D01*
D02*
G37*
G36*
X1611630D02*
X1603360D01*
Y1072010D01*
X1611630D01*
Y1079280D01*
D02*
G37*
G36*
X1597040D02*
X1588770D01*
Y1072010D01*
X1597040D01*
Y1079280D01*
D02*
G37*
G36*
X1586230D02*
X1577960D01*
Y1072010D01*
X1586230D01*
Y1079280D01*
D02*
G37*
G36*
X647440Y981710D02*
X645419D01*
X643552Y980937D01*
X642123Y979508D01*
X641350Y977641D01*
Y975620D01*
X642123Y973752D01*
X643552Y972323D01*
X645419Y971550D01*
X647440D01*
X649308Y972323D01*
X650737Y973752D01*
X651510Y975620D01*
Y977641D01*
X650737Y979508D01*
X649308Y980937D01*
X647440Y981710D01*
D02*
G37*
G36*
X674110Y974090D02*
X672089D01*
X670222Y973317D01*
X668793Y971888D01*
X668020Y970021D01*
Y967999D01*
X668793Y966132D01*
X670222Y964703D01*
X672089Y963930D01*
X674110D01*
X675978Y964703D01*
X677407Y966132D01*
X678180Y967999D01*
Y970021D01*
X677407Y971888D01*
X675978Y973317D01*
X674110Y974090D01*
D02*
G37*
G36*
X982720Y966470D02*
X980699D01*
X978832Y965697D01*
X977403Y964268D01*
X976630Y962401D01*
Y960379D01*
X977403Y958512D01*
X978832Y957083D01*
X980699Y956310D01*
X982720D01*
X984588Y957083D01*
X985325Y957821D01*
X986202Y958380D01*
X986985Y957821D01*
X987767Y957038D01*
X989635Y956265D01*
X991656D01*
X993523Y957038D01*
X994260Y957776D01*
X995090Y958368D01*
X995920Y957776D01*
X996657Y957038D01*
X998525Y956265D01*
X1000546D01*
X1002413Y957038D01*
X1003842Y958467D01*
X1004615Y960334D01*
Y962355D01*
X1003842Y964222D01*
X1002413Y965651D01*
X1000546Y966425D01*
X998525D01*
X996657Y965651D01*
X995920Y964914D01*
X995090Y964321D01*
X994260Y964914D01*
X993523Y965651D01*
X991656Y966425D01*
X989635D01*
X987767Y965651D01*
X987030Y964914D01*
X986153Y964355D01*
X985370Y964914D01*
X984588Y965697D01*
X982720Y966470D01*
D02*
G37*
G36*
X903150Y903620D02*
X896380D01*
Y895350D01*
X903150D01*
Y903620D01*
D02*
G37*
G36*
Y892810D02*
X896380D01*
Y884540D01*
X903150D01*
Y892810D01*
D02*
G37*
G36*
X709670Y869950D02*
X707650D01*
X705782Y869177D01*
X704353Y867748D01*
X704215Y867413D01*
X702945D01*
X702807Y867748D01*
X701378Y869177D01*
X699510Y869950D01*
X697489D01*
X695622Y869177D01*
X694193Y867748D01*
X693420Y865881D01*
Y863859D01*
X694193Y861992D01*
X695037Y861149D01*
X695015Y861036D01*
X694476Y859914D01*
X694347Y859897D01*
X693532Y860368D01*
X690948Y861060D01*
X688272D01*
X685688Y860368D01*
X683372Y859030D01*
X681480Y857138D01*
X680142Y854822D01*
X679450Y852238D01*
Y849562D01*
X680142Y846978D01*
X681480Y844662D01*
X683372Y842770D01*
X685688Y841432D01*
X685902Y841375D01*
Y840105D01*
X685688Y840048D01*
X683372Y838710D01*
X681480Y836818D01*
X680142Y834502D01*
X679450Y831918D01*
Y829242D01*
X680142Y826658D01*
X681480Y824342D01*
X683372Y822450D01*
X685688Y821112D01*
X688272Y820420D01*
X690948D01*
X693532Y821112D01*
X695848Y822450D01*
X697740Y824342D01*
X699078Y826658D01*
X699226Y827213D01*
X706957D01*
X713740Y820430D01*
Y819409D01*
X714513Y817542D01*
X715942Y816113D01*
X717810Y815340D01*
X719830D01*
X721698Y816113D01*
X722435Y816851D01*
X723265Y817444D01*
X724095Y816851D01*
X724832Y816113D01*
X726700Y815340D01*
X728720D01*
X730588Y816113D01*
X732017Y817542D01*
X732790Y819409D01*
Y821431D01*
X732017Y823298D01*
X730588Y824727D01*
X728720Y825500D01*
X726700D01*
X724832Y824727D01*
X724095Y823989D01*
X723265Y823396D01*
X722435Y823989D01*
X721698Y824727D01*
X719830Y825500D01*
X718192D01*
X710732Y832961D01*
X709640Y833690D01*
X708351Y833947D01*
X699226D01*
X699078Y834502D01*
X697740Y836818D01*
X695848Y838710D01*
X693532Y840048D01*
X693317Y840105D01*
Y841375D01*
X693532Y841432D01*
X695848Y842770D01*
X697740Y844662D01*
X699078Y846978D01*
X699226Y847533D01*
X704850D01*
X706138Y847790D01*
X707231Y848519D01*
X711041Y852329D01*
X711770Y853422D01*
X712027Y854710D01*
Y861052D01*
X712967Y861992D01*
X713740Y863859D01*
Y865881D01*
X712967Y867748D01*
X711538Y869177D01*
X709670Y869950D01*
D02*
G37*
G36*
X811210Y861570D02*
X801690D01*
Y857250D01*
X811210D01*
Y861570D01*
D02*
G37*
G36*
Y854710D02*
X801690D01*
Y850390D01*
X811210D01*
Y854710D01*
D02*
G37*
G36*
X906160Y832270D02*
X897890D01*
Y825500D01*
X906160D01*
Y832270D01*
D02*
G37*
G36*
X877570Y832030D02*
X869300D01*
Y825260D01*
X877570D01*
Y832030D01*
D02*
G37*
G36*
X857900Y796470D02*
X849630D01*
Y789700D01*
X857900D01*
Y796470D01*
D02*
G37*
G36*
X847090D02*
X838820D01*
Y789700D01*
X847090D01*
Y796470D01*
D02*
G37*
G36*
X736550Y784650D02*
X729780D01*
Y776380D01*
X736550D01*
Y784650D01*
D02*
G37*
G36*
X1006851Y784860D02*
X1004829D01*
X1002962Y784087D01*
X1001533Y782658D01*
X1000760Y780790D01*
Y778770D01*
X1001533Y776902D01*
X1002962Y775473D01*
X1004829Y774700D01*
X1006851D01*
X1008718Y775473D01*
X1010147Y776902D01*
X1010920Y778770D01*
Y780790D01*
X1010147Y782658D01*
X1008718Y784087D01*
X1006851Y784860D01*
D02*
G37*
G36*
X703410Y761320D02*
X695140D01*
Y754550D01*
X703410D01*
Y761320D01*
D02*
G37*
G36*
X738810Y756060D02*
X727540D01*
Y748790D01*
X738810D01*
Y756060D01*
D02*
G37*
G36*
X1031308Y751840D02*
X1028632D01*
X1026048Y751148D01*
X1023732Y749810D01*
X1021840Y747918D01*
X1020502Y745602D01*
X1019810Y743018D01*
Y740342D01*
X1020502Y737758D01*
X1020790Y737261D01*
X1013335Y729807D01*
X1002038D01*
X1001098Y730747D01*
X999230Y731520D01*
X997209D01*
X995342Y730747D01*
X993913Y729318D01*
X993140Y727450D01*
Y725430D01*
X993913Y723562D01*
X995342Y722133D01*
X997209Y721360D01*
X999230D01*
X1001098Y722133D01*
X1002038Y723073D01*
X1014730D01*
X1016018Y723330D01*
X1017111Y724059D01*
X1025551Y732500D01*
X1026048Y732212D01*
X1028632Y731520D01*
X1031308D01*
X1033892Y732212D01*
X1036208Y733550D01*
X1038100Y735442D01*
X1039438Y737758D01*
X1040130Y740342D01*
Y743018D01*
X1039438Y745602D01*
X1038100Y747918D01*
X1036208Y749810D01*
X1033892Y751148D01*
X1031308Y751840D01*
D02*
G37*
G36*
X960420Y721360D02*
X953650D01*
Y713090D01*
X960420D01*
Y721360D01*
D02*
G37*
G36*
X712590Y720740D02*
X705820D01*
Y712470D01*
X712590D01*
Y720740D01*
D02*
G37*
G36*
Y709930D02*
X705820D01*
Y701660D01*
X712590D01*
Y709930D01*
D02*
G37*
G36*
X1003480Y701690D02*
X996710D01*
Y693420D01*
X1003480D01*
Y701690D01*
D02*
G37*
G36*
X749420Y697230D02*
X742650D01*
Y688960D01*
X749420D01*
Y697230D01*
D02*
G37*
G36*
X1003480Y690880D02*
X996710D01*
Y682610D01*
X1003480D01*
Y690880D01*
D02*
G37*
G36*
Y675020D02*
X996710D01*
Y666750D01*
X1003480D01*
Y675020D01*
D02*
G37*
G36*
Y664210D02*
X996710D01*
Y655940D01*
X1003480D01*
Y664210D01*
D02*
G37*
G36*
X777480Y650890D02*
X770710D01*
Y642620D01*
X777480D01*
Y650890D01*
D02*
G37*
G36*
X962684Y619258D02*
X956836Y613410D01*
X961623Y608623D01*
X967471Y614471D01*
X962684Y619258D01*
D02*
G37*
G36*
X955040Y611614D02*
X949192Y605766D01*
X953979Y600979D01*
X959827Y606827D01*
X955040Y611614D01*
D02*
G37*
G36*
X981451Y624840D02*
X979429D01*
X977562Y624067D01*
X976133Y622638D01*
X975360Y620770D01*
Y618750D01*
X976133Y616882D01*
X976555Y616460D01*
Y613820D01*
X970900D01*
Y596740D01*
Y593165D01*
X965960D01*
X965538Y593587D01*
X963671Y594360D01*
X961649D01*
X959782Y593587D01*
X958353Y592158D01*
X957580Y590290D01*
Y588270D01*
X958353Y586402D01*
X959782Y584973D01*
X961649Y584200D01*
X963671D01*
X965538Y584973D01*
X965960Y585395D01*
X970900D01*
Y580740D01*
X989980D01*
Y596740D01*
Y613820D01*
X984325D01*
Y616460D01*
X984747Y616882D01*
X985520Y618750D01*
Y620770D01*
X984747Y622638D01*
X983318Y624067D01*
X981451Y624840D01*
D02*
G37*
G36*
X759460Y588490D02*
X751190D01*
Y581720D01*
X759460D01*
Y588490D01*
D02*
G37*
G36*
X940450Y588250D02*
X932180D01*
Y581480D01*
X940450D01*
Y588250D01*
D02*
G37*
G36*
X876300D02*
X868030D01*
Y581480D01*
X876300D01*
Y588250D01*
D02*
G37*
G36*
X841390Y588130D02*
X833120D01*
Y581360D01*
X841390D01*
Y588130D01*
D02*
G37*
G36*
X1461770Y1183620D02*
Y1168400D01*
X1466740D01*
Y1183620D01*
X1461770D01*
D02*
G37*
G36*
X1466740Y1165860D02*
X1461770D01*
Y1150640D01*
X1466740D01*
Y1165860D01*
D02*
G37*
G36*
X1105910Y1113790D02*
X1103889D01*
X1102022Y1113017D01*
X1100593Y1111588D01*
X1099820Y1109721D01*
Y1107700D01*
X1100593Y1105832D01*
X1102022Y1104403D01*
X1103889Y1103630D01*
X1105910D01*
X1107778Y1104403D01*
X1109207Y1105832D01*
X1109980Y1107700D01*
Y1109721D01*
X1109207Y1111588D01*
X1107778Y1113017D01*
X1105910Y1113790D01*
D02*
G37*
G36*
X775810Y743870D02*
X764540D01*
Y736600D01*
X775810D01*
Y743870D01*
D02*
G37*
G36*
Y734060D02*
X764540D01*
Y726790D01*
X775810D01*
Y734060D01*
D02*
G37*
%LPD*%
D10*
X953770Y1393190D02*
Y1468120D01*
X1045972Y1407922D02*
Y1468120D01*
X1096010Y1266190D02*
Y1468120D01*
X924560Y1266190D02*
Y1363980D01*
X953770Y1393190D01*
X1096010Y1247140D02*
Y1266190D01*
X1106170Y1236980D02*
X1183640D01*
X1096010Y1247140D02*
X1106170Y1236980D01*
X1183640D02*
X1195070Y1248410D01*
Y1347470D01*
X1017270D02*
Y1379220D01*
X1045972Y1407922D01*
D11*
X931672Y715422D02*
X937380Y721130D01*
X924186Y707644D02*
X931672Y715130D01*
X920302Y712022D02*
X925830Y717550D01*
X919592Y707644D02*
X924186D01*
X918223Y712022D02*
X920302D01*
X931672Y715130D02*
Y715422D01*
X746412Y725518D02*
Y740365D01*
Y725518D02*
X753988Y717942D01*
X750476Y727201D02*
X755671Y722006D01*
X775932D01*
X750476Y727201D02*
Y742048D01*
X753988Y717942D02*
X774249D01*
X1416110Y1207830D02*
X1435100D01*
X975360Y1195070D02*
X1403350D01*
X1416110Y1207830D01*
X742950Y962660D02*
X975360Y1195070D01*
X708351Y830580D02*
X718511Y820420D01*
X689610Y830580D02*
X708351D01*
X226930Y1330560D02*
X233680Y1337310D01*
X240430Y1344060D01*
X248030D01*
X219330Y1330560D02*
X226930D01*
X704850Y850900D02*
X708660Y854710D01*
X689610Y850900D02*
X704850D01*
X718511Y820420D02*
X718820D01*
X708660Y854710D02*
Y862330D01*
X1014730Y726440D02*
X1029970Y741680D01*
X995680D02*
X1029970Y775970D01*
X998220Y726440D02*
X1014730D01*
X956310Y741680D02*
X995680D01*
X139700Y1357630D02*
Y1384300D01*
X165100Y1367790D02*
Y1384300D01*
X1625600Y1098550D02*
Y1127760D01*
X1600200Y1098550D02*
Y1127760D01*
X1574800Y1098550D02*
Y1127506D01*
X811530Y618236D02*
Y629920D01*
X819408Y637798D01*
X818979Y663922D02*
X823076Y668020D01*
X858876D01*
X862974Y663922D01*
X818979Y659638D02*
Y663922D01*
X909062Y671072D02*
X915670Y664464D01*
X900430Y671072D02*
X909062D01*
X914400Y779780D02*
Y792990D01*
X868483Y646319D02*
X869950Y644852D01*
Y643890D02*
Y644852D01*
X868483Y646319D02*
Y659130D01*
X853479D02*
X853972Y658638D01*
X858036Y627841D02*
Y658685D01*
X853972Y627841D02*
Y658638D01*
X858036Y658685D02*
X858481Y659130D01*
X868483D02*
X868680Y659327D01*
X1056640Y701040D02*
Y976630D01*
X842010Y643582D02*
X843477Y645049D01*
X842010Y642620D02*
Y643582D01*
X843477Y645049D02*
Y659130D01*
X819408Y637798D02*
Y650782D01*
X823472Y649099D02*
X827965Y653592D01*
Y658622D01*
X828473Y659130D01*
X823043Y654417D02*
Y658701D01*
X819408Y650782D02*
X823043Y654417D01*
Y658701D02*
X823472Y659130D01*
Y635512D02*
Y649099D01*
X820420Y632460D02*
X823472Y635512D01*
X1049020Y718820D02*
Y969010D01*
X1435100Y985520D02*
X1473200Y1023620D01*
X803910Y985520D02*
X1435100D01*
X762000Y943610D02*
X803910Y985520D01*
X817962Y748538D02*
X818471Y748030D01*
X1473200Y1023620D02*
Y1207830D01*
X878840Y764848D02*
Y765810D01*
X876554Y762562D02*
X878840Y764848D01*
X947420Y777240D02*
Y961390D01*
X938530Y774700D02*
Y961390D01*
X889254Y762196D02*
X926026D01*
X938530Y774700D01*
X925068Y754888D02*
X947420Y777240D01*
X883487Y756429D02*
X889254Y762196D01*
X891062Y754888D02*
X925068D01*
X893997Y750693D02*
X927223D01*
X956310Y779780D02*
Y961390D01*
X932273Y738501D02*
X935452Y741680D01*
X927223Y750693D02*
X956310Y779780D01*
X935452Y741680D02*
X956310D01*
X934849Y735330D02*
X949960D01*
X938749Y750724D02*
X956374D01*
X928907Y746629D02*
X939197Y756920D01*
X949960D01*
X933957Y734437D02*
X934849Y735330D01*
X930590Y742565D02*
X938749Y750724D01*
X916236Y738501D02*
X932273D01*
X917920Y734437D02*
X933957D01*
X902839Y746629D02*
X928907D01*
X914553Y742565D02*
X930590D01*
X909568Y726086D02*
X917920Y734437D01*
X900430Y744220D02*
X902839Y746629D01*
X908584Y736596D02*
X914553Y742565D01*
X910267Y732532D02*
X916236Y738501D01*
X910844Y721614D02*
X917698Y728468D01*
X920879D01*
X907150Y732532D02*
X910267D01*
X926120Y727371D02*
X926800Y726690D01*
X920879Y728468D02*
X921977Y727371D01*
X926120D01*
X906213Y731595D02*
X907150Y732532D01*
X900938Y736596D02*
X908584D01*
X900430Y736088D02*
X900938Y736596D01*
X900430Y731087D02*
X900938Y731595D01*
X906213D01*
X917893Y719773D02*
X918210Y720090D01*
X914750Y719773D02*
X917893D01*
X900430Y726086D02*
X909568D01*
X888488Y748030D02*
Y750824D01*
X889425Y751761D01*
Y753251D02*
X891062Y754888D01*
X889425Y751761D02*
Y753251D01*
X893490Y750185D02*
X893997Y750693D01*
X893490Y748030D02*
Y750185D01*
X812800Y759460D02*
X813762D01*
X816332Y756890D01*
X818896D02*
X822964Y752822D01*
X816332Y756890D02*
X818896D01*
X915788Y696078D02*
X920500Y700790D01*
X921000D01*
X905217Y721614D02*
X910844D01*
X912527Y717550D02*
X914750Y719773D01*
X906900Y717550D02*
X912527D01*
X912066Y705866D02*
X918223Y712022D01*
X913027Y701079D02*
X919592Y707644D01*
X755650Y807897D02*
Y949960D01*
X990600Y1184910D01*
X742950Y808323D02*
Y962660D01*
X749300Y956310D02*
X982980Y1189990D01*
X749300Y807720D02*
Y956310D01*
X990600Y1184910D02*
X1449070D01*
X982980Y1189990D02*
X1440210D01*
X862974Y659638D02*
Y663922D01*
X818471Y659130D02*
X818979Y659638D01*
X862974D02*
X863482Y659130D01*
X885190Y763879D02*
Y772160D01*
X858481Y757397D02*
X860806Y759722D01*
X879423Y758112D02*
X885190Y763879D01*
X883487Y748030D02*
Y756429D01*
X866648Y757302D02*
Y765810D01*
X858481Y748030D02*
Y757397D01*
X820420Y618236D02*
Y632460D01*
X1625600Y1098550D02*
X1638300D01*
X1600200D02*
X1612900D01*
X1574800D02*
X1587500D01*
X782324Y715614D02*
X811061D01*
X775932Y722006D02*
X782324Y715614D01*
X780641Y711551D02*
X811061D01*
X774249Y717942D02*
X780641Y711551D01*
X900645Y705866D02*
X912066D01*
X900430Y701079D02*
X913027D01*
X900743Y711395D02*
X909007D01*
X900430Y706081D02*
X900645Y705866D01*
X900938Y716591D02*
X905941D01*
X900430Y721084D02*
X900938Y721592D01*
X909007Y711395D02*
X909320Y711708D01*
X905941Y716591D02*
X906900Y717550D01*
X900938Y721592D02*
X905195D01*
X905217Y721614D01*
X900430Y711082D02*
X900743Y711395D01*
X900430Y716083D02*
X900938Y716591D01*
X937380Y721130D02*
Y722630D01*
X892390Y704836D02*
X895638Y701587D01*
X892390Y704836D02*
Y735130D01*
X888335Y739184D02*
X892390Y735130D01*
X900430Y696078D02*
X915788D01*
X878840Y808990D02*
X878960Y809110D01*
X878840Y786980D02*
Y808990D01*
X853479Y748030D02*
X853987Y747522D01*
Y743238D02*
Y747522D01*
Y743238D02*
X858042Y739184D01*
X888335D01*
X895638Y701587D02*
X899922D01*
X900430Y701079D01*
X903224Y666070D02*
X944433Y624861D01*
X930889Y680606D02*
X930938Y680655D01*
X959808D01*
X960700Y681548D01*
Y691123D01*
X932622Y676591D02*
X959808D01*
X900899Y680606D02*
X930889D01*
X932572Y676542D02*
X932622Y676591D01*
X900899Y676542D02*
X932572D01*
X944433Y624017D02*
Y624861D01*
X960700Y666123D02*
Y675698D01*
X959808Y676591D02*
X960700Y675698D01*
X900430Y681074D02*
X900899Y680606D01*
X900430Y676073D02*
X900899Y676542D01*
X900430Y741089D02*
Y744220D01*
X872490Y762674D02*
Y772160D01*
X871295Y761479D02*
X872490Y762674D01*
X879423Y752835D02*
Y758112D01*
X876554Y760991D02*
Y762562D01*
X875359Y759796D02*
X876554Y760991D01*
X871295Y756202D02*
Y761479D01*
X875359Y754518D02*
Y759796D01*
X853479Y761619D02*
X878840Y786980D01*
X853479Y748030D02*
Y761619D01*
X878486Y748030D02*
X878994Y748538D01*
Y752406D02*
X879423Y752835D01*
X878994Y748538D02*
Y752406D01*
X873992Y753152D02*
X875359Y754518D01*
X868991Y753898D02*
X871295Y756202D01*
X873992Y748538D02*
Y753152D01*
X873484Y748030D02*
X873992Y748538D01*
X868991D02*
Y753898D01*
X863482Y748030D02*
Y754136D01*
X868483Y748030D02*
X868991Y748538D01*
X863482Y754136D02*
X866648Y757302D01*
X822964Y748538D02*
X823472Y748030D01*
X824230Y774545D02*
X843477Y755298D01*
X822964Y748538D02*
Y752822D01*
X789376Y797905D02*
X832966Y754314D01*
X785312Y796221D02*
Y884172D01*
X838476Y748030D02*
Y754552D01*
X820166Y772862D02*
X838476Y754552D01*
X820166Y772862D02*
Y812546D01*
X785312Y796221D02*
X827965Y753568D01*
X843477Y748030D02*
Y755298D01*
X832966Y748538D02*
Y754314D01*
X824230Y774545D02*
Y798334D01*
X789376Y797905D02*
Y875536D01*
X827965Y748538D02*
Y753568D01*
Y748538D02*
X828473Y748030D01*
X832966Y748538D02*
X833474Y748030D01*
X762000Y807720D02*
X806450Y763270D01*
Y750570D02*
Y763270D01*
Y750570D02*
X808990Y748030D01*
X818471D01*
X762000Y807720D02*
Y943610D01*
X797306Y741027D02*
Y759714D01*
X742950Y808323D02*
X793242Y758031D01*
X755650Y807897D02*
X801370Y762177D01*
Y744220D02*
Y762177D01*
X793242Y739343D02*
Y758031D01*
X749300Y807720D02*
X797306Y759714D01*
X804501Y741089D02*
X811530D01*
X793242Y739343D02*
X805992Y726594D01*
X801370Y744220D02*
X804501Y741089D01*
X797306Y741027D02*
X806738Y731595D01*
X800068Y721084D02*
X811530D01*
X797252Y723900D02*
X800068Y721084D01*
X796290Y723900D02*
X797252D01*
X811022Y726594D02*
X811530Y726086D01*
X805992Y726594D02*
X811022D01*
X1440210Y1189990D02*
X1447800Y1197580D01*
Y1207830D01*
X1449070Y1184910D02*
X1457562Y1193402D01*
Y1204892D02*
X1460500Y1207830D01*
X1457562Y1193402D02*
Y1204892D01*
X806738Y731595D02*
X811022D01*
X811530Y731087D01*
X785312Y884172D02*
X795220Y894080D01*
X789376Y875536D02*
X795220Y881380D01*
Y894080D02*
X800420D01*
X795220Y881380D02*
X800420D01*
X853440Y845820D02*
Y855660D01*
X853120Y855980D02*
X853440Y855660D01*
X820166Y812546D02*
X853440Y845820D01*
X858320Y868680D02*
X864164Y862836D01*
Y838268D02*
Y862836D01*
X824230Y798334D02*
X864164Y838268D01*
X853120Y868680D02*
X858320D01*
X761780Y757330D02*
X763270D01*
X759270D02*
X761780D01*
X747863Y745923D02*
X759270Y757330D01*
X747863Y744661D02*
X750476Y742048D01*
X811061Y715614D02*
X811530Y716083D01*
X744989Y741787D02*
X746412Y740365D01*
X740858Y741787D02*
X744989D01*
X726270Y735330D02*
X731508Y740568D01*
X747863Y744661D02*
Y745923D01*
X739639Y740568D02*
X740858Y741787D01*
X731508Y740568D02*
X739639D01*
X811061Y711551D02*
X811530Y711082D01*
X900430Y666070D02*
X903224D01*
X858036Y627841D02*
X864004Y621873D01*
X848004D02*
X853972Y627841D01*
X848004Y620873D02*
Y621873D01*
X864004Y620873D02*
Y621873D01*
X207010Y1361801D02*
Y1379000D01*
X219330Y1372000D02*
X226330Y1379000D01*
X219330Y1348560D02*
Y1372000D01*
X205026Y1335060D02*
X219330D01*
X198628Y1341458D02*
X205026Y1335060D01*
X198628Y1341458D02*
Y1353419D01*
X207010Y1361801D01*
X250284Y1325734D02*
Y1326060D01*
X248030D02*
X250284D01*
D16*
X1596390Y1393190D02*
Y1415830D01*
X1485900Y1282700D02*
X1596390Y1393190D01*
X1337310Y1343660D02*
Y1450340D01*
X1234440Y1240790D02*
X1337310Y1343660D01*
X1234440Y1219200D02*
Y1240790D01*
X1413510Y1402080D02*
Y1450340D01*
X1262380Y1250950D02*
X1413510Y1402080D01*
X1489710Y1375410D02*
Y1450340D01*
X1447800Y1333500D02*
X1489710Y1375410D01*
X1362710Y1333500D02*
X1447800D01*
X1248410Y1219200D02*
X1362710Y1333500D01*
X895230Y619760D02*
X895350Y619880D01*
X883920Y619760D02*
X895230D01*
X185420Y1463040D02*
X204490D01*
X218710Y1477260D01*
Y1482010D01*
X201530Y1444910D02*
X230980Y1474360D01*
X193960Y1444910D02*
X201530D01*
X230980Y1474360D02*
Y1481280D01*
X765690Y698500D02*
X779780D01*
X765690Y698500D02*
X765690Y698500D01*
X794748D02*
X797249Y701001D01*
X779780Y698500D02*
X794748D01*
X797249Y701001D02*
X811530D01*
X728860Y711200D02*
X728860Y711200D01*
X1515110Y1037590D02*
Y1261110D01*
X1485900Y1207830D02*
X1515050D01*
X1515110Y1207770D01*
X811530Y660630D02*
Y664972D01*
X793750Y642850D02*
X811530Y660630D01*
X793750Y641350D02*
Y642850D01*
Y641350D02*
X803910D01*
X802640Y628650D02*
X814836Y640846D01*
X772160Y628650D02*
X802640D01*
X882650Y635000D02*
X895230D01*
X895350Y634880D01*
X863482Y638928D02*
Y659130D01*
X871371Y631175D02*
X873306Y629241D01*
Y629104D02*
Y629241D01*
X871235Y631175D02*
X871371D01*
X877570Y604520D02*
Y624840D01*
X873306Y629104D02*
X877570Y624840D01*
X863482Y638928D02*
X871235Y631175D01*
X980440Y605280D02*
Y619760D01*
X962660Y589280D02*
X980440D01*
X1016000Y604520D02*
X1082040D01*
X1515110Y1037590D01*
X829314Y644473D02*
Y648475D01*
X833474Y652635D02*
Y659130D01*
X831730Y604520D02*
X831850Y604400D01*
X829314Y648475D02*
X833474Y652635D01*
X829312Y644471D02*
X829314Y644469D01*
Y606936D02*
Y644469D01*
Y606936D02*
X831850Y604400D01*
X814836Y640846D02*
Y652701D01*
X818471Y656336D01*
X1485900Y1207830D02*
Y1282700D01*
X762230Y604760D02*
X766460Y608990D01*
Y622950D01*
X760730Y604760D02*
X762230D01*
X728860Y711200D02*
X732552Y714892D01*
X763270Y757330D02*
X767270D01*
X778613Y706081D02*
X811530D01*
X773493Y711200D02*
X778613Y706081D01*
X818471Y656336D02*
Y659130D01*
X1070610Y1211580D02*
Y1266190D01*
X1587500Y1200150D02*
Y1276350D01*
X800100Y894400D02*
X800420Y894080D01*
X800100Y904240D02*
X817660Y921800D01*
X800100Y894400D02*
Y904240D01*
X817660Y921800D02*
Y933450D01*
X893490Y636740D02*
X895230Y635000D01*
X893490Y636740D02*
Y659130D01*
X766460Y622950D02*
X772160Y628650D01*
X814070Y604520D02*
X831730D01*
X728860Y711200D02*
X773493D01*
X723320Y738280D02*
X726270Y735330D01*
X704680Y738280D02*
X723320D01*
X757050Y762060D02*
Y770880D01*
X752820Y775110D02*
X757050Y770880D01*
Y762060D02*
X761780Y757330D01*
X899160Y1211580D02*
Y1266190D01*
X848478Y748030D02*
Y773312D01*
X1596790Y1434230D02*
Y1492250D01*
X1596390Y1433830D02*
X1596790Y1434230D01*
X1447800Y1276240D02*
X1447800Y1276240D01*
X1447800Y1207830D02*
Y1276240D01*
X1435100Y1098550D02*
Y1167130D01*
X1638300Y1098550D02*
Y1174750D01*
X1612900Y1098550D02*
Y1174750D01*
X1587500Y1098550D02*
Y1174750D01*
X1612900Y1200150D02*
X1638300D01*
X1587500D02*
X1612900D01*
X199390Y1367790D02*
X199876Y1368276D01*
Y1372216D01*
X201280Y1373620D01*
Y1374270D01*
X206010Y1379000D01*
X227330Y1367790D02*
Y1379000D01*
X189230Y1329450D02*
X192800Y1325880D01*
X189230Y1329450D02*
Y1422180D01*
X226330Y1379000D02*
X227330D01*
X206010D02*
X207010D01*
X330200Y1421130D02*
X331200D01*
X335930Y1416400D01*
Y1415400D02*
Y1416400D01*
Y1415400D02*
X356870Y1394460D01*
Y1310640D02*
Y1394460D01*
X331328Y1285098D02*
X356870Y1310640D01*
X288530Y1293900D02*
X294728Y1287702D01*
Y1287032D02*
Y1287702D01*
X296662Y1285098D02*
X331328D01*
X288530Y1293900D02*
Y1295400D01*
X294728Y1287032D02*
X296662Y1285098D01*
X280944Y1295400D02*
X288530D01*
X250610Y1325734D02*
X280944Y1295400D01*
X286400Y1330560D02*
X288070Y1332230D01*
X262890Y1358900D02*
Y1423780D01*
X260460Y1426210D02*
X262890Y1423780D01*
X260460Y1427210D02*
X266700Y1433450D01*
X260460Y1426210D02*
Y1427210D01*
X266700Y1433450D02*
Y1446530D01*
X288070Y1313640D02*
Y1332230D01*
Y1313640D02*
X288530Y1313180D01*
X248702Y1492796D02*
X250190Y1491308D01*
X239698Y1492796D02*
X248702D01*
X250190Y1478110D02*
Y1491308D01*
X238210Y1482010D02*
Y1491308D01*
X239698Y1492796D01*
X250190Y1478110D02*
X258910Y1469390D01*
X312095Y1456235D02*
Y1456235D01*
X258910Y1469390D02*
X298940D01*
X312095Y1456235D01*
Y1456235D02*
X329200Y1439130D01*
X330200D01*
X242460Y1426210D02*
X244710Y1428460D01*
Y1482010D01*
X189230Y1440180D02*
X193960Y1444910D01*
X230980Y1481280D02*
X231710Y1482010D01*
X1515110Y1419860D02*
Y1450340D01*
X1438910Y1419860D02*
Y1450340D01*
X1362710Y1419860D02*
Y1450340D01*
D18*
X1625600Y1127760D02*
D03*
X1600200D02*
D03*
X1574800Y1127506D02*
D03*
X1515110Y1261110D02*
D03*
X165100Y1384300D02*
D03*
X139700D02*
D03*
X689610Y830580D02*
D03*
Y850900D02*
D03*
X1029970Y775970D02*
D03*
Y741680D02*
D03*
D19*
X21590Y647988D02*
D03*
Y616932D02*
D03*
D20*
X704680Y753280D02*
D03*
Y738280D02*
D03*
X848360Y788430D02*
D03*
Y773430D02*
D03*
X896620Y824230D02*
D03*
Y809230D02*
D03*
X878840Y823990D02*
D03*
Y808990D02*
D03*
X831850Y589400D02*
D03*
Y604400D02*
D03*
X814070Y589520D02*
D03*
Y604520D02*
D03*
X796290Y589520D02*
D03*
Y604520D02*
D03*
X895350Y619880D02*
D03*
Y634880D02*
D03*
X939800Y690880D02*
D03*
Y705880D02*
D03*
X930910Y604520D02*
D03*
Y589520D02*
D03*
X913130Y604520D02*
D03*
Y589520D02*
D03*
X778510Y604520D02*
D03*
Y589520D02*
D03*
X877570Y604520D02*
D03*
Y589520D02*
D03*
X895350Y604520D02*
D03*
Y589520D02*
D03*
X760730Y604760D02*
D03*
Y589760D02*
D03*
X198356Y671055D02*
D03*
Y656055D02*
D03*
D21*
X765690Y698500D02*
D03*
X750690D02*
D03*
X737820Y775110D02*
D03*
X752820D02*
D03*
X952380Y722630D02*
D03*
X937380D02*
D03*
X895110Y894080D02*
D03*
X880110D02*
D03*
X995440Y692150D02*
D03*
X980440D02*
D03*
X995440Y665480D02*
D03*
X980440D02*
D03*
X713860Y711200D02*
D03*
X728860D02*
D03*
X675640Y1276350D02*
D03*
X660640D02*
D03*
X675640Y1296670D02*
D03*
X660640D02*
D03*
X192800Y1325880D02*
D03*
X177800D02*
D03*
X793750Y641350D02*
D03*
X778750D02*
D03*
X306310Y1385570D02*
D03*
X321310D02*
D03*
X306190Y1350010D02*
D03*
X321190D02*
D03*
X306310Y1367790D02*
D03*
X321310D02*
D03*
X288530Y1313180D02*
D03*
X303530D02*
D03*
X288530Y1295400D02*
D03*
X303530D02*
D03*
D22*
X858481Y659130D02*
D03*
X893490D02*
D03*
X888488D02*
D03*
X883487D02*
D03*
X878486D02*
D03*
X873484D02*
D03*
X868483D02*
D03*
X863482D02*
D03*
X853479D02*
D03*
X848478D02*
D03*
X843477D02*
D03*
X838476D02*
D03*
X833474D02*
D03*
X828473D02*
D03*
X823472D02*
D03*
X818471D02*
D03*
Y748030D02*
D03*
X823472D02*
D03*
X828473D02*
D03*
X833474D02*
D03*
X838476D02*
D03*
X843477D02*
D03*
X848478D02*
D03*
X853479D02*
D03*
X858481D02*
D03*
X863482D02*
D03*
X868483D02*
D03*
X873484D02*
D03*
X878486D02*
D03*
X883487D02*
D03*
X888488D02*
D03*
X893490D02*
D03*
D24*
X900430Y741089D02*
D03*
Y736088D02*
D03*
Y731087D02*
D03*
Y726086D02*
D03*
Y721084D02*
D03*
Y716083D02*
D03*
Y711082D02*
D03*
Y706081D02*
D03*
Y701079D02*
D03*
Y696078D02*
D03*
Y691077D02*
D03*
Y686076D02*
D03*
Y681074D02*
D03*
Y676073D02*
D03*
Y671072D02*
D03*
Y666070D02*
D03*
X811530D02*
D03*
Y671072D02*
D03*
Y676073D02*
D03*
Y681074D02*
D03*
Y686076D02*
D03*
Y691077D02*
D03*
Y696078D02*
D03*
Y701079D02*
D03*
Y706081D02*
D03*
Y711082D02*
D03*
Y716083D02*
D03*
Y721084D02*
D03*
Y726086D02*
D03*
Y731087D02*
D03*
Y736088D02*
D03*
Y741089D02*
D03*
D25*
X602540Y664822D02*
D03*
Y677322D02*
D03*
D26*
X605790Y671072D02*
D03*
X599290D02*
D03*
D27*
X980440Y605280D02*
D03*
Y589280D02*
D03*
X914400Y792990D02*
D03*
Y808990D02*
D03*
X1638300Y1080550D02*
D03*
Y1098550D02*
D03*
X1612900Y1080550D02*
D03*
Y1098550D02*
D03*
X1587500Y1080550D02*
D03*
Y1098550D02*
D03*
X1447800Y1294240D02*
D03*
Y1276240D02*
D03*
X207010Y1379000D02*
D03*
Y1397000D02*
D03*
X227330Y1379000D02*
D03*
Y1397000D02*
D03*
X1435100Y1098550D02*
D03*
Y1080550D02*
D03*
X1596390Y1433830D02*
D03*
Y1415830D02*
D03*
X1515110Y1401860D02*
D03*
Y1419860D02*
D03*
X1438910Y1401860D02*
D03*
Y1419860D02*
D03*
X1362710Y1401860D02*
D03*
Y1419860D02*
D03*
X1587500Y1276350D02*
D03*
Y1294350D02*
D03*
X330200Y1439130D02*
D03*
Y1421130D02*
D03*
X189230Y1440180D02*
D03*
Y1422180D02*
D03*
D28*
X800420Y894080D02*
D03*
Y881380D02*
D03*
Y868680D02*
D03*
Y855980D02*
D03*
X853120D02*
D03*
Y868680D02*
D03*
Y881380D02*
D03*
Y894080D02*
D03*
D29*
X835660Y933450D02*
D03*
X817660D02*
D03*
X864004Y620873D02*
D03*
X848004D02*
D03*
X226570Y671072D02*
D03*
X242570D02*
D03*
X288070Y1332230D02*
D03*
X306070D02*
D03*
X284700Y1446530D02*
D03*
X266700D02*
D03*
X260460Y1426210D02*
D03*
X242460D02*
D03*
D30*
X960700Y691123D02*
D03*
Y666123D02*
D03*
D31*
X726270Y757330D02*
D03*
X763270D02*
D03*
Y735330D02*
D03*
X726270D02*
D03*
D32*
X219330Y1326060D02*
D03*
Y1330560D02*
D03*
Y1335060D02*
D03*
Y1339560D02*
D03*
Y1344060D02*
D03*
Y1348560D02*
D03*
X248030D02*
D03*
Y1344060D02*
D03*
Y1339560D02*
D03*
Y1335060D02*
D03*
Y1330560D02*
D03*
Y1326060D02*
D03*
D33*
X1485900Y1207830D02*
D03*
Y1167130D02*
D03*
X1473200Y1207830D02*
D03*
X1460500D02*
D03*
Y1167130D02*
D03*
X1447800Y1207830D02*
D03*
Y1167130D02*
D03*
X1435100Y1207830D02*
D03*
Y1167130D02*
D03*
D34*
X944433Y624017D02*
D03*
X955040Y613410D02*
D03*
D35*
X219710Y1508760D02*
D03*
X243710D02*
D03*
D36*
X199710Y1484260D02*
D03*
X263710D02*
D03*
D37*
X218710Y1482010D02*
D03*
X225210D02*
D03*
X231710D02*
D03*
X238210D02*
D03*
X244710D02*
D03*
D41*
X855980Y703580D02*
D03*
D63*
X776040Y1390650D02*
D03*
X751040D02*
D03*
X726040D02*
D03*
X701040D02*
D03*
X676040D02*
D03*
X651040D02*
D03*
X776040Y1365650D02*
D03*
X751040D02*
D03*
X726040D02*
D03*
X701040D02*
D03*
X676040D02*
D03*
X438950D02*
D03*
X463950D02*
D03*
X488950D02*
D03*
X513950D02*
D03*
X538950D02*
D03*
X413950Y1390650D02*
D03*
X438950D02*
D03*
X463950D02*
D03*
X488950D02*
D03*
X513950D02*
D03*
X538950D02*
D03*
D65*
X776040Y1462450D02*
D03*
X651040D02*
D03*
X1489710Y1450340D02*
D03*
X1515110D02*
D03*
X1413510D02*
D03*
X1438910D02*
D03*
X1337310D02*
D03*
X1362710D02*
D03*
X413950Y1462450D02*
D03*
X538950D02*
D03*
D72*
X233680Y1337310D02*
D03*
D73*
X21490Y671055D02*
X198356D01*
X198373Y671072D01*
X226570D01*
X242570D02*
X242570Y671072D01*
X599290D01*
X605790D02*
X811530D01*
D74*
X880342Y645160D02*
X881380D01*
X873484Y652018D02*
Y659130D01*
Y652018D02*
X880342Y645160D01*
X882935Y646715D02*
Y648934D01*
X881380Y645160D02*
X882935Y646715D01*
Y648934D02*
X888234Y654233D01*
Y658876D01*
X848478Y646986D02*
X848478Y646986D01*
X848478Y641324D02*
X848478Y641324D01*
Y646986D01*
X840918Y635004D02*
X847288D01*
X848478Y636194D01*
Y641324D01*
X836934Y635004D02*
X837135Y634803D01*
X840717D01*
X848478Y646986D02*
Y659130D01*
X840717Y634803D02*
X840918Y635004D01*
X836934Y633734D02*
Y635004D01*
X835865Y634803D02*
X836299Y634369D01*
X835410Y637718D02*
X835865Y637263D01*
Y634803D02*
Y637263D01*
X835410Y637718D02*
Y647450D01*
X838300Y650340D02*
Y658955D01*
X835410Y647450D02*
X838300Y650340D01*
Y658955D02*
X838476Y659130D01*
X207010Y1344632D02*
Y1344930D01*
Y1344632D02*
X212082Y1339560D01*
X888234Y658876D02*
X888488Y659130D01*
X900528Y690978D02*
X924462D01*
X924560Y690880D01*
X248030Y1335132D02*
X259442D01*
X900430Y691077D02*
X900528Y690978D01*
X259442Y1335132D02*
X263870Y1339560D01*
X248030D02*
X263870D01*
X212082D02*
X219330D01*
X192800Y1325880D02*
X219330D01*
X248030Y1330560D02*
X286400D01*
X262890Y1356360D02*
Y1358900D01*
X255090Y1348560D02*
X262890Y1356360D01*
X248030Y1348560D02*
X255090D01*
D75*
X913130Y604520D02*
Y618490D01*
X839568Y1003202D02*
X1374042D01*
X1435100Y1064260D01*
Y1080550D01*
X1453930D01*
X1559560Y1294130D02*
X1559670Y1294240D01*
X1587390D01*
X1587500Y1294350D01*
X1453930Y1080550D02*
X1454150Y1080770D01*
X413950Y1365650D02*
X449910Y1329690D01*
X615080D01*
X651040Y1365650D01*
X675640Y1259840D02*
Y1276350D01*
Y1296670D01*
X675840Y1296870D01*
Y1365450D02*
X676040Y1365650D01*
X675840Y1296870D02*
Y1365450D01*
X651040Y1365650D02*
X676040D01*
X778510Y604520D02*
Y618490D01*
X924560Y690880D02*
X939800D01*
X837199Y773430D02*
X848360D01*
X880110Y894080D02*
Y933450D01*
X914280Y809110D02*
X914400Y808990D01*
X896620Y809230D02*
X896740Y809110D01*
X914280D01*
X896500D02*
X896620Y809230D01*
X878960Y809110D02*
X896500D01*
X877570Y604520D02*
X895350D01*
X913130D02*
X930910D01*
X778510D02*
X796290D01*
D76*
X853120Y894080D02*
X880110D01*
X853120Y881380D02*
Y894080D01*
X833183Y881380D02*
X853120D01*
X800420Y868680D02*
X820482D01*
X833183Y881380D01*
D77*
X835660Y933450D02*
X880110D01*
X848360Y773430D02*
X848478Y773312D01*
X263870Y1339560D02*
X274320Y1350010D01*
X306190D01*
X306070Y1385810D02*
X306310Y1385570D01*
X306070Y1385810D02*
Y1400810D01*
X227330Y1397000D02*
X248920D01*
X207010D02*
X227330D01*
X306070Y1332230D02*
Y1349890D01*
X306190Y1350010D01*
X306310Y1367790D02*
Y1385570D01*
X306190Y1350010D02*
Y1367670D01*
X306310Y1367790D01*
D78*
X961022Y665802D02*
X977578D01*
X960700Y666123D02*
X961022Y665802D01*
X977578D02*
X977900Y665480D01*
X961214Y691637D02*
X977387D01*
X960700Y691123D02*
X961214Y691637D01*
X977387D02*
X977900Y692150D01*
D79*
X21590Y668921D02*
D03*
D80*
X953770Y1468120D02*
D03*
X1096010D02*
D03*
X1237488D02*
D03*
D81*
X903732D02*
D03*
X1045972D02*
D03*
X1187450D02*
D03*
D82*
X651040Y1365650D02*
D03*
X413950D02*
D03*
D83*
X899160Y1266190D02*
D03*
X1070610D02*
D03*
D84*
X924560D02*
D03*
X949960D02*
D03*
X1121410D02*
D03*
X1096010D02*
D03*
D85*
X1587500Y1200150D02*
D03*
X1612900D02*
D03*
X1638300D02*
D03*
Y1174750D02*
D03*
X1612900D02*
D03*
D86*
X1587500D02*
D03*
D87*
X1621790Y1492250D02*
D03*
D88*
X1596790D02*
D03*
X1571790D02*
D03*
D89*
X1017270Y1347470D02*
D03*
X1195070D02*
D03*
D90*
X198710Y1508760D02*
D03*
X264710D02*
D03*
D91*
X1696720Y81280D02*
D03*
Y1442720D02*
D03*
X81280D02*
D03*
Y81280D02*
D03*
D92*
X925830Y717550D02*
D03*
X261620Y684530D02*
D03*
X34290Y608330D02*
D03*
X26670Y709930D02*
D03*
Y786130D02*
D03*
X782320Y735330D02*
D03*
X1262380Y1250950D02*
D03*
X1234440Y1219200D02*
D03*
X1248410D02*
D03*
X50800Y608330D02*
D03*
X67310D02*
D03*
Y624840D02*
D03*
X182880Y684530D02*
D03*
Y657860D02*
D03*
X166370Y684530D02*
D03*
Y657860D02*
D03*
X17780Y684530D02*
D03*
X83820Y657860D02*
D03*
Y684530D02*
D03*
X67310D02*
D03*
Y657860D02*
D03*
X34290Y684530D02*
D03*
X50800D02*
D03*
X116840Y657860D02*
D03*
Y684530D02*
D03*
X100330D02*
D03*
Y657860D02*
D03*
X133350D02*
D03*
Y684530D02*
D03*
X149860D02*
D03*
Y657860D02*
D03*
X709930Y767080D02*
D03*
X699770Y786130D02*
D03*
X725170D02*
D03*
X750570Y556260D02*
D03*
X26670D02*
D03*
Y594360D02*
D03*
X39370Y709930D02*
D03*
X64770D02*
D03*
X90170D02*
D03*
X166370D02*
D03*
X115570D02*
D03*
X140970D02*
D03*
X648970Y556260D02*
D03*
X699770D02*
D03*
X674370D02*
D03*
X572770D02*
D03*
X598170D02*
D03*
X623570D02*
D03*
X547370D02*
D03*
X521970D02*
D03*
X115570D02*
D03*
X90170D02*
D03*
X64770D02*
D03*
X39370D02*
D03*
X140970D02*
D03*
X445770D02*
D03*
X420370D02*
D03*
X471170D02*
D03*
X496570D02*
D03*
X394970D02*
D03*
X369570D02*
D03*
X344170D02*
D03*
X318770D02*
D03*
X267970D02*
D03*
X242570D02*
D03*
X191770D02*
D03*
X217170D02*
D03*
X166370D02*
D03*
X293370D02*
D03*
X166370Y632460D02*
D03*
X140970D02*
D03*
X115570D02*
D03*
X90170D02*
D03*
X67310Y641350D02*
D03*
X102870Y594360D02*
D03*
X77470D02*
D03*
X52070D02*
D03*
X179070D02*
D03*
X153670D02*
D03*
X128270D02*
D03*
X762000Y632460D02*
D03*
X745490D02*
D03*
X420370D02*
D03*
X445770D02*
D03*
X471170D02*
D03*
X496570D02*
D03*
X191770D02*
D03*
X217170D02*
D03*
X242570D02*
D03*
X267970D02*
D03*
X293370D02*
D03*
X394970D02*
D03*
X369570D02*
D03*
X318770D02*
D03*
X344170D02*
D03*
X521970D02*
D03*
X547370D02*
D03*
X623570D02*
D03*
X572770D02*
D03*
X598170D02*
D03*
X725170D02*
D03*
X648970D02*
D03*
X699770D02*
D03*
X674370D02*
D03*
X778510Y657860D02*
D03*
Y684530D02*
D03*
X241300Y1384300D02*
D03*
X854710Y594360D02*
D03*
X883920Y619760D02*
D03*
X185420Y1463040D02*
D03*
X173990D02*
D03*
X643890Y1258570D02*
D03*
Y1314450D02*
D03*
Y1286510D02*
D03*
X1515110Y1384300D02*
D03*
X1438910D02*
D03*
X1362710D02*
D03*
X1167130Y1267460D02*
D03*
X984250Y1266190D02*
D03*
X763270Y1377950D02*
D03*
X688340D02*
D03*
X527034Y1378069D02*
D03*
X233680Y1337310D02*
D03*
X228600Y1328420D02*
D03*
X238760Y1346200D02*
D03*
X342900Y1314450D02*
D03*
Y1333500D02*
D03*
X284480Y1428750D02*
D03*
X217170D02*
D03*
X1638300Y1066800D02*
D03*
X1612900D02*
D03*
X1587500D02*
D03*
X1447800Y1313180D02*
D03*
X1428750Y1294130D02*
D03*
X1485900Y1144270D02*
D03*
X1460500D02*
D03*
X1447800D02*
D03*
X922020Y566420D02*
D03*
X886460D02*
D03*
X814070D02*
D03*
X778510D02*
D03*
X980440Y638810D02*
D03*
X927100Y627380D02*
D03*
X951230Y596900D02*
D03*
X1008380Y737870D02*
D03*
X969010Y707390D02*
D03*
X1008380Y687070D02*
D03*
Y670560D02*
D03*
X914400Y844550D02*
D03*
X892810D02*
D03*
X914400Y828040D02*
D03*
X850900Y812800D02*
D03*
X830580Y788670D02*
D03*
X825500Y840740D02*
D03*
X798830D02*
D03*
X911860Y905510D02*
D03*
X897890Y918210D02*
D03*
X26670Y748030D02*
D03*
X718820Y820420D02*
D03*
X102870Y748030D02*
D03*
X128270D02*
D03*
X77470D02*
D03*
X52070D02*
D03*
X179070D02*
D03*
X153670D02*
D03*
X695960Y709930D02*
D03*
X191770D02*
D03*
X471170D02*
D03*
X496570D02*
D03*
X445770D02*
D03*
X420370D02*
D03*
X547370D02*
D03*
X521970D02*
D03*
X318770D02*
D03*
X293370D02*
D03*
X344170D02*
D03*
X369570D02*
D03*
X394970D02*
D03*
X267970D02*
D03*
X242570D02*
D03*
X217170D02*
D03*
X623570D02*
D03*
X598170D02*
D03*
X572770D02*
D03*
X648970D02*
D03*
X674370Y786130D02*
D03*
X648970D02*
D03*
X572770D02*
D03*
X598170D02*
D03*
X623570D02*
D03*
X217170D02*
D03*
X242570D02*
D03*
X267970D02*
D03*
X394970D02*
D03*
X369570D02*
D03*
X344170D02*
D03*
X293370D02*
D03*
X318770D02*
D03*
X521970D02*
D03*
X547370D02*
D03*
X420370D02*
D03*
X445770D02*
D03*
X496570D02*
D03*
X471170D02*
D03*
X191770D02*
D03*
X166370D02*
D03*
X39370D02*
D03*
X140970D02*
D03*
X64770D02*
D03*
X90170D02*
D03*
X115570D02*
D03*
X779780Y698500D02*
D03*
X725170Y556260D02*
D03*
X998220Y726440D02*
D03*
X139700Y1357630D02*
D03*
X165100Y1367790D02*
D03*
X204470Y748030D02*
D03*
X229870D02*
D03*
X204470Y594360D02*
D03*
X229870D02*
D03*
X255270Y748030D02*
D03*
X280670D02*
D03*
X331470D02*
D03*
X306070D02*
D03*
X407670D02*
D03*
X433070D02*
D03*
X382270D02*
D03*
X356870D02*
D03*
X509270D02*
D03*
X534670D02*
D03*
X483870D02*
D03*
X458470D02*
D03*
X610870D02*
D03*
X636270D02*
D03*
X585470D02*
D03*
X560070D02*
D03*
X673100Y709930D02*
D03*
X687070Y748030D02*
D03*
X661670D02*
D03*
Y594360D02*
D03*
X687070D02*
D03*
X737870D02*
D03*
X712470D02*
D03*
X560070D02*
D03*
X585470D02*
D03*
X636270D02*
D03*
X610870D02*
D03*
X458470D02*
D03*
X483870D02*
D03*
X534670D02*
D03*
X509270D02*
D03*
X356870D02*
D03*
X382270D02*
D03*
X433070D02*
D03*
X407670D02*
D03*
X306070D02*
D03*
X331470D02*
D03*
X280670D02*
D03*
X255270D02*
D03*
X227330Y688340D02*
D03*
X242570D02*
D03*
Y652780D02*
D03*
X226060D02*
D03*
X213360Y657860D02*
D03*
Y684530D02*
D03*
X393700Y657860D02*
D03*
Y684530D02*
D03*
X377190D02*
D03*
Y657860D02*
D03*
X344170D02*
D03*
Y684530D02*
D03*
X360680D02*
D03*
Y657860D02*
D03*
X294640D02*
D03*
Y684530D02*
D03*
X278130D02*
D03*
Y657860D02*
D03*
X311150D02*
D03*
Y684530D02*
D03*
X327660D02*
D03*
Y657860D02*
D03*
X261620D02*
D03*
X575310D02*
D03*
Y684530D02*
D03*
X558800D02*
D03*
Y657860D02*
D03*
X525780D02*
D03*
Y684530D02*
D03*
X542290D02*
D03*
Y657860D02*
D03*
X476250D02*
D03*
Y684530D02*
D03*
X459740D02*
D03*
Y657860D02*
D03*
X492760D02*
D03*
Y684530D02*
D03*
X509270D02*
D03*
Y657860D02*
D03*
X410210D02*
D03*
Y684530D02*
D03*
X426720Y657860D02*
D03*
Y684530D02*
D03*
X443230D02*
D03*
Y657860D02*
D03*
X662940D02*
D03*
Y684530D02*
D03*
X646430D02*
D03*
Y657860D02*
D03*
X629920Y684530D02*
D03*
Y657860D02*
D03*
X728980D02*
D03*
Y684530D02*
D03*
X712470D02*
D03*
Y657860D02*
D03*
X679450D02*
D03*
Y684530D02*
D03*
X695960D02*
D03*
Y657860D02*
D03*
X762000D02*
D03*
Y684530D02*
D03*
X745490D02*
D03*
Y657860D02*
D03*
X795020Y684530D02*
D03*
Y657860D02*
D03*
X803910Y641350D02*
D03*
X615950Y691896D02*
D03*
X602540Y694436D02*
D03*
X615950Y650240D02*
D03*
X602540Y647700D02*
D03*
X589280Y691896D02*
D03*
Y650240D02*
D03*
X1005840Y779780D02*
D03*
X933450Y647700D02*
D03*
X915670Y664464D02*
D03*
X914400Y779780D02*
D03*
X882650Y635000D02*
D03*
X869950Y643890D02*
D03*
X1056640Y701040D02*
D03*
X1104900Y1108710D02*
D03*
X980440Y619760D02*
D03*
X962660Y589280D02*
D03*
X1016000Y604520D02*
D03*
X842010Y642620D02*
D03*
X708660Y864870D02*
D03*
X646430Y976630D02*
D03*
X673100Y969010D02*
D03*
X981710Y961390D02*
D03*
X1049020Y969010D02*
D03*
X1056640Y976630D02*
D03*
X1049020Y718820D02*
D03*
X238760Y1328420D02*
D03*
X228600Y1346200D02*
D03*
X875030Y684530D02*
D03*
Y709930D02*
D03*
Y697230D02*
D03*
Y722630D02*
D03*
X862330Y684530D02*
D03*
Y709930D02*
D03*
Y697230D02*
D03*
Y722630D02*
D03*
X849630Y684530D02*
D03*
Y709930D02*
D03*
Y697230D02*
D03*
Y722630D02*
D03*
X836930Y684530D02*
D03*
Y709930D02*
D03*
Y697230D02*
D03*
Y722630D02*
D03*
X868680Y728980D02*
D03*
Y678180D02*
D03*
Y703580D02*
D03*
Y690880D02*
D03*
Y716280D02*
D03*
X843280Y728980D02*
D03*
Y678180D02*
D03*
Y703580D02*
D03*
Y690880D02*
D03*
Y716280D02*
D03*
X855980Y728980D02*
D03*
Y678180D02*
D03*
Y703580D02*
D03*
Y690880D02*
D03*
Y716280D02*
D03*
X881380Y728980D02*
D03*
Y678180D02*
D03*
Y703580D02*
D03*
Y690880D02*
D03*
Y716280D02*
D03*
X830580D02*
D03*
Y690880D02*
D03*
Y703580D02*
D03*
Y678180D02*
D03*
Y728980D02*
D03*
X878840Y765810D02*
D03*
X828040Y1096010D02*
D03*
X812800Y1104900D02*
D03*
Y1087120D02*
D03*
X947420Y961390D02*
D03*
X566420Y1299210D02*
D03*
X560070Y1306830D02*
D03*
X938530Y961390D02*
D03*
X956374Y750724D02*
D03*
X956310Y741680D02*
D03*
X949960Y735330D02*
D03*
Y756920D02*
D03*
X926800Y726690D02*
D03*
X918210Y720090D02*
D03*
X956310Y961390D02*
D03*
X990645Y961345D02*
D03*
X999535D02*
D03*
X698500Y864870D02*
D03*
X379730Y1285240D02*
D03*
X396240Y1316990D02*
D03*
X388620Y1300480D02*
D03*
X812800Y759460D02*
D03*
X921000Y700790D02*
D03*
X584200Y1276350D02*
D03*
X727710Y820420D02*
D03*
X899160Y1211580D02*
D03*
X1070610D02*
D03*
X796290Y1276350D02*
D03*
X726440D02*
D03*
X885190Y772160D02*
D03*
X866648Y765810D02*
D03*
X860806Y759722D02*
D03*
X751840Y1306830D02*
D03*
X775970Y1299210D02*
D03*
X820420Y618236D02*
D03*
X811530D02*
D03*
X829314Y644473D02*
D03*
X909320Y711708D02*
D03*
X872490Y772160D02*
D03*
X1625600Y1098550D02*
D03*
X1600200D02*
D03*
X1574800D02*
D03*
X796290Y723900D02*
D03*
X199390Y1367790D02*
D03*
X227330D02*
D03*
X284480Y1376680D02*
D03*
D93*
X881380Y645160D02*
D03*
X913130Y618490D02*
D03*
X207010Y1344930D02*
D03*
X1559560Y1294130D02*
D03*
X1454150Y1080770D02*
D03*
X839568Y1003202D02*
D03*
X675640Y1259840D02*
D03*
X778510Y618490D02*
D03*
X924560Y690880D02*
D03*
X837199Y773430D02*
D03*
X880110Y933450D02*
D03*
X306070Y1400810D02*
D03*
X248920Y1397000D02*
D03*
D94*
X836934Y633734D02*
D03*
M02*
