G04*
G04 #@! TF.GenerationSoftware,Altium Limited,Altium Designer,23.2.1 (34)*
G04*
G04 Layer_Color=255*
%FSLAX44Y44*%
%MOMM*%
G71*
G04*
G04 #@! TF.SameCoordinates,B8F3427F-0302-4C4C-BDD2-04FEC27F4463*
G04*
G04*
G04 #@! TF.FilePolarity,Positive*
G04*
G01*
G75*
%ADD18C,1.5240*%
%ADD19R,1.2000X0.9556*%
%ADD20R,1.4000X1.1000*%
%ADD21R,1.1000X1.4000*%
%ADD22R,0.2540X0.8128*%
%ADD24R,0.8128X0.2540*%
%ADD25R,1.0500X0.5000*%
%ADD26R,0.3500X0.3500*%
%ADD27R,1.4000X1.2000*%
%ADD28R,1.6500X0.6100*%
%ADD29R,1.2000X1.4000*%
%ADD30R,1.9000X1.1000*%
%ADD31R,2.0000X1.2000*%
G04:AMPARAMS|DCode=32|XSize=0.84mm|YSize=0.25mm|CornerRadius=0.0313mm|HoleSize=0mm|Usage=FLASHONLY|Rotation=180.000|XOffset=0mm|YOffset=0mm|HoleType=Round|Shape=RoundedRectangle|*
%AMROUNDEDRECTD32*
21,1,0.8400,0.1875,0,0,180.0*
21,1,0.7775,0.2500,0,0,180.0*
1,1,0.0625,-0.3888,0.0938*
1,1,0.0625,0.3888,0.0938*
1,1,0.0625,0.3888,-0.0938*
1,1,0.0625,-0.3888,-0.0938*
%
%ADD32ROUNDEDRECTD32*%
%ADD33R,0.7400X2.7900*%
G04:AMPARAMS|DCode=34|XSize=1.4mm|YSize=1.1mm|CornerRadius=0mm|HoleSize=0mm|Usage=FLASHONLY|Rotation=225.000|XOffset=0mm|YOffset=0mm|HoleType=Round|Shape=Rectangle|*
%AMROTATEDRECTD34*
4,1,4,0.1061,0.8839,0.8839,0.1061,-0.1061,-0.8839,-0.8839,-0.1061,0.1061,0.8839,0.0*
%
%ADD34ROTATEDRECTD34*%

%ADD35R,1.9000X1.9000*%
%ADD36R,1.6000X1.4000*%
%ADD37R,0.4000X1.3500*%
%ADD41R,6.4008X6.4008*%
%ADD63C,1.7000*%
%ADD65C,1.6000*%
%ADD72R,1.6000X2.5000*%
%ADD80R,2.5400X2.5400*%
%ADD81C,2.5400*%
%ADD82R,1.7000X1.7000*%
%ADD83R,1.6000X1.6000*%
%ADD84C,1.6000*%
%ADD85C,2.0320*%
%ADD86R,2.0320X2.0320*%
%ADD87R,1.5000X1.5000*%
%ADD88C,1.5000*%
%ADD89C,1.6500*%
%ADD90O,0.9000X1.8000*%
%ADD91C,5.0800*%
D18*
X1625600Y1127760D02*
D03*
X1600200D02*
D03*
X1574800Y1127506D02*
D03*
X1515110Y1261110D02*
D03*
X165100Y1384300D02*
D03*
X139700D02*
D03*
X689610Y830580D02*
D03*
Y850900D02*
D03*
X1029970Y775970D02*
D03*
Y741680D02*
D03*
D19*
X21590Y647988D02*
D03*
Y616932D02*
D03*
D20*
X704680Y753280D02*
D03*
Y738280D02*
D03*
X848360Y788430D02*
D03*
Y773430D02*
D03*
X896620Y824230D02*
D03*
Y809230D02*
D03*
X878840Y823990D02*
D03*
Y808990D02*
D03*
X831850Y589400D02*
D03*
Y604400D02*
D03*
X814070Y589520D02*
D03*
Y604520D02*
D03*
X796290Y589520D02*
D03*
Y604520D02*
D03*
X895350Y619880D02*
D03*
Y634880D02*
D03*
X939800Y690880D02*
D03*
Y705880D02*
D03*
X930910Y604520D02*
D03*
Y589520D02*
D03*
X913130Y604520D02*
D03*
Y589520D02*
D03*
X778510Y604520D02*
D03*
Y589520D02*
D03*
X877570Y604520D02*
D03*
Y589520D02*
D03*
X895350Y604520D02*
D03*
Y589520D02*
D03*
X760730Y604760D02*
D03*
Y589760D02*
D03*
X198356Y671055D02*
D03*
Y656055D02*
D03*
D21*
X765690Y698500D02*
D03*
X750690D02*
D03*
X737820Y775110D02*
D03*
X752820D02*
D03*
X952380Y722630D02*
D03*
X937380D02*
D03*
X895110Y894080D02*
D03*
X880110D02*
D03*
X995440Y692150D02*
D03*
X980440D02*
D03*
X995440Y665480D02*
D03*
X980440D02*
D03*
X713860Y711200D02*
D03*
X728860D02*
D03*
X675640Y1276350D02*
D03*
X660640D02*
D03*
X675640Y1296670D02*
D03*
X660640D02*
D03*
X192800Y1325880D02*
D03*
X177800D02*
D03*
X793750Y641350D02*
D03*
X778750D02*
D03*
X306310Y1385570D02*
D03*
X321310D02*
D03*
X306190Y1350010D02*
D03*
X321190D02*
D03*
X306310Y1367790D02*
D03*
X321310D02*
D03*
X288530Y1313180D02*
D03*
X303530D02*
D03*
X288530Y1295400D02*
D03*
X303530D02*
D03*
D22*
X858481Y659130D02*
D03*
X893490D02*
D03*
X888488D02*
D03*
X883487D02*
D03*
X878486D02*
D03*
X873484D02*
D03*
X868483D02*
D03*
X863482D02*
D03*
X853479D02*
D03*
X848478D02*
D03*
X843477D02*
D03*
X838476D02*
D03*
X833474D02*
D03*
X828473D02*
D03*
X823472D02*
D03*
X818471D02*
D03*
Y748030D02*
D03*
X823472D02*
D03*
X828473D02*
D03*
X833474D02*
D03*
X838476D02*
D03*
X843477D02*
D03*
X848478D02*
D03*
X853479D02*
D03*
X858481D02*
D03*
X863482D02*
D03*
X868483D02*
D03*
X873484D02*
D03*
X878486D02*
D03*
X883487D02*
D03*
X888488D02*
D03*
X893490D02*
D03*
D24*
X900430Y741089D02*
D03*
Y736088D02*
D03*
Y731087D02*
D03*
Y726086D02*
D03*
Y721084D02*
D03*
Y716083D02*
D03*
Y711082D02*
D03*
Y706081D02*
D03*
Y701079D02*
D03*
Y696078D02*
D03*
Y691077D02*
D03*
Y686076D02*
D03*
Y681074D02*
D03*
Y676073D02*
D03*
Y671072D02*
D03*
Y666070D02*
D03*
X811530D02*
D03*
Y671072D02*
D03*
Y676073D02*
D03*
Y681074D02*
D03*
Y686076D02*
D03*
Y691077D02*
D03*
Y696078D02*
D03*
Y701079D02*
D03*
Y706081D02*
D03*
Y711082D02*
D03*
Y716083D02*
D03*
Y721084D02*
D03*
Y726086D02*
D03*
Y731087D02*
D03*
Y736088D02*
D03*
Y741089D02*
D03*
D25*
X602540Y664822D02*
D03*
Y677322D02*
D03*
D26*
X605790Y671072D02*
D03*
X599290D02*
D03*
D27*
X980440Y605280D02*
D03*
Y589280D02*
D03*
X914400Y792990D02*
D03*
Y808990D02*
D03*
X1638300Y1080550D02*
D03*
Y1098550D02*
D03*
X1612900Y1080550D02*
D03*
Y1098550D02*
D03*
X1587500Y1080550D02*
D03*
Y1098550D02*
D03*
X1447800Y1294240D02*
D03*
Y1276240D02*
D03*
X207010Y1379000D02*
D03*
Y1397000D02*
D03*
X227330Y1379000D02*
D03*
Y1397000D02*
D03*
X1435100Y1098550D02*
D03*
Y1080550D02*
D03*
X1596390Y1433830D02*
D03*
Y1415830D02*
D03*
X1515110Y1401860D02*
D03*
Y1419860D02*
D03*
X1438910Y1401860D02*
D03*
Y1419860D02*
D03*
X1362710Y1401860D02*
D03*
Y1419860D02*
D03*
X1587500Y1276350D02*
D03*
Y1294350D02*
D03*
X330200Y1439130D02*
D03*
Y1421130D02*
D03*
X189230Y1440180D02*
D03*
Y1422180D02*
D03*
D28*
X800420Y894080D02*
D03*
Y881380D02*
D03*
Y868680D02*
D03*
Y855980D02*
D03*
X853120D02*
D03*
Y868680D02*
D03*
Y881380D02*
D03*
Y894080D02*
D03*
D29*
X835660Y933450D02*
D03*
X817660D02*
D03*
X864004Y620873D02*
D03*
X848004D02*
D03*
X226570Y671072D02*
D03*
X242570D02*
D03*
X288070Y1332230D02*
D03*
X306070D02*
D03*
X284700Y1446530D02*
D03*
X266700D02*
D03*
X260460Y1426210D02*
D03*
X242460D02*
D03*
D30*
X960700Y691123D02*
D03*
Y666123D02*
D03*
D31*
X726270Y757330D02*
D03*
X763270D02*
D03*
Y735330D02*
D03*
X726270D02*
D03*
D32*
X219330Y1326060D02*
D03*
Y1330560D02*
D03*
Y1335060D02*
D03*
Y1339560D02*
D03*
Y1344060D02*
D03*
Y1348560D02*
D03*
X248030D02*
D03*
Y1344060D02*
D03*
Y1339560D02*
D03*
Y1335060D02*
D03*
Y1330560D02*
D03*
Y1326060D02*
D03*
D33*
X1485900Y1207830D02*
D03*
Y1167130D02*
D03*
X1473200Y1207830D02*
D03*
X1460500D02*
D03*
Y1167130D02*
D03*
X1447800Y1207830D02*
D03*
Y1167130D02*
D03*
X1435100Y1207830D02*
D03*
Y1167130D02*
D03*
D34*
X944433Y624017D02*
D03*
X955040Y613410D02*
D03*
D35*
X219710Y1508760D02*
D03*
X243710D02*
D03*
D36*
X199710Y1484260D02*
D03*
X263710D02*
D03*
D37*
X218710Y1482010D02*
D03*
X225210D02*
D03*
X231710D02*
D03*
X238210D02*
D03*
X244710D02*
D03*
D41*
X855980Y703580D02*
D03*
D63*
X776040Y1390650D02*
D03*
X751040D02*
D03*
X726040D02*
D03*
X701040D02*
D03*
X676040D02*
D03*
X651040D02*
D03*
X776040Y1365650D02*
D03*
X751040D02*
D03*
X726040D02*
D03*
X701040D02*
D03*
X676040D02*
D03*
X438950D02*
D03*
X463950D02*
D03*
X488950D02*
D03*
X513950D02*
D03*
X538950D02*
D03*
X413950Y1390650D02*
D03*
X438950D02*
D03*
X463950D02*
D03*
X488950D02*
D03*
X513950D02*
D03*
X538950D02*
D03*
D65*
X776040Y1462450D02*
D03*
X651040D02*
D03*
X1489710Y1450340D02*
D03*
X1515110D02*
D03*
X1413510D02*
D03*
X1438910D02*
D03*
X1337310D02*
D03*
X1362710D02*
D03*
X413950Y1462450D02*
D03*
X538950D02*
D03*
D72*
X233680Y1337310D02*
D03*
D80*
X953770Y1468120D02*
D03*
X1096010D02*
D03*
X1237488D02*
D03*
D81*
X903732D02*
D03*
X1045972D02*
D03*
X1187450D02*
D03*
D82*
X651040Y1365650D02*
D03*
X413950D02*
D03*
D83*
X899160Y1266190D02*
D03*
X1070610D02*
D03*
D84*
X924560D02*
D03*
X949960D02*
D03*
X1121410D02*
D03*
X1096010D02*
D03*
D85*
X1587500Y1200150D02*
D03*
X1612900D02*
D03*
X1638300D02*
D03*
Y1174750D02*
D03*
X1612900D02*
D03*
D86*
X1587500D02*
D03*
D87*
X1621790Y1492250D02*
D03*
D88*
X1596790D02*
D03*
X1571790D02*
D03*
D89*
X1017270Y1347470D02*
D03*
X1195070D02*
D03*
D90*
X198710Y1508760D02*
D03*
X264710D02*
D03*
D91*
X1696720Y81280D02*
D03*
Y1442720D02*
D03*
X81280D02*
D03*
Y81280D02*
D03*
M02*
