G04*
G04 #@! TF.GenerationSoftware,Altium Limited,Altium Designer,23.2.1 (34)*
G04*
G04 Layer_Physical_Order=2*
G04 Layer_Color=16711680*
%FSLAX44Y44*%
%MOMM*%
G71*
G04*
G04 #@! TF.SameCoordinates,66AF3463-A4ED-4445-B3F6-74E376143534*
G04*
G04*
G04 #@! TF.FilePolarity,Positive*
G04*
G01*
G75*
%ADD41C,0.5842*%
%ADD52C,1.7000*%
%ADD56C,1.6000*%
%ADD63C,0.3048*%
%ADD64C,0.2032*%
%ADD65C,0.6350*%
%ADD66C,0.1524*%
%ADD68C,1.2700*%
%ADD69R,1.7000X1.7000*%
%ADD70C,2.0320*%
%ADD71R,2.0320X2.0320*%
%ADD72O,0.9000X1.8000*%
%ADD73C,1.6000*%
%ADD74R,1.6000X1.6000*%
%ADD75C,1.6500*%
%ADD76R,2.5400X2.5400*%
%ADD77C,2.5400*%
%ADD78R,1.5000X1.5000*%
%ADD79C,1.5000*%
%ADD80C,5.0800*%
%ADD81C,0.6350*%
%ADD82C,1.0160*%
G36*
X772661Y2039D02*
X73660D01*
Y433987D01*
X74930Y434513D01*
X76138Y433305D01*
X78238Y432435D01*
X80512D01*
X82612Y433305D01*
X84220Y434913D01*
X85090Y437013D01*
Y439287D01*
X84220Y441387D01*
X83519Y442089D01*
Y569149D01*
X88362Y573992D01*
X89535Y573506D01*
Y572903D01*
X90405Y570803D01*
X91106Y570101D01*
Y397510D01*
X91422Y395924D01*
X92320Y394580D01*
X131690Y355210D01*
X133034Y354312D01*
X134620Y353996D01*
X211644D01*
X213995Y351645D01*
Y350653D01*
X214865Y348553D01*
X216473Y346945D01*
X216848Y346790D01*
X216595Y345520D01*
X147703D01*
X146747Y346475D01*
X144647Y347345D01*
X142373D01*
X140273Y346475D01*
X138665Y344867D01*
X137795Y342767D01*
Y340493D01*
X138665Y338393D01*
X140273Y336785D01*
X142373Y335915D01*
X144647D01*
X146747Y336785D01*
X147195Y337232D01*
X277938D01*
X300355Y314815D01*
Y313823D01*
X301225Y311723D01*
X302833Y310115D01*
X304933Y309245D01*
X307207D01*
X309307Y310115D01*
X310915Y311723D01*
X311785Y313823D01*
Y316097D01*
X310915Y318197D01*
X309307Y319805D01*
X307207Y320675D01*
X306215D01*
X282584Y344306D01*
X281240Y345204D01*
X279654Y345520D01*
X224176D01*
X223617Y346790D01*
X223822Y347015D01*
X239398D01*
X240984Y347330D01*
X242328Y348228D01*
X290280Y396180D01*
X291507Y395852D01*
X291695Y395148D01*
X292088Y394468D01*
X285614Y387994D01*
X284716Y386650D01*
X284400Y385064D01*
Y361696D01*
X284716Y360110D01*
X285614Y358766D01*
X392096Y252284D01*
Y162560D01*
X392412Y160974D01*
X393310Y159630D01*
X446650Y106290D01*
X447994Y105392D01*
X449580Y105076D01*
X464440D01*
Y98680D01*
X485520D01*
Y119760D01*
X464440D01*
Y113364D01*
X451296D01*
X400384Y164276D01*
Y254000D01*
X400384Y254000D01*
X400068Y255586D01*
X399170Y256930D01*
X292688Y363412D01*
Y365736D01*
X293958Y366262D01*
X295732Y364487D01*
X298628Y362816D01*
X301858Y361950D01*
X305202D01*
X308432Y362816D01*
X309112Y363208D01*
X411090Y261230D01*
X412434Y260332D01*
X414020Y260016D01*
X464440D01*
Y253620D01*
X485520D01*
Y274700D01*
X464440D01*
Y268304D01*
X415736D01*
X339235Y344805D01*
X339761Y346075D01*
X341497D01*
X343597Y346945D01*
X344299Y347646D01*
X566420D01*
X568006Y347962D01*
X569350Y348860D01*
X682380Y461890D01*
X683278Y463234D01*
X683594Y464820D01*
Y577721D01*
X684295Y578423D01*
X685165Y580523D01*
Y582797D01*
X684295Y584897D01*
X682687Y586505D01*
X680587Y587375D01*
X678313D01*
X676213Y586505D01*
X674605Y584897D01*
X673735Y582797D01*
Y580523D01*
X674605Y578423D01*
X675306Y577721D01*
Y466536D01*
X564704Y355934D01*
X344299D01*
X343597Y356635D01*
X341497Y357505D01*
X339223D01*
X337123Y356635D01*
X336249Y355761D01*
X335173Y356481D01*
X335915Y358273D01*
Y359265D01*
X390280Y413630D01*
X391178Y414974D01*
X391494Y416560D01*
X391494Y416560D01*
Y681861D01*
X392195Y682563D01*
X393065Y684663D01*
Y686937D01*
X392195Y689037D01*
X390587Y690645D01*
X388487Y691515D01*
X386213D01*
X384113Y690645D01*
X382505Y689037D01*
X381635Y686937D01*
Y684663D01*
X382505Y682563D01*
X383206Y681861D01*
Y418276D01*
X330055Y365125D01*
X329063D01*
X326963Y364255D01*
X325355Y362647D01*
X324721Y361115D01*
X323312Y360728D01*
X314972Y369068D01*
X315364Y369748D01*
X316230Y372978D01*
Y376322D01*
X315364Y379552D01*
X314972Y380232D01*
X364880Y430140D01*
X365778Y431484D01*
X366094Y433070D01*
Y681579D01*
X365778Y683165D01*
X364880Y684509D01*
X361315Y688074D01*
Y689477D01*
X360445Y691577D01*
X359434Y692588D01*
X359960Y693858D01*
X614296D01*
X614975Y692588D01*
X614742Y692241D01*
X614466Y690853D01*
X614466Y690853D01*
Y643138D01*
X614466Y643138D01*
X614742Y641750D01*
X615528Y640574D01*
X620951Y635151D01*
X620622Y634581D01*
X619870Y631773D01*
Y628867D01*
X620622Y626059D01*
X622076Y623541D01*
X624131Y621486D01*
X626649Y620032D01*
X629457Y619280D01*
X632363D01*
X635171Y620032D01*
X637689Y621486D01*
X639744Y623541D01*
X641198Y626059D01*
X641950Y628867D01*
Y631773D01*
X641198Y634581D01*
X639744Y637099D01*
X637689Y639154D01*
X635171Y640608D01*
X632363Y641360D01*
X629457D01*
X626649Y640608D01*
X626079Y640279D01*
X623251Y643107D01*
X623737Y644280D01*
X641950D01*
Y666360D01*
X634536D01*
Y685288D01*
X636270Y687022D01*
X637540Y686496D01*
Y686067D01*
X638059Y684129D01*
X639062Y682391D01*
X640481Y680973D01*
X642219Y679969D01*
X644157Y679450D01*
X646163D01*
X648101Y679969D01*
X649839Y680973D01*
X650109Y681243D01*
X652906D01*
X665060Y669089D01*
Y613579D01*
X663790Y613053D01*
X662689Y614154D01*
X660171Y615608D01*
X657363Y616360D01*
X654457D01*
X651649Y615608D01*
X649131Y614154D01*
X647076Y612099D01*
X645622Y609581D01*
X644870Y606773D01*
Y603867D01*
X645622Y601059D01*
X647076Y598541D01*
X649131Y596486D01*
X651649Y595032D01*
X654457Y594280D01*
X657363D01*
X660171Y595032D01*
X661152Y595598D01*
X661932Y594582D01*
X658425Y591076D01*
X657363Y591360D01*
X654457D01*
X651649Y590608D01*
X649131Y589154D01*
X647076Y587099D01*
X645622Y584581D01*
X644870Y581773D01*
Y578867D01*
X645622Y576059D01*
X647076Y573541D01*
X649131Y571486D01*
X651649Y570032D01*
X654457Y569280D01*
X657363D01*
X660171Y570032D01*
X662689Y571486D01*
X664744Y573541D01*
X666198Y576059D01*
X666950Y578867D01*
Y581773D01*
X666665Y582835D01*
X675007Y591177D01*
X676270Y593067D01*
X676714Y595297D01*
Y671503D01*
X676270Y673733D01*
X675007Y675623D01*
X659440Y691190D01*
X657550Y692453D01*
X655883Y692785D01*
X656008Y694055D01*
X656457D01*
X658557Y694925D01*
X660165Y696533D01*
X661035Y698633D01*
Y700358D01*
X687094Y726416D01*
X687094Y726416D01*
X687880Y727592D01*
X688156Y728980D01*
X688156Y728980D01*
Y851490D01*
X687880Y852878D01*
X687094Y854054D01*
X687094Y854054D01*
X665869Y875279D01*
X666198Y875849D01*
X666950Y878657D01*
Y881563D01*
X666198Y884371D01*
X666109Y884525D01*
X667125Y885305D01*
X672465Y879965D01*
Y878973D01*
X673335Y876873D01*
X674943Y875265D01*
X677043Y874395D01*
X679317D01*
X681417Y875265D01*
X683025Y876873D01*
X683895Y878973D01*
Y881247D01*
X683025Y883347D01*
X681417Y884955D01*
X679317Y885825D01*
X678325D01*
X667784Y896366D01*
X666440Y897264D01*
X664854Y897580D01*
X620411D01*
X618825Y897264D01*
X617481Y896366D01*
X599050Y877935D01*
X598152Y876591D01*
X597836Y875005D01*
Y867325D01*
X596663Y866839D01*
X596327Y867175D01*
X594227Y868045D01*
X591953D01*
X589853Y867175D01*
X588245Y865567D01*
X587375Y863467D01*
Y862475D01*
X491100Y766200D01*
X490202Y764856D01*
X489886Y763270D01*
Y740539D01*
X489185Y739837D01*
X488315Y737737D01*
Y735463D01*
X489185Y733363D01*
X490793Y731755D01*
X492893Y730885D01*
X495167D01*
X497267Y731755D01*
X498875Y733363D01*
X499745Y735463D01*
Y737737D01*
X498875Y739837D01*
X498174Y740539D01*
Y761554D01*
X593235Y856615D01*
X594227D01*
X596327Y857485D01*
X596663Y857821D01*
X597836Y857335D01*
Y805626D01*
X544050Y751840D01*
X543058D01*
X540958Y750970D01*
X539350Y749362D01*
X538480Y747262D01*
Y744988D01*
X539350Y742888D01*
X540958Y741280D01*
X541816Y740925D01*
X542525Y739837D01*
X542357Y739431D01*
X541655Y737737D01*
Y735463D01*
X542525Y733363D01*
X544133Y731755D01*
X546233Y730885D01*
X548507D01*
X550607Y731755D01*
X552215Y733363D01*
X553085Y735463D01*
Y736455D01*
X610498Y793868D01*
X611396Y795212D01*
X611712Y796798D01*
Y805052D01*
X626543Y819883D01*
X626649Y819822D01*
X629457Y819070D01*
X632363D01*
X635171Y819822D01*
X637689Y821276D01*
X639744Y823331D01*
X641198Y825849D01*
X641950Y828657D01*
Y831563D01*
X641198Y834371D01*
X639744Y836889D01*
X637689Y838944D01*
X635171Y840398D01*
X632363Y841150D01*
X629457D01*
X626649Y840398D01*
X624131Y838944D01*
X622076Y836889D01*
X620622Y834371D01*
X619870Y831563D01*
Y828657D01*
X620622Y825849D01*
X620683Y825743D01*
X607297Y812357D01*
X606124Y812843D01*
Y873289D01*
X622127Y889292D01*
X647683D01*
X648209Y888022D01*
X647076Y886889D01*
X645622Y884371D01*
X644870Y881563D01*
Y878657D01*
X645622Y875849D01*
X647076Y873331D01*
X649131Y871276D01*
X651649Y869822D01*
X654457Y869070D01*
X657363D01*
X660171Y869822D01*
X660741Y870151D01*
X680904Y849988D01*
Y836902D01*
X679731Y836416D01*
X665869Y850279D01*
X666198Y850849D01*
X666950Y853657D01*
Y856563D01*
X666198Y859371D01*
X664744Y861889D01*
X662689Y863944D01*
X660171Y865398D01*
X657363Y866150D01*
X654457D01*
X651649Y865398D01*
X649131Y863944D01*
X647076Y861889D01*
X645622Y859371D01*
X644870Y856563D01*
Y853657D01*
X645622Y850849D01*
X647076Y848331D01*
X649131Y846276D01*
X651649Y844822D01*
X654457Y844070D01*
X657363D01*
X660171Y844822D01*
X660741Y845151D01*
X675824Y830068D01*
Y736832D01*
X640550Y701558D01*
X639052Y701856D01*
X638575Y703007D01*
X636967Y704615D01*
X634867Y705485D01*
X633182D01*
X632656Y706755D01*
X671292Y745391D01*
X671292Y745391D01*
X672078Y746567D01*
X672354Y747955D01*
X672354Y747955D01*
Y792292D01*
X672354Y792292D01*
X672078Y793680D01*
X671292Y794856D01*
X671292Y794856D01*
X665869Y800279D01*
X666198Y800849D01*
X666950Y803657D01*
Y806563D01*
X666198Y809371D01*
X664744Y811889D01*
X662689Y813944D01*
X660171Y815398D01*
X657363Y816150D01*
X654457D01*
X651649Y815398D01*
X649131Y813944D01*
X647076Y811889D01*
X645622Y809371D01*
X644870Y806563D01*
Y803657D01*
X645622Y800849D01*
X647076Y798331D01*
X649131Y796276D01*
X651649Y794822D01*
X654457Y794070D01*
X657363D01*
X660171Y794822D01*
X660741Y795151D01*
X665102Y790790D01*
Y788327D01*
X663832Y787801D01*
X662689Y788944D01*
X660171Y790398D01*
X657363Y791150D01*
X654457D01*
X651649Y790398D01*
X649131Y788944D01*
X647076Y786889D01*
X645622Y784371D01*
X644870Y781563D01*
Y778657D01*
X645622Y775849D01*
X647076Y773331D01*
X649131Y771276D01*
X651649Y769822D01*
X654457Y769070D01*
X657363D01*
X660171Y769822D01*
X662689Y771276D01*
X663832Y772419D01*
X665102Y771893D01*
Y763327D01*
X663832Y762801D01*
X662689Y763944D01*
X660171Y765398D01*
X657363Y766150D01*
X654457D01*
X651649Y765398D01*
X649131Y763944D01*
X647076Y761889D01*
X645622Y759371D01*
X644870Y756563D01*
Y753657D01*
X645622Y750849D01*
X647076Y748331D01*
X649131Y746276D01*
X651649Y744822D01*
X654457Y744070D01*
X657363D01*
X658123Y744274D01*
X658781Y743135D01*
X623436Y707790D01*
X622020Y708170D01*
X621781Y709061D01*
X620778Y710799D01*
X620507Y711069D01*
Y748509D01*
X621777Y748849D01*
X622076Y748331D01*
X624131Y746276D01*
X626649Y744822D01*
X629457Y744070D01*
X632363D01*
X635171Y744822D01*
X637689Y746276D01*
X639744Y748331D01*
X641198Y750849D01*
X641950Y753657D01*
Y756563D01*
X641198Y759371D01*
X639744Y761889D01*
X637689Y763944D01*
X635171Y765398D01*
X632363Y766150D01*
X629457D01*
X626649Y765398D01*
X625668Y764831D01*
X624888Y765848D01*
X628395Y769354D01*
X629457Y769070D01*
X632363D01*
X635171Y769822D01*
X637689Y771276D01*
X639744Y773331D01*
X641198Y775849D01*
X641950Y778657D01*
Y781563D01*
X641198Y784371D01*
X639744Y786889D01*
X637689Y788944D01*
X635171Y790398D01*
X632363Y791150D01*
X629457D01*
X626649Y790398D01*
X624131Y788944D01*
X622076Y786889D01*
X620622Y784371D01*
X619870Y781563D01*
Y778657D01*
X620154Y777595D01*
X610560Y768000D01*
X609297Y766110D01*
X608853Y763880D01*
Y711069D01*
X608582Y710799D01*
X607579Y709061D01*
X607372Y708289D01*
X606034Y708201D01*
X605555Y709357D01*
X604854Y710059D01*
Y773194D01*
X626543Y794883D01*
X626649Y794822D01*
X629457Y794070D01*
X632363D01*
X635171Y794822D01*
X637689Y796276D01*
X639744Y798331D01*
X641198Y800849D01*
X641950Y803657D01*
Y806563D01*
X641198Y809371D01*
X639744Y811889D01*
X637689Y813944D01*
X635171Y815398D01*
X632363Y816150D01*
X629457D01*
X626649Y815398D01*
X624131Y813944D01*
X622076Y811889D01*
X620622Y809371D01*
X619870Y806563D01*
Y803657D01*
X620622Y800849D01*
X620683Y800743D01*
X597780Y777840D01*
X596882Y776496D01*
X596566Y774910D01*
Y710059D01*
X595865Y709357D01*
X594995Y707257D01*
Y704983D01*
X595865Y702883D01*
X596368Y702380D01*
X595842Y701110D01*
X339344D01*
X339344Y701110D01*
X337957Y700834D01*
X336780Y700048D01*
X336780Y700048D01*
X328906Y692174D01*
X328120Y690997D01*
X327844Y689610D01*
X327844Y689610D01*
Y685177D01*
X326625Y683957D01*
X325755Y681857D01*
Y679583D01*
X326625Y677483D01*
X327844Y676263D01*
Y505692D01*
X309576Y487424D01*
X308432Y488084D01*
X307572Y488315D01*
Y489585D01*
X308432Y489815D01*
X311328Y491488D01*
X313692Y493852D01*
X315364Y496748D01*
X316230Y499978D01*
Y503322D01*
X315364Y506552D01*
X313692Y509448D01*
X311328Y511813D01*
X308432Y513484D01*
X307572Y513715D01*
Y514985D01*
X308432Y515215D01*
X311328Y516888D01*
X313692Y519252D01*
X315364Y522148D01*
X316230Y525378D01*
Y528722D01*
X315364Y531952D01*
X313692Y534848D01*
X311328Y537212D01*
X308432Y538885D01*
X307572Y539115D01*
Y540385D01*
X308432Y540616D01*
X311328Y542287D01*
X313692Y544652D01*
X315364Y547548D01*
X316230Y550778D01*
Y554122D01*
X315364Y557352D01*
X313692Y560248D01*
X311328Y562612D01*
X308432Y564285D01*
X307572Y564515D01*
Y565785D01*
X308432Y566016D01*
X311328Y567687D01*
X313692Y570052D01*
X315364Y572948D01*
X316230Y576178D01*
Y579522D01*
X315364Y582752D01*
X313692Y585648D01*
X311328Y588013D01*
X308432Y589684D01*
X307572Y589915D01*
Y591185D01*
X308432Y591415D01*
X311328Y593088D01*
X313692Y595452D01*
X315364Y598348D01*
X316230Y601578D01*
Y604922D01*
X315364Y608152D01*
X313692Y611048D01*
X311328Y613413D01*
X308432Y615084D01*
X305202Y615950D01*
X301858D01*
X298628Y615084D01*
X295732Y613413D01*
X293958Y611638D01*
X292688Y612164D01*
Y721336D01*
X293958Y721862D01*
X295732Y720088D01*
X298628Y718416D01*
X301858Y717550D01*
X305202D01*
X308432Y718416D01*
X311328Y720088D01*
X313692Y722452D01*
X315364Y725348D01*
X316230Y728578D01*
Y731922D01*
X315364Y735152D01*
X313692Y738048D01*
X311328Y740413D01*
X308432Y742085D01*
X305202Y742950D01*
X301858D01*
X298628Y742085D01*
X295732Y740413D01*
X293958Y738638D01*
X292688Y739164D01*
Y772136D01*
X293958Y772662D01*
X295732Y770888D01*
X298628Y769215D01*
X301858Y768350D01*
X305202D01*
X308432Y769215D01*
X311328Y770888D01*
X313692Y773252D01*
X315364Y776148D01*
X316230Y779378D01*
Y782722D01*
X315364Y785952D01*
X313692Y788848D01*
X311328Y791212D01*
X308432Y792885D01*
X307572Y793115D01*
Y794385D01*
X308432Y794615D01*
X311328Y796288D01*
X313692Y798652D01*
X315364Y801548D01*
X316230Y804778D01*
Y808122D01*
X315364Y811352D01*
X313692Y814248D01*
X311328Y816612D01*
X308432Y818285D01*
X307572Y818515D01*
Y819785D01*
X308432Y820015D01*
X311328Y821687D01*
X313692Y824052D01*
X315364Y826948D01*
X316230Y830178D01*
Y833522D01*
X315364Y836752D01*
X313692Y839648D01*
X311328Y842012D01*
X308432Y843684D01*
X307572Y843915D01*
Y845185D01*
X308432Y845415D01*
X311328Y847087D01*
X313692Y849452D01*
X315364Y852348D01*
X316230Y855578D01*
Y858922D01*
X315364Y862152D01*
X313692Y865048D01*
X311328Y867412D01*
X308432Y869084D01*
X305202Y869950D01*
X301858D01*
X298628Y869084D01*
X295732Y867412D01*
X293368Y865048D01*
X291695Y862152D01*
X290830Y858922D01*
Y855578D01*
X291695Y852348D01*
X292088Y851668D01*
X285614Y845194D01*
X284716Y843850D01*
X284400Y842264D01*
Y608732D01*
X283344Y608027D01*
X282442Y608401D01*
X280168D01*
X278068Y607531D01*
X276915Y606378D01*
X272034D01*
X270448Y606062D01*
X269104Y605164D01*
X262255Y598315D01*
X260985Y598841D01*
Y600577D01*
X260115Y602677D01*
X259414Y603379D01*
Y720090D01*
X259098Y721676D01*
X258200Y723020D01*
X122778Y858442D01*
X124004Y859668D01*
X125392Y862072D01*
X126110Y864752D01*
Y867528D01*
X125392Y870208D01*
X124004Y872612D01*
X122042Y874574D01*
X119638Y875962D01*
X116958Y876680D01*
X114182D01*
X111502Y875962D01*
X109098Y874574D01*
X107136Y872612D01*
X105748Y870208D01*
X105030Y867528D01*
Y864752D01*
X105748Y862072D01*
X107136Y859668D01*
X109098Y857706D01*
X111502Y856318D01*
X114182Y855600D01*
X114304D01*
X115118Y854382D01*
X251126Y718374D01*
Y603379D01*
X250425Y602677D01*
X249555Y600577D01*
Y598303D01*
X250425Y596203D01*
X252033Y594595D01*
X254133Y593725D01*
X255869D01*
X256395Y592455D01*
X238479Y574539D01*
X237306Y575025D01*
Y606425D01*
X237357D01*
X239457Y607295D01*
X241065Y608903D01*
X241935Y611003D01*
Y613277D01*
X241065Y615377D01*
X239457Y616985D01*
X237357Y617855D01*
X235083D01*
X232983Y616985D01*
X231375Y615377D01*
X230505Y613277D01*
Y611075D01*
X230330Y610813D01*
X230054Y609426D01*
X230054Y609426D01*
Y602233D01*
X228881Y601746D01*
X227146Y603482D01*
Y669290D01*
X226870Y670677D01*
X226084Y671854D01*
X226084Y671854D01*
X222885Y675052D01*
Y676777D01*
X222015Y678877D01*
X220407Y680485D01*
X218307Y681355D01*
X216033D01*
X213933Y680485D01*
X212325Y678877D01*
X211455Y676777D01*
Y676712D01*
X210282Y676226D01*
X200684Y685824D01*
X199508Y686610D01*
X198120Y686886D01*
X198120Y686886D01*
X182257D01*
X181672Y687470D01*
X179572Y688340D01*
X177997D01*
Y698533D01*
X193007Y713543D01*
X221869D01*
X221869Y713543D01*
X223256Y713819D01*
X224433Y714605D01*
X228013Y718185D01*
X229737D01*
X231837Y719055D01*
X233445Y720663D01*
X234315Y722763D01*
Y725037D01*
X233445Y727137D01*
X231837Y728745D01*
X229737Y729615D01*
X227463D01*
X225363Y728745D01*
X223755Y727137D01*
X222885Y725037D01*
Y723313D01*
X220367Y720795D01*
X211783D01*
X211077Y721851D01*
X211455Y722763D01*
Y725037D01*
X210585Y727137D01*
X208977Y728745D01*
X206877Y729615D01*
X204603D01*
X202503Y728745D01*
X201283Y727526D01*
X191770D01*
X191770Y727526D01*
X190382Y727250D01*
X189206Y726464D01*
X189206Y726464D01*
X170036Y707293D01*
X168863Y707779D01*
Y753491D01*
X168547Y755077D01*
X167649Y756421D01*
X125414Y798656D01*
X126110Y801252D01*
Y804028D01*
X125392Y806708D01*
X124004Y809112D01*
X122042Y811074D01*
X119638Y812462D01*
X116958Y813180D01*
X114182D01*
X111502Y812462D01*
X109098Y811074D01*
X107136Y809112D01*
X105748Y806708D01*
X105030Y804028D01*
Y801252D01*
X105748Y798572D01*
X107136Y796168D01*
X109098Y794206D01*
X111502Y792818D01*
X114182Y792100D01*
X116958D01*
X119554Y792796D01*
X160575Y751775D01*
Y703277D01*
X159519Y702571D01*
X158617Y702945D01*
X157625D01*
X125414Y735156D01*
X126110Y737752D01*
Y740528D01*
X125392Y743208D01*
X124004Y745612D01*
X122042Y747574D01*
X119638Y748962D01*
X116958Y749680D01*
X114182D01*
X111502Y748962D01*
X109098Y747574D01*
X107136Y745612D01*
X105748Y743208D01*
X105030Y740528D01*
Y737752D01*
X105748Y735072D01*
X107136Y732668D01*
X109098Y730706D01*
X111502Y729318D01*
X114182Y728600D01*
X116958D01*
X119554Y729296D01*
X151765Y697085D01*
Y696093D01*
X152635Y693993D01*
X154243Y692385D01*
X155614Y691817D01*
X154878Y690040D01*
Y687766D01*
X155748Y685666D01*
X157356Y684058D01*
X159456Y683188D01*
X161730D01*
X162450Y683486D01*
X163506Y682781D01*
Y677417D01*
X163506Y677416D01*
X163782Y676029D01*
X164568Y674853D01*
X166173Y673248D01*
Y668647D01*
X166173Y668646D01*
X166449Y667259D01*
X167235Y666083D01*
X167570Y665748D01*
Y660093D01*
X166514Y659387D01*
X165602Y659765D01*
X163328D01*
X161228Y658895D01*
X159620Y657287D01*
X159120Y656080D01*
X157745D01*
X157245Y657287D01*
X155637Y658895D01*
X153537Y659765D01*
X151263D01*
X149163Y658895D01*
X147555Y657287D01*
X146772Y655397D01*
X146648Y655276D01*
X146368Y655256D01*
X146027Y655314D01*
X145137Y655858D01*
X144545Y657287D01*
X142937Y658895D01*
X140837Y659765D01*
X138563D01*
X136463Y658895D01*
X134855Y657287D01*
X133985Y655187D01*
Y654195D01*
X101210Y621420D01*
X100312Y620076D01*
X99996Y618490D01*
Y591735D01*
X98823Y591249D01*
X98487Y591585D01*
X96387Y592455D01*
X94113D01*
X92013Y591585D01*
X90405Y589977D01*
X89535Y587877D01*
Y586885D01*
X76445Y573795D01*
X75547Y572451D01*
X75231Y570865D01*
Y443037D01*
X74930Y442836D01*
X73660Y443515D01*
Y1013961D01*
X464204D01*
X464288Y1012691D01*
X463680Y1012611D01*
X462752Y1012489D01*
X461040Y1011779D01*
X459569Y1010651D01*
X458441Y1009180D01*
X457731Y1007468D01*
X457489Y1005630D01*
Y996630D01*
X457731Y994792D01*
X458441Y993080D01*
X459569Y991609D01*
X461040Y990481D01*
X462752Y989771D01*
X464590Y989529D01*
X466428Y989771D01*
X468140Y990481D01*
X469611Y991609D01*
X470739Y993080D01*
X471449Y994792D01*
X471691Y996630D01*
Y1005630D01*
X471449Y1007468D01*
X470739Y1009180D01*
X469611Y1010651D01*
X468140Y1011779D01*
X466428Y1012489D01*
X465500Y1012611D01*
X464892Y1012691D01*
X464976Y1013961D01*
X530204D01*
X530288Y1012691D01*
X529680Y1012611D01*
X528752Y1012489D01*
X527040Y1011779D01*
X525569Y1010651D01*
X524441Y1009180D01*
X523731Y1007468D01*
X523489Y1005630D01*
Y996630D01*
X523731Y994792D01*
X524441Y993080D01*
X525569Y991609D01*
X527040Y990481D01*
X528752Y989771D01*
X530590Y989529D01*
X532428Y989771D01*
X534140Y990481D01*
X535611Y991609D01*
X536739Y993080D01*
X537449Y994792D01*
X537691Y996630D01*
Y1005630D01*
X537449Y1007468D01*
X536739Y1009180D01*
X535611Y1010651D01*
X534140Y1011779D01*
X532428Y1012489D01*
X531500Y1012611D01*
X530892Y1012691D01*
X530976Y1013961D01*
X772661D01*
Y2039D01*
D02*
G37*
G36*
X214814Y661438D02*
Y599440D01*
X214814Y599440D01*
X215090Y598052D01*
X215876Y596876D01*
X220910Y591842D01*
Y512019D01*
X199366Y490475D01*
X198580Y489299D01*
X198304Y487911D01*
X198304Y487911D01*
Y440922D01*
X172696Y415314D01*
X171910Y414137D01*
X171634Y412750D01*
X171634Y412750D01*
Y394446D01*
X170358Y394104D01*
X167462Y392433D01*
X165098Y390068D01*
X163426Y387172D01*
X163195Y386312D01*
X161925D01*
X161695Y387172D01*
X160023Y390068D01*
X157658Y392433D01*
X154762Y394104D01*
X153486Y394446D01*
Y411027D01*
X153486Y411027D01*
X153210Y412415D01*
X152424Y413591D01*
X152424Y413591D01*
X118434Y447581D01*
Y463072D01*
X119607Y463558D01*
X121285Y461880D01*
Y459873D01*
X122155Y457773D01*
X123763Y456165D01*
X125863Y455295D01*
X128137D01*
X130237Y456165D01*
X131845Y457773D01*
X132683Y459797D01*
X132746Y459887D01*
X133985Y460454D01*
Y459873D01*
X134855Y457773D01*
X136463Y456165D01*
X138563Y455295D01*
X140837D01*
X142937Y456165D01*
X144545Y457773D01*
X145415Y459873D01*
Y462147D01*
X144545Y464247D01*
X142937Y465855D01*
X140837Y466725D01*
X139113D01*
X127578Y478260D01*
Y493134D01*
X128848Y493660D01*
X145378Y477130D01*
X146722Y476232D01*
X148308Y475916D01*
X158621D01*
X159323Y475215D01*
X161423Y474345D01*
X163697D01*
X165797Y475215D01*
X167405Y476823D01*
X168132Y478579D01*
X169448Y479059D01*
X169483Y479025D01*
X171583Y478155D01*
X173857D01*
X175957Y479025D01*
X177565Y480633D01*
X178435Y482733D01*
Y485007D01*
X177565Y487107D01*
X175957Y488715D01*
X173857Y489585D01*
X171971D01*
X170947Y490610D01*
X169602Y491508D01*
X168016Y491824D01*
X150307D01*
X140542Y501589D01*
Y592811D01*
X197240Y649510D01*
X198138Y650854D01*
X198454Y652439D01*
Y671701D01*
X199155Y672403D01*
X200025Y674503D01*
Y674568D01*
X201198Y675054D01*
X214814Y661438D01*
D02*
G37*
%LPC*%
G36*
X338970Y998100D02*
X318890D01*
Y978020D01*
X338970D01*
Y998100D01*
D02*
G37*
G36*
X305252D02*
X302608D01*
X300055Y997416D01*
X297765Y996094D01*
X295896Y994225D01*
X294574Y991935D01*
X293890Y989382D01*
Y986738D01*
X294574Y984185D01*
X295896Y981895D01*
X297765Y980026D01*
X300055Y978704D01*
X302608Y978020D01*
X305252D01*
X307805Y978704D01*
X310095Y980026D01*
X311964Y981895D01*
X313286Y984185D01*
X313970Y986738D01*
Y989382D01*
X313286Y991935D01*
X311964Y994225D01*
X310095Y996094D01*
X307805Y997416D01*
X305252Y998100D01*
D02*
G37*
G36*
X116958Y902080D02*
X114182D01*
X111502Y901362D01*
X109098Y899974D01*
X107136Y898012D01*
X105748Y895608D01*
X105030Y892928D01*
Y890152D01*
X105748Y887472D01*
X107136Y885068D01*
X109098Y883106D01*
X111502Y881718D01*
X114182Y881000D01*
X116958D01*
X119638Y881718D01*
X122042Y883106D01*
X124004Y885068D01*
X125392Y887472D01*
X126110Y890152D01*
Y892928D01*
X125392Y895608D01*
X124004Y898012D01*
X122042Y899974D01*
X119638Y901362D01*
X116958Y902080D01*
D02*
G37*
G36*
X729098Y890650D02*
X726322D01*
X723642Y889932D01*
X721238Y888544D01*
X719276Y886582D01*
X717888Y884178D01*
X717170Y881498D01*
Y878722D01*
X717888Y876042D01*
X719276Y873638D01*
X721238Y871676D01*
X723642Y870288D01*
X726322Y869570D01*
X729098D01*
X731778Y870288D01*
X734182Y871676D01*
X736144Y873638D01*
X737532Y876042D01*
X738250Y878722D01*
Y881498D01*
X737532Y884178D01*
X736144Y886582D01*
X734182Y888544D01*
X731778Y889932D01*
X729098Y890650D01*
D02*
G37*
G36*
X632363Y866150D02*
X629457D01*
X626649Y865398D01*
X624131Y863944D01*
X622076Y861889D01*
X620622Y859371D01*
X619870Y856563D01*
Y853657D01*
X620622Y850849D01*
X622076Y848331D01*
X624131Y846276D01*
X626649Y844822D01*
X629457Y844070D01*
X632363D01*
X635171Y844822D01*
X637689Y846276D01*
X639744Y848331D01*
X641198Y850849D01*
X641950Y853657D01*
Y856563D01*
X641198Y859371D01*
X639744Y861889D01*
X637689Y863944D01*
X635171Y865398D01*
X632363Y866150D01*
D02*
G37*
G36*
X486277Y875665D02*
X484003D01*
X481903Y874795D01*
X480295Y873187D01*
X479425Y871087D01*
Y868813D01*
X480295Y866713D01*
X481514Y865493D01*
Y838432D01*
X477990Y834908D01*
X476492Y835206D01*
X476015Y836357D01*
X474407Y837965D01*
X472543Y838737D01*
X472018Y840008D01*
X473551Y841541D01*
X474280Y842633D01*
X474537Y843922D01*
Y844914D01*
X476015Y846393D01*
X476885Y848493D01*
Y850767D01*
X476015Y852867D01*
X474407Y854475D01*
X472307Y855345D01*
X470033D01*
X467933Y854475D01*
X466325Y852867D01*
X465455Y850767D01*
Y848493D01*
X466325Y846393D01*
X467602Y845115D01*
X453549Y831062D01*
X452820Y829970D01*
X452563Y828682D01*
Y714645D01*
X451085Y713167D01*
X450215Y711067D01*
Y708793D01*
X451085Y706693D01*
X452693Y705085D01*
X454793Y704215D01*
X457067D01*
X459167Y705085D01*
X460375Y706293D01*
X461583Y705085D01*
X463683Y704215D01*
X465957D01*
X468057Y705085D01*
X469665Y706693D01*
X470535Y708793D01*
Y711067D01*
X469665Y713167D01*
X468187Y714645D01*
Y816372D01*
X469457Y817221D01*
X470482Y816796D01*
X472756D01*
X474856Y817666D01*
X476464Y819274D01*
X477334Y821374D01*
Y823648D01*
X477232Y823894D01*
X487704Y834366D01*
X487704Y834366D01*
X488490Y835543D01*
X488766Y836930D01*
Y865493D01*
X489985Y866713D01*
X490855Y868813D01*
Y871087D01*
X489985Y873187D01*
X488377Y874795D01*
X486277Y875665D01*
D02*
G37*
G36*
X657363Y841150D02*
X654457D01*
X651649Y840398D01*
X649131Y838944D01*
X647076Y836889D01*
X645622Y834371D01*
X644870Y831563D01*
Y828657D01*
X645622Y825849D01*
X647076Y823331D01*
X649131Y821276D01*
X651649Y819822D01*
X654457Y819070D01*
X657363D01*
X660171Y819822D01*
X662689Y821276D01*
X664744Y823331D01*
X666198Y825849D01*
X666950Y828657D01*
Y831563D01*
X666198Y834371D01*
X664744Y836889D01*
X662689Y838944D01*
X660171Y840398D01*
X657363Y841150D01*
D02*
G37*
G36*
X116958Y838580D02*
X114182D01*
X111502Y837862D01*
X109098Y836474D01*
X107136Y834512D01*
X105748Y832108D01*
X105030Y829428D01*
Y826652D01*
X105748Y823972D01*
X107136Y821568D01*
X109098Y819606D01*
X111502Y818218D01*
X114182Y817500D01*
X116958D01*
X119638Y818218D01*
X122042Y819606D01*
X124004Y821568D01*
X125392Y823972D01*
X126110Y826652D01*
Y829428D01*
X125392Y832108D01*
X124004Y834512D01*
X122042Y836474D01*
X119638Y837862D01*
X116958Y838580D01*
D02*
G37*
G36*
X511677Y875665D02*
X509403D01*
X507303Y874795D01*
X505695Y873187D01*
X504825Y871087D01*
Y868813D01*
X505695Y866713D01*
X506914Y865493D01*
Y853440D01*
X506914Y853440D01*
X507190Y852053D01*
X507976Y850876D01*
X522154Y836698D01*
Y826147D01*
X520935Y824927D01*
X520065Y822827D01*
Y820553D01*
X520935Y818453D01*
X522543Y816845D01*
X524643Y815975D01*
X526917D01*
X529017Y816845D01*
X530625Y818453D01*
X531495Y820553D01*
Y822827D01*
X530625Y824927D01*
X529406Y826147D01*
Y838200D01*
X529406Y838200D01*
X529130Y839587D01*
X528344Y840764D01*
X528344Y840764D01*
X514166Y854942D01*
Y865493D01*
X515385Y866713D01*
X516255Y868813D01*
Y871087D01*
X515385Y873187D01*
X513777Y874795D01*
X511677Y875665D01*
D02*
G37*
G36*
X116958Y775080D02*
X114182D01*
X111502Y774362D01*
X109098Y772974D01*
X107136Y771012D01*
X105748Y768608D01*
X105030Y765928D01*
Y763152D01*
X105748Y760472D01*
X107136Y758068D01*
X109098Y756106D01*
X111502Y754718D01*
X114182Y754000D01*
X116958D01*
X119638Y754718D01*
X122042Y756106D01*
X124004Y758068D01*
X125392Y760472D01*
X126110Y763152D01*
Y765928D01*
X125392Y768608D01*
X124004Y771012D01*
X122042Y772974D01*
X119638Y774362D01*
X116958Y775080D01*
D02*
G37*
G36*
X707257Y776605D02*
X704983D01*
X702883Y775735D01*
X701275Y774127D01*
X700405Y772027D01*
Y769753D01*
X701275Y767653D01*
X701976Y766951D01*
Y749215D01*
X700803Y748729D01*
X700467Y749065D01*
X698367Y749935D01*
X696093D01*
X693993Y749065D01*
X692385Y747457D01*
X691515Y745357D01*
Y743083D01*
X692385Y740983D01*
X693086Y740281D01*
Y725616D01*
X685655Y718185D01*
X684663D01*
X682563Y717315D01*
X680955Y715707D01*
X680085Y713607D01*
Y711333D01*
X680955Y709233D01*
X681291Y708897D01*
X680805Y707724D01*
X679579D01*
X678877Y708425D01*
X676777Y709295D01*
X674503D01*
X672403Y708425D01*
X670795Y706817D01*
X669925Y704717D01*
Y702443D01*
X670795Y700343D01*
X672403Y698735D01*
X674503Y697865D01*
X676777D01*
X678877Y698735D01*
X679579Y699436D01*
X689610D01*
X691196Y699752D01*
X692540Y700650D01*
X709050Y717160D01*
X709948Y718504D01*
X710264Y720090D01*
Y766951D01*
X710965Y767653D01*
X711835Y769753D01*
Y772027D01*
X710965Y774127D01*
X709357Y775735D01*
X707257Y776605D01*
D02*
G37*
G36*
X729098Y765650D02*
X726322D01*
X723642Y764932D01*
X721238Y763544D01*
X719276Y761582D01*
X717888Y759178D01*
X717170Y756498D01*
Y753723D01*
X717888Y751042D01*
X719276Y748639D01*
X721238Y746676D01*
X723642Y745289D01*
X726322Y744570D01*
X729098D01*
X731778Y745289D01*
X734182Y746676D01*
X736144Y748639D01*
X737532Y751042D01*
X738250Y753723D01*
Y756498D01*
X737532Y759178D01*
X736144Y761582D01*
X734182Y763544D01*
X731778Y764932D01*
X729098Y765650D01*
D02*
G37*
G36*
Y665860D02*
X726322D01*
X723642Y665142D01*
X721238Y663754D01*
X719276Y661792D01*
X717888Y659388D01*
X717170Y656708D01*
Y653932D01*
X717888Y651252D01*
X719276Y648848D01*
X721238Y646886D01*
X723642Y645498D01*
X726322Y644780D01*
X729098D01*
X731778Y645498D01*
X734182Y646886D01*
X736144Y648848D01*
X737532Y651252D01*
X738250Y653932D01*
Y656708D01*
X737532Y659388D01*
X736144Y661792D01*
X734182Y663754D01*
X731778Y665142D01*
X729098Y665860D01*
D02*
G37*
G36*
X92443Y685800D02*
X90437D01*
X88499Y685281D01*
X86761Y684277D01*
X85343Y682859D01*
X84339Y681121D01*
X83820Y679183D01*
Y677177D01*
X84339Y675239D01*
X85343Y673501D01*
X85613Y673231D01*
Y656740D01*
X86057Y654510D01*
X87320Y652619D01*
X89740Y650199D01*
Y649816D01*
X90259Y647878D01*
X91263Y646141D01*
X92681Y644722D01*
X94419Y643719D01*
X96357Y643199D01*
X98363D01*
X100301Y643719D01*
X102039Y644722D01*
X103457Y646141D01*
X104461Y647878D01*
X104980Y649816D01*
Y651823D01*
X104461Y653761D01*
X103457Y655498D01*
X102039Y656917D01*
X100301Y657920D01*
X98363Y658439D01*
X97981D01*
X97267Y659153D01*
Y673231D01*
X97537Y673501D01*
X98541Y675239D01*
X99060Y677177D01*
Y679183D01*
X98541Y681121D01*
X97537Y682859D01*
X96119Y684277D01*
X94381Y685281D01*
X92443Y685800D01*
D02*
G37*
G36*
X495167Y685165D02*
X492893D01*
X490793Y684295D01*
X489185Y682687D01*
X488315Y680587D01*
Y678313D01*
X489185Y676213D01*
X489886Y675511D01*
Y647829D01*
X489185Y647127D01*
X488315Y645027D01*
Y642753D01*
X489185Y640653D01*
X490793Y639045D01*
X492893Y638175D01*
X495167D01*
X497267Y639045D01*
X498875Y640653D01*
X499745Y642753D01*
Y645027D01*
X498875Y647127D01*
X498174Y647829D01*
Y675511D01*
X498875Y676213D01*
X499745Y678313D01*
Y680587D01*
X498875Y682687D01*
X497267Y684295D01*
X495167Y685165D01*
D02*
G37*
G36*
X580257Y643255D02*
X577983D01*
X575883Y642385D01*
X574275Y640777D01*
X573405Y638677D01*
Y636403D01*
X573430Y636343D01*
X566372Y629285D01*
X565283D01*
X563183Y628415D01*
X561575Y626807D01*
X560705Y624707D01*
Y622433D01*
X561575Y620333D01*
X563183Y618725D01*
X565283Y617855D01*
X567557D01*
X569657Y618725D01*
X571265Y620333D01*
X572135Y622433D01*
Y624707D01*
X572110Y624767D01*
X579168Y631825D01*
X580257D01*
X582357Y632695D01*
X583965Y634303D01*
X584835Y636403D01*
Y638677D01*
X583965Y640777D01*
X582357Y642385D01*
X580257Y643255D01*
D02*
G37*
G36*
X632363Y616360D02*
X629457D01*
X626649Y615608D01*
X624131Y614154D01*
X622076Y612099D01*
X620622Y609581D01*
X619870Y606773D01*
Y603867D01*
X620622Y601059D01*
X622076Y598541D01*
X624131Y596486D01*
X626649Y595032D01*
X629457Y594280D01*
X632363D01*
X635171Y595032D01*
X637689Y596486D01*
X639744Y598541D01*
X641198Y601059D01*
X641950Y603867D01*
Y606773D01*
X641198Y609581D01*
X639744Y612099D01*
X637689Y614154D01*
X635171Y615608D01*
X632363Y616360D01*
D02*
G37*
G36*
X657363Y566360D02*
X654457D01*
X651649Y565608D01*
X649131Y564154D01*
X647076Y562099D01*
X645622Y559581D01*
X644870Y556773D01*
Y553867D01*
X645622Y551059D01*
X647076Y548541D01*
X649131Y546486D01*
X651649Y545032D01*
X654457Y544280D01*
X657363D01*
X660171Y545032D01*
X662689Y546486D01*
X664744Y548541D01*
X666198Y551059D01*
X666950Y553867D01*
Y556773D01*
X666198Y559581D01*
X664744Y562099D01*
X662689Y564154D01*
X660171Y565608D01*
X657363Y566360D01*
D02*
G37*
G36*
X632363D02*
X629457D01*
X626649Y565608D01*
X624131Y564154D01*
X622076Y562099D01*
X620622Y559581D01*
X619870Y556773D01*
Y553867D01*
X620622Y551059D01*
X622076Y548541D01*
X624131Y546486D01*
X626649Y545032D01*
X629457Y544280D01*
X632363D01*
X635171Y545032D01*
X637689Y546486D01*
X639744Y548541D01*
X641198Y551059D01*
X641950Y553867D01*
Y556773D01*
X641198Y559581D01*
X639744Y562099D01*
X637689Y564154D01*
X635171Y565608D01*
X632363Y566360D01*
D02*
G37*
G36*
X729098Y540860D02*
X726322D01*
X723642Y540142D01*
X721238Y538754D01*
X719276Y536792D01*
X717888Y534389D01*
X717170Y531708D01*
Y528933D01*
X717888Y526252D01*
X719276Y523848D01*
X721238Y521886D01*
X723642Y520499D01*
X726322Y519780D01*
X729098D01*
X731778Y520499D01*
X734182Y521886D01*
X736144Y523848D01*
X737532Y526252D01*
X738250Y528933D01*
Y531708D01*
X737532Y534389D01*
X736144Y536792D01*
X734182Y538754D01*
X731778Y540142D01*
X729098Y540860D01*
D02*
G37*
G36*
X632363Y541360D02*
X629457D01*
X626649Y540608D01*
X624131Y539154D01*
X622076Y537099D01*
X620622Y534581D01*
X619870Y531773D01*
Y528867D01*
X620622Y526059D01*
X622076Y523541D01*
X624131Y521486D01*
X626649Y520032D01*
X629457Y519280D01*
X632363D01*
X635171Y520032D01*
X637689Y521486D01*
X639744Y523541D01*
X641198Y526059D01*
X641950Y528867D01*
Y531773D01*
X641198Y534581D01*
X639744Y537099D01*
X637689Y539154D01*
X635171Y540608D01*
X632363Y541360D01*
D02*
G37*
G36*
X722861Y425958D02*
X719859D01*
X716915Y425372D01*
X714141Y424224D01*
X711645Y422556D01*
X709522Y420433D01*
X707855Y417937D01*
X706706Y415163D01*
X706120Y412219D01*
Y409217D01*
X706706Y406273D01*
X707855Y403499D01*
X709522Y401003D01*
X711645Y398880D01*
X714141Y397212D01*
X716915Y396064D01*
X719859Y395478D01*
X722861D01*
X723579Y395621D01*
X734745Y384455D01*
Y307373D01*
X733475Y306987D01*
X733198Y307403D01*
X731075Y309526D01*
X728579Y311194D01*
X725805Y312342D01*
X722861Y312928D01*
X719859D01*
X716915Y312342D01*
X714141Y311194D01*
X711645Y309526D01*
X709522Y307403D01*
X707855Y304907D01*
X706706Y302133D01*
X706120Y299189D01*
Y296187D01*
X706706Y293243D01*
X707855Y290469D01*
X709522Y287973D01*
X711645Y285850D01*
X714141Y284182D01*
X716915Y283034D01*
X719859Y282448D01*
X722861D01*
X725805Y283034D01*
X728579Y284182D01*
X731075Y285850D01*
X733198Y287973D01*
X733528Y288467D01*
X734745D01*
Y262890D01*
X706120D01*
Y232410D01*
X734745D01*
Y210413D01*
X723579Y199247D01*
X722861Y199390D01*
X719859D01*
X716915Y198804D01*
X714141Y197656D01*
X711645Y195988D01*
X709522Y193865D01*
X707855Y191369D01*
X706706Y188595D01*
X706120Y185651D01*
Y182649D01*
X706706Y179705D01*
X707855Y176931D01*
X709522Y174435D01*
X711645Y172312D01*
X714141Y170644D01*
X716915Y169496D01*
X719859Y168910D01*
X722861D01*
X725805Y169496D01*
X728579Y170644D01*
X731075Y172312D01*
X733198Y174435D01*
X734865Y176931D01*
X736014Y179705D01*
X736600Y182649D01*
Y185651D01*
X736392Y186698D01*
X750052Y200359D01*
X751477Y202216D01*
X752373Y204379D01*
X752679Y206699D01*
Y297434D01*
Y388169D01*
X752373Y390490D01*
X751477Y392652D01*
X750052Y394509D01*
X736392Y408170D01*
X736600Y409217D01*
Y412219D01*
X736014Y415163D01*
X734865Y417937D01*
X733198Y420433D01*
X731075Y422556D01*
X728579Y424224D01*
X725805Y425372D01*
X722861Y425958D01*
D02*
G37*
G36*
X476368Y300100D02*
X473592D01*
X470912Y299382D01*
X468508Y297994D01*
X466546Y296032D01*
X465158Y293628D01*
X464440Y290948D01*
Y288172D01*
X465158Y285492D01*
X466546Y283088D01*
X468508Y281126D01*
X470912Y279738D01*
X473592Y279020D01*
X476368D01*
X479048Y279738D01*
X481452Y281126D01*
X483414Y283088D01*
X484802Y285492D01*
X485520Y288172D01*
Y290948D01*
X484802Y293628D01*
X483414Y296032D01*
X481452Y297994D01*
X479048Y299382D01*
X476368Y300100D01*
D02*
G37*
G36*
X583080Y244470D02*
X580239D01*
X577495Y243735D01*
X575035Y242314D01*
X573026Y240305D01*
X571605Y237845D01*
X570870Y235100D01*
Y232260D01*
X571605Y229515D01*
X573026Y227055D01*
X575035Y225046D01*
X577495Y223625D01*
X580239Y222890D01*
X583080D01*
X585825Y223625D01*
X588285Y225046D01*
X590294Y227055D01*
X591715Y229515D01*
X592450Y232260D01*
Y235100D01*
X591715Y237845D01*
X590294Y240305D01*
X588285Y242314D01*
X585825Y243735D01*
X583080Y244470D01*
D02*
G37*
G36*
X221382Y173990D02*
X218038D01*
X214808Y173125D01*
X211912Y171453D01*
X209548Y169088D01*
X207875Y166192D01*
X207645Y165332D01*
X206375D01*
X206145Y166192D01*
X204473Y169088D01*
X202108Y171453D01*
X199212Y173125D01*
X195982Y173990D01*
X192638D01*
X189408Y173125D01*
X186512Y171453D01*
X184147Y169088D01*
X182475Y166192D01*
X182245Y165332D01*
X180975D01*
X180744Y166192D01*
X179072Y169088D01*
X176708Y171453D01*
X173812Y173125D01*
X170582Y173990D01*
X167238D01*
X164008Y173125D01*
X161112Y171453D01*
X158748Y169088D01*
X157076Y166192D01*
X156210Y162962D01*
Y159618D01*
X157076Y156388D01*
X158748Y153492D01*
X161112Y151128D01*
X163307Y149860D01*
X162967Y148590D01*
X156210D01*
Y123190D01*
X181610D01*
Y129947D01*
X182880Y130287D01*
X184147Y128092D01*
X186512Y125728D01*
X189408Y124056D01*
X192638Y123190D01*
X195982D01*
X199212Y124056D01*
X202108Y125728D01*
X204473Y128092D01*
X206145Y130988D01*
X206375Y131848D01*
X207645D01*
X207875Y130988D01*
X209548Y128092D01*
X211912Y125728D01*
X214808Y124056D01*
X218038Y123190D01*
X221382D01*
X224612Y124056D01*
X227508Y125728D01*
X229872Y128092D01*
X231544Y130988D01*
X232410Y134218D01*
Y137562D01*
X231544Y140792D01*
X229872Y143688D01*
X227508Y146053D01*
X224612Y147725D01*
X223752Y147955D01*
Y149225D01*
X224612Y149455D01*
X227508Y151128D01*
X229872Y153492D01*
X231544Y156388D01*
X232410Y159618D01*
Y162962D01*
X231544Y166192D01*
X229872Y169088D01*
X227508Y171453D01*
X224612Y173125D01*
X221382Y173990D01*
D02*
G37*
G36*
X476368Y145160D02*
X473592D01*
X470912Y144442D01*
X468508Y143054D01*
X466546Y141092D01*
X465158Y138688D01*
X464440Y136008D01*
Y133232D01*
X465158Y130552D01*
X466546Y128148D01*
X468508Y126186D01*
X470912Y124798D01*
X473592Y124080D01*
X476368D01*
X479048Y124798D01*
X481452Y126186D01*
X483414Y128148D01*
X484802Y130552D01*
X485520Y133232D01*
Y136008D01*
X484802Y138688D01*
X483414Y141092D01*
X481452Y143054D01*
X479048Y144442D01*
X476368Y145160D01*
D02*
G37*
G36*
X736600Y149352D02*
X706120D01*
Y118872D01*
X736600D01*
Y149352D01*
D02*
G37*
G36*
X583080Y66670D02*
X580239D01*
X577495Y65935D01*
X575035Y64514D01*
X573026Y62505D01*
X571605Y60045D01*
X570870Y57301D01*
Y54460D01*
X571605Y51715D01*
X573026Y49255D01*
X575035Y47246D01*
X577495Y45825D01*
X580239Y45090D01*
X583080D01*
X585825Y45825D01*
X588285Y47246D01*
X590294Y49255D01*
X591715Y51715D01*
X592450Y54460D01*
Y57301D01*
X591715Y60045D01*
X590294Y62505D01*
X588285Y64514D01*
X585825Y65935D01*
X583080Y66670D01*
D02*
G37*
%LPD*%
D41*
X150740Y529190D02*
D03*
X144240Y522690D02*
D03*
X150740Y516190D02*
D03*
X157240Y522690D02*
D03*
X174240D02*
D03*
X180740Y516190D02*
D03*
X187240Y522690D02*
D03*
X180740Y529190D02*
D03*
X210740D02*
D03*
Y516190D02*
D03*
X217240Y522690D02*
D03*
X204240D02*
D03*
X180990Y559190D02*
D03*
X174240Y552690D02*
D03*
X180740Y546190D02*
D03*
X187240Y552690D02*
D03*
X144240D02*
D03*
X150740Y546190D02*
D03*
X157240Y552690D02*
D03*
X150740Y559190D02*
D03*
Y589190D02*
D03*
X144240Y582690D02*
D03*
X150740Y576190D02*
D03*
X157240Y582690D02*
D03*
X174240D02*
D03*
X180740Y576190D02*
D03*
X187240Y582690D02*
D03*
X180740Y589190D02*
D03*
X210740D02*
D03*
X204240Y582690D02*
D03*
X217240D02*
D03*
X210740Y576190D02*
D03*
X210990Y559190D02*
D03*
X204240Y552690D02*
D03*
X217240D02*
D03*
X210740Y546190D02*
D03*
D52*
X655910Y530320D02*
D03*
Y555320D02*
D03*
Y580320D02*
D03*
Y605320D02*
D03*
Y630320D02*
D03*
Y655320D02*
D03*
X630910Y530320D02*
D03*
Y555320D02*
D03*
Y580320D02*
D03*
Y605320D02*
D03*
Y630320D02*
D03*
Y855110D02*
D03*
Y830110D02*
D03*
Y805110D02*
D03*
Y780110D02*
D03*
Y755110D02*
D03*
X655910Y880110D02*
D03*
Y855110D02*
D03*
Y830110D02*
D03*
Y805110D02*
D03*
Y780110D02*
D03*
Y755110D02*
D03*
D56*
X727710Y530320D02*
D03*
Y655320D02*
D03*
X115570Y739140D02*
D03*
Y764540D02*
D03*
Y802640D02*
D03*
Y828040D02*
D03*
Y866140D02*
D03*
Y891540D02*
D03*
X727710Y880110D02*
D03*
Y755110D02*
D03*
D63*
X217805Y480060D02*
Y480695D01*
X238760Y501650D01*
X171826Y483870D02*
X172720D01*
X168016Y487680D02*
X171826Y483870D01*
X148590Y487680D02*
X168016D01*
X148308Y480060D02*
X162560D01*
X136398Y499872D02*
X148590Y487680D01*
X255778Y577850D02*
X281305D01*
X272034Y602234D02*
X280853D01*
X281305Y602686D01*
X238760Y568960D02*
X272034Y602234D01*
X104140Y424180D02*
X104778Y423542D01*
Y422272D02*
Y423542D01*
Y422272D02*
X105410Y421640D01*
X104140Y424180D02*
Y618490D01*
X114300Y421640D02*
Y439403D01*
X109728Y443975D02*
X114300Y439403D01*
X95250Y397510D02*
Y574040D01*
Y397510D02*
X134620Y358140D01*
X104140Y618490D02*
X139700Y654050D01*
X79375Y570865D02*
X95250Y586740D01*
X79375Y438150D02*
Y570865D01*
X130810Y497558D02*
Y596842D01*
X109728Y611378D02*
X152400Y654050D01*
X109728Y443975D02*
Y611378D01*
X136398Y499872D02*
Y594528D01*
X130810Y497558D02*
X148308Y480060D01*
X130810Y596842D02*
X185420Y651452D01*
X136398Y594528D02*
X194310Y652439D01*
X220342Y351158D02*
X239398D01*
X288544Y400304D01*
X134620Y358140D02*
X213360D01*
X220342Y351158D01*
X143764Y341376D02*
X279654D01*
X306070Y314960D01*
X143510Y341630D02*
X143764Y341376D01*
X706120Y720090D02*
Y770890D01*
X689610Y703580D02*
X706120Y720090D01*
X675640Y703580D02*
X689610D01*
X494030Y763270D02*
X593090Y862330D01*
X494030Y736600D02*
Y763270D01*
X601980Y875005D02*
X620411Y893436D01*
X601980Y803910D02*
Y875005D01*
X164719Y693922D02*
Y753491D01*
X115570Y802640D02*
X164719Y753491D01*
X160593Y689796D02*
X164719Y693922D01*
X115570Y739140D02*
X157480Y697230D01*
X160593Y688903D02*
Y689796D01*
X194310Y652439D02*
Y675640D01*
X257810Y541020D02*
X264160Y534670D01*
X257810Y541020D02*
Y568960D01*
X244348Y566420D02*
X255778Y577850D01*
X238760Y501650D02*
Y568960D01*
X244348Y494538D02*
Y566420D01*
X261316Y505266D02*
X265685D01*
X255093Y506044D02*
X255724Y505412D01*
X269691Y519229D02*
X273244Y522783D01*
X259910Y514287D02*
X264853Y519229D01*
X259017Y514287D02*
X259910D01*
X261170Y505412D02*
X261316Y505266D01*
X264853Y519229D02*
X269691D01*
X255724Y505412D02*
X261170D01*
X281305Y520886D02*
Y528840D01*
X265685Y505266D02*
X281305Y520886D01*
X273244Y522783D02*
Y534864D01*
X279400Y541020D01*
X288544Y842264D02*
X303530Y857250D01*
X288544Y400304D02*
Y842264D01*
X361950Y433070D02*
Y681579D01*
X355600Y687929D02*
Y688340D01*
Y687929D02*
X361950Y681579D01*
X600710Y774910D02*
X630910Y805110D01*
X600710Y706120D02*
Y774910D01*
X685800Y712470D02*
X697230Y723900D01*
Y744220D01*
X494030Y643890D02*
Y679450D01*
X303530Y374650D02*
X361950Y433070D01*
X544195Y746125D02*
X601980Y803910D01*
X547370Y736600D02*
X607568Y796798D01*
Y806768D01*
X630910Y830110D01*
X340360Y351790D02*
X566420D01*
X679450Y464820D02*
Y581660D01*
X566420Y351790D02*
X679450Y464820D01*
X288544Y361696D02*
Y385064D01*
X396240Y162560D02*
Y254000D01*
X288544Y361696D02*
X396240Y254000D01*
X414020Y264160D02*
X474980D01*
X303530Y374650D02*
X414020Y264160D01*
X387350Y416560D02*
Y685800D01*
X330200Y359410D02*
X387350Y416560D01*
X664854Y893436D02*
X678180Y880110D01*
X620411Y893436D02*
X664854D01*
X255270Y599440D02*
Y720090D01*
X229870Y480060D02*
X244348Y494538D01*
X185420Y651452D02*
Y675640D01*
X115570Y866140D02*
X118048Y863662D01*
Y857312D02*
Y863662D01*
Y857312D02*
X255270Y720090D01*
X396240Y162560D02*
X449580Y109220D01*
X288544Y385064D02*
X303530Y400050D01*
X449580Y109220D02*
X474980D01*
D64*
X223520Y601980D02*
Y669290D01*
Y601980D02*
X229108Y596392D01*
X217170Y675640D02*
X223520Y669290D01*
X229108Y508624D02*
Y596392D01*
X224536Y510518D02*
Y593344D01*
X198120Y683260D02*
X218440Y662940D01*
Y599440D02*
X224536Y593344D01*
X218440Y599440D02*
Y662940D01*
X211074Y453136D02*
Y484124D01*
Y453136D02*
X226060Y438150D01*
X175260Y412750D02*
X201930Y439420D01*
X206502Y486018D02*
X229108Y508624D01*
X201930Y439420D02*
Y487911D01*
X224536Y510518D01*
X200660Y431684D02*
X206502Y437526D01*
X175260Y382270D02*
Y412750D01*
X200660Y382270D02*
Y431684D01*
X211074Y484124D02*
X233680Y506730D01*
X206502Y437526D02*
Y486018D01*
X226060Y382270D02*
Y438150D01*
X566420Y624205D02*
X579120Y636905D01*
X566420Y623570D02*
Y624205D01*
X579120Y636905D02*
Y637540D01*
X114808Y446079D02*
X149860Y411027D01*
X114808Y603758D02*
X164465Y653415D01*
X123952Y476758D02*
Y597546D01*
X114808Y446079D02*
Y603758D01*
X123952Y597546D02*
X175768Y649362D01*
X123952Y476758D02*
X139700Y461010D01*
X119380Y468913D02*
Y599440D01*
X171196Y651256D01*
X119380Y468913D02*
X127000Y461293D01*
X679450Y735330D02*
Y831570D01*
X630910Y686790D02*
X679450Y735330D01*
X630910Y655320D02*
Y686790D01*
X525780Y821690D02*
Y838200D01*
X471619Y823409D02*
X485140Y836930D01*
X471619Y822511D02*
Y823409D01*
X485140Y836930D02*
Y869950D01*
X221869Y717169D02*
X228600Y723900D01*
X174371Y700035D02*
X191505Y717169D01*
X221869D01*
X179070Y683260D02*
X198120D01*
X174371Y670540D02*
X175768Y669143D01*
X167132Y677416D02*
X169799Y674749D01*
Y668646D02*
Y674749D01*
X171704Y685413D02*
X174371Y688080D01*
X169799Y701929D02*
X191770Y723900D01*
X171704Y679310D02*
Y685413D01*
X167132Y677416D02*
Y687307D01*
X169799Y689974D02*
Y701929D01*
X174371Y688080D02*
Y700035D01*
X169799Y668646D02*
X171196Y667249D01*
X167132Y687307D02*
X169799Y689974D01*
X171704Y679310D02*
X174371Y676643D01*
Y670540D02*
Y676643D01*
X178435Y682625D02*
X179070Y683260D01*
X175768Y649362D02*
Y669143D01*
X171196Y651256D02*
Y667249D01*
X164465Y653415D02*
Y654050D01*
X331470Y504190D02*
Y689610D01*
X339344Y697484D01*
X618257D01*
X668728Y747955D01*
Y792292D01*
X618092Y690853D02*
X627009Y699770D01*
X633730D01*
X618092Y643138D02*
Y690853D01*
X655320Y699770D02*
X684530Y728980D01*
Y851490D01*
X303530Y476250D02*
X331470Y504190D01*
X655910Y855110D02*
X679450Y831570D01*
X655910Y880110D02*
X684530Y851490D01*
X655910Y805110D02*
X668728Y792292D01*
X233680Y506730D02*
Y609426D01*
X236220Y611966D02*
Y612140D01*
X233680Y609426D02*
X236220Y611966D01*
X127000Y461010D02*
Y461293D01*
X149860Y382270D02*
Y411027D01*
X191770Y723900D02*
X205740D01*
X618092Y643138D02*
X630910Y630320D01*
X510540Y853440D02*
Y869950D01*
Y853440D02*
X525780Y838200D01*
D65*
X614680Y706120D02*
Y763880D01*
X655910Y580320D02*
X670887Y595297D01*
Y671503D01*
X655320Y687070D02*
X670887Y671503D01*
X91440Y656740D02*
X97360Y650819D01*
X91440Y656740D02*
Y678180D01*
X645160Y687070D02*
X655320D01*
X614680Y763880D02*
X630910Y780110D01*
D66*
X464820Y709930D02*
Y826770D01*
X471170Y833120D01*
X455930Y709930D02*
Y828682D01*
X471170Y843922D01*
Y849630D01*
D68*
X743712Y297434D02*
Y388169D01*
Y206699D02*
Y297434D01*
X721614D02*
X743712D01*
X721360Y297688D02*
X721614Y297434D01*
X721360Y184150D02*
Y184347D01*
X743712Y206699D01*
X721360Y410521D02*
X743712Y388169D01*
X721360Y410521D02*
Y410718D01*
D69*
X630910Y655320D02*
D03*
Y880110D02*
D03*
D70*
X303530Y552450D02*
D03*
Y527050D02*
D03*
Y577850D02*
D03*
Y603250D02*
D03*
Y501650D02*
D03*
Y374650D02*
D03*
Y476250D02*
D03*
Y400050D02*
D03*
Y425450D02*
D03*
Y450850D02*
D03*
X226060Y382270D02*
D03*
X200660D02*
D03*
X175260D02*
D03*
X149860D02*
D03*
X303530Y730250D02*
D03*
Y755650D02*
D03*
Y781050D02*
D03*
Y806450D02*
D03*
Y831850D02*
D03*
Y857250D02*
D03*
X194310Y135890D02*
D03*
X219710D02*
D03*
Y161290D02*
D03*
X194310D02*
D03*
X168910D02*
D03*
D71*
Y135890D02*
D03*
D72*
X464590Y1001130D02*
D03*
X530590D02*
D03*
D73*
X474980Y314960D02*
D03*
Y289560D02*
D03*
Y160020D02*
D03*
Y134620D02*
D03*
D74*
Y264160D02*
D03*
Y109220D02*
D03*
D75*
X581660Y233680D02*
D03*
Y55880D02*
D03*
D76*
X721360Y360680D02*
D03*
Y247650D02*
D03*
Y134112D02*
D03*
D77*
Y410718D02*
D03*
Y297688D02*
D03*
Y184150D02*
D03*
D78*
X328930Y988060D02*
D03*
D79*
X303930D02*
D03*
X278930D02*
D03*
D80*
X711200Y63500D02*
D03*
Y952500D02*
D03*
X139700D02*
D03*
Y63500D02*
D03*
D81*
X95250Y637540D02*
D03*
Y612140D02*
D03*
X172720Y845820D02*
D03*
X168910Y775970D02*
D03*
X234950Y646430D02*
D03*
Y635000D02*
D03*
Y623570D02*
D03*
X217805Y480060D02*
D03*
X172720Y483870D02*
D03*
X162560Y480060D02*
D03*
Y397510D02*
D03*
X125730Y344170D02*
D03*
X157480Y350520D02*
D03*
X232410Y676910D02*
D03*
X207010Y645160D02*
D03*
Y604520D02*
D03*
X170180D02*
D03*
X158750Y504190D02*
D03*
Y450850D02*
D03*
X87630Y457200D02*
D03*
X78740Y678180D02*
D03*
X581660Y497840D02*
D03*
X593090Y568960D02*
D03*
X575310Y608330D02*
D03*
X604520Y640080D02*
D03*
X575310Y659130D02*
D03*
X523240Y675640D02*
D03*
X590550Y765810D02*
D03*
X579120Y817880D02*
D03*
X549910Y882650D02*
D03*
X497840Y844550D02*
D03*
Y831850D02*
D03*
Y862330D02*
D03*
X481330Y718820D02*
D03*
X410210Y683260D02*
D03*
X347980Y727710D02*
D03*
X281305Y602686D02*
D03*
Y577850D02*
D03*
X579120Y637540D02*
D03*
X105410Y421640D02*
D03*
X114300D02*
D03*
X95250Y586740D02*
D03*
Y574040D02*
D03*
X130683Y487447D02*
D03*
X79375Y438150D02*
D03*
X219710Y351790D02*
D03*
X593090Y862330D02*
D03*
X525780Y821690D02*
D03*
X471170Y833120D02*
D03*
X471619Y822511D02*
D03*
X205740Y723900D02*
D03*
X217170Y675640D02*
D03*
X157480Y697230D02*
D03*
X160593Y688903D02*
D03*
X194310Y675640D02*
D03*
X178435Y682625D02*
D03*
X164465Y654050D02*
D03*
X257810Y568960D02*
D03*
X264160Y534670D02*
D03*
X259017Y514287D02*
D03*
X255093Y506044D02*
D03*
X279400Y541020D02*
D03*
X281305Y528840D02*
D03*
X355600Y688340D02*
D03*
X331470Y680720D02*
D03*
X186690Y492760D02*
D03*
X207010Y624840D02*
D03*
X626110Y734060D02*
D03*
X575310Y961390D02*
D03*
X617220Y951230D02*
D03*
X515620Y716280D02*
D03*
X574040Y736600D02*
D03*
X524510Y769620D02*
D03*
X482600Y796290D02*
D03*
X417830Y916940D02*
D03*
X378460Y814070D02*
D03*
X189230Y739140D02*
D03*
X138430Y444500D02*
D03*
X87630Y369570D02*
D03*
X251460Y284480D02*
D03*
X130810Y316230D02*
D03*
X162560Y237490D02*
D03*
X232410Y212090D02*
D03*
X471170Y210820D02*
D03*
X416560Y317500D02*
D03*
X445770Y407670D02*
D03*
X406400Y391160D02*
D03*
X449580Y481330D02*
D03*
X441960Y529590D02*
D03*
Y638810D02*
D03*
X374650Y478790D02*
D03*
X318770Y622300D02*
D03*
X374650Y680720D02*
D03*
Y641350D02*
D03*
X275590Y704850D02*
D03*
X304800D02*
D03*
X265430Y886460D02*
D03*
X246380Y798830D02*
D03*
X142240Y681990D02*
D03*
X113030Y676910D02*
D03*
X270510Y683260D02*
D03*
X600710Y706120D02*
D03*
X697230Y744220D02*
D03*
X706120Y770890D02*
D03*
X685800Y712470D02*
D03*
X675640Y703580D02*
D03*
X655320Y699770D02*
D03*
X633730D02*
D03*
X494030Y679450D02*
D03*
Y643890D02*
D03*
Y736600D02*
D03*
X455930Y709930D02*
D03*
X464820D02*
D03*
X547370Y736600D02*
D03*
X679450Y581660D02*
D03*
X340360Y351790D02*
D03*
X306070Y314960D02*
D03*
X143510Y341630D02*
D03*
X330200Y359410D02*
D03*
X387350Y685800D02*
D03*
X544195Y746125D02*
D03*
X678180Y880110D02*
D03*
X255270Y599440D02*
D03*
X229870Y480060D02*
D03*
X127000Y461010D02*
D03*
X185420Y675640D02*
D03*
X152400Y654050D02*
D03*
X139700D02*
D03*
X228600Y723900D02*
D03*
X566420Y623570D02*
D03*
X139700Y461010D02*
D03*
X510540Y869950D02*
D03*
X485140D02*
D03*
X236220Y612140D02*
D03*
X135890Y219710D02*
D03*
X111760Y264160D02*
D03*
X87630Y308610D02*
D03*
X219710Y264160D02*
D03*
X194310D02*
D03*
X181610D02*
D03*
X471170Y849630D02*
D03*
D82*
X614680Y706120D02*
D03*
X97360Y650819D02*
D03*
X91440Y678180D02*
D03*
X645160Y687070D02*
D03*
M02*
