G04*
G04 #@! TF.GenerationSoftware,Altium Limited,Altium Designer,23.2.1 (34)*
G04*
G04 Layer_Color=2752767*
%FSLAX44Y44*%
%MOMM*%
G71*
G04*
G04 #@! TF.SameCoordinates,66AF3463-A4ED-4445-B3F6-74E376143534*
G04*
G04*
G04 #@! TF.FilePolarity,Positive*
G04*
G01*
G75*
%ADD12C,0.1270*%
%ADD87C,0.1693*%
%ADD88C,0.1016*%
D12*
X150740Y524110D02*
X145660Y534270D01*
X155820D01*
X150740Y524110D01*
Y526142D02*
X147692Y532238D01*
X153788D01*
X150740Y526142D01*
X722630Y525240D02*
Y535400D01*
X732790D01*
Y525240D01*
X722630D01*
X724662Y527272D02*
Y533368D01*
X730758D01*
Y527272D01*
X724662D01*
X722630Y650240D02*
Y660400D01*
X732790D01*
Y650240D01*
X722630D01*
X724662Y652272D02*
Y658368D01*
X730758D01*
Y652272D01*
X724662D01*
X650830Y530320D02*
X655910Y535400D01*
X660990Y530320D01*
X655910Y525240D01*
X650830Y530320D01*
Y555320D02*
X655910Y560400D01*
X660990Y555320D01*
X655910Y550240D01*
X650830Y555320D01*
Y580320D02*
X655910Y585400D01*
X660990Y580320D01*
X655910Y575240D01*
X650830Y580320D01*
Y605320D02*
X655910Y610400D01*
X660990Y605320D01*
X655910Y600240D01*
X650830Y605320D01*
Y630320D02*
X655910Y635400D01*
X660990Y630320D01*
X655910Y625240D01*
X650830Y630320D01*
Y655320D02*
X655910Y660400D01*
X660990Y655320D01*
X655910Y650240D01*
X650830Y655320D01*
X625830Y530320D02*
X630910Y535400D01*
X635990Y530320D01*
X630910Y525240D01*
X625830Y530320D01*
Y555320D02*
X630910Y560400D01*
X635990Y555320D01*
X630910Y550240D01*
X625830Y555320D01*
Y580320D02*
X630910Y585400D01*
X635990Y580320D01*
X630910Y575240D01*
X625830Y580320D01*
Y605320D02*
X630910Y610400D01*
X635990Y605320D01*
X630910Y600240D01*
X625830Y605320D01*
Y630320D02*
X630910Y635400D01*
X635990Y630320D01*
X630910Y625240D01*
X625830Y630320D01*
Y655320D02*
X630910Y660400D01*
X635990Y655320D01*
X630910Y650240D01*
X625830Y655320D01*
X144240Y517610D02*
X139160Y527770D01*
X149320D01*
X144240Y517610D01*
Y519642D02*
X141192Y525738D01*
X147288D01*
X144240Y519642D01*
X150740Y511110D02*
X145660Y521270D01*
X155820D01*
X150740Y511110D01*
Y513142D02*
X147692Y519238D01*
X153788D01*
X150740Y513142D01*
X157240Y517610D02*
X152160Y527770D01*
X162320D01*
X157240Y517610D01*
Y519642D02*
X154192Y525738D01*
X160288D01*
X157240Y519642D01*
X174240Y517610D02*
X169160Y527770D01*
X179320D01*
X174240Y517610D01*
Y519642D02*
X171192Y525738D01*
X177288D01*
X174240Y519642D01*
X180740Y511110D02*
X175660Y521270D01*
X185820D01*
X180740Y511110D01*
Y513142D02*
X177692Y519238D01*
X183788D01*
X180740Y513142D01*
X187240Y517610D02*
X182160Y527770D01*
X192320D01*
X187240Y517610D01*
Y519642D02*
X184192Y525738D01*
X190288D01*
X187240Y519642D01*
X180740Y524110D02*
X175660Y534270D01*
X185820D01*
X180740Y524110D01*
Y526142D02*
X177692Y532238D01*
X183788D01*
X180740Y526142D01*
X210740Y524110D02*
X205660Y534270D01*
X215820D01*
X210740Y524110D01*
Y526142D02*
X207692Y532238D01*
X213788D01*
X210740Y526142D01*
Y511110D02*
X205660Y521270D01*
X215820D01*
X210740Y511110D01*
Y513142D02*
X207692Y519238D01*
X213788D01*
X210740Y513142D01*
X217240Y517610D02*
X212160Y527770D01*
X222320D01*
X217240Y517610D01*
Y519642D02*
X214192Y525738D01*
X220288D01*
X217240Y519642D01*
X204240Y517610D02*
X199160Y527770D01*
X209320D01*
X204240Y517610D01*
Y519642D02*
X201192Y525738D01*
X207288D01*
X204240Y519642D01*
X180990Y554110D02*
X175910Y564270D01*
X186070D01*
X180990Y554110D01*
Y556142D02*
X177942Y562238D01*
X184038D01*
X180990Y556142D01*
X174240Y547610D02*
X169160Y557770D01*
X179320D01*
X174240Y547610D01*
Y549642D02*
X171192Y555738D01*
X177288D01*
X174240Y549642D01*
X180740Y541110D02*
X175660Y551270D01*
X185820D01*
X180740Y541110D01*
Y543142D02*
X177692Y549238D01*
X183788D01*
X180740Y543142D01*
X187240Y547610D02*
X182160Y557770D01*
X192320D01*
X187240Y547610D01*
Y549642D02*
X184192Y555738D01*
X190288D01*
X187240Y549642D01*
X144240Y547610D02*
X139160Y557770D01*
X149320D01*
X144240Y547610D01*
Y549642D02*
X141192Y555738D01*
X147288D01*
X144240Y549642D01*
X150740Y541110D02*
X145660Y551270D01*
X155820D01*
X150740Y541110D01*
Y543142D02*
X147692Y549238D01*
X153788D01*
X150740Y543142D01*
X157240Y547610D02*
X152160Y557770D01*
X162320D01*
X157240Y547610D01*
Y549642D02*
X154192Y555738D01*
X160288D01*
X157240Y549642D01*
X150740Y554110D02*
X145660Y564270D01*
X155820D01*
X150740Y554110D01*
Y556142D02*
X147692Y562238D01*
X153788D01*
X150740Y556142D01*
Y584110D02*
X145660Y594270D01*
X155820D01*
X150740Y584110D01*
Y586142D02*
X147692Y592238D01*
X153788D01*
X150740Y586142D01*
X144240Y577610D02*
X139160Y587770D01*
X149320D01*
X144240Y577610D01*
Y579642D02*
X141192Y585738D01*
X147288D01*
X144240Y579642D01*
X150740Y571110D02*
X145660Y581270D01*
X155820D01*
X150740Y571110D01*
Y573142D02*
X147692Y579238D01*
X153788D01*
X150740Y573142D01*
X157240Y577610D02*
X152160Y587770D01*
X162320D01*
X157240Y577610D01*
Y579642D02*
X154192Y585738D01*
X160288D01*
X157240Y579642D01*
X174240Y577610D02*
X169160Y587770D01*
X179320D01*
X174240Y577610D01*
Y579642D02*
X171192Y585738D01*
X177288D01*
X174240Y579642D01*
X180740Y571110D02*
X175660Y581270D01*
X185820D01*
X180740Y571110D01*
Y573142D02*
X177692Y579238D01*
X183788D01*
X180740Y573142D01*
X187240Y577610D02*
X182160Y587770D01*
X192320D01*
X187240Y577610D01*
Y579642D02*
X184192Y585738D01*
X190288D01*
X187240Y579642D01*
X180740Y584110D02*
X175660Y594270D01*
X185820D01*
X180740Y584110D01*
Y586142D02*
X177692Y592238D01*
X183788D01*
X180740Y586142D01*
X210740Y584110D02*
X205660Y594270D01*
X215820D01*
X210740Y584110D01*
Y586142D02*
X207692Y592238D01*
X213788D01*
X210740Y586142D01*
X204240Y577610D02*
X199160Y587770D01*
X209320D01*
X204240Y577610D01*
Y579642D02*
X201192Y585738D01*
X207288D01*
X204240Y579642D01*
X217240Y577610D02*
X212160Y587770D01*
X222320D01*
X217240Y577610D01*
Y579642D02*
X214192Y585738D01*
X220288D01*
X217240Y579642D01*
X210740Y571110D02*
X205660Y581270D01*
X215820D01*
X210740Y571110D01*
Y573142D02*
X207692Y579238D01*
X213788D01*
X210740Y573142D01*
X210990Y554110D02*
X205910Y564270D01*
X216070D01*
X210990Y554110D01*
Y556142D02*
X207942Y562238D01*
X214038D01*
X210990Y556142D01*
X204240Y547610D02*
X199160Y557770D01*
X209320D01*
X204240Y547610D01*
Y549642D02*
X201192Y555738D01*
X207288D01*
X204240Y549642D01*
X217240Y547610D02*
X212160Y557770D01*
X222320D01*
X217240Y547610D01*
Y549642D02*
X214192Y555738D01*
X220288D01*
X217240Y549642D01*
X210740Y541110D02*
X205660Y551270D01*
X215820D01*
X210740Y541110D01*
Y543142D02*
X207692Y549238D01*
X213788D01*
X210740Y543142D01*
X298450Y547370D02*
Y557530D01*
X308610D01*
Y547370D01*
X298450D01*
Y521970D02*
Y532130D01*
X308610D01*
Y521970D01*
X298450D01*
Y572770D02*
Y582930D01*
X308610D01*
Y572770D01*
X298450D01*
Y598170D02*
Y608330D01*
X308610D01*
Y598170D01*
X298450D01*
Y496570D02*
Y506730D01*
X308610D01*
Y496570D01*
X298450D01*
Y369570D02*
Y379730D01*
X308610D01*
Y369570D01*
X298450D01*
Y471170D02*
Y481330D01*
X308610D01*
Y471170D01*
X298450D01*
Y394970D02*
Y405130D01*
X308610D01*
Y394970D01*
X298450D01*
Y420370D02*
Y430530D01*
X308610D01*
Y420370D01*
X298450D01*
Y445770D02*
Y455930D01*
X308610D01*
Y445770D01*
X298450D01*
X220980Y377190D02*
Y387350D01*
X231140D01*
Y377190D01*
X220980D01*
X195580D02*
Y387350D01*
X205740D01*
Y377190D01*
X195580D01*
X170180D02*
Y387350D01*
X180340D01*
Y377190D01*
X170180D01*
X144780D02*
Y387350D01*
X154940D01*
Y377190D01*
X144780D01*
X298450Y725170D02*
Y735330D01*
X308610D01*
Y725170D01*
X298450D01*
Y750570D02*
Y760730D01*
X308610D01*
Y750570D01*
X298450D01*
Y775970D02*
Y786130D01*
X308610D01*
Y775970D01*
X298450D01*
Y801370D02*
Y811530D01*
X308610D01*
Y801370D01*
X298450D01*
Y826770D02*
Y836930D01*
X308610D01*
Y826770D01*
X298450D01*
Y852170D02*
Y862330D01*
X308610D01*
Y852170D01*
X298450D01*
X163830Y130810D02*
Y140970D01*
X173990D01*
Y130810D01*
X163830D01*
X189230D02*
Y140970D01*
X199390D01*
Y130810D01*
X189230D01*
X214630D02*
Y140970D01*
X224790D01*
Y130810D01*
X214630D01*
Y156210D02*
Y166370D01*
X224790D01*
Y156210D01*
X214630D01*
X189230D02*
Y166370D01*
X199390D01*
Y156210D01*
X189230D01*
X163830D02*
Y166370D01*
X173990D01*
Y156210D01*
X163830D01*
X464590Y996050D02*
X467130Y998590D01*
X469670D01*
X467130Y1001130D01*
X469670Y1003670D01*
X467130D01*
X464590Y1006210D01*
X462050Y1003670D01*
X459510D01*
X462050Y1001130D01*
X459510Y998590D01*
X462050D01*
X464590Y996050D01*
X530590D02*
X533130Y998590D01*
X535670D01*
X533130Y1001130D01*
X535670Y1003670D01*
X533130D01*
X530590Y1006210D01*
X528050Y1003670D01*
X525510D01*
X528050Y1001130D01*
X525510Y998590D01*
X528050D01*
X530590Y996050D01*
X474980Y309880D02*
X469900Y320040D01*
X480060D01*
X474980Y309880D01*
Y284480D02*
X469900Y294640D01*
X480060D01*
X474980Y284480D01*
Y259080D02*
X469900Y269240D01*
X480060D01*
X474980Y259080D01*
X581660Y228600D02*
X576580Y238760D01*
X586740D01*
X581660Y228600D01*
Y50800D02*
X576580Y60960D01*
X586740D01*
X581660Y50800D01*
X474980Y154940D02*
X469900Y165100D01*
X480060D01*
X474980Y154940D01*
Y129540D02*
X469900Y139700D01*
X480060D01*
X474980Y129540D01*
Y104140D02*
X469900Y114300D01*
X480060D01*
X474980Y104140D01*
X113030Y736600D02*
Y734060D01*
X118110D01*
Y736600D01*
X120650D01*
Y741680D01*
X118110D01*
Y744220D01*
X113030D01*
Y741680D01*
X110490D01*
Y736600D01*
X113030D01*
Y762000D02*
Y759460D01*
X118110D01*
Y762000D01*
X120650D01*
Y767080D01*
X118110D01*
Y769620D01*
X113030D01*
Y767080D01*
X110490D01*
Y762000D01*
X113030D01*
Y800100D02*
Y797560D01*
X118110D01*
Y800100D01*
X120650D01*
Y805180D01*
X118110D01*
Y807720D01*
X113030D01*
Y805180D01*
X110490D01*
Y800100D01*
X113030D01*
Y825500D02*
Y822960D01*
X118110D01*
Y825500D01*
X120650D01*
Y830580D01*
X118110D01*
Y833120D01*
X113030D01*
Y830580D01*
X110490D01*
Y825500D01*
X113030D01*
Y863600D02*
Y861060D01*
X118110D01*
Y863600D01*
X120650D01*
Y868680D01*
X118110D01*
Y871220D01*
X113030D01*
Y868680D01*
X110490D01*
Y863600D01*
X113030D01*
Y889000D02*
Y886460D01*
X118110D01*
Y889000D01*
X120650D01*
Y894080D01*
X118110D01*
Y896620D01*
X113030D01*
Y894080D01*
X110490D01*
Y889000D01*
X113030D01*
X625830Y880110D02*
X630910Y885190D01*
X635990Y880110D01*
X630910Y875030D01*
X625830Y880110D01*
Y855110D02*
X630910Y860190D01*
X635990Y855110D01*
X630910Y850030D01*
X625830Y855110D01*
Y830110D02*
X630910Y835190D01*
X635990Y830110D01*
X630910Y825030D01*
X625830Y830110D01*
Y805110D02*
X630910Y810190D01*
X635990Y805110D01*
X630910Y800030D01*
X625830Y805110D01*
Y780110D02*
X630910Y785190D01*
X635990Y780110D01*
X630910Y775030D01*
X625830Y780110D01*
Y755110D02*
X630910Y760190D01*
X635990Y755110D01*
X630910Y750030D01*
X625830Y755110D01*
X650830Y880110D02*
X655910Y885190D01*
X660990Y880110D01*
X655910Y875030D01*
X650830Y880110D01*
Y855110D02*
X655910Y860190D01*
X660990Y855110D01*
X655910Y850030D01*
X650830Y855110D01*
Y830110D02*
X655910Y835190D01*
X660990Y830110D01*
X655910Y825030D01*
X650830Y830110D01*
Y805110D02*
X655910Y810190D01*
X660990Y805110D01*
X655910Y800030D01*
X650830Y805110D01*
Y780110D02*
X655910Y785190D01*
X660990Y780110D01*
X655910Y775030D01*
X650830Y780110D01*
Y755110D02*
X655910Y760190D01*
X660990Y755110D01*
X655910Y750030D01*
X650830Y755110D01*
X722630Y875030D02*
Y885190D01*
X732790D01*
Y875030D01*
X722630D01*
X724662Y877062D02*
Y883158D01*
X730758D01*
Y877062D01*
X724662D01*
X722630Y750030D02*
Y760190D01*
X732790D01*
Y750030D01*
X722630D01*
X724662Y752062D02*
Y758158D01*
X730758D01*
Y752062D01*
X724662D01*
X328930Y982980D02*
X323850Y993140D01*
X334010D01*
X328930Y982980D01*
X303930D02*
X298850Y993140D01*
X309010D01*
X303930Y982980D01*
X278930D02*
X273850Y993140D01*
X284010D01*
X278930Y982980D01*
X95250Y632460D02*
X90170Y642620D01*
X100330D01*
X95250Y632460D01*
Y634492D02*
X92202Y640588D01*
X98298D01*
X95250Y634492D01*
Y607060D02*
X90170Y617220D01*
X100330D01*
X95250Y607060D01*
Y609092D02*
X92202Y615188D01*
X98298D01*
X95250Y609092D01*
X172720Y840740D02*
X167640Y850900D01*
X177800D01*
X172720Y840740D01*
Y842772D02*
X169672Y848868D01*
X175768D01*
X172720Y842772D01*
X168910Y770890D02*
X163830Y781050D01*
X173990D01*
X168910Y770890D01*
Y772922D02*
X165862Y779018D01*
X171958D01*
X168910Y772922D01*
X234950Y641350D02*
X229870Y651510D01*
X240030D01*
X234950Y641350D01*
Y643382D02*
X231902Y649478D01*
X237998D01*
X234950Y643382D01*
Y629920D02*
X229870Y640080D01*
X240030D01*
X234950Y629920D01*
Y631952D02*
X231902Y638048D01*
X237998D01*
X234950Y631952D01*
Y618490D02*
X229870Y628650D01*
X240030D01*
X234950Y618490D01*
Y620522D02*
X231902Y626618D01*
X237998D01*
X234950Y620522D01*
X217805Y474980D02*
X212725Y485140D01*
X222885D01*
X217805Y474980D01*
Y477012D02*
X214757Y483108D01*
X220853D01*
X217805Y477012D01*
X172720Y478790D02*
X167640Y488950D01*
X177800D01*
X172720Y478790D01*
Y480822D02*
X169672Y486918D01*
X175768D01*
X172720Y480822D01*
X162560Y474980D02*
X157480Y485140D01*
X167640D01*
X162560Y474980D01*
Y477012D02*
X159512Y483108D01*
X165608D01*
X162560Y477012D01*
Y392430D02*
X157480Y402590D01*
X167640D01*
X162560Y392430D01*
Y394462D02*
X159512Y400558D01*
X165608D01*
X162560Y394462D01*
X125730Y339090D02*
X120650Y349250D01*
X130810D01*
X125730Y339090D01*
Y341122D02*
X122682Y347218D01*
X128778D01*
X125730Y341122D01*
X157480Y345440D02*
X152400Y355600D01*
X162560D01*
X157480Y345440D01*
Y347472D02*
X154432Y353568D01*
X160528D01*
X157480Y347472D01*
X232410Y671830D02*
X227330Y681990D01*
X237490D01*
X232410Y671830D01*
Y673862D02*
X229362Y679958D01*
X235458D01*
X232410Y673862D01*
X207010Y640080D02*
X201930Y650240D01*
X212090D01*
X207010Y640080D01*
Y642112D02*
X203962Y648208D01*
X210058D01*
X207010Y642112D01*
Y599440D02*
X201930Y609600D01*
X212090D01*
X207010Y599440D01*
Y601472D02*
X203962Y607568D01*
X210058D01*
X207010Y601472D01*
X170180Y599440D02*
X165100Y609600D01*
X175260D01*
X170180Y599440D01*
Y601472D02*
X167132Y607568D01*
X173228D01*
X170180Y601472D01*
X158750Y499110D02*
X153670Y509270D01*
X163830D01*
X158750Y499110D01*
Y501142D02*
X155702Y507238D01*
X161798D01*
X158750Y501142D01*
Y445770D02*
X153670Y455930D01*
X163830D01*
X158750Y445770D01*
Y447802D02*
X155702Y453898D01*
X161798D01*
X158750Y447802D01*
X87630Y452120D02*
X82550Y462280D01*
X92710D01*
X87630Y452120D01*
Y454152D02*
X84582Y460248D01*
X90678D01*
X87630Y454152D01*
X78740Y673100D02*
X73660Y683260D01*
X83820D01*
X78740Y673100D01*
Y675132D02*
X75692Y681228D01*
X81788D01*
X78740Y675132D01*
X581660Y492760D02*
X576580Y502920D01*
X586740D01*
X581660Y492760D01*
Y494792D02*
X578612Y500888D01*
X584708D01*
X581660Y494792D01*
X593090Y563880D02*
X588010Y574040D01*
X598170D01*
X593090Y563880D01*
Y565912D02*
X590042Y572008D01*
X596138D01*
X593090Y565912D01*
X575310Y603250D02*
X570230Y613410D01*
X580390D01*
X575310Y603250D01*
Y605282D02*
X572262Y611378D01*
X578358D01*
X575310Y605282D01*
X604520Y635000D02*
X599440Y645160D01*
X609600D01*
X604520Y635000D01*
Y637032D02*
X601472Y643128D01*
X607568D01*
X604520Y637032D01*
X575310Y654050D02*
X570230Y664210D01*
X580390D01*
X575310Y654050D01*
Y656082D02*
X572262Y662178D01*
X578358D01*
X575310Y656082D01*
X523240Y670560D02*
X518160Y680720D01*
X528320D01*
X523240Y670560D01*
Y672592D02*
X520192Y678688D01*
X526288D01*
X523240Y672592D01*
X590550Y760730D02*
X585470Y770890D01*
X595630D01*
X590550Y760730D01*
Y762762D02*
X587502Y768858D01*
X593598D01*
X590550Y762762D01*
X579120Y812800D02*
X574040Y822960D01*
X584200D01*
X579120Y812800D01*
Y814832D02*
X576072Y820928D01*
X582168D01*
X579120Y814832D01*
X549910Y877570D02*
X544830Y887730D01*
X554990D01*
X549910Y877570D01*
Y879602D02*
X546862Y885698D01*
X552958D01*
X549910Y879602D01*
X497840Y839470D02*
X492760Y849630D01*
X502920D01*
X497840Y839470D01*
Y841502D02*
X494792Y847598D01*
X500888D01*
X497840Y841502D01*
Y826770D02*
X492760Y836930D01*
X502920D01*
X497840Y826770D01*
Y828802D02*
X494792Y834898D01*
X500888D01*
X497840Y828802D01*
Y857250D02*
X492760Y867410D01*
X502920D01*
X497840Y857250D01*
Y859282D02*
X494792Y865378D01*
X500888D01*
X497840Y859282D01*
X481330Y713740D02*
X476250Y723900D01*
X486410D01*
X481330Y713740D01*
Y715772D02*
X478282Y721868D01*
X484378D01*
X481330Y715772D01*
X410210Y678180D02*
X405130Y688340D01*
X415290D01*
X410210Y678180D01*
Y680212D02*
X407162Y686308D01*
X413258D01*
X410210Y680212D01*
X347980Y722630D02*
X342900Y732790D01*
X353060D01*
X347980Y722630D01*
Y724662D02*
X344932Y730758D01*
X351028D01*
X347980Y724662D01*
X281305Y597606D02*
X276225Y607766D01*
X286385D01*
X281305Y597606D01*
Y599638D02*
X278257Y605734D01*
X284353D01*
X281305Y599638D01*
Y572770D02*
X276225Y582930D01*
X286385D01*
X281305Y572770D01*
Y574802D02*
X278257Y580898D01*
X284353D01*
X281305Y574802D01*
X579120Y632460D02*
X574040Y642620D01*
X584200D01*
X579120Y632460D01*
Y634492D02*
X576072Y640588D01*
X582168D01*
X579120Y634492D01*
X105410Y416560D02*
X100330Y426720D01*
X110490D01*
X105410Y416560D01*
Y418592D02*
X102362Y424688D01*
X108458D01*
X105410Y418592D01*
X114300Y416560D02*
X109220Y426720D01*
X119380D01*
X114300Y416560D01*
Y418592D02*
X111252Y424688D01*
X117348D01*
X114300Y418592D01*
X95250Y581660D02*
X90170Y591820D01*
X100330D01*
X95250Y581660D01*
Y583692D02*
X92202Y589788D01*
X98298D01*
X95250Y583692D01*
Y568960D02*
X90170Y579120D01*
X100330D01*
X95250Y568960D01*
Y570992D02*
X92202Y577088D01*
X98298D01*
X95250Y570992D01*
X130683Y482367D02*
X125603Y492527D01*
X135763D01*
X130683Y482367D01*
Y484399D02*
X127635Y490495D01*
X133731D01*
X130683Y484399D01*
X79375Y433070D02*
X74295Y443230D01*
X84455D01*
X79375Y433070D01*
Y435102D02*
X76327Y441198D01*
X82423D01*
X79375Y435102D01*
X219710Y346710D02*
X214630Y356870D01*
X224790D01*
X219710Y346710D01*
Y348742D02*
X216662Y354838D01*
X222758D01*
X219710Y348742D01*
X593090Y857250D02*
X588010Y867410D01*
X598170D01*
X593090Y857250D01*
Y859282D02*
X590042Y865378D01*
X596138D01*
X593090Y859282D01*
X525780Y816610D02*
X520700Y826770D01*
X530860D01*
X525780Y816610D01*
Y818642D02*
X522732Y824738D01*
X528828D01*
X525780Y818642D01*
X471170Y828040D02*
X466090Y838200D01*
X476250D01*
X471170Y828040D01*
Y830072D02*
X468122Y836168D01*
X474218D01*
X471170Y830072D01*
X471619Y817431D02*
X466539Y827591D01*
X476699D01*
X471619Y817431D01*
Y819463D02*
X468571Y825559D01*
X474667D01*
X471619Y819463D01*
X205740Y718820D02*
X200660Y728980D01*
X210820D01*
X205740Y718820D01*
Y720852D02*
X202692Y726948D01*
X208788D01*
X205740Y720852D01*
X217170Y670560D02*
X212090Y680720D01*
X222250D01*
X217170Y670560D01*
Y672592D02*
X214122Y678688D01*
X220218D01*
X217170Y672592D01*
X157480Y692150D02*
X152400Y702310D01*
X162560D01*
X157480Y692150D01*
Y694182D02*
X154432Y700278D01*
X160528D01*
X157480Y694182D01*
X160593Y683823D02*
X155513Y693983D01*
X165673D01*
X160593Y683823D01*
Y685855D02*
X157545Y691951D01*
X163641D01*
X160593Y685855D01*
X194310Y670560D02*
X189230Y680720D01*
X199390D01*
X194310Y670560D01*
Y672592D02*
X191262Y678688D01*
X197358D01*
X194310Y672592D01*
X178435Y677545D02*
X173355Y687705D01*
X183515D01*
X178435Y677545D01*
Y679577D02*
X175387Y685673D01*
X181483D01*
X178435Y679577D01*
X164465Y648970D02*
X159385Y659130D01*
X169545D01*
X164465Y648970D01*
Y651002D02*
X161417Y657098D01*
X167513D01*
X164465Y651002D01*
X257810Y563880D02*
X252730Y574040D01*
X262890D01*
X257810Y563880D01*
Y565912D02*
X254762Y572008D01*
X260858D01*
X257810Y565912D01*
X264160Y529590D02*
X259080Y539750D01*
X269240D01*
X264160Y529590D01*
Y531622D02*
X261112Y537718D01*
X267208D01*
X264160Y531622D01*
X259017Y509207D02*
X253937Y519367D01*
X264097D01*
X259017Y509207D01*
Y511239D02*
X255969Y517335D01*
X262065D01*
X259017Y511239D01*
X255093Y500964D02*
X250013Y511124D01*
X260173D01*
X255093Y500964D01*
Y502995D02*
X252045Y509091D01*
X258141D01*
X255093Y502995D01*
X279400Y535940D02*
X274320Y546100D01*
X284480D01*
X279400Y535940D01*
Y537972D02*
X276352Y544068D01*
X282448D01*
X279400Y537972D01*
X281305Y523760D02*
X276225Y533920D01*
X286385D01*
X281305Y523760D01*
Y525792D02*
X278257Y531888D01*
X284353D01*
X281305Y525792D01*
X355600Y683260D02*
X350520Y693420D01*
X360680D01*
X355600Y683260D01*
Y685292D02*
X352552Y691388D01*
X358648D01*
X355600Y685292D01*
X331470Y675640D02*
X326390Y685800D01*
X336550D01*
X331470Y675640D01*
Y677672D02*
X328422Y683768D01*
X334518D01*
X331470Y677672D01*
X186690Y487680D02*
X181610Y497840D01*
X191770D01*
X186690Y487680D01*
Y489712D02*
X183642Y495808D01*
X189738D01*
X186690Y489712D01*
X207010Y619760D02*
X201930Y629920D01*
X212090D01*
X207010Y619760D01*
Y621792D02*
X203962Y627888D01*
X210058D01*
X207010Y621792D01*
X626110Y728980D02*
X621030Y739140D01*
X631190D01*
X626110Y728980D01*
Y731012D02*
X623062Y737108D01*
X629158D01*
X626110Y731012D01*
X575310Y956310D02*
X570230Y966470D01*
X580390D01*
X575310Y956310D01*
Y958342D02*
X572262Y964438D01*
X578358D01*
X575310Y958342D01*
X617220Y946150D02*
X612140Y956310D01*
X622300D01*
X617220Y946150D01*
Y948182D02*
X614172Y954278D01*
X620268D01*
X617220Y948182D01*
X515620Y711200D02*
X510540Y721360D01*
X520700D01*
X515620Y711200D01*
Y713232D02*
X512572Y719328D01*
X518668D01*
X515620Y713232D01*
X574040Y731520D02*
X568960Y741680D01*
X579120D01*
X574040Y731520D01*
Y733552D02*
X570992Y739648D01*
X577088D01*
X574040Y733552D01*
X524510Y764540D02*
X519430Y774700D01*
X529590D01*
X524510Y764540D01*
Y766572D02*
X521462Y772668D01*
X527558D01*
X524510Y766572D01*
X482600Y791210D02*
X477520Y801370D01*
X487680D01*
X482600Y791210D01*
Y793242D02*
X479552Y799338D01*
X485648D01*
X482600Y793242D01*
X417830Y911860D02*
X412750Y922020D01*
X422910D01*
X417830Y911860D01*
Y913892D02*
X414782Y919988D01*
X420878D01*
X417830Y913892D01*
X378460Y808990D02*
X373380Y819150D01*
X383540D01*
X378460Y808990D01*
Y811022D02*
X375412Y817118D01*
X381508D01*
X378460Y811022D01*
X189230Y734060D02*
X184150Y744220D01*
X194310D01*
X189230Y734060D01*
Y736092D02*
X186182Y742188D01*
X192278D01*
X189230Y736092D01*
X138430Y439420D02*
X133350Y449580D01*
X143510D01*
X138430Y439420D01*
Y441452D02*
X135382Y447548D01*
X141478D01*
X138430Y441452D01*
X87630Y364490D02*
X82550Y374650D01*
X92710D01*
X87630Y364490D01*
Y366522D02*
X84582Y372618D01*
X90678D01*
X87630Y366522D01*
X251460Y279400D02*
X246380Y289560D01*
X256540D01*
X251460Y279400D01*
Y281432D02*
X248412Y287528D01*
X254508D01*
X251460Y281432D01*
X130810Y311150D02*
X125730Y321310D01*
X135890D01*
X130810Y311150D01*
Y313182D02*
X127762Y319278D01*
X133858D01*
X130810Y313182D01*
X162560Y232410D02*
X157480Y242570D01*
X167640D01*
X162560Y232410D01*
Y234442D02*
X159512Y240538D01*
X165608D01*
X162560Y234442D01*
X232410Y207010D02*
X227330Y217170D01*
X237490D01*
X232410Y207010D01*
Y209042D02*
X229362Y215138D01*
X235458D01*
X232410Y209042D01*
X471170Y205740D02*
X466090Y215900D01*
X476250D01*
X471170Y205740D01*
Y207772D02*
X468122Y213868D01*
X474218D01*
X471170Y207772D01*
X416560Y312420D02*
X411480Y322580D01*
X421640D01*
X416560Y312420D01*
Y314452D02*
X413512Y320548D01*
X419608D01*
X416560Y314452D01*
X445770Y402590D02*
X440690Y412750D01*
X450850D01*
X445770Y402590D01*
Y404622D02*
X442722Y410718D01*
X448818D01*
X445770Y404622D01*
X406400Y386080D02*
X401320Y396240D01*
X411480D01*
X406400Y386080D01*
Y388112D02*
X403352Y394208D01*
X409448D01*
X406400Y388112D01*
X449580Y476250D02*
X444500Y486410D01*
X454660D01*
X449580Y476250D01*
Y478282D02*
X446532Y484378D01*
X452628D01*
X449580Y478282D01*
X441960Y524510D02*
X436880Y534670D01*
X447040D01*
X441960Y524510D01*
Y526542D02*
X438912Y532638D01*
X445008D01*
X441960Y526542D01*
Y633730D02*
X436880Y643890D01*
X447040D01*
X441960Y633730D01*
Y635762D02*
X438912Y641858D01*
X445008D01*
X441960Y635762D01*
X374650Y473710D02*
X369570Y483870D01*
X379730D01*
X374650Y473710D01*
Y475742D02*
X371602Y481838D01*
X377698D01*
X374650Y475742D01*
X318770Y617220D02*
X313690Y627380D01*
X323850D01*
X318770Y617220D01*
Y619252D02*
X315722Y625348D01*
X321818D01*
X318770Y619252D01*
X374650Y675640D02*
X369570Y685800D01*
X379730D01*
X374650Y675640D01*
Y677672D02*
X371602Y683768D01*
X377698D01*
X374650Y677672D01*
Y636270D02*
X369570Y646430D01*
X379730D01*
X374650Y636270D01*
Y638302D02*
X371602Y644398D01*
X377698D01*
X374650Y638302D01*
X275590Y699770D02*
X270510Y709930D01*
X280670D01*
X275590Y699770D01*
Y701802D02*
X272542Y707898D01*
X278638D01*
X275590Y701802D01*
X304800Y699770D02*
X299720Y709930D01*
X309880D01*
X304800Y699770D01*
Y701802D02*
X301752Y707898D01*
X307848D01*
X304800Y701802D01*
X265430Y881380D02*
X260350Y891540D01*
X270510D01*
X265430Y881380D01*
Y883412D02*
X262382Y889508D01*
X268478D01*
X265430Y883412D01*
X246380Y793750D02*
X241300Y803910D01*
X251460D01*
X246380Y793750D01*
Y795782D02*
X243332Y801878D01*
X249428D01*
X246380Y795782D01*
X142240Y676910D02*
X137160Y687070D01*
X147320D01*
X142240Y676910D01*
Y678942D02*
X139192Y685038D01*
X145288D01*
X142240Y678942D01*
X113030Y671830D02*
X107950Y681990D01*
X118110D01*
X113030Y671830D01*
Y673862D02*
X109982Y679958D01*
X116078D01*
X113030Y673862D01*
X270510Y678180D02*
X265430Y688340D01*
X275590D01*
X270510Y678180D01*
Y680212D02*
X267462Y686308D01*
X273558D01*
X270510Y680212D01*
X600710Y701040D02*
X595630Y711200D01*
X605790D01*
X600710Y701040D01*
Y703072D02*
X597662Y709168D01*
X603758D01*
X600710Y703072D01*
X697230Y739140D02*
X692150Y749300D01*
X702310D01*
X697230Y739140D01*
Y741172D02*
X694182Y747268D01*
X700278D01*
X697230Y741172D01*
X706120Y765810D02*
X701040Y775970D01*
X711200D01*
X706120Y765810D01*
Y767842D02*
X703072Y773938D01*
X709168D01*
X706120Y767842D01*
X685800Y707390D02*
X680720Y717550D01*
X690880D01*
X685800Y707390D01*
Y709422D02*
X682752Y715518D01*
X688848D01*
X685800Y709422D01*
X675640Y698500D02*
X670560Y708660D01*
X680720D01*
X675640Y698500D01*
Y700532D02*
X672592Y706628D01*
X678688D01*
X675640Y700532D01*
X614680Y701040D02*
X609600Y711200D01*
X619760D01*
X614680Y701040D01*
Y703072D02*
X611632Y709168D01*
X617728D01*
X614680Y703072D01*
X655320Y694690D02*
X650240Y704850D01*
X660400D01*
X655320Y694690D01*
Y696722D02*
X652272Y702818D01*
X658368D01*
X655320Y696722D01*
X633730Y694690D02*
X628650Y704850D01*
X638810D01*
X633730Y694690D01*
Y696722D02*
X630682Y702818D01*
X636778D01*
X633730Y696722D01*
X494030Y674370D02*
X488950Y684530D01*
X499110D01*
X494030Y674370D01*
Y676402D02*
X490982Y682498D01*
X497078D01*
X494030Y676402D01*
Y638810D02*
X488950Y648970D01*
X499110D01*
X494030Y638810D01*
Y640842D02*
X490982Y646938D01*
X497078D01*
X494030Y640842D01*
Y731520D02*
X488950Y741680D01*
X499110D01*
X494030Y731520D01*
Y733552D02*
X490982Y739648D01*
X497078D01*
X494030Y733552D01*
X455930Y704850D02*
X450850Y715010D01*
X461010D01*
X455930Y704850D01*
Y706882D02*
X452882Y712978D01*
X458978D01*
X455930Y706882D01*
X464820Y704850D02*
X459740Y715010D01*
X469900D01*
X464820Y704850D01*
Y706882D02*
X461772Y712978D01*
X467868D01*
X464820Y706882D01*
X547370Y731520D02*
X542290Y741680D01*
X552450D01*
X547370Y731520D01*
Y733552D02*
X544322Y739648D01*
X550418D01*
X547370Y733552D01*
X679450Y576580D02*
X674370Y586740D01*
X684530D01*
X679450Y576580D01*
Y578612D02*
X676402Y584708D01*
X682498D01*
X679450Y578612D01*
X340360Y346710D02*
X335280Y356870D01*
X345440D01*
X340360Y346710D01*
Y348742D02*
X337312Y354838D01*
X343408D01*
X340360Y348742D01*
X306070Y309880D02*
X300990Y320040D01*
X311150D01*
X306070Y309880D01*
Y311912D02*
X303022Y318008D01*
X309118D01*
X306070Y311912D01*
X143510Y336550D02*
X138430Y346710D01*
X148590D01*
X143510Y336550D01*
Y338582D02*
X140462Y344678D01*
X146558D01*
X143510Y338582D01*
X330200Y354330D02*
X325120Y364490D01*
X335280D01*
X330200Y354330D01*
Y356362D02*
X327152Y362458D01*
X333248D01*
X330200Y356362D01*
X387350Y680720D02*
X382270Y690880D01*
X392430D01*
X387350Y680720D01*
Y682752D02*
X384302Y688848D01*
X390398D01*
X387350Y682752D01*
X544195Y741045D02*
X539115Y751205D01*
X549275D01*
X544195Y741045D01*
Y743077D02*
X541147Y749173D01*
X547243D01*
X544195Y743077D01*
X678180Y875030D02*
X673100Y885190D01*
X683260D01*
X678180Y875030D01*
Y877062D02*
X675132Y883158D01*
X681228D01*
X678180Y877062D01*
X255270Y594360D02*
X250190Y604520D01*
X260350D01*
X255270Y594360D01*
Y596392D02*
X252222Y602488D01*
X258318D01*
X255270Y596392D01*
X229870Y474980D02*
X224790Y485140D01*
X234950D01*
X229870Y474980D01*
Y477012D02*
X226822Y483108D01*
X232918D01*
X229870Y477012D01*
X127000Y455930D02*
X121920Y466090D01*
X132080D01*
X127000Y455930D01*
Y457962D02*
X123952Y464058D01*
X130048D01*
X127000Y457962D01*
X97360Y645740D02*
X92280Y655900D01*
X102440D01*
X97360Y645740D01*
Y647772D02*
X94312Y653867D01*
X100408D01*
X97360Y647772D01*
X91440Y673100D02*
X86360Y683260D01*
X96520D01*
X91440Y673100D01*
Y675132D02*
X88392Y681228D01*
X94488D01*
X91440Y675132D01*
X185420Y670560D02*
X180340Y680720D01*
X190500D01*
X185420Y670560D01*
Y672592D02*
X182372Y678688D01*
X188468D01*
X185420Y672592D01*
X152400Y648970D02*
X147320Y659130D01*
X157480D01*
X152400Y648970D01*
Y651002D02*
X149352Y657098D01*
X155448D01*
X152400Y651002D01*
X139700Y648970D02*
X134620Y659130D01*
X144780D01*
X139700Y648970D01*
Y651002D02*
X136652Y657098D01*
X142748D01*
X139700Y651002D01*
X228600Y718820D02*
X223520Y728980D01*
X233680D01*
X228600Y718820D01*
Y720852D02*
X225552Y726948D01*
X231648D01*
X228600Y720852D01*
X645160Y681990D02*
X640080Y692150D01*
X650240D01*
X645160Y681990D01*
Y684022D02*
X642112Y690118D01*
X648208D01*
X645160Y684022D01*
X566420Y618490D02*
X561340Y628650D01*
X571500D01*
X566420Y618490D01*
Y620522D02*
X563372Y626618D01*
X569468D01*
X566420Y620522D01*
X139700Y455930D02*
X134620Y466090D01*
X144780D01*
X139700Y455930D01*
Y457962D02*
X136652Y464058D01*
X142748D01*
X139700Y457962D01*
X510540Y864870D02*
X505460Y875030D01*
X515620D01*
X510540Y864870D01*
Y866902D02*
X507492Y872998D01*
X513588D01*
X510540Y866902D01*
X485140Y864870D02*
X480060Y875030D01*
X490220D01*
X485140Y864870D01*
Y866902D02*
X482092Y872998D01*
X488188D01*
X485140Y866902D01*
X236220Y607060D02*
X231140Y617220D01*
X241300D01*
X236220Y607060D01*
Y609092D02*
X233172Y615188D01*
X239268D01*
X236220Y609092D01*
X135890Y214630D02*
X130810Y224790D01*
X140970D01*
X135890Y214630D01*
Y216662D02*
X132842Y222758D01*
X138938D01*
X135890Y216662D01*
X111760Y259080D02*
X106680Y269240D01*
X116840D01*
X111760Y259080D01*
Y261112D02*
X108712Y267208D01*
X114808D01*
X111760Y261112D01*
X87630Y303530D02*
X82550Y313690D01*
X92710D01*
X87630Y303530D01*
Y305562D02*
X84582Y311658D01*
X90678D01*
X87630Y305562D01*
X219710Y259080D02*
X214630Y269240D01*
X224790D01*
X219710Y259080D01*
Y261112D02*
X216662Y267208D01*
X222758D01*
X219710Y261112D01*
X194310Y259080D02*
X189230Y269240D01*
X199390D01*
X194310Y259080D01*
Y261112D02*
X191262Y267208D01*
X197358D01*
X194310Y261112D01*
X181610Y259080D02*
X176530Y269240D01*
X186690D01*
X181610Y259080D01*
Y261112D02*
X178562Y267208D01*
X184658D01*
X181610Y261112D01*
X471170Y844550D02*
X466090Y854710D01*
X476250D01*
X471170Y844550D01*
Y846582D02*
X468122Y852678D01*
X474218D01*
X471170Y846582D01*
D87*
X726440Y360680D02*
G03*
X726440Y360680I-5080J0D01*
G01*
Y410718D02*
G03*
X726440Y410718I-5080J0D01*
G01*
Y247650D02*
G03*
X726440Y247650I-5080J0D01*
G01*
Y297688D02*
G03*
X726440Y297688I-5080J0D01*
G01*
Y134112D02*
G03*
X726440Y134112I-5080J0D01*
G01*
Y184150D02*
G03*
X726440Y184150I-5080J0D01*
G01*
X716280Y63500D02*
G03*
X716280Y63500I-5080J0D01*
G01*
Y952500D02*
G03*
X716280Y952500I-5080J0D01*
G01*
X144780D02*
G03*
X144780Y952500I-5080J0D01*
G01*
Y63500D02*
G03*
X144780Y63500I-5080J0D01*
G01*
D88*
X724408Y360680D02*
G03*
X724408Y360680I-3048J0D01*
G01*
Y410718D02*
G03*
X724408Y410718I-3048J0D01*
G01*
Y247650D02*
G03*
X724408Y247650I-3048J0D01*
G01*
Y297688D02*
G03*
X724408Y297688I-3048J0D01*
G01*
Y134112D02*
G03*
X724408Y134112I-3048J0D01*
G01*
Y184150D02*
G03*
X724408Y184150I-3048J0D01*
G01*
M02*
