G04*
G04 #@! TF.GenerationSoftware,Altium Limited,Altium Designer,23.2.1 (34)*
G04*
G04 Layer_Color=16711935*
%FSLAX44Y44*%
%MOMM*%
G71*
G04*
G04 #@! TF.SameCoordinates,EBB66B4E-3AAD-41E4-A5C9-C65D96049EEA*
G04*
G04*
G04 #@! TF.FilePolarity,Positive*
G04*
G01*
G75*
%ADD10C,0.2000*%
%ADD12C,0.1270*%
%ADD83C,0.1000*%
%ADD84C,0.0762*%
D10*
X157060Y285750D02*
G03*
X157060Y285750I-1000J0D01*
G01*
X523590Y826950D02*
G03*
X523590Y826950I-1000J0D01*
G01*
X511590Y960630D02*
G03*
X511590Y960630I-1000J0D01*
G01*
D12*
X463584Y1023109D02*
G03*
X460111Y1029124I-4744J1271D01*
G01*
X459590Y1022130D02*
G03*
X458290Y1026130I-2650J1350D01*
G01*
X535053Y1028622D02*
G03*
X531598Y1023093I1037J-4492D01*
G01*
X536890Y1026130D02*
G03*
X535590Y1022130I1350J-2650D01*
G01*
X627730Y513120D02*
X774310D01*
X627730D02*
Y672520D01*
X774310D01*
Y513120D02*
Y672520D01*
X630910Y675060D02*
X637260Y690300D01*
X624560D02*
X637260D01*
X624560D02*
X630910Y675060D01*
X482840Y823200D02*
Y853200D01*
X512840Y823200D02*
Y853200D01*
X482840D02*
X512840D01*
X482840Y823200D02*
X512840D01*
X458290Y1026130D02*
X460090Y1029130D01*
X465590Y1023130D02*
Y1028630D01*
X529590D01*
Y1023130D02*
Y1028630D01*
X535090D02*
X536890Y1026130D01*
X535590Y1022130D02*
Y1022630D01*
X459590D02*
X535590D01*
X459590Y972130D02*
X535590D01*
X624560Y915090D02*
X630910Y899850D01*
X624560Y915090D02*
X637260D01*
X630910Y899850D02*
X637260Y915090D01*
X774310Y737910D02*
Y897310D01*
X627730D02*
X774310D01*
X627730Y737910D02*
Y897310D01*
Y737910D02*
X774310D01*
D83*
X245500Y478690D02*
G03*
X245500Y478690I-5000J0D01*
G01*
X562130Y904890D02*
X583630D01*
X562130Y890890D02*
X583630D01*
X562130D02*
Y904890D01*
X583630Y890890D02*
Y904890D01*
X542860Y927750D02*
X564360D01*
X542860Y913750D02*
X564360D01*
X542860D02*
Y927750D01*
X564360Y913750D02*
Y927750D01*
X2250Y671440D02*
X254750D01*
X2250Y463940D02*
X254750D01*
X2250D02*
Y671440D01*
X254750Y463940D02*
Y671440D01*
X226060Y288950D02*
Y323250D01*
X162560D02*
X226060D01*
X162560Y288950D02*
Y323250D01*
Y288950D02*
X226060D01*
Y323250D01*
X162560D02*
X226060D01*
X162560Y288950D02*
Y323250D01*
X221600Y710410D02*
X235600D01*
X221600Y688910D02*
X235600D01*
Y710410D01*
X221600Y688910D02*
Y710410D01*
X198740Y710630D02*
X212740D01*
X198740Y689130D02*
X212740D01*
Y710630D01*
X198740Y689130D02*
Y710630D01*
X580760Y526090D02*
Y548090D01*
X595260Y526090D02*
Y548090D01*
X580760Y526090D02*
X595260D01*
X580760Y548090D02*
X595260D01*
X546470Y525970D02*
Y547970D01*
X560970Y525970D02*
Y547970D01*
X546470Y525970D02*
X560970D01*
X546470Y547970D02*
X560970D01*
X104760Y250890D02*
X118760D01*
X104760Y229390D02*
X118760D01*
Y250890D01*
X104760Y229390D02*
Y250890D01*
X128890Y206440D02*
X142890D01*
X128890Y184940D02*
X142890D01*
Y206440D01*
X128890Y184940D02*
Y206440D01*
X80630Y295340D02*
X94630D01*
X80630Y273840D02*
X94630D01*
Y295340D01*
X80630Y273840D02*
Y295340D01*
X107050Y688770D02*
Y710770D01*
X121550Y688770D02*
Y710770D01*
X107050Y688770D02*
X121550D01*
X107050Y710770D02*
X121550D01*
X84190Y688650D02*
Y710650D01*
X98690Y688650D02*
Y710650D01*
X84190Y688650D02*
X98690D01*
X84190Y710650D02*
X98690D01*
X536370Y875930D02*
X558370D01*
X536370Y861430D02*
X558370D01*
X536370D02*
Y875930D01*
X558370Y861430D02*
Y875930D01*
X437310Y853810D02*
X459310D01*
X437310Y868310D02*
X459310D01*
Y853810D02*
Y868310D01*
X437310Y853810D02*
Y868310D01*
X437190Y833490D02*
X459190D01*
X437190Y847990D02*
X459190D01*
Y833490D02*
Y847990D01*
X437190Y833490D02*
Y847990D01*
X536620Y841360D02*
Y855360D01*
X558120Y841360D02*
Y855360D01*
X536620D02*
X558120D01*
X536620Y841360D02*
X558120D01*
X536250Y835290D02*
X558250D01*
X536250Y820790D02*
X558250D01*
X536250D02*
Y835290D01*
X558250Y820790D02*
Y835290D01*
X503540Y903450D02*
X517540D01*
X503540Y881950D02*
X517540D01*
Y903450D01*
X503540Y881950D02*
Y903450D01*
X478140D02*
X492140D01*
X478140Y881950D02*
X492140D01*
Y903450D01*
X478140Y881950D02*
Y903450D01*
X437430Y799200D02*
X459430D01*
X437430Y813700D02*
X459430D01*
Y799200D02*
Y813700D01*
X437430Y799200D02*
Y813700D01*
X536250Y813700D02*
X558250D01*
X536250Y799200D02*
X558250D01*
X536250D02*
Y813700D01*
X558250Y799200D02*
Y813700D01*
X245730Y250890D02*
X259730D01*
X245730Y229390D02*
X259730D01*
Y250890D01*
X245730Y229390D02*
Y250890D01*
X245420Y333640D02*
X267420D01*
X245420Y319140D02*
X267420D01*
X245420D02*
Y333640D01*
X267420Y319140D02*
Y333640D01*
X245730Y184720D02*
X259730D01*
X245730Y206220D02*
X259730D01*
X245730Y184720D02*
Y206220D01*
X259730Y184720D02*
Y206220D01*
X296530Y930120D02*
X310530D01*
X296530Y908620D02*
X310530D01*
Y930120D01*
X296530Y908620D02*
Y930120D01*
X446480Y236060D02*
Y343060D01*
X493480Y236060D02*
Y343060D01*
X446480Y236060D02*
X493480D01*
X446480Y343060D02*
X493480D01*
X459480Y236060D02*
Y343060D01*
X446480Y81120D02*
Y188120D01*
X493480Y81120D02*
Y188120D01*
X446480Y81120D02*
X493480D01*
X446480Y188120D02*
X493480D01*
X459480Y81120D02*
Y188120D01*
X245930Y968060D02*
X361930D01*
X245930D02*
Y1008060D01*
X361930D01*
Y968060D02*
Y1008060D01*
X224220Y757540D02*
Y771540D01*
X202720Y757540D02*
Y771540D01*
Y757540D02*
X224220D01*
X202720Y771540D02*
X224220D01*
Y821040D02*
Y835040D01*
X202720Y821040D02*
Y835040D01*
Y821040D02*
X224220D01*
X202720Y835040D02*
X224220D01*
X224000Y884540D02*
Y898540D01*
X202500Y884540D02*
Y898540D01*
Y884540D02*
X224000D01*
X202500Y898540D02*
X224000D01*
D84*
X186000Y568344D02*
Y578924D01*
X183884Y581040D01*
X179652D01*
X177536Y578924D01*
Y568344D01*
X173304Y581040D02*
X169072D01*
X171188D01*
Y568344D01*
X173304Y570460D01*
M02*
