G04*
G04 #@! TF.GenerationSoftware,Altium Limited,Altium Designer,23.2.1 (34)*
G04*
G04 Layer_Color=128*
%FSLAX44Y44*%
%MOMM*%
G71*
G04*
G04 #@! TF.SameCoordinates,B8F3427F-0302-4C4C-BDD2-04FEC27F4463*
G04*
G04*
G04 #@! TF.FilePolarity,Positive*
G04*
G01*
G75*
%ADD15C,0.1270*%
D15*
X947801Y1468120D02*
X959739D01*
X953770Y1462151D02*
Y1474089D01*
X897763Y1468120D02*
X909701D01*
X903732Y1462151D02*
Y1474089D01*
X1090041Y1468120D02*
X1101979D01*
X1096010Y1462151D02*
Y1474089D01*
X1040003Y1468120D02*
X1051941D01*
X1045972Y1462151D02*
Y1474089D01*
X1181481Y1468120D02*
X1193419D01*
X1187450Y1462151D02*
Y1474089D01*
X1231519Y1468120D02*
X1243457D01*
X1237488Y1462151D02*
Y1474089D01*
X768040Y1462450D02*
X784040D01*
X776040Y1454450D02*
Y1470450D01*
X643040Y1462450D02*
X659040D01*
X651040Y1454450D02*
Y1470450D01*
X770040Y1390650D02*
X782040D01*
X776040Y1384650D02*
Y1396650D01*
X745040Y1390650D02*
X757040D01*
X751040Y1384650D02*
Y1396650D01*
X720040Y1390650D02*
X732040D01*
X726040Y1384650D02*
Y1396650D01*
X695040Y1390650D02*
X707040D01*
X701040Y1384650D02*
Y1396650D01*
X670040Y1390650D02*
X682040D01*
X676040Y1384650D02*
Y1396650D01*
X645040Y1390650D02*
X657040D01*
X651040Y1384650D02*
Y1396650D01*
X770040Y1365650D02*
X782040D01*
X776040Y1359650D02*
Y1371650D01*
X745040Y1365650D02*
X757040D01*
X751040Y1359650D02*
Y1371650D01*
X720040Y1365650D02*
X732040D01*
X726040Y1359650D02*
Y1371650D01*
X695040Y1365650D02*
X707040D01*
X701040Y1359650D02*
Y1371650D01*
X670040Y1365650D02*
X682040D01*
X676040Y1359650D02*
Y1371650D01*
X645040Y1365650D02*
X657040D01*
X651040Y1359650D02*
Y1371650D01*
X894160Y1266190D02*
X904160D01*
X899160Y1261190D02*
Y1271190D01*
X919560Y1266190D02*
X929560D01*
X924560Y1261190D02*
Y1271190D01*
X944960Y1266190D02*
X954960D01*
X949960Y1261190D02*
Y1271190D01*
X1582420Y1200150D02*
X1592580D01*
X1587500Y1195070D02*
Y1205230D01*
X1607820Y1200150D02*
X1617980D01*
X1612900Y1195070D02*
Y1205230D01*
X1633220Y1200150D02*
X1643380D01*
X1638300Y1195070D02*
Y1205230D01*
X1633220Y1174750D02*
X1643380D01*
X1638300Y1169670D02*
Y1179830D01*
X1607820Y1174750D02*
X1617980D01*
X1612900Y1169670D02*
Y1179830D01*
X1582420Y1174750D02*
X1592580D01*
X1587500Y1169670D02*
Y1179830D01*
X1485710Y1450340D02*
X1493710D01*
X1489710Y1446340D02*
Y1454340D01*
X1511110Y1450340D02*
X1519110D01*
X1515110Y1446340D02*
Y1454340D01*
X1409510Y1450340D02*
X1417510D01*
X1413510Y1446340D02*
Y1454340D01*
X1434910Y1450340D02*
X1442910D01*
X1438910Y1446340D02*
Y1454340D01*
X1333310Y1450340D02*
X1341310D01*
X1337310Y1446340D02*
Y1454340D01*
X1358710Y1450340D02*
X1366710D01*
X1362710Y1446340D02*
Y1454340D01*
X1616790Y1492250D02*
X1626790D01*
X1621790Y1487250D02*
Y1497250D01*
X1591790Y1492250D02*
X1601790D01*
X1596790Y1487250D02*
Y1497250D01*
X1566790Y1492250D02*
X1576790D01*
X1571790Y1487250D02*
Y1497250D01*
X1116410Y1266190D02*
X1126410D01*
X1121410Y1261190D02*
Y1271190D01*
X1091010Y1266190D02*
X1101010D01*
X1096010Y1261190D02*
Y1271190D01*
X1065610Y1266190D02*
X1075610D01*
X1070610Y1261190D02*
Y1271190D01*
X1012270Y1347470D02*
X1022270D01*
X1017270Y1342470D02*
Y1352470D01*
X1190070Y1347470D02*
X1200070D01*
X1195070Y1342470D02*
Y1352470D01*
X407950Y1365650D02*
X419950D01*
X413950Y1359650D02*
Y1371650D01*
X432950Y1365650D02*
X444950D01*
X438950Y1359650D02*
Y1371650D01*
X457950Y1365650D02*
X469950D01*
X463950Y1359650D02*
Y1371650D01*
X482950Y1365650D02*
X494950D01*
X488950Y1359650D02*
Y1371650D01*
X507950Y1365650D02*
X519950D01*
X513950Y1359650D02*
Y1371650D01*
X532950Y1365650D02*
X544950D01*
X538950Y1359650D02*
Y1371650D01*
X407950Y1390650D02*
X419950D01*
X413950Y1384650D02*
Y1396650D01*
X432950Y1390650D02*
X444950D01*
X438950Y1384650D02*
Y1396650D01*
X457950Y1390650D02*
X469950D01*
X463950Y1384650D02*
Y1396650D01*
X482950Y1390650D02*
X494950D01*
X488950Y1384650D02*
Y1396650D01*
X507950Y1390650D02*
X519950D01*
X513950Y1384650D02*
Y1396650D01*
X532950Y1390650D02*
X544950D01*
X538950Y1384650D02*
Y1396650D01*
X405950Y1462450D02*
X421950D01*
X413950Y1454450D02*
Y1470450D01*
X530950Y1462450D02*
X546950D01*
X538950Y1454450D02*
Y1470450D01*
X196210Y1508760D02*
X201210D01*
X198710Y1506260D02*
Y1511260D01*
X262210Y1508760D02*
X267210D01*
X264710Y1506260D02*
Y1511260D01*
X1678940Y81280D02*
X1714500D01*
X1696720Y63500D02*
Y99060D01*
X1678940Y1442720D02*
X1714500D01*
X1696720Y1424940D02*
Y1460500D01*
X63500Y1442720D02*
X99060D01*
X81280Y1424940D02*
Y1460500D01*
X63500Y81280D02*
X99060D01*
X81280Y63500D02*
Y99060D01*
X924814Y717550D02*
X926846D01*
X925830Y716534D02*
Y718566D01*
X260604Y684530D02*
X262636D01*
X261620Y683514D02*
Y685546D01*
X33274Y608330D02*
X35306D01*
X34290Y607314D02*
Y609346D01*
X25654Y709930D02*
X27686D01*
X26670Y708914D02*
Y710946D01*
X25654Y786130D02*
X27686D01*
X26670Y785114D02*
Y787146D01*
X781304Y735330D02*
X783336D01*
X782320Y734314D02*
Y736346D01*
X1261364Y1250950D02*
X1263396D01*
X1262380Y1249934D02*
Y1251966D01*
X1233424Y1219200D02*
X1235456D01*
X1234440Y1218184D02*
Y1220216D01*
X1247394Y1219200D02*
X1249426D01*
X1248410Y1218184D02*
Y1220216D01*
X49784Y608330D02*
X51816D01*
X50800Y607314D02*
Y609346D01*
X66294Y608330D02*
X68326D01*
X67310Y607314D02*
Y609346D01*
X66294Y624840D02*
X68326D01*
X67310Y623824D02*
Y625856D01*
X181864Y684530D02*
X183896D01*
X182880Y683514D02*
Y685546D01*
X181864Y657860D02*
X183896D01*
X182880Y656844D02*
Y658876D01*
X165354Y684530D02*
X167386D01*
X166370Y683514D02*
Y685546D01*
X165354Y657860D02*
X167386D01*
X166370Y656844D02*
Y658876D01*
X16764Y684530D02*
X18796D01*
X17780Y683514D02*
Y685546D01*
X82804Y657860D02*
X84836D01*
X83820Y656844D02*
Y658876D01*
X82804Y684530D02*
X84836D01*
X83820Y683514D02*
Y685546D01*
X66294Y684530D02*
X68326D01*
X67310Y683514D02*
Y685546D01*
X66294Y657860D02*
X68326D01*
X67310Y656844D02*
Y658876D01*
X33274Y684530D02*
X35306D01*
X34290Y683514D02*
Y685546D01*
X49784Y684530D02*
X51816D01*
X50800Y683514D02*
Y685546D01*
X115824Y657860D02*
X117856D01*
X116840Y656844D02*
Y658876D01*
X115824Y684530D02*
X117856D01*
X116840Y683514D02*
Y685546D01*
X99314Y684530D02*
X101346D01*
X100330Y683514D02*
Y685546D01*
X99314Y657860D02*
X101346D01*
X100330Y656844D02*
Y658876D01*
X132334Y657860D02*
X134366D01*
X133350Y656844D02*
Y658876D01*
X132334Y684530D02*
X134366D01*
X133350Y683514D02*
Y685546D01*
X148844Y684530D02*
X150876D01*
X149860Y683514D02*
Y685546D01*
X148844Y657860D02*
X150876D01*
X149860Y656844D02*
Y658876D01*
X708914Y767080D02*
X710946D01*
X709930Y766064D02*
Y768096D01*
X698754Y786130D02*
X700786D01*
X699770Y785114D02*
Y787146D01*
X724154Y786130D02*
X726186D01*
X725170Y785114D02*
Y787146D01*
X749554Y556260D02*
X751586D01*
X750570Y555244D02*
Y557276D01*
X25654Y556260D02*
X27686D01*
X26670Y555244D02*
Y557276D01*
X25654Y594360D02*
X27686D01*
X26670Y593344D02*
Y595376D01*
X38354Y709930D02*
X40386D01*
X39370Y708914D02*
Y710946D01*
X63754Y709930D02*
X65786D01*
X64770Y708914D02*
Y710946D01*
X89154Y709930D02*
X91186D01*
X90170Y708914D02*
Y710946D01*
X165354Y709930D02*
X167386D01*
X166370Y708914D02*
Y710946D01*
X114554Y709930D02*
X116586D01*
X115570Y708914D02*
Y710946D01*
X139954Y709930D02*
X141986D01*
X140970Y708914D02*
Y710946D01*
X647954Y556260D02*
X649986D01*
X648970Y555244D02*
Y557276D01*
X698754Y556260D02*
X700786D01*
X699770Y555244D02*
Y557276D01*
X673354Y556260D02*
X675386D01*
X674370Y555244D02*
Y557276D01*
X571754Y556260D02*
X573786D01*
X572770Y555244D02*
Y557276D01*
X597154Y556260D02*
X599186D01*
X598170Y555244D02*
Y557276D01*
X622554Y556260D02*
X624586D01*
X623570Y555244D02*
Y557276D01*
X546354Y556260D02*
X548386D01*
X547370Y555244D02*
Y557276D01*
X520954Y556260D02*
X522986D01*
X521970Y555244D02*
Y557276D01*
X114554Y556260D02*
X116586D01*
X115570Y555244D02*
Y557276D01*
X89154Y556260D02*
X91186D01*
X90170Y555244D02*
Y557276D01*
X63754Y556260D02*
X65786D01*
X64770Y555244D02*
Y557276D01*
X38354Y556260D02*
X40386D01*
X39370Y555244D02*
Y557276D01*
X139954Y556260D02*
X141986D01*
X140970Y555244D02*
Y557276D01*
X444754Y556260D02*
X446786D01*
X445770Y555244D02*
Y557276D01*
X419354Y556260D02*
X421386D01*
X420370Y555244D02*
Y557276D01*
X470154Y556260D02*
X472186D01*
X471170Y555244D02*
Y557276D01*
X495554Y556260D02*
X497586D01*
X496570Y555244D02*
Y557276D01*
X393954Y556260D02*
X395986D01*
X394970Y555244D02*
Y557276D01*
X368554Y556260D02*
X370586D01*
X369570Y555244D02*
Y557276D01*
X343154Y556260D02*
X345186D01*
X344170Y555244D02*
Y557276D01*
X317754Y556260D02*
X319786D01*
X318770Y555244D02*
Y557276D01*
X266954Y556260D02*
X268986D01*
X267970Y555244D02*
Y557276D01*
X241554Y556260D02*
X243586D01*
X242570Y555244D02*
Y557276D01*
X190754Y556260D02*
X192786D01*
X191770Y555244D02*
Y557276D01*
X216154Y556260D02*
X218186D01*
X217170Y555244D02*
Y557276D01*
X165354Y556260D02*
X167386D01*
X166370Y555244D02*
Y557276D01*
X292354Y556260D02*
X294386D01*
X293370Y555244D02*
Y557276D01*
X165354Y632460D02*
X167386D01*
X166370Y631444D02*
Y633476D01*
X139954Y632460D02*
X141986D01*
X140970Y631444D02*
Y633476D01*
X114554Y632460D02*
X116586D01*
X115570Y631444D02*
Y633476D01*
X89154Y632460D02*
X91186D01*
X90170Y631444D02*
Y633476D01*
X66294Y641350D02*
X68326D01*
X67310Y640334D02*
Y642366D01*
X101854Y594360D02*
X103886D01*
X102870Y593344D02*
Y595376D01*
X76454Y594360D02*
X78486D01*
X77470Y593344D02*
Y595376D01*
X51054Y594360D02*
X53086D01*
X52070Y593344D02*
Y595376D01*
X178054Y594360D02*
X180086D01*
X179070Y593344D02*
Y595376D01*
X152654Y594360D02*
X154686D01*
X153670Y593344D02*
Y595376D01*
X127254Y594360D02*
X129286D01*
X128270Y593344D02*
Y595376D01*
X760984Y632460D02*
X763016D01*
X762000Y631444D02*
Y633476D01*
X744474Y632460D02*
X746506D01*
X745490Y631444D02*
Y633476D01*
X419354Y632460D02*
X421386D01*
X420370Y631444D02*
Y633476D01*
X444754Y632460D02*
X446786D01*
X445770Y631444D02*
Y633476D01*
X470154Y632460D02*
X472186D01*
X471170Y631444D02*
Y633476D01*
X495554Y632460D02*
X497586D01*
X496570Y631444D02*
Y633476D01*
X190754Y632460D02*
X192786D01*
X191770Y631444D02*
Y633476D01*
X216154Y632460D02*
X218186D01*
X217170Y631444D02*
Y633476D01*
X241554Y632460D02*
X243586D01*
X242570Y631444D02*
Y633476D01*
X266954Y632460D02*
X268986D01*
X267970Y631444D02*
Y633476D01*
X292354Y632460D02*
X294386D01*
X293370Y631444D02*
Y633476D01*
X393954Y632460D02*
X395986D01*
X394970Y631444D02*
Y633476D01*
X368554Y632460D02*
X370586D01*
X369570Y631444D02*
Y633476D01*
X317754Y632460D02*
X319786D01*
X318770Y631444D02*
Y633476D01*
X343154Y632460D02*
X345186D01*
X344170Y631444D02*
Y633476D01*
X520954Y632460D02*
X522986D01*
X521970Y631444D02*
Y633476D01*
X546354Y632460D02*
X548386D01*
X547370Y631444D02*
Y633476D01*
X622554Y632460D02*
X624586D01*
X623570Y631444D02*
Y633476D01*
X571754Y632460D02*
X573786D01*
X572770Y631444D02*
Y633476D01*
X597154Y632460D02*
X599186D01*
X598170Y631444D02*
Y633476D01*
X724154Y632460D02*
X726186D01*
X725170Y631444D02*
Y633476D01*
X647954Y632460D02*
X649986D01*
X648970Y631444D02*
Y633476D01*
X698754Y632460D02*
X700786D01*
X699770Y631444D02*
Y633476D01*
X673354Y632460D02*
X675386D01*
X674370Y631444D02*
Y633476D01*
X777494Y657860D02*
X779526D01*
X778510Y656844D02*
Y658876D01*
X777494Y684530D02*
X779526D01*
X778510Y683514D02*
Y685546D01*
X240284Y1384300D02*
X242316D01*
X241300Y1383284D02*
Y1385316D01*
X853694Y594360D02*
X855726D01*
X854710Y593344D02*
Y595376D01*
X882904Y619760D02*
X884936D01*
X883920Y618744D02*
Y620776D01*
X184404Y1463040D02*
X186436D01*
X185420Y1462024D02*
Y1464056D01*
X172974Y1463040D02*
X175006D01*
X173990Y1462024D02*
Y1464056D01*
X642874Y1258570D02*
X644906D01*
X643890Y1257554D02*
Y1259586D01*
X642874Y1314450D02*
X644906D01*
X643890Y1313434D02*
Y1315466D01*
X642874Y1286510D02*
X644906D01*
X643890Y1285494D02*
Y1287526D01*
X1514094Y1384300D02*
X1516126D01*
X1515110Y1383284D02*
Y1385316D01*
X1437894Y1384300D02*
X1439926D01*
X1438910Y1383284D02*
Y1385316D01*
X1361694Y1384300D02*
X1363726D01*
X1362710Y1383284D02*
Y1385316D01*
X1166114Y1267460D02*
X1168146D01*
X1167130Y1266444D02*
Y1268476D01*
X983234Y1266190D02*
X985266D01*
X984250Y1265174D02*
Y1267206D01*
X762254Y1377950D02*
X764286D01*
X763270Y1376934D02*
Y1378966D01*
X687324Y1377950D02*
X689356D01*
X688340Y1376934D02*
Y1378966D01*
X526018Y1378069D02*
X528050D01*
X527034Y1377053D02*
Y1379085D01*
X232664Y1337310D02*
X234696D01*
X233680Y1336294D02*
Y1338326D01*
X227584Y1328420D02*
X229616D01*
X228600Y1327404D02*
Y1329436D01*
X237744Y1346200D02*
X239776D01*
X238760Y1345184D02*
Y1347216D01*
X341884Y1314450D02*
X343916D01*
X342900Y1313434D02*
Y1315466D01*
X341884Y1333500D02*
X343916D01*
X342900Y1332484D02*
Y1334516D01*
X283464Y1428750D02*
X285496D01*
X284480Y1427734D02*
Y1429766D01*
X216154Y1428750D02*
X218186D01*
X217170Y1427734D02*
Y1429766D01*
X1637284Y1066800D02*
X1639316D01*
X1638300Y1065784D02*
Y1067816D01*
X1611884Y1066800D02*
X1613916D01*
X1612900Y1065784D02*
Y1067816D01*
X1586484Y1066800D02*
X1588516D01*
X1587500Y1065784D02*
Y1067816D01*
X1446784Y1313180D02*
X1448816D01*
X1447800Y1312164D02*
Y1314196D01*
X1427734Y1294130D02*
X1429766D01*
X1428750Y1293114D02*
Y1295146D01*
X1484884Y1144270D02*
X1486916D01*
X1485900Y1143254D02*
Y1145286D01*
X1459484Y1144270D02*
X1461516D01*
X1460500Y1143254D02*
Y1145286D01*
X1446784Y1144270D02*
X1448816D01*
X1447800Y1143254D02*
Y1145286D01*
X921004Y566420D02*
X923036D01*
X922020Y565404D02*
Y567436D01*
X885444Y566420D02*
X887476D01*
X886460Y565404D02*
Y567436D01*
X813054Y566420D02*
X815086D01*
X814070Y565404D02*
Y567436D01*
X777494Y566420D02*
X779526D01*
X778510Y565404D02*
Y567436D01*
X979424Y638810D02*
X981456D01*
X980440Y637794D02*
Y639826D01*
X926084Y627380D02*
X928116D01*
X927100Y626364D02*
Y628396D01*
X950214Y596900D02*
X952246D01*
X951230Y595884D02*
Y597916D01*
X1007364Y737870D02*
X1009396D01*
X1008380Y736854D02*
Y738886D01*
X967994Y707390D02*
X970026D01*
X969010Y706374D02*
Y708406D01*
X1007364Y687070D02*
X1009396D01*
X1008380Y686054D02*
Y688086D01*
X1007364Y670560D02*
X1009396D01*
X1008380Y669544D02*
Y671576D01*
X913384Y844550D02*
X915416D01*
X914400Y843534D02*
Y845566D01*
X891794Y844550D02*
X893826D01*
X892810Y843534D02*
Y845566D01*
X913384Y828040D02*
X915416D01*
X914400Y827024D02*
Y829056D01*
X849884Y812800D02*
X851916D01*
X850900Y811784D02*
Y813816D01*
X829564Y788670D02*
X831596D01*
X830580Y787654D02*
Y789686D01*
X824484Y840740D02*
X826516D01*
X825500Y839724D02*
Y841756D01*
X797814Y840740D02*
X799846D01*
X798830Y839724D02*
Y841756D01*
X910844Y905510D02*
X912876D01*
X911860Y904494D02*
Y906526D01*
X896874Y918210D02*
X898906D01*
X897890Y917194D02*
Y919226D01*
X25654Y748030D02*
X27686D01*
X26670Y747014D02*
Y749046D01*
X717804Y820420D02*
X719836D01*
X718820Y819404D02*
Y821436D01*
X101854Y748030D02*
X103886D01*
X102870Y747014D02*
Y749046D01*
X127254Y748030D02*
X129286D01*
X128270Y747014D02*
Y749046D01*
X76454Y748030D02*
X78486D01*
X77470Y747014D02*
Y749046D01*
X51054Y748030D02*
X53086D01*
X52070Y747014D02*
Y749046D01*
X178054Y748030D02*
X180086D01*
X179070Y747014D02*
Y749046D01*
X152654Y748030D02*
X154686D01*
X153670Y747014D02*
Y749046D01*
X694944Y709930D02*
X696976D01*
X695960Y708914D02*
Y710946D01*
X190754Y709930D02*
X192786D01*
X191770Y708914D02*
Y710946D01*
X470154Y709930D02*
X472186D01*
X471170Y708914D02*
Y710946D01*
X495554Y709930D02*
X497586D01*
X496570Y708914D02*
Y710946D01*
X444754Y709930D02*
X446786D01*
X445770Y708914D02*
Y710946D01*
X419354Y709930D02*
X421386D01*
X420370Y708914D02*
Y710946D01*
X546354Y709930D02*
X548386D01*
X547370Y708914D02*
Y710946D01*
X520954Y709930D02*
X522986D01*
X521970Y708914D02*
Y710946D01*
X317754Y709930D02*
X319786D01*
X318770Y708914D02*
Y710946D01*
X292354Y709930D02*
X294386D01*
X293370Y708914D02*
Y710946D01*
X343154Y709930D02*
X345186D01*
X344170Y708914D02*
Y710946D01*
X368554Y709930D02*
X370586D01*
X369570Y708914D02*
Y710946D01*
X393954Y709930D02*
X395986D01*
X394970Y708914D02*
Y710946D01*
X266954Y709930D02*
X268986D01*
X267970Y708914D02*
Y710946D01*
X241554Y709930D02*
X243586D01*
X242570Y708914D02*
Y710946D01*
X216154Y709930D02*
X218186D01*
X217170Y708914D02*
Y710946D01*
X622554Y709930D02*
X624586D01*
X623570Y708914D02*
Y710946D01*
X597154Y709930D02*
X599186D01*
X598170Y708914D02*
Y710946D01*
X571754Y709930D02*
X573786D01*
X572770Y708914D02*
Y710946D01*
X647954Y709930D02*
X649986D01*
X648970Y708914D02*
Y710946D01*
X673354Y786130D02*
X675386D01*
X674370Y785114D02*
Y787146D01*
X647954Y786130D02*
X649986D01*
X648970Y785114D02*
Y787146D01*
X571754Y786130D02*
X573786D01*
X572770Y785114D02*
Y787146D01*
X597154Y786130D02*
X599186D01*
X598170Y785114D02*
Y787146D01*
X622554Y786130D02*
X624586D01*
X623570Y785114D02*
Y787146D01*
X216154Y786130D02*
X218186D01*
X217170Y785114D02*
Y787146D01*
X241554Y786130D02*
X243586D01*
X242570Y785114D02*
Y787146D01*
X266954Y786130D02*
X268986D01*
X267970Y785114D02*
Y787146D01*
X393954Y786130D02*
X395986D01*
X394970Y785114D02*
Y787146D01*
X368554Y786130D02*
X370586D01*
X369570Y785114D02*
Y787146D01*
X343154Y786130D02*
X345186D01*
X344170Y785114D02*
Y787146D01*
X292354Y786130D02*
X294386D01*
X293370Y785114D02*
Y787146D01*
X317754Y786130D02*
X319786D01*
X318770Y785114D02*
Y787146D01*
X520954Y786130D02*
X522986D01*
X521970Y785114D02*
Y787146D01*
X546354Y786130D02*
X548386D01*
X547370Y785114D02*
Y787146D01*
X419354Y786130D02*
X421386D01*
X420370Y785114D02*
Y787146D01*
X444754Y786130D02*
X446786D01*
X445770Y785114D02*
Y787146D01*
X495554Y786130D02*
X497586D01*
X496570Y785114D02*
Y787146D01*
X470154Y786130D02*
X472186D01*
X471170Y785114D02*
Y787146D01*
X190754Y786130D02*
X192786D01*
X191770Y785114D02*
Y787146D01*
X165354Y786130D02*
X167386D01*
X166370Y785114D02*
Y787146D01*
X38354Y786130D02*
X40386D01*
X39370Y785114D02*
Y787146D01*
X139954Y786130D02*
X141986D01*
X140970Y785114D02*
Y787146D01*
X63754Y786130D02*
X65786D01*
X64770Y785114D02*
Y787146D01*
X89154Y786130D02*
X91186D01*
X90170Y785114D02*
Y787146D01*
X114554Y786130D02*
X116586D01*
X115570Y785114D02*
Y787146D01*
X778764Y698500D02*
X780796D01*
X779780Y697484D02*
Y699516D01*
X724154Y556260D02*
X726186D01*
X725170Y555244D02*
Y557276D01*
X997204Y726440D02*
X999236D01*
X998220Y725424D02*
Y727456D01*
X138684Y1357630D02*
X140716D01*
X139700Y1356614D02*
Y1358646D01*
X164084Y1367790D02*
X166116D01*
X165100Y1366774D02*
Y1368806D01*
X203454Y748030D02*
X205486D01*
X204470Y747014D02*
Y749046D01*
X228854Y748030D02*
X230886D01*
X229870Y747014D02*
Y749046D01*
X203454Y594360D02*
X205486D01*
X204470Y593344D02*
Y595376D01*
X228854Y594360D02*
X230886D01*
X229870Y593344D02*
Y595376D01*
X254254Y748030D02*
X256286D01*
X255270Y747014D02*
Y749046D01*
X279654Y748030D02*
X281686D01*
X280670Y747014D02*
Y749046D01*
X330454Y748030D02*
X332486D01*
X331470Y747014D02*
Y749046D01*
X305054Y748030D02*
X307086D01*
X306070Y747014D02*
Y749046D01*
X406654Y748030D02*
X408686D01*
X407670Y747014D02*
Y749046D01*
X432054Y748030D02*
X434086D01*
X433070Y747014D02*
Y749046D01*
X381254Y748030D02*
X383286D01*
X382270Y747014D02*
Y749046D01*
X355854Y748030D02*
X357886D01*
X356870Y747014D02*
Y749046D01*
X508254Y748030D02*
X510286D01*
X509270Y747014D02*
Y749046D01*
X533654Y748030D02*
X535686D01*
X534670Y747014D02*
Y749046D01*
X482854Y748030D02*
X484886D01*
X483870Y747014D02*
Y749046D01*
X457454Y748030D02*
X459486D01*
X458470Y747014D02*
Y749046D01*
X609854Y748030D02*
X611886D01*
X610870Y747014D02*
Y749046D01*
X635254Y748030D02*
X637286D01*
X636270Y747014D02*
Y749046D01*
X584454Y748030D02*
X586486D01*
X585470Y747014D02*
Y749046D01*
X559054Y748030D02*
X561086D01*
X560070Y747014D02*
Y749046D01*
X672084Y709930D02*
X674116D01*
X673100Y708914D02*
Y710946D01*
X686054Y748030D02*
X688086D01*
X687070Y747014D02*
Y749046D01*
X660654Y748030D02*
X662686D01*
X661670Y747014D02*
Y749046D01*
X660654Y594360D02*
X662686D01*
X661670Y593344D02*
Y595376D01*
X686054Y594360D02*
X688086D01*
X687070Y593344D02*
Y595376D01*
X736854Y594360D02*
X738886D01*
X737870Y593344D02*
Y595376D01*
X711454Y594360D02*
X713486D01*
X712470Y593344D02*
Y595376D01*
X559054Y594360D02*
X561086D01*
X560070Y593344D02*
Y595376D01*
X584454Y594360D02*
X586486D01*
X585470Y593344D02*
Y595376D01*
X635254Y594360D02*
X637286D01*
X636270Y593344D02*
Y595376D01*
X609854Y594360D02*
X611886D01*
X610870Y593344D02*
Y595376D01*
X457454Y594360D02*
X459486D01*
X458470Y593344D02*
Y595376D01*
X482854Y594360D02*
X484886D01*
X483870Y593344D02*
Y595376D01*
X533654Y594360D02*
X535686D01*
X534670Y593344D02*
Y595376D01*
X508254Y594360D02*
X510286D01*
X509270Y593344D02*
Y595376D01*
X355854Y594360D02*
X357886D01*
X356870Y593344D02*
Y595376D01*
X381254Y594360D02*
X383286D01*
X382270Y593344D02*
Y595376D01*
X432054Y594360D02*
X434086D01*
X433070Y593344D02*
Y595376D01*
X406654Y594360D02*
X408686D01*
X407670Y593344D02*
Y595376D01*
X305054Y594360D02*
X307086D01*
X306070Y593344D02*
Y595376D01*
X330454Y594360D02*
X332486D01*
X331470Y593344D02*
Y595376D01*
X279654Y594360D02*
X281686D01*
X280670Y593344D02*
Y595376D01*
X254254Y594360D02*
X256286D01*
X255270Y593344D02*
Y595376D01*
X226314Y688340D02*
X228346D01*
X227330Y687324D02*
Y689356D01*
X241554Y688340D02*
X243586D01*
X242570Y687324D02*
Y689356D01*
X241554Y652780D02*
X243586D01*
X242570Y651764D02*
Y653796D01*
X225044Y652780D02*
X227076D01*
X226060Y651764D02*
Y653796D01*
X212344Y657860D02*
X214376D01*
X213360Y656844D02*
Y658876D01*
X212344Y684530D02*
X214376D01*
X213360Y683514D02*
Y685546D01*
X392684Y657860D02*
X394716D01*
X393700Y656844D02*
Y658876D01*
X392684Y684530D02*
X394716D01*
X393700Y683514D02*
Y685546D01*
X376174Y684530D02*
X378206D01*
X377190Y683514D02*
Y685546D01*
X376174Y657860D02*
X378206D01*
X377190Y656844D02*
Y658876D01*
X343154Y657860D02*
X345186D01*
X344170Y656844D02*
Y658876D01*
X343154Y684530D02*
X345186D01*
X344170Y683514D02*
Y685546D01*
X359664Y684530D02*
X361696D01*
X360680Y683514D02*
Y685546D01*
X359664Y657860D02*
X361696D01*
X360680Y656844D02*
Y658876D01*
X293624Y657860D02*
X295656D01*
X294640Y656844D02*
Y658876D01*
X293624Y684530D02*
X295656D01*
X294640Y683514D02*
Y685546D01*
X277114Y684530D02*
X279146D01*
X278130Y683514D02*
Y685546D01*
X277114Y657860D02*
X279146D01*
X278130Y656844D02*
Y658876D01*
X310134Y657860D02*
X312166D01*
X311150Y656844D02*
Y658876D01*
X310134Y684530D02*
X312166D01*
X311150Y683514D02*
Y685546D01*
X326644Y684530D02*
X328676D01*
X327660Y683514D02*
Y685546D01*
X326644Y657860D02*
X328676D01*
X327660Y656844D02*
Y658876D01*
X260604Y657860D02*
X262636D01*
X261620Y656844D02*
Y658876D01*
X574294Y657860D02*
X576326D01*
X575310Y656844D02*
Y658876D01*
X574294Y684530D02*
X576326D01*
X575310Y683514D02*
Y685546D01*
X557784Y684530D02*
X559816D01*
X558800Y683514D02*
Y685546D01*
X557784Y657860D02*
X559816D01*
X558800Y656844D02*
Y658876D01*
X524764Y657860D02*
X526796D01*
X525780Y656844D02*
Y658876D01*
X524764Y684530D02*
X526796D01*
X525780Y683514D02*
Y685546D01*
X541274Y684530D02*
X543306D01*
X542290Y683514D02*
Y685546D01*
X541274Y657860D02*
X543306D01*
X542290Y656844D02*
Y658876D01*
X475234Y657860D02*
X477266D01*
X476250Y656844D02*
Y658876D01*
X475234Y684530D02*
X477266D01*
X476250Y683514D02*
Y685546D01*
X458724Y684530D02*
X460756D01*
X459740Y683514D02*
Y685546D01*
X458724Y657860D02*
X460756D01*
X459740Y656844D02*
Y658876D01*
X491744Y657860D02*
X493776D01*
X492760Y656844D02*
Y658876D01*
X491744Y684530D02*
X493776D01*
X492760Y683514D02*
Y685546D01*
X508254Y684530D02*
X510286D01*
X509270Y683514D02*
Y685546D01*
X508254Y657860D02*
X510286D01*
X509270Y656844D02*
Y658876D01*
X409194Y657860D02*
X411226D01*
X410210Y656844D02*
Y658876D01*
X409194Y684530D02*
X411226D01*
X410210Y683514D02*
Y685546D01*
X425704Y657860D02*
X427736D01*
X426720Y656844D02*
Y658876D01*
X425704Y684530D02*
X427736D01*
X426720Y683514D02*
Y685546D01*
X442214Y684530D02*
X444246D01*
X443230Y683514D02*
Y685546D01*
X442214Y657860D02*
X444246D01*
X443230Y656844D02*
Y658876D01*
X661924Y657860D02*
X663956D01*
X662940Y656844D02*
Y658876D01*
X661924Y684530D02*
X663956D01*
X662940Y683514D02*
Y685546D01*
X645414Y684530D02*
X647446D01*
X646430Y683514D02*
Y685546D01*
X645414Y657860D02*
X647446D01*
X646430Y656844D02*
Y658876D01*
X628904Y684530D02*
X630936D01*
X629920Y683514D02*
Y685546D01*
X628904Y657860D02*
X630936D01*
X629920Y656844D02*
Y658876D01*
X727964Y657860D02*
X729996D01*
X728980Y656844D02*
Y658876D01*
X727964Y684530D02*
X729996D01*
X728980Y683514D02*
Y685546D01*
X711454Y684530D02*
X713486D01*
X712470Y683514D02*
Y685546D01*
X711454Y657860D02*
X713486D01*
X712470Y656844D02*
Y658876D01*
X678434Y657860D02*
X680466D01*
X679450Y656844D02*
Y658876D01*
X678434Y684530D02*
X680466D01*
X679450Y683514D02*
Y685546D01*
X694944Y684530D02*
X696976D01*
X695960Y683514D02*
Y685546D01*
X694944Y657860D02*
X696976D01*
X695960Y656844D02*
Y658876D01*
X760984Y657860D02*
X763016D01*
X762000Y656844D02*
Y658876D01*
X760984Y684530D02*
X763016D01*
X762000Y683514D02*
Y685546D01*
X744474Y684530D02*
X746506D01*
X745490Y683514D02*
Y685546D01*
X744474Y657860D02*
X746506D01*
X745490Y656844D02*
Y658876D01*
X794004Y684530D02*
X796036D01*
X795020Y683514D02*
Y685546D01*
X794004Y657860D02*
X796036D01*
X795020Y656844D02*
Y658876D01*
X802894Y641350D02*
X804926D01*
X803910Y640334D02*
Y642366D01*
X614934Y691896D02*
X616966D01*
X615950Y690880D02*
Y692912D01*
X601524Y694436D02*
X603556D01*
X602540Y693420D02*
Y695452D01*
X614934Y650240D02*
X616966D01*
X615950Y649224D02*
Y651256D01*
X601524Y647700D02*
X603556D01*
X602540Y646684D02*
Y648716D01*
X588264Y691896D02*
X590296D01*
X589280Y690880D02*
Y692912D01*
X588264Y650240D02*
X590296D01*
X589280Y649224D02*
Y651256D01*
X1004824Y779780D02*
X1006856D01*
X1005840Y778764D02*
Y780796D01*
X932434Y647700D02*
X934466D01*
X933450Y646684D02*
Y648716D01*
X914654Y664464D02*
X916686D01*
X915670Y663448D02*
Y665480D01*
X913384Y779780D02*
X915416D01*
X914400Y778764D02*
Y780796D01*
X880110Y645160D02*
X882650D01*
X881380Y643890D02*
Y646430D01*
X881634Y635000D02*
X883666D01*
X882650Y633984D02*
Y636016D01*
X868934Y643890D02*
X870966D01*
X869950Y642874D02*
Y644906D01*
X1055624Y701040D02*
X1057656D01*
X1056640Y700024D02*
Y702056D01*
X1103884Y1108710D02*
X1105916D01*
X1104900Y1107694D02*
Y1109726D01*
X979424Y619760D02*
X981456D01*
X980440Y618744D02*
Y620776D01*
X961644Y589280D02*
X963676D01*
X962660Y588264D02*
Y590296D01*
X1014984Y604520D02*
X1017016D01*
X1016000Y603504D02*
Y605536D01*
X835918Y633734D02*
X837950D01*
X836934Y632718D02*
Y634750D01*
X840994Y642620D02*
X843026D01*
X842010Y641604D02*
Y643636D01*
X911860Y618490D02*
X914400D01*
X913130Y617220D02*
Y619760D01*
X205740Y1344930D02*
X208280D01*
X207010Y1343660D02*
Y1346200D01*
X707644Y864870D02*
X709676D01*
X708660Y863854D02*
Y865886D01*
X645414Y976630D02*
X647446D01*
X646430Y975614D02*
Y977646D01*
X672084Y969010D02*
X674116D01*
X673100Y967994D02*
Y970026D01*
X980694Y961390D02*
X982726D01*
X981710Y960374D02*
Y962406D01*
X1048004Y969010D02*
X1050036D01*
X1049020Y967994D02*
Y970026D01*
X1055624Y976630D02*
X1057656D01*
X1056640Y975614D02*
Y977646D01*
X1048004Y718820D02*
X1050036D01*
X1049020Y717804D02*
Y719836D01*
X237744Y1328420D02*
X239776D01*
X238760Y1327404D02*
Y1329436D01*
X227584Y1346200D02*
X229616D01*
X228600Y1345184D02*
Y1347216D01*
X874014Y684530D02*
X876046D01*
X875030Y683514D02*
Y685546D01*
X874014Y709930D02*
X876046D01*
X875030Y708914D02*
Y710946D01*
X874014Y697230D02*
X876046D01*
X875030Y696214D02*
Y698246D01*
X874014Y722630D02*
X876046D01*
X875030Y721614D02*
Y723646D01*
X861314Y684530D02*
X863346D01*
X862330Y683514D02*
Y685546D01*
X861314Y709930D02*
X863346D01*
X862330Y708914D02*
Y710946D01*
X861314Y697230D02*
X863346D01*
X862330Y696214D02*
Y698246D01*
X861314Y722630D02*
X863346D01*
X862330Y721614D02*
Y723646D01*
X848614Y684530D02*
X850646D01*
X849630Y683514D02*
Y685546D01*
X848614Y709930D02*
X850646D01*
X849630Y708914D02*
Y710946D01*
X848614Y697230D02*
X850646D01*
X849630Y696214D02*
Y698246D01*
X848614Y722630D02*
X850646D01*
X849630Y721614D02*
Y723646D01*
X835914Y684530D02*
X837946D01*
X836930Y683514D02*
Y685546D01*
X835914Y709930D02*
X837946D01*
X836930Y708914D02*
Y710946D01*
X835914Y697230D02*
X837946D01*
X836930Y696214D02*
Y698246D01*
X835914Y722630D02*
X837946D01*
X836930Y721614D02*
Y723646D01*
X867664Y728980D02*
X869696D01*
X868680Y727964D02*
Y729996D01*
X867664Y678180D02*
X869696D01*
X868680Y677164D02*
Y679196D01*
X867664Y703580D02*
X869696D01*
X868680Y702564D02*
Y704596D01*
X867664Y690880D02*
X869696D01*
X868680Y689864D02*
Y691896D01*
X867664Y716280D02*
X869696D01*
X868680Y715264D02*
Y717296D01*
X842264Y728980D02*
X844296D01*
X843280Y727964D02*
Y729996D01*
X842264Y678180D02*
X844296D01*
X843280Y677164D02*
Y679196D01*
X842264Y703580D02*
X844296D01*
X843280Y702564D02*
Y704596D01*
X842264Y690880D02*
X844296D01*
X843280Y689864D02*
Y691896D01*
X842264Y716280D02*
X844296D01*
X843280Y715264D02*
Y717296D01*
X854964Y728980D02*
X856996D01*
X855980Y727964D02*
Y729996D01*
X854964Y678180D02*
X856996D01*
X855980Y677164D02*
Y679196D01*
X854964Y703580D02*
X856996D01*
X855980Y702564D02*
Y704596D01*
X854964Y690880D02*
X856996D01*
X855980Y689864D02*
Y691896D01*
X854964Y716280D02*
X856996D01*
X855980Y715264D02*
Y717296D01*
X880364Y728980D02*
X882396D01*
X881380Y727964D02*
Y729996D01*
X880364Y678180D02*
X882396D01*
X881380Y677164D02*
Y679196D01*
X880364Y703580D02*
X882396D01*
X881380Y702564D02*
Y704596D01*
X880364Y690880D02*
X882396D01*
X881380Y689864D02*
Y691896D01*
X880364Y716280D02*
X882396D01*
X881380Y715264D02*
Y717296D01*
X829564Y716280D02*
X831596D01*
X830580Y715264D02*
Y717296D01*
X829564Y690880D02*
X831596D01*
X830580Y689864D02*
Y691896D01*
X829564Y703580D02*
X831596D01*
X830580Y702564D02*
Y704596D01*
X829564Y678180D02*
X831596D01*
X830580Y677164D02*
Y679196D01*
X829564Y728980D02*
X831596D01*
X830580Y727964D02*
Y729996D01*
X877824Y765810D02*
X879856D01*
X878840Y764794D02*
Y766826D01*
X827024Y1096010D02*
X829056D01*
X828040Y1094994D02*
Y1097026D01*
X811784Y1104900D02*
X813816D01*
X812800Y1103884D02*
Y1105916D01*
X811784Y1087120D02*
X813816D01*
X812800Y1086104D02*
Y1088136D01*
X946404Y961390D02*
X948436D01*
X947420Y960374D02*
Y962406D01*
X565404Y1299210D02*
X567436D01*
X566420Y1298194D02*
Y1300226D01*
X559054Y1306830D02*
X561086D01*
X560070Y1305814D02*
Y1307846D01*
X937514Y961390D02*
X939546D01*
X938530Y960374D02*
Y962406D01*
X955358Y750724D02*
X957390D01*
X956374Y749708D02*
Y751740D01*
X955294Y741680D02*
X957326D01*
X956310Y740664D02*
Y742696D01*
X948944Y735330D02*
X950976D01*
X949960Y734314D02*
Y736346D01*
X948944Y756920D02*
X950976D01*
X949960Y755904D02*
Y757936D01*
X925784Y726690D02*
X927816D01*
X926800Y725674D02*
Y727706D01*
X917194Y720090D02*
X919226D01*
X918210Y719074D02*
Y721106D01*
X955294Y961390D02*
X957326D01*
X956310Y960374D02*
Y962406D01*
X989629Y961345D02*
X991661D01*
X990645Y960329D02*
Y962361D01*
X998519Y961345D02*
X1000551D01*
X999535Y960329D02*
Y962361D01*
X697484Y864870D02*
X699516D01*
X698500Y863854D02*
Y865886D01*
X378714Y1285240D02*
X380746D01*
X379730Y1284224D02*
Y1286256D01*
X395224Y1316990D02*
X397256D01*
X396240Y1315974D02*
Y1318006D01*
X387604Y1300480D02*
X389636D01*
X388620Y1299464D02*
Y1301496D01*
X811784Y759460D02*
X813816D01*
X812800Y758444D02*
Y760476D01*
X919984Y700790D02*
X922016D01*
X921000Y699774D02*
Y701806D01*
X583184Y1276350D02*
X585216D01*
X584200Y1275334D02*
Y1277366D01*
X726694Y820420D02*
X728726D01*
X727710Y819404D02*
Y821436D01*
X1558290Y1294130D02*
X1560830D01*
X1559560Y1292860D02*
Y1295400D01*
X1452880Y1080770D02*
X1455420D01*
X1454150Y1079500D02*
Y1082040D01*
X898144Y1211580D02*
X900176D01*
X899160Y1210564D02*
Y1212596D01*
X1069594Y1211580D02*
X1071626D01*
X1070610Y1210564D02*
Y1212596D01*
X838298Y1003202D02*
X840838D01*
X839568Y1001932D02*
Y1004472D01*
X795274Y1276350D02*
X797306D01*
X796290Y1275334D02*
Y1277366D01*
X725424Y1276350D02*
X727456D01*
X726440Y1275334D02*
Y1277366D01*
X884174Y772160D02*
X886206D01*
X885190Y771144D02*
Y773176D01*
X865632Y765810D02*
X867664D01*
X866648Y764794D02*
Y766826D01*
X859790Y759722D02*
X861822D01*
X860806Y758706D02*
Y760738D01*
X750824Y1306830D02*
X752856D01*
X751840Y1305814D02*
Y1307846D01*
X774954Y1299210D02*
X776986D01*
X775970Y1298194D02*
Y1300226D01*
X674370Y1259840D02*
X676910D01*
X675640Y1258570D02*
Y1261110D01*
X819404Y618236D02*
X821436D01*
X820420Y617220D02*
Y619252D01*
X810514Y618236D02*
X812546D01*
X811530Y617220D02*
Y619252D01*
X777240Y618490D02*
X779780D01*
X778510Y617220D02*
Y619760D01*
X828298Y644473D02*
X830330D01*
X829314Y643457D02*
Y645489D01*
X908304Y711708D02*
X910336D01*
X909320Y710692D02*
Y712724D01*
X923290Y690880D02*
X925830D01*
X924560Y689610D02*
Y692150D01*
X871474Y772160D02*
X873506D01*
X872490Y771144D02*
Y773176D01*
X835929Y773430D02*
X838469D01*
X837199Y772160D02*
Y774700D01*
X1624584Y1098550D02*
X1626616D01*
X1625600Y1097534D02*
Y1099566D01*
X1599184Y1098550D02*
X1601216D01*
X1600200Y1097534D02*
Y1099566D01*
X1573784Y1098550D02*
X1575816D01*
X1574800Y1097534D02*
Y1099566D01*
X795274Y723900D02*
X797306D01*
X796290Y722884D02*
Y724916D01*
X878840Y933450D02*
X881380D01*
X880110Y932180D02*
Y934720D01*
X198374Y1367790D02*
X200406D01*
X199390Y1366774D02*
Y1368806D01*
X226314Y1367790D02*
X228346D01*
X227330Y1366774D02*
Y1368806D01*
X304800Y1400810D02*
X307340D01*
X306070Y1399540D02*
Y1402080D01*
X283464Y1376680D02*
X285496D01*
X284480Y1375664D02*
Y1377696D01*
X247650Y1397000D02*
X250190D01*
X248920Y1395730D02*
Y1398270D01*
M02*
