G04*
G04 #@! TF.GenerationSoftware,Altium Limited,Altium Designer,23.2.1 (34)*
G04*
G04 Layer_Color=65535*
%FSLAX44Y44*%
%MOMM*%
G71*
G04*
G04 #@! TF.SameCoordinates,EBB66B4E-3AAD-41E4-A5C9-C65D96049EEA*
G04*
G04*
G04 #@! TF.FilePolarity,Positive*
G04*
G01*
G75*
%ADD10C,0.2000*%
%ADD11C,0.2500*%
%ADD12C,0.1270*%
%ADD13C,0.7620*%
%ADD14C,0.2540*%
D10*
X157060Y285750D02*
G03*
X157060Y285750I-1000J0D01*
G01*
X523590Y826950D02*
G03*
X523590Y826950I-1000J0D01*
G01*
X511590Y960630D02*
G03*
X511590Y960630I-1000J0D01*
G01*
X572880Y891890D02*
Y903890D01*
X553610Y914750D02*
Y926750D01*
X251000Y672690D02*
X256000D01*
Y667690D02*
Y672690D01*
X241000Y462690D02*
X256000D01*
Y480190D01*
X226910Y288950D02*
Y323250D01*
X161710Y288950D02*
Y323250D01*
X222600Y699660D02*
X234600D01*
X199740Y699880D02*
X211740D01*
X105760Y240140D02*
X117760D01*
X129890Y195690D02*
X141890D01*
X81630Y284590D02*
X93630D01*
X547370Y842360D02*
Y854360D01*
X504540Y892700D02*
X516540D01*
X479140D02*
X491140D01*
X246730Y240140D02*
X258730D01*
X246730Y195470D02*
X258730D01*
X297530Y919370D02*
X309530D01*
X446480Y343060D02*
X493480D01*
X446480Y236060D02*
X493480D01*
Y343060D01*
X446480Y236060D02*
Y343060D01*
X451480Y236060D02*
Y343060D01*
X581660Y208280D02*
Y218440D01*
Y71120D02*
Y81280D01*
X556260Y182880D02*
X607060D01*
X556260Y208280D02*
X607060D01*
Y81280D02*
Y208280D01*
X556260Y81280D02*
X607060D01*
X556260D02*
Y208280D01*
X446480Y188120D02*
X493480D01*
X446480Y81120D02*
X493480D01*
Y188120D01*
X446480Y81120D02*
Y188120D01*
X451480Y81120D02*
Y188120D01*
X245930Y968060D02*
X361930D01*
X245930D02*
Y1008060D01*
X361930D01*
Y968060D02*
Y1008060D01*
X213470Y758540D02*
Y770540D01*
Y822040D02*
Y834040D01*
X213250Y885540D02*
Y897540D01*
D11*
X488230Y242560D02*
G03*
X488230Y242560I-1250J0D01*
G01*
Y87620D02*
G03*
X488230Y87620I-1250J0D01*
G01*
X330180Y961560D02*
G03*
X330180Y961560I-1250J0D01*
G01*
D12*
X60570Y766340D02*
G03*
X60570Y737340I0J-14500D01*
G01*
Y829840D02*
G03*
X60570Y800840I0J-14500D01*
G01*
Y893340D02*
G03*
X60570Y864340I0J-14500D01*
G01*
X153670Y120650D02*
X234950D01*
X153670Y176530D02*
X234950D01*
Y120650D02*
Y176530D01*
X153670Y120650D02*
Y176530D01*
X627810Y541602D02*
Y544038D01*
Y566602D02*
Y569038D01*
Y591602D02*
Y594038D01*
Y616602D02*
Y619038D01*
Y641602D02*
Y643620D01*
Y667020D02*
Y672520D01*
X759710D01*
Y513120D02*
Y672520D01*
X627810Y513120D02*
X759710D01*
X627810D02*
Y519038D01*
X630910Y675060D02*
X637260Y690300D01*
X624560D02*
X637260D01*
X624560D02*
X630910Y675060D01*
X482840Y853900D02*
X512840D01*
X482840Y822500D02*
X512840D01*
X71570Y729840D02*
Y773840D01*
X60570Y737340D02*
X71570D01*
X60570Y766340D02*
X71570D01*
Y793340D02*
Y837340D01*
X60570Y800840D02*
X71570D01*
X60570Y829840D02*
X71570D01*
Y856840D02*
Y900840D01*
X60570Y864340D02*
X71570D01*
X60570Y893340D02*
X71570D01*
X624560Y915090D02*
X630910Y899850D01*
X624560Y915090D02*
X637260D01*
X630910Y899850D02*
X637260Y915090D01*
X627810Y737910D02*
Y743828D01*
Y737910D02*
X759710D01*
Y897310D01*
X627810D02*
X759710D01*
X627810Y891810D02*
Y897310D01*
Y866392D02*
Y868410D01*
Y841392D02*
Y843828D01*
Y816392D02*
Y818828D01*
Y791392D02*
Y793828D01*
Y766392D02*
Y768828D01*
D13*
X685800Y424180D02*
G03*
X685800Y424180I-2540J0D01*
G01*
Y311150D02*
G03*
X685800Y311150I-2540J0D01*
G01*
Y197612D02*
G03*
X685800Y197612I-2540J0D01*
G01*
D14*
X671322Y435610D02*
X761238D01*
X671322Y335788D02*
X761238D01*
X671322D02*
Y435610D01*
Y322580D02*
X761238D01*
X671322Y222758D02*
X761238D01*
X671322D02*
Y322580D01*
Y209042D02*
X761238D01*
X671322Y109220D02*
X761238D01*
X671322D02*
Y209042D01*
X191771Y182882D02*
X196849D01*
X194310D01*
Y198118D01*
X191771Y195578D01*
X214632D02*
X217171Y198118D01*
X222249D01*
X224788Y195578D01*
Y185422D01*
X222249Y182882D01*
X217171D01*
X214632Y185422D01*
Y195578D01*
X198538Y70562D02*
X194306Y74794D01*
X185842D01*
X181610Y70562D01*
Y53634D01*
X185842Y49402D01*
X194306D01*
X198538Y53634D01*
Y62098D01*
X190074D01*
X207002Y49402D02*
Y66330D01*
X215466Y74794D01*
X223930Y66330D01*
Y49402D01*
Y62098D01*
X207002D01*
X232394Y49402D02*
Y74794D01*
X245089D01*
X249321Y70562D01*
Y62098D01*
X245089Y57866D01*
X232394D01*
X240858D02*
X249321Y49402D01*
X257785Y74794D02*
Y49402D01*
X270481D01*
X274713Y53634D01*
Y70562D01*
X270481Y74794D01*
X257785D01*
X300105D02*
X283177D01*
Y49402D01*
X300105D01*
X283177Y62098D02*
X291641D01*
X308569Y49402D02*
Y74794D01*
X325497Y49402D01*
Y74794D01*
X333961D02*
X342425D01*
X338193D01*
Y49402D01*
X333961D01*
X342425D01*
X355121D02*
Y74794D01*
X367817D01*
X372048Y70562D01*
Y62098D01*
X367817Y57866D01*
X355121D01*
X363585D02*
X372048Y49402D01*
X397440Y70562D02*
X393208Y74794D01*
X384744D01*
X380512Y70562D01*
Y66330D01*
X384744Y62098D01*
X393208D01*
X397440Y57866D01*
Y53634D01*
X393208Y49402D01*
X384744D01*
X380512Y53634D01*
X181610Y12836D02*
Y38228D01*
X190074Y29764D01*
X198538Y38228D01*
Y12836D01*
X207002Y38228D02*
X215466D01*
X211234D01*
Y12836D01*
X207002D01*
X215466D01*
X245089Y33996D02*
X240858Y38228D01*
X232394D01*
X228162Y33996D01*
Y17068D01*
X232394Y12836D01*
X240858D01*
X245089Y17068D01*
X253553Y12836D02*
Y38228D01*
X266249D01*
X270481Y33996D01*
Y25532D01*
X266249Y21300D01*
X253553D01*
X262017D02*
X270481Y12836D01*
X291641Y38228D02*
X283177D01*
X278945Y33996D01*
Y17068D01*
X283177Y12836D01*
X291641D01*
X295873Y17068D01*
Y33996D01*
X291641Y38228D01*
X321265Y33996D02*
X317033Y38228D01*
X308569D01*
X304337Y33996D01*
Y17068D01*
X308569Y12836D01*
X317033D01*
X321265Y17068D01*
X342425Y38228D02*
X333961D01*
X329729Y33996D01*
Y17068D01*
X333961Y12836D01*
X342425D01*
X346657Y17068D01*
Y33996D01*
X342425Y38228D01*
X355121Y12836D02*
Y38228D01*
X372048Y12836D01*
Y38228D01*
X380512D02*
X397440D01*
X388976D01*
Y12836D01*
X405904D02*
Y38228D01*
X418600D01*
X422832Y33996D01*
Y25532D01*
X418600Y21300D01*
X405904D01*
X414368D02*
X422832Y12836D01*
X443992Y38228D02*
X435528D01*
X431296Y33996D01*
Y17068D01*
X435528Y12836D01*
X443992D01*
X448224Y17068D01*
Y33996D01*
X443992Y38228D01*
X456688D02*
Y12836D01*
X473616D01*
X482080Y38228D02*
Y12836D01*
X499007D01*
X524399Y38228D02*
X507471D01*
Y12836D01*
X524399D01*
X507471Y25532D02*
X515935D01*
X532863Y12836D02*
Y38228D01*
X545559D01*
X549791Y33996D01*
Y25532D01*
X545559Y21300D01*
X532863D01*
X541327D02*
X549791Y12836D01*
X583647Y29764D02*
X592111Y12836D01*
X600575Y29764D01*
X625966Y12836D02*
X609039D01*
X625966Y29764D01*
Y33996D01*
X621734Y38228D01*
X613270D01*
X609039Y33996D01*
X634430Y12836D02*
Y17068D01*
X638662D01*
Y12836D01*
X634430D01*
X655590Y33996D02*
X659822Y38228D01*
X668286D01*
X672518Y33996D01*
Y17068D01*
X668286Y12836D01*
X659822D01*
X655590Y17068D01*
Y33996D01*
X173988Y182882D02*
X163832D01*
X173988Y193039D01*
Y195578D01*
X171449Y198118D01*
X166371D01*
X163832Y195578D01*
X242576Y312415D02*
X237497D01*
X240037D01*
Y299719D01*
X237497Y297180D01*
X234958D01*
X232419Y299719D01*
X247654Y312415D02*
X257811D01*
X252733D01*
Y297180D01*
X262889D02*
Y307337D01*
X267967Y312415D01*
X273046Y307337D01*
Y297180D01*
Y304797D01*
X262889D01*
X288281Y309876D02*
X285742Y312415D01*
X280663D01*
X278124Y309876D01*
Y299719D01*
X280663Y297180D01*
X285742D01*
X288281Y299719D01*
Y304797D01*
X283203D01*
X322580Y723902D02*
Y734059D01*
X327658Y739137D01*
X332737Y734059D01*
Y723902D01*
Y731520D01*
X322580D01*
X337815Y739137D02*
Y723902D01*
X345433D01*
X347972Y726441D01*
Y736598D01*
X345433Y739137D01*
X337815D01*
X363207Y736598D02*
X360668Y739137D01*
X355589D01*
X353050Y736598D01*
Y726441D01*
X355589Y723902D01*
X360668D01*
X363207Y726441D01*
X368285Y721363D02*
X378442D01*
X383520Y723902D02*
Y739137D01*
X391138D01*
X393677Y736598D01*
Y731520D01*
X391138Y728980D01*
X383520D01*
X388599D02*
X393677Y723902D01*
X398755Y739137D02*
Y723902D01*
X406373D01*
X408912Y726441D01*
Y736598D01*
X406373Y739137D01*
X398755D01*
X413990D02*
Y736598D01*
X419069Y731520D01*
X424147Y736598D01*
Y739137D01*
X419069Y731520D02*
Y723902D01*
X322580Y382267D02*
Y367033D01*
X332737D01*
X337815D02*
Y377189D01*
X342893Y382267D01*
X347972Y377189D01*
Y367033D01*
Y374650D01*
X337815D01*
X353050Y367033D02*
Y382267D01*
X358129Y377189D01*
X363207Y382267D01*
Y367033D01*
X368285D02*
Y382267D01*
X375903D01*
X378442Y379728D01*
Y374650D01*
X375903Y372111D01*
X368285D01*
X322580Y407668D02*
Y397511D01*
X327658Y392433D01*
X332737Y397511D01*
Y407668D01*
X337815Y392433D02*
Y402589D01*
X342893Y407668D01*
X347972Y402589D01*
Y392433D01*
Y400050D01*
X337815D01*
X353050Y407668D02*
Y392433D01*
X363207D01*
X368285Y407668D02*
Y397511D01*
X373364Y392433D01*
X378442Y397511D01*
Y407668D01*
X393677D02*
X383520D01*
Y392433D01*
X393677D01*
X383520Y400050D02*
X388599D01*
X332737Y430528D02*
X330197Y433068D01*
X325119D01*
X322580Y430528D01*
Y427989D01*
X325119Y425450D01*
X330197D01*
X332737Y422911D01*
Y420372D01*
X330197Y417832D01*
X325119D01*
X322580Y420372D01*
X347972Y430528D02*
X345433Y433068D01*
X340354D01*
X337815Y430528D01*
Y420372D01*
X340354Y417832D01*
X345433D01*
X347972Y420372D01*
X353050Y433068D02*
Y417832D01*
X363207D01*
X332737Y455928D02*
X330197Y458467D01*
X325119D01*
X322580Y455928D01*
Y453389D01*
X325119Y450850D01*
X330197D01*
X332737Y448311D01*
Y445772D01*
X330197Y443232D01*
X325119D01*
X322580Y445772D01*
X337815Y458467D02*
Y443232D01*
X345433D01*
X347972Y445772D01*
Y455928D01*
X345433Y458467D01*
X337815D01*
X353050Y443232D02*
Y453389D01*
X358129Y458467D01*
X363207Y453389D01*
Y443232D01*
Y450850D01*
X353050D01*
X332737Y483867D02*
X322580D01*
Y476250D01*
X327658D01*
X322580D01*
Y468633D01*
X337815D02*
Y478789D01*
X342893Y483867D01*
X347972Y478789D01*
Y468633D01*
Y476250D01*
X337815D01*
X353050Y483867D02*
Y471172D01*
X355589Y468633D01*
X360668D01*
X363207Y471172D01*
Y483867D01*
X368285D02*
Y468633D01*
X378442D01*
X383520Y483867D02*
X393677D01*
X388599D01*
Y468633D01*
X332737Y506728D02*
X330197Y509268D01*
X325119D01*
X322580Y506728D01*
Y504189D01*
X325119Y501650D01*
X330197D01*
X332737Y499111D01*
Y496572D01*
X330197Y494033D01*
X325119D01*
X322580Y496572D01*
X337815Y509268D02*
Y494033D01*
X347972D01*
X363207Y509268D02*
X353050D01*
Y494033D01*
X363207D01*
X353050Y501650D02*
X358129D01*
X378442Y509268D02*
X368285D01*
Y494033D01*
X378442D01*
X368285Y501650D02*
X373364D01*
X383520Y494033D02*
Y509268D01*
X391138D01*
X393677Y506728D01*
Y501650D01*
X391138Y499111D01*
X383520D01*
X322580Y534668D02*
Y519432D01*
X330197D01*
X332737Y521972D01*
Y524511D01*
X330197Y527050D01*
X322580D01*
X330197D01*
X332737Y529589D01*
Y532128D01*
X330197Y534668D01*
X322580D01*
X337815D02*
X342893D01*
X340354D01*
Y519432D01*
X337815D01*
X342893D01*
X350511D02*
Y534668D01*
X360668Y519432D01*
Y534668D01*
X375903Y519432D02*
X365746D01*
X375903Y529589D01*
Y532128D01*
X373364Y534668D01*
X368285D01*
X365746Y532128D01*
X322580Y560067D02*
Y544832D01*
X330197D01*
X332737Y547372D01*
Y549911D01*
X330197Y552450D01*
X322580D01*
X330197D01*
X332737Y554989D01*
Y557528D01*
X330197Y560067D01*
X322580D01*
X337815D02*
X342893D01*
X340354D01*
Y544832D01*
X337815D01*
X342893D01*
X350511D02*
Y560067D01*
X360668Y544832D01*
Y560067D01*
X365746Y544832D02*
X370824D01*
X368285D01*
Y560067D01*
X365746Y557528D01*
X648975Y110490D02*
X664210D01*
X659132Y115568D01*
X664210Y120647D01*
X648975D01*
X654053Y128264D02*
Y133343D01*
X656592Y135882D01*
X664210D01*
Y128264D01*
X661671Y125725D01*
X659132Y128264D01*
Y135882D01*
X651514Y143499D02*
X654053D01*
Y140960D01*
Y146039D01*
Y143499D01*
X661671D01*
X664210Y146039D01*
Y161274D02*
Y156195D01*
X661671Y153656D01*
X656592D01*
X654053Y156195D01*
Y161274D01*
X656592Y163813D01*
X659132D01*
Y153656D01*
X654053Y168891D02*
X664210D01*
X659132D01*
X656592Y171430D01*
X654053Y173969D01*
Y176509D01*
X643897Y223520D02*
X659132D01*
Y233677D01*
X648975Y241294D02*
Y246373D01*
X651514Y248912D01*
X659132D01*
Y241294D01*
X656592Y238755D01*
X654053Y241294D01*
Y248912D01*
X659132Y253990D02*
X648975D01*
Y256529D01*
X651514Y259069D01*
X659132D01*
X651514D01*
X648975Y261608D01*
X651514Y264147D01*
X659132D01*
X664210Y269225D02*
X648975D01*
Y276843D01*
X651514Y279382D01*
X656592D01*
X659132Y276843D01*
Y269225D01*
X664210Y336550D02*
X648975D01*
Y344168D01*
X651514Y346707D01*
X656592D01*
X659132Y344168D01*
Y336550D01*
X664210Y354324D02*
Y359403D01*
X661671Y361942D01*
X656592D01*
X654053Y359403D01*
Y354324D01*
X656592Y351785D01*
X661671D01*
X664210Y354324D01*
X654053Y367020D02*
X661671D01*
X664210Y369559D01*
X661671Y372099D01*
X664210Y374638D01*
X661671Y377177D01*
X654053D01*
X664210Y389873D02*
Y384794D01*
X661671Y382255D01*
X656592D01*
X654053Y384794D01*
Y389873D01*
X656592Y392412D01*
X659132D01*
Y382255D01*
X654053Y397490D02*
X664210D01*
X659132D01*
X656592Y400029D01*
X654053Y402569D01*
Y405108D01*
X629920Y490225D02*
Y505460D01*
X637537D01*
X640077Y502921D01*
Y497842D01*
X637537Y495303D01*
X629920D01*
X647694Y490225D02*
X652773D01*
X655312Y492764D01*
Y497842D01*
X652773Y500382D01*
X647694D01*
X645155Y497842D01*
Y492764D01*
X647694Y490225D01*
X660390Y500382D02*
Y492764D01*
X662929Y490225D01*
X665469Y492764D01*
X668008Y490225D01*
X670547Y492764D01*
Y500382D01*
X683243Y490225D02*
X678164D01*
X675625Y492764D01*
Y497842D01*
X678164Y500382D01*
X683243D01*
X685782Y497842D01*
Y495303D01*
X675625D01*
X690860Y500382D02*
Y490225D01*
Y495303D01*
X693400Y497842D01*
X695939Y500382D01*
X698478D01*
X640077Y727711D02*
X637537Y730250D01*
X632459D01*
X629920Y727711D01*
Y725172D01*
X632459Y722633D01*
X637537D01*
X640077Y720093D01*
Y717554D01*
X637537Y715015D01*
X632459D01*
X629920Y717554D01*
X652773Y715015D02*
X647694D01*
X645155Y717554D01*
Y722633D01*
X647694Y725172D01*
X652773D01*
X655312Y722633D01*
Y720093D01*
X645155D01*
X660390Y715015D02*
Y725172D01*
X668008D01*
X670547Y722633D01*
Y715015D01*
X675625D02*
X683243D01*
X685782Y717554D01*
X683243Y720093D01*
X678164D01*
X675625Y722633D01*
X678164Y725172D01*
X685782D01*
X690860Y715015D02*
X695939D01*
X693400D01*
Y725172D01*
X690860D01*
X703556Y715015D02*
Y725172D01*
X711174D01*
X713713Y722633D01*
Y715015D01*
X723870Y709937D02*
X726409D01*
X728948Y712476D01*
Y725172D01*
X721330D01*
X718791Y722633D01*
Y717554D01*
X721330Y715015D01*
X728948D01*
X322580Y595633D02*
Y605789D01*
X327658Y610868D01*
X332737Y605789D01*
Y595633D01*
Y603250D01*
X322580D01*
X337815Y610868D02*
X342893D01*
X340354D01*
Y595633D01*
X337815D01*
X342893D01*
X350511D02*
Y610868D01*
X360668Y595633D01*
Y610868D01*
X365746Y595633D02*
X370824D01*
X368285D01*
Y610868D01*
X365746Y608328D01*
X322580Y570233D02*
Y580389D01*
X327658Y585467D01*
X332737Y580389D01*
Y570233D01*
Y577850D01*
X322580D01*
X337815Y585467D02*
X342893D01*
X340354D01*
Y570233D01*
X337815D01*
X342893D01*
X350511D02*
Y585467D01*
X360668Y570233D01*
Y585467D01*
X375903Y570233D02*
X365746D01*
X375903Y580389D01*
Y582928D01*
X373364Y585467D01*
X368285D01*
X365746Y582928D01*
X123190Y124460D02*
Y139695D01*
X130808D01*
X133347Y137156D01*
Y132078D01*
X130808Y129538D01*
X123190D01*
X148582Y139695D02*
X138425D01*
Y132078D01*
X143503Y134617D01*
X146043D01*
X148582Y132078D01*
Y126999D01*
X146043Y124460D01*
X140964D01*
X138425Y126999D01*
X184147Y218436D02*
X181607Y220975D01*
X176529D01*
X173990Y218436D01*
Y215897D01*
X176529Y213358D01*
X181607D01*
X184147Y210818D01*
Y208279D01*
X181607Y205740D01*
X176529D01*
X173990Y208279D01*
X196843Y220975D02*
X191764D01*
X189225Y218436D01*
Y208279D01*
X191764Y205740D01*
X196843D01*
X199382Y208279D01*
Y218436D01*
X196843Y220975D01*
X204460Y205740D02*
Y220975D01*
X212078D01*
X214617Y218436D01*
Y213358D01*
X212078Y210818D01*
X204460D01*
X81280Y759455D02*
Y756916D01*
X86358Y751837D01*
X91437Y756916D01*
Y759455D01*
X86358Y751837D02*
Y744220D01*
X81280Y871220D02*
Y886455D01*
X88897D01*
X91437Y883916D01*
Y878838D01*
X88897Y876298D01*
X81280D01*
X86358D02*
X91437Y871220D01*
Y820416D02*
X88897Y822955D01*
X83819D01*
X81280Y820416D01*
Y810259D01*
X83819Y807720D01*
X88897D01*
X91437Y810259D01*
Y815338D01*
X86358D01*
X497844Y814068D02*
Y801372D01*
X500383Y798832D01*
X505462D01*
X508001Y801372D01*
Y814068D01*
X523236Y798832D02*
X513079D01*
X523236Y808989D01*
Y811528D01*
X520697Y814068D01*
X515618D01*
X513079Y811528D01*
X256543Y454748D02*
Y442052D01*
X259083Y439512D01*
X264161D01*
X266700Y442052D01*
Y454748D01*
X271778Y439512D02*
X276857D01*
X274318D01*
Y454748D01*
X271778Y452208D01*
X322580Y781050D02*
X332737D01*
X327658Y786128D02*
Y775972D01*
X337815Y786128D02*
X340354Y788668D01*
X345433D01*
X347972Y786128D01*
Y783589D01*
X345433Y781050D01*
X342893D01*
X345433D01*
X347972Y778511D01*
Y775972D01*
X345433Y773432D01*
X340354D01*
X337815Y775972D01*
X353050Y788668D02*
Y778511D01*
X358129Y773432D01*
X363207Y778511D01*
Y788668D01*
X368285Y786128D02*
X370824Y788668D01*
X375903D01*
X378442Y786128D01*
Y783589D01*
X375903Y781050D01*
X373364D01*
X375903D01*
X378442Y778511D01*
Y775972D01*
X375903Y773432D01*
X370824D01*
X368285Y775972D01*
X332737Y760728D02*
X330197Y763268D01*
X325119D01*
X322580Y760728D01*
Y750572D01*
X325119Y748033D01*
X330197D01*
X332737Y750572D01*
Y755650D01*
X327658D01*
X337815Y748033D02*
Y763268D01*
X347972Y748033D01*
Y763268D01*
X353050D02*
Y748033D01*
X360668D01*
X363207Y750572D01*
Y760728D01*
X360668Y763268D01*
X353050D01*
X218442Y401320D02*
Y411477D01*
Y406398D01*
X233678D01*
X218442Y416555D02*
X233678D01*
Y424173D01*
X231138Y426712D01*
X220982D01*
X218442Y424173D01*
Y416555D01*
Y431790D02*
Y436869D01*
Y434329D01*
X233678D01*
Y431790D01*
Y436869D01*
X193042Y401320D02*
Y411477D01*
Y406398D01*
X208277D01*
X193042Y416555D02*
X208277D01*
Y424173D01*
X205738Y426712D01*
X195582D01*
X193042Y424173D01*
Y416555D01*
Y439408D02*
Y434329D01*
X195582Y431790D01*
X205738D01*
X208277Y434329D01*
Y439408D01*
X205738Y441947D01*
X195582D01*
X193042Y439408D01*
X167642Y401320D02*
Y411477D01*
Y406398D01*
X182878D01*
X170182Y426712D02*
X167642Y424173D01*
Y419094D01*
X170182Y416555D01*
X180338D01*
X182878Y419094D01*
Y424173D01*
X180338Y426712D01*
X167642Y431790D02*
X182878D01*
X177799D01*
X167642Y441947D01*
X175260Y434329D01*
X182878Y441947D01*
X142242Y401320D02*
Y411477D01*
Y406398D01*
X157478D01*
Y416555D02*
X142242D01*
X147321Y421633D01*
X142242Y426712D01*
X157478D01*
X144782Y441947D02*
X142242Y439408D01*
Y434329D01*
X144782Y431790D01*
X147321D01*
X149860Y434329D01*
Y439408D01*
X152399Y441947D01*
X154938D01*
X157478Y439408D01*
Y434329D01*
X154938Y431790D01*
X322580Y800102D02*
Y815338D01*
X330197D01*
X332737Y812798D01*
Y807720D01*
X330197Y805181D01*
X322580D01*
X327658D02*
X332737Y800102D01*
X337815Y815338D02*
X347972Y800102D01*
Y815338D02*
X337815Y800102D01*
X322580Y839467D02*
X332737D01*
X327658D01*
Y824232D01*
X337815Y839467D02*
X347972Y824232D01*
Y839467D02*
X337815Y824232D01*
X322580Y849632D02*
Y864867D01*
X330197D01*
X332737Y862328D01*
Y857250D01*
X330197Y854711D01*
X322580D01*
X327658D02*
X332737Y849632D01*
X347972Y862328D02*
X345433Y864867D01*
X340354D01*
X337815Y862328D01*
Y859789D01*
X340354Y857250D01*
X345433D01*
X347972Y854711D01*
Y852172D01*
X345433Y849632D01*
X340354D01*
X337815Y852172D01*
X353050Y864867D02*
X363207D01*
X358129D01*
Y849632D01*
X348783Y957578D02*
X346243Y960117D01*
X341165D01*
X338626Y957578D01*
Y955039D01*
X341165Y952500D01*
X346243D01*
X348783Y949961D01*
Y947422D01*
X346243Y944883D01*
X341165D01*
X338626Y947422D01*
X353861Y960117D02*
Y944883D01*
X358939Y949961D01*
X364018Y944883D01*
Y960117D01*
X369096Y944883D02*
X374174D01*
X371635D01*
Y960117D01*
X369096Y957578D01*
X568966Y840742D02*
Y855977D01*
X576584D01*
X579123Y853438D01*
Y848360D01*
X576584Y845821D01*
X568966D01*
X574044D02*
X579123Y840742D01*
X584201D02*
X589280D01*
X586740D01*
Y855977D01*
X584201Y853438D01*
X607054Y855977D02*
X601976Y853438D01*
X596897Y848360D01*
Y843282D01*
X599436Y840742D01*
X604515D01*
X607054Y843282D01*
Y845821D01*
X604515Y848360D01*
X596897D01*
X434346Y885192D02*
Y900427D01*
X441964D01*
X444503Y897888D01*
Y892810D01*
X441964Y890271D01*
X434346D01*
X439425D02*
X444503Y885192D01*
X449581D02*
X454660D01*
X452120D01*
Y900427D01*
X449581Y897888D01*
X472434Y900427D02*
X462277D01*
Y892810D01*
X467355Y895349D01*
X469895D01*
X472434Y892810D01*
Y887732D01*
X469895Y885192D01*
X464816D01*
X462277Y887732D01*
X494036Y914402D02*
Y929638D01*
X501654D01*
X504193Y927098D01*
Y922020D01*
X501654Y919481D01*
X494036D01*
X499114D02*
X504193Y914402D01*
X509271D02*
X514350D01*
X511810D01*
Y929638D01*
X509271Y927098D01*
X529585Y914402D02*
Y929638D01*
X521967Y922020D01*
X532124D01*
X582936Y919482D02*
Y934717D01*
X590554D01*
X593093Y932178D01*
Y927100D01*
X590554Y924561D01*
X582936D01*
X588014D02*
X593093Y919482D01*
X598171D02*
X603250D01*
X600710D01*
Y934717D01*
X598171Y932178D01*
X610867D02*
X613406Y934717D01*
X618485D01*
X621024Y932178D01*
Y929639D01*
X618485Y927100D01*
X615946D01*
X618485D01*
X621024Y924561D01*
Y922022D01*
X618485Y919482D01*
X613406D01*
X610867Y922022D01*
X534676Y934723D02*
Y949958D01*
X542294D01*
X544833Y947418D01*
Y942340D01*
X542294Y939801D01*
X534676D01*
X539754D02*
X544833Y934723D01*
X549911D02*
X554990D01*
X552450D01*
Y949958D01*
X549911Y947418D01*
X572764Y934723D02*
X562607D01*
X572764Y944879D01*
Y947418D01*
X570225Y949958D01*
X565146D01*
X562607Y947418D01*
X198120Y782066D02*
Y797301D01*
X205737D01*
X208277Y794762D01*
Y789684D01*
X205737Y787144D01*
X198120D01*
X203198D02*
X208277Y782066D01*
X213355D02*
X218433D01*
X215894D01*
Y797301D01*
X213355Y794762D01*
X226051Y782066D02*
X231129D01*
X228590D01*
Y797301D01*
X226051Y794762D01*
X198120Y845566D02*
Y860801D01*
X205737D01*
X208277Y858262D01*
Y853184D01*
X205737Y850644D01*
X198120D01*
X203198D02*
X208277Y845566D01*
X213355D02*
X218433D01*
X215894D01*
Y860801D01*
X213355Y858262D01*
X226051D02*
X228590Y860801D01*
X233668D01*
X236208Y858262D01*
Y848105D01*
X233668Y845566D01*
X228590D01*
X226051Y848105D01*
Y858262D01*
X197866Y909066D02*
Y924301D01*
X205483D01*
X208023Y921762D01*
Y916684D01*
X205483Y914144D01*
X197866D01*
X202944D02*
X208023Y909066D01*
X213101Y911605D02*
X215640Y909066D01*
X220719D01*
X223258Y911605D01*
Y921762D01*
X220719Y924301D01*
X215640D01*
X213101Y921762D01*
Y919223D01*
X215640Y916684D01*
X223258D01*
X267974Y238873D02*
Y254107D01*
X275592D01*
X278131Y251568D01*
Y246490D01*
X275592Y243951D01*
X267974D01*
X273052D02*
X278131Y238873D01*
X283209Y251568D02*
X285748Y254107D01*
X290827D01*
X293366Y251568D01*
Y249029D01*
X290827Y246490D01*
X293366Y243951D01*
Y241412D01*
X290827Y238873D01*
X285748D01*
X283209Y241412D01*
Y243951D01*
X285748Y246490D01*
X283209Y249029D01*
Y251568D01*
X285748Y246490D02*
X290827D01*
X267974Y181502D02*
Y196737D01*
X275592D01*
X278131Y194198D01*
Y189120D01*
X275592Y186581D01*
X267974D01*
X273053D02*
X278131Y181502D01*
X283209Y196737D02*
X293366D01*
Y194198D01*
X283209Y184042D01*
Y181502D01*
X96524Y187962D02*
Y203197D01*
X104142D01*
X106681Y200658D01*
Y195580D01*
X104142Y193041D01*
X96524D01*
X101602D02*
X106681Y187962D01*
X121916Y203197D02*
X116838Y200658D01*
X111759Y195580D01*
Y190502D01*
X114298Y187962D01*
X119377D01*
X121916Y190502D01*
Y193041D01*
X119377Y195580D01*
X111759D01*
X72394Y232412D02*
Y247647D01*
X80012D01*
X82551Y245108D01*
Y240030D01*
X80012Y237491D01*
X72394D01*
X77473D02*
X82551Y232412D01*
X97786Y247647D02*
X87629D01*
Y240030D01*
X92708Y242569D01*
X95247D01*
X97786Y240030D01*
Y234952D01*
X95247Y232412D01*
X90168D01*
X87629Y234952D01*
X48264Y277083D02*
Y292318D01*
X55882D01*
X58421Y289778D01*
Y284700D01*
X55882Y282161D01*
X48264D01*
X53342D02*
X58421Y277083D01*
X71117D02*
Y292318D01*
X63499Y284700D01*
X73656D01*
X242574Y692152D02*
Y707387D01*
X250192D01*
X252731Y704848D01*
Y699770D01*
X250192Y697231D01*
X242574D01*
X247652D02*
X252731Y692152D01*
X257809Y704848D02*
X260348Y707387D01*
X265427D01*
X267966Y704848D01*
Y702309D01*
X265427Y699770D01*
X262887D01*
X265427D01*
X267966Y697231D01*
Y694692D01*
X265427Y692152D01*
X260348D01*
X257809Y694692D01*
X165104Y692152D02*
Y707387D01*
X172722D01*
X175261Y704848D01*
Y699770D01*
X172722Y697231D01*
X165104D01*
X170182D02*
X175261Y692152D01*
X190496D02*
X180339D01*
X190496Y702309D01*
Y704848D01*
X187957Y707387D01*
X182878D01*
X180339Y704848D01*
X269243Y919482D02*
Y934717D01*
X276861D01*
X279400Y932178D01*
Y927100D01*
X276861Y924561D01*
X269243D01*
X274322D02*
X279400Y919482D01*
X284478D02*
X289557D01*
X287018D01*
Y934717D01*
X284478Y932178D01*
X511811Y240032D02*
Y250188D01*
X509272Y252728D01*
X504193D01*
X501654Y250188D01*
Y240032D01*
X504193Y237493D01*
X509272D01*
X506732Y242571D02*
X511811Y237493D01*
X509272D02*
X511811Y240032D01*
X527046Y237493D02*
X516889D01*
X527046Y247649D01*
Y250188D01*
X524507Y252728D01*
X519428D01*
X516889Y250188D01*
X511810Y85092D02*
Y95248D01*
X509271Y97788D01*
X504193D01*
X501653Y95248D01*
Y85092D01*
X504193Y82552D01*
X509271D01*
X506732Y87631D02*
X511810Y82552D01*
X509271D02*
X511810Y85092D01*
X516888Y82552D02*
X521967D01*
X519428D01*
Y97788D01*
X516888Y95248D01*
X640084Y419103D02*
Y434338D01*
X647702D01*
X650241Y431798D01*
Y426720D01*
X647702Y424181D01*
X640084D01*
X655319Y431798D02*
X657858Y434338D01*
X662937D01*
X665476Y431798D01*
Y429259D01*
X662937Y426720D01*
X660397D01*
X662937D01*
X665476Y424181D01*
Y421642D01*
X662937Y419103D01*
X657858D01*
X655319Y421642D01*
X640084Y306073D02*
Y321307D01*
X647702D01*
X650241Y318768D01*
Y313690D01*
X647702Y311151D01*
X640084D01*
X665476Y306073D02*
X655319D01*
X665476Y316229D01*
Y318768D01*
X662937Y321307D01*
X657858D01*
X655319Y318768D01*
X645163Y193043D02*
Y208277D01*
X652781D01*
X655320Y205738D01*
Y200660D01*
X652781Y198121D01*
X645163D01*
X660398Y193043D02*
X665477D01*
X662938D01*
Y208277D01*
X660398Y205738D01*
X604521Y689607D02*
X599442D01*
X601982D01*
Y676912D01*
X599442Y674372D01*
X596903D01*
X594364Y676912D01*
X617217Y674372D02*
Y689607D01*
X609599Y681990D01*
X619756D01*
X140971Y279398D02*
X135892D01*
X138432D01*
Y266702D01*
X135892Y264163D01*
X133353D01*
X130814Y266702D01*
X146049Y276858D02*
X148588Y279398D01*
X153667D01*
X156206Y276858D01*
Y274319D01*
X153667Y271780D01*
X151128D01*
X153667D01*
X156206Y269241D01*
Y266702D01*
X153667Y264163D01*
X148588D01*
X146049Y266702D01*
X603251Y914398D02*
X598172D01*
X600712D01*
Y901702D01*
X598172Y899163D01*
X595633D01*
X593094Y901702D01*
X618486Y899163D02*
X608329D01*
X618486Y909319D01*
Y911858D01*
X615947Y914398D01*
X610868D01*
X608329Y911858D01*
X554990Y981708D02*
X549912D01*
X552451D01*
Y969012D01*
X549912Y966472D01*
X547373D01*
X544833Y969012D01*
X560068Y966472D02*
X565147D01*
X562608D01*
Y981708D01*
X560068Y979168D01*
X524514Y208277D02*
Y193043D01*
X532132D01*
X534671Y195582D01*
Y205738D01*
X532132Y208277D01*
X524514D01*
X547367Y193043D02*
Y208277D01*
X539749Y200660D01*
X549906D01*
X140974Y745488D02*
Y730253D01*
X148592D01*
X151131Y732792D01*
Y742948D01*
X148592Y745488D01*
X140974D01*
X156209Y742948D02*
X158748Y745488D01*
X163827D01*
X166366Y742948D01*
Y740409D01*
X163827Y737870D01*
X161287D01*
X163827D01*
X166366Y735331D01*
Y732792D01*
X163827Y730253D01*
X158748D01*
X156209Y732792D01*
X140974Y808988D02*
Y793753D01*
X148592D01*
X151131Y796292D01*
Y806448D01*
X148592Y808988D01*
X140974D01*
X166366Y793753D02*
X156209D01*
X166366Y803909D01*
Y806448D01*
X163827Y808988D01*
X158748D01*
X156209Y806448D01*
X140973Y872487D02*
Y857253D01*
X148591D01*
X151130Y859792D01*
Y869948D01*
X148591Y872487D01*
X140973D01*
X156208Y857253D02*
X161287D01*
X158748D01*
Y872487D01*
X156208Y869948D01*
X579122Y833118D02*
X576583Y835658D01*
X571505D01*
X568965Y833118D01*
Y822962D01*
X571505Y820423D01*
X576583D01*
X579122Y822962D01*
X584200Y820423D02*
X589279D01*
X586740D01*
Y835658D01*
X584200Y833118D01*
X596896Y820423D02*
X601975D01*
X599436D01*
Y835658D01*
X596896Y833118D01*
X439423Y789938D02*
X436884Y792477D01*
X431805D01*
X429266Y789938D01*
Y779782D01*
X431805Y777243D01*
X436884D01*
X439423Y779782D01*
X444501Y777243D02*
X449580D01*
X447040D01*
Y792477D01*
X444501Y789938D01*
X457197D02*
X459736Y792477D01*
X464815D01*
X467354Y789938D01*
Y779782D01*
X464815Y777243D01*
X459736D01*
X457197Y779782D01*
Y789938D01*
X544831D02*
X542292Y792477D01*
X537213D01*
X534674Y789938D01*
Y779782D01*
X537213Y777243D01*
X542292D01*
X544831Y779782D01*
X549909D02*
X552448Y777243D01*
X557527D01*
X560066Y779782D01*
Y789938D01*
X557527Y792477D01*
X552448D01*
X549909Y789938D01*
Y787399D01*
X552448Y784860D01*
X560066D01*
X411481Y867408D02*
X408942Y869948D01*
X403863D01*
X401324Y867408D01*
Y857252D01*
X403863Y854713D01*
X408942D01*
X411481Y857252D01*
X416559Y867408D02*
X419098Y869948D01*
X424177D01*
X426716Y867408D01*
Y864869D01*
X424177Y862330D01*
X426716Y859791D01*
Y857252D01*
X424177Y854713D01*
X419098D01*
X416559Y857252D01*
Y859791D01*
X419098Y862330D01*
X416559Y864869D01*
Y867408D01*
X419098Y862330D02*
X424177D01*
X579121Y873758D02*
X576582Y876298D01*
X571503D01*
X568964Y873758D01*
Y863602D01*
X571503Y861062D01*
X576582D01*
X579121Y863602D01*
X584199Y876298D02*
X594356D01*
Y873758D01*
X584199Y863602D01*
Y861062D01*
X410211Y845818D02*
X407672Y848357D01*
X402593D01*
X400054Y845818D01*
Y835662D01*
X402593Y833122D01*
X407672D01*
X410211Y835662D01*
X425446Y848357D02*
X420368Y845818D01*
X415289Y840740D01*
Y835662D01*
X417828Y833122D01*
X422907D01*
X425446Y835662D01*
Y838201D01*
X422907Y840740D01*
X415289D01*
X63501Y704848D02*
X60962Y707387D01*
X55883D01*
X53344Y704848D01*
Y694692D01*
X55883Y692152D01*
X60962D01*
X63501Y694692D01*
X78736Y707387D02*
X68579D01*
Y699770D01*
X73657Y702309D01*
X76197D01*
X78736Y699770D01*
Y694692D01*
X76197Y692152D01*
X71118D01*
X68579Y694692D01*
X138431Y704848D02*
X135892Y707387D01*
X130813D01*
X128274Y704848D01*
Y694692D01*
X130813Y692152D01*
X135892D01*
X138431Y694692D01*
X151127Y692152D02*
Y707387D01*
X143509Y699770D01*
X153666D01*
X585471Y515618D02*
X582932Y518158D01*
X577853D01*
X575314Y515618D01*
Y505462D01*
X577853Y502923D01*
X582932D01*
X585471Y505462D01*
X590549Y515618D02*
X593088Y518158D01*
X598167D01*
X600706Y515618D01*
Y513079D01*
X598167Y510540D01*
X595628D01*
X598167D01*
X600706Y508001D01*
Y505462D01*
X598167Y502923D01*
X593088D01*
X590549Y505462D01*
X551181Y515378D02*
X548642Y517918D01*
X543563D01*
X541024Y515378D01*
Y505222D01*
X543563Y502682D01*
X548642D01*
X551181Y505222D01*
X566416Y502682D02*
X556259D01*
X566416Y512839D01*
Y515378D01*
X563877Y517918D01*
X558798D01*
X556259Y515378D01*
X286780Y331468D02*
X284241Y334007D01*
X279163D01*
X276623Y331468D01*
Y321312D01*
X279163Y318773D01*
X284241D01*
X286780Y321312D01*
X291858Y318773D02*
X296937D01*
X294398D01*
Y334007D01*
X291858Y331468D01*
M02*
