G04*
G04 #@! TF.GenerationSoftware,Altium Limited,Altium Designer,23.2.1 (34)*
G04*
G04 Layer_Color=8388736*
%FSLAX44Y44*%
%MOMM*%
G71*
G04*
G04 #@! TF.SameCoordinates,66AF3463-A4ED-4445-B3F6-74E376143534*
G04*
G04*
G04 #@! TF.FilePolarity,Negative*
G04*
G01*
G75*
%ADD27R,1.3000X1.5000*%
%ADD28R,0.7984X0.7984*%
%ADD29R,0.7984X0.7984*%
%ADD30R,0.0188X0.0188*%
%ADD31R,2.0000X2.0000*%
%ADD32R,0.8400X2.8900*%
%ADD33R,1.5000X1.3000*%
%ADD34R,1.5000X1.2000*%
%ADD35R,1.2000X1.5000*%
%ADD36R,1.7000X2.6000*%
G04:AMPARAMS|DCode=37|XSize=0.94mm|YSize=0.35mm|CornerRadius=0.0813mm|HoleSize=0mm|Usage=FLASHONLY|Rotation=180.000|XOffset=0mm|YOffset=0mm|HoleType=Round|Shape=RoundedRectangle|*
%AMROUNDEDRECTD37*
21,1,0.9400,0.1875,0,0,180.0*
21,1,0.7775,0.3500,0,0,180.0*
1,1,0.1625,-0.3888,0.0938*
1,1,0.1625,0.3888,0.0938*
1,1,0.1625,0.3888,-0.0938*
1,1,0.1625,-0.3888,-0.0938*
%
%ADD37ROUNDEDRECTD37*%
%ADD38R,2.0000X2.0000*%
%ADD39R,1.7000X1.5000*%
%ADD40R,0.5000X1.4500*%
%ADD41C,0.5842*%
%ADD42C,1.7524*%
%ADD43C,1.8524*%
%ADD44R,1.8524X1.8524*%
%ADD45C,0.2794*%
%ADD46C,2.1320*%
%ADD47R,2.1320X2.1320*%
%ADD48O,1.0000X1.9000*%
%ADD49C,1.7000*%
%ADD50R,1.7000X1.7000*%
%ADD51C,1.7500*%
%ADD52C,1.7000*%
%ADD53R,2.6400X2.6400*%
%ADD54C,2.6400*%
%ADD55R,1.6000X1.6000*%
%ADD56C,1.6000*%
%ADD57C,5.1800*%
%ADD58C,0.7350*%
%ADD59C,1.1160*%
G36*
X201240Y532690D02*
X220240D01*
X220740Y532190D01*
Y522897D01*
X220593Y522544D01*
Y522543D01*
X210886Y512836D01*
X210886D01*
X210533Y512690D01*
X201240D01*
X200740Y513190D01*
Y532190D01*
X201240Y532690D01*
D02*
G37*
D27*
X563880Y897890D02*
D03*
X581880D02*
D03*
X544610Y920750D02*
D03*
X562610D02*
D03*
X538370Y848360D02*
D03*
X556370D02*
D03*
X222470Y764540D02*
D03*
X204470D02*
D03*
X222470Y828040D02*
D03*
X204470D02*
D03*
X222250Y891540D02*
D03*
X204250D02*
D03*
D28*
X246240Y472450D02*
D03*
Y485140D02*
D03*
Y497840D02*
D03*
Y510540D02*
D03*
Y523240D02*
D03*
Y535940D02*
D03*
Y548640D02*
D03*
Y561340D02*
D03*
Y574040D02*
D03*
Y586740D02*
D03*
Y599440D02*
D03*
Y612140D02*
D03*
Y624840D02*
D03*
Y637540D02*
D03*
Y650240D02*
D03*
Y662930D02*
D03*
X85240D02*
D03*
Y650240D02*
D03*
Y637540D02*
D03*
Y624840D02*
D03*
Y612140D02*
D03*
Y599440D02*
D03*
Y586740D02*
D03*
Y574040D02*
D03*
Y561340D02*
D03*
Y548640D02*
D03*
Y535940D02*
D03*
Y523240D02*
D03*
Y510540D02*
D03*
Y497840D02*
D03*
Y485140D02*
D03*
Y472450D02*
D03*
D29*
X229240Y662930D02*
D03*
X216540D02*
D03*
X203840D02*
D03*
X191140D02*
D03*
X178440D02*
D03*
X165740D02*
D03*
X153040D02*
D03*
X140340D02*
D03*
X127640D02*
D03*
X114940D02*
D03*
X102240D02*
D03*
Y472450D02*
D03*
X114940D02*
D03*
X127640D02*
D03*
X140340D02*
D03*
X153040D02*
D03*
X165740D02*
D03*
X178440D02*
D03*
X191140D02*
D03*
X203840D02*
D03*
X216540D02*
D03*
X229240D02*
D03*
D30*
X210740Y522690D02*
D03*
D31*
Y552690D02*
D03*
Y582690D02*
D03*
X180740Y522690D02*
D03*
Y552690D02*
D03*
Y582690D02*
D03*
X150740Y522690D02*
D03*
Y552690D02*
D03*
Y582690D02*
D03*
D32*
X219710Y326450D02*
D03*
Y285750D02*
D03*
X207010Y326450D02*
D03*
X194310D02*
D03*
Y285750D02*
D03*
X181610Y326450D02*
D03*
Y285750D02*
D03*
X168910Y326450D02*
D03*
Y285750D02*
D03*
D33*
X228600Y708660D02*
D03*
Y690660D02*
D03*
X205740Y708880D02*
D03*
Y690880D02*
D03*
X111760Y249140D02*
D03*
Y231140D02*
D03*
X135890Y204690D02*
D03*
Y186690D02*
D03*
X87630Y293590D02*
D03*
Y275590D02*
D03*
X510540Y901700D02*
D03*
Y883700D02*
D03*
X485140Y901700D02*
D03*
Y883700D02*
D03*
X252730Y249140D02*
D03*
Y231140D02*
D03*
Y186470D02*
D03*
Y204470D02*
D03*
X303530Y928370D02*
D03*
Y910370D02*
D03*
D34*
X588010Y529590D02*
D03*
Y544590D02*
D03*
X553720Y529470D02*
D03*
Y544470D02*
D03*
X114300Y692270D02*
D03*
Y707270D02*
D03*
X91440Y692150D02*
D03*
Y707150D02*
D03*
D35*
X539870Y868680D02*
D03*
X554870D02*
D03*
X455810Y861060D02*
D03*
X440810D02*
D03*
X455690Y840740D02*
D03*
X440690D02*
D03*
X539750Y828040D02*
D03*
X554750D02*
D03*
X455930Y806450D02*
D03*
X440930D02*
D03*
X539750D02*
D03*
X554750D02*
D03*
X248920Y326390D02*
D03*
X263920D02*
D03*
D36*
X497840Y838200D02*
D03*
D37*
X483490Y826950D02*
D03*
Y831450D02*
D03*
Y835950D02*
D03*
Y840450D02*
D03*
Y844950D02*
D03*
Y849450D02*
D03*
X512190D02*
D03*
Y844950D02*
D03*
Y840450D02*
D03*
Y835950D02*
D03*
Y831450D02*
D03*
Y826950D02*
D03*
D38*
X485590Y1001130D02*
D03*
X509590D02*
D03*
D39*
X465590Y976630D02*
D03*
X529590D02*
D03*
D40*
X484590Y974380D02*
D03*
X491090D02*
D03*
X497590D02*
D03*
X504090D02*
D03*
X510590D02*
D03*
D41*
X150740Y529190D02*
D03*
X144240Y522690D02*
D03*
X150740Y516190D02*
D03*
X157240Y522690D02*
D03*
X174240D02*
D03*
X180740Y516190D02*
D03*
X187240Y522690D02*
D03*
X180740Y529190D02*
D03*
X210740D02*
D03*
X204240Y522690D02*
D03*
X180990Y559190D02*
D03*
X174240Y552690D02*
D03*
X180740Y546190D02*
D03*
X187240Y552690D02*
D03*
X144240D02*
D03*
X150740Y546190D02*
D03*
X157240Y552690D02*
D03*
X150740Y559190D02*
D03*
Y589190D02*
D03*
X144240Y582690D02*
D03*
X150740Y576190D02*
D03*
X157240Y582690D02*
D03*
X174240D02*
D03*
X180740Y576190D02*
D03*
X187240Y582690D02*
D03*
X180740Y589190D02*
D03*
X210740D02*
D03*
X204240Y582690D02*
D03*
X217240D02*
D03*
X210740Y576190D02*
D03*
X210990Y559190D02*
D03*
X204240Y552690D02*
D03*
X217240D02*
D03*
X210740Y546190D02*
D03*
D42*
X727710Y530320D02*
D03*
Y655320D02*
D03*
Y880110D02*
D03*
Y755110D02*
D03*
D43*
X655910Y530320D02*
D03*
Y555320D02*
D03*
Y580320D02*
D03*
Y605320D02*
D03*
Y630320D02*
D03*
Y655320D02*
D03*
X630910Y530320D02*
D03*
Y555320D02*
D03*
Y580320D02*
D03*
Y605320D02*
D03*
Y630320D02*
D03*
Y855110D02*
D03*
Y830110D02*
D03*
Y805110D02*
D03*
Y780110D02*
D03*
Y755110D02*
D03*
X655910Y880110D02*
D03*
Y855110D02*
D03*
Y830110D02*
D03*
Y805110D02*
D03*
Y780110D02*
D03*
Y755110D02*
D03*
D44*
X630910Y655320D02*
D03*
Y880110D02*
D03*
D45*
X210740Y516190D02*
D03*
X217240Y522690D02*
D03*
D46*
X303530Y552450D02*
D03*
Y527050D02*
D03*
Y577850D02*
D03*
Y603250D02*
D03*
Y501650D02*
D03*
Y374650D02*
D03*
Y476250D02*
D03*
Y400050D02*
D03*
Y425450D02*
D03*
Y450850D02*
D03*
X226060Y382270D02*
D03*
X200660D02*
D03*
X175260D02*
D03*
X149860D02*
D03*
X303530Y730250D02*
D03*
Y755650D02*
D03*
Y781050D02*
D03*
Y806450D02*
D03*
Y831850D02*
D03*
Y857250D02*
D03*
X194310Y135890D02*
D03*
X219710D02*
D03*
Y161290D02*
D03*
X194310D02*
D03*
X168910D02*
D03*
D47*
Y135890D02*
D03*
D48*
X464590Y1001130D02*
D03*
X530590D02*
D03*
D49*
X474980Y314960D02*
D03*
Y289560D02*
D03*
Y160020D02*
D03*
Y134620D02*
D03*
D50*
Y264160D02*
D03*
Y109220D02*
D03*
D51*
X581660Y233680D02*
D03*
Y55880D02*
D03*
D52*
X115570Y739140D02*
D03*
Y764540D02*
D03*
Y802640D02*
D03*
Y828040D02*
D03*
Y866140D02*
D03*
Y891540D02*
D03*
D53*
X721360Y360680D02*
D03*
Y247650D02*
D03*
Y134112D02*
D03*
D54*
Y410718D02*
D03*
Y297688D02*
D03*
Y184150D02*
D03*
D55*
X328930Y988060D02*
D03*
D56*
X303930D02*
D03*
X278930D02*
D03*
D57*
X711200Y63500D02*
D03*
Y952500D02*
D03*
X139700D02*
D03*
Y63500D02*
D03*
D58*
X95250Y637540D02*
D03*
Y612140D02*
D03*
X172720Y845820D02*
D03*
X168910Y775970D02*
D03*
X234950Y646430D02*
D03*
Y635000D02*
D03*
Y623570D02*
D03*
X217805Y480060D02*
D03*
X172720Y483870D02*
D03*
X162560Y480060D02*
D03*
Y397510D02*
D03*
X125730Y344170D02*
D03*
X157480Y350520D02*
D03*
X232410Y676910D02*
D03*
X207010Y645160D02*
D03*
Y604520D02*
D03*
X170180D02*
D03*
X158750Y504190D02*
D03*
Y450850D02*
D03*
X87630Y457200D02*
D03*
X78740Y678180D02*
D03*
X581660Y497840D02*
D03*
X593090Y568960D02*
D03*
X575310Y608330D02*
D03*
X604520Y640080D02*
D03*
X575310Y659130D02*
D03*
X523240Y675640D02*
D03*
X590550Y765810D02*
D03*
X579120Y817880D02*
D03*
X549910Y882650D02*
D03*
X497840Y844550D02*
D03*
Y831850D02*
D03*
Y862330D02*
D03*
X481330Y718820D02*
D03*
X410210Y683260D02*
D03*
X347980Y727710D02*
D03*
X281305Y602686D02*
D03*
Y577850D02*
D03*
X579120Y637540D02*
D03*
X105410Y421640D02*
D03*
X114300D02*
D03*
X95250Y586740D02*
D03*
Y574040D02*
D03*
X130683Y487447D02*
D03*
X79375Y438150D02*
D03*
X219710Y351790D02*
D03*
X593090Y862330D02*
D03*
X525780Y821690D02*
D03*
X471170Y833120D02*
D03*
X471619Y822511D02*
D03*
X205740Y723900D02*
D03*
X217170Y675640D02*
D03*
X157480Y697230D02*
D03*
X160593Y688903D02*
D03*
X194310Y675640D02*
D03*
X178435Y682625D02*
D03*
X164465Y654050D02*
D03*
X257810Y568960D02*
D03*
X264160Y534670D02*
D03*
X259017Y514287D02*
D03*
X255093Y506044D02*
D03*
X279400Y541020D02*
D03*
X281305Y528840D02*
D03*
X355600Y688340D02*
D03*
X331470Y680720D02*
D03*
X186690Y492760D02*
D03*
X207010Y624840D02*
D03*
X626110Y734060D02*
D03*
X575310Y961390D02*
D03*
X617220Y951230D02*
D03*
X515620Y716280D02*
D03*
X574040Y736600D02*
D03*
X524510Y769620D02*
D03*
X482600Y796290D02*
D03*
X417830Y916940D02*
D03*
X378460Y814070D02*
D03*
X189230Y739140D02*
D03*
X138430Y444500D02*
D03*
X87630Y369570D02*
D03*
X251460Y284480D02*
D03*
X130810Y316230D02*
D03*
X162560Y237490D02*
D03*
X232410Y212090D02*
D03*
X471170Y210820D02*
D03*
X416560Y317500D02*
D03*
X445770Y407670D02*
D03*
X406400Y391160D02*
D03*
X449580Y481330D02*
D03*
X441960Y529590D02*
D03*
Y638810D02*
D03*
X374650Y478790D02*
D03*
X318770Y622300D02*
D03*
X374650Y680720D02*
D03*
Y641350D02*
D03*
X275590Y704850D02*
D03*
X304800D02*
D03*
X265430Y886460D02*
D03*
X246380Y798830D02*
D03*
X142240Y681990D02*
D03*
X113030Y676910D02*
D03*
X270510Y683260D02*
D03*
X600710Y706120D02*
D03*
X697230Y744220D02*
D03*
X706120Y770890D02*
D03*
X685800Y712470D02*
D03*
X675640Y703580D02*
D03*
X655320Y699770D02*
D03*
X633730D02*
D03*
X494030Y679450D02*
D03*
Y643890D02*
D03*
Y736600D02*
D03*
X455930Y709930D02*
D03*
X464820D02*
D03*
X547370Y736600D02*
D03*
X679450Y581660D02*
D03*
X340360Y351790D02*
D03*
X306070Y314960D02*
D03*
X143510Y341630D02*
D03*
X330200Y359410D02*
D03*
X387350Y685800D02*
D03*
X544195Y746125D02*
D03*
X678180Y880110D02*
D03*
X255270Y599440D02*
D03*
X229870Y480060D02*
D03*
X127000Y461010D02*
D03*
X185420Y675640D02*
D03*
X152400Y654050D02*
D03*
X139700D02*
D03*
X228600Y723900D02*
D03*
X566420Y623570D02*
D03*
X139700Y461010D02*
D03*
X510540Y869950D02*
D03*
X485140D02*
D03*
X236220Y612140D02*
D03*
X135890Y219710D02*
D03*
X111760Y264160D02*
D03*
X87630Y308610D02*
D03*
X219710Y264160D02*
D03*
X194310D02*
D03*
X181610D02*
D03*
X471170Y849630D02*
D03*
D59*
X614680Y706120D02*
D03*
X97360Y650819D02*
D03*
X91440Y678180D02*
D03*
X645160Y687070D02*
D03*
M02*
