G04*
G04 #@! TF.GenerationSoftware,Altium Limited,Altium Designer,23.2.1 (34)*
G04*
G04 Layer_Color=128*
%FSLAX44Y44*%
%MOMM*%
G71*
G04*
G04 #@! TF.SameCoordinates,66AF3463-A4ED-4445-B3F6-74E376143534*
G04*
G04*
G04 #@! TF.FilePolarity,Positive*
G04*
G01*
G75*
%ADD12C,0.1270*%
D12*
X149216Y529190D02*
X152264D01*
X150740Y527666D02*
Y530714D01*
X719710Y530320D02*
X735710D01*
X727710Y522320D02*
Y538320D01*
X719710Y655320D02*
X735710D01*
X727710Y647320D02*
Y663320D01*
X649910Y530320D02*
X661910D01*
X655910Y524320D02*
Y536320D01*
X649910Y555320D02*
X661910D01*
X655910Y549320D02*
Y561320D01*
X649910Y580320D02*
X661910D01*
X655910Y574320D02*
Y586320D01*
X649910Y605320D02*
X661910D01*
X655910Y599320D02*
Y611320D01*
X649910Y630320D02*
X661910D01*
X655910Y624320D02*
Y636320D01*
X649910Y655320D02*
X661910D01*
X655910Y649320D02*
Y661320D01*
X624910Y530320D02*
X636910D01*
X630910Y524320D02*
Y536320D01*
X624910Y555320D02*
X636910D01*
X630910Y549320D02*
Y561320D01*
X624910Y580320D02*
X636910D01*
X630910Y574320D02*
Y586320D01*
X624910Y605320D02*
X636910D01*
X630910Y599320D02*
Y611320D01*
X624910Y630320D02*
X636910D01*
X630910Y624320D02*
Y636320D01*
X624910Y655320D02*
X636910D01*
X630910Y649320D02*
Y661320D01*
X142716Y522690D02*
X145764D01*
X144240Y521166D02*
Y524214D01*
X149216Y516190D02*
X152264D01*
X150740Y514666D02*
Y517714D01*
X155716Y522690D02*
X158764D01*
X157240Y521166D02*
Y524214D01*
X172716Y522690D02*
X175764D01*
X174240Y521166D02*
Y524214D01*
X179216Y516190D02*
X182264D01*
X180740Y514666D02*
Y517714D01*
X185716Y522690D02*
X188764D01*
X187240Y521166D02*
Y524214D01*
X179216Y529190D02*
X182264D01*
X180740Y527666D02*
Y530714D01*
X209216Y529190D02*
X212264D01*
X210740Y527666D02*
Y530714D01*
X209216Y516190D02*
X212264D01*
X210740Y514666D02*
Y517714D01*
X215716Y522690D02*
X218764D01*
X217240Y521166D02*
Y524214D01*
X202716Y522690D02*
X205764D01*
X204240Y521166D02*
Y524214D01*
X179466Y559190D02*
X182514D01*
X180990Y557666D02*
Y560714D01*
X172716Y552690D02*
X175764D01*
X174240Y551166D02*
Y554214D01*
X179216Y546190D02*
X182264D01*
X180740Y544666D02*
Y547714D01*
X185716Y552690D02*
X188764D01*
X187240Y551166D02*
Y554214D01*
X142716Y552690D02*
X145764D01*
X144240Y551166D02*
Y554214D01*
X149216Y546190D02*
X152264D01*
X150740Y544666D02*
Y547714D01*
X155716Y552690D02*
X158764D01*
X157240Y551166D02*
Y554214D01*
X149216Y559190D02*
X152264D01*
X150740Y557666D02*
Y560714D01*
X149216Y589190D02*
X152264D01*
X150740Y587666D02*
Y590714D01*
X142716Y582690D02*
X145764D01*
X144240Y581166D02*
Y584214D01*
X149216Y576190D02*
X152264D01*
X150740Y574666D02*
Y577714D01*
X155716Y582690D02*
X158764D01*
X157240Y581166D02*
Y584214D01*
X172716Y582690D02*
X175764D01*
X174240Y581166D02*
Y584214D01*
X179216Y576190D02*
X182264D01*
X180740Y574666D02*
Y577714D01*
X185716Y582690D02*
X188764D01*
X187240Y581166D02*
Y584214D01*
X179216Y589190D02*
X182264D01*
X180740Y587666D02*
Y590714D01*
X209216Y589190D02*
X212264D01*
X210740Y587666D02*
Y590714D01*
X202716Y582690D02*
X205764D01*
X204240Y581166D02*
Y584214D01*
X215716Y582690D02*
X218764D01*
X217240Y581166D02*
Y584214D01*
X209216Y576190D02*
X212264D01*
X210740Y574666D02*
Y577714D01*
X209466Y559190D02*
X212514D01*
X210990Y557666D02*
Y560714D01*
X202716Y552690D02*
X205764D01*
X204240Y551166D02*
Y554214D01*
X215716Y552690D02*
X218764D01*
X217240Y551166D02*
Y554214D01*
X209216Y546190D02*
X212264D01*
X210740Y544666D02*
Y547714D01*
X298450Y552450D02*
X308610D01*
X303530Y547370D02*
Y557530D01*
X298450Y527050D02*
X308610D01*
X303530Y521970D02*
Y532130D01*
X298450Y577850D02*
X308610D01*
X303530Y572770D02*
Y582930D01*
X298450Y603250D02*
X308610D01*
X303530Y598170D02*
Y608330D01*
X298450Y501650D02*
X308610D01*
X303530Y496570D02*
Y506730D01*
X298450Y374650D02*
X308610D01*
X303530Y369570D02*
Y379730D01*
X298450Y476250D02*
X308610D01*
X303530Y471170D02*
Y481330D01*
X298450Y400050D02*
X308610D01*
X303530Y394970D02*
Y405130D01*
X298450Y425450D02*
X308610D01*
X303530Y420370D02*
Y430530D01*
X298450Y450850D02*
X308610D01*
X303530Y445770D02*
Y455930D01*
X220980Y382270D02*
X231140D01*
X226060Y377190D02*
Y387350D01*
X195580Y382270D02*
X205740D01*
X200660Y377190D02*
Y387350D01*
X170180Y382270D02*
X180340D01*
X175260Y377190D02*
Y387350D01*
X144780Y382270D02*
X154940D01*
X149860Y377190D02*
Y387350D01*
X298450Y730250D02*
X308610D01*
X303530Y725170D02*
Y735330D01*
X298450Y755650D02*
X308610D01*
X303530Y750570D02*
Y760730D01*
X298450Y781050D02*
X308610D01*
X303530Y775970D02*
Y786130D01*
X298450Y806450D02*
X308610D01*
X303530Y801370D02*
Y811530D01*
X298450Y831850D02*
X308610D01*
X303530Y826770D02*
Y836930D01*
X298450Y857250D02*
X308610D01*
X303530Y852170D02*
Y862330D01*
X163830Y135890D02*
X173990D01*
X168910Y130810D02*
Y140970D01*
X189230Y135890D02*
X199390D01*
X194310Y130810D02*
Y140970D01*
X214630Y135890D02*
X224790D01*
X219710Y130810D02*
Y140970D01*
X214630Y161290D02*
X224790D01*
X219710Y156210D02*
Y166370D01*
X189230Y161290D02*
X199390D01*
X194310Y156210D02*
Y166370D01*
X163830Y161290D02*
X173990D01*
X168910Y156210D02*
Y166370D01*
X462090Y1001130D02*
X467090D01*
X464590Y998630D02*
Y1003630D01*
X528090Y1001130D02*
X533090D01*
X530590Y998630D02*
Y1003630D01*
X469980Y314960D02*
X479980D01*
X474980Y309960D02*
Y319960D01*
X469980Y289560D02*
X479980D01*
X474980Y284560D02*
Y294560D01*
X469980Y264160D02*
X479980D01*
X474980Y259160D02*
Y269160D01*
X576660Y233680D02*
X586660D01*
X581660Y228680D02*
Y238680D01*
X576660Y55880D02*
X586660D01*
X581660Y50880D02*
Y60880D01*
X469980Y160020D02*
X479980D01*
X474980Y155020D02*
Y165020D01*
X469980Y134620D02*
X479980D01*
X474980Y129620D02*
Y139620D01*
X469980Y109220D02*
X479980D01*
X474980Y104220D02*
Y114220D01*
X111570Y739140D02*
X119570D01*
X115570Y735140D02*
Y743140D01*
X111570Y764540D02*
X119570D01*
X115570Y760540D02*
Y768540D01*
X111570Y802640D02*
X119570D01*
X115570Y798640D02*
Y806640D01*
X111570Y828040D02*
X119570D01*
X115570Y824040D02*
Y832040D01*
X111570Y866140D02*
X119570D01*
X115570Y862140D02*
Y870140D01*
X111570Y891540D02*
X119570D01*
X115570Y887540D02*
Y895540D01*
X624910Y880110D02*
X636910D01*
X630910Y874110D02*
Y886110D01*
X624910Y855110D02*
X636910D01*
X630910Y849110D02*
Y861110D01*
X624910Y830110D02*
X636910D01*
X630910Y824110D02*
Y836110D01*
X624910Y805110D02*
X636910D01*
X630910Y799110D02*
Y811110D01*
X624910Y780110D02*
X636910D01*
X630910Y774110D02*
Y786110D01*
X624910Y755110D02*
X636910D01*
X630910Y749110D02*
Y761110D01*
X649910Y880110D02*
X661910D01*
X655910Y874110D02*
Y886110D01*
X649910Y855110D02*
X661910D01*
X655910Y849110D02*
Y861110D01*
X649910Y830110D02*
X661910D01*
X655910Y824110D02*
Y836110D01*
X649910Y805110D02*
X661910D01*
X655910Y799110D02*
Y811110D01*
X649910Y780110D02*
X661910D01*
X655910Y774110D02*
Y786110D01*
X649910Y755110D02*
X661910D01*
X655910Y749110D02*
Y761110D01*
X719710Y880110D02*
X735710D01*
X727710Y872110D02*
Y888110D01*
X719710Y755110D02*
X735710D01*
X727710Y747110D02*
Y763110D01*
X715391Y360680D02*
X727329D01*
X721360Y354711D02*
Y366649D01*
X715391Y410718D02*
X727329D01*
X721360Y404749D02*
Y416687D01*
X715391Y247650D02*
X727329D01*
X721360Y241681D02*
Y253619D01*
X715391Y297688D02*
X727329D01*
X721360Y291719D02*
Y303657D01*
X715391Y134112D02*
X727329D01*
X721360Y128143D02*
Y140081D01*
X715391Y184150D02*
X727329D01*
X721360Y178181D02*
Y190119D01*
X323930Y988060D02*
X333930D01*
X328930Y983060D02*
Y993060D01*
X298930Y988060D02*
X308930D01*
X303930Y983060D02*
Y993060D01*
X273930Y988060D02*
X283930D01*
X278930Y983060D02*
Y993060D01*
X693420Y63500D02*
X728980D01*
X711200Y45720D02*
Y81280D01*
X693420Y952500D02*
X728980D01*
X711200Y934720D02*
Y970280D01*
X121920Y952500D02*
X157480D01*
X139700Y934720D02*
Y970280D01*
X121920Y63500D02*
X157480D01*
X139700Y45720D02*
Y81280D01*
X93726Y637540D02*
X96774D01*
X95250Y636016D02*
Y639064D01*
X93726Y612140D02*
X96774D01*
X95250Y610616D02*
Y613664D01*
X171196Y845820D02*
X174244D01*
X172720Y844296D02*
Y847344D01*
X167386Y775970D02*
X170434D01*
X168910Y774446D02*
Y777494D01*
X233426Y646430D02*
X236474D01*
X234950Y644906D02*
Y647954D01*
X233426Y635000D02*
X236474D01*
X234950Y633476D02*
Y636524D01*
X233426Y623570D02*
X236474D01*
X234950Y622046D02*
Y625094D01*
X216281Y480060D02*
X219329D01*
X217805Y478536D02*
Y481584D01*
X171196Y483870D02*
X174244D01*
X172720Y482346D02*
Y485394D01*
X161036Y480060D02*
X164084D01*
X162560Y478536D02*
Y481584D01*
X161036Y397510D02*
X164084D01*
X162560Y395986D02*
Y399034D01*
X124206Y344170D02*
X127254D01*
X125730Y342646D02*
Y345694D01*
X155956Y350520D02*
X159004D01*
X157480Y348996D02*
Y352044D01*
X230886Y676910D02*
X233934D01*
X232410Y675386D02*
Y678434D01*
X205486Y645160D02*
X208534D01*
X207010Y643636D02*
Y646684D01*
X205486Y604520D02*
X208534D01*
X207010Y602996D02*
Y606044D01*
X168656Y604520D02*
X171704D01*
X170180Y602996D02*
Y606044D01*
X157226Y504190D02*
X160274D01*
X158750Y502666D02*
Y505714D01*
X157226Y450850D02*
X160274D01*
X158750Y449326D02*
Y452374D01*
X86106Y457200D02*
X89154D01*
X87630Y455676D02*
Y458724D01*
X77216Y678180D02*
X80264D01*
X78740Y676656D02*
Y679704D01*
X580136Y497840D02*
X583184D01*
X581660Y496316D02*
Y499364D01*
X591566Y568960D02*
X594614D01*
X593090Y567436D02*
Y570484D01*
X573786Y608330D02*
X576834D01*
X575310Y606806D02*
Y609854D01*
X602996Y640080D02*
X606044D01*
X604520Y638556D02*
Y641604D01*
X573786Y659130D02*
X576834D01*
X575310Y657606D02*
Y660654D01*
X521716Y675640D02*
X524764D01*
X523240Y674116D02*
Y677164D01*
X589026Y765810D02*
X592074D01*
X590550Y764286D02*
Y767334D01*
X577596Y817880D02*
X580644D01*
X579120Y816356D02*
Y819404D01*
X548386Y882650D02*
X551434D01*
X549910Y881126D02*
Y884174D01*
X496316Y844550D02*
X499364D01*
X497840Y843026D02*
Y846074D01*
X496316Y831850D02*
X499364D01*
X497840Y830326D02*
Y833374D01*
X496316Y862330D02*
X499364D01*
X497840Y860806D02*
Y863854D01*
X479806Y718820D02*
X482854D01*
X481330Y717296D02*
Y720344D01*
X408686Y683260D02*
X411734D01*
X410210Y681736D02*
Y684784D01*
X346456Y727710D02*
X349504D01*
X347980Y726186D02*
Y729234D01*
X279781Y602686D02*
X282829D01*
X281305Y601162D02*
Y604210D01*
X279781Y577850D02*
X282829D01*
X281305Y576326D02*
Y579374D01*
X577596Y637540D02*
X580644D01*
X579120Y636016D02*
Y639064D01*
X103886Y421640D02*
X106934D01*
X105410Y420116D02*
Y423164D01*
X112776Y421640D02*
X115824D01*
X114300Y420116D02*
Y423164D01*
X93726Y586740D02*
X96774D01*
X95250Y585216D02*
Y588264D01*
X93726Y574040D02*
X96774D01*
X95250Y572516D02*
Y575564D01*
X129159Y487447D02*
X132207D01*
X130683Y485923D02*
Y488971D01*
X77851Y438150D02*
X80899D01*
X79375Y436626D02*
Y439674D01*
X218186Y351790D02*
X221234D01*
X219710Y350266D02*
Y353314D01*
X591566Y862330D02*
X594614D01*
X593090Y860806D02*
Y863854D01*
X524256Y821690D02*
X527304D01*
X525780Y820166D02*
Y823214D01*
X469646Y833120D02*
X472694D01*
X471170Y831596D02*
Y834644D01*
X470095Y822511D02*
X473143D01*
X471619Y820987D02*
Y824035D01*
X204216Y723900D02*
X207264D01*
X205740Y722376D02*
Y725424D01*
X215646Y675640D02*
X218694D01*
X217170Y674116D02*
Y677164D01*
X155956Y697230D02*
X159004D01*
X157480Y695706D02*
Y698754D01*
X159069Y688903D02*
X162117D01*
X160593Y687379D02*
Y690427D01*
X192786Y675640D02*
X195834D01*
X194310Y674116D02*
Y677164D01*
X176911Y682625D02*
X179959D01*
X178435Y681101D02*
Y684149D01*
X162941Y654050D02*
X165989D01*
X164465Y652526D02*
Y655574D01*
X256286Y568960D02*
X259334D01*
X257810Y567436D02*
Y570484D01*
X262636Y534670D02*
X265684D01*
X264160Y533146D02*
Y536194D01*
X257493Y514287D02*
X260541D01*
X259017Y512763D02*
Y515811D01*
X253569Y506044D02*
X256617D01*
X255093Y504520D02*
Y507567D01*
X277876Y541020D02*
X280924D01*
X279400Y539496D02*
Y542544D01*
X279781Y528840D02*
X282829D01*
X281305Y527316D02*
Y530364D01*
X354076Y688340D02*
X357124D01*
X355600Y686816D02*
Y689864D01*
X329946Y680720D02*
X332994D01*
X331470Y679196D02*
Y682244D01*
X185166Y492760D02*
X188214D01*
X186690Y491236D02*
Y494284D01*
X205486Y624840D02*
X208534D01*
X207010Y623316D02*
Y626364D01*
X624586Y734060D02*
X627634D01*
X626110Y732536D02*
Y735584D01*
X573786Y961390D02*
X576834D01*
X575310Y959866D02*
Y962914D01*
X615696Y951230D02*
X618744D01*
X617220Y949706D02*
Y952754D01*
X514096Y716280D02*
X517144D01*
X515620Y714756D02*
Y717804D01*
X572516Y736600D02*
X575564D01*
X574040Y735076D02*
Y738124D01*
X522986Y769620D02*
X526034D01*
X524510Y768096D02*
Y771144D01*
X481076Y796290D02*
X484124D01*
X482600Y794766D02*
Y797814D01*
X416306Y916940D02*
X419354D01*
X417830Y915416D02*
Y918464D01*
X376936Y814070D02*
X379984D01*
X378460Y812546D02*
Y815594D01*
X187706Y739140D02*
X190754D01*
X189230Y737616D02*
Y740664D01*
X136906Y444500D02*
X139954D01*
X138430Y442976D02*
Y446024D01*
X86106Y369570D02*
X89154D01*
X87630Y368046D02*
Y371094D01*
X249936Y284480D02*
X252984D01*
X251460Y282956D02*
Y286004D01*
X129286Y316230D02*
X132334D01*
X130810Y314706D02*
Y317754D01*
X161036Y237490D02*
X164084D01*
X162560Y235966D02*
Y239014D01*
X230886Y212090D02*
X233934D01*
X232410Y210566D02*
Y213614D01*
X469646Y210820D02*
X472694D01*
X471170Y209296D02*
Y212344D01*
X415036Y317500D02*
X418084D01*
X416560Y315976D02*
Y319024D01*
X444246Y407670D02*
X447294D01*
X445770Y406146D02*
Y409194D01*
X404876Y391160D02*
X407924D01*
X406400Y389636D02*
Y392684D01*
X448056Y481330D02*
X451104D01*
X449580Y479806D02*
Y482854D01*
X440436Y529590D02*
X443484D01*
X441960Y528066D02*
Y531114D01*
X440436Y638810D02*
X443484D01*
X441960Y637286D02*
Y640334D01*
X373126Y478790D02*
X376174D01*
X374650Y477266D02*
Y480314D01*
X317246Y622300D02*
X320294D01*
X318770Y620776D02*
Y623824D01*
X373126Y680720D02*
X376174D01*
X374650Y679196D02*
Y682244D01*
X373126Y641350D02*
X376174D01*
X374650Y639826D02*
Y642874D01*
X274066Y704850D02*
X277114D01*
X275590Y703326D02*
Y706374D01*
X303276Y704850D02*
X306324D01*
X304800Y703326D02*
Y706374D01*
X263906Y886460D02*
X266954D01*
X265430Y884936D02*
Y887984D01*
X244856Y798830D02*
X247904D01*
X246380Y797306D02*
Y800354D01*
X140716Y681990D02*
X143764D01*
X142240Y680466D02*
Y683514D01*
X111506Y676910D02*
X114554D01*
X113030Y675386D02*
Y678434D01*
X268986Y683260D02*
X272034D01*
X270510Y681736D02*
Y684784D01*
X599186Y706120D02*
X602234D01*
X600710Y704596D02*
Y707644D01*
X695706Y744220D02*
X698754D01*
X697230Y742696D02*
Y745744D01*
X704596Y770890D02*
X707644D01*
X706120Y769366D02*
Y772414D01*
X684276Y712470D02*
X687324D01*
X685800Y710946D02*
Y713994D01*
X674116Y703580D02*
X677164D01*
X675640Y702056D02*
Y705104D01*
X613156Y706120D02*
X616204D01*
X614680Y704596D02*
Y707644D01*
X653796Y699770D02*
X656844D01*
X655320Y698246D02*
Y701294D01*
X632206Y699770D02*
X635254D01*
X633730Y698246D02*
Y701294D01*
X492506Y679450D02*
X495554D01*
X494030Y677926D02*
Y680974D01*
X492506Y643890D02*
X495554D01*
X494030Y642366D02*
Y645414D01*
X492506Y736600D02*
X495554D01*
X494030Y735076D02*
Y738124D01*
X454406Y709930D02*
X457454D01*
X455930Y708406D02*
Y711454D01*
X463296Y709930D02*
X466344D01*
X464820Y708406D02*
Y711454D01*
X545846Y736600D02*
X548894D01*
X547370Y735076D02*
Y738124D01*
X677926Y581660D02*
X680974D01*
X679450Y580136D02*
Y583184D01*
X338836Y351790D02*
X341884D01*
X340360Y350266D02*
Y353314D01*
X304546Y314960D02*
X307594D01*
X306070Y313436D02*
Y316484D01*
X141986Y341630D02*
X145034D01*
X143510Y340106D02*
Y343154D01*
X328676Y359410D02*
X331724D01*
X330200Y357886D02*
Y360934D01*
X385826Y685800D02*
X388874D01*
X387350Y684276D02*
Y687324D01*
X542671Y746125D02*
X545719D01*
X544195Y744601D02*
Y747649D01*
X676656Y880110D02*
X679704D01*
X678180Y878586D02*
Y881634D01*
X253746Y599440D02*
X256794D01*
X255270Y597916D02*
Y600964D01*
X228346Y480060D02*
X231394D01*
X229870Y478536D02*
Y481584D01*
X125476Y461010D02*
X128524D01*
X127000Y459486D02*
Y462534D01*
X95836Y650819D02*
X98884D01*
X97360Y649296D02*
Y652344D01*
X89916Y678180D02*
X92964D01*
X91440Y676656D02*
Y679704D01*
X183896Y675640D02*
X186944D01*
X185420Y674116D02*
Y677164D01*
X150876Y654050D02*
X153924D01*
X152400Y652526D02*
Y655574D01*
X138176Y654050D02*
X141224D01*
X139700Y652526D02*
Y655574D01*
X227076Y723900D02*
X230124D01*
X228600Y722376D02*
Y725424D01*
X643636Y687070D02*
X646684D01*
X645160Y685546D02*
Y688594D01*
X564896Y623570D02*
X567944D01*
X566420Y622046D02*
Y625094D01*
X138176Y461010D02*
X141224D01*
X139700Y459486D02*
Y462534D01*
X509016Y869950D02*
X512064D01*
X510540Y868426D02*
Y871474D01*
X483616Y869950D02*
X486664D01*
X485140Y868426D02*
Y871474D01*
X234696Y612140D02*
X237744D01*
X236220Y610616D02*
Y613664D01*
X134366Y219710D02*
X137414D01*
X135890Y218186D02*
Y221234D01*
X110236Y264160D02*
X113284D01*
X111760Y262636D02*
Y265684D01*
X86106Y308610D02*
X89154D01*
X87630Y307086D02*
Y310134D01*
X218186Y264160D02*
X221234D01*
X219710Y262636D02*
Y265684D01*
X192786Y264160D02*
X195834D01*
X194310Y262636D02*
Y265684D01*
X180086Y264160D02*
X183134D01*
X181610Y262636D02*
Y265684D01*
X469646Y849630D02*
X472694D01*
X471170Y848106D02*
Y851154D01*
M02*
